<?xml version="1.0" encoding="utf-8"?>
<!-- Generator: Adobe Illustrator 21.0.2, SVG Export Plug-In . SVG Version: 6.00 Build 0)  -->
<svg version="1.1" id="Layer_1" xmlns="http://www.w3.org/2000/svg" xmlns:xlink="http://www.w3.org/1999/xlink" x="0px" y="0px"
	 viewBox="0 0 67.5 90" style="enable-background:new 0 0 67.5 90;" xml:space="preserve">
<path d="M58.8,5V2.5c0-1.4-1.1-2.5-2.5-2.5s-2.5,1.1-2.5,2.5V5h-2.5V2.5c0-1.4-1.1-2.5-2.5-2.5s-2.5,1.1-2.5,2.5V5h-2.5V2.5
	c0-1.4-1.1-2.5-2.5-2.5s-2.5,1.1-2.5,2.5V5h-2.5V2.5c0-1.4-1.1-2.5-2.5-2.5s-2.5,1.1-2.5,2.5V5h-2.5V2.5c0-1.4-1.1-2.5-2.5-2.5
	s-2.5,1.1-2.5,2.5V5h-2.5V2.5c0-1.4-1.1-2.5-2.5-2.5s-2.5,1.1-2.5,2.5V5h-2.5V2.5c0-1.4-1.1-2.5-2.5-2.5S8.8,1.1,8.8,2.5V5H0v85
	h67.5V5H58.8z M62.5,85H5V10h3.8v2.5c0,1.4,1.1,2.5,2.5,2.5s2.5-1.1,2.5-2.5V10h2.5v2.5c0,1.4,1.1,2.5,2.5,2.5s2.5-1.1,2.5-2.5V10
	h2.5v2.5c0,1.4,1.1,2.5,2.5,2.5s2.5-1.1,2.5-2.5V10h2.5v2.5c0,1.4,1.1,2.5,2.5,2.5s2.5-1.1,2.5-2.5V10h2.5v2.5
	c0,1.4,1.1,2.5,2.5,2.5s2.5-1.1,2.5-2.5V10h2.5v2.5c0,1.4,1.1,2.5,2.5,2.5s2.5-1.1,2.5-2.5V10h2.5v2.5c0,1.4,1.1,2.5,2.5,2.5
	s2.5-1.1,2.5-2.5V10h3.8L62.5,85L62.5,85z"/>
<path d="M30.7,70.3l-9.9-18.6c-1.9-3.5-5.6-4.5-8.6-2.3s-3.8,6.6-2,10.1l9.9,18.6c1.9,3.5,5.6,4.5,8.6,2.3S32.6,73.8,30.7,70.3z"/>
<path d="M47.2,21.8L20.2,70.4c-1.8,3.5-1,7.9,2,10.1c2.9,2.2,6.7,1.2,8.6-2.3l26.9-48.6c1.8-3.5,1-7.9-2-10.1
	C52.8,17.3,49,18.3,47.2,21.8z"/>
</svg>
