<?xml version="1.0" encoding="utf-8"?>
<!-- Generator: Adobe Illustrator 22.1.0, SVG Export Plug-In . SVG Version: 6.00 Build 0)  -->
<svg version="1.1" id="Layer_1" xmlns="http://www.w3.org/2000/svg" xmlns:xlink="http://www.w3.org/1999/xlink" x="0px" y="0px"
	 viewBox="0 0 67.5 90" style="enable-background:new 0 0 67.5 90;" xml:space="preserve">
<path d="M58.8,5V2.5c0-1.4-1.1-2.5-2.5-2.5s-2.5,1.1-2.5,2.5V5h-2.5V2.5c0-1.4-1.1-2.5-2.5-2.5s-2.5,1.1-2.5,2.5V5h-2.5V2.5
	c0-1.4-1.1-2.5-2.5-2.5s-2.5,1.1-2.5,2.5V5h-2.5V2.5c0-1.4-1.1-2.5-2.5-2.5s-2.5,1.1-2.5,2.5V5h-2.5V2.5c0-1.4-1.1-2.5-2.5-2.5
	s-2.5,1.1-2.5,2.5V5h-2.5V2.5c0-1.4-1.1-2.5-2.5-2.5s-2.5,1.1-2.5,2.5V5h-2.5V2.5c0-1.4-1.1-2.5-2.5-2.5S8.8,1.1,8.8,2.5V5H0v85
	h67.5V5H58.8z M62.5,85H5V10h3.8v2.5c0,1.4,1.1,2.5,2.5,2.5s2.5-1.1,2.5-2.5V10h2.5v2.5c0,1.4,1.1,2.5,2.5,2.5s2.5-1.1,2.5-2.5V10
	h2.5v2.5c0,1.4,1.1,2.5,2.5,2.5s2.5-1.1,2.5-2.5V10h2.5v2.5c0,1.4,1.1,2.5,2.5,2.5s2.5-1.1,2.5-2.5V10h2.5v2.5
	c0,1.4,1.1,2.5,2.5,2.5s2.5-1.1,2.5-2.5V10h2.5v2.5c0,1.4,1.1,2.5,2.5,2.5c1.4,0,2.5-1.1,2.5-2.5V10h2.5v2.5c0,1.4,1.1,2.5,2.5,2.5
	s2.5-1.1,2.5-2.5V10h3.8V85z"/>
<path d="M56.2,22.5h-45c-1.4,0-2.5,1.1-2.5,2.5s1.1,2.5,2.5,2.5h45c1.4,0,2.5-1.1,2.5-2.5S57.6,22.5,56.2,22.5z"/>
<path d="M56.2,32.5h-45c-1.4,0-2.5,1.1-2.5,2.5s1.1,2.5,2.5,2.5h45c1.4,0,2.5-1.1,2.5-2.5S57.6,32.5,56.2,32.5z"/>
<path d="M56.2,42.5h-45c-1.4,0-2.5,1.1-2.5,2.5s1.1,2.5,2.5,2.5h45c1.4,0,2.5-1.1,2.5-2.5S57.6,42.5,56.2,42.5z"/>
<path d="M56.2,52.5h-45c-1.4,0-2.5,1.1-2.5,2.5s1.1,2.5,2.5,2.5h45c1.4,0,2.5-1.1,2.5-2.5S57.6,52.5,56.2,52.5z"/>
<path d="M56.2,62.5h-45c-1.4,0-2.5,1.1-2.5,2.5s1.1,2.5,2.5,2.5h45c1.4,0,2.5-1.1,2.5-2.5S57.6,62.5,56.2,62.5z"/>
<path d="M56.2,72.5h-45c-1.4,0-2.5,1.1-2.5,2.5s1.1,2.5,2.5,2.5h45c1.4,0,2.5-1.1,2.5-2.5S57.6,72.5,56.2,72.5z"/>
</svg>
