<?xml version="1.0" encoding="utf-8"?>
<!-- Generator: Adobe Illustrator 22.0.1, SVG Export Plug-In . SVG Version: 6.00 Build 0)  -->
<svg version="1.1" id="dont_x5F_know" xmlns="http://www.w3.org/2000/svg" xmlns:xlink="http://www.w3.org/1999/xlink" x="0px"
	 y="0px" viewBox="0 0 600 750" style="enable-background:new 0 0 600 750;" xml:space="preserve">
<style type="text/css">
	.st0{opacity:0.65;fill-rule:evenodd;clip-rule:evenodd;fill:none;stroke:#FBFCFC;stroke-width:2;stroke-miterlimit:10;}
	.st1{fill-rule:evenodd;clip-rule:evenodd;fill:none;}
	.st2{fill:#005596;fill-opacity:0.6;stroke:#005596;stroke-width:2;stroke-miterlimit:10;}
	.st3{fill:#FFFFFF;}
	.st4{fill-rule:evenodd;clip-rule:evenodd;fill:#005596;}
	.st5{fill-rule:evenodd;clip-rule:evenodd;fill:#FCEE21;}
	.st6{fill-rule:evenodd;clip-rule:evenodd;fill:#F15A24;}
	.st7{fill:none;stroke:#4D4D4D;stroke-width:0.6;stroke-linecap:round;stroke-linejoin:round;stroke-miterlimit:10;}
	.st8{fill:none;stroke:#4D4D4D;stroke-width:2;stroke-linejoin:round;stroke-miterlimit:10;}
	.st9{fill:none;stroke:#FFFFFF;stroke-width:2;stroke-miterlimit:10;}
</style>
<path class="st3" d="M390.8,29.3h0.7v1.3v0.7h0.7h-0.7v1.3h0.7v0.7h-0.7v0.7h0.7v0.7h0.7v0.7h-0.7v0.7h0.7h-0.7h0.7v0.7v0.7v0.7h0.7
	v0.7v0.7v0.7v0.7h0.7V41v0.7v0.7h0.7V43v0.7v0.7l0.7,0.7v0.7v0.7h0.7h-0.7l0.7,0.7v0.7h0.7v0.7v0.7h0.7l0.7,0.7v0.7h0.7v0.7l0.7,0.7
	l0.7,0.7v0.7h0.7v0.7l0.7,0.7h0.7v0.7v0.7h0.7l0.7,0.7l0.7,0.7V56v0.7l-0.7,0.7h-2.6v0.7v0.7v0.7h0.7v0.7v0.7l0.7,0.7h-0.7v0.7v0.7
	v0.7l0.7,0.7v0.7v0.7l0.7,0.7v0.7v0.7h0.7l-0.7,0.7l0.7,0.7V69v0.7l0.7,0.7V71l0.7,0.7v0.7h0.7v0.7v0.7v0.7v0.7v0.7v0.7h-0.7v0.7
	h0.7v0.7v0.7v0.7v0.7v0.7v0.7v0.7V82h0.7v0.7v0.7h-0.7V84v2l0.7,0.7v0.7h-0.7v0.7h0.7v0.7v0.7v0.7v0.7h-0.7l0.7,0.7l0.7,0.7v0.7h0.7
	l0.7,0.7l0.7,0.7l0.7,0.7v0.7h0.7v0.7h0.7h0.7h0.7v0.7l0.7-2L411,97v0.7v0.7V99l-0.7,0.7v0.7v0.7v0.7v0.7v0.7v0.7v0.7v0.7v0.7h0.7
	v0.7v0.7v0.7h0.7v0.7l0.7,0.7l0.7,0.7l0.7,0.7h1.3v0.7h0.7h0.7l0.7-0.7l-0.7,0.7v0.7h0.7v0.7v2v1.3v1.3v2v0.7v0.7v0.7h0.7v0.7v0.7
	l0.7,0.7l0.7,0.7v0.7v0.7h0.7v0.7l0.7,0.7l0.7,0.7v0.7h0.7v0.7h0.7v0.7l-0.7-0.7l-0.7,0.7h0.7h0.7l0.7,0.7h0.7v0.7h0.7v0.7h0.7
	l0.7,0.7h1.3h0.7l0.7,0.7h0.7l0.7,0.7l1.3,0.7h0.7h1.3h0.7h0.7l0.7,0.7h1.3h0.7v0.7h0.7v-1.3v-0.7v-0.7v-0.7v-0.7v-0.7h0.7v-0.7
	v-0.7h0.7v-0.7V127h-0.7H437v0.7v0.7v-0.7V127h0.7h0.7v0.7l-0.7,0.7v0.7v0.7l-0.7,0.7v0.7v0.7v0.7v0.7v0.7v0.7v0.7v0.7v0.7h0.7v0.7
	h0.7v0.7v0.7h-0.7v0.7H437v0.7h-0.7h-0.7v0.7h-0.7h-0.7v0.7h-0.7l-0.7,0.7v0.7h-0.7v0.7h-0.7v0.7h-0.7v0.7h-0.7v0.7h-0.7h-0.7h-0.7
	h-0.7h-0.7h-0.7l-0.7-0.7h-0.7v1.3v-1.3h-0.7v-0.7v-0.7v-0.7h0.7l0.7,0.7h0.7h0.7h0.7h0.7h0.7h0.7l0.7-0.7l0.7-0.7l0.7-0.7V140
	l0.7-0.7l-0.7-0.7V138h-0.7h-0.7h-0.7h-0.7h-0.7v0.7h-0.7h-0.7h-1.3h-0.7h-0.7l-0.7,0.7h-0.7l-0.7,0.7v0.7v0.7v0.7l0.7,0.7v0.7v0.7
	v0.7h0.7h-0.7v0.7v0.7v0.7v0.7v0.7v0.7v0.7l0.7,0.7v0.7v0.7v0.7v0.7v0.7h0.7v0.7v0.7v0.7l0.7,0.7v0.7v0.7l0.7,0.7v0.7v0.7h0.7v0.7
	v0.7v0.7h0.7v0.7v0.7l0.7,0.7v0.7v0.7l0.7,0.7v0.7v0.7h0.7v0.7v0.7h0.7v0.7l0.7,0.7v0.7l0.7,0.7v0.7h0.7v0.7h0.7v0.7l0.7,0.7v0.7
	h0.7v0.7h0.7v0.7h0.7v0.7l0.7,0.7v0.7h-0.7h-0.7v-0.7v-0.7h-0.7v-0.7h-0.7v0.7h-0.7h-0.7h-0.7v-0.7l-0.7-1.3l-0.7-1.3l0.7-0.7
	l-0.7-1.3h-0.7l-0.7-0.7h-0.7h-0.7v-0.7h-0.7h-0.7h-0.7l0.7-0.7h-0.7l-0.7-0.7v-0.7H424V166h-0.7h-0.7l0.7,0.7v0.7h0.7v0.7h0.7
	l0.7,0.7v0.7h0.7v0.7v0.7l-0.7,0.7v0.7l1.3,2v0.7h0.7v0.7h0.7v0.7v1.3v0.7v0.7h0.7v0.7l0.7,1.3l0.7,0.7l0.7-0.7v0.7h0.7h0.7v0.7
	l0.7-0.7l0.7-0.7v-0.7l-0.7-0.7h0.7v-1.3h0.7v-0.7v0.7h0.7v0.7v0.7v0.7v0.7h0.7v0.7v0.7v0.7v0.7l0.7,0.7v0.7l0.7,0.7v0.7h0.7
	l-0.7,0.7h0.7v0.7v0.7v0.7v0.7l0.7,0.7v0.7h0.7l0.7,1.3v0.7h0.7v0.7v0.7H439v0.7v0.7V194v-0.7v0.7h-0.7v0.7h-0.7h0.7v0.7h0.7v0.7
	v0.7v0.7v0.7v0.7v0.7v0.7v0.7v0.7v0.7l0.7,0.7v0.7H439h0.7v0.7l0.7,0.7v0.7h0.7v0.7v0.7h-0.7v0.7h-0.7v0.7v0.7v0.7v0.7h0.7v0.7v0.7
	v0.7h0.7v0.7h0.7v0.7l0.7-0.7l-1.3,1.3v-0.7v0.7v0.7h0.7v0.7l0.7,0.7v0.7l0.7-0.7h0.7h-0.7v0.7h-0.7h-0.7v0.7h0.7v0.7v0.7h0.7v0.7
	h0.7l0.7-0.7l-0.7,0.7l-0.7,0.7h-0.7h0.7v0.7v0.7h0.7v0.7h0.7h0.7h-0.7l-0.7,0.7h-0.7v0.7h0.7v0.7h0.7v0.7h0.7v0.7l0.7-0.7h0.7
	l-0.7,0.7h-0.7v0.7h0.7v0.7h0.7v0.7h0.7v0.7h0.7v0.7h0.7v0.7h0.7v0.7h0.7h0.7v0.7h0.7h0.7h0.7h0.7h0.7v-0.7v0.7v0.7v-0.7h0.7v-0.7
	v-0.7v-0.7h-0.7v-0.7v0.7h-0.7l0.7-0.7h0.7v0.7v0.7v0.7v0.7l-0.7,0.7h-0.7v0.7H452h-0.7h-0.7l-0.7,0.7h-0.7v0.7l-1.3,0.7v0.7v0.7
	v0.7h-0.7v0.7v0.7v0.7v0.7v0.7v0.7v0.7v0.7v0.7l0.7,0.7v0.7v0.7v0.7h0.7v0.7v0.7v0.7v0.7l0.7,1.3v0.7h0.7v0.7h0.7v0.7l0.7,0.7v0.7
	h0.7v0.7h0.7v0.7h0.7h0.7h0.7v0.7h0.7v0.7h0.7v0.7v0.7l0.7,0.7l0.7,0.7v0.7l0.7,0.7v0.7l0.7,0.7v0.7l0.7,0.7v0.7l0.7,0.7v0.7
	l0.7,0.7v0.7h0.7v1.3l0.7,0.7v0.7l0.7,0.7l0.7,0.7l0.7,0.7h0.7h0.7h0.7V267h0.7v-0.7v-0.7h0.7V265v-0.7h0.7v-0.7v-0.7l0.7-0.7
	l0.7-0.7h0.7h0.7h0.7h0.7h0.7h0.7h0.7h0.7h0.7h0.7h0.7h0.7h0.7h0.7h0.7h0.7v0.7v0.7v0.7v0.7v0.7v0.7v0.7v0.7v0.7h-2h-0.7h-1.3h-6.5
	v1.3v0.7h6.5h0.7h2l3.3-0.7h0.7v0.7h2.6v0.7v0.7h-2.6v0.7h-0.7H480h-1.3h-1.3h-1.3h-0.7h-3.3h-3.3v0.7l0.7,1.3v0.7v0.7h2h0.7h-0.7
	v0.7h0.7v0.7h2h0.7h0.7h0.7h-0.7v0.7h1.3h0.7h1.3h0.7h-0.7h-1.3h-1.3h-0.7l-0.7,0.7v-0.7h-0.7l-2,0.7h-0.7h-0.7h-2v0.7v0.7v0.7v0.7
	v1.3v0.7v0.7v0.7v0.7v0.7h-2.6H465v0.7v0.7h-0.7v0.7v0.7h-0.7h-0.7v0.7h-0.7h-0.7h-0.7h-0.7v0.7h-0.7v0.7v0.7h0.7v1.3v0.7h-0.7v0.7
	v0.7v0.7v1.3v0.7v0.7v0.7v0.7v0.7v0.7h0.7v0.7v0.7v0.7v0.7v0.7v0.7v0.7v0.7v0.7v0.7v0.7v0.7v0.7h-0.7l0.7,0.7v0.7v0.7v0.7v0.7v0.7
	v0.7v0.7v0.7l0.7,0.7v0.7h0.7h0.7v-0.7h0.7h0.7h0.7h0.7v0.7h0.7v0.7v0.7v0.7H465v0.7h3.3h1.3h2h0.7v-0.7h0.7h0.7h0.7h0.7v0.7v0.7
	v0.7v0.7v1.3v0.7h-0.7v-0.7v-0.7h-0.7v0.7h-0.7v0.7h-0.7v0.7v0.7v0.7h0.7v0.7v0.7l0.7,0.7v0.7h0.7h0.7v0.7v0.7v0.7v0.7v0.7v0.7h-0.7
	h-0.7v0.7v0.7v0.7v0.7v0.7v0.7v1.3v0.7v0.7v0.7v0.7v0.7v0.7v0.7v0.7l0.7,0.7v0.7v0.7h-0.7l-0.7,0.7h-0.7h-0.7h-0.7h-0.7l-0.7-0.7
	v-0.7v-0.7v-0.7v-0.7v-0.7v-0.7v-0.7v-0.7h0.7V336v-0.7h-0.7v-0.7V334h-0.7v-0.7v-0.7h0.7v-0.7h-0.7v-0.7h-0.7v-0.7v-0.7v-0.7v-0.7
	v-0.7v-0.7v-0.7h0.7v-0.7v-0.7h0.7v-0.7v-0.7v-0.7V323v-0.7v-0.7h-0.7V321v-0.7l-0.7-0.7v-0.7H467h-2v0.7v0.7v0.7l-0.7,0.7v0.7v0.7
	v0.7v0.7v0.7v0.7l0.7,0.7v0.7h0.7v0.7v0.7v0.7h0.7v0.7h-0.7v0.7v0.7l0.7,0.7v0.7l-0.7,0.7H465v0.7v0.7v0.7v0.7v0.7v0.7v0.7h0.7v0.7
	h0.7l0.7,0.7l0.7,0.7v0.7v0.7v0.7v0.7h0.7v0.7v0.7l0.7,0.7v0.7h0.7v0.7l0.7,0.7v0.7v0.7v0.7v0.7v0.7v0.7v0.7v0.7h-0.7l0.7,0.7v0.7
	v0.7l0.7,0.7v0.7l0.7,0.7v0.7v0.7v0.7h-0.7v0.7v0.7h-0.7v0.7v0.7h0.7v0.7v0.7l0.7,0.7v0.7h0.7v0.7v0.7v0.7v0.7v0.7h0.7v0.7h0.7h0.7
	h-0.7h-0.7v0.7l0.7,1.3h0.7v0.7l0.7,1.3l2-0.7l0.7-1.3v-0.7v0.7l-0.7,1.3l-2,0.7v0.7v0.7v0.7v0.7v0.7h0.7v0.7v0.7l0.7,0.7v0.7h0.7
	v0.7h0.7l-0.7,0.7l-0.7,0.7h0.7v0.7v0.7l0.7,0.7h0.7v0.7h0.7h0.7v0.7l0.7,0.7h-0.7v0.7v0.7h0.7v0.7v0.7l0.7,0.7v0.7h0.7v0.7l0.7,0.7
	v0.7h0.7v0.7l0.7,0.7v0.7h0.7v0.7h0.7v0.7h0.7v0.7h0.7l0.7,0.7v0.7h0.7v0.7v0.7v0.7v0.7l-0.7,0.7h0.7v0.7v0.7v0.7v0.7v0.7h0.7v0.7
	v0.7h0.7v0.7v0.7h0.7v0.7l0.7,0.7v0.7l0.7,0.7h0.7v0.7h0.7v0.7h0.7v0.7h0.7v0.7h0.7h0.7v0.7v0.7v0.7v0.7l0.7,0.7v0.7v0.7h0.7v0.7
	h0.7v0.7v0.7h0.7v0.7v0.7h0.7v0.7v0.7v0.7h0.7v0.7h0.7v0.7h0.7v0.7h0.7v0.7h0.7h0.7v0.7h0.7v0.7v0.7v0.7v0.7v0.7h0.7v0.7v0.7h0.7
	v0.7v0.7v0.7h0.7v0.7v0.7h0.7v0.7h0.7v0.7h0.7v0.7h0.7v0.7h0.7v0.7h0.7l0.7,0.7l0.7,0.7v0.7h0.7v0.7h0.7h0.7h0.7v0.7v0.7l-0.7,0.7
	v0.7v0.7v0.7v0.7v1.3v0.7v0.7v0.7v0.7l0.7,0.7v0.7v0.7h0.7h-0.7v0.7h0.7v0.7h0.7v0.7h0.7v0.7h0.7v0.7h0.7h0.7h0.7v-0.7h0.7h0.7v0.7
	h0.7v0.7v0.7v0.7v0.7h-0.7v0.7h-0.7h-0.7h-0.7h-0.7l-0.7,0.7h-0.7v0.7h-0.7v0.7v0.7v0.7v0.7v0.7h-0.7v0.7v0.7v0.7h0.7v0.7v0.7h0.7
	v0.7v0.7h0.7v0.7h0.7v0.7h0.7v0.7h0.7v0.7h0.7v0.7h-0.7h-0.7h-0.7v0.7h0.7v0.7v0.7v0.7v0.7v0.7l0.7,0.7v0.7v0.7v0.7h0.7v0.7v0.7
	l0.7,0.7v0.7h0.7v0.7h0.7l0.7,0.7h0.7v0.7h0.7l0.7,0.7h0.7l0.7,0.7h0.7h0.7v0.7h0.7h0.7h0.7h0.7h0.7l0.7-0.7l1.3-5.2l-0.7,5.2
	l-1.3,0.7h-0.7l-0.7,0.7h-0.7h-0.7l-0.7,0.7h-0.7l-1.3,0.7h-0.7l0.7,0.7v0.7h-0.7H521h-0.7v0.7h-0.7v0.7H519v0.7v0.7v0.7v0.7v0.7
	v0.7v0.7h0.7v0.7v0.7H519h0.7v0.7h0.7h0.7h0.7h0.7v-0.7h0.7h0.7v-0.7v-0.7v-0.7v-0.7H523v-0.7l-0.7,0.7v-0.7v-0.7h-0.7v-0.7v-0.7
	v-0.7v-0.7h0.7h0.7v0.7h0.7H523h0.7v0.7h0.7v0.7l0.7,0.7l0.7,0.7l0.7,0.7v0.7h0.7h0.7v0.7h0.7v0.7h0.7v0.7v0.7h0.7v0.7v0.7h0.7v0.7
	h0.7v0.7l0.7,0.7v0.7h0.7v0.7h0.7v0.7h0.7v0.7h0.7h0.7h0.7v0.7v0.7v0.7v0.7l0.7,0.7v0.7v0.7h0.7v0.7v0.7h0.7v0.7h0.7h0.7v0.7h0.7
	h0.7v-0.7h0.7v-0.7h0.7v0.7v0.7v0.7v0.7v0.7v0.7v0.7h-0.7v0.7h-0.7v0.7h-0.7v0.7h0.7v0.7v0.7h0.7h0.7v0.7h-0.7v0.7h0.7l0.7,0.7h0.7
	l1.3,1.3v0.7h0.7v0.7h0.7v0.7h0.7v0.7h0.7h0.7h0.7v0.7h0.7v0.7l0.7,0.7h0.7v0.7h0.7h0.7v0.7h0.7h0.7v0.7h0.7h0.7v0.7h0.7l0.7,0.7
	h0.7h0.7v0.7h0.7h0.7l0.7-0.7h0.7h0.7l0.7-0.7h0.7v-0.7h0.7v-0.7h0.7v-0.7h0.7h0.7h-0.7v-0.7H562h-0.7h-2h0.7h0.7h0.7h0.7h0.7
	l0.7,1.3l0.7,0.7h0.7v0.7v0.7l1.3,2h0.7h0.7v0.7h0.7v0.7h-0.7h-0.7v0.7h-0.7v0.7h-0.7v0.7h-0.7v0.7H564l-0.7,0.7h-0.7v0.7h0.7h-0.7
	h0.7h-0.7v0.7v0.7v0.7v0.7v0.7l0.7,0.7v0.7v0.7h0.7v0.7h0.7h0.7h0.7h0.7h0.7h0.7h0.7v0.7h0.7h0.7v0.7h0.7h0.7v0.7h0.7h0.7v0.7h0.7
	h0.7v0.7h0.7h0.7v0.7h0.7h0.7v0.7h0.7h0.7v0.7h0.7l0.7,0.7h0.7l0.7,0.7h0.7v0.7h0.7v0.7v0.7v0.7v0.7v0.7v0.7l0.7,5.2l0.7,1.3v0.7
	v0.7v0.7h0.7h7.2v-0.7v0.7h-7.8h-0.7l-0.7,0.7h-0.7h-0.7h-2.6h-4.6h-3.9v0.7v0.7h1.3l3.3-0.7h3.3h0.7h3.3h2v0.7v0.7v0.7v0.7h0.7v0.7
	v0.7v0.7v0.7v0.7v0.7v0.7v0.7v0.7h0.7v0.7v0.7v0.7v0.7v0.7v0.7v0.7v1.3l-0.7,1.3h0.7v0.7h2.6l2.6,0.7h0.7v0.7l0.7,0.7v2.6v2.6v8.5
	v0.7v1.3v1.3H590v0.7h0.7L590,588v-0.7v0.7h-0.7l0.7,0.7h-0.7v0.7v0.7v0.7v0.7v0.7v0.7h0.7v0.7v0.7h0.7v0.7H590l-0.7,0.7h-0.7h-0.7
	l-0.7,0.7h-0.7v0.7h-0.7v0.7h-0.7v0.7h-0.7v0.7v0.7l0.7,0.7v0.7l0.7,0.7v0.7v0.7h0.7v0.7l1.3,1.3l2-2l-2,2l-2.6,2.6l2,2h0.7h0.7
	v-0.7h0.7v-0.7v0.7h0.7v0.7h0.7v0.7h0.7v0.7h-0.7v-0.7l-0.7-0.7v0.7v-0.7v0.7l-0.7-0.7l-0.7,0.7l0.7,0.7l0.7-0.7v0.7v-0.7l-0.7,0.7
	v0.7h0.7l0.7-0.7l-0.7,0.7h0.7v0.7v1.3v0.7v0.7v0.7v0.7l0.7,3.3v0.7v0.7v2v0.7v0.7v0.7v0.7v0.7v0.7v0.7v0.7v0.7v0.7v0.7v3.3v3.3v0.7
	v0.7v0.7v0.7v0.7v0.7v0.7v0.7v0.7v1.3v6.5v7.2v3.3v3.3v0.7v2.6v0.7v1.3v2v1.3v2v2.6v0.7v27.3v13v5.9v7.8h-3.9h-0.7h-2h-0.7h-0.7
	h-5.9h-4.6l-1.3,0.7h-1.3h-1.3h-1.3h-0.7h-10.4h-3.3h-1.3h-7.8h-1.3h-2.6h-1.3h-0.7h-0.7h-0.7h-0.7H536h-0.7h-0.7H534h-0.7h-0.7
	h-0.7h-0.7h-0.7h-0.7h-0.7h-0.7h-0.7h-0.7h-0.7h-0.7h-0.7h-0.7h-0.7h-0.7H523h-1.3h-3.3h-2h-9.8h-5.2h-5.2H495h-0.7h-0.7H493
	l-0.7,0.7h-0.7H491h-0.7h-0.7l-0.7-0.7l-0.7,0.7h-0.7h-1.3h-0.7h-1.3h-0.7h-0.7h-0.7h-1.3H480h-0.7H478h-0.7h-0.7h-0.7h-0.7h-1.3
	h-0.7h-0.7h-0.7h-0.7h-0.7h-0.7h-0.7h-0.7h-0.7h-0.7H467h-0.7h-0.7H465h-1.3h-0.7h-0.7V728v-0.7V726v-0.7v-1.3v-0.7v-0.7v-1.3h-0.7
	l-0.7-0.7h-1.3l-2-0.7v-0.7h0.7v-0.7v-0.7v-0.7l0.7-0.7v-1.3l0.7-0.7v-0.7V713l0.7-0.7v-0.7v-1.3v-1.3l0.7-3.9v-0.7h-0.7h-0.7h-1.3
	h0.7v-0.7v-0.7V702l-0.7-0.7l-0.7-0.7l-2.6-1.3v-0.7h-1.3h-0.7h-0.7H452v0.7h-0.7h-0.7v0.7H450h-0.7v0.7h-0.7l-1.3,1.3v0.7h-0.7
	l-0.7,0.7v0.7l-0.7,0.7h-0.7v0.7h-0.7v0.7h-0.7v0.7h-0.7v0.7h-0.7h-0.7h-0.7l-0.7,0.7h-0.7H439h-0.7h-0.7v0.7H437h-0.7h-0.7
	l-0.7-0.7h-0.7h-0.7h-0.7h-0.7h-0.7h-0.7h-0.7h-0.7v-0.7h-0.7v0.7h-0.7v-0.7v0.7h-3.3h-0.7H424h-0.7h-0.7H422h-0.7h-0.7v-0.7v-0.7
	l-0.7-0.7v-0.7v-0.7v-0.7v-0.7v-0.7V702v-0.7V698v-0.7h0.7h0.7h0.7h0.7h0.7h0.7h0.7h0.7h0.7h0.7h0.7h0.7v-3.3v-3.9V687v-3.3h-0.7
	h-0.7h-0.7h-0.7h-0.7H424h-0.7h-0.7H422h-0.7h-0.7h-0.7h-0.7h-0.7h-0.7h-0.7h-0.7h-0.7h-0.7l-0.7,0.7h-0.7h-0.7h-0.7h-0.7h-0.7H411
	h-0.7h-0.7H409h-0.7h-0.7h-0.7h-0.7h-0.7h-0.7h-0.7h-0.7h-0.7h-2.6v-0.7v-0.7v-0.7v-0.7v-0.7v-0.7v-0.7v-0.7v-0.7v-0.7v-0.7
	l-0.7-0.7v-0.7v-0.7v-0.7V674v-0.7v-0.7V672v-0.7v-0.7h-0.7h-0.7h-0.7h-0.7h-0.7H396h-0.7h-0.7v0.7H394h-0.7h-0.7l-0.7,2v0.7h-0.7
	l-1.3-0.7l0.7-2h-0.7h-0.7h-0.7h-0.7h-0.7h-0.7h-0.7h-0.7h-0.7h-0.7h-0.7H383h-0.7h-0.7H381h-0.7h-0.7h-0.7h-0.7h-0.7h-0.7h-0.7
	h-0.7h-0.7h-0.7h-0.7h-0.7h-0.7h-0.7h-0.7h-0.7h-0.7h-0.7h-0.7H368l-0.7,0.7h-0.7H366h-0.7v-0.7v-0.7l0.7-0.7v-0.7v-0.7v-0.7v-0.7
	V659v-0.7h-0.7h-0.7h-0.7h-0.7h-0.7h-0.7h-0.7h-0.7h-0.7h-0.7h-0.7h-0.7h-0.7h-0.7h-1.3H355h-0.7h-0.7h-1.3h-0.7v-0.7V657v-1.3v-0.7
	v-3.3h-0.7h-0.7h-0.7h-0.7h-0.7h-0.7h-0.7h-0.7v0.7v0.7v0.7v0.7v0.7h-1.3v0.7v0.7v0.7v0.7v0.7v0.7h-1.3h-1.3H342h-0.7h-0.7H340h-0.7
	h-0.7H338v0.7h0.7v0.7v0.7v0.7v0.7v0.7v0.7v0.7v0.7v0.7H338h-0.7h-0.7h-0.7h-0.7h-2h-0.7h-0.7l-0.7,0.7h-0.7h-0.7v-0.7v-0.7v-0.7
	h-0.7v-0.7h0.7v-0.7v-0.7v-0.7l-0.7-0.7v-0.7v-0.7V659h-0.7h-0.7h-0.7H327h-0.7h-0.7H325h-0.7l-0.7,0.7h-0.7h-0.7h-0.7h-0.7h-0.7
	h-0.7h-0.7h-1.3h-0.7h-0.7h-0.7h-0.7h-0.7H314h-1.3H312h-0.7h-0.7h-2h-1.3h-1.3h-1.3h-0.7h-0.7h-0.7h-1.3l-0.7,0.7h-3.3h-3.3h-0.7
	h-0.7h-0.7h-0.7h-1.3v-10.4v-1.3v-2h3.9h0.7h0.7h0.7h0.7h0.7h0.7h0.7h0.7l0.7-0.7h0.7h0.7h0.7h0.7h0.7h0.7h0.7h0.7h0.7h0.7h0.7h0.7
	h0.7h0.7h0.7h0.7h0.7h0.7h0.7h0.7h0.7h0.7h0.7h0.7h0.7h0.7v-0.7v-0.7V644v-0.7v-0.7V642v-0.7v-0.7v-1.3v-0.7v-0.7v-0.7v-0.7v-0.7
	v-0.7v-0.7v-0.7v-0.7l-0.7-0.7v-0.7v-0.7V631v-0.7v-0.7V629v-0.7v-0.7v-0.7v-0.7v-0.7v-0.7v-0.7v-0.7v-0.7v-0.7v-0.7v-0.7v-0.7v-0.7
	v-0.7v-0.7V618v-0.7v-0.7V616v-0.7v-0.7V614h-0.7v-0.7v-0.7v-0.7v-0.7v-0.7v-0.7v-0.7v-0.7v-0.7v-0.7v-0.7v-0.7v-0.7v-0.7h0.7h0.7
	h0.7h0.7h0.7h0.7h0.7h0.7h0.7h0.7h0.7h0.7h0.7h0.7h0.7h0.7h0.7h0.7l0.7,3.3h1.3v0.7v0.7v0.7v0.7v0.7v0.7v0.7l0.7,0.7v0.7v0.7v0.7
	v0.7v0.7v0.7v0.7h1.3h1.3h0.7h1.3h0.7h0.7h0.7h0.7h0.7h0.7h0.7h0.7h0.7h0.7h0.7h0.7h0.7h0.7v-0.7v-0.7V616h3.3h0.7h0.7h0.7h0.7h0.7
	h0.7h0.7h0.7h0.7h0.7h0.7h0.7h0.7h0.7h0.7h0.7v-0.7v-0.7V614v-0.7v-0.7v-0.7v-0.7v-0.7v-0.7v-0.7l-0.7-0.7v-0.7v-0.7v-0.7v-0.7v-0.7
	v-0.7v-0.7v-0.7h0.7h0.7h0.7h0.7h0.7h0.7h0.7h0.7h0.7h0.7h0.7h0.7h0.7h0.7h0.7h0.7h0.7h0.7h0.7h0.7h0.7V603v-0.7v-0.7V601v-0.7v-0.7
	v-0.7v-0.7v-0.7v-0.7v-0.7v-0.7v-0.7v-0.7v-0.7v-0.7v-0.7v-0.7v-0.7v-0.7v-0.7v-0.7v-0.7v-1.3v-0.7V586v-0.7v-0.7v-0.7v-0.7
	l-0.7-0.7v-0.7v-1.3v-0.7v-0.7v-1.3v-1.3v-0.7v-0.7V575v-0.7v-0.7V573v-0.7v-1.3v-0.7v-0.7v-0.7v-0.7v-0.7v-0.7v-0.7v-0.7v-0.7v-0.7
	v-0.7v-0.7v-0.7h-0.7h-0.7H368h-0.7l-0.7,0.7H366h-0.7h-0.7h-0.7h-0.7h-0.7h-0.7h-0.7h-0.7h-0.7h-0.7h-0.7h-1.3h-0.7h-0.7h-0.7H355
	h-0.7h-0.7H353h-0.7h-0.7h-0.7h-1.3h-0.7h-0.7h-0.7h-0.7h-0.7h-0.7l-0.7,0.7h-0.7h-0.7h-0.7h-0.7H342h-0.7h-0.7h-2h-2h-1.3h-0.7
	h-1.3h-1.3h-0.7h-2h-0.7h-0.7h-0.7h-2h-1.3v0.7h-0.7h-2h-2h-1.3h-0.7h-1.3h-0.7h-0.7H314h-0.7H312h-1.3h-0.7h-1.3h-1.3h-0.7h-0.7
	h-1.3h-0.7l-0.7,0.7h-2h-1.3h-2h-2h-0.7h-0.7h-0.7h-1.3h-0.7h-0.7h-0.7h-0.7h-0.7h-0.7h-1.3v-0.7v-0.7v-0.7v-0.7v-0.7v-0.7v-0.7V560
	v-0.7v-0.7V558v-0.7v-0.7v-0.7v-0.7v-0.7v-0.7v-0.7v-0.7v-0.7v-0.7v-0.7v-0.7v-0.7v-0.7l-0.7-0.7v-0.7V547v-0.7v-0.7V545v-0.7v-0.7
	v-0.7v-0.7v-0.7v-0.7v-1.3v-0.7v-0.7v-0.7v-0.7v-0.7v-0.7v-0.7v-0.7v-0.7v-0.7V532v-0.7v-0.7V530v-0.7v-0.7v-0.7l-0.7-0.7v-0.7v-1.3
	v-0.7v-0.7v-0.7v-0.7v-0.7v-0.7v-1.3v-0.7v-1.3v-0.7V517v-0.7v-1.3v-0.7v-0.7v-0.7v-0.7v-0.7v-0.7v-1.3l-0.7-3.3v-3.3v-3.3v-2v-1.3
	v-0.7v-0.7v-0.7v-0.7v-0.7v-0.7v-0.7v-0.7V491v-0.7h-0.7h-0.7H284h-0.7h-0.7h-0.7h-0.7h-0.7h-0.7h-0.7h-0.7h-2.6h-2.6l-2,0.7h-3.3
	h-0.7h-0.7h-2h-1.3h-2h-3.3H258h-0.7h-0.7h-1.3h-3.3v0.7h-3.9h-2.6h-0.7h-0.7h-0.7H243h-0.7h-0.7H241h-0.7h-0.7h-0.7h-0.7h-0.7h-0.7
	h-0.7h-0.7h-0.7h-0.7h-0.7h-0.7l-0.7,0.7h-0.7h-0.7H230h-0.7h-0.7H228h-0.7h-1.3h-0.7h-0.7h-0.7h-0.7h-2h-0.7h-2h-0.7h-0.7h-0.7
	h-1.3H215h-0.7h-0.7H213h-2h-0.7h-0.7l-1.3,0.7h-1.3h-0.7h-1.3h-1.3v-0.7v-0.7V491v-0.7v-0.7V489v-0.7v-0.7v-0.7v-0.7v-0.7v-0.7
	v-0.7v-0.7h-0.7v-0.7v-0.7v-0.7v-0.7v-0.7v-0.7v-0.7v-0.7v-0.7v-0.7v-0.7V476v-0.7v-0.7V474v-0.7v-0.7v-0.7v-0.7v-0.7v-0.7v-0.7
	v-0.7v-0.7v-0.7v-0.7v-0.7h-0.7v-0.7v-0.7v-0.7v-0.7V463v-0.7v-0.7V461v-0.7v-0.7v-0.7v-0.7v-0.7v-0.7v-0.7v-0.7v-0.7v-0.7v-0.7
	v-0.7v-1.3V448v-0.7h0.7v-0.7h0.7h0.7l0.7-0.7h0.7l0.7-0.7h1.3l0.7-0.7h0.7h0.7h0.7h0.7h0.7h0.7h0.7h0.7h0.7h0.7h0.7h0.7h0.7h0.7
	h0.7l0.7-0.7h0.7h0.7h0.7h0.7h0.7h0.7h0.7h0.7h0.7h0.7h0.7h0.7h0.7h0.7h0.7h0.7h0.7h0.7h0.7h0.7h0.7h0.7h0.7h0.7h0.7h0.7h0.7h0.7
	h0.7h0.7h0.7h0.7h0.7v-0.7h0.7h0.7h0.7h0.7h0.7h0.7h0.7h0.7h0.7h0.7h0.7h0.7h0.7h0.7h0.7h0.7h0.7h0.7h0.7h0.7h0.7h0.7h0.7h0.7h0.7
	h0.7h0.7h0.7h0.7h0.7h0.7h0.7l0.7-0.7h0.7h0.7h0.7h0.7h0.7h0.7h0.7h0.7h0.7h0.7h0.7h0.7h0.7h0.7v-0.7v-0.7h-0.7v-0.7v-0.7v-0.7v-0.7
	v-0.7v-0.7v-0.7v-0.7v-0.7V435v-0.7v-0.7V433v-0.7v-3.3v-3.3v-3.3v-3.9l1.3-0.7v-0.7l2-0.7l2-0.7l1.3-0.7l3.3-1.3l1.3-0.7h0.7v-0.7
	v-1.3l-0.7-0.7v-0.7v-0.7v-1.3V407v-1.3V405v-2.6v-0.7h1.3h0.7h2.6h0.7h3.3h0.7l-0.7-8.5v-0.7v-4.6v-2.6v-0.7v-2.6v-0.7v-3.3v-3.3
	v-0.7h-0.7v-3.3v-3.3v-7.2l-0.7-2v-0.7v-0.7v-0.7v-6.5v-2.6v-0.7v-0.7v-0.7v-0.7v-0.7v-0.7v-0.7v-0.7v-0.7v-0.7v-0.7l-0.7-3.3v-0.7
	v-2V334v-0.7v-0.7v-0.7v-0.7v-0.7v-0.7v-3.3v-0.7v-0.7v-0.7v-0.7v-0.7V323v-0.7v-0.7V321v-0.7v-0.7h-0.7l-2.6,0.7H284h-0.7h-2.6
	h-1.3h-0.7h-0.7h-0.7h-0.7h-0.7h-0.7h-0.7h-0.7h-0.7h-0.7h-0.7H271h-0.7h-0.7H269h-0.7h-0.7h-0.7h-0.7h-0.7h-2.6l-2,0.7h-0.7h-0.7
	h-0.7h-2H256h-2h-0.7h-1.3h-0.7h-0.7h-0.7h-1.3h-0.7h-1.3h-0.7h-0.7h-0.7h-1.3H243h-0.7h-0.7h-1.3h-0.7v-0.7v-0.7v-0.7v-0.7v-0.7
	v-1.3v-0.7v-0.7v-0.7v-0.7v-0.7v-0.7v-0.7v-0.7v-0.7v-0.7v-0.7v-0.7V308v-0.7v-0.7V306v-0.7v-0.7v-0.7v-0.7v-0.7l-0.7-0.7v-0.7v-0.7
	v-0.7v-0.7v-0.7v-0.7v-0.7v-0.7v-0.7v-0.7V295v-0.7v-0.7V293v-0.7v-0.7v-0.7v-0.7v-3.9v-2.6l-0.7-3.3V280v-0.7v-2v-2v-0.7v-1.3v-1.3
	v-2v-2v-0.7V267v-2v-0.7v-0.7v-0.7v-0.7v-0.7l-0.7-0.7v-0.7v-0.7v-0.7v-1.3v-0.7v-0.7v-0.7v-0.7v-0.7v-0.7v-0.7v-0.7v-3.3v-3.3v-3.3
	v-2.6l-0.7-0.7h-0.7h-0.7h-0.7h-0.7h-0.7h-0.7h-0.7h-0.7h-0.7h-0.7H230h-0.7h-0.7H228h-0.7h-0.7h-0.7h-0.7h-0.7h-0.7h-0.7h-0.7h-0.7
	h-0.7h-0.7h-0.7h-0.7h-0.7l-1.3,0.7h-0.7h-1.3h-1.3h-0.7h-1.3h-0.7h-1.3h-1.3h-0.7h-1.3h-0.7h-0.7h-0.7h-0.7h-0.7h-0.7h-0.7H202
	h-0.7h-0.7H200h-2h-2.6v-0.7V239v-0.7v-0.7V237v-0.7v-0.7v-0.7v-0.7v-0.7v-0.7v-0.7v-0.7h-0.7v-0.7v-0.7v-0.7v-0.7v-0.7v-0.7v-0.7
	v-0.7v-0.7v-0.7v-0.7V224v-0.7v-0.7V222v-0.7v-0.7v-0.7v-0.7v-0.7v-0.7v-0.7v-0.7v-0.7v-0.7v-0.7v-0.7v-0.7v-0.7v-0.7v-0.7V211v-0.7
	h-0.7v-0.7V209v-0.7v-0.7v-0.7v-0.7v-0.7v-0.7v-0.7v-0.7v-0.7v-0.7v-0.7v-0.7v-0.7v-1.3v-0.7v-0.7v-2v-0.7v-0.7V194v-0.7v-0.7h-0.7
	h-0.7h-0.7h-0.7h-1.3h-0.7H189h-0.7h-0.7H187h-0.7h-0.7h-1.3h-0.7h-0.7h-1.3v0.7h-0.7h-0.7v-0.7v-0.7v-0.7v-0.7v-0.7v-0.7v-0.7
	l-0.7-0.7v-1.3v-0.7h-0.7h-0.7h-0.7h-0.7h-0.7h-0.7h-0.7h-0.7H174v0.7h-0.7h-0.7H172h-0.7h-0.7h-0.7h-0.7h-0.7h-0.7h-0.7h-0.7h-0.7
	h-0.7h-0.7h-0.7h-0.7h-0.7h-0.7h-0.7H161h-0.7h-0.7H159h-0.7h-0.7H157h-0.7h-0.7h-0.7h-0.7h-0.7l-0.7,0.7h-0.7h-0.7h-0.7h-0.7h-0.7
	h-0.7h-0.7h-0.7h-0.7h-0.7H146h-0.7h-0.7H144h-0.7h-0.7h-0.7h-0.7h-0.7h-0.7h-0.7h-0.7h-0.7h-0.7h-2h-1.3h-0.7l-0.7-0.7l-0.7-0.7
	v-0.7l-0.7-0.7H131v-0.7l-0.7-1.3v-0.7l-0.7-2v-0.7l-0.7-1.3v-0.7v-0.7v-0.7v-0.7l-0.7-1.3v-1.3l-0.7-1.3v-0.7v-0.7l-0.7-2l-0.7-0.7
	v-0.7v-0.7V166v-0.7v-0.7v-0.7h0.7v-0.7v-0.7v-0.7h0.7v-0.7l10.4-0.7v-1.3v-5.9l-16.3,0.7v-0.7l-0.7-0.7v-0.7v-0.7v-0.7v-0.7v-0.7
	v-0.7l0.7-0.7v-0.7l0.7-0.7l0.7-0.7v-0.7v-0.7l0.7-0.7v-0.7l0.7-0.7v-0.7l0.7-1.3V140v-0.7v-0.7l0.7-1.3v-0.7v-0.7l0.7-2v-0.7v-0.7
	v-0.7v-0.7v-0.7l-0.7-0.7v-1.3l0.7-0.7v-0.7l0.7-1.3v-0.7V125v-0.7v-0.7v-0.7h-0.7v-0.7h-0.7l-0.7-0.7h-0.7l-0.7,0.7h-0.7l-0.7,0.7
	h-0.7l-0.7,0.7v0.7h-0.7h-0.7v-0.7h-0.7l-0.7-0.7H118v-0.7h-0.7v-0.7l-0.7-0.7v-0.7H116h-0.7h-0.7l-1.3,0.7h-1.3h-0.7h-0.7h-0.7
	h-0.7h-0.7h-0.7h-0.7h-0.7h-1.3h-1.3h-0.7H103h-0.7h-0.7h-0.7h-3.9l-2,0.7h-1.3H90v2.6v0.7v3.3v2v5.2v8.5v2l0.7,1.3v0.7v1.3v2h-1.3
	l-3.3-0.7v0.7v-0.7h-0.7h-0.7h-0.7h-0.7h-1.3l-1.3-0.7h-0.7h-0.7h-1.3h-0.7l-0.7-0.7h-3.3v0.7v6.5v4.6v2h-3.3h-2.6l-0.7,0.7h-3.3
	h-0.7H62h-0.7h-2.6h-0.7l-0.7-0.7h-0.7l-2-0.7l-3.3-0.7l-2-0.7l-3.3-0.7v2l-3.3-1.3v-4.6v-0.7V155v-0.7l-0.7-0.7V153v-0.7v-0.7h-0.7
	v-0.7h-0.7h-0.7v-0.7h-0.7h-0.7h-1.3l-2-0.7v-0.7h-0.7h-0.7H34h-1.3v3.3v5.2l-1.3-0.7h-0.7l-1.3-0.7h-0.7l-1.3-0.7h-0.7v-1.3v-2.6
	v-2v-1.3v-0.7h-0.7h-0.7l-0.7-0.7h-0.7l-2.6-0.7H21h-1.3l-0.7-0.7v-3.3l-0.7-3.9v-1.3h-3.3v-3.9l-2.6,2.6l-2,2H8v-26.7v-2.6v-0.7
	v-0.7v-0.7v-0.7v-0.7v-1.3v-0.7v-0.7v-0.7v-0.7v-0.7v-0.7V99v-0.7v-0.7V97v-0.7v-0.7v-1.3v-0.7v-0.7v-0.7v-1.3v-0.7v-0.7v-0.7v-0.7
	v-0.7v-0.7v-0.7v-0.7v-1.3V84v-0.7h0.7h0.7v-0.7V82v-0.7l0.7-0.7v-0.7v-0.7l0.7-0.7v-0.7v-0.7v-0.7h0.7v-0.7v-0.7h0.7v-0.7v-0.7
	l0.7-0.7v-0.7h0.7v-0.7v-0.7h0.7V71h0.7v-0.7v-0.7h0.7l0.7-0.7v-0.7h0.7v-0.7h0.7v-0.7h0.7v-0.7l0.7-0.7H19v-0.7h0.7v-0.7h0.7v-0.7
	H21v0.7v0.7v0.7v0.7v0.7h0.7h0.7h0.7h0.7h0.7h0.7h0.7h0.7h0.7h0.7v0.7v0.7v1.3h2l1.3-0.7h2h2v-0.7v-3.9v-2.6h1.3h1.3h4.6h0.7h1.3V56
	v-0.7v-0.7h0.7v0.7v4.6l0.7-0.7v0.7v2h1.3h1.3h2.6h0.7l0.7-0.7h0.7v-0.7v-5.9h2h0.7h0.7l2,0.7l2,0.7H60v0.7l4.6,1.3l0.7,0.7h0.7
	l0.7,0.7h0.7l0.7,0.7l0.7,0.7h0.7v-0.7v0.7h0.7h1.3v0.7v4.6h0.7h0.7v-0.7v-0.7v-0.7h0.7h0.7h0.7H75l1.3,0.7l0.7,0.7v0.7h-0.7v0.7
	v0.7h-5.2l-3.9,0.7h-0.7h-0.7h-0.7h-1.3l-3.3-2.6L60,64.5v-0.7h-1.3h-1.3v0.7l1.3,0.7l5.2,3.3h2.6v2l3.3,0.7h1.3h1.3h0.7l1.3,0.7
	h1.3h0.7l0.7,0.7h0.7h0.7h0.7h0.7l0.7,0.7h0.7h0.7l1.3,0.7l1.3,0.7h0.7v0.7v5.2h0.7h2H90h0.7l0.7,3.3l2,7.2l1.3,3.9v1.3l0.7,2h2v0.7
	v1.3v1.3v1.3v0.7l0.7,2v1.3l0.7,1.3v0.7l1.3,6.5h-0.7h-0.7h-1.3v2v1.3v0.7v1.3h3.3h0.7h0.7l2-0.7h2h1.3v0.7h0.7h0.7l0.7-0.7v0.7h0.7
	h1.3h0.7h1.3h0.7h2h0.7v-0.7l0.7-0.7v-0.7v-0.7v-0.7l0.7-0.7l0.7-0.7v-0.7l1.3-0.7l0.7-1.3l0.7-1.3l0.7-0.7V110l2-1.3l1.3-1.3v-0.7
	v-0.7l0.7-0.7v-0.7v-0.7l-0.7-1.3v-1.3l-0.7-1.3v-0.7V99v-0.7v-0.7V97v-0.7h0.7v-0.7v-0.7l0.7-0.7v-0.7v-0.7v-0.7v-0.7l-0.7-0.7h0.7
	l0.7,0.7h0.7h0.7h0.7l0.7,0.7h0.7h0.7h0.7h0.7h0.7h0.7h0.7h0.7h0.7v0.7h0.7h0.7h0.7h0.7l0.7,0.7h0.7h0.7h0.7h0.7h0.7v0.7h0.7h0.7
	l2.6,0.7h2h0.7l0.7,0.7h0.7h0.7h0.7h0.7l1.3,0.7h1.3h0.7l1.3,0.7l14.3,2.6h0.7V99v-0.7v-0.7V97v-0.7l0.7-0.7v-0.7v-0.7v-0.7v-0.7
	v-0.7v-0.7v-0.7v-0.7v-0.7v-0.7h0.7v-0.7v-0.7v-0.7v-0.7v-0.7v-0.7v-0.7V84v-0.7v-0.7h0.7V82v-1.3v-0.7v-0.7v-0.7v-0.7v-0.7h0.7
	v-1.3v-0.7v-0.7v-1.3v-0.7v-0.7v-0.7V71v-0.7v-0.7V69v-0.7v-0.7v-0.7v-0.7v-0.7v-0.7v-0.7v-0.7v-0.7v-0.7v-0.7v-0.7v-0.7v-1.3v-0.7
	v-0.7v-0.7v-0.7v-2V54v-0.7v-0.7v-0.7v-0.7v-0.7v-0.7v-0.7h0.7h0.7h0.7v-0.7v-0.7H174v-0.7v-0.7v-0.7v-0.7v-0.7v-0.7v-0.7V43v-0.7
	v-0.7h-0.7h-0.7V41v-0.7v-0.7v-0.7v-0.7v-0.7v-0.7v-0.7v-0.7h0.7h0.7h2h0.7h0.7h0.7h1.3h0.7h0.7l0.7-0.7h1.3h0.7h1.3h0.7h0.7h0.7
	h1.3h0.7h1.3h1.3h0.7h0.7h0.7v0.7v0.7v0.7v0.7v0.7v1.3v2v0.7v1.3v1.3v0.7v1.3v0.7v1.3v0.7v0.7v0.7v0.7v0.7v0.7v0.7V54v0.7v0.7V56
	v0.7v0.7v0.7v0.7v0.7v0.7v0.7v0.7v0.7v0.7v0.7v0.7v0.7v0.7v0.7v0.7v0.7v0.7v0.7V69h1.3h0.7v-1.3h0.7h0.7h0.7h0.7h0.7h0.7h0.7h0.7
	h0.7V69h2l0.7,1.3h0.7h0.7h0.7h0.7h0.7v-0.7V69v-0.7h0.7h0.7h0.7h0.7h0.7h0.7h0.7h0.7h0.7h0.7h0.7h0.7L215,69l0.7,0.7V69h0.7l2.6-2
	l3.9-2l3.3-2.6h0.7l0.7-0.7l-0.7-0.7l-0.7-0.7v-0.7h-0.7v-0.7l-0.7-0.7v-0.7h-0.7v-0.7l-0.7-0.7V56h-0.7v-0.7l-0.7-0.7V54h-0.7v-0.7
	v-0.7h-0.7v-0.7h-0.7v-0.7v-0.7h-0.7v-0.7h-0.7v-0.7v-0.7h-0.7v-0.7h0.7h0.7h0.7h0.7h0.7h0.7l0.7-0.7h0.7h0.7h0.7h0.7h0.7h0.7h0.7
	h0.7h0.7h0.7h0.7h0.7h0.7v-0.7v-0.7v-0.7v-0.7v-0.7v-0.7V43v-0.7v-0.7h0.7h0.7h0.7h0.7h0.7v0.7V43v0.7v0.7v0.7v0.7l-0.7,0.7v0.7v0.7
	h0.7h0.7h3.3h0.7l0.7,0.7v0.7v0.7l0.7,0.7v0.7v0.7h0.7v0.7v0.7h0.7v0.7V54v0.7h0.7v0.7V56l0.7,0.7v0.7v0.7h0.7v0.7l0.7-0.7l0.7,3.3
	h0.7l0.7,0.7h0.7l0.7,0.7h0.7v0.7h0.7l0.7,0.7h0.7v-0.7v-0.7h-0.7h-0.7v-0.7h-0.7l-0.7-0.7v-0.7v-0.7v-0.7v-0.7v-0.7v-0.7v-0.7V56
	v-0.7v-0.7h0.7h0.7h0.7h0.7h0.7h0.7h0.7h0.7h0.7h0.7h0.7h0.7v0.7v1.3v0.7v0.7v0.7v0.7v0.7v0.7v0.7v0.7v0.7v0.7v0.7v0.7v0.7v0.7v0.7
	h-0.7v0.7h0.7l0.7,0.7h0.7v0.7h0.7h0.7V69h0.7l0.7,0.7h0.7v0.7h0.7h0.7V71h0.7v0.7h0.7h0.7v0.7h0.7l0.7,0.7l1.3,0.7l0.7,0.7h0.7v0.7
	h0.7h0.7h0.7h5.9h0.7h0.7h0.7h0.7h0.7h0.7h0.7h1.3h0.7h1.3h0.7h0.7h0.7h0.7h0.7h0.7h0.7h0.7h0.7h0.7h0.7h0.7h9.1h0.7h0.7h0.7h0.7
	h0.7h0.7h12.4h0.7h0.7h0.7h0.7h0.7h0.7h1.3h0.7h0.7h0.7h0.7v-0.7h0.7h0.7h0.7h0.7h0.7h1.3v-0.7V71v-3.9v-5.9v-0.7V50.1l0.7-2.6v-2
	v-1.3v-0.7V43v-0.7v-0.7v-1.3v-1.3v-0.7v-0.7v-1.3v-0.7v-0.7v-1.3h0.7h0.7h0.7h0.7h0.7h0.7h0.7h0.7h0.7h0.7h1.3l0.7-0.7h0.7h0.7h1.3
	h0.7h0.7h0.7h0.7h0.7h0.7h1.3h0.7h0.7h0.7h1.3h2h0.7h0.7h0.7h0.7h0.7h0.7h0.7v-0.7h1.3h0.7l0.7,0.7h0.7h0.7h0.7h0.7h0.7h0.7h0.7h0.7
	h0.7h1.3h0.7h1.3h0.7h0.7h0.7h0.7h0.7h0.7h0.7h0.7h0.7h0.7h0.7h0.7h0.7h0.7h0.7h0.7h0.7h0.7v-0.7l-0.7-0.7l-1.3-1.3l-1.3-1.3
	l-0.7-1.3l-0.7-0.7v-0.7l-0.7-0.7h2h7.2h4.6h2h0.7v0.7v0.7h0.7V28h0.7v0.7h-0.7h0.7V29.3z M144.7,119.2v0.7h0.7h0.7h0.7h0.7h0.7h0.7
	h0.7h0.7v0.7v0.7v0.7v0.7v0.7v0.7v0.7h1.3h0.7v2h-0.7h-0.7h-0.7h-0.7h-0.7h-0.7h-0.7h-0.7H146h-0.7h-0.7v-0.7V125v-0.7v-0.7v-0.7
	H144h-0.7h-0.7h-0.7h-0.7h-0.7h-0.7h-0.7h-0.7h-0.7v0.7v1.3v1.3v1.3v1.3v1.3v1.3v0.7v1.3h0.7h0.7h0.7h0.7h0.7h0.7h0.7h0.7h0.7h0.7
	h0.7h0.7h0.7h0.7l0.7-0.7h0.7h0.7h0.7h0.7h0.7h0.7v2.6v0.7v3.3v0.7v0.7v0.7v0.7v0.7v0.7v0.7v0.7v0.7v0.7v0.7h0.7h0.7h0.7h0.7h0.7
	h0.7h1.3h0.7v0.7v0.7v0.7v0.7v0.7h0.7v0.7v0.7v0.7v0.7v0.7v0.7v0.7v0.7v0.7v0.7v0.7v0.7v0.7v0.7v0.7v0.7h0.7h0.7h0.7l0.7-0.7h0.7
	h0.7h0.7h0.7h0.7h0.7h0.7h0.7h0.7h0.7h0.7h0.7h0.7h0.7h0.7h0.7h0.7h0.7h0.7h0.7h0.7h0.7h0.7h0.7l0.7-0.7h0.7h0.7h0.7h0.7h0.7h0.7
	h0.7h0.7h0.7h0.7h0.7h0.7h0.7h0.7h0.7h0.7h0.7h1.3h0.7h0.7h0.7h0.7h0.7v-0.7v-0.7v-0.7v-0.7h0.7v-0.7h0.7h0.7V155h0.7l0.7-0.7
	l1.3-0.7l0.7-0.7h0.7v-0.7h0.7l1.3-0.7v-0.7h0.7l0.7-0.7h0.7v-0.7h0.7l0.7-0.7h0.7v-0.7h0.7h0.7v-0.7h0.7l0.7-0.7h0.7v-0.7h0.7
	l0.7-0.7h0.7v-0.7h0.7l0.7-0.7h0.7h0.7h0.7h0.7h0.7h0.7h0.7h0.7h0.7h0.7h0.7h0.7h0.7h0.7h0.7h0.7v-0.7v-0.7l-0.7-0.7v-0.7v-0.7v-0.7
	V140v-0.7v-0.7h0.7V138v-0.7v-0.7v-0.7v-0.7v-0.7v-0.7v-0.7v-0.7v-0.7v-0.7v-0.7v-0.7v-0.7l-0.7-0.7h-0.7h-0.7v-0.7h-0.7h-0.7h-0.7
	h-0.7h-0.7h-0.7H215h-0.7h-0.7H213h-0.7h-0.7h-0.7h-0.7h-0.7h-0.7h-0.7h-0.7h-0.7h-0.7h-0.7l-0.7,0.7h-0.7h-0.7h-0.7h-0.7H202h-0.7
	h-0.7H200h-0.7v0.7h-0.7h-0.7h-0.7h-0.7h-0.7h-0.7h-0.7h-0.7h-0.7h-0.7v-0.7v-0.7v-0.7V127v-0.7v-0.7V125v-0.7v-0.7v-0.7v-0.7v-0.7
	v-0.7v-0.7v-0.7v-0.7v-0.7v-0.7h-0.7h-0.7h-0.7h-0.7h-0.7H189h-0.7h-0.7l-0.7,0.7h-0.7h-0.7H185h-0.7h-0.7h-0.7h-0.7h-0.7h-0.7h-0.7
	h-1.3v0.7v0.7v0.7v0.7v0.7v0.7v0.7v0.7v0.7v0.7h-0.7h-0.7v0.7h-0.7h-0.7V125v-0.7v-0.7v-0.7v-0.7v-0.7v-0.7v-0.7h-0.7v-0.7v-0.7
	v-0.7h-0.7h-0.7H174h-0.7h-0.7H172h-0.7l-0.7,0.7h-0.7h-0.7h-0.7h-0.7h-0.7h-0.7h-0.7h-0.7v0.7v0.7h-0.7h-0.7h-0.7v0.7h-0.7h-0.7
	h-0.7H161h-0.7h-0.7H159h-0.7v-0.7v-0.7v-0.7h-0.7H157h-0.7v-0.7v-0.7v-0.7h-0.7v-0.7h-0.7h-0.7h-0.7h-0.7h-0.7h-0.7v0.7v0.7h-0.7
	h-0.7h-0.7h-0.7h-0.7h-0.7h-0.7h-0.7H146h-0.7h-0.7v0.7V119.2z M156.4,100.9v0.7h-0.7v0.7v0.7h-0.7h-0.7h-0.7v0.7v0.7v0.7v0.7v0.7
	h0.7h0.7h-0.7h-0.7v0.7h0.7h0.7h0.7h0.7h0.7h0.7h0.7h0.7h0.7h0.7h0.7h0.7h0.7v0.7h0.7v0.7v0.7v0.7h0.7h-0.7v0.7v0.7h-0.7h-0.7H161
	v0.7v0.7v0.7h0.7v0.7v0.7H161h-0.7h-0.7H159h-0.7h-0.7H157h-0.7h-0.7v0.7v0.7v0.7h0.7h0.7v-0.7h0.7h0.7h0.7h0.7h0.7h0.7h0.7h0.7h0.7
	h0.7h0.7h0.7h0.7h0.7h0.7h0.7h0.7h0.7v-0.7v-0.7v-0.7v-0.7V112v-0.7v-0.7l0.7-0.7v-0.7v-0.7v-0.7v-0.7v-0.7v-0.7v-0.7v-0.7v-0.7
	v-0.7l0.7-0.7v-0.7h-1.3h-1.3v0.7v0.7v0.7h-0.7h-0.7h-0.7h-0.7h-0.7h-0.7v-0.7v-0.7v-0.7v-0.7v-0.7h-0.7h-0.7h-0.7H161h-0.7h-0.7
	H159h-0.7h-0.7H157H156.4z M351.7,644.6h5.2V644h0.7v-0.7h0.7V631h-0.7h-6.5L351.7,644.6z M7.3,74.9v-1.3v-2V71v-1.3h2h1.3h1.3h0.7
	h1.3h0.7l-0.7,0.7L13.2,71v0.7l-0.7,0.7v0.7h-0.7v0.7v0.7l-3.3,0.7H8H7.3z M16.4,61.2v1.3h-0.7l-0.7-0.7v0.7v0.7v0.7v0.7v0.7v0.7
	v0.7v0.7v0.7h0.7v0.7h-0.7V69l-0.7,0.7v-2.6v-2v-2l-0.7-0.7v-2v-3.9V56h0.7h0.7h1.3v0.7v1.3v2.6V61.2z"/>
<rect y="0" class="st1" width="600" height="750"/>
</svg>
