<svg id="Layer_1" data-name="Layer 1" xmlns="http://www.w3.org/2000/svg" viewBox="0 0 600 750"><title>dont_know</title><path d="M351.5,639.79h0l5.14-.12,0-.71v-.11l.56,0v-.12l1,0-.41-12.5h-.17l-6.52.15ZM156,96.1v.17h-.52V98l-.85,0-.34,0h-.86v2.85h1v.58h-.17l-.86,0V102l.87,0h.33l.86,0h6.17l.46,0v.52h.23v2l.72,0h.13v.32h-.85v.52h.08v.75h-1.07l-.44,0,0,.54h-.44v.13h0v.13l0,.55v.68h.6v.71h-5.59v1.81h12.81l0-.34,0-.58,0-.23,0-.24,0-.27,0-.18,0-.23,0-.2,0-.3,0-.3v-.23l0-.29v-.31l0-.23,0-.23,0-.21v-.17l0-.25,0-.22,0-.28,0-.24,0-.23,0-.23,0-.3,0-.21,0-.2,0-.32,0-.2,0-.23,0-.25,0-.23,0-.26,0-.24,0-.42,0-.25,0-.43,0-.36,0-.28,0-.27,0-.29,0-.38,0-.22,0-.25,0-.28,0-.25,0-.25,0-.44v-.31l-1.27,0-.88,0h-.32V99.2h-2.38l-.54,0h-.43l-.64,0v-2h0V95.92l0-.2-.14.07h0l0,0h-6.55l-.06,0H156v.07ZM144.5,114.31v.28h3l.56,0h1.47v2h0v2.64l1.55-.05h.27v2.12H144.5v-1.09h0V118h-6.91v5.63l0,1.26v3.34h.11l.55,0H139l.44,0h.48l.46,0H144l.35,0h1l.41,0h1.69l.44,0h1.26l.45,0h1.05l.55,0h.14v6.33h0v7.18h.39l.6,0h3l1.23-.05H157l.05.31,0,.2,0,.16,0,.2v0h0l0,.09,0,.19,0,.2,0,.15,0,.19,0,.23,0,.18.05.24,0,.26.05.27,0,.17.05.22v.06l0,.17,0,.08v.14l0,.12,0,.12,0,.13,0,.12,0,.17v.17l0,.1v.05l0,.13,0,.12v.17l0,.11v.1l0,.2V147l0,.22v0l0,.16,0,.16,0,.12V148l0,.1,0,.11v6.67h1.36l.34,0h.31l.41,0h.59l.39,0H162l.32,0H164l.47,0h.23l.33,0h.41l.41,0h.45l.5,0,.38,0,.45,0h.05l.52,0,.4,0h.45l.57,0,.55,0h.44l.38,0h1l.38,0,.26,0H174l.4,0,.35,0h1.69l.33,0h.85l.29,0h1l.47,0h.26l.59,0h.73l.47,0,.37,0h.7l.44,0h.39l.26,0h.38l.55,0h.29l.39,0h.45l.3,0h1l.34,0h.46l.39,0h.2l.81,0,.76,0h.36l.33,0h.57l.46,0,.51,0h.43l0-.27v-1l0-.26v-.53l.4-.25.27-.17.16-.11.23-.14.51-.33.35-.23.4-.26.47-.31.33-.21,1.81-1.18.18-.11.35-.23.36-.23.32-.21.78-.51.83-.54.35-.23.22-.14.48-.31.43-.28.31-.2.25-.17.15-.09.19-.13.09-.06.29-.18.14-.09.43-.28L204,144l.14-.08.22-.15.19-.12.3-.2.23-.15.31-.19.41-.27.34-.22,0,0,.27-.17.47-.31.34-.22.23-.14.32-.22.23-.15.29-.19.3-.18.57-.38.18-.11.32-.21.09-.06.17-.11.13-.08.05,0,.21-.12.16-.08.18,0h.23l.73,0h1l.35,0,.36,0,.39,0h7.21V137l0-.46V135.2l0-.35,0-.36,0-.1,0-.14,0-.17V134l0-.07,0-.1-.06-.13.27-.21,0,0,0,0h0l0,0v-1.27h0v-6.22l0-.26v-1.41l0-.08h-1.73v-.89h-4.26l-.63,0H198.93v.55h0v.12l0,.21h-6.42v-5.29h0v-6.4h-.91l-.47,0-.33,0h-.94l-.51,0h-.61l-.38,0h-.31l-.42,0h-.84l-.36,0H186l-.38,0H184.3l-.33,0h-1.08l-.33,0h-.9l-.4,0h-1.11l-1,0h-.32v6.77H176v-4.88h-.64V114l0-.36H175l-.58,0-.41,0-.57,0-.51,0-.48,0-.47,0h-.57l-.69,0-.42,0h-.62l-.47,0h-.59l-.59,0h-.67l-.35,0-.47,0H166l-.42,0h-.4v1.67h-7v-1.67h-2.36v-1.86h-.3v-.85h-3.92l-.26,0v1H144.5v1.4Zm246.36-90,0,0,.25-.16.22,1.13,0,0,0,.07.09.43.1.11v0l0,0-.24.06.06.25h-.17l.22,1h0l0,0h-.07v.07l0,.08,0,.09h.33v.25h-.27l0,0,0,0v.23h-.16v0l0,.16.08.15.05.08.14.23.11.16.13.14.08.07h.2l.09.07.1.28v.08h0v.11l-.05,0h0v.28H392l.09.34,0,0v0l0,0v.09l0,0,0,.05h0l0,.11h.06l0,0,0,0h.05l0,.8h-.09l0,.15,0,.07.1,0h.08l0,0v.09l0,.13,0,.16,0,.1,0,0h0l.12.21h0l.05,0,.05,0,0,0,0,.06,0,0h.05l.06.2,0,.33v.15h0v.08l0,.06v0l.05,0,.09.08.1.14,0,.18,0,.08,0,.09.06.1v.08l0,.29,0,.13.06.2.07.12.08.1.1.18.1.2.07.23.05,0h.07v.06l0,.16v0l0,.1,0,.06,0,.07,0,.09v0l0,.1,0,.1.05.1.06.09.05.16,0,.23,0,.2,0,.13.05,0,.07.09.07.13.11.32.06.28,0,.2v.12l-.08,0-.05,0,0,.08,0,0,.05.11.1.2.1.12.06.07.09.13.05.15,0,.14,0,0h.08v.14l0,.2.06.16.12.22.1.17,0,.09v.06l-.19.08.07.23v0l.07.1.08.13.17.27.21.25.17.15.07.07.12.1.14.15.16.2,0,0v0h0l-.19.12.22.33.13.12.25.28.13.14.21.23.1.11.45.49.15.24.09.15.05.09.16.25,0,.06v.06l-.05,0h0l.07,0h.08l.07.07.06.12.06.09.07.11.34.43.15.13.27.35.25.34.09.12.1.12.22.3.18.23.26.25.21.27.29.31.2.3.13.3.15.18.25.3.45.39.17.14.39.33.27.25.15.11.08.07,0,0,.38-.4.05,0-.39.41-.69.7-2.16.07,0,.15v1.09l.06.44,0,.15.08.43.27.65.07.18h0l0,0h0v.12l.08.21.13.22.06.07v0h.1v-.1h.05V56h-.8v.54l0,.08,0,.19V57l.06,0,.12.22.11.34.09.33,0,.14,0,0,.05.18,0,.1.06.37,0,.14v.15l.05.14.26.43.13.26,0,0,0,0,0,0,.08,0,.2.54.17.5.1.27.11.26.07.23,0,.31-.06.17,0,.09,0,.25.16.57.17.64,0,.14.06.17.06.26,0,.17.05.11.28.54.16.28.07.06.06,0,.17.29.23.43.06.11.09.2.1.17.08.13.14.19.1.24,0,.22,0,.27,0,.19,0,.12,0,.17v.41l0,.18,0,.14.06.43,0,.32,0,.14,0,.24,0,.22,0,.21v.18l0,.21,0,.3v.07h0l0,0,0-.09,0-.11-.05,0h-.08l-.12,0-.08,0-.06,0v.17h0v.29l0,.19.09.29.05.1.05.11,0,.09v.09l0,.09v.34l-.05.13,0,.12,0,.14v.22l0,.07v.07l0,.09v.2h.29l0,.44.05,0,0,0,0,.1v.19l0,.26,0,.16H405l-.1,0h0l-.06.24,0,.08h0v0h.08l0,0v.29h0v0h-.08v.13l0,0,.06.11.08.15.11.19.05.08,0,0,.22,0v.08l-.07.79,0,.24,0,.12v.16l-.12.92,0,1.53h-.12l0,.13.07,0,.07,0,.06,0,0,.29v.26l0,.21,0,.31v.2l0,0,0,0,0,0h-.07v.06l0,.06,0,0,0,.06,0,0,0,0,0,0v.24l0,.13,0,.15v.36l0,.06v.16l0,.27v.4l0,.41v.51h0l0,0h0v.18l.2.32.33.48.36.51.19.25.11.11.1.09.11.07.11.07.12.1.08.06.1.11.5.5.57.51.47.49.14.18.07.08.06.07.07.08.06.06.07.07.07.06.09.06.1.08.07.07.06.06.22.23.14.13.11.08.08,0,.15.08.11.06.09,0,.1,0,.12,0,.19,0,.13,0,.08,0,.12,0,0,0,.08,0h0l.21.09.68-1.84h.06L411,92.09l-.13.36-.1.31-.1.31-.08.31-.08.32h0l-.07.32-.06.27-.05.31-.05.31,0,.31,0,.31,0,.31v1l0,1,0,1v.67l0,.32v.17l0,.23.05.24,0,.11.05.14,0,.12.42.91-.06,0-.06,0-.06,0,0,.06-.05.06,0,.07,0,.07,0,.08v0l.27.11.07.07.06.07h0l.05.06.05.08.33.43.16.19.16.18.18.17.17.17.1.09.55.54.23.24,0,.07.05.07,0,.07,0,.08,0,.08v0l0,.17.34,0,1.14.07h.12l.12,0,.12,0,.12,0,.06,0,.05,0,.06,0,0,0,.11.06.1.07.1.07.09.08.09.09h0l.76-.69,0,0-.76.69.08.1.07.09.06.11.05.1,0,.06,0,0,0,.1v0l0,.11,0,.12V107l.06,1.82,0,1.44,0,1.3.05,1.74,0,.23,0,.23,0,.23,0,.23.05.22.06.23.07.22.07.22.14.38.15.4.16.39.17.38.17.39.18.38.42.84.11.16.15.27.28.46.08.14.26.41.23.36.38.53.42.56.19.23.12.15.22.25.21.24.5.52.23.25-.16.16-.38-.41-.36.35.22.23.21.24,0,0h.18l.26-.22-.08-.1.16-.15.82.87.41.38.21.18.58.44.26.21.32.24.3.22.52.17.87.26.69.22.68.31.69.31.83.35,1.38.47.79.2,1.09.23.78.1h.61l.76.09.79.13.56.18.26.13.39.15.17.07,0-1v-.28l0-.29,0-.29,0-.29,0-.15v-.13l.05-.29.06-.28.07-.28.07-.28,0-.13,0-.08.09-.29.1-.29.11-.28.11-.28.13-.28.13-.28.13-.27.07-.12.08-.15,0-.14v-.16l0-.08,0-.07,0-.08,0-.07,0-.06h0l-.06-.05-.05,0-.07,0-.06,0-.07,0h-.08l-.07,0h-.13l-.07,0-.07,0-.07,0-.06,0,0,0,0,0-.05,0-.05.05,0,.06,0,.07v0l0,.07v.28l0,.08,0,.07,0,.06,0,.06,0,.06,0,.05-.09.08-.06-.06,0-.06,0,0,0,0,0-.07,0-.08v-.4l0-.07,0-.08,0,0v0l.05-.06.05-.07,0,0,.06,0,.07-.05.07,0,.07,0,.08,0h.31l.08,0,.08,0,.07,0,.07,0,.07,0,0,0,.06,0,.05.06,0,.07,0,.07,0,.07,0,.07v.4l0,.07h0l-.35.67-.13.28-.12.28-.11.28-.1.29-.09.29-.09.29-.08.29v0l-.14.6,0,.28,0,.28,0,.29,0,.28v.86h0l0,.66,0,.29,0,.28,0,.29.05.28.05.22h0l.06.26.08.37,0,0,.09.1.13.09.12.1.1.11.09.11.08.12.09.14.07.14.06.14,0,.11,0,.14,0,.18v.31l0,.15,0,.15-.05.13-.06.12-.1.16-.1.13-.07.13-.11.1-.09.07-.1.08-.13.08-.14.1-.1,0-.11,0-.12,0-.14,0-.2.09-.19.11-.22.11-.17.12-.22.1-.15.09-.16.06-.16.06-.13,0-.13.06-.11,0-.1.05-.13.1-.18.11-.11.1-.12.09-.16.09-.12.07-.13.07-.11.05-.17.15-.18.17-.13.13-.11.15-.15.16-.12.13-.14.19-.14.18-.13.18-.11.16-.09.14-.12.13-.15.18-.14.18-.11.1-.13.15-.16.15-.16.17-.13.1-.12.1-.2.17-.15.1-.15.11-.15.09-.2.09-.16.06-.18,0-.17.05-.26.06-.16,0h-.23l-.2,0-.24,0H428l-.23,0h-.29l-.26,0-.31-.05-.26-.06-.27-.07-.37-.11-.25-.09-.31-.07-.08,0h-.07l-.26.86v0l-.1,0,.29-.91-.14-.05-.18-.07-.12,0-.14-.1-.13-.08-.13-.13-.06-.05-.08-.16-.06-.17-.05-.13,0-.15,0-.12v-.12l0-.1.05-.16.07-.14.07-.13.1-.13.11-.08.12,0,.08-.05.06,0,.06,0h.22l.07,0,.13.08.62.46.34.23.16.1.08,0,.08,0,.19.06.13,0,.22,0h.49l.1,0,.33-.05.42-.1.3-.08.45-.17.4-.21L430,137l.52-.4.45-.44.32-.4.37-.58.17-.33.06-.14.07-.18,0-.18V134l-.07-.23,0-.1-.15-.24-.16-.18-.14-.11-.28-.14-.28-.05-.26,0h-.39l-.35,0-.49.07-.34.06-.48.08h-.12l0,0,0,.11-.66.1v-.1l-.87.16-.79.14-.68.11-.83.14L424,134l-.23,0h0l-.09,0-.13,0-.16.06-.16.07-.09,0-.17.12-.13.11-.21.24-.08.12-.08.14-.06.14-.06.14,0,.12-.05.2,0,.12V136l0,.17,0,.14,0,.15,0,.14.11.16.24.36.32.35.07.08.11.18.1.3v.18l0,.25v.25l-.05.55,0,.24v0l.56,0h.25v.1h-.25l-.59,0,0,.06,0,.39,0,.57,0,.51,0,.27,0,.22,0,.2.07.27.05.28.06.34.05.49,0,.46,0,.3.11.75,0,.16,0,.15,0,.25,0,.27,0,.26,0,.28.07.29,0,.1,0,.27.05.3.06.3,0,.25.05.23.06.3.09.32.09.36.06.27.05.06,0,.08.06.21,0,.11.07.21,0,.24,0,.13,0,.09v.06l.14,0,.05.16,0,.15,0,.19.07.2,0,.15.06.14,0,.17,0,.17.12.34.08.21,0,.13.05.11,0,.15.06.16.05.15.05.19.06.18.08.22.08.21.08.23.07.19.06.2.09.2.05.16.07.2.07.2.08.22,0,.16.07.2.07.2.07.19.05.16.08.2.07.18.1.27.07.18.07.23.13.33.08.22.08.27.1.25.09.26.08.2.09.21.08.21.16.37.12.28.08.21.06.17.07.19.11.28.13.25.14.31.11.24.13.28.13.22.1.2.16.25.12.23.15.24.16.28.12.21.15.25.16.25.11.19.14.2.15.28.11.16.07.14.21.3.09.13.13.18.15.23.13.18.1.15.13.16.12.19.11.13.11.17.14.2.13.18.13.19.1.13.13.18.13.15.13.16.15.18.18.22.19.22.16.19.17.21.13.15.16.19.26.29.15.2.14.17.16.17.18.24.15.17.08.11.08.12.06.13,0,.13v.14l0,.13-.08.12-.1.1-.13.07-.16.06h-.12l-.13,0-.14-.05-.1-.07-.11-.1-.06-.07-.06-.13-.14-.58,0-.08-.09-.32-.3-.36-.06,0-.08,0-.09,0-.09,0-.09,0h-.21l-.09,0-.09,0-.09,0-.08.05-.07.05-.08.06-.06.07-.06.07-.06,0-.07,0-.08,0-.08,0-.08,0h-.43l-.08,0-.08,0-.08,0,0,0-.08-.07-.07-.08-.07-.08-.06-.08-.05-.09,0-.09-.57-1.58-.55-1.5.2-.28-.7-1.31-.07-.08-.08,0-.95-.39-.83-.31,0-.07-.29-.13-.34,0h-.78l-.07,0-.07,0-.07,0-.06,0,0,0-.14-.08-.07.11-.34-.22.23-.37-.11-.08h0l-.09.11,0,0h0l-.15-.21-.09-.15-.43-.72-.08-.12-.08-.12-.09-.11-.1-.11-.11-.1-.14-.13-.15-.12,0,0-.14-.1-.16-.11-.16-.11-.17-.09h0l-.06,0-.06,0h-.23l0,0,0,0,0,0,0,0v.19l.08.16.08.15.18.28.36.45.38.45,0,0,.41.45.56.58.17.2.28.34.22.22.05,0,.05,0,0,.06,0,.05,0,.07v.21l0,0-.21.48,0,0,0,0,0,.05v.12h0v0l0,0,0,0,0,0-.14.06-.16,0v0l0,.08,0,.08,0,.08v.34l0,.08,0,.08,0,.08,0,.07.05.07L426.3,169l.36.13.08.07.12.1.11.11.1.11.1.12.09.12.08.13.08.13v0l.08.15.07.16.07.16h0l.06.16,0,.16,0,.17.12.71,0,.65v.7l0,.07.05.14.06.14.06.14,0,0,.05.08.07.13.09.12.09.12.69,1.09h0l.58.86.11,0h0l.11-.83.31,0-.11.84v0l.19,0h.73l.22,0,.22,0,.06.31.41-.19.05,0,.11-.09.11-.1.1-.11.09-.11.09-.12.09-.12.07-.13.28-1v0l-.54,0,0-.27,0,0,0,0h0l0,.2.47,0h0v0l.05-.47,0-.79.14-.23.16-.09h.05v-.5h.16v.24h.07l.11,0,.12,0,.08.06.09.07.06.12.07.12,0,.14,0,.14v.46l0,.48v.62l0,.24.07.26.06.21.05.21.05.3.07.28.06.25,0,.22,0,.18.08.26.1.34.1.28.08.26.11.3.08.28.08.2.09.25.09.22.16.24.18.23.12.19.16.23.14.22.12.18.1.27-.18.1,0,.12h0l.09.2,0,.17,0,.16,0,.11,0,.13,0,.24,0,.17,0,.17v.09l0,.16,0,.22,0,.17,0,.19,0,.14v.05l.08.16,0,.12.05.07.05.11,0,.07v0l0,.11.06.06.05.09,0,.11.07.12.07.16.1.12,0,.09,0,.06,0,.06,0,.05.08.17.06.12,0,0,.72,1.13.19.3.1.18,0,.06.1.08.09.11.1.12.08.15,0,.13v.17l0,.15,0,.08v.1l0,.1-.05.11-.07.08,0,0,0,0-.05.07-.05.08v.66l0,.05v.18l.05.06h0v0l0,0h0l-.07-.09v-.25l0-.6.06,0v-.05l0,0-.06,0-.16.09-.67,0v.47l0,.05,0,.06,0,0-.05,0,0,0,0,0-.11,0h-.31v.26h.39l.16,0h0l.14,0,0,0h0l0,0,.07-.12.1-.18.11,0h0l0,0v0h-.08l0,0-.09.15-.07.11.07,0,.05,0,.06,0,0,0,0,0,0,0,.05,0,.05.05,0,0,.12.11.08.16.08.18.07.22,0,.18v.16l0,.16-.06.18-.06.21-.05.23-.05.22,0,.2,0,.2-.05.23,0,.23v.25l0,.28v.6l0,.35,0,.23,0,.25,0,.29,0,.3.06.32.05.26.12.36.06.27,0,.14.1.23.09.23.1.24.13.26-.29.16,0,0,0,.07,0,.08,0,.06.07.12.13.18.08.13.07.1.07.09.12.16,0,0,0,0,0,0,0,0,0,.05.08.09.07.11.07.1,0,.06.06.09,0,0,0,.09.05.11,0,.12.05.12,0,.08v0l0,.05v.76l0,.06v.22h0v.07l0,.06v.06h0l-.06,0-.07,0-.08-.05,0,.05-.05,0,0,0-.09.12-.1.14-.11.13v0l0,.06-.06.1v.67l0,.28,0,.23,0,.32,0,.21,0,.17,0,.19,0,.21,0,.28,0,.22.05.21v.28l0,.24.09.43.06.24,0,.07,0,.05.06.06.1.14.12.15.18.18.12.1.08.08.12.1.11.09.05.06,0,0,.08.11.06.08.09.1,0,0,0,0,.86-.69.06.08-1.29,1-.05-.06-.25.21v.08l0,.1,0,0,0,.07.07.13.08.13v0l0,.07,0,.09.17.29.14.24.08.13.12.16,0,.11,0,.11.09.15.07.1.08.1.07.16,0,.14,0,.11,0,.05,0,0,.5-.33.51-.33.07,0h0l0,0h0v0l-.27.18-.51.33-.69.44,0-.06-.2.13v.07l0,.1.08.17,0,.06.1.22,0,.18v0l.08.16.07.12.1.19v0l.07.11.1.14.13.12.06,0,0,0,0,0,.05,0,.07.1.08.14.11.16,0,0,0,.06,0,.07,0,.06.5-.34.34-.22,0,.06v0l-.4.27-.65.43-.39.26,0-.06,0,0,0,0v0l0,.09,0,.06.08.11.07.11.1.18,0,.11.07.12.09.13,0,0,.13.17.12.18.15.17.15.15.08.08.07.06.11.11.09.17,0,.11,0,.09,0,0h0l.33-.26.39-.3.05.09-.24.2h0l-.37.29-.48.38-.36.28-.05-.06,0,0h0v.1l0,.06.05.07.15.21.08.13.11.18,0,.07.14.14.19.15.19.2.11.12,0,0,.05.06.12.14.09.14.06.12.07.12.11.09,0,.06,0,.05,0,0,.62-.56.17-.14.06-.05,0,0,0,0-.62.56-.45.4.05.06.07.08.14.14.11.18.07.1.12.16,0,0,.16.22.12.11.05,0,.05,0,.06,0,.06,0,0,0,.05,0,.09,0,.07,0,0,0,.05,0,.05,0,.05.07,0,0,0,0,0,.07,0,.06.06.06.06.06.08.07,0,0,0,0h0l.3.37.2.23.12.13.09.09.11.1.06.05.05,0,.07.05.08,0,0,0h0l0,0,0,0,.09.07.05.05.09.09.07.07.08.09.09.09.09.07,0,0h0l.09.09.07.06.07.06.2.12.15.09.18.1.16.1.13.1.13.09,0,0,.06,0,0,0,.11,0,.13.07.11,0,.12,0,0,0h0l.38.12.29.08h.16l.29,0h1l.09,0,.09,0,.13,0,.1,0,.11-.07.09-.07.07-.06.07-.05.1-.06.07,0,.08,0h.11l.05,0,0,.09v0l0,.06v.19l0,.11,0,.08h0l0,.06,0,.07v0l.07-.09.07-.08,0,0,0,0,.07-.12.06-.13,0-.12.05-.13,0-.14v-.1l0-.11V223l0-.06,0-.07,0-.06,0,0,0-.06h0l-.05-.05-.06,0-.05,0-.07,0-.07,0-.06,0H453l-.07,0-.07,0-.06,0-.1.06,0-.07h0l.07,0,.07,0,.07,0,.07,0h.24l.07,0h.11l.07,0,.07,0,.06,0,.06.05.05.06,0,0v0l0,.07,0,.07,0,.07v1.22l0,.08v.05l0,.12v0l0,.12,0,.12-.06.12-.06.11-.07.11h0l-.07.1-.08.1-.09.1-.09.09-.1.08-.11.08-.11.07-.13.07-.14.08-.1,0h0l-.15.06-.15,0-.15,0-.15,0-.15,0-.16,0h-.23l-.16,0-.17,0-.08,0-.08,0-.13,0-.15.05-.15,0-.14.07-.14.07-.14.08-.13.09-.11.08h0l-.12.1-.12.1-.07.08-.48.51-.09.1-.68.7-.58.6V230l0,.11,0,.1,0,.1,0,0,0,.07-.05.07-.05.07-.07.06,0,0,0,.06,0,.07,0,.07,0,.07-.05.16,0,.16v.91l0,.58,0,.5,0,.27,0,.44,0,.36.05.3,0,.17.06.36,0,.2,0,.23,0,.34,0,.11,0,.18h0l.15.51.15.47.1.39.13.48.05.2.15.56.13.46.05.17,0,.13.21.76,0,.14.16.62.31,1.14.1.38h0l-.12,0-.09,0,.07.11.09.08.07,0,.06,0,0,0,.06,0h0l0,0,.06,0,0,0,0,0,.05,0,.05,0,0,0,.07.06.05.05h0l0,0,.06.06.05.06,0,.05,0,0,0,0,0,.05,0,.06.06.07.06.08.06.08,0,.06h0l0,.06.12.16.11.16.26.4,0,.07.26.46.14.23,0,.06,0,.09,0,0,0,.06,0,.08,0,.08,0,.05v.3h0v0l.16.07.16.07.17.06.16.06.18,0,.17,0h0l.71.17.09,0,.07,0,.16.06.05,0,.63.24.06,0,.06,0,0,0,.05,0,.18.13v0l.11.08.11.09.06.06,0,0,0,0,.12.13.1.14.1.15.1.15,0,.07,0,.08.08.16.07.15.17.37v0l.38.72.07.14.32.62.1.21.28.54.06.13.32.63.11.23.22.43,0,0,.38.76,0,0,.37.71.13.25.29.53.15.27.25.44,0,.07,0,.05.16.32.2.4.28.56.08.17.39.76v0l.39.77.18.36.22.42.1.2.08.14.26.43.28.47.15.24,0,.06.46.76.46.76h0l.21-.11.22-.08.26-.1.43-.15.28-.08h.21l.07,0,.09,0,.36.09.16,0,.18-.36,0-.05,0-.06h0l.09-.23.09-.19.12-.25,0-.11.1-.23.19-.4v0l0-.08.11-.22.05-.12.05-.1.09-.2,0,0,.06-.13,0-.09.09-.18,0-.08.13-.27,0-.09.05-.13.16-.34.09-.21.09-.2,0-.06,0-.08,0,0,0-.08.05-.11.05-.11.07-.14v0l.07-.16.13-.21,0,0,.07,0h.11l.48,0h.36l.44,0h1.89l0,0h.05l0,0h.11l0,0h.29l0,0h.18l0,0h.29l0,0h.39l0,0,0,0h.19v-.09l1,0V257h.19v0l0,0h.1l0,0h.06l0,0h0l0,0h.56l.05,0,0,0h2.15l.57,0h.63l.25,0h.1l.08,0,0,.07v4.32l0,.83v.44l-.08.09-1.89.05h-.4l-.42,0-1.24,0-6.47.2v.06l0,.76,0,.77v.14l6.41-.2,1,0,2-.06,3-.09v-.08h.05l0,0,0,0h.19l0,0,0,0h0v.06l0,.27,2.83-.09,0,.55,0,.74v.25l-2.85.09v.57h0l0,0,0,0h-.19l0,0,0,0h-.06v-.08l-1.13,0-1.47.05-1.59,0-.87,0h-1l-3.14.1-2.89.09v.39l0,1.14,0,.77,0,.73h2.57V270h-.09l0,0,0,0,0,1h.12l.08.06,2.23-.06h.66v-.07h.32l.08.07.56,0h0l0,0,0,0v.11l0,0,0,0h-.58l-.11.2.12.2,1,0,.92,0,1.19,0h.55l0,0,0,0v.11l0,0,0,0h0l-.55,0-1.28,0-1.31,0-.5,0-.07.07h-.32V272H474l-2.12.07-.07.07h-.35v-.06l-.79.11-.12,0-1.93.29v.2h0l0,0v1.3h0v0h-.06v3.69h0v.61h0v.3h0V279h0v.24h0v.26h0v.25l-2.25,0-1.59,0v.71l0,.09h0l0,.09,0,.09,0,.09,0,.09,0,.08,0,.09,0,.06-.07.1v0l-.05.06h0l-.07.1-.07.09-.08.08-.08.09-.09.08-.08.08-.09.07-.09.07-.1.07,0,0-.06.05-.1.06-.1.06-.1.05-.08,0-.09,0-.16.06-.17.06-.17.05-.17.05h0l-.13,0-.12,0-.29,0h-.42l-.39,0h-.12l-.12,0-.11,0-.11,0-.11.05-.08,0-.1.05-.09.07-.09.07-.08.07-.07.08-.07.09-.07.09,0,0v0l-.06.11,0,.11,0,.11,0,.12,0,.12v.18l0,.5,1,0v.26l0,.74v0l0,.56-.8,0h-.25v.2l0,.77,0,.48h.12v.29l0,.76,0,.77v1.82h0l0,.46,0,.28,0,.49V293l0,.26v.49l0,.48v.06l0,.59v.18l0,.47v2.6h0l0,.46v.14h0v.93l0,.77,0,.76v1.23h-.11v.35l0,0,0,.05v.19l0,.05,0,0v.36l0,.77v.77l0,.77v1.53l0,.77v.05l.13.05.12.07.13.07.11.08.12.09.1.09.1.1h0l.09.11,0,0,.06.08.08.11.08.12.05.1.85,0,.11-.07h0l.1,0,.12-.05.12-.05.13,0,.12,0,.12,0,.23,0h.95l.11,0,.11,0,.11,0,.11.05.1.06.09.06.1.07.09.07.05.05,0,0,.07.08,0,0,0,.05.07.09,0,.1,0,.05.05.1,0,.11,0,.12,0,.11v.58l0,.12,0,.1h0l0,.11-.05.1,0,.07,0,.07,0,0-.07.11-.08.1-.06.07v.4l2.84-.08v0l0,0h.06l1.39,0,2-.06.53,0,0-.05,0,0,.07-.09.08-.08.09-.08.09-.07.08-.05h0l.1-.06.1-.05.11-.05.11,0,.11,0,.12,0h.34l.12,0,.11,0,.11,0,.11,0,.11.05.1.05.09.06h0l.1.07.09.07.08.08.08.08.07.1.07.09.06.1.05.1,0,.11,0,.11,0,.11,0,.12V313l0,.11v.05l0,.06,0,.11,0,.11-.05.1-.06.1-.06.1-.07.09-.08.09-.09.08-.05,0,0,1.45v.21l-.34,0v-.28l0-.06,0-.06v0l0,0,0,0-.12-.12,0,0,0,0v0l0,0,0,0,0,0,0,0h-.08l-.1,0-.09,0-.09,0-.08,0-.08.06-.07.06-.07.07,0,0-.1.1-.08.1-.09.12,0,.05,0,.06-.07.12-.06.12,0,.07-.05.17,0,.17,0,.06,0,.11v.66h0l0,.16,0,.16,0,.15,0,.08.06.21.14.44.1.32.11.34.12.42,0,.1.12.45,0,.09,0,.07,0,.06h0l.05.05.06,0h0l.06,0,0,.07v.06l0,0v.05h.18l.07,0,.06,0,.17.25h.46v0h0l0,0v0h0V321l0,.76,0,.56v.21l0,.77v1.24l-.63,0-.59,0-.33.19v.09l.05.77,0,.77h0l.05.75.05.77v.17l0,.6.05.77v.11l0,.4,0,.25.05.77,0,.34,0,.43.05.77,0,.16v.15l0,.45,0,.77,0,.25,0,.52.05.77v.18l0,.35,0,.23,0,.61h.12v.1l-.54.07-.84.11-.47.06-.77.09-.4,0h-.45l-.12,0-.11,0-.11,0-.1,0-.1-.06,0,0-.06,0-.09-.06-.09-.08h0l0,0-.08-.08,0-.06,0,0-.06-.08-.05-.1,0-.09,0-.09v0l0-.1,0-.1h0v-.53l.08-.57,0-.2.11-.77,0-.33.06-.45.11-.77,0-.22.07-.55.06-.43v-.07l0-.07,0-.07h0l0-.08v0l0-.06,0-.09v-.27l0-.09,0-.09,0-.09,0-.08h0l0-.08h0l0-.06-.1-.1-.09-.11-.09-.11-.08-.11-.07-.12,0-.06,0-.07-.06-.13-.05-.13,0-.13,0-.14,0-.14v-.05l0-.37v-.19l0-.1V328h0l0-.09h0l.05-.18,0-.09v-.38h0l0-.09,0-.09,0-.09-.05-.09,0-.08-.05-.08,0,0-.13-.14-.06-.05,0,0-.08-.07-.06,0-.05,0-.05,0,0,0,0-.05,0-.06,0-.06v-.2l0-.08v0h0l0-.11,0-.11,0-.12,0-.12v-.39l0-.11-.05-.19,0-.05,0,0,0,0,0,0-.05,0-.05,0h-.12v-.83h.1l.05,0,.05,0,0,0,0,0,0,0,0,0,0-.05v0h0v-.08h.11v-.48l0-.54h.11l.11-.24.15-.34.08-.18.07-.19,0-.06,0-.13.06-.19,0-.08.08-.37.06-.26h0l.08-.46v-.05l0-.19,0-.25v-.46h0v-.08h0v-.16h0v-.05h.07v-.19h0v-.23l0-.22,0-.23,0-.23,0-.18,0-.15,0-.14,0-.08-.07-.22,0-.11h0l-.11-.31h0l-.1-.25,0-.09-.07-.16-.11-.24-.12-.23-.06-.13-.09-.18h-.11v-.12l0-.61v-.29l-1.54,0-1.52,0v.3l0,.75-.13,0-.06.17-.08.22-.14.4-.05.15-.08.24-.12.4,0,.14h0l-.06.21-.05.21-.05.21v.13l-.14.76h0l0,.16,0,.17,0,.17v.5l0,.14,0,.14v0l.05.22v0l.06.21.06.22.07.22,0,.11,0,.1.05.13.1.25.1.24,0,0,.09.2.11.23.13.23.05.1.08.13.06.1h.12l0,.54v.48h.11v.12h0l0,.1,0,0h0l0,0,.05,0,0,0h.11v.32h-.25v.19h.27v0h.07v.15h0v.16l-.19,0-.12.13-.05.18v.12l0,.13h0l0,.12v0l0,.17,0,.08,0,.07,0,.06.06.15,0,.08,0,.07,0,.14,0,.12,0,.44v.19l0,.49,0,.08v.07l-.11.15-.19,0h-.19l-.14.12-.12.14-.06.1L465,328l0,.08v0l0,.11,0,.05-.07.23-.06.23,0,.13,0,.1-.05.23,0,.19h0v1h0l.05.19.05.19.06.19.05.14v.05l0,.09,0,.15v.13l.05.14.06.14.05.11v0l.07.13.08.13.09.12.09.12,0,0,.1.12.08.08,0,0,.12.11.12.1h0l.62.51.3.24.09.09.09.1.08.1.08.11.07.11h0l.06.12.05.11.05.14,0,.13,0,.14,0,.12v.79h0l0,.24,0,.24,0,.24v0l.05.21.05.23h0l0,.08,0,.15,0,.08.05.16.08.22.08.23.07.15,0,.07.1.22.05.11.16.29,0,.07.12.22.17.28.17.26v0l.13.2.34.54.26.42.08.13.07.13,0,.08,0,.05.06.14.05.14,0,.14,0,.15,0,.14h0v.12l0,.15v.62l-.09.65-.05.36-.06.41v0l-.09.61v.13l0,.1,0,.28,0,.15v.37h0l0,.69,0,.47,0,.14,0,.14,0,.14,0,.13.05.14.06.13,0,.06.36.63.47.81.2.34.06.12,0,.09,0,0,0,.14,0,.13,0,.14v.14l0,.14v.35l0,.14,0,.13,0,.13,0,.12-.05.13v0l-.09.18-.1.18-.1.17-.06.09-.27.48-.06.12-.05.13,0,.13,0,.13,0,.14,0,.13v.25l0,.41.11.08.09.16.06.12.07.16,0,.15,0,.13,0,.2.06.24.05.38.07.11.08.16.12.27.16.24.11.23.18.32.13.27.15.24.07.13V358l0,.38,0,.34v.74l.05.23.08.26.06.19.16.27.11.23.12.23.06.14.76-.2.43.19-.05.11-.39-.18-.71.19.06.08,0,.08v.09h0v0l0,.15.09.3.2.85.17.25.12.11.09.05.05,0,.11.07.09.06.09.07.05.05.06.06.05.06.1.12,0,0,0,0,0,0,.42.84h0l2-.61.6-1.17v-.46h.12v.51l-.65,1.27-2,.63v.21l0,.26,0,.26,0,.25,0,.34,0,.36,0,.36,0,.3.08.36.06.44.09.39,0,.16.06.24.11.25.16.35.2.3.29.52.31.4.38.45.25.28.12.14,0,.34-.26.41-.42.32.06.3.07.42.11.45.18.36.16.29.11.18.16.17.12.11.18.11.22.11.22.08.23,0h.19l.18,0,.18.08.18.09.14.15.16.19.14.24.17.24.13.27v.17l0,.33-.05.39v.15l.05.26v.27l0,.26,0,.23.11.38.13.33.16.28.21.31.22.27.22.26.3.33.12.16.21.35.1.17.26.45.34.57.27.44.19.31.52.89.19.19.14.25.13.18.21.18.34.32.27.25.25.24.25.21.23.2.24.21.2.16.21.16.21.16.26.28.18.17.14.2.13.19.17.32.08.23.06.26,0,.22.05.28V389l0,.27,0,.26-.05.24-.06.28-.05.36-.05.33,0,.44,0,.25,0,.3.11.43,0,.19.1.31.08.22.11.39v.18l0,.1,0,.1v.06l0,.1V394h-.05l0,0,0-.05h0V394l0,.06v.06l.05,0,0,0,0,0v.06l0,0,0,0v0h.1v.08h0l.09.05v0l0,.09v.11l.05.08,0,.07v.1l0,.09,0,0,0,0,0,0,0,.06.09.16,0,.12,0,0,0,0,.05.06.06.07.1.1.06.12.06.13.07.09.09.12.09.13.08.1.05.07,0,0,.15.14.07.13.06.12.07.1.13.26,0,.1.06.1.05.1.06.14,0,.11,0,.1,0,.06.06.11,0,.07v.11l0,0,0,0,0,0,0,0,0,.06,0,.08.14.18.08.12.52.64.29.06.17.06.14,0,.1.08.07.11.09.11.09.1.16.16.13.1.13.1.14.14.18.13.16.14.14.12.08.09.07.09.06.13.1.11.09.08.1.08.13.06.16.07.12.08.14.07.12.09.13.11.13.12.1.11.07.12.08.15.09.14.08.14.06.14.08.16.08.18.06.2,0,.15v.61l0,.3,0,.34v.65l0,.07,0,.08,0,.08,0,.08,0,0,0,.05,0,.08,0,.06,0,.05.08.06.09.1.08.1,0,.1.06.07.05,0,.05,0,.05,0h.14l.07,0,0,.08,0,.05,0,.1,0,.1,0,.08,0,.05,0,0,.06.17,0,.07,0,.09,0,.12,0,.08,0,0,.06,0,.05.09,0,.11.05.12.07.12.05.11.05.12,0,.06,0,0,.07.08.08.09.06.06,0,.08,0,.07,0,.06.09,0,.08,0,.06.06,0,.09.05.09,0,.1,0,.13v.1l0,.05h-.07l-.06,0-.05,0,0,.05,0,.09,0,0,0,.05,0,.08.08.06.07.07,0,.1v.19l0,.09,0,.09,0,.1,0,.1v.07l.05.06,0,.09,0,.08.05.05.05.06,0,.09,0,0,.05.05,0,.07.06.09.06.07.05.1.07.06.08.07,0,.09.05.08.06.06,0,0,.05.06.1,0,.11.06.1.06.05,0,0,0,0,0,0,0,.08.07.06.07.06.09,0,.09.05.09.08.11.07.12.06.13,0,.12,0,.1,0,.08.05.08.1.08.09.07.09.07.08.06.06,0,0,0,.09.05.11,0,.1,0h.09l.11,0,.12,0h.4l.08,0v0l.08,0H501l.14.07.05,0,.06,0,0,0v.24l0,0,0,0,0,.05,0,0h.06l0,0v.08l0,.05v0l0,0h.08l0,0,.05,0,0,0,0,0,.07.14v.19l0,0,0,0v.2h0l0,0v.06l0,0v.1l0,0v.11l0,.08V417l0,.08v.13l0,.1,0,.06v.08l0,.05h0l0,.11.05.14.06.11,0,.11,0,.09,0,.08,0,0,.05.05,0,.05.05.05.05.08,0,.06.05.08.05.09.05.11,0,.09,0,.08v.05l0,.07h0v0l0,0,.05,0,.06,0h.07l.06,0,0,.06v.18h.06l0,0,0,.07.05.15,0,.08,0,.11V420l0,.05,0,.05v.05l0,0,0,.06v0l.1.2.09.14.06.15,0,.07h0l.1.16.1.17.08.16,0,.14v0h0v0l0,.1.06.1h.06l.08.15,0,.11,0,.07,0,.08.09.18.09.14.08.13.08.12.08.18.21.28.09.13.07.1.11.11.13.13.08.1.1.11.11.13,0,0,.14.11.06.07,0,0,0,0,.09.09.13.09.16.11.21.17.14.14.17.19.05.05.15.12.12.09.06.07.14.11.16.11.12.13.08.09.11.1h.11l.05.07,0,0,0,0,.13.12.16.15.21.18.11.11h0l.17.15.34.33.38.37.17.17.08.09.09.1.09.15.1.16.14.12.14.11.07,0,.12.05.2,0h.14l.12,0h.06l.16.09.16.11.14.1.11.05.11.08.09.09.1.16,0,.13v.34l0,.07,0,.09,0,0,0,0-.11.22-.35.8.22.12-.06.24,0,.3-.06.37,0,.24,0,.22v.28l0,.46v1.18l0,.31,0,.3,0,.36,0,.38.11.89.09.52.13.51.11.43.19.51.19.53.09.22-.21.14h0l.15.2.25.34.06.1,0,0,.06.07.07.07,0,.06.19.21.17.18.1.1.11.11.07.06.09.08.08.07.06.05.12.1v0l.13.12.14.11.14.12.06.07.09.09.1.08.11.07.15.07.07,0,.09,0,.22.06.21,0,.18,0h.33l.12,0,.23-.08L516,442l.16-.06.11,0,.11,0,.13,0h0l.07,0,.09,0h.18l.25,0,.2,0,.06,0,.09,0,.17.07.08,0,.06,0,.06,0,0,0,0,0,.07.09.07.08.12.09.12.09.05.07.06.18,0,.13v.12l0,0,0,.21v.11l0,.15,0,.11-.1.24-.05.14,0,.06,0,.17v.1l0,.14,0,.1v.13l0,.05-.1,0-.17.06h0l-.12,0,0,0,0,0,0,0-.17.18-.14.13-.07.08-.1,0-.08,0h-.33l-.07,0-.08,0-.07,0h0l-.09,0-.09,0-.1,0h-.09l-.23.05-.43.08-.3.09-.31.14-.12.06-.27.15-.27.15-.18.15-.2.17-.26.28,0,.06,0,0-.15.16-.07.1,0,0v0l0,.21,0,.12,0,.11-.07.12,0,.11-.05.12,0,.13,0,.1,0,.16v.69l0,.15v.46l0,.16V450l0,.19,0,.11-.07.15-.09.12-.07.12,0,.14,0,.13,0,.12,0,.12,0,.06,0,.1.05.12.06.14.08.18.06.11,0,.06.06.12,0,.09,0,.09,0,0,.15.25.07.11,0,0,.12.2.08.16.12.19,0,.07h0l0,.08.08.12.08.14,0,.05.06.14.08.17.07.21.05.18,0,.19.06.16.07.11,0,.05.06.07,0,.08.09.08,0,0,.16.19.18.18.19.23.18.18.17.17.14.14.16.14.15.13.17.15.16.14.18.16.19.16.14.12.14.11.12.09.1.09.1,0v.12l-.51.06v.1l-.24,0-.42,0,0,0,0,0v0h-.13l0,0,0,0v0l-.47.05v.09l-.09,0h0v.18h.12l0,0v.06h.18l.26,0v0l0,0h.14l.05,0,0,0v.15h-.1l-.07,0V459l0,.15v1.34l0,.26,0,.23.06.31,0,.3.06.32.08.31.07.3.08.29.06.26.1.34.16.55.1.3.09.27.1.27.08.27,0,.07.07.18.09.26.07.22.09.25.19.47.08.22,0,.12.08.1.1.07.09.07.13.08.19.11.18.1.14.1.18.12.09.07.1.07.15.12.16.13.12.09.16.11.18.12.17.13.15.09.16.11.13.1.12.07.08,0,.13.08.18.12.2.12.18.12h0l.13.08.12.07.07,0,.32.18.35.18.33.15.11.06.08.05.24.11.24.09.21.07.24.1.23.07.21.09.21.08.22.07.22.06.19.05.19,0,.22.07.16,0,.23,0,.16,0,.19,0,.13,0,.17,0,.1,0,.15,0,.77-.25.17-.05.86-.3,1-5.63.15,0-1,5.72-1.13.35-.53.18-.42.14h0l-.16.06-.19.06-.2.07-.21.07-.21.07h0l-.21.07-.12,0-.14,0-.24.07-.32.11-.51.24-.56.25-.86.38-.57.26.21.66v.07l0,.06,0,0-.06,0-.49.15-.45.14-.36.13-.21.09-.27.15-.19.14-.17.17-.14.18-.1.14-.26.52,0,0V476l0,0h0l0,0,0,.11,0,.1,0,.13,0,.09v.08l0,.1-.05.19,0,.2,0,.19,0,.16,0,.17v.86l0,.2.06.29.08.26.08.21.09.21.1.19.11.23.11.16.12.2.09.14.08.13,0,.11v.14l0,.1-.07.08-.12,0h-.12l-.16,0-.14,0,.06.27h.17l.15,0,.11.05.09.07.12.06.16.07.12,0,.12.05.09,0,0,.05.13,0,.18,0h.72l.11.05,0,0,0,.15h.07V482l0-.12.11-.08h.36l.17,0,.07,0,.14,0,.19-.07.2-.08.07,0,.1,0,.17-.07h.11l.12-.07.09-.11.07-.18.06-.18,0-.24,0-.2,0-.19v-.36l0-.12-.07-.05-.07-.19-.08-.16-.1-.18-.12-.2-.11-.18-.09-.11-.07-.09,0-.07h-.1l-.11-.15-.24.15h0L522,478v0l.1-.07,0-.05-.24-.3-.12-.13-.11-.14-.17-.25-.1-.23,0-.08,0-.21-.09-.39v-.36l0-.16,0-.08,0-.09,0-.15.05-.13.07-.09.12-.05.15,0,.13,0,.12-.06.13-.07.11,0h.11l.15,0,.15.06.19.08.1.08.06.14,0,.12v.15l0,.12.08.13.11.16.08.15.09.16.1,0,.11,0,.15.14.13.18.14.19.17.21.16.19.3.32.18.17.2.19h0l.16.15.19.2.12.13.14.18.11.17.17.19.09.13.09.11.08,0,0,0h.16l.11.09.16.13.12.06.18.13.14.11.33.31,0,0,.07.08.11.11.09.11.08.11.09.11.1.14.08.13.09.12.08.1.1.14.12.16,0,0,.12.15.08.14.09.15.14.22.13.21.11.2.07.12.1.19.15.25,0,.07,0,.07,0,.07.09.14v0h0l0,0,.05.07,0,0,0,.06.07.11,0,.08,0,.08,0,.07,0,.07,0,.05,0,.06,0,.05,0,0,0,.05.05.06,0,.05,0,.05,0,0,0,.06,0,.05v.05l0,0v0l0,0h.05l.06.05.06,0,.07,0,.08.05,0,.06h0l0,0,0,0,0,0,0,0,0,0,0,0,0,0,0,0,0,0v.05l0,0v.28h0v0l0,0,0,.07.07.1.06.05.08.09.11.13.1.13.13.13.13.13.15.13.14.1.14.11.13.09.15.12.12.12.12.09.11.09.14,0,.14.1.12.1.14.08.19.08.16.09.13.1.15.1.14.09.12,0H535l.09.11v.18l0,.17,0,.12.07.12v.15l0,.18,0,.17v.17l0,.16.06.17v.12l-.07.09,0,.14.05.16,0,.17,0,.07,0,.11,0,.17,0,.17,0,.16.05.16.06.15.09.14.11.15.1.14.09.13.08.16.1.17.09.14,0,.13.08.14.08.14.09.14,0,.07,0,.08.06.16,0,.15v.11l0,.12,0,.1.15.11.15.11.15.09.15.09.17.1.16.08.19.1.17.07.19.08.17.07.16.07.18.06.18,0h0l.19,0h.16l.16,0,.13-.07.12-.11.09-.1.08-.15.09-.15.1-.15.11-.16.11-.17.11-.15.1-.12.09-.09.09,0,0,.13v.33l.06.2.07.2,0,.18v.2l0,.24v.62l-.06.08,0,.07v.23l.06.08.06.11,0,.18v1.2l0,.16,0,.14v.12l-.08.07h-.08l0,.07v.14l0,.07-.05.06-.11,0-.14,0-.13,0-.19,0-.15.05-.14.06-.14.13-.12.12-.1.11-.1.15-.05.15,0,.19,0,.17,0,.07,0,.1v.31l0,.14.05.17,0,.16.07.1.05.08.1-.06.15.21.15.22-.1.09.07.11.07.08.09.05h.11v0l0-.07h.13l0,0,0,0,0,0,0,.07.05.07,0,.07,0,0,0,.05h0l0,0,0,0V502l0,0v.07l0,0,.06.1,0,0,0,0v0l0,0-.16.12-.11.08.06.12.06.09.07.11.06.07.06.06.05,0,.07.09.05,0,.08,0h.09l.24.3,0,0,.16.21.22-.14,0,0,.11-.07.08-.06.29-.21.2.27,1,1.41-.18.12.08.1v.28l.05.07.1.05,0,0h0l.09.07,0,0,0,0,.07,0,.12.08.1.06.08.06.07.06,0,0,0,0,.12.09.06.05,0,.05.07.11,0,.06.05.08.1.11.07.06.09.07.11.07,0,0,.07,0,0,0,0,0,.08.08,0,.05,0,.05,0,0,.06.09.1.09.09.07,0,0,.06,0,.07.05.12.1.11.07.13.07.06,0h.1l.1,0,0,0,.11,0h0l.07,0,.15-.08.26-.17.14-.07.11,0,0,.08,0,.17.1.28.2.36.13.24.07.16,0,.05h.1l0,0,.06.1,0,.09,0,.1.06.12.06.06,0,0,0,0,.08,0,0,0,.05,0,.2.12.09.05.12.06.14.08.13.08.09.05.11.05.07,0,.06,0,.27.16.13.08.07,0,0,0,.13.07.18.13.14.08h0l.11.06.18.12.16.07.26.12.22.11.11.05h0l.14.07.11.06h0l.1,0,.13.07.15.07.13.07.13.07.11.05.18.09,0,0,.08,0,.1.06.11.05.17.08.09,0,.14.06.13.07.09,0,.24.12h0l.62.31.54.2.14.06.09,0h.1l.07,0,.1,0,.13,0h.2l.09,0,.14,0,.31,0h.41l.06,0h.05l.09,0h0l.12,0h.62l.16,0,.1,0,.06,0h.05l0,0,0,0,.05,0,.07,0,.14,0h0l.12,0,.32-.17.41-.25.45-.29.32-.21.09-.07.05-.06.06-.06,0-.06,0,0,0-.05,0,0,.05,0,.08-.07.3-.25.24-.25.16-.17.12-.12.08-.07.1-.07.06-.05.06,0,0,0,.06,0h.05l0,0h.09l0,0,0,0v0l0,0h0v0h.21l0,0h0l-.34-.43-.34-.42,0,0,0,0,0,0h-1.21l-1.68,0h0l0,0v0l0,0h.55l0,0h1.62l.64,0h.12l0,0,0,0,0,0h0l.87,1,.06.06.49.6h.14l0,0,0,0,0,0,.09.09.15.19.52.68h0l0,0v0l0,0v.23l-.05.14-.08.23.08.09,1.31,1.6.13,0h.48l0,0,.05,0,.06.06,0,0,0,.06.06.06.07.07.2.26.12.14.09.1,0,.05,0,0,0,0v.11l0,0-.06.06-.09.08-.07.06-.08.07-.07,0,0,0h-.11l-.08.06h0l0,0,0,0h0l0,0,0,0-.08,0,0,0,0,0,0,0,0,0-.12.09-.08.07-.18.16-.18.13-.1.1,0,0,0,0,0,0-.13.08-.12.1-.1.09-.13.08-.06.05,0,0,0,0-.06.05-.07,0-.17.13-.15.13h0l-.13.12-.14.11-.16.13-.07.06-.08.06-.05,0,0,.05-.06,0,0,0,0,0-.05,0,0,0,0,0-.05,0,0,0,0,0,0,0,0,0,0,0h0l-.11.1-.16.14-.11.09-.06.06-.07,0-.09.09,0,0,0,0v.2h0v.22l0,0,0,0v0h-.07l-.05.08,0,.07,0,.06,0,.06,0,0v.1l0,0v0l0,0v.06l0,.05v0h0l0,0,0,0v.13l0,0,0,0V521l0,.05,0,0,0,0h-.05l-.09.36.1.3.13.47.06.2.09.31.12.33.09.24.11.3.08.23.11.31.11.28.06.13.09.17.06.1,0,.08,0,.06,0,.05,0,0,0,0,0,.05,0,0,0,0h0l.1.11.08.08.06,0,0,0,0,0,0,0,.05,0,0,0h.15l0,0h.53l0,0h.34l.1,0h.95l.07,0h.44l.09,0h.24l.11,0h0l.13.05.08,0,.09,0h.13l.08,0,.08,0,.07,0,.08,0,.07,0,.06,0,0,0,.06,0,.08,0,.08.05.1,0h0l.09,0,.09,0,0,0,.07,0,.09,0,.07,0,.09,0,0,0,.06,0,.08,0,0,0,0,0,.06,0h.08l0,0,.12.06.11,0,.16.08h0l.31.18,0,.05.09,0,.13.07.13,0,.1,0,.11.06.1,0,.09,0,.09,0,.1,0,.09,0,.08,0,0,0,.18.09,0,0h.06l0,0,0,.05,0,0,.07,0,.07,0h0l.07,0h.08l0,0,0,0,.06,0,0,0h.09l0,0,0,0v.05h.09l0,0,.1,0,.05,0,0,0,0,0v0l0,0H573l.06,0,0,0,0,0,.07.05.09,0,.08,0,.07,0,.08,0,.07,0,0,0,0,0v0l0,0h.12l0,0h.05l.06,0,0,0,0,0,0,0,0,0h0l.05,0,.06,0,.05,0,.07.06,0,0h0v0l0,0h0l0,0,0,0,0,0,0,0,0,0,0,0,.06,0,.09,0,.06,0,0,0,0,0,0,0h0l0,0,0,0,0,.05,0,0h.09l0,0,.07,0,.06,0,.07,0,.06,0,0,0,.05,0,0,0h0l.09,0,.13.07,0,0h.05l.09,0h0l.08.08.08,0,.15,0,.45.18.19.11.27.17.06,0,.18.1.23.1H578l.23.13.15.09.26.15.41.19.51.23.34.23.36.19.29.15.18.14.2.14.22.19.06.13V533l0,.09,0,.22.07.39.07.42,0,.33.07.37v.35l0,.21,0,.24v.06l0,.32.07.45,0,.23.59,5.25.15,1.3v.11l0,.06h0v.15l0,0,0,0,0,0h0v.17l0,0,0,0h0v0h0v0h.06l0,0v0h0l0,0,0,0v.34l0,.1,0,.1,0,.06v0l.08.14v0l0,0,0,.05,0,0,.05,0,0,0,.06,0h.21l.12,0,7-.17v0h0v.15l-7.58.18-.31.17h-.08l0,0-.24.1-.24.1-.13.06,0,0h0l-.9,0h-.6l-2.61.06h-.25l-4.25.1-4.21.1v.51l0,0,0,.42,1.3,0h0l3.06-.08,3.49-.09.77,0,3.11-.08,2.17,0,.06.48h0l.06.59,0,.14v0l0,.06V548h0l0,0h.06v0l0,.25,0,.12v.14h0v.23l0,.06V549l0,.27v.18l0,.21,0,.19V550l.07.74.05.16,0,.06V551l0,.1v.39l0,0v.18l0,.07v.32h0v0l0,.07,0,.09,0,.06V553l0,.16v.25l0,.22,0,.23,0,.27,0,.44,0,.15v.15l0,.12,0,.07,0,0,0,0,0,.05,0,.06,0,0v.07l0,.06,0,.07,0,.11V556h0l.07.39.06.54v.32l0,0V558l0,0v.31l0,0v.17l0,.06V559l0,.06v.18l0,0v0l0,0h.06v.1h0v0l-.35,1.28-.33,1.21,0,.1h.16l0,0,.07,0,0,0,0,.06,0,0v.09l0,0,0,0,0,0H584l.22.06,2.26.4,2.9.52.06,0,.1,0,.1.05.09,0,.09.06.1.11.21.24.06.24,0,.77.06,2.5,0,2.24.21,8.51v.54l0,.16h.11l0,1.35v1.08l0,0v.17h-.24l0,0,0,0,0,0-.06.06-.08.08-.08.1L590,582l-.07.11.4.47,0,0,0,0-.14.13-.38-.44-.09.15-.11.21-.05.1-.1.23-.09.24.46.13-.07.22-.45-.12v0l0,.12,0,.12,0,.13v.21l0,.2,0,.4,0,.49,0,.63h0v.42l0,.2,0,.21,0,.2,0,.1,0,.18.06.17.07.17.07.16.08.17.14.21.14.22.14.21.14.17.06,0,.14,0h0l.11,0,.13,0h.12v.32l0,0h0v.74h-.94l-.29,0-.28,0-.37.07v0l-.86.38-.13-.28-.13.06.13.28-.39.18,0,.13,0,.07h0l0,0h-.1l0,0v0h0v0h-.07l0,0h0l-.41.24v0l-.15.1-.17.12-.17.13-.16.14,0,0-.15.13-.14.13-.13.14-.12.15h0l-.12.14-.1.15-.1.15-.2.26v.07l-.07.08h0l0,.05,0,0,0,.06v.06h0v.1l0,.11v.42l0,.11,0,.2.05.24,0,.14,0,.13.05.14.06.13,0,0,.13.23.14.24h0l.07.12.07.12.06.13.05.14,0,.13,0,.14,0,.06.08.21.08.21.09.21,0,.09.08.17.08.16.09.17.1.16.11.15.11.15,1.32,1.35,1.75-1.91.08.08-1.75,1.91-2.74,2.84,1.7,1.43h0l.14.08.14.07.15.06.15.06.15.05h0l.14,0h.43l.47-.61-.17-.21v-.1l0-.07,0,0,0,0,.05,0,0,0H589l0,0,.05,0,0,0,0,0h0l0,0,0,0v.06l0,0,0,0,0,0,0,0,0,0v.06l0,0,0,0,0,0,0,0h.07v0h0v0h.1l.17.09h0l0,0,0,0h0l0,0h0l.12.1.13.15.38.4,0,0h0l0,0,0,0h.05l.36.18h0l0,0,0,0,0,0v.11h0v0h-.09v0h0v0l0,0H591l0,0h-.2l0,0,0,0,0,0v0l-.16-.07,0,0-.15-.12h0v-.07l-.34-.55-.06.05-.06-.06-.07.05-.25-.27-.13-.14h-.09l-.87.75.63.71.64-.57-.06-.07,0,0,.09.07h0l0,0,.11.11.07.13,0,0-.09-.09-.63.53.17.2h0l.18.23,0,0,0,0h0l.7-.61h0l.11.14-.12.11-.2.2,0,.05,0,.07,0,.06v.07h0v.12h0l0,0,0,0,0,0h0l.46.31v4.2l0,2.83v3.11l0,.84V624l0,3.5v3.39l0,.25v5.63l.07.88,0,6.76v27.13l0,27.24v27.09h-8l-5.82.08-4.13,0h-6.31l-10.25.07H543.19l-2.93,0-1.35,0H523l-1.6,0h0l-3.33,0-1.58,0h-.28l-9.93.08h0l-5.29.14-4.74.06-.48,0-1,0-.75,0H484.5l-1.06,0h-2.29l-1.12,0h-14l-.47,0h-3.47l-.06-4v-6.63l-.17,0-1-.15-1.47-.41-1.58-.45h0l-.15-.07h0l.24-.62.09-.2.11-.32.17-.45.06-.17.06-.17.17-.5.29-.88.27-.89.24-.9.23-.9.21-.9.19-.91.16-.92.15-.91.21-1.37.64-4.19,0-.16h-1l-.29,0h-.29l-1.14,0h0l0-.11.14-.38.13-.4,0-.41.06-.57-.19-1.35-.3-.4-.19-.26-.56-.42-2.49-1.4,0-.53h-.24l-.95,0h-.22l-.34,0h0l-.2.06,0,0,0,0h-.17l0,0h-.07l-.18.06h-.15l-.05,0-.06,0h-.1l0,0-.06,0-.06,0h0l0,0H452l-.07,0h-.15v0l0,0-.08,0-.09,0,0,0-.06,0,0,0,0,0-.08,0-.15,0-.29.1-.14,0,0,0-.21.05h0v0h0l-.1,0-.15.05,0,0-.12,0H450v0h0l-.19.08h-.05l-.09.06-.14.07-.06,0-.15.11h-.08l-.06.1-.06.07-.11.16-.13.13-.07,0-.07.07-.28.21h0l0,.05,0,0-.88.83-.15.18-.17.17-.15.21-.07.08-.05.1-.1.13-.7.87,0,0-.06.08,0,0,0,.06,0,0,0,0-.06.1h0l0,0,0,.06,0,.05-.4.45-.52.35,0,0-.12.08-.15.13-.31.33-.2.21-.19.16-.23.22-.21.2-.15.13-.14.14-.06.11-.05.19v.06l0,.08v.15l-.12.09-.17.11-.07,0-.25,0-.19-.33-.16.1,0,0,0,0h-.68l-.05,0-.07,0h-.29l.07.13h0l-.12,0-.09,0h-.07l-.05,0h-.05l-.06,0h-.06v.2l-.25.08-.26.11h-.25l-.26,0-.25,0h-.26l-.25,0-.26,0-.25,0h-.26l-.25,0h-.07l-.19,0-.25,0-.26,0-.26,0H436l-.26,0-.24,0h-.27l-.17,0-.17,0-.26,0-.26-.05-.26,0-.25,0-.26-.05-.26,0-.26-.05-.25,0-.26,0-.26,0-.26-.05-.26,0-.29,0-.25,0H430l-.26,0h-.51l-.08,0h-.55V702H428v.61h0l-3.14.06-.25.06h-1.27l-.34,0h-.26l-.26,0-.25,0H422l-.26,0-.24.06-.26,0-.25,0-.26,0-.25.05-.24.06v-.44l0-.64,0-1.09v-.55l0-.39V698.1l0-.63v-.14l0-.39,0-.62v-.11l-.13-3.37v-.27H424l.52,0h1.69l.38,0h.69l.54,0H428l-.12-3.4-.11-3.41-.11-3.4-.12-3.4h-6l-.55,0h-.56l-.58,0h-1.11l-.57,0h-.88l-.45,0h-2.16l-.53,0h-.53l-.59,0h0l-.53,0H412l-.69,0H408.5l-.55,0h-4.22l-.1,0-.1,0h-3.29l0-.36v-.87l0-.46v-.39l0-.4,0-.75v-.43l0-.46,0-.47v-.49l0-.42V672.7l0-.51v-.39l0-.38v-1.54l0-.58,0-1.24,0-.61,0-.6,0-.53v-.26l0-.18h-.55l-.53,0h-.55l-.64,0-.49,0-.56,0h-.84l-.42,0h-.92l-.4,0-.65,0h-.57l-.44,0h0l0,.16-.52,1.94-.17.65-.17,0-1.36-.36h0v0l.52-1.94.05-.17.05-.17h-.9l-.47,0-.75,0-.52,0h-.47l-.52,0h-6.08l-.38,0h-1.19l-.45,0h-.78l-.48,0h-.85l-.46,0h-3.1l-.44,0h-.6l-.27,0h-.08l-.44,0h-.33l-.67,0h-.19l-.44,0-.41,0-.85,0-.87,0-.48,0h-1.23l-.45,0h-.4l.06-.17,0-.09.19-.57.1-.33.08-.27.12-.43.1-.44.07-.41v0l.05-.45,0-.44,0-.45v-.45l-.26-8.25,0-.59v-.21h-1l-.49,0h-1.27l-.48,0h-1.28l-.4,0h-1.15l-.61,0-.65,0h-.55l-.63,0-.68,0-1.13,0h-.61l-.69,0h-.88l-.7,0-.61,0,0-.9,0-.81,0-.79,0-1.28-.11-3v-.15h-.42l0,0-.08,0h-.14l-.25,0-.1,0-.12,0h-.27l-.44,0-.47,0h-1.41l-.53,0h-.92v.67l0,.32v.78l0,.4v.82l0,.34h0l-1.72,0h0l0,.37v0l0,.42v.53l0,.41v.43l0,.48v.33l0,.5-1,0-.56,0h-.71l-.7,0h-.87l-.57,0h-.46l-.69,0h-1.28l0,.48,0,.33V656l0,.36v2.08l0,.33v1.87l-.74,0h-1.87l-.25,0h-.54l-1.52,0h-1.64l0,0-.18.13-.5,0h-1.22v-.2l0-.63v-.09l0-.63h-.26v-.34l0-.65v-.07h.25v-1l0-.65v-.07l0-.65v-.34l0-.64V655l0-.64v-.16h-.14l-.45,0h-1.11l-.68,0h-.41l-.46,0h-.39l-.51,0H324l-.52,0-.65,0H320.1l-.47,0h-1l-1.06,0-.62,0h-.39l-.66,0h-.43l-.49,0h-1.6l-.87,0-.35,0-.65,0-.7,0h-.37l-2.18,0-.79,0-.5,0-.93,0h-.23l-1.09,0-.6,0-.78,0-1.06,0-.73,0H301l-3.38.12-3.38.12h-2l-.49,0h-.38l-.85,0-.37-10.12h0l-.06-1.73-.07-1.63,4-.31.28,0,.41,0h.45l.51,0H297l.48,0h.35l.58,0h1.23l.5,0h3.39l.37,0h.42l.46,0,.5,0,.49,0,.46,0H307l.39,0h4.2l.49,0h.45l.54,0h.45l.55,0h.44l.54,0h1.8l.3.05,0-.65V640l0-.33,0-.59,0-.54v-.1l0-.46,0-.47v-.27l0-.75,0-.77,0-1.09,0-.48V634l0-.55,0-.57v-.7l0-.38v-.64l0-.55v-.25l0-.35,0-.63,0-.58v-.46l0-.64,0-.41v-.84l0-.49v-.38l0-.6v-1.1l0-.54,0-.41v-.76l0-.53,0-.39h0V620l0-.35,0-.63v-.51l0-.66,0-.36,0-.47v-.43l0-.38,0-.6,0-.39v-.34l0-.59v-1.13l0-.36V612l0-.48,0-.45v-3.66l0-.5v-2.23l0-.55v-3.21l0-.4V600h11.95v.6l.09,2.78v0l1.5,0h.22v.82l0,.59,0,.39v1.59l0,.4V609l0,.53v2.44l0,.4v.81l1.31,0h2.31l.87,0h.77l.74,0,.68,0h.73l.56,0h1.28l.49,0h.51l.54,0H343l.57,0v-.12l0-.72,0-.45,0-.34.24-.06,3.05-.07h1.61l.64,0h.17l.17,0H350l.53,0h3.65l.43,0h2.61l0-.4v-.6l0-.55v-.76l0-.45v-1.65l0-.46v-.88l0-.39v-.23l0-.41v-3.4l0-.43V599h3.46l.4,0h10l0-.47v-.87l0-.5,0-.58v-.58l0-.43,0-.63,0-.53,0-.58v-.35h0l0-.67v-.56l0-.53V591l0-.64,0-.73v-.47l0-.65,0-.8,0-.65,0-.64,0-.65,0-.56V585l0-.55,0-.61v-.37l0-.76,0-.52,0-.49v-.54l0-.52v-.89l0-.91v-.35l0-.52,0-.93v-.08l0-.89,0-1v-.09l0-.56,0-1.4,0-.79v-.12l0-.58V571l0-.42v-.62l0-.65,0-.71v-.47l0-.53v-.48l0-.88,0-.76,0-.75,0-.39v-.39l0-.56V563l0-.83v-.55l0-.72,0-.74v-.61l0-.75,0-.75v-.13h0l-.66,0-.63,0-.62,0h-.73l-.58,0-.51,0h-.21l-.53,0h-2.72l-.81,0h0l-.49,0h-.47l-.81,0h-.18l-.46,0-.62,0-.8,0-.95,0-.79,0h-.12l-.64,0h-.61l-.52,0h-.57l-.73,0h-.18l-.41,0-.72,0-.8,0-.78,0-.72,0h-.16l-.56,0-.6,0-.7,0-.61,0h-.1l-.65,0-.95,0h-1l-.45,0-.31,0-.33,0-.55.05H342l-.91,0-.93,0-1.46,0h-.19l-2,.06-1.13,0h-.22l-.87,0-1.07,0-1,0h-.26l-1,0-1.66.06-.65,0-.35,0h-.07l-1.12,0-1.7.07h-.21l-.78,0h-.53l-.75,0-1.34.05h-.53l-1.7,0-1.13,0h0l-1,0-1,0-.74,0h-.22l-.51,0-1.26,0h-.43l-1.31,0-.38,0-1.23,0h-.47l-1.23,0-.45,0-1.23.07h-.48l-.57,0-1.06,0h-.06l-1,0-.73,0H303l-1.53.05h0l-1.67,0h0l-1.7.05h0l-1.67,0h-.25l-.73,0-.71,0h-.44l-1.26,0h-.5l-1,0-.2,0h-.15l-.14,0h-1.44l-.74,0-1.26.06.05-.72v-.11l0-.49,0-.62,0-.46v-2l0-.68v-.54h0l0-.7,0-.54v-.86l0-.42v-.44l0-.49,0-.74,0-.39v-.44l0-.66,0-.73,0-.63,0-.65v-.48l0-.56v-.35l0-.52,0-.61,0-.81v-.23l0-.66,0-.8v-1.4l0-.66v-.35l0-.66,0-.59,0-.83,0-1v-.18l0-.53v-1.36l0-.65L287,533l-.05-.7,0-.55,0-.84v-.75l0-.59,0-.48v-.46l0-.35,0-.19v-.93l0-.39,0-.34v-.31h0v-2.09l0-.73,0-.6v-.39l0-.72,0-1,0-1.07v-.27l0-1v-.82l0-.66,0-.48,0-.8,0-.36v-.39l-.06-1.22v-.34l0-.35,0-.35,0-.46v-.13l0-.69v-.84l-.06-1.18,0-.66,0-.59,0-.72v-1.18l0-1v-.33l-.08-3.09-.07-3.18-.08-3.27,0-1.85v-.52l0-.84,0-.78v-.57l0-.46v-1.62l0-.69v-.48l0-.58v-.53l0-.5,0-.61h0l-.72.05h-1.22l-.5,0H281l-.36,0H278.7l-2.58.08-2.5.08-2.21.08-3,.09-.73,0-.85,0-1.66,0-1.64.05-1.74.06-3.4.11H256.6l-1.64.05-3,.1-.45,0-3.41.11-2.62.09-.35,0h-1.33l-.71,0-.67,0-.62,0-.34,0h-.87l-.66,0-.51,0h-.81l-.72,0h0l-.59,0h-1l-.56,0-.56,0h-.77l-.42,0h-.38l-.8,0-.78,0-.71,0h-.29L230,487h-1.3l-1,0-.5,0-1.72,0h-.19l-.66,0h-.67l-1,0-1.74,0h-.33l-2,.06-.89,0h-.54l-.64,0-1.13,0h-.45l-.53,0h-1.15l-.68,0h-.39l-1.91.05h-.1l-1,0-1.2,0-1.2,0-1,0-1.09,0-1.48,0h0l0-.51v-.15l0-.07,0-.09v-2l0-.33v-.69l0-.52v-.58l-.05-.43,0-.43h0v-.28l0-.64,0-.34,0-.25v-1.6l0-.31,0-.65,0-.29v-1l0-.65v-.35l0-.59,0-.77,0-.46,0-.68,0-.56,0-.44,0-.5,0-.4v-.37l0-.51,0-.58,0-.56v-.46l0-.54,0-.37v-1.32l0-.35v-.43l0-.28v-.95l0-.45v-1.13l0-.39v-1.15l0-.34,0-.51v-.27l0-.5v-.56l0-.51,0-.52v-.37l0-.68v-.37l0-.57,0-.56,0-.6v-.67l0-.61,0-.47v-.42l0-.42v-.35l0-.44v-5l0-3.76v-.41l.13-.05.23-.1.23-.11.25-.1.17-.07.34-.15.21-.09.21-.09.22-.1.21-.09.21-.09.21-.09.21-.09.21-.09.28-.12.28-.12.42-.18.24-.11.91-.39,1-.43h0l.53,0h4.42l.24,0h3.17l.28,0h.24l.41,0,1.22-.08h.69l.31,0h.74l.35,0h10.22l.36,0h.57l.32,0h3.86l.36,0H238l.38,0h3l.28,0H242l.31,0h0l.27,0h.32l.26,0H245l.44,0h1.09l.33,0h2.6l.48,0h14.52l.42,0h3.35l.48,0h1.71V427.64h0v-.34h0l-.08-3v0l-.08-3.41-.09-3.41-.09-3.4v-.64l1.49-.63.33-.15,1.69-.72,1.69-.73,1.36-.58.16-.07.15-.06,3.23-1.39,1.22-.52.3-.13.11,0,0-.55,0-1.24,0-.89v-.77l0-1.72,0-1.38,0-1v-1.08l0-2.36V397l1.47,0,.57,0,2.64-.06h.44l2.92-.07H290v-.24l-.19-8.42v-.52l-.1-4.46-.06-2.65,0-.62-.07-3v-.51l-.08-3-.07-3.1,0-.76h-.17v-.13l-.09-3.26H289l-.1-3.43-.2-6.66v-.34l0-1.75,0-.52v-.85l0-.45-.2-6.63h0l-.06-2.87v-.77l0-.6v-.08l0-.58,0-.33,0-.59v-.08l0-.6v-.33l0-.65V338l0-.64V337l0-.64v-.08l0-.65v-.33l-.1-3.08v-.33l-.08-2.35v-.08l0-.64v-.34l0-.64v-.09l0-.64v-.33l0-.65V326l0-.65v-.26l-.09-3.14v-.34l0-.64v-.08l0-.65v-.34l0-.64v-.08l0-.64v-.34l0-.64v-.08l0-.64v-.34l0-.58v-1h-.57l-2.43.06h-.25l-.46,0-.74,0-2.21,0h-.45l-.92,0h-.83l-.85,0h-.8l-.93,0h-.65l-.92,0h-.47l-.46,0-.9,0h-.66l-.88,0-.51,0H270l-.82,0h-.35l-.5,0h-1.89l-1,0-2.23.06H263l-2.16.06h-1.07l-.86,0-1.63,0H257l-1.12,0-2,.05-.44,0h-.11l-.26,0-1,0h-.77l-1,0H250l-1.43,0h-.73l-1,0h-.69l-1,0h-.71l-1.05,0h-.68l-.92,0h-.74l-1,0h-.39v-1l0-.74,0-.6,0-.64,0-.39v-.38l0-.69v-1.94l0-.4v-3h0l0-.36,0-.3,0-.29v-.73l0-.44,0-.49v-.4l0-.42v-.37l0-.42v-1.05l0-.41v-.83l0-.49v-1.5l0-.56V297l0-.5v-1l0-.46v-.23l0-.6v-1l0-.43,0-.52,0-.49v-1l0-.56v-.65l0-.61v-1.5l0-.55,0-.48v-.6l0-.63-.11-3.64-.09-2.84-.09-2.84v-.59l0-1.05v-.08l0-1.75-.06-2V270l0-1.41-.05-1.64,0-1.74-.06-1.84,0-.72,0-1-.05-1.45v-1.95l0-.61v-.24l0-.44v-.41l0-.61v-1.5l0-.44v-.16l0-.93,0-.78v-.67l0-.46,0-.64,0-.69,0-.64,0-.68v-1l-.08-2.72-.11-3.39-.11-3.39-.08-2.69v-.69l-1.17,0H234.3l-.45,0h-4.62l-.59,0h-3.59l-.34,0h-2.93l-.46,0h-2.48l-1.61,0h-.43l-1.27,0h-.43l-1.28,0h-.4l-1.31,0h-.38l-1.33,0H210l-1.3,0-.79,0-.91,0h-7.47l-1.92.08-2.52.12,0-.93v-2.56l0-.84V227l0-.5v-2.58l0-.52V219.2l0-.35V210.9l0-.47v-5.65l0-.43V200l0-.64v-2.05l0-.34v-1.67l0-.75,0-.34v-.39l0-.92-.05-1.61v-.89l0-.74v-.42l0-.53,0-.6v-.46h-.84l-.86,0h-.5l-.35,0H191l-.74,0h-.48l-.37,0h-.85l-.53,0h-.49l-.68,0-.71,0h-.36l-.63,0-.71,0h-.15l-.42,0h-1.28l-.85,0h-1.22l-.48,0v-.59l0-.59v-2.23l0-.58v-.37l0-.32v-.05l0-1.23v-.46l0-.35H177l-.39,0h-1.36l-.37,0h-3.27l-.36,0h-1l-.4,0h-6.35l-.53,0h-6.08l-.39,0-.33,0h-.59l-.37,0h-1.79l-.56,0h-.81l-.35,0h-1.58l-.48,0-.55,0-.53,0-.59,0h-.48l-.53,0-.43,0h-.49l-.5,0h-.5l-.53,0-.5,0-.6,0-.52,0h-2l-.63,0h-2.85l-2.23.07-1.5.06-.22-.27-.57-.6-.66-.61-.48-.5-.58-.66-.32-.46-.23-.4-.43-1.16-.23-1.16-.38-1.58-.29-1.05-.31-.83-.11-.4-.06-.22,0-.21v-.31l0-.1,0-.12,0-.2v-.08l0-.13v-.25l-.05-.16-.14-.26-.1-.21-.06-.14,0-.19-.18-.91-.24-1.29-.34-1.48-.21-.76-.16-.57-.79-1.65-.32-.66-.15-.45,0-.3,0-.5v-.89l.1-1,.18-.55.07-.23.12-.35.18-.4.14-.38.14-.42.06-.18.06-.18.05-.29.13-.45,0-.25,10.39-.41v-1.67l0-5.89-16,.55-.24-.25-.14-.24-.14-.28-.11-.28-.09-.25,0-.15,0-.31-.06-.23,0-.16-.05-.3,0-.33,0-.28v-.3l0-.32.05-.23.06-.13.35-.6.4-.77.29-.6.25-.55.23-.44.22-.69.23-.53.3-.66.18-.49.08-.18.27-.65.23-.61.24-.68.66-1.54.18-.75,0-.06.07-.83,0-.68.12-1.5.08-.47.2-.76.45-1.56L126,129l.08-.41.13-1V127l-.12-.6-.17-.77-.09-.74v-.71l.18-.75.16-.6.18-.45.45-1.17.11-.49.09-.42.05-.4v-.32l0-.26,0-.23-.12-.35-.27-.51-.19-.27-.53-.56-.25-.22-.28-.11L125,117l-.34-.06-.31,0-.21,0-.53.17-.11,0-.51.23-.59.31-.51.33-.77.67-.21.16-.19.12-.17.07-.17,0-.15,0-.25,0-.28-.07-.27-.1-.2-.08-.23-.13-.28-.17-.44-.32L118,118l-.33-.31-.2-.2-.16-.16L117,117l-.16-.2-.35-.5-.14-.26-.13-.29v-.07l-.53,0-.71,0-.52,0-1.26,0-.29,0-.8,0-.81,0-.87,0-.56,0-.49,0h-.74l-.5,0h-.53l-.56,0h-.48l-1.47.09-1,0-.4,0h-.16l-.53,0-.44,0-.52,0-.5,0h-.85l-4,.15-2,.08-1,0-3.77.15v8.46l0,5.09v.34l.08,8.12v.17l0,1.84v.19l0,1.52v1.55l0,1.94-1.18.17-3.06-.45,0,.11-.27,0h0l-.54-.1-.21,0-.14,0-.23,0-.14,0-.39-.07-.4-.07-.17,0v.1l-1.64-.28-1.4-.24-.3-.05-.94-.16-.9-.15-.51-.09-.78-.13h-.29l-3.38.1v.17l0,6.61,0,4.71v2.06L70,158h-.15l-2.34.06h-.42l-3.75.1h-.13l-1.24,0-.9,0h-.32l-2.29.06h-.39L57,158l-.61-.17-2.07-.56-2.82-.76-2.22-.6-3-.82h-.05l0,1.75-3.11-1-.3-.07h0l-.08-4.32,0-.7-.06-.69-.07-.69-.1-.69L42.3,148l-.14-.68-.13-.53-.19-.14-.09-.06-.49-.34-.31-.16-.19-.09-.36-.16-.22-.09-.33-.11-.33-.09-.34-.07-.16,0-.3-.06-.87-.2-2.07-.46-.4-.08v-.26l-.53-.08-.79-.1-.53-.07-.87-.12-.3-.05v3.46l0,5-1.61-.5-.32-.1-1.1-.36-.58-.2-.57-.16-1.35-.4-.31-.1V149l0-2.22v-3.24h0v-.7l-.74-.16-.6-.13-.7-.14-.8-.16-2.26-.51-1-.22-1.11-.21-.77-.16h0l-.11-3.35-.13-4.43,0-1.29-3.5,0v-3.78l-2.83,2.66L10.06,133H7.85l-.12-26.79,0-2.43v-.5l0-.93v-3l0-.84V95.23l0-1.13V87.25l0-.87V84.75l0-.62V80.65l0-1,0-.77v-.39l1.07-.07h.5l0-.21v0L9,77.67l.1-.57.1-.58.12-.58.14-.59.14-.57.15-.56.17-.57.18-.58.2-.59.21-.58.12-.31.11-.27.08-.2.16-.38.27-.59.28-.59L11.8,69,12,68.6l.11-.18.12-.23.17-.3.16-.29.13-.21.17-.29.17-.26.18-.29.18-.28.16-.24.05-.06h0l.25-.33.11-.14.42-.57.2-.27.51-.62.22-.25.33-.36h0l.17-.2.27-.28.13-.13.22-.23L17,62l.31-.3.35-.35.52-.51.35-.34.34-.33.07-.07L19,60l.58-.56.21-.2.29-.3.17-.16v0l.19-.19v.7l0,.27v2.61h6.82v1.41l0,.86,1.38,0h.12l1.2,0,2.33-.07,1.6,0h.23V64h.12v-.5h0v-.12l-.07-3.7v-.34l0-2.25V57l1.41,0,1.26,0,4.63-.13.45,0h.25l1.32,0h.06v-.26l0-5.5V50h0l.37,0h.24v.28l0,4.31.38,0V56.7l1.68-.05.67,0v0l3.13-.17.51,0,.62,0v0l.83,0v-.59l0-6v-.3l1.8-.09.88,0,.46.16,1.93.68,2.21.78.1,0v.32l4.49,1.6.57.22.56.25.59.28.51.27.54.3.25.15.41.25,1,.62v.25h.31V55.1l.3.19.33.2h0l1.39-.07v.49l0,5.1.43,0,.68,0v-.13l0-.82v-.16l.26,0h.23v-.17l0-.94h0l.32,0h.19l.51,0,.51,0,.38,0,.87.46.81.43.81.44.15.08,0,.1-.19.35-.11.21h0l0,0h-.16v1h0L70.68,62v.21l-3.55.17-.73,0h-.24l-.5,0-.71,0-1.06,0L60.05,59.8l-.59-.43V58.6l-1.26.06-1.05.06v.76l1.33.26,5,3.6.46,0,2.46-.12v1.89l3.33.6.83.15.16,0,.34.06.91.16.68.12.07,0,1.47.29,1.47.32.08-.07.43.09.35.08.51.12.6.11,1.16.29.3.07.84.22.62.16.77.21h0l1.34.4,1.07.32h.06v.31h0l.59.19v5.78h.47L86.81,75l2.76-.13.33,0h.35l0,.2.81,3,.11.38,2,7.24,1,3.73.3,1.08.61,2.23h0l1.42-.07v5.16l.55,2,.29,1,.49,1.8,0,.16h-.18l1.83,6.68h-.58l-.68,0-1.73.06h0v5.07l3.58-.13.44,0h0l0,.16.34,0h.21l-.09-.15h0l2.34-.09,1.84-.06,1.45,0v.48h.58l.49,0v-.32h.48v.49l.85,0h.22l.85,0h.19l.67,0h.2l.86,0,.81,0,.21,0h0l2.07-.08h.17l.53,0v-.83l.11-.54.08-.41.15-.65.1-.34.18-.39.42-.83.31-.43.13-.16.35-.42,1-.86.81-1.07.71-1.17.05-.07.51-.82.29-.32,1.71-1.93,1-1.12.32-.64.23-.55.07-.57,0-.55v-.87l-.27-1.19L124,96.74l0-.13-.48-1.23-.1-.33h0v-.64l0-.29.06-.38v0l.06-.29.07-.31V93l0-.31.1-.78.08-.29.16-.49.14-.38.11-.35.14-.5,0-.15.24-.66.16-.44,0-.19,0-.19,0-.46-.09-.57-.07-.31-.12-.49-.1-.24h0l.47.2.61.23.33.11.31.08.21,0,.46.08.37.06.35,0,.61,0,.68,0h1.27l.22,0,.19,0h.21l.35,0h.33l.19,0,.16,0,.24,0,.28,0,.17,0,.26,0,.28,0,.24,0,.35.07.32.06.21,0,.21,0,.25,0,.26.05.22,0,.24,0,.8.15.17,0,.54.11.62.12.63.12.47.09.52.1.44.09.44.11.17,0,.29.06h.08l.13,0,.17,0,.2,0H141l.15,0,.15,0,.28.05.12,0,.19,0,.14,0,2,.41,2.36.44.54.11.26,0,.54.11.23,0,.37.08.3.06.32.07.28.07.2,0,.3.06.25,0,1.25.18,1.65.3.75.14,1.18.22,14.33,2.66.3,0,.27,0,.06-.62V93.7l0-.2,0-.21,0-.35,0-.26,0-.14,0-.27,0-.24v-.12l0-.25,0-.28v-.2l0-.24,0-.27,0-.27v-.14l0-.39,0-.29h0l.05-.43V89l0-.24,0-.37,0-.31.05-.57.07-.74,0-.29v-.13l.06-.67,0-.28,0-.26,0-.41.05-.43,0-.27,0-.25,0-.26,0-.26,0-.3,0-.32.05-.47,0-.3,0-.26,0-.23,0-.3v-.16h0l.05-.53,0-.51.07-.74,0-.35,0-.41,0-.41.06-.52.08-.72.1-.75.13-1.09.05-.45,0-.38.07-.43.07-.44.08-.44.05-.24.21-1.11,0-.13V65.73h0V51.53l0-1.67h0V48.19h0V44.3h2.12v-.35h0v-.67h0l-.5,0V37.06h0v-.64h-1.62V33.8h0V30.7h0l.55,0h.48l2.1-.08h.5l1.23,0h.43l1.27,0h.41l1.16,0H181l1.29,0h.43l1.27,0h.44l1.23,0h.43l1.27,0h.45l1.19,0,.31,0h.19l1.25-.05h.54l.38,0h1v7h0V63.81h.17l1.11,0,.62,0,.11-.09v-1.1h5.87V63.7h2l.25,1.57v.08h3.25l0-.08V63.54h8.29l.19.27.14.21.13.2.11.16v0l.11.16,0,.06h0l.14-.1.38-.24.16-.1,3-1.93,3.62-2.34L226,57.45l.43-.28.37-.23.06,0,.21-.14L227,56.7l-.15-.12-.11-.1-.07-.07-.23-.24-.14-.14-.09-.11-.08-.09-.08-.09,0-.07-.09-.11-.11-.14-.06-.09,0,0h0l-.05-.07-.06-.09,0-.06-.15-.23-.12-.17-.06-.09-.06-.11-.14-.21-.39-.61-.1-.15-.11-.17-.13-.2-.11-.17-.08-.12-.18-.29-.13-.21-.14-.2-.12-.19-.2-.31-.18-.28-.06-.09-.15-.24-.15-.21-.12-.2-.15-.23-.11-.17-.14-.21-.18-.29-.17-.26-.17-.26-.14-.22-.07-.11-.07-.11-.08-.12-.14-.22-.16-.25-.18-.27-.08-.13-.11-.16-.06-.11,0-.06,0-.06-.05-.08-.05-.07,0-.05-.06-.1-.16-.26,0-.06h0l-.22-.34-.18-.27-.05-.09-.12-.18-.09-.14-.14-.22-.14-.2-.13-.22-.13-.2-.07-.1-.09-.15-.12-.18-.12-.18-.12-.19-.09-.13-.11-.17-.08-.13-.52-.82,1,0H219l.5,0h8.82l.64,0h1.9v-.28l0-.71,0-.21V40l0-.22v-3.5h2.07l.38,0H234v6.36h5.16l.18.49.17.41.07.19.11.26.09.23,0,.11.13.31.08.2.05.14.09.22.06.16.09.21.12.31,0,.11.12.29.12.31.06.14.11.29.09.25.13.31,0,.06,0,.08.06.15,0,.11.05.13.07.17,0,.12.1.26.09.25.09.21.09.24.07.17.06.14.06.15,0,.11.09.23.09.21.07.19.11.26,0,.05.08.2.08.22.07.19.08.2.08.21.08.2,0,.09.11.29.13.3.08.22.06.16.07.17,0,.05.13-.06.44-.28,1.06,2.72,0,.05,0,0,.41.24.21.13.26.15.18.11.1.06.1.06.06,0,.12.07.1.07.11.06.14.1,0,0H247l.15.09.16.1.1.07.18.11.15.09.14.09.1.06.12.07.11.07.12.09.15.08.14.09.12.08.75.45.19.13h0l.11-.21.1-.15.05-.09.07-.12.11-.17v0L250,58l-.16-.1-.05,0-.12-.07-.08-.06-.08-.05-.12-.07,0,0-.16-.1h0l-.17-.1,0,0-.14-.08-.06,0-.1-.07-.1-.06-.07,0-.13-.08,0,0-.17-.1-.2-.13-.18-.11-.08-.05-.05,0-.14-.08-.31-.2V52.66h0V51.8h0V49.49h8.07v.15l0,.85,0,.75v7.86l0,.17v.43l0,.28v0l0,.28,0,.07-.05.2,0,.15,0,.19-.06.2,0,.19,0,.13,0,.12-.06.25.34.2.37.21.46.27.19.12.16.1.19.12.21.13.19.12.2.12.23.14.18.11h0l.18.11.16.1.12.07.13.08.11.07.14.09.18.11.19.12.16.1.11.06.1.07.08.05.08,0,.1.06.16.1.09.06.09,0,.07,0,.08,0,.13.09.2.12.17.11.14.08.12.07.09.06.05,0,.1.06.1.07.14.08.07,0,.07,0,.19.12.21.13.17.11.14.09.12.08.18.12.12.07.14.09.13.08.06,0,.17.09.18.1.21.13.2.13.19.11.13.08.16.1.1.06.07,0,.2.12,1.43.89.14.12.57.36.58.35.14.09.13.08.17.11.28.16.15.1h1l5.57,0h16.24l9-.05h3.55l12.35-.15.86,0H319l.72,0,1.18,0h1l.38,0h2.9l1.14,0h.15l1.21,0h.49v-.68l0-2.75-.05-3.63,0-6.25v-.51l.13-10.73.16-2.11h0v-2l0-1.37V33l0-1.71V28.75l.5,0h.23l.51,0h.38l.36,0h.75l.55,0h.46l.59,0,.61,0,.63,0h1.21l1,0,.6,0,.7,0,.53,0h.59l.88,0,.8,0,.41,0h.06l.51,0h.54l.43,0,.44,0,.82,0,1.16,0h.38l.68,0h.39l.68,0h.29l.81,0h.4l1.81-.07h.4l.63,0h.12l.75,0,.89,0,.66,0h.27l.47,0h18.32l.18,0h5.62l-.61-.65-.21-.22-1.15-1.24L375,24.16l-.91-1-.57-1v0l-.16-.29-.4-.74v0h8.86l4.74,0h3l0,0v0l0,0v0l0,.07,0,0,0,.06,0,.08,0,.09v.06l0,.09,0,0,0,.06.07.1,0,.06.06.07.1.13.1.09.06.05h.06l.07,0,.07.08v0l.06.2,0,.07,0,.05,0,.06,0,.09,0,.13v.09l0,.08,0,0,0,0v0l.1.23.07.09.1.13.11.12.14.14.11.1Z" fill="none" stroke="#fbfcfc" stroke-miterlimit="10" stroke-width="2" fill-rule="evenodd" opacity="0.65"/><path d="M390.78,24.29c.15,0,.58-.05.65,0s0,.9,0,1.06a2.41,2.41,0,0,0,0,.71c.12.23.31.15.66.15-.61,0-.57-.13-.66.37a2.62,2.62,0,0,0,0,.79c.13.22.11,0,.33.14s.2-.21.33.23a.47.47,0,0,1-.07.42c-.13.1-.48-.09-.59,0a2.57,2.57,0,0,0,0,.62c.1.1.48-.09.59,0s0,.33.07.5c.17.34.53-.05.65.38.2.73-.43.21-.65.49a1.67,1.67,0,0,0,0,.59c.06.06.53,0,.65,0h-.65c.47,0,.53-.12.65.22a4.27,4.27,0,0,1,0,1c0,.13-.09.64,0,.72.35.32.47-.27.65.23a6.19,6.19,0,0,1,0,1.72c0,.5-.08.49.23.65s.42-.2.42.51v.8a1.48,1.48,0,0,0,0,.42c.14.39-.12,0,.23.23s.37-.18.42.42c0,.29,0,.59,0,.88a1.35,1.35,0,0,0,.13.78c.13.23.44.34.52.59s-.1.71,0,1,.19.23.65.23h-.65c.21.21.56.46.65.72s-.08.5,0,.59.47-.09.59,0,0,.62.06.88c.06.63.05.24.59.42a1.87,1.87,0,0,1,.72.65c.06.14-.1.47,0,.58s.24,0,.42.07.13-.06.23.07-.06.44,0,.58.49.5.68.69a2,2,0,0,1,.62.84c0,.13-.06.35,0,.43s.44-.09.55,0,.07.56.2.78a2,2,0,0,0,.48.48c.13.06.36,0,.46,0,.34.22.08-.2.23.23a1.48,1.48,0,0,1,0,.42c0,.68-.09.49.42.65s1.07.84,1.53,1.3V51c0,.76-.28,1.23-1.05,1.3-.51.05-1,0-1.55,0s-.55-.13-.65.33a5.16,5.16,0,0,0,0,1c0,.1-.06.52,0,.59s.51-.1.62,0,0,.82,0,1.07.35.58.65.88c-.58,0-.6-.13-.65.42,0,.29,0,.59,0,.88a1.24,1.24,0,0,0,.13.78c.25.42.45.37.52.85,0,.29-.11.72,0,1s.54.39.65.65,0,.62,0,.88c.05.55.08.42.65.42-.12.13-.59.45-.61.62s.25.3.36.43c.41.52.06.89.25,1.49.07.19.27.29.4.46s.15.23.25.58,0,.27.26.58.29.3.4.63c0,.06,0,.37,0,.42s.25,0,.32,0c.35.25.27-.19.33.42s0,1,0,1.5v1.34c0,.21.06.55-.07.65-.32.25-.46-.24-.58.23s0,.31.22.42c.46.23.37-.22.43.42,0,.48,0,1,0,1.46,0,1-.09,2,0,2.91,0,.41-.06.27.23.42s.28-.17.42.23a3,3,0,0,1,0,.84c-.16.46-.21-.06-.59.23a6.68,6.68,0,0,0,0,2.64c.13.27.52.4.62.68s0,.47-.23.59-.59-.18-.42.42.26,0,.58.23.07,1.2.07,1.53a3.93,3.93,0,0,1,0,.84c-.12.34-.21.23-.65.23l.9.91c.15.15.34.28.4.46s-.08.47.07.59.46,0,.62,0,.41.42.58.58l.81.82c.14.14.45.34.52.52s-.1.55,0,.65.55-.11.65,0-.1.51,0,.62,1.06,0,1.27,0c.69,0,.69,0,.69.65l.65-2c-.38.75-.8,1.49-1.13,2.26a4.34,4.34,0,0,0-.17,1.8c0,.61-.14.48-.46,1a1.43,1.43,0,0,0-.19,1v4.41c0,.1-.06.51,0,.58s.23,0,.42.07.1-.14.23.23a2.17,2.17,0,0,1,0,.57,4.19,4.19,0,0,0,0,1.12c.09.1.36,0,.5,0s0,.11.15.43c.18.59.87,1.09,1.34,1.56s.48.55,1,.62c.2,0,.63-.1.8,0s-.06.15.13.42-.14.11.33.23a2.53,2.53,0,0,0,.55,0c.56-.06.66-.24,1.08-.65a2,2,0,0,0-.65.8c-.24.86.37.2.65.5s0,2.06,0,2.4v4.42a7.18,7.18,0,0,0,0,2.07c.16.46-.06,0,.32.23s.19-.12.33.15-.14.83,0,1.15c.33.8,1.3.82,1.3,1.8,0,.34-.09.68.15.8s.41-.06.5,0,0,.5,0,.63c.14.31.63.64.89.89s.33.28.39.47-.08.48,0,.58.52-.11.61,0-.11.54,0,.65.55-.11.65,0,0,.56,0,.65l-.65-.65-.65.65a4,4,0,0,1,1.34,0c.24.12.37.51.62.61s.52-.09.65.07-.09.41,0,.52,0-.06.23.06c.42.22.23-.13.42.23.28.55-.23.23.42.42a1.41,1.41,0,0,1,.62.4c.44.36.85.26,1.43.26a2.48,2.48,0,0,1,.72,0c.24.08.36.38.59.52s.42,0,.71.13.31.26.46.39a3.86,3.86,0,0,0,1.45.85,10.31,10.31,0,0,0,2.78.06,1.1,1.1,0,0,1,.71.13c.2.11.32.43.53.52.39.18,1.07,0,1.53,0,.64.05.19,0,.42.42.1.21,0,.36.42.23s.2,0,.23-.46c0-.27,0-.56,0-.84v-1.37a6.15,6.15,0,0,1,0-1.66c.16-.47.27.06.62-.23.1-.08,0-.54,0-.72,0-.5-.08-.42.23-.58.46-.23.42.15.42-.58,0-.11.07-.65,0-.72a2.59,2.59,0,0,0-.88,0c-.47,0-.38-.07-.42.42a8.61,8.61,0,0,0,0,.88v-.8c0-.53,0-.5.5-.5.15,0,.71-.09.8,0s0,.62-.13.78-.44.36-.52.67.09.69,0,1-.36.39-.52.67a1.32,1.32,0,0,0-.13.78v3.58c0,.34-.14,1.46.07,1.63s.41-.09.51,0,0,.2.07.32,0,.26,0,.33.47-.1.59,0,0,.55,0,.72.06.44,0,.51-.25,0-.42.07-.15,0-.23.07.09.44,0,.55-.51-.09-.65.18c-.24.46.23.45-.42.5-.18,0-.78-.1-.88,0s.13.5-.15.65-.74-.14-1,0,.06.45-.14.65-.61,0-.78.13a1.19,1.19,0,0,0-.53.67c-.22.8.13.18-.5.51-.3.15.06.44-.15.65s-.4-.06-.5,0,0,0-.15.23.06.34,0,.42-.44-.09-.55,0,0,.53-.14.65-.44-.09-.55,0,0,.36,0,.5-.38.15-.72.15h-1.95a4.58,4.58,0,0,1-1.17,0c-.29-.1-.42-.51-.7-.63-.94-.41-.67.72-.67,1.28,0-.28,0-.56,0-.84,0-.48.08-.3-.23-.46s-.28.17-.42-.23a3.79,3.79,0,0,1,0-1c0-.47-.06-1,.65-.71.21.08.33.41.52.52a1.33,1.33,0,0,0,.78.13,16.14,16.14,0,0,0,3,0c.43-.09.68-.46,1-.78s1-.82,1.17-1.18c.09-.2-.06-.49,0-.68s.54-.37.58-.58-.38-.38-.49-.56,0-.59-.13-.71c-.22-.29-2.38-.11-2.83-.07-.65.05-.19,0-.42.42-.15.29,0,.19-.43.23s-1.09,0-1.62,0a13.83,13.83,0,0,0-1.44,0,1,1,0,0,0-.55.13c-.32.19-.43.4-.75.52s-.33,0-.68.26-.34.38-.39.81a3.93,3.93,0,0,0,0,1.57c.12.24.51.37.62.62a2.68,2.68,0,0,1,0,.8,3.54,3.54,0,0,0,0,.92c.12.34.21.23.65.23-.73,0-.65,0-.65.72v3.12a2.36,2.36,0,0,0,0,.65c.08.25.39.36.52.59.38.64.13,2,.13,2.8,0,.21-.05.49.07.59s.46-.09.58.06-.08,1.27,0,1.66.56.65.65,1.11c0,.21,0,.44,0,.65,0,.47,0,.38.33.75s.27.64.32,1.2,0,.19.42.43.23.1.23.58a5.22,5.22,0,0,0,0,1.37c.11.11.54-.1.65,0s0,.57,0,.72a1.18,1.18,0,0,0,.13.71c.12.2.44.31.52.52.2.46-.13,1,.13,1.43.12.2.44.32.53.53a2.21,2.21,0,0,1,0,.68c0,.21-.06.52.06.62.4.31.42-.25.59.23.07.22-.06.52,0,.75.14.54-.05.08.42.32s.09,0,.23.42.32.42.52.75.1.68.38,1,.3.31.4.63a1.36,1.36,0,0,0,0,.35c.11.13.25,0,.42.07.37.19,0,.05.23.42s-.08.11.07.23.41-.09.51,0,0,.37.07.58.39.37.52.59,0,.59.13.71.43-.06.59.07-.06.46.06.62.54,0,.66.1-.09.46.06.58.41-.08.52,0-.08,0,.07.23,0,.39.13.55.44.35.52.59c.23.73-.38.63-.88.59-1-.08,0-.69-.42-1.24-.12-.15-.43.06-.59-.06s.05-.44-.07-.59-.54-.17-.65-.07.1.53-.06.66a7.39,7.39,0,0,1-1.82,0c-.15-.12,0-.43-.07-.66a3.93,3.93,0,0,0-.37-.74,7.44,7.44,0,0,1-.81-1.62c-.07-.37-.14-.13.13-.5s.35-.25.34-.51a3,3,0,0,0-.54-1.07c-.19-.17-.36,0-.64-.11s-.36-.39-.59-.53a1.18,1.18,0,0,0-.71-.13c-.22,0-.61.07-.72-.06-.25-.33.24-.42-.23-.59a6.19,6.19,0,0,0-1.72,0l.65-.65c-.51,0-.71,0-1-.39s-.2-.8-.41-.91-.39.07-.5-.07.08-.47,0-.58a4.83,4.83,0,0,0-1.26,0c.19.19.55.43.65.68s-.09.44,0,.55.31,0,.5.07,0,.49.22.65.43-.05.55,0a1.36,1.36,0,0,1,.35.33c.11.1.28.22.33.36s-.09.43,0,.55.2,0,.33.06c.34.25.17-.18.32.23a3.11,3.11,0,0,1,0,1c-.1.29-.53.43-.65.72-.27.64.5,1.41.81,1.87a3.22,3.22,0,0,1,.49.73c.05.15-.07.37,0,.51s.11,0,.42.14.1-.09.23.15-.08.41,0,.51.48-.09.59,0,.05.23.06.42c.05.64,0,1.3,0,1.95a2.62,2.62,0,0,0,0,.56c.13.47-.11.14.23.32.17.09.32-.06.43.07s0,.46,0,.6a4.57,4.57,0,0,0,1.3,1.94l.65-.66c0,.69,0,.66.65.66s.65,0,.65.65a7.27,7.27,0,0,0,1.27-1.27c.3-.6-.24-1-.62-1.34.15,0,.57.05.65,0s-.11-.84,0-1.06c.19-.38.06,0,.51-.21.22-.12.14-.31.14-.65,0,.17-.06.56,0,.65s.51-.09.62,0a5,5,0,0,1,0,1.34c0,.38-.12,1.1.14,1.23s.35-.14.51.15a2.62,2.62,0,0,1,0,.74,11.28,11.28,0,0,0,0,1.3c0,.38,0,.32.19.61s.38.3.46.49-.06.47,0,.66.47.34.58.58c.3.61-.23.68.69.68l-.65.66c.72,0,.65,0,.65.71a12,12,0,0,0,0,1.47c0,.38,0,.32.19.61s.39.31.46.53-.12.44.15.58.37,0,.56.12a2.86,2.86,0,0,1,.59,1.41c.1.45-.09.26.23.43s.37-.26.42.42a1.77,1.77,0,0,1,0,.65c-.15.44-.07,0-.5.23-.27.14-.15.92-.15,1.3v-1.3c0,.11.07.58,0,.65s-.55-.11-.65,0,.1.5,0,.62-.51,0-.65,0c.12,0,.59-.06.65,0s-.11.54,0,.65.54-.09.65,0,0,.51,0,.65v5.24a1.6,1.6,0,0,0,0,.62c.12.24.49.36.6.6.3.66-.16.67-.64.67.12,0,.5-.07.59,0s0,.11.06.22,0,.34,0,.46.27.25.36.36.21.18.25.33-.06.42,0,.51.53,0,.66.14a4.77,4.77,0,0,1,0,1c-.18.48-.39-.06-.66.23-.08.09.06.39,0,.5-.13.26.08,0-.22.15-.48.25-.43-.19-.43.59a6.7,6.7,0,0,0,0,1.79c.17.47.35-.08.65.23.11.1,0,.71,0,.88a3.71,3.71,0,0,0,0,1c.13.16.53,0,.66.14s-.09.41,0,.51.2,0,.32.07.24,0,.33.07,0,.47,0,.58l.65-.65-1.3,1.3v-.65a3.91,3.91,0,0,0,0,1.08c.13.39-.12.05.23.23.17.09.31-.07.42.06s-.06.44,0,.59.29.27.39.39c.28.35.26.42.26.91.51-.51.59-.65,1.3-.65-.12,0-.5-.07-.58,0s0,.24-.07.42c-.18.34.16.09-.23.23a2,2,0,0,1-.49,0c-.4,0-.73-.12-.58.42s.42,0,.65.3-.19.93,0,1.16.53,0,.65.14c.24.31-.25.86.58.58.27-.08.51-.44.72-.65l-.84.85a1.11,1.11,0,0,1-1.11.45c.61,0,.65-.1.65.51a2.18,2.18,0,0,0,0,.57c.15.42-.05,0,.32.23s.2-.11.33.15-.07.39.07.5,1,0,1.23,0a1.26,1.26,0,0,0-.78.13c-.22.13-.34.44-.59.52-.42.14-.58-.23-.58.33s.22,0,.58.32c.15.12-.06.53.07.65s.39-.06.5,0c.26.14,0-.08.15.23.05.1-.07.35,0,.42s.37,0,.42,0c.32.17.23.14.23.65.51-.51.59-.65,1.3-.65-.2.21-.45.57-.71.65s-.5-.08-.59,0a2.33,2.33,0,0,0,0,.59c.13.15.53,0,.65.13s-.1.49,0,.59.47-.09.59,0,0,.52.13.65.49-.1.59,0-.09.47,0,.58.52,0,.65.14-.1.48,0,.58.47-.09.58,0,0,.25.07.42c.2.39-.16,0,.23.23.09,0,.35-.07.42,0s-.09.47,0,.58.62.05.88.07c.81.07,0,.09.42.59.18.23,1.5.06,1.89.06s.63,0,.94,0c.55,0,.43-.07.43-.65v1.3c0-.13-.08-.53,0-.61s.36,0,.5,0,.15-.62.15-1,.08-.86-.07-1-.48.1-.58,0,0-.54,0-.65c0,.68,0,.65-.65.65.25-.26.92-1.06,1.3-.58.19.24,0,1.41,0,1.73,0,.58,0,1.15-.64,1.44-.17.07-.56-.07-.66,0-.29.32.23.45-.23.62s-1.23-.2-1.73,0c-.25.09-.37.5-.61.61s-.58-.05-.69.07,0,.5-.11.67-.77.26-1,.51-.17.92-.17,1.39.08.53-.15.65c-.48.25-.45-.25-.5.42s0,1.08,0,1.6v3.34a.84.84,0,0,0,.19.7c.22.31.38.33.46.68s-.23,1.5,0,1.73.53-.09.65.07,0,.73,0,.9a7.58,7.58,0,0,0,0,1.65c.13.53.53,1,.64,1.51s0,.16.5.43c.3.15-.06.44.15.65s.53-.09.65.07,0,.39,0,.51.12.15.19.26c.24.34.36.34.46.69,0,.08-.06.36,0,.42s.4-.05.51,0c.29.15-.06.39.14.62s.51-.1.66.18c.25.48-.25.36.32.5a4,4,0,0,0,.91,0c.15,0,.63-.08.72,0s0,.34,0,.43c.2.37-.13,0,.23.22.08.05.35-.06.42,0s-.05.34,0,.43,0,.14.07.23.44-.1.55,0,0,.51,0,.68a1,1,0,0,0,.19.81c.29.41.95.72,1.11,1.18s0,.46.2.77.35.36.45.69,0,.34.26.68a1.29,1.29,0,0,1,.39.72,1.34,1.34,0,0,0,.4.72c.29.36.14.33.26.76.07.28.28.36.45.61s.07.42.2.77.43.39.57.64,0,.64.08.73.54-.09.65,0-.07.88,0,1.13.22.32.39.53c.29.36.14.33.26.76s.75.9,1.11,1.26.66.79,1.27.84c.31,0,1.38.12,1.53-.07s-.09-.41,0-.51.08,0,.23-.07c.43-.22.42.18.42-.5,0-.18-.1-.71,0-.8s.5.14.65-.15-.06-.6,0-.83c.16-.63.14,0,.58-.32.22-.18,0-1.12.2-1.44a4.29,4.29,0,0,1,1.24-1.17,6.34,6.34,0,0,1,1.74,0h6.62a7.68,7.68,0,0,1,1.66,0c.41.11.33,0,.33.5v4.09c0,.28,0,.57,0,.85,0,.47.08.31-.27.42a7,7,0,0,1-1.83,0h-7.41c-.19,0-.8-.08-.91,0a7.15,7.15,0,0,0,0,1.85c.12.15.67.06.91.06h2.35a35,35,0,0,0,6.4-.1l2.31-.47.44-.08c.46,0,.47,0,.61.23.23.42-.17.26.22.42a3.62,3.62,0,0,0,1.09,0,4,4,0,0,1,1,0c.36.12.17-.11.27.33a2.77,2.77,0,0,1,0,.91c-.09.11-.3.07-.49.07-.4,0-1.73-.23-2,0s.06.46-.08.61-.51,0-.68,0h-9.79a9.08,9.08,0,0,0-2.27,0c-.3.08-.15-.08-.28.15s0,.53.12.74a4.31,4.31,0,0,1,.53,1.71c0,.82.09.65.88.65h1.73c-.32,0-.54-.07-.65.15-.29.55.15.38.32.51s.24,0,.33.06-.08.41,0,.52.31.07.5.07h3.4c-.12,0-.57-.07-.65,0a3.53,3.53,0,0,0,0,.65c.14.14,1.09,0,1.3,0H477a8.83,8.83,0,0,0-1.26,0c-.48.07-.61.28-1,.65,0-.57.07-.74-.58-.65a6.67,6.67,0,0,0-1.05.32,6.33,6.33,0,0,1-2.29.33H469.6c-.62,0-.69-.15-.69.5v4.67c0,.5.18,1.8-.16,2s-1.11,0-1.43,0h-1.05c-.19,0-1.11-.13-1.25,0s.18,1,0,1.24-.27,0-.43.06c-.34.18-.11-.12-.23.33a5,5,0,0,0,0,.55c0,.42.09.31-.22.43s-.92-.16-1.08,0,.1.52,0,.62-.52,0-.65,0h-1.23a1.61,1.61,0,0,0-.49,0c-.4.14,0,0-.23.42s.06,0-.33.23-.16-.23-.32.23a2.18,2.18,0,0,0,.06,1.07c.13.1.48-.09.59,0a2.65,2.65,0,0,1,0,.63,4.68,4.68,0,0,1,0,1.24c-.12.14-.32,0-.5.06s-.13.1-.15.43,0,.74,0,1.11v4.83a2,2,0,0,0,0,.65c.15.29.18,0,.5.15s.15.86.15,1.23v6.55c0,.71.07.68-.65.68.52.52.65.64.65,1.37v3.42a4.71,4.71,0,0,0,0,.84c.08.39.32.41.52.76.11.18,0,.58.13.71s.49.07.72.07c.47,0,.43.06.58-.23.24-.46-.14-.43.58-.43.53,0,1.08,0,1.6,0s.2,0,.43.43c.12.23-.07.11.14.23s.43-.09.51,0a5.83,5.83,0,0,1,0,1.72c-.17.45-.24-.05-.59.23-.06.05-.15.55-.05.65s1.59,0,1.9,0h3.15a6.89,6.89,0,0,0,1.87,0c.45-.16-.05-.23.23-.58.1-.14.49-.07.72-.07s1.57-.2,1.81,0,.07,2.68.07,3.25.25,1.5-.42,1.31c-.33-.1-.23-.17-.23-.59,0-.22.07-.61-.07-.72a2.18,2.18,0,0,0-.51,0c-.11.09,0,.09-.07.23s.07.36,0,.43-.47-.09-.58,0,.06.5-.07.65-.34,0-.42,0c-.35.18-.1-.14-.23.23a5.82,5.82,0,0,0,0,1.72c.14.13.52-.09.65.07s-.05.78,0,1,.16.34.39.63c.07.08.22.16.26.25s-.09.47,0,.59.44.07.65.07c.43,0,.53-.11.65.22a6.26,6.26,0,0,1,0,1.73,6.19,6.19,0,0,1,0,1.72c-.12.33-.15.23-.58.23-.23,0-.62-.06-.72.07s0,1.5,0,1.82V333a6.85,6.85,0,0,0,0,1.81c.08.25.39.37.52.59a1.33,1.33,0,0,1,.13.78c0,.21.06.56-.07.65s-.39,0-.51,0-.2.16-.33.26-.29.33-.62.4a5.68,5.68,0,0,1-1,0,3.19,3.19,0,0,1-1.49-.13c-.66-.38-.53-1-.53-1.6v-3.42c0-.14-.08-.63,0-.71.3-.3.48.24.65-.23a2.43,2.43,0,0,0,0-.85c-.17-.46-.35.07-.65-.23-.08-.08,0-.58,0-.72,0-.72,0-.34-.42-.58-.3-.15-.23-.11-.23-.58,0-.23-.06-.62.07-.72.34-.27.44.24.58-.23.21-.7-.3-.21-.58-.42s.07-.52-.07-.65-.5.14-.65-.15a5.53,5.53,0,0,1,0-1.77v-1.67c0-.16-.09-.79,0-.9s.53,0,.65-.11,0-.66,0-.84c.06-.68,0-.17.5-.42s.15-2.62.15-3.23c0-.21.06-.58-.06-.68-.45-.35-.42.3-.59-.33-.07-.28.1-.64,0-.91s-.44-.38-.57-.63,0-.63-.08-.74-.79,0-.93,0H465.6c-.21,0-.5-.05-.59.07s0,.73,0,.91a3.46,3.46,0,0,1,0,.91c-.1.26-.44.39-.57.64a3.87,3.87,0,0,0-.09,1.53v1.77a1.9,1.9,0,0,0,0,.72c.12.26.51.39.62.65s-.09.44,0,.55.08,0,.22.07c.44.22.43-.18.43.5,0,.4-.13,1.31.15,1.45s.67-.18.5.42-.3-.05-.62.23,0,1.26.16,1.5.41.33.46.69-.06.48-.33.74-.41.15-.75.33-.22.14-.22.62v3.32c0,.11-.06.37,0,.47.13.25,0,0,.22.15.09,0,.36-.07.43,0s-.06.39,0,.5c.14.28.32,0,.65.15s.46.46.63.63c.53.53.67.62.67,1.35a5.59,5.59,0,0,0,0,1.78c.16.3.43-.08.65.14s0,.64,0,.8a.81.81,0,0,0,.26.76c.09.12.29.23.36.36s0,.25,0,.36,0,.26,0,.33.44-.09.55,0,0,.46.08.67.53.38.63.63a2.39,2.39,0,0,1,0,.8v3.34a3.15,3.15,0,0,1,0,.92c-.11.23-.32.15-.65.15.2.2.56.44.65.69s-.09.78,0,1.12.46.45.62.76,0,.55.16.82.45.36.53.75a6.37,6.37,0,0,1,0,1.07c0,.11.06.51,0,.58s-.2,0-.33.07-.24,0-.32.07,0,.5,0,.62a2,2,0,0,1,0,.55c-.1.12-.27,0-.43.06s-.11-.06-.23.15a1.81,1.81,0,0,0,0,.57c0,.82,0,.32.51.59.24.12.15.46.15.8,0,.54.06.48.39.89.08.1.21.18.26.29s-.1.52,0,.62c.29.3.48-.23.65.23a4.26,4.26,0,0,1,0,1.07v1.16a1.82,1.82,0,0,0,0,.57c.12.33-.06.08.23.23s.28-.13.42.15-.08.39.07.5a4.6,4.6,0,0,0,1.23,0c-.17,0-1.2-.12-1.3,0s.17,1,.28,1.21a2.33,2.33,0,0,0,.33.67c.16.11.36,0,.54.07s.17.64.31,1,.34.89.58,1a4.71,4.71,0,0,0,1.56-.52,2.28,2.28,0,0,0,1-2.06,2.65,2.65,0,0,1-.5,1.64c-.32.48-.73.51-1.31.7-.74.25-.8.14-.8.92v1.62a3.29,3.29,0,0,0,0,.83c.16.3.43-.07.65.15s0,1.14.13,1.43.44.35.52.59c.17.49-.15.39.23.59.09,0,.35-.07.42,0s0,.33,0,.42c.17.31.16.23.66.23l-1.31,1.3c.48,0,.53-.12.65.23s-.09.7,0,1a1.5,1.5,0,0,0,.53.59c.16.1.69,0,.78.13s-.14.5.15.65.66-.09.92,0c.44.16,0,.2.23.65.09.24.47.48.65.66-.58,0-.61-.13-.65.42,0,.24-.07.77.07.88s.48-.1.58,0,0,.51,0,.58a1.49,1.49,0,0,0,.13.85c.11.19.39.29.49.49s0,.33,0,.45c.18.34-.12.05.23.23.16.09.32-.05.42.07s0,.45,0,.58.29.27.4.4.21.19.25.32-.07.49,0,.59.44-.09.55,0,0,.24.06.42c.12.38.47.5.64.86,0,.11-.05.34,0,.44.21.33-.13,0,.22.23s.32-.07.43.07-.09.48,0,.58.44-.09.55,0,0,.26.07.42c.18.35-.11.06.23.23s.28-.11.42.15-.07.41,0,.5.42,0,.55,0a1.65,1.65,0,0,1,.72.69c.05.12-.09.53,0,.62s.51-.1.62,0,0,.94,0,1.15a8.37,8.37,0,0,1,0,1.12c-.07.48-.28.62-.65,1,.35,0,.53-.08.65.15a3.42,3.42,0,0,1,0,1,8.06,8.06,0,0,0,0,1.77c0,.11,0,.27,0,.33s.43-.09.55,0,.06.49.06.72a1.74,1.74,0,0,0,0,.51c.09.12.2,0,.33.07s.23,0,.32.07,0,.44,0,.55-.06.58.07.68.44-.09.55,0,0,.3,0,.42c.1.36.32.41.52.76s0,.49.13.78a2.36,2.36,0,0,0,.63.63c.3.14.52-.12.67.17.05.1-.08.42,0,.5s.33,0,.42,0c.25.13.1-.1.23.15.05.1-.08.42,0,.5s.49-.16.65.15c0,.1-.08.41,0,.5s.48-.08.58,0,0,.53.11.65.73-.05.94,0c.42.11.32,0,.32.58v.79a6.91,6.91,0,0,0,0,.91c.07.45.2.4.46.78s0,1.34.34,1.5c.11.05.39-.08.47,0s0,.3,0,.42,0,.15.06.23.48-.1.59,0,0,.64,0,.8c0,.72,0,.26.5.5.22.12.15.33.15.65,0,.5-.08.49.23.66.46.24.42-.16.42.58v.79c0,.1-.06.44,0,.51s.2,0,.32.07.26,0,.33,0-.1.48,0,.59.53-.05.65.1-.09.44,0,.55.3,0,.42,0,.12-.07.23.15-.07.38,0,.47.3,0,.42,0c.36.19,0-.15.23.23s-.22.42.51.42c.2,0,.7-.07.8,0s-.06.36,0,.47,0,0,.22.14c.45.24.43-.14.43.59v1.69c0,.17-.1.8,0,.91s.53,0,.65.14-.09.77,0,1c.17.48.33-.09.65.23s-.2,1.43,0,1.81.47-.05.65.15,0,.67,0,.88c.06.7,0,.17.5.42.27.14,0,.49.22.65s.41-.08.51,0,0,.2.07.33,0,.26,0,.32.46-.09.58,0-.05.53.1.65.41-.08.52,0,0,.26.06.42-.1.1.15.23.39-.07.47,0-.1.51.18.65.41,0,.76.26a8.15,8.15,0,0,1,.72.72c.34.36.13.39.33.75.08.14,0,.15.07.23s.47-.1.58,0-.14.5.15.65a3.35,3.35,0,0,0,1,0c.16,0,.71-.09.8,0a2.59,2.59,0,0,1,0,.88c0,.52-.06.41-.39.82s-.26.35-.26.84v5.27a1.63,1.63,0,0,0,.08.74c.16.29.48.39.57.71s-.1.66,0,.93.22.23.65.23c-.21,0-.55-.06-.65.07a1.45,1.45,0,0,0,0,.55c.09.09.3,0,.42,0s.15,0,.23.07-.08.41,0,.51.53,0,.65.14-.08.41,0,.51.09,0,.23.07.36-.07.43,0-.09.47,0,.58.51-.06.65.07-.15.5.15.65a5.84,5.84,0,0,0,1.77,0c.13-.12,0-.53.1-.65a3.08,3.08,0,0,1,.91,0c.11,0,.26,0,.32,0s-.08.44,0,.55.53,0,.65.1,0,1.46,0,1.77.09.66,0,.76-.5-.09-.65.19c-.25.48.24.35-.32.5a4.31,4.31,0,0,1-.95,0,3.07,3.07,0,0,0-1.46.13c-.29.16-.37.44-.67.52-.1,0-.4-.07-.47,0s0,.3,0,.42,0,.15-.07.23-.45-.09-.55,0,0,.54,0,.72v1.82c0,.14.09.64,0,.72-.32.32-.47-.25-.65.23a6.18,6.18,0,0,0,0,1.72c.15.14.53-.09.65.07s-.08.77,0,1c.17.46.24,0,.59.23.13.11.07.47.07.69,0,.5-.08.46.23.62.08,0,.35-.07.42,0s-.06.39,0,.5c.15.28.44-.06.65.15s-.15.5.15.65c.1.05.38-.08.47,0s0,.3,0,.42,0,.15.07.23.44-.09.55,0-.06.54.06.65c.36.32.62-.34.62.33,0,.42-.09.32-.5.32h-.83c-.34,0-.5-.07-.62.15-.32.61.28.39.5.5.55.29-.07,2.53.15,3.19.09.26.44.39.57.64a1.59,1.59,0,0,1,.08.73v.72c0,.74,0,.35.42.58.3.16.23.12.23.59a1.87,1.87,0,0,0,0,.75c.12.24.51.37.61.62s-.06.31,0,.42c.17.31-.07.07.23.23.09,0,.36-.07.42,0s0,.33,0,.42,0,.15.07.23.44-.06.58,0,.38.5.62.61.58-.05.69.07-.09.44,0,.55.08,0,.23.07.3,0,.42,0,.23.24.32.33c.38.33.3.18.75.32s.38.24.69.46a.82.82,0,0,0,.69.19c.2,0,.7-.07.8,0s-.14.46.15.62a3.79,3.79,0,0,0,1,0c1,0,2.22.31,2.76-.69a6.63,6.63,0,0,0,.38-1.55l.6-2.39.31-1.24L529,468.7a5.73,5.73,0,0,1-.2,1.61,3.43,3.43,0,0,1-1.3.68c-.22.05-.5-.06-.7,0s-.37.51-.61.62c-.52.21-1-.15-1.5.19-.33.23-.33.37-.69.46a5.09,5.09,0,0,0-.66.12,4.21,4.21,0,0,1-1.71.53c.26.26,1.06.93.58,1.3s-1.32-.21-1.73,0,.06.44-.15.65-.53-.08-.65.07.09.44,0,.55-.24,0-.33,0-.24,0-.33.07,0,.42,0,.52v3.25c0,.19-.06.63,0,.72.36.33.45-.25.62.23a3,3,0,0,1,0,.84c-.13.35-.18.23-.66.23a2.43,2.43,0,0,1,.66,0c.1.11-.1.51,0,.62s.93,0,1.15,0a4.53,4.53,0,0,0,1.22,0c.4-.15,0,0,.23-.33s-.27-.17.33-.33c.36-.09.81.17,1-.14a3.9,3.9,0,0,0,0-1.23,4.6,4.6,0,0,0,0-1.23c-.11-.11-.54.11-.65,0s0-.52,0-.65l-.65.65c0-.29,0-.59,0-.88-.07-.83-.08,0-.58-.42-.21-.16-.07-1.3-.07-1.63,0-.17-.1-.79,0-.91s.49-.07.72-.07c.71,0,.34,0,.58.42s.15.23.65.23H523c.11,0,.51-.06.58,0s0,.24.07.43-.1.1.15.22.39-.07.5.07-.06.44,0,.59.25.23.33.32c.27.29.57.57.85.85s.57.44.69.7,0,.6.23.73.87-.17,1.09,0,0,.26.07.42c.2.38,0,0,.32.23.13.09.25,0,.33.07s-.1.48,0,.58.47-.09.58,0,0,.24.07.42-.09.76.07.89.44-.1.55,0,0,.43,0,.58a2,2,0,0,0,0,.49c.13.35-.09.06.23.23.12.06.34-.07.42,0s-.1.52,0,.62.47-.09.59,0,0,.16.06.32,0,.27.09.41.42.32.53.53-.1.55.18.69c.12.06.42-.08.51,0s-.1.51,0,.62.36,0,.5,0,0,0,.15.23-.07.31.06.42.48-.08.59,0-.09.44,0,.55.23.05.42.07.64,0,1,0c.62,0,.58,0,.58.58v.95a4,4,0,0,0,0,1c.12.29.55.45.65.75s-.14.81,0,1.09,0,0,.23.14c.41.22.27-.19.42.23.09.25-.15.85,0,1s.3,0,.43,0c.43.22-.07-.1.22.32.2.27-.11.19.15.33a1.74,1.74,0,0,0,.51,0c.13,0,.49-.08.58,0s0,.31.07.5.38.15.72.15c.1,0,.51.07.58,0s-.09-.47,0-.58.26,0,.42-.07c.34-.18.05.12.23-.23.06-.12-.06-.34,0-.42a2.15,2.15,0,0,1,.62,0c.2.2,0,1.71,0,2,0,.69.06,1.42,0,2.11s-.17.06-.62.42c-.09.08,0,.31,0,.43-.22.43.1-.07-.33.23-.27.19-.18-.12-.32.14s.08.41,0,.51-1-.26-.65.5c.14.26.49,0,.65.22s-.19.92,0,1.16.62.05.88.07.35-.05.42,0a3.21,3.21,0,0,1,0,.62c-.32.32-.65-.35-.65.33s.29.17.69.36.42.52.76.61c.53.15.46,0,.88.38.25.25.7.54.85.85s0,.59.22.73.41-.07.51,0-.09.44,0,.55.23,0,.42.07c.38.2,0,0,.23.32.09.13-.05.24.07.33s.48-.1.58,0-.09.47,0,.58.23.06.42.07.64,0,1,0a2,2,0,0,1,.55,0c.11.1-.07.46,0,.58s.52,0,.65.22,0,.38,0,.52a2.2,2.2,0,0,0,.5.51c.2.11.69,0,.78.16s-.08.44,0,.55.32.07.51.07.69-.08.8.06-.1.49,0,.59a2.49,2.49,0,0,0,.61,0,1.42,1.42,0,0,1,.46,0c.37.13.07-.09.23.23s-.07.31.07.42.47,0,.61,0,.46-.07.55,0,0,.23.07.42c.19.35-.1,0,.23.23.1.07.34,0,.46,0,.37.19.43.54.84.62.22,0,.94-.14,1.08,0s-.09.47,0,.58.16,0,.32.07a2.44,2.44,0,0,0,1,0c.32-.16.43-.53.77-.62s.8.13,1.12,0,.41-.54.68-.65.46.09.59,0,0-.32.06-.5.49,0,.65-.22-.09-.5,0-.58.47.09.59,0,0-.26.07-.43c.19-.36-.19-.07.22-.22a3.91,3.91,0,0,1,1.08,0c-.14,0-.53.07-.62,0s0-.37,0-.51-.63-.15-1-.15h-.1a3.9,3.9,0,0,1,1.08,0c.27.17.41.92.59,1.19a2.24,2.24,0,0,0,.67.73c.12.06.36,0,.46,0,.31.19.11-.13.23.32s-.09.69,0,1a5.87,5.87,0,0,0,.69,1c.14.19.38.78.6.88s.77-.1,1.07,0c.46.17,0,0,.23.33s-.12.19.15.32.41-.06.5,0a2.15,2.15,0,0,1,0,.62c-.17.15-.83-.09-1.07,0s-.07-.09-.23.23.18.21-.23.42c-.15.08-.32-.06-.42.06s.1.5,0,.59-.47-.09-.58,0,.06.42-.07.58-.31,0-.5.07,0,.14-.15.42,0,.09-.42.23a.89.89,0,0,0-.42.19c-.18.12-.3.39-.5.46s-.54-.08-.61,0a1.78,1.78,0,0,0,0,.65c.05.06.56,0,.65,0h0c-.7,0-.65,0-.65.65v1.31a5.06,5.06,0,0,0,0,1.23c.12.38.56.53.65,1,0,.2,0,.44,0,.65,0,.51-.09.26.23.42s.29-.1.42.15c.23.45-.22.35.23.5a8.86,8.86,0,0,0,2.52,0h1.22c.14,0,.52,0,.59,0s-.09.49.06.61,1-.21,1.24,0-.11.55,0,.66a2.58,2.58,0,0,0,.68,0c.11,0,.55-.07.62,0s-.11.54,0,.65,1.09-.22,1.3,0-.11.54,0,.65.52,0,.62,0a2.15,2.15,0,0,1,.62,0c.15.12-.07.51.06.65s1-.19,1.24,0-.06.43.07.58.38.07.58.07.56-.07.65,0,0,.32.07.5c.22.43.88-.13,1.23.15.14.11,0,.33.07.5s.1,0,.42.15.58.53,1,.65c.19.07.44,0,.62,0s.35.46.58.58.35,0,.46,0,.11-.09.23.06-.09.41,0,.52c.34.43.58-.29.65.49,0,.43,0,.87,0,1.3,0,.75,0,1.52,0,2.27.07,1,.25,2,.37,3a10.44,10.44,0,0,0,.33,2.24,7.15,7.15,0,0,1,.59,1.41c.06.46-.15,1.08,0,1.5s0,.2.42.23H589a6.46,6.46,0,0,0,1.39,0c.43-.11.29,0,.29-.65,0,.4.09.51-.16.65a4,4,0,0,1-1.25,0h-6.34a1.46,1.46,0,0,0-.84.13c-.19.11-.32.43-.52.52a2.17,2.17,0,0,1-.72,0h-11c-.45,0-.56-.11-.68.23s0,1,.13,1.07c.59.34,2.22-.21,2.8-.32a26,26,0,0,1,5.3-.33h3.69c.34,0,1.47-.2,1.72,0s0,1,0,1.15-.14,1.21,0,1.39.42-.06.58.07.07.38.07.58v4.2a4,4,0,0,0,0,.85c.16.46.21-.07.58.23.17.13.07,1,.07,1.3v3a7.52,7.52,0,0,1,0,1.5,6.13,6.13,0,0,1-.65,1.34c.11,0,.59-.07.65,0s-.11.54,0,.65,1.25,0,1.5,0a9.94,9.94,0,0,1,2.59.37,8,8,0,0,0,1.15.28c1,.11.31,0,.66.69.2.41.52.44.61.88a9.58,9.58,0,0,1,0,1.93v13.47a3.57,3.57,0,0,1,0,1c-.18.57.05-.06-.42.28-.11.08-.54.2-.23.59.1.13.44.07.65.07L590,583v-.65c0,.68,0,.65-.65.65l.65.65c-.64,0-.65-.07-.65.58v1.22c0,.47-.17,1.94.15,2.1s.39-.07.5.07,0,.49,0,.59a2.36,2.36,0,0,0,0,.65c.11.1.55-.11.65,0a1.42,1.42,0,0,1,0,.58c-.1.13-.3,0-.5.07-.36.1-.53.53-.87.65s-.88-.15-1.23,0-.51.53-.88.65-.29-.11-.42.15.07.39-.07.5-.49-.1-.58,0,.09.54,0,.65-.52-.1-.62,0,.1.47,0,.59c-.34.44-.65-.32-.65.57a1.7,1.7,0,0,0,.13.93c.11.19.44.31.52.52s-.07.46,0,.65.41.32.53.52a1,1,0,0,1,.13.55,2.36,2.36,0,0,0,0,.65c.14.4,0,0,.42.23s.09,0,.23.42c.08.27,0,.17.15.39a8.33,8.33,0,0,0,1.15,1.15l2-2-2,2-1.28,1.29c-.2.2-1.19.92-1.21,1.21s1.66,1.86,2,2a2.51,2.51,0,0,0,.82,0c.64-.05.18,0,.42-.42s.07,0,.5-.23c.23-.12.15-.3.15-.65,0,.5-.08.49.23.65.1.05.35-.07.42,0s0,.37,0,.42c.11.22,0,.14.07.23s.45-.09.55,0,0,.54.1.65c.31.25.45-.23.58.23s-.21.72-.58.43c-.16-.13,0-.44-.07-.66s-.48-.48-.65-.65v.65l-.65-.65c-.09.1-.65.52-.65.65s.54.54.65.66l.65-.66v0c-.19.2-1.08.92-.65,1.31s1.08-.43,1.3-.65l-.65.65c.71,0,.65-.06.65.65v1.37c0,.85-.07,1.75,0,2.59.12,1.06.52,2.09.63,3.14a22.06,22.06,0,0,1,0,2.44V723.15c0,.35.26,2.17,0,2.44-.09.09-.63,0-.76,0H575.07a5.32,5.32,0,0,0-2.55.28,5.2,5.2,0,0,1-2.6.37h-76.2a1.16,1.16,0,0,0-1.11.4c-.37.29-.57.25-1.06.25h-1.3c-.62,0-.71-.2-1.15-.65-.51.51-.59.65-1.31.65H465.07c-.4,0-2.48.22-2.67,0s0-1.19,0-1.51v-7.69a3.24,3.24,0,0,0,0-.88c-.15-.47.06-.08-.42-.28s-.7-.57-1.16-.66-.88,0-1.33-.1-1.47-.28-1.65-.55c-.51-.74.53-.56.65-.72s-.08-1.26,0-1.65.54-.65.66-1.09-.09-.66,0-1,.36-.39.52-.66a3.76,3.76,0,0,0,.13-1.62.94.94,0,0,1,.13-.59c.2-.34.43-.37.52-.75a27.37,27.37,0,0,0,0-3.14c.12-1.26.51-2.5.62-3.76.08-.79-.09-.68-.79-.68h-1.81c.58,0,.61.12.66-.43,0-.33,0-.68,0-1a4.17,4.17,0,0,0,0-1.17c-.12-.28-.56-.56-.78-.78a6.83,6.83,0,0,0-2-1.26c-.24-.12-.9-.31-1.06-.53s.05-.55-.2-.69a8,8,0,0,0-2.4,0,2,2,0,0,0-.49,0c-.36.13-.06-.08-.23.23s.08.32-.06.43-.52,0-.65,0c-.93,0-.21.1-.59.58-.17.22-.77,0-1.07.07s-.07-.1-.23.23c-.08.15.06.32-.07.42s-.45-.06-.58,0-.29.28-.38.38c-.25.25-.76.58-.9.9-.06.13,0,.32,0,.44-.19.36,0,.09-.43.23a1.32,1.32,0,0,0-.84.62c-.19.38,0,.57-.29.94a1.52,1.52,0,0,1-.4.4c-.13.05-.47-.09-.58,0s0,.23-.07.42c-.2.38,0,0-.42.23s0-.12-.23.23c-.08.16.06.32-.07.42s-.47-.1-.58,0,.11.54,0,.65-.47-.09-.58,0,0,.23-.07.42.14.1-.23.23a2.17,2.17,0,0,1-.57,0,4.43,4.43,0,0,0-1.15,0c-.33.13-.46.56-.8.65-.65.18-1.72-.3-2.31,0-.27.14,0,.05-.15.33s.19.17-.23.32a4.13,4.13,0,0,1-1.11,0c-.73,0-.54-.17-1.13-.52a2.15,2.15,0,0,0-1.11-.13h-3.65c-1,0-.16-.24-.62-.65a3.11,3.11,0,0,0-.61,0c-.11.12.11.54,0,.65a1.78,1.78,0,0,1-.65,0c-.06,0,0-.57,0-.65,0,.46.1.53-.23.65a5.72,5.72,0,0,1-1.6,0H422a4,4,0,0,1-1.15,0c-.31-.16-.07-.69-.15-1.07s-.46-.48-.63-.86a4.08,4.08,0,0,1,0-1.26v-6.1a4,4,0,0,1,0-1c.17-.32,1.64-.15,2.1-.15H427c.22,0,.79.08.88,0s0-1.08,0-1.3V680.44c0-.35.18-1.28,0-1.59s-1.52-.13-1.95-.13H416.5a2.82,2.82,0,0,0-1,0c-.56.28-.43.62-1.12.62H401.28c-.56,0-.63.15-.73-.33a11.89,11.89,0,0,1,0-2.31v-2.5a5.1,5.1,0,0,0-.13-2.15c-.31-.53-.52-.38-.52-1v-4.7c0-.64.06-.66-.59-.66H397c-.43,0-2.07-.19-2.28.07-.38.48.34.59-.58.59a4.42,4.42,0,0,0-1.31,0c-.33.19-.65,1.57-.71,2s.05.74-.66.58a3.45,3.45,0,0,1-1.18-.59c-.25-.35.38-1.54.53-2h-22.2c-.77,0-.57.3-1.2.61a2.34,2.34,0,0,1-.92,0c-.21,0-.44,0-.65,0-.41,0-.3.09-.42-.23a3.26,3.26,0,0,1,0-1.08c.09-.2.41-.33.52-.52s.1-.23.13-.55c.12-1.3,0-2.67,0-4V654c0-.65.07-.66-.58-.66H352.14c-.4,0-.31.08-.42-.23a9,9,0,0,1,0-2.37v-2.38a4.38,4.38,0,0,0,0-1.4c-.12-.22-.41-.13-.72-.13h-3.61a2.53,2.53,0,0,0-.55,0c-.44.11-.21-.12-.33.33a10.49,10.49,0,0,0,0,2.31c0,.59.11.58-.46.62s-.84-.23-.84.5v2.25a4.91,4.91,0,0,1,0,1.15c-.13.14-1.08,0-1.29,0h-4.64a4.58,4.58,0,0,0-1.17,0c-.06,0-.16.47-.06.59s.42-.06.58.06.07,1.77.07,2.19v2.37a4.5,4.5,0,0,1,0,1.16c-.14.26-.71.15-1.08.15h-4.71a1.29,1.29,0,0,0-.92.19c-.53.37-.42.46-1.11.46s-.65.1-.65-.51a4.16,4.16,0,0,0,0-1.22c-.12-.36.09-.07-.23-.23s-.29.22-.42-.23c-.19-.71.44-.22.65-.49s0-1,0-1.23c0-.61,0-.59-.39-1.05a1.17,1.17,0,0,1-.26-1,5.14,5.14,0,0,0,0-1.24c-.2-.22-2,0-2.37,0H325c-.72,0-.54.19-1.11.53a2,2,0,0,1-1,.12H304a8.74,8.74,0,0,0-2.45,0c-.27.12-.4.55-.67.66a4.86,4.86,0,0,1-1.32,0h-7.13c-.38,0-1.77.17-2,0s0-1.48,0-1.77V643.21c0-.28-.17-1.3,0-1.51s.27-.1.54-.1h7.34a4.6,4.6,0,0,0,1.23,0c.38-.16.46-.56.88-.65a12.62,12.62,0,0,1,2.38,0h12.95a3.84,3.84,0,0,0,1.22,0c.33-.17.15-1.7.15-2.18V629.3a1.25,1.25,0,0,0-.19-.91c-.38-.55-.46-.4-.46-1.11V609.69c0-.12.07-.49,0-.58s-.43,0-.58-.07-.07-1.77-.07-2.18v-4.75c0-.48-.18-2,.15-2.18a3.7,3.7,0,0,1,1.15,0h8.32c.42,0,1.82-.21,2.11,0s.18.91.22,1.11a12.32,12.32,0,0,0,.34,1.71c.16.45,0,.28.36.4.22.07.61-.1.81,0s.14-.06.21.42a15.36,15.36,0,0,1,0,2.25v1.21c0,.64,0,.6.4,1.08s.25,1.48.25,2.21a8.55,8.55,0,0,0,0,2.37c.09.24,0,.13.14.23s.63,0,.8,0h10.55c.41,0,2,.19,2.19-.07s0-1,0-1.23c0-.51-.11-.51.22-.65a4.72,4.72,0,0,1,1.5,0h10.61a4.13,4.13,0,0,0,1.11,0c.33-.12.12.09.23-.23a3.14,3.14,0,0,0,0-.75v-4.74a1.65,1.65,0,0,0-.13-.92c-.33-.57-.52-.43-.52-1.14V600.9c0-.38-.21-2.08,0-2.28a4.81,4.81,0,0,1,1.2,0h11.76c.65,0,.68.09.68-.58V579.32a1.88,1.88,0,0,0-.13-1c-.33-.57-.52-.4-.52-1.11V558.4a2.17,2.17,0,0,0,0-.57c-.12-.33.09-.12-.23-.23a4.72,4.72,0,0,0-1.3,0,3.91,3.91,0,0,0-1.08,0c-.17.07-.3.35-.45.46-.31.21-.21.14-.62.19a18.77,18.77,0,0,1-2.25,0H346.44c-.7,0-.55.2-1.1.52a5,5,0,0,1-2.15.13H326.65c-.39,0-2.07-.19-2.28,0s.11.52,0,.61-.45,0-.58,0H306.14c-.71,0-1.66-.18-2.21.26s-.3.34-.81.4-1,0-1.51,0H288.93a3,3,0,0,1-.73,0c-.35-.11-.17.1-.29-.23a8.62,8.62,0,0,1,0-2.38v-13c0-.58,0-.63-.32-1a1,1,0,0,1-.33-1V523.77a1.19,1.19,0,0,0-.39-1.08c-.44-.56-.26-1.48-.26-2.21V506.39a10.38,10.38,0,0,0-.09-2c-.18-.9-.47-1.84-.56-2.76-.14-1.45,0-3,0-4.42v-9.6c0-.38.21-2.08,0-2.28a4.82,4.82,0,0,0-1.2,0H278.8c-1.61,0-3.33-.15-4.94,0-.75.07-1.4.49-2.14.62a12.6,12.6,0,0,1-2.38,0H252.89c-.23,0-.68-.07-.79.07-.36.49.28.41-.28.58a5.57,5.57,0,0,1-1.47,0H233.87c-.71,0-.56.08-1.1.46s-1.56.19-2.25.19H211.59a6.3,6.3,0,0,0-2,.12c-.37.14-.71.44-1.09.54a6.08,6.08,0,0,1-1.28,0H205a3.05,3.05,0,0,1-.74,0c-.4-.13-.15.14-.28-.23a4,4,0,0,1,0-1.14v-7.1c0-.14.07-.53,0-.62s-.45.07-.59,0-.07-.81-.07-1.07V462.53c0-.2.13-1.12,0-1.27-.35-.43-.58.37-.65-.45,0-.4,0-.81,0-1.21V443a1.62,1.62,0,0,1,0-.44c.18-.46-.05,0,.33-.23s.12.17.32-.23-.16-.27.23-.42.78.13,1.09,0,.32-.39.51-.5.29-.05.55-.13.51-.48.86-.63.91.12,1.29,0,.45-.55.75-.65a5.14,5.14,0,0,1,1.24,0h7.09a6.2,6.2,0,0,0,1.14,0c.42-.09.5-.49.88-.65a7.91,7.91,0,0,1,2.38,0h16.47a10.49,10.49,0,0,0,2.31,0c.45-.12.16.1.33-.23s-.08-.31.06-.42,1.1,0,1.31,0h18.81c.61,0,.58,0,1-.4s.5-.25,1-.25h7.09a4.29,4.29,0,0,0,1.24,0,2.35,2.35,0,0,0,.07-1.08c-.17-.46.05,0-.33-.23s-.17.2-.33-.23a4.35,4.35,0,0,1,0-1.14V414.88a3.76,3.76,0,0,1,0-1.16c.12-.21.69-.35.92-.48.59-.35.07-.41.41-.86.14-.19.9-.3,1.14-.38l1-.32a18.71,18.71,0,0,0,2.34-.87c1.37-.69,2.84-1.14,4.23-1.79a5.34,5.34,0,0,1,1.1-.54c.66-.14.61.16.61-.65a4.09,4.09,0,0,0,0-1.21c-.11-.32-.54-.49-.65-.81a9.18,9.18,0,0,1,0-2.4V399.1c0-.27-.23-2.09,0-2.34s1.73,0,2.07,0h7c-.26-3.33-.65-6.67-.65-10V370.69a4.31,4.31,0,0,0,0-.95c-.12-.45.1-.17-.23-.33s-.29.12-.42-.13,0-1.07,0-1.4v-9.35a20.72,20.72,0,0,0,0-2.73c-.11-.71-.56-1.37-.66-2.08a16,16,0,0,1,0-2.08V340.76c0-1.69.15-3.46,0-5.14a25.14,25.14,0,0,0-.55-2.85,11.9,11.9,0,0,1-.1-2.39v-10c0-1.72.15-3.51,0-5.21,0-.51-.07-.5-.66-.42a13.23,13.23,0,0,0-1.38.34,9.28,9.28,0,0,1-2.51.31H268a29.31,29.31,0,0,0-4.87,0,13.59,13.59,0,0,1-2.59.63H242.41a8.74,8.74,0,0,1-2.45,0c-.32-.12-.19,0-.23-.42,0-.22,0-.44,0-.66V298.37c0-.74-.26-.54-.56-1.15a3.39,3.39,0,0,1-.09-1.32V283.07a24.77,24.77,0,0,0-.09-4.64,25.62,25.62,0,0,1-.56-2.85c-.08-.93,0-1.92,0-2.85V257.48a1.22,1.22,0,0,0-.25-1,1.19,1.19,0,0,1-.4-1.11V237.61c0-.85.34-2.16-.39-2.73-.58-.45-1.54-.26-2.28-.26H219.62a2.18,2.18,0,0,0-1.11.2,3.19,3.19,0,0,1-1.33.45c-.9,0-1.81,0-2.7,0H196.76c-.17,0-1.16.13-1.3,0a5.13,5.13,0,0,1,0-1.3v-6.44c0-.16.07-.45,0-.57-.16-.3-.34,0-.58-.15s-.07-2.09-.07-2.54V206.55c0-.26.09-1.11-.07-1.23s-.47.08-.58,0,0-.52,0-.68V189.11a4.16,4.16,0,0,0,0-1.22c-.14-.27-.86-.15-1.24-.15H183a3.32,3.32,0,0,0-.89,0c-.39.12-.1-.13-.28.23s.1.29-.15.42a2.54,2.54,0,0,1-.73,0c-.58,0-.42-.23-.42-.8v-1.38a7.24,7.24,0,0,0,0-2.42c-.28-.58-.59-.39-.61-1.07,0-.21.14-1.25,0-1.43s-2.09-.06-2.54-.06h-2.44a2.36,2.36,0,0,0-.65,0c-.43.14,0,0-.23.42-.16.29.08.12-.33.23a3.76,3.76,0,0,1-.75,0H155a4.29,4.29,0,0,0-1.24,0c-.2.08-.33.41-.52.52a1.07,1.07,0,0,1-.55.13c-1.71.15-3.5,0-5.21,0H134.72a3.86,3.86,0,0,1-1.13,0,5,5,0,0,1-1-1c-.28-.36-.1-.57-.29-.94a2.28,2.28,0,0,0-.58-.58c-.15-.07-.49.06-.62,0s-.16-.81-.26-1a4.3,4.3,0,0,1-.46-1.33c-.11-.82-.53-1.59-.65-2.41s-.65-1.49-.65-2.38a5.35,5.35,0,0,0-.28-2.52,2.52,2.52,0,0,1-.37-1.11,3.23,3.23,0,0,0-.19-1.32,3.85,3.85,0,0,1-.46-1.14c0-.38,0-.78,0-1.16a7.94,7.94,0,0,0-.52-1.56c-.16-.39-.54-.57-.72-.92a7.89,7.89,0,0,1,0-2.57,4,4,0,0,1,0-1.15c.16-.44,0,0,.42-.22.28-.15.19,0,.23-.43a5.65,5.65,0,0,1,0-1.3c.13-.37,0,0,.32-.23.07,0,.27.06.33,0s0-.37,0-.42c.18-.36-.11-.11.26-.25a4.66,4.66,0,0,1,1.12-.07l7.06-.44c.33,0,1.68.11,1.93-.12s0-1.2,0-1.6v-5.56l-16.28.65c0-.78-.16-.56-.52-1.18a2.77,2.77,0,0,1-.13-1.36v-1.3a4.84,4.84,0,0,1,0-1.37c.08-.21.41-.33.52-.52s0-.3.13-.55a2.49,2.49,0,0,1,.73-1c.48-.47.57-.5.57-1.15a2.36,2.36,0,0,1,0-.65c.09-.25.39-.36.52-.59s.11-.68.39-1c.13-.16.33-.27.39-.46s0-.47.06-.7c.13-.42.5-.79.6-1.22a7.48,7.48,0,0,0,0-1.42,5,5,0,0,1,0-1.22c.12-.46.52-.84.62-1.3s-.06-.85,0-1.26.4-1.08.55-1.62a10.35,10.35,0,0,0,.1-2.49,2.38,2.38,0,0,0-.13-1.2c-.36-.63-.52-.4-.52-1.18s.15-.54.52-1.17c.2-.34.14-.77.32-1.17a3.21,3.21,0,0,0,.46-1.33c0-.49,0-1,0-1.47a4.71,4.71,0,0,0,0-1.3c-.12-.15-.43.05-.58-.07s.06-.46-.07-.62-.46,0-.62,0-.31-.34-.49-.46a.78.78,0,0,0-1.1.07c-.17.13-.27.33-.46.39s-.44,0-.62,0-.35.46-.58.58-.49,0-.69,0a2.33,2.33,0,0,0-.52.52c-.1.17-.05.43-.13.55-.19.29.11.19-.42.23a2.25,2.25,0,0,1-.82,0c-.15-.12.06-.42-.06-.58s-.31,0-.51-.07c-.39-.11-.62-.52-1-.65s-.25.11-.43-.23.14-.23-.23-.42c-.08,0-.35.06-.42,0s0-.19,0-.23,0-.31,0-.42-.2-.19-.25-.26-.34-.27-.4-.46.08-.47-.07-.58-1.2,0-1.46,0a3.34,3.34,0,0,0-1.33.45,2.69,2.69,0,0,1-1.33.2H101.77c-1.68,0-3.63-.33-5.24.2a7.23,7.23,0,0,1-2.64.45H90.83c-.13,0-.76-.08-.84,0s0,1.39,0,1.67v21.62a2.5,2.5,0,0,0,.16,1.1,4.31,4.31,0,0,1,.49,1.41c0,.92,0,1.87,0,2.79,0,.6.15.67-.46.69A5.8,5.8,0,0,1,89,146c-1-.16-2-.38-2.92-.58v.65c0-.71,0-.65-.65-.65h-2.8a2.65,2.65,0,0,1-1.28-.41,5.76,5.76,0,0,0-2.62-.24,3.36,3.36,0,0,1-1.15,0c-.45-.22-.44-.53-1-.61a11.62,11.62,0,0,0-1.77,0c-.16,0-1-.13-1.15,0a8.29,8.29,0,0,0,0,2.28v9.78c0,.24.17,1.43,0,1.6s-.81,0-1,0h-2a13.23,13.23,0,0,0-2.67,0c-.43.1-.47.43-.88.62a2.78,2.78,0,0,1-1,0H60.86c-.68,0-2.18.28-2.81,0-.24-.12-.37-.51-.62-.62s-.47,0-.67,0a13.43,13.43,0,0,1-1.62-.55c-1-.3-2.07-.45-3.09-.65-.85-.17-1.63-.54-2.47-.76-1-.28-2.15-.43-3.21-.64v1.95L45,156.59c-.41-.16-1.58-.39-1.85-.74-.14-.18,0-.68,0-.92v-2.42a16.26,16.26,0,0,0,0-3c-.07-.34-.16-.33-.39-.63s-.21-.24-.26-.68.16-1.35-.07-1.53-.41.09-.51,0,0,0-.07-.23c-.23-.45.22-.36-.42-.42-.19,0-.69.1-.82,0s0-.53-.13-.65-1.14,0-1.37,0a4.86,4.86,0,0,1-1.62-.15c-.35-.11-1.33-.28-1.5-.57s.22-.42-.23-.58a3.79,3.79,0,0,0-1,0c-.51,0-1,0-1.56,0-.68,0-.46.27-.46,1v7.5a6.09,6.09,0,0,0-1.8-.65c-.57-.09-1-.56-1.6-.65a2.78,2.78,0,0,1-.82-.16,7.59,7.59,0,0,0-1-.49c-.33-.08-.51.11-.65-.14s0-.85,0-1.13v-5.61c0-.18.09-.76,0-.87s-.56-.06-.8-.06a.81.81,0,0,1-.75-.26c-.43-.34-.36-.35-.9-.39a13.91,13.91,0,0,1-1.91-.44,5.66,5.66,0,0,0-1.53-.22c-.71,0-1.44.18-1.84-.56a4.28,4.28,0,0,1-.08-1.72c0-.55,0-1.12,0-1.67-.12-1.3-.53-2.58-.64-3.88,0-.24.14-1,0-1.2s-.31-.08-.55-.08H16.36c-.21,0-1,.12-1.15,0s-.1-1.3-.1-1.66v-2.25l-2.59,2.6c-.63.63-1.42,1.86-2.3,2A6.19,6.19,0,0,1,8,133c-.12-.09,0-.06-.08-.23a8.22,8.22,0,0,1,0-2.27V78.92c0-.51-.09-.47.33-.58.22-.06.79.13.94,0s0-1.28,0-1.63.11-.36.4-.72a.93.93,0,0,0,.26-.84,2.22,2.22,0,0,1,0-.73c.12-.27.53-.4.64-.67.17-.44-.29-1.49,0-1.85.12-.16.51.06.65-.07s0-.7,0-.88c0-.71,0-.17.5-.42.23-.12.15-.36.15-.69A1.21,1.21,0,0,1,12,69.1c.19-.33.41-.41.52-.76.21-.69-.12-.09.5-.42.23-.12.15-.32.15-.65s-.08-.53.15-.65.42.08.5,0-.05-.4,0-.5c.16-.3.43,0,.65-.15s0-.7,0-.88c0-.59,0-.28.51-.42a1.28,1.28,0,0,0,.71-.57c.09-.17,0-.64.09-.74s.49.15.65-.14c0-.1-.08-.43,0-.51s.33,0,.42,0c.25-.13.1.1.23-.15s-.08-.41,0-.5.5.14.65-.15-.06-.44.32-.83.39-.12.75-.32c.14-.08.15,0,.23-.07s-.1-.48,0-.58.53.08.65-.07-.09-.45,0-.55.3,0,.42,0,.1.1.23-.15-.07-.39,0-.47.58,0,.65.11a5.78,5.78,0,0,1,0,1.81v.72c0,.56-.09.54.43.58,1.14.09,2.33,0,3.48,0h1.81c.16,0,.66-.09.76,0s0,.6,0,.8-.17,1.65,0,1.81a6,6,0,0,0,1.9,0c.48-.11.89-.55,1.37-.66a10.26,10.26,0,0,1,1.92,0c.44,0,1.46.21,1.83,0s.15-.68.15-1.05V59.34a8.25,8.25,0,0,1,0-2.22c.12-.35-.13-.12.2-.27a3.42,3.42,0,0,1,1.06,0h6.76c.16,0,.93.11,1.06,0s0-.18,0-.3a8.93,8.93,0,0,0,0-2.13V50.76a3.15,3.15,0,0,1,0-.92c.07-.14.5-.3.65-.12a5.7,5.7,0,0,1,0,1.37V54.9l.65-.65v1.82c0,.14-.08.69,0,.78s.85,0,1,0h3.63a2.45,2.45,0,0,0,1.41-.19c.3-.21.36-.36.68-.46.49-.15.43,0,.43-.58V51.83a6.2,6.2,0,0,1,0-2c.17-.34.8-.17,1.26-.17s1.12,0,1.67,0a7.47,7.47,0,0,1,1.82.5l1.52.51c.2.06,1.5.31,1.54.36s-.06.46.06.6.57.16.72.21l2.42.69a5,5,0,0,1,1.49.51c.43.31.39.4.84.53.19,0,.26,0,.41.08s.27.34.44.44.55,0,.82.16.49.5.69.7.43.52.8.57c.56.08.42-.19.42-.65,0,.71,0,.65.69.65a3.65,3.65,0,0,1,1,0c.37.12.22-.07.28.42a27.11,27.11,0,0,1,0,3c0,.37-.19,1.31,0,1.63s.73.29,1.07.17.19,0,.23-.42,0-.55,0-.82c0-.7-.08-.71.65-.71a5.07,5.07,0,0,1,3,.53c.32.19.77.48.89.84a.77.77,0,0,1-.07.58c-.37.29-.43-.23-.58.23s.16.89-.09,1.07-1.3,0-1.56,0c-1.15,0-2.33-.08-3.48,0-1.87.14-3.63.65-5.52.65a7,7,0,0,1-1.59,0,2.55,2.55,0,0,1-.89-.6c-.83-.67-1.71-1.29-2.5-2a3,3,0,0,1-.62-.62c-.07-.15.07-.49,0-.62s-1-.06-1.34-.06-1.12-.15-1.27.14c-.31.63.69.84,1.07,1,.78.41,1.51.92,2.26,1.38a22.71,22.71,0,0,0,3,1.89,1.56,1.56,0,0,0,.73.1c.39,0,1.65-.21,2,0s.07.9.07,1.17c0,.66-.13.64.34.85a9,9,0,0,0,2,.4,8.77,8.77,0,0,0,1.25.19,17.33,17.33,0,0,1,3,0c.46.1.84.53,1.3.65a11.16,11.16,0,0,0,1.53,0c.27,0,.34,0,.55.13s.32.43.53.52a5.23,5.23,0,0,0,1.53,0c.55,0,.9-.07,1.33.26.16.13.27.33.46.39s.7,0,1,0c1,.12,1.79,1,2.72,1.25.65.19.77-.18.77.64v1c0,1.26-.1,2.57,0,3.82,0,.53,0,.42.58.42h4.55c.46,0,.59-.1.77.23a7.26,7.26,0,0,1,.4,2c.14.69.29,1.35.48,2,.56,2.07,1.07,4.18,1.7,6.23.35,1.15.77,2.27,1.14,3.42.25.78.09,1.57.35,2.36.08.25.25,1.19.47,1.34.42.27,1.34-.25,1.78,0s.15,2,.15,2.6a15.09,15.09,0,0,0,0,2.69c.1.58.44,1.11.56,1.69s0,1,.06,1.44.52.85.64,1.31c.06.27,0,.58,0,.87.17,1.22.49,2.44.73,3.65l.53,2.68h-2c-.45,0-.43-.09-.55.2a4.76,4.76,0,0,0,0,1.41v1.71c0,.37-.17,1.7,0,1.89s.78,0,.92,0h1.51c.58,0,1.18,0,1.76,0a14.31,14.31,0,0,0,2.1-.6,9.57,9.57,0,0,1,1.93-.06h1c.93,0,.17.09.56.59a2.41,2.41,0,0,0,1.07.07c.39-.08.58-.35.88-.66,0,.52-.11.55.32.66a5.72,5.72,0,0,0,1.17,0h5c.68,0,.5.09.66-.43.11-.34.34-.42.52-.75a1.68,1.68,0,0,0,.13-.93,4.34,4.34,0,0,1,0-1.08c.09-.27.45-.51.65-.72s.56-.44.65-.69c.2-.51-.13-.44.32-.77.27-.2.75-.25,1-.49a5.08,5.08,0,0,0,.53-1.07,8.93,8.93,0,0,1,.9-1.67,1.84,1.84,0,0,0,.52-.85c.13-.4,0-.33.44-.61a16.13,16.13,0,0,0,1.67-1.17,5.8,5.8,0,0,0,1-1,1.21,1.21,0,0,0,.15-.81,1.09,1.09,0,0,1,.2-.84c.33-.47.46-.36.46-1a3.81,3.81,0,0,0,0-.83c-.1-.41-.45-.76-.58-1.16-.19-.61,0-1.2-.25-1.81a5.55,5.55,0,0,1-.46-.91,6.31,6.31,0,0,1,0-1.15V92c0-.15,0-.51,0-.59s.51.11.61,0-.06-.93,0-1.15.53-.47.66-.8a4.6,4.6,0,0,0,0-1.23,6.31,6.31,0,0,0,0-1.15c-.08-.39-.36-.58-.66-.88.62,0,.59,0,1.05.4a1.49,1.49,0,0,0,1.14.26,3.16,3.16,0,0,1,1.11,0c.23.12.34.47.58.58a1.54,1.54,0,0,0,.61,0c1.6,0,3.27-.14,4.86,0,.77.06.08.33.49.65a4.5,4.5,0,0,0,1.27,0,4.6,4.6,0,0,1,1.23,0c.38.14.5.56.92.65a13.26,13.26,0,0,0,2.44,0c.2,0,.49-.05.58.07s-.1.47,0,.58,1.12,0,1.3,0c.86.11,1.68.51,2.54.63s1.51-.05,2.25,0,.52.36,1,.62a3.62,3.62,0,0,0,1.19,0,9.93,9.93,0,0,1,1.22,0,4.91,4.91,0,0,1,1.22.5c.73.3,1.5,0,2.26.15.53.12,1,.55,1.52.69,1.69.45,3.49.64,5.2,1l6.81,1.24c.64.11,1.27.27,1.91.34l.34,0c.65,0,.5-.15.5-.72a8.65,8.65,0,0,1,0-2.54c.16-.37.57-.46.65-.88a7.06,7.06,0,0,0,0-1.3V86.74c0-.39-.25-2.32,0-2.54s.47.09.58,0,.07-.38.07-.58V80.06c0-.43-.2-2.15.07-2.37s.46.08.58-.07,0-.46,0-.58V73.2a1.81,1.81,0,0,1,0-.57c.15-.29.11,0,.42-.15s.08.15.23-.21a3.09,3.09,0,0,0,0-1V47c0-.41-.25-2.29,0-2.54a4.68,4.68,0,0,1,1.24,0c.67,0,.72.1.72-.58a1.81,1.81,0,0,0,0-.57c-.15-.29-.11,0-.42-.15s-.12.12-.23-.33a3.14,3.14,0,0,1,0-.75V37.28c0-.65,0-.61-.62-.61s-.69.09-.69-.62c0-1.59-.12-3.24,0-4.82.05-.56.13-.42.72-.42h6.38a1.16,1.16,0,0,0,1-.26,1.2,1.2,0,0,1,1.15-.4h9.73a4.67,4.67,0,0,1,1.24,0,5.21,5.21,0,0,1,0,1.31v31.9c0,.63-.12.61.46.65a4.83,4.83,0,0,0,1.42,0c.25-.19-.1-.87.07-1.16s.63-.14,1-.14h3.61a4.9,4.9,0,0,1,1.27,0c.22.18-.19,1,0,1.27s1,0,1.27,0c.48,0,.53-.06.8.24s.26.93.76,1.07a10.57,10.57,0,0,0,2.45,0c.66,0,.58,0,.58-.65a4.9,4.9,0,0,1,0-1.27c.21-.26,2.05,0,2.46,0h4.74a1.06,1.06,0,0,1,1.07.46l.84.85a2.32,2.32,0,0,1,0-.59c.1-.11.17,0,.33-.07.31-.13.38-.05.7-.28.71-.5,1.37-1.09,2.09-1.56,1.18-.78,2.57-1.24,3.8-1.94s2.09-1.74,3.2-2.49c.45-.3,1.27-.12,1.48-.76s-.92-.9-1.16-1.41c-.05-.12,0-.34,0-.44-.26-.42.22,0-.23-.23-.12-.06-.34.06-.42,0s.06-.47,0-.61-.55-.41-.65-.69c0-.12.08-.48,0-.58s-.45.07-.58,0,0-.47-.11-.68-.37-.3-.48-.49-.05-.26-.13-.45,0-.24-.07-.33-.5.1-.58,0,0-.39,0-.5-.11-.22-.26-.41-.33-.24-.39-.39.07-.37,0-.5,0,0-.23-.15c-.42-.21-.27.2-.43-.23-.08-.24.16-.81,0-1s-.26,0-.42-.06c-.37-.2,0,0-.23-.33-.08-.12.05-.24-.06-.33s-.5.1-.59,0,.09-.84,0-1.07.09-.06-.23-.23c-.12-.06-.34.07-.42,0s.09-.44,0-.55-.33,0-.5-.07-.15-.39-.15-.72c0-.07.06-.53,0-.58s-.5.09-.62,0-.06-.32,0-.42c.1-.37-.12-.11.23-.23a3.83,3.83,0,0,1,1.07,0h2c.48,0,.52,0,.87-.26s.4-.39,1-.39h7.16c.44,0,.59.11.72-.23a7.41,7.41,0,0,0,0-2v-3c0-.61,0-.58.58-.58h2c.45,0,.57-.12.69.22a4.34,4.34,0,0,1,0,1.08v2a.93.93,0,0,1-.33.91,1,1,0,0,0-.33.94c0,.42-.1.56.23.69a4.34,4.34,0,0,0,1.08,0h2.29a4.57,4.57,0,0,1,1.7.08c.92.48.28,1.16.56,1.87.12.28.56.42.66.72s-.17.95,0,1.17.51-.06.65.21-.18.9,0,1.12.3,0,.42,0c.32.16.1-.13.23.22a4.34,4.34,0,0,1,0,1.08c0,.11-.06.51,0,.58s.2,0,.32.07c.28.19.19-.12.33.15s0,.42,0,.57c0,.53,0,.52.32.91a1,1,0,0,1,.33.94,1.77,1.77,0,0,0,0,.46c.13.36-.08.06.23.22.16.09.32,0,.42.07s0,.5,0,.59l.65-.66.23,1.15A6.9,6.9,0,0,0,244.9,56c.22.34.35.07.73.26s.35.46.58.58.48,0,.69,0,.33.41.52.52.42.05.55.13c-.07,0,.22,0,.23,0s0,.35,0,.43c.19.37.09,0,.58.22.34.12.51.56.87.66.67.18.54-.4.5-.88-.05-.65-.28-.38-.88-.43s-.27.06-.42-.23c0-.08.06-.35,0-.42s-.4,0-.42,0c-1.06-.33-.88-1.22-.88-2.18v-4a2.91,2.91,0,0,1,0-.66c.1-.4,0-.28.42-.32,1.79-.15,3.64,0,5.44,0h1.3c.7,0,.65,0,.65.69v9.5c0,.27.16,1.26,0,1.46s-.43-.05-.58.07-.17.46-.07.58.3,0,.5.07.33.22.55.4a.86.86,0,0,0,.48.25c.46.15.25-.11.42.23s-.16.28.23.42.6-.09.85,0c.43.16,0,0,.22.43s0,.08.43.22.68.52,1.11.66.23-.14.42.23-.21.26.23.42a3.53,3.53,0,0,0,.65,0c.6.05.19,0,.42.42s0,0,.42.23,0,0,.23.42,0,.19.42.23c.2,0,.47-.07.65,0,.4.15.05.07.23.42s0,.11.42.23.62.46,1,.71.86.36,1.22.63c.2.15.36.47.58.58s.6-.06.69,0-.1.54,0,.66.56,0,.65,0h54.62c.22,0,1.22.13,1.37,0s-.1-.55,0-.66.54,0,.65,0h1.34c.46,0,2.36.21,2.57-.06a4.42,4.42,0,0,0,0-1.15V49.75a24.45,24.45,0,0,1,.09-5,12.47,12.47,0,0,0,.56-2.74V29.87c0-.69-.25-1,.5-1h6.66a2,2,0,0,0,.65,0c.25-.11.38-.49.62-.61a8,8,0,0,1,2.64,0h13.44a4.79,4.79,0,0,0,1.31,0c.39-.15,0-.06.22-.42s0-.2.46-.23a5.27,5.27,0,0,1,1.43,0c.19.06.3.26.46.39.35.28.22.21.68.26a23.27,23.27,0,0,0,2.77,0h16.11a4.72,4.72,0,0,0,1.3,0c.53-.19.17-.71-.16-1.05l-1.82-1.81a10.31,10.31,0,0,1-1-1.05c-.27-.36-.36-.85-.62-1.23s-.59-.51-.68-.87,0-.39-.09-.58-.4-.41-.57-.57h14.1a8,8,0,0,1,2.18,0c.19.2-.13.9,0,1.15s.09,0,.42.15.08-.07.23.23-.14.27.15.42.39-.07.5.07c.47.59-.38.58-.65.58C390.82,23.64,390.78,23.6,390.78,24.29Zm-246.1,89.86c0,.35-.09.54.15.66a4.34,4.34,0,0,0,1.08,0h3.47c.51,0,.47-.06.51.42,0,.29,0,.59,0,.88v2.64c0,.46-.1.48.2.61s1.5-.23,1.75.06a7.11,7.11,0,0,1,0,1.9c-.19.18-1.59,0-1.89,0h-3.47c-.32,0-1.63.16-1.8,0s0-1.54,0-1.85v-.75c0-.57.12-.57-.42-.62-1.16-.1-2.36,0-3.52,0h-1.85c-.23,0-.62-.06-.72.07s0,.69,0,.86v7.4a7.31,7.31,0,0,0,0,1.81c.11.36,0,.28.5.28h8c.43,0,.5,0,.81-.19s.34-.4.79-.46a11.92,11.92,0,0,1,1.69,0c.29,0,1.71-.18,1.89,0s0,1.7,0,2v10.48a3.54,3.54,0,0,0,0,.92c.12.33.23.23.65.23h1.89c.62,0,3.1-.26,3.32.15a5.78,5.78,0,0,1,0,1.81c0,.29,0,.59,0,.88.06.75.15.08.58.42.22.17.07,1.36.07,1.72v5.37c0,.61-.26,3.12.15,3.33a4.64,4.64,0,0,0,1.82,0c.25-.11.38-.53.63-.63a2.88,2.88,0,0,1,.88,0h10.84a26.73,26.73,0,0,0,3.58,0c.41-.06.38-.12.73-.4a.94.94,0,0,1,.83-.25h14.36c.22,0,.59.06.69-.07s0-.82,0-1V152a1.42,1.42,0,0,1,0-.46c.12-.32-.07-.07.23-.23.08,0,.35.07.42,0s-.06-.4,0-.5.36-.15.68-.15c.5,0,.46.08.62-.23.06-.12-.06-.34,0-.42s.45.06.59,0,.42-.45.65-.62a5.1,5.1,0,0,1,.77-.4c.53-.27.93-.78,1.45-.93.12,0,.34,0,.42,0s-.06-.36,0-.47.36-.08.68-.16a3.46,3.46,0,0,0,1-.48c.42-.31.08-.23.31-.66s.34,0,.65-.15.41-.54.69-.65c.13,0,.34.07.46,0s0,0,.15-.23c0-.08-.06-.35,0-.42s.47,0,.59,0,.38-.44.63-.57.63,0,.74-.15c.33-.42-.3-.42.32-.58.21-.06.8.13.94,0s0-.53.11-.65.41.05.55,0,.24-.23.36-.33.19-.26.3-.31.33.05.44,0,.1.1.23-.15-.08-.43,0-.51.61,0,.78-.13c.33-.19.4-.41.75-.52.08,0,.37.06.43,0s-.06-.4,0-.5c.14-.28.36,0,.66-.17s.4-.52.67-.63a3.29,3.29,0,0,1,.94,0H221c.51,0,.47.06.5-.42a2.36,2.36,0,0,0,0-.88c-.1-.26-.52-.38-.63-.64a2.64,2.64,0,0,1,0-.89V135c0-.28,0-.57,0-.85,0-.11,0-.36,0-.42s.47.09.58,0,0-1.42,0-1.72v-5.41a7.55,7.55,0,0,0,0-1.84c-.18-.65-.69-.8-1.3-.8-.34,0-.53.09-.65-.15-.27-.52.23-.5-.58-.5H206.53a1.33,1.33,0,0,0-.78.13c-.34.2-.37.44-.75.52a19.25,19.25,0,0,1-3.64,0,6,6,0,0,0-1.84,0c-.29.15,0,.43-.15.65s-.71,0-.88,0h-3.65a5.62,5.62,0,0,1-1.83,0c-.29-.15-.15-1.11-.15-1.53v-9a4,4,0,0,0,0-.91c-.12-.45-.11-.33-.65-.33h-3.58a3.46,3.46,0,0,0-.91,0c-.29.1-.42.49-.69.62a5.43,5.43,0,0,1-1.76,0H180c-.22,0-.74-.07-.85.07a3.79,3.79,0,0,0,0,1v3.52c0,.31.2,1.67,0,1.88s-.54,0-.71,0-.45-.06-.52,0,0,.25-.07.42-.16.23-.61.23-.57.1-.69-.23a6.48,6.48,0,0,1,0-1.76V116c0-.73,0-.35-.42-.58-.24-.13-.12.06-.23-.15s0-.38,0-.5c0-.29,0-.59,0-.88,0-.48,0-.43-.5-.43h-.84c-1,0-2.75-.33-3.47.26-.41.33-.3.35-.82.39a8.61,8.61,0,0,1-.88,0h-1.89a8,8,0,0,0-1.69,0c-.42.11-.33.07-.33.59,0,.33.08.6-.15.72s-1.54-.29-1.8,0,.26.47-.23.65a4.27,4.27,0,0,1-1,0h-3.47c-.51,0-.46,0-.5-.42,0-.29,0-.59,0-.88,0-.44.11-.53-.23-.66a3.72,3.72,0,0,0-1,0c-.17,0-.64.08-.72,0a4,4,0,0,1,0-1c0-.17.08-.74,0-.84s-.51.09-.65-.19c-.26-.48.24-.45-.43-.5-.3,0-.61,0-.91,0h-1.85c-.17,0-.63-.07-.72,0s.08.81,0,1-.15.23-.62.23h-6c-.52,0-.46-.07-.5.42A8.61,8.61,0,0,0,144.68,114.15ZM156.4,95.92c0,.14.08.53,0,.62s-.37,0-.51,0c-.31.17,0,.61-.14,1s.12.2-.23.33a2,2,0,0,1-.49,0,4.68,4.68,0,0,0-1.24,0c-.21.21,0,1.84,0,2.18s-.08,1,.07,1.07,1,0,1.24,0c-.29,0-.6,0-.89,0s-.78.13-.42.58c.17.22,1.37.07,1.73.07h6.09c.5,0,.49-.08.65.23s-.07.32.06.42.41-.08.52,0,.07.51.07.72a3.79,3.79,0,0,0,0,1c.12.33.21.23.65.23-.77,0-.65.07-.65.8,0,.43.08.39-.23.5a3.62,3.62,0,0,1-.93,0c-.73,0-.8-.12-.8.65V107a2,2,0,0,0,0,.42c.14.4-.11,0,.23.23s.27-.21.43.23a3,3,0,0,1,0,.85c-.12.33,0,.19-.43.23-.28,0-.59,0-.88,0h-3c-.3,0-1.26-.17-1.47,0s-.06,1.1-.06,1.37-.08.46.14.58a2.29,2.29,0,0,0,.74,0c.64-.06.19,0,.42-.42.15-.3.1-.23.58-.23h10.42c.76,0,.72,0,.72-.72v-3.16a2.21,2.21,0,0,1,0-.68c.1-.25.49-.37.61-.62a4.08,4.08,0,0,0,0-1.4V99.18a2,2,0,0,1,0-.65c.11-.26.55-.39.65-.65.31-.78-.34-.66-.84-.66a5.23,5.23,0,0,0-1.63,0c-.25.15-.13.88-.13,1.24,0,.78.05.72-.72.72h-2.54c-.44,0-.53.11-.65-.23a6.26,6.26,0,0,1,0-1.73v-.71c0-.57.1-.54-.42-.59C160.93,95.73,158.62,95.92,156.4,95.92ZM351.72,639.65h2.7c.41,0,2.25.25,2.51,0,.11-.12-.1-.51,0-.61s.52.1.62,0-.11-.55,0-.65.54.1.65,0,0-1.36,0-1.6v-10.2c0-.68,0-.57-.72-.57h-6.44ZM7.3,69.88V65.22c0-.78.22-.55,1-.55h6.18l-.9.9c-.15.15-.34.28-.4.47s.06.43,0,.62-.47.34-.58.57,0,.5,0,.62-.43,0-.58.07-.07.42-.07.62c0,.54.11.55-.28.74a8.26,8.26,0,0,1-1.74.35A12.72,12.72,0,0,1,7.3,69.88ZM16.42,56.2c0,.3.12,1.16-.07,1.3-.45.34-1-.42-1.24-.65v4.63a4.38,4.38,0,0,0,0,1.2c.16.18,1-.17.66.54-.15.27-.14,0-.43.14s-.06,0-.23.33c-.07.18,0,.28-.12.45a3.32,3.32,0,0,1-.53.53V60.26a6.9,6.9,0,0,0,0-2.08c-.1-.27-.54-.41-.65-.68a3.83,3.83,0,0,1,0-1.07V51.88a2.61,2.61,0,0,1,0-.74c.13-.25.53-.15.88-.15h1c.62,0,.69-.16.75.42C16.56,53,16.42,54.63,16.42,56.2Z" fill="#fff" stroke="#fff" stroke-miterlimit="10" stroke-width="2"/></svg>