<?xml version="1.0" encoding="utf-8"?>
<!-- Generator: Adobe Illustrator 22.0.1, SVG Export Plug-In . SVG Version: 6.00 Build 0)  -->
<svg version="1.1" id="Layer_1" xmlns="http://www.w3.org/2000/svg" xmlns:xlink="http://www.w3.org/1999/xlink" x="0px" y="0px"
	 viewBox="0 0 600 750" style="enable-background:new 0 0 600 750;" xml:space="preserve">
<style type="text/css">
	.st0{fill:none;stroke:#AAAAAA;stroke-width:0.6;stroke-linecap:round;stroke-linejoin:round;stroke-miterlimit:10;}
	.st1{fill:none;stroke:#D13333;stroke-width:3;stroke-miterlimit:10;}
	.st2{fill:#D13333;}
	.st3{fill-rule:evenodd;clip-rule:evenodd;fill:none;}
	.st4{fill-rule:evenodd;clip-rule:evenodd;fill:#D13333;}
	.st5{fill-rule:evenodd;clip-rule:evenodd;fill:#F1F3F4;}
	.st6{fill-rule:evenodd;clip-rule:evenodd;fill:#69973F;}
	.st7{fill:none;stroke:#AAAAAA;stroke-width:3;stroke-linejoin:round;stroke-miterlimit:10;}
	.st8{fill:none;stroke:#999999;stroke-miterlimit:10;}
	.st9{fill:#FFFFFF;stroke:#FFFFFF;stroke-width:2;stroke-miterlimit:10;}
</style>
<g>
	<rect class="st3" width="600" height="750"/>
	<g>
		<path class="st4" d="M397.4,643.136c0,3.295-2.671,5.966-5.966,5.966c-3.295,0-5.966-2.671-5.966-5.966s2.671-5.966,5.966-5.966
			C394.729,637.169,397.4,639.841,397.4,643.136z"/>
		<circle class="st4" cx="487.569" cy="595.677" r="5.966"/>
		<path class="st4" d="M375.353,36.831c0,3.295-2.671,5.966-5.966,5.966c-3.295,0-5.966-2.671-5.966-5.966
			c0-3.295,2.671-5.966,5.966-5.966C372.682,30.864,375.353,33.536,375.353,36.831z"/>
		<circle class="st4" cx="313.001" cy="537.875" r="5.966"/>
		
			<ellipse transform="matrix(0.1602 -0.9871 0.9871 0.1602 -15.6076 811.8596)" class="st4" cx="469.309" cy="415.102" rx="5.966" ry="5.966"/>
		
			<ellipse transform="matrix(0.7071 -0.7071 0.7071 0.7071 -240.904 530.8901)" class="st4" cx="520.389" cy="556.242" rx="5.966" ry="5.966"/>
		<path class="st4" d="M387.143,475.34c0,3.295-2.671,5.966-5.966,5.966c-3.295,0-5.966-2.671-5.966-5.966s2.671-5.966,5.966-5.966
			C384.472,469.374,387.143,472.045,387.143,475.34z"/>
		<path class="st4" d="M387.224,50.63c0,3.295-2.671,5.966-5.966,5.966c-3.295,0-5.966-2.671-5.966-5.966
			c0-3.295,2.671-5.966,5.966-5.966C384.553,44.664,387.224,47.335,387.224,50.63z"/>
		<path class="st4" d="M437.42,251.935c0,3.295-2.671,5.966-5.966,5.966c-3.295,0-5.966-2.671-5.966-5.966
			c0-3.295,2.671-5.966,5.966-5.966C434.749,245.969,437.42,248.64,437.42,251.935z"/>
		<circle class="st4" cx="293.647" cy="179.377" r="5.966"/>
		
			<ellipse transform="matrix(0.9239 -0.3827 0.3827 0.9239 -157.5042 222.8737)" class="st4" cx="481.48" cy="507.351" rx="5.966" ry="5.966"/>
		
			<ellipse transform="matrix(0.7071 -0.7071 0.7071 0.7071 -213.8524 336.1897)" class="st4" cx="298.891" cy="426.238" rx="5.966" ry="5.966"/>
		<path class="st4" d="M459.337,594.839c0,3.295-2.671,5.966-5.966,5.966c-3.295,0-5.966-2.671-5.966-5.966s2.671-5.966,5.966-5.966
			C456.666,588.873,459.337,591.544,459.337,594.839z"/>
		<path class="st4" d="M481.648,613.111c0,3.295-2.671,5.966-5.966,5.966c-3.295,0-5.966-2.671-5.966-5.966
			c0-3.295,2.671-5.966,5.966-5.966C478.977,607.144,481.648,609.816,481.648,613.111z"/>
		<path class="st4" d="M445.434,254.338c0,3.295-2.671,5.966-5.966,5.966c-3.295,0-5.966-2.671-5.966-5.966
			c0-3.295,2.671-5.966,5.966-5.966C442.763,248.372,445.434,251.043,445.434,254.338z"/>
		
			<ellipse transform="matrix(0.7071 -0.7071 0.7071 0.7071 -226.5788 405.5442)" class="st4" cx="376.246" cy="476.277" rx="5.966" ry="5.966"/>
		
			<ellipse transform="matrix(0.7071 -0.7071 0.7071 0.7071 -240.904 530.8901)" class="st4" cx="520.389" cy="556.242" rx="5.966" ry="5.966"/>
	</g>
</g>
</svg>
