<?xml version="1.0" encoding="utf-8"?>
<!-- Generator: Adobe Illustrator 21.0.2, SVG Export Plug-In . SVG Version: 6.00 Build 0)  -->
<svg version="1.1" id="Layer_1" xmlns="http://www.w3.org/2000/svg" xmlns:xlink="http://www.w3.org/1999/xlink" x="0px" y="0px"
	 viewBox="0 0 600 750" style="enable-background:new 0 0 600 750;" xml:space="preserve">
<style type="text/css">
	.st0{fill:none;stroke:#4D4D4D;stroke-width:0.6;stroke-linecap:round;stroke-linejoin:round;stroke-miterlimit:10;}
	.st1{fill:none;stroke:#FEE8A0;stroke-width:3;stroke-miterlimit:10;}
	.st2{fill:#FEE8A0;stroke:#FEE8A0;stroke-miterlimit:10;}
	.st3{fill-rule:evenodd;clip-rule:evenodd;fill:none;}
	.st4{fill-rule:evenodd;clip-rule:evenodd;fill:#FEE8A0;stroke:#000000;stroke-miterlimit:10;}
	.st5{fill-rule:evenodd;clip-rule:evenodd;fill:#F1F3F4;}
	.st6{fill-rule:evenodd;clip-rule:evenodd;fill:#69973F;}
	.st7{fill:none;stroke:#4D4D4D;stroke-width:3;stroke-linejoin:round;stroke-miterlimit:10;}
	.st8{fill:none;stroke:#FFFFFF;stroke-width:2;stroke-miterlimit:10;}
	.st9{fill:#FFFFFF;stroke:#FFFFFF;stroke-width:2;stroke-miterlimit:10;}
	.st10{fill-rule:evenodd;clip-rule:evenodd;fill:#6791A3;stroke:#000000;stroke-miterlimit:10;}
	.st11{fill:#6791A3;stroke:#000000;stroke-miterlimit:10;}
</style>
<g>
	<rect class="st3" width="600" height="750"/>
	<polyline class="st3" points="0,0 600,0 600,750 	"/>
	<polyline class="st3" points="0,0 600,0 600,750 	"/>
	<polyline class="st3" points="0,0 600,0 600,750 	"/>
	<polyline class="st3" points="0,0 600,0 600,750 	"/>
	<polyline class="st3" points="0,0 600,0 600,750 	"/>
	<polyline class="st3" points="0,0 600,0 600,750 	"/>
	<polyline class="st3" points="0,0 600,0 600,750 	"/>
	<path class="st9" d="M390.8,29.3h0.7c0,0.7,0,1.3,0,2h0.7h-0.7v1.3h0.7v0.7h-0.7v0.7h0.7v0.7h0.7v0.7h-0.7v0.7h0.7h-0.7h0.7
		c0,0.7,0,1.3,0,2h0.7c0,0.9,0,1.7,0,2.6h0.7c0,0.7,0,1.3,0,2h0.7c0,0.5-0.2,1.5,0,2c0.2,0.4,0.5,0.4,0.6,0.8c0.1,0.3,0,0.7,0,1.1
		h0.7h-0.7c0.5,0.5,0.7,0.6,0.7,1.3h0.7c0,0.4,0,0.9,0,1.3c0.9,0,1.3,0.4,1.3,1.3h0.7c0,0.7,0.1,0.8,0.7,1.3
		c0.5,0.5,0.7,0.6,0.7,1.3h0.7c0,0.9,0.4,1.3,1.3,1.3c0,0.4,0,0.9,0,1.3c0.6,0,0.7,0,1.1,0.5c0.3,0.3,0.6,0.6,0.8,0.8V56
		c0,0.7-0.2,1.1-0.9,1.3c-0.7,0.2-1.6,0-2.3,0c0,0.7,0,1.3,0,2h0.7c0,0.3-0.1,0.8,0,1.2c0.1,0.3,0.4,0.5,0.7,0.8h-0.7
		c0,0.5-0.1,1,0,1.5c0.1,0.4,0,0.3,0.3,0.7c0.3,0.4,0.3,0.3,0.4,0.7c0,0.3-0.1,0.6,0,0.8c0.1,0.3,0.3,0.3,0.5,0.6
		c0.3,0.4,0.2,1,0.2,1.5h0.7l-0.7,0.7c0.4,0.4,0.6,0.5,0.7,1.1c0.1,0.6-0.1,0.8,0.3,1.2c0.2,0.2,0.3,0.2,0.3,0.5
		c0.1,0.2,0,0.4,0.1,0.6c0.1,0.2,0.4,0.3,0.6,0.6c0.1,0.2,0,0.5,0,0.7h0.7c0,1.3,0,2.6,0,3.9h-0.7v0.7h0.7c0,1.7,0,3.5,0,5.2h0.7
		c0,0.4,0,0.9,0,1.3h-0.7c0,0.7-0.1,1.5,0,2.3c0.1,0.4,0.1,0.4,0.4,0.7c0.3,0.4,0.3,0.4,0.3,0.9h-0.7v0.7h0.7c0,0.9,0,1.7,0,2.6
		h-0.7c0.3,0.3,0.6,0.6,0.8,0.8c0.4,0.4,0.5,0.5,0.5,1.1c0.5,0,0.6,0,0.9,0.3c0.3,0.2,0.5,0.5,0.7,0.7c0.2,0.2,0.5,0.5,0.7,0.7
		c0.3,0.4,0.3,0.4,0.3,0.9h0.7v0.7c0.7,0,1.3,0,2,0v0.7l0.7-2c-0.4,0.8-1.1,1.7-1.3,2.6c-0.1,0.4,0,1,0,1.4c0,0.3,0,0.5-0.1,0.7
		c-0.1,0.2-0.4,0.3-0.5,0.6c-0.1,0.3,0,1,0,1.4c0,0.5,0,1,0,1.5c0,1,0,2,0,2.9h0.7c0,0.7,0,1.3,0,2h0.7c0,0.6,0,0.6,0.4,1
		c0.3,0.3,0.6,0.6,0.9,0.9c0.2,0.2,0.4,0.6,0.7,0.7c0.3,0.1,0.9,0,1.3,0v0.7c0.3,0,0.8,0.1,1.2,0c0.3-0.1,0.5-0.4,0.8-0.7
		c-0.5,0.5-0.7,0.6-0.7,1.3h0.7c0,3,0,6.1,0,9.1h0.7c0,0.3-0.1,0.8,0,1.2c0.1,0.3,0.4,0.5,0.7,0.8c0.2,0.2,0.6,0.5,0.7,0.7
		c0.1,0.3,0,0.9,0,1.2h0.7c0,0.7,0.1,0.8,0.7,1.3c0.5,0.5,0.7,0.6,0.7,1.3h0.7v0.7h0.7v0.7l-0.7-0.7l-0.7,0.7c0.3,0,1-0.1,1.3,0
		c0.2,0.1,0.3,0.5,0.6,0.6c0.2,0.1,0.5,0,0.7,0v0.7h0.7v0.7c0.3,0,0.5,0,0.8,0.1c0.2,0.1,0.3,0.4,0.6,0.5c0.5,0.2,1.3-0.2,1.8,0
		c0.3,0.1,0.4,0.4,0.6,0.6c0.2,0.1,0.5,0,0.7,0.1c0.2,0.1,0.4,0.5,0.6,0.6c0.2,0.2,0.5,0.3,0.8,0.4c1,0.5,2.2,0.3,3.2,0.3
		c0.3,0,0.5,0,0.7,0.1c0.3,0.2,0.4,0.4,0.7,0.5c0.5,0.1,1.3,0,1.8,0v0.7h0.7c0-1.5,0-3,0-4.6h0.7c0-0.4,0-0.9,0-1.3h0.7
		c0-0.4,0-0.9,0-1.3c-0.4,0-0.9,0-1.3,0c0,0.4,0,0.9,0,1.3c0-0.4,0-0.9,0-1.3c0.4,0,0.9,0,1.3,0c0,0.6,0,0.6-0.4,1
		c-0.3,0.4-0.3,0.6-0.3,1.1c0,0.7-0.3,0.5-0.6,1.1c-0.2,0.3-0.1,0.8-0.1,1.2c0,1.6,0,3.2,0,4.8h0.7v0.7h0.7c0,0.4,0,0.9,0,1.3h-0.7
		v0.7H437v0.7c-0.4,0-0.9,0-1.3,0v0.7c-0.4,0-0.9,0-1.3,0v0.7c-0.9,0-1.3,0.4-1.3,1.3h-0.7v0.7h-0.7v0.7h-0.7v0.7h-0.7v0.7
		c-0.9,0-1.8,0-2.7,0c-0.3,0-1,0.1-1.3,0c-0.2-0.1-0.4-0.5-0.6-0.6c-0.2-0.1-0.5,0-0.7,0v1.3v-1.3h-0.7c0-0.7,0-1.3,0-2
		c0.7,0,0.6,0.1,1.1,0.5c0.3,0.2,0.6,0.2,1,0.2c0.8,0,1.7,0,2.5,0c0.6,0,0.6,0,1.1-0.5c0.3-0.3,0.6-0.6,0.8-0.8
		c0.3-0.3,0.5-0.5,0.7-0.9c0.1-0.3,0-0.3,0.1-0.6c0.1-0.2,0.4-0.4,0.5-0.5c-0.5-0.5-0.7-0.6-0.7-1.3c-1.1,0-2.2,0-3.3,0v0.7
		c-0.9,0-1.8,0-2.8,0c-0.4,0-0.9-0.1-1.3,0.1c-0.2,0.1-0.3,0.4-0.6,0.5c-0.2,0.1-0.5-0.1-0.7,0c-0.5,0.3-0.6,0.7-0.6,1.2
		c0,0.3-0.1,1,0,1.3c0.1,0.2,0.5,0.3,0.6,0.6c0.1,0.2,0.1,0.4,0.1,0.7c0,0.5,0,0.9,0,1.4h0.7h-0.7c0,0.7,0,1.4,0,2.1
		c0,0.7-0.2,1.7,0,2.3c0.1,0.3,0.5,0.5,0.6,0.8c0.1,0.3,0,0.8,0,1.1c0,0.7,0,1.5,0,2.2h0.7c0,0.5-0.1,1,0,1.5c0.1,0.4,0,0.3,0.3,0.7
		c0.3,0.4,0.3,0.3,0.4,0.7c0,0.3-0.1,0.6,0,0.8c0.1,0.3,0.3,0.3,0.5,0.6c0.3,0.4,0.2,1,0.2,1.5h0.7c0,0.7,0,1.3,0,2h0.7
		c0,0.3-0.1,1,0,1.3c0.1,0.2,0.5,0.4,0.6,0.6c0.1,0.2,0,0.5,0,0.7c0,0.2-0.1,0.5,0,0.7c0.1,0.2,0.5,0.4,0.6,0.6c0.1,0.3,0,1,0,1.3
		h0.7c0,0.4,0,0.9,0,1.3h0.7c0,0.3,0,0.5,0.1,0.8c0.1,0.2,0.4,0.3,0.5,0.5c0.1,0.1,0,0.2,0,0.4c0.1,0.4,0.2,0.4,0.5,0.8
		c0.2,0.3,0.2,0.4,0.2,0.8h0.7v0.7h0.7c0,0.5,0,0.6,0.3,1c0.3,0.4,0.3,0.4,0.3,1h0.7v0.7h0.7v0.7h0.7c0,0.5,0,0.6,0.3,1
		c0.3,0.4,0.3,0.4,0.3,1c-0.4,0-0.9,0-1.3,0c0-0.4,0-0.9,0-1.3h-0.7v-0.7h-0.7v0.7c-0.7,0-1.3,0-2,0c0-1.1-0.8-2.2-1.3-3.3l0.7-0.7
		l-0.7-1.3c-0.2,0-0.5,0.1-0.7,0c-0.2-0.1-0.4-0.5-0.6-0.6c-0.3-0.1-1,0-1.3,0v-0.7c-0.7,0-1.3,0-2,0l0.7-0.7
		c-0.9,0-1.3-0.4-1.3-1.3H424V166c-0.4,0-0.9,0-1.3,0c0.5,0.5,0.7,0.6,0.7,1.3h0.7v0.7c0.9,0,1.3,0.4,1.3,1.3h0.7c0,0.4,0.1,1,0,1.3
		c-0.3,0.5-0.8,0.5-0.6,1.3c0.1,0.5,0.6,1,0.9,1.4c0.3,0.5,0.4,0.6,0.4,1.2h0.7v0.7h0.7c0,1.1,0,2.2,0,3.3h0.7
		c0,1.1,0.6,1.9,1.3,2.6l0.7-0.7v0.7c0.4,0,0.9,0,1.3,0v0.7c0.3-0.3,1.1-0.8,1.3-1.3c0.3-0.6-0.2-1-0.6-1.3h0.7v-1.3h0.7v-0.7v0.7
		h0.7c0,0.9,0,1.7,0,2.6h0.7c0,0.8-0.2,2.1,0.1,2.7c0.1,0.2,0.4,0.3,0.5,0.5c0.1,0.2-0.1,0.5,0,0.7c0.1,0.2,0.5,0.3,0.6,0.6
		c0.1,0.2,0,0.5,0,0.7h0.7l-0.7,0.7h0.7c0,0.7,0,1.3,0,2c0,0.6,0,0.5,0.4,1c0.3,0.4,0.3,0.4,0.3,0.9h0.7c0.4,0.7,0.7,1.2,0.7,2h0.7
		c0,0.4,0,0.9,0,1.3H439c0,0.4,0,0.9,0,1.3c0-0.4,0-0.9,0-1.3v0.7h-0.7v0.7h-0.7h0.7v0.7h0.7c0,1.3,0,2.6,0,4c0,0.7,0,1.3,0,2
		c0,0.6,0,0.5,0.4,1c0.3,0.4,0.3,0.4,0.3,0.9H439h0.7c0,0.5,0,0.6,0.3,1c0.3,0.4,0.3,0.4,0.3,1h0.7c0,0.4,0,0.9,0,1.3h-0.7v0.7h-0.7
		c0,0.9,0,1.7,0,2.6h0.7c0,0.7,0,1.3,0,2h0.7v0.7h0.7v0.7l0.7-0.7l-1.3,1.3v-0.7c0,0.4,0,0.9,0,1.3h0.7c0,0.5,0,0.6,0.3,1
		c0.3,0.4,0.3,0.4,0.3,1c0.5-0.5,0.6-0.7,1.3-0.7h-0.7v0.7c-0.4,0-0.9,0-1.3,0v0.7h0.7c0,0.4,0,0.9,0,1.3h0.7v0.7
		c0.7,0,0.8-0.1,1.3-0.7c-0.3,0.3-0.6,0.6-0.8,0.8c-0.4,0.4-0.5,0.5-1.1,0.5h0.7c0,0.4,0,0.9,0,1.3h0.7v0.7c0.4,0,0.9,0,1.3,0
		c-0.5,0-0.6,0-1,0.3c-0.4,0.3-0.4,0.3-1,0.3v0.7h0.7v0.7h0.7v0.7h0.7v0.7c0.5-0.5,0.6-0.7,1.3-0.7c-0.5,0.5-0.6,0.7-1.3,0.7v0.7
		h0.7v0.7h0.7v0.7h0.7v0.7h0.7v0.7h0.7v0.7h0.7v0.7c0.4,0,0.9,0,1.3,0v0.7c1.1,0,2.2,0,3.3,0v-0.7c0,0.4,0,0.9,0,1.3v-0.7h0.7
		c0-0.7,0-1.3,0-2h-0.7v-0.7v0.7h-0.7c0.5-0.5,0.6-0.7,1.3-0.7c0,0.7,0,1.3,0,2c0,0.9-0.5,1.2-1.3,1.2v0.7c-0.5,0-1.3-0.1-1.8,0
		c-0.3,0.1-0.4,0.4-0.7,0.5c-0.3,0.2-0.4,0.1-0.8,0.1v0.7l-1.3,0.7c0,0.7,0,1.3,0,2h-0.7c0,1.5,0,2.9,0,4.4c0,0.3,0,0.6,0,0.9
		c0,0.6,0.2,0.5,0.5,1c0.3,0.5,0.1,1.5,0.1,2.1h0.7c0,0.8-0.1,1.6,0,2.4c0.1,0.8,0.7,1.3,0.7,2.2h0.7v0.7h0.7c0,0.5,0,0.6,0.3,1
		c0.3,0.4,0.3,0.4,0.3,1h0.7v0.7h0.7v0.7c0.7,0,1.3,0,2,0v0.7h0.7v0.7h0.7c0,0.4-0.1,1,0,1.3c0.2,0.5,0.9,0.7,1.1,1.1
		c0.1,0.3,0,0.4,0.1,0.7c0.1,0.2,0.3,0.3,0.4,0.5c0.3,0.4,0.2,0.8,0.6,1.2c0.2,0.3,0.2,0.3,0.3,0.6c0.1,0.3,0,0.3,0.2,0.6
		c0.1,0.2,0.4,0.3,0.5,0.5c0.1,0.2,0,0.5,0.1,0.7c0.1,0.2,0.5,0.3,0.6,0.6c0.1,0.2-0.1,0.5,0,0.7c0.1,0.2,0.5,0.4,0.6,0.6
		c0.1,0.2,0,0.5,0,0.7h0.7c0,0.3-0.1,0.8,0,1.1c0.1,0.3,0.3,0.4,0.5,0.7c0.2,0.3,0,0.5,0.1,0.8c0.1,0.2,0.5,0.5,0.7,0.7
		c0.3,0.3,0.9,1.1,1.3,1.3c0.4,0.2,1.5,0,2,0V267h0.7c0-0.4,0-0.9,0-1.3h0.7c0-0.4,0-0.9,0-1.3h0.7c0-0.6-0.1-1.1,0.3-1.6
		c0.3-0.4,0.8-1,1.3-1c1.1-0.2,2.4,0,3.4,0c2.2,0,4.5,0,6.7,0c0,2,0,3.9,0,5.9c-3.5,0-6.9,0-10.4,0c0,0.7,0,1.3,0,2
		c2.2,0,4.4,0,6.5,0c1,0,2,0.1,2.9-0.1c1.2-0.2,2.4-0.6,3.6-0.6v0.7h2.6c0,0.4,0,0.9,0,1.3h-2.6v0.7c-4.3,0-8.7,0-13,0
		c0,0.7,0.3,1,0.5,1.7c0.2,0.5,0.1,1,0.1,1.5c0.9,0,1.7,0,2.6,0h-0.7v0.7h0.7v0.7c1.3,0,2.6,0,3.9,0h-0.7v0.7c1.3,0,2.6,0,3.9,0
		c-0.8,0-1.5,0-2.3,0c-0.4,0-0.9-0.1-1.3,0c-0.5,0.1-0.6,0.3-1,0.7v-0.7c-1,0-1.8,0.6-2.8,0.7c-1,0.1-2,0-3,0c0,2.4,0,4.8,0,7.2
		c-1.3,0-2.6,0-3.9,0c0,0.4,0,0.9,0,1.3h-0.7c0,0.4,0,0.9,0,1.3c-0.4,0-0.9,0-1.3,0v0.7c-0.9,0-1.7,0-2.6,0v0.7h-0.7
		c0,0.4,0,0.9,0,1.3h0.7c0,0.7,0,1.3,0,2h-0.7c0,2.4,0,4.8,0,7.2h0.7c0,2.8,0,5.6,0,8.5h-0.7c0.2,0.2,0.6,0.5,0.7,0.7
		c0.1,0.3,0,0.7,0,1c0,0.6,0,1.2,0,1.9c0,0.6-0.1,1.2,0,1.9c0,0.5,0.1,0.4,0.4,0.8c0.3,0.4,0.3,0.4,0.3,0.9c0.4,0,0.9,0,1.3,0v-0.7
		c0.9,0,1.7,0,2.6,0v0.7h0.7c0,0.7,0,1.3,0,2H465v0.7c2.4,0,4.8,0,7.2,0v-0.7c0.9,0,1.7,0,2.6,0c0,1.5,0,3,0,4.6h-0.7
		c0-0.4,0-0.9,0-1.3h-0.7v0.7h-0.7v0.7h-0.7c0,0.7,0,1.3,0,2h0.7c0,0.3-0.1,1,0,1.3c0.1,0.2,0.5,0.3,0.6,0.6c0.1,0.2,0,0.5,0,0.7
		c0.4,0,0.9,0,1.3,0c0,1.3,0,2.6,0,3.9c-0.4,0-0.9,0-1.3,0c0,2.1,0,4.2,0,6.4c0,1,0,2.1,0,3.1c0,0.2-0.1,0.6,0,0.8
		c0.1,0.3,0.3,0.3,0.5,0.6c0.3,0.4,0.2,1,0.2,1.5c-0.2,0-0.5-0.1-0.7,0c-0.2,0.1-0.3,0.4-0.5,0.5c-0.3,0.2-0.8,0.1-1.2,0.1
		c-0.8,0-1.8,0.2-2.2-0.7c-0.3-0.6,0-1.9,0-2.6c0-0.9,0-1.7,0-2.6h0.7c0-0.4,0-0.9,0-1.3h-0.7c0-0.4,0-0.9,0-1.3h-0.7
		c0-0.4,0-0.9,0-1.3h0.7v-0.7h-0.7v-0.7h-0.7c0-1.5,0-3,0-4.6h0.7c0-0.4,0-0.9,0-1.3h0.7c0-1.3,0-2.6,0-3.9h-0.7c0-0.3,0.1-1,0-1.3
		c-0.1-0.2-0.5-0.3-0.6-0.6c-0.1-0.2,0-0.5,0-0.7c-1.1,0-2.2,0-3.3,0c0,0.5,0.2,1.5,0,2c-0.2,0.4-0.5,0.4-0.6,0.8
		c-0.1,0.3,0,0.7,0,1.1c0,0.7,0,1.3,0,2c0,0.6,0,0.5,0.4,1c0.3,0.4,0.3,0.4,0.3,0.9h0.7c0,0.7,0,1.3,0,2h0.7v0.7h-0.7
		c0,0.3-0.1,0.8,0,1.2c0.1,0.3,0.5,0.5,0.7,0.8c0.2,0.4,0,0.6-0.3,0.9c-0.3,0.4-0.5,0.4-1,0.4c0,1.5,0,3,0,4.6h0.7v0.7
		c0.6,0,0.7,0.1,1.2,0.5c0.2,0.2,0.7,0.5,0.8,0.8c0.2,0.6,0,1.9,0,2.6h0.7c0,0.3-0.1,1,0,1.3c0.1,0.2,0.5,0.3,0.6,0.6
		c0.1,0.2,0,0.5,0,0.7h0.7c0,0.3,0,0.5,0.1,0.8c0.1,0.2,0.4,0.3,0.5,0.6c0.2,0.5,0,1.3,0,1.8c0,1.1,0,2.2,0,3.3h-0.7
		c0.5,0.5,0.7,0.6,0.7,1.4c0,0.3,0,0.5,0.1,0.7c0.2,0.3,0.4,0.4,0.5,0.7c0.1,0.5,0,0.4,0.3,0.8c0.2,0.3,0.3,0.3,0.4,0.6
		c0.1,0.5,0,1.2,0,1.7h-0.7c0,0.4,0,0.9,0,1.3h-0.7c0,0.4,0,0.9,0,1.3h0.7c0,0.3-0.1,1,0,1.3c0.1,0.2,0.5,0.3,0.6,0.6
		c0.1,0.2,0,0.5,0,0.7h0.7c0,1.1,0,2.2,0,3.3h0.7v0.7c0.4,0,0.9,0,1.3,0c-0.4,0-0.9,0-1.3,0c0,0.8,0.3,1.3,0.7,2h0.7
		c0,0.8,0.3,1.3,0.7,2c0.5-0.2,1.5-0.3,2-0.7c0.5-0.4,0.7-1.4,0.7-2c0,0.6-0.2,1.5-0.7,2c-0.4,0.4-1.4,0.5-2,0.7c0,1.1,0,2.2,0,3.3
		h0.7c0,0.3-0.1,1,0,1.3c0.1,0.2,0.5,0.3,0.6,0.6c0.1,0.2,0,0.5,0,0.7h0.7v0.7h0.7c-0.4,0.4-0.9,0.9-1.3,1.3h0.7c0,0.3-0.1,1,0,1.3
		c0.3,0.6,0.7,0.6,1.3,0.6v0.7c0.4,0,0.9,0,1.3,0c0,0.7,0.1,0.8,0.7,1.3h-0.7c0,0.4,0,0.9,0,1.3h0.7c0,0.3-0.1,1,0,1.3
		c0.1,0.2,0.5,0.3,0.6,0.6c0.1,0.2,0,0.5,0,0.7h0.7c0,0.5,0,0.6,0.3,1c0.3,0.4,0.3,0.4,0.3,1h0.7c0,0.5,0,0.6,0.3,1
		c0.3,0.4,0.3,0.4,0.3,1h0.7v0.7h0.7v0.7h0.7v0.7c0.9,0,1.3,0.4,1.3,1.3h0.7c0,0.6,0,1.2,0,1.8c0,0.8-0.1,0.9-0.7,1.5h0.7
		c0,1.1,0,2.2,0,3.3h0.7c0,0.4,0,0.9,0,1.3h0.7c0,0.4,0,0.9,0,1.3h0.7c0,0.3,0,0.5,0.1,0.8c0.1,0.2,0.4,0.3,0.5,0.5
		c0.1,0.1,0,0.2,0,0.4c0.2,0.7,0.5,1,1.3,1v0.7h0.7v0.7h0.7v0.7h0.7v0.7c0.4,0,0.9,0,1.3,0c0,0.7-0.2,1.8,0,2.5
		c0.1,0.4,0.5,0.5,0.7,0.8c0.1,0.3,0,1,0,1.3h0.7v0.7h0.7c0,0.4,0,0.9,0,1.3h0.7c0,0.4,0,0.9,0,1.3h0.7c0,0.7,0,1.3,0,2h0.7v0.7h0.7
		v0.7h0.7v0.7h0.7v0.7c0.4,0,0.9,0,1.3,0v0.7h0.7c0,1.1,0,2.2,0,3.3h0.7c0,0.4,0,0.9,0,1.3h0.7c0,0.7,0,1.3,0,2h0.7
		c0,0.4,0,0.9,0,1.3h0.7v0.7h0.7v0.7h0.7v0.7h0.7v0.7h0.7v0.7c0.7,0,0.8,0.1,1.3,0.7c0.5,0.5,0.7,0.6,0.7,1.3h0.7v0.7
		c0.7,0,1.3,0,2,0c0,0.3,0.1,1,0,1.3c-0.1,0.2-0.5,0.4-0.6,0.6c-0.1,0.2,0,0.4,0,0.6c0,0.9,0,1.8,0,2.7c0,0.9,0,1.8,0,2.6
		c0,0.2,0,0.5,0,0.7c0.1,0.2,0.5,0.3,0.6,0.6c0.1,0.3,0,1,0,1.3h0.7h-0.7v0.7h0.7v0.7h0.7v0.7h0.7v0.7h0.7v0.7c0.7,0,1.3,0,2,0v-0.7
		c0.4,0,0.9,0,1.3,0v0.7h0.7c0,0.9,0,1.7,0,2.6h-0.7v0.7c-0.7,0-1.3,0-2,0c-0.6,0-0.5,0-1,0.4c-0.4,0.3-0.4,0.3-0.9,0.3v0.7h-0.7
		c0,1.1,0,2.2,0,3.3h-0.7c0,0.7,0,1.3,0,2h0.7c0,0.4,0,0.9,0,1.3h0.7c0,0.4,0,0.9,0,1.3h0.7v0.7h0.7v0.7h0.7v0.7h0.7v0.7h0.7v0.7
		c-0.7,0-1.3,0-2,0v0.7h0.7c0,0.9-0.2,2.2,0,3.1c0.1,0.5,0.6,0.6,0.7,1.2c0,0.5,0,1,0,1.5h0.7c0,0.3-0.1,1,0,1.3
		c0.1,0.2,0.5,0.3,0.6,0.6c0.1,0.2,0,0.5,0,0.7h0.7v0.7c0.5,0,0.6,0,1,0.3c0.4,0.3,0.4,0.3,1,0.3v0.7c0.5,0,0.6,0,1,0.3
		c0.4,0.4,0.5,0.1,1,0.3c0.3,0.1,0.4,0.5,0.7,0.7c0.3,0.1,0.9,0,1.2,0v0.7c0.8,0,1.6,0,2.4,0c0.8,0,1.2-0.1,1.6-0.8
		c0.4-0.8,0.5-1.9,0.7-2.8c0.2-0.7,0.4-1.5,0.6-2.2l-0.7,5.2c-0.3,0.2-0.7,0.4-1.1,0.5c-0.3,0.1-0.6,0-0.8,0.1
		c-0.3,0.1-0.4,0.5-0.7,0.7c-0.3,0.1-0.7,0-1,0c-0.5,0.1-0.4,0.3-0.8,0.5c-0.3,0.2-0.5,0.1-0.8,0.1c-0.8,0.2-1.1,0.6-1.9,0.6
		c0.5,0.5,0.7,0.6,0.7,1.3c-0.7,0-1.3,0-2,0v0.7h-0.7v0.7H519c0,1.5,0,3,0,4.6h0.7c0,0.4,0,0.9,0,1.3H519h0.7v0.7c0.9,0,1.7,0,2.6,0
		v-0.7c0.4,0,0.9,0,1.3,0c0-0.9,0-1.7,0-2.6H523v-0.7l-0.7,0.7c0-0.4,0-0.9,0-1.3h-0.7c0-0.9,0-1.7,0-2.6c0.4,0,0.9,0,1.3,0v0.7h0.7
		H523h0.7v0.7h0.7c0,0.5,0,0.6,0.3,0.9c0.2,0.3,0.5,0.5,0.7,0.7c0.2,0.2,0.5,0.5,0.7,0.7c0.3,0.4,0.3,0.4,0.3,0.9c0.4,0,0.9,0,1.3,0
		v0.7h0.7v0.7h0.7c0,0.4,0,0.9,0,1.3h0.7c0,0.4,0,0.9,0,1.3h0.7v0.7h0.7c0,0.5,0,0.6,0.3,1c0.3,0.4,0.3,0.4,0.3,1h0.7v0.7h0.7v0.7
		h0.7v0.7c0.7,0,1.3,0,2,0c0,0.7-0.2,1.8,0,2.5c0.1,0.4,0.5,0.5,0.7,0.8c0.1,0.3,0,1,0,1.3h0.7c0,0.4,0,0.9,0,1.3h0.7v0.7
		c0.4,0,0.9,0,1.3,0v0.7c0.4,0,0.9,0,1.3,0v-0.7h0.7v-0.7h0.7c0,1.5,0,3,0,4.6h-0.7v0.7h-0.7v0.7h-0.7v0.7h0.7c0,0.4,0,0.9,0,1.3
		c0.4,0,0.9,0,1.3,0v0.7h-0.7v0.7c0.6,0,0.6,0,1,0.4c0.4,0.3,0.5,0.1,0.9,0.3c0.3,0.2,0.7,0.7,1,1c0.3,0.4,0.3,0.4,0.3,1h0.7v0.7
		h0.7v0.7h0.7v0.7c0.7,0,1.3,0,2,0v0.7h0.7c0,0.9,0.4,1.3,1.3,1.3v0.7c0.4,0,0.9,0,1.3,0v0.7c0.4,0,0.9,0,1.3,0v0.7
		c0.4,0,0.9,0,1.3,0v0.7c0.2,0,0.5-0.1,0.7,0c0.2,0.1,0.4,0.5,0.6,0.6c0.3,0.1,1,0,1.3,0v0.7c0.3,0,1,0.1,1.3,0
		c0.5-0.2,0.5-0.6,1-0.7c0.4-0.1,0.8,0.1,1.1-0.1c0.6-0.4,0.4-0.5,1.2-0.5v-0.7h0.7v-0.7h0.7v-0.7c0.4,0,0.9,0,1.3,0h-0.7v-0.7
		c-1.1,0-2.2,0-3.3,0c1.1,0,2.2,0,3.3,0c0.2,0.4,0.4,0.9,0.7,1.3c0.4,0.5,0.7,0.6,1.3,0.6c0,0.6-0.1,1.1,0.2,1.5
		c0.3,0.6,0.8,1.1,1.1,1.7c0.4,0,0.9,0,1.3,0v0.7h0.7v0.7c-0.4,0-0.9,0-1.3,0v0.7h-0.7v0.7h-0.7v0.7h-0.7v0.7c-0.5,0-0.6,0-1,0.3
		c-0.4,0.3-0.4,0.3-1,0.3v0.7h0.7h-0.7h0.7h-0.7c0,0.9,0,1.8,0,2.7c0,0.8,0.3,0.6,0.6,1.2c0.1,0.3,0,1,0,1.3h0.7v0.7
		c1.5,0,3,0,4.6,0v0.7c0.4,0,0.9,0,1.3,0v0.7c0.4,0,0.9,0,1.3,0v0.7c0.4,0,0.9,0,1.3,0v0.7c0.4,0,0.9,0,1.3,0v0.7c0.4,0,0.9,0,1.3,0
		v0.7c0.4,0,0.9,0,1.3,0v0.7c0.4,0,0.9,0,1.3,0v0.7c0.3,0,0.5,0,0.8,0.1c0.2,0.1,0.3,0.4,0.5,0.5c0.1,0.1,0.2,0,0.4,0
		c0.4,0.1,0.4,0.2,0.8,0.5c0.3,0.2,0.4,0.2,0.8,0.2v0.7h0.7c0,2.1,0,4.1,0.3,6.1c0.1,1,0.1,2.2,0.4,3.1c0.2,0.6,0.5,0.9,0.6,1.5
		c0,0.5,0,1.1,0,1.6c2.6,0,5.2,0,7.8,0v-0.7v0.7c-1.5,0-3,0-4.5,0c-0.9,0-1.8,0-2.7,0c-0.3,0-1.1-0.1-1.3,0
		c-0.3,0.2-0.4,0.5-0.8,0.6c-0.3,0.1-0.8,0-1.2,0c-0.8,0-1.6,0-2.3,0c-1.5,0-2.9,0-4.4,0c-1.4,0-2.9,0-4.3,0c0,0.4,0,0.9,0,1.3
		c1.3,0,2.4-0.2,3.6-0.5c1.2-0.2,2.3-0.2,3.5-0.2c2.2,0,4.4,0,6.6,0c0,0.9,0,1.7,0,2.6h0.7c0,2,0,3.9,0,5.9h0.7c0,1.2,0,2.5,0,3.7
		c0,0.6,0.1,1.3,0,1.9c-0.1,0.6-0.4,1.1-0.7,1.6h0.7v0.7c0.9,0,1.9-0.1,2.7,0c1.1,0.2,2,0.6,3.1,0.6c0,0.3,0,0.5,0.1,0.7
		c0.1,0.3,0.5,0.4,0.6,0.6c0.2,0.6,0,1.6,0,2.2c0,1,0,2,0,3c0,2.7,0,5.5,0,8.2c0,1.2,0,2.3,0,3.5H590v0.7h0.7L590,588v-0.7v0.7h-0.7
		l0.7,0.7h-0.7c0,1.3,0,2.6,0,3.9h0.7c0,0.4,0,0.9,0,1.3h0.7v0.7c-0.5,0-0.6,0-1,0.3c-0.4,0.3-0.4,0.3-1,0.3c-0.5,0-0.6,0-0.9,0.3
		c-0.5,0.4-0.4,0.4-1,0.4v0.7h-0.7v0.7h-0.7v0.7h-0.7c0,0.3-0.1,1,0,1.3c0.1,0.2,0.3,0.3,0.5,0.5c0.2,0.3,0.1,0.2,0.2,0.5
		c0.1,0.2,0,0.3,0.1,0.5c0.1,0.2,0.4,0.3,0.5,0.5c0.1,0.3,0,1,0,1.3h0.7c0,0.5,0,0.6,0.3,1c0.3,0.3,0.7,0.7,1,1l2-2
		c-1.5,1.5-3,3-4.6,4.6c0.5,0.5,1.1,1.1,1.6,1.6c0.5,0.5,1,0.3,1.6,0.3v-0.7h0.7v-0.7v0.7h0.7v0.7h0.7v0.7h0.7v0.7h-0.7
		c0-0.7-0.1-0.8-0.7-1.3v0.7v-0.7v0.7l-0.7-0.7l-0.7,0.7l0.7,0.7l0.7-0.7v0.7v-0.7c-0.5,0.5-0.7,0.6-0.7,1.3c0.7,0,0.8-0.1,1.3-0.7
		l-0.7,0.7h0.7c0,1.9-0.1,3.8,0.2,5.7c0.2,1,0.4,2,0.4,3c0,1,0,2,0,3c0,3.9,0,7.7,0,11.6c0,7.7,0,15.4,0,23.1c0,7,0,14,0,21.1
		c0,8.6,0,17.2,0,25.8c0,8.1,0,16.2,0,24.2c0,0.8,0,1.6,0,2.4c-3.3,0-6.5,0-9.8,0c-1.7,0-3.3,0-5,0c-1.1,0-2.2-0.1-3.3,0
		c-0.7,0.1-1.2,0.6-2,0.7c-6.5,0.1-13,0-19.5,0c-6.9,0-13.8,0-20.7,0c-6.8,0-13.6,0-20.4,0c-3.1,0-6.3,0-9.4,0c-1.7,0-3.5,0-5.2,0
		c-0.8,0-1.7,0-2.5,0c-0.7,0-0.6,0.2-1.1,0.5c-0.3,0.2-0.8,0.1-1.2,0.1c-0.4,0-0.7,0-1.1,0c-0.6-0.1-0.7-0.2-1.1-0.7
		c-0.4,0.4-0.5,0.6-1.1,0.7c-0.5,0-1,0-1.4,0c-0.8,0-1.7,0-2.5,0c-1.7,0-3.4,0-5.2,0c-3.5,0-7,0-10.5,0c-2,0-4,0-5.9,0
		c0-3.5,0-6.9,0-10.4c-0.7,0-0.6-0.1-1.1-0.5c-0.4-0.3-0.7-0.2-1.2-0.2c-0.8-0.1-1.5-0.4-2.2-0.7v-0.7h0.7c0-0.5-0.2-1.5,0-2
		c0.1-0.3,0.5-0.4,0.7-0.7c0.1-0.3-0.1-0.8,0-1.1c0.1-0.3,0.5-0.4,0.6-0.8c0.1-0.2,0-0.5,0-0.7c0-0.3-0.1-0.9,0-1.2
		c0.1-0.3,0.5-0.4,0.6-0.7c0.2-0.4,0-1.5,0-2c0-0.5,0-1,0-1.6c0.2-1.4,0.6-2.9,0.6-4.3c-0.9,0-1.7,0-2.6,0h0.7c0-0.6,0-1.2,0-1.8
		c0-0.9-0.1-0.9-0.7-1.5c-0.9-0.9-2.1-1.3-3.2-1.9v-0.7c-1.1,0-2.2,0-3.3,0v0.7c-0.4,0-0.9,0-1.3,0v0.7c-0.4,0-0.9,0-1.3,0v0.7
		c-0.7,0-0.8,0.1-1.3,0.7c-0.5,0.5-0.7,0.6-0.7,1.3c-0.8,0-1.1,0.2-1.3,1c-0.2,0.7-0.5,1-1.3,1v0.7h-0.7v0.7h-0.7v0.7h-0.7v0.7
		c-0.4,0-0.9,0-1.3,0c-0.2,0-0.5-0.1-0.6,0c-0.2,0.1-0.4,0.5-0.6,0.6c-0.6,0.3-1.9,0-2.6,0v0.7c-0.5,0-1.5,0.2-2,0
		c-0.3-0.1-0.4-0.5-0.7-0.6c-0.3-0.1-0.9,0-1.2,0c-1.3,0-2.6,0-4,0v-0.7h-0.7v0.7h-0.7v-0.7v0.7c-2.6,0-5.2,0-7.8,0
		c0-0.3,0.1-1,0-1.3c-0.2-0.6-0.7-0.4-0.7-1.2c0-0.9,0-1.8,0-2.7c0-1.8,0-3.5,0-5.3c2.6,0,5.2,0,7.8,0c0-4.6,0-9.1,0-13.7
		c-3.6,0-7.2,0-10.8,0c-0.4,0-0.9-0.1-1.3,0c-0.4,0.1-0.6,0.5-1,0.7c-0.8,0.2-1.9,0-2.7,0c-1.8,0-3.6,0-5.4,0c-2,0-4.1,0-6.1,0
		c0-1.2,0-2.3,0-3.5c0-0.6,0-1.1,0-1.7c0-0.5,0.1-1.3,0-1.8c-0.1-0.3-0.4-0.4-0.5-0.7c-0.2-0.3-0.1-0.4-0.1-0.8c0-0.6,0-1.1,0-1.7
		c0-1.2,0-2.3,0-3.5c-1.7,0-3.5,0-5.2,0v0.7c-0.7,0-1.3,0-2,0c-0.3,0.9-0.7,1.7-0.7,2.6c-0.8,0-1.3-0.3-2-0.7l0.7-2
		c-6.7,0-13.4,0-20,0c-0.5,0-0.9,0-1.4,0c-0.3,0-1.1-0.1-1.4,0c-0.2,0.1-0.3,0.5-0.6,0.6c-0.2,0.1-0.4,0.1-0.7,0.1
		c-0.5,0-0.9,0-1.4,0c0-0.7-0.1-1.1,0.3-1.6c0.4-0.5,0.3-1,0.3-1.6c0-0.9,0-1.8,0-2.6c0-2.6,0-5.2,0-7.8c-4.8,0-9.5,0-14.3,0
		c0-2.2,0-4.3,0-6.5c-1.7,0-3.5,0-5.2,0c0,1.1,0,2.2,0,3.3h-1.3c0,1.3,0,2.6,0,3.9c-2.4,0-4.8,0-7.2,0v0.7h0.7c0,2,0,3.9,0,5.9
		c-1.5,0-3,0-4.4,0c-0.5,0-1.6-0.2-2.1,0c-0.3,0.1-0.4,0.5-0.7,0.7c-0.3,0.1-0.9,0-1.2,0c0-0.7,0-1.3,0-2h-0.7v-0.7h0.7
		c0-0.4,0-0.8,0-1.2c0-0.5,0-0.6-0.3-1c-0.3-0.4-0.3-0.5-0.3-1c0-0.4,0-0.8,0-1.3c-1.3,0-2.6,0-3.9,0c-0.3,0-0.6,0-0.9,0
		c-0.5,0-0.4,0.2-0.9,0.5c-0.5,0.3-1.2,0.2-1.8,0.2c-2.5,0-5.1,0-7.6,0c-2.6,0-5.2,0-7.9,0c-1.2,0-2.5,0-3.7,0c-0.3,0-0.8-0.1-1.1,0
		c-0.4,0.1-0.4,0.4-0.8,0.6c-0.5,0.2-1.3,0.1-1.8,0.1c-2.9,0-5.8,0-8.7,0c0-4.6,0-9.1,0-13.7c1.7,0,3.5,0,5.2,0c0.9,0,1.8,0,2.6,0
		c0.3,0,1,0.1,1.2,0c0.2-0.1,0.3-0.4,0.5-0.5c0.3-0.1,0.4-0.1,0.7-0.1c3.5,0,6.9,0,10.4,0c2,0,4,0,5.9,0c0-2.1,0-4.3,0-6.4
		c0-1,0-2.1,0-3.1c0-0.8,0.3-2.3-0.1-3c-0.1-0.2-0.4-0.3-0.5-0.5c-0.1-0.2,0-0.5,0-0.7c0-0.6,0-1.2,0-1.8c0-1,0-2.1,0-3.1
		c0-2.1,0-4.1,0-6.2c0-2.4,0-4.7,0-7.1h-0.7c0-3,0-6.1,0-9.1c3.9,0,7.8,0,11.7,0l0.7,3.3h1.3c0,0.8,0,1.7,0,2.5c0,0.4,0,0.9,0,1.3
		c0,0.6,0,0.6,0.3,1c0.3,0.4,0.3,0.5,0.3,1c0,0.4,0,0.8,0,1.3c0,0.9,0,1.7,0,2.6c4.6,0,9.1,0,13.7,0c0-0.7,0-1.3,0-2
		c4.6,0,9.1,0,13.7,0c0-1.1,0-2.1,0-3.2c0-0.9,0.2-2.3,0-3.2c-0.2-0.6-0.7-0.6-0.7-1.3c0-0.5,0-1,0-1.5c0-1.1,0-2.1,0-3.2
		c4.6,0,9.1,0,13.7,0c0-5.4,0-10.8,0-16.2c0-0.6,0-1.3,0-1.9c0-0.5,0.2-1.5,0-2c-0.1-0.3-0.5-0.4-0.7-0.7c-0.1-0.2,0-0.7,0-0.9
		c0-0.7,0-1.4,0-2.2c0-2.7,0-5.3,0-8c0-3,0-6.1,0-9.1c-0.7,0-1.6-0.1-2.3,0c-0.5,0.1-0.5,0.4-0.9,0.6c-0.3,0.1-0.8,0-1.1,0
		c-1.5,0-2.9,0-4.4,0c-3,0-6,0-9,0c-1.5,0-3,0-4.6,0c-0.7,0-1.6-0.2-2.1,0.3c-0.5,0.4-0.4,0.4-1,0.4c-0.4,0-0.8,0-1.1,0
		c-2.9,0-5.9,0-8.8,0c-3.4,0-6.9,0-10.3,0v0.7c-4.8,0-9.5,0-14.3,0c-1.2,0-2.4,0-3.6,0c-0.6,0-1.1,0-1.7,0c-0.5,0-0.5,0-0.8,0.3
		c-0.3,0.2-0.3,0.3-0.6,0.4c-1.1,0.2-2.5,0-3.6,0c-1.2,0-2.5,0-3.7,0c-2.7,0-5.4,0-8,0c0-4.9,0-9.8,0-14.7c0-0.5,0.1-1.2-0.1-1.7
		c-0.2-0.3-0.4-0.4-0.5-0.8c-0.1-0.3,0-0.7,0-1c0-1.2,0-2.4,0-3.6c0-2.5,0-4.9,0-7.4c0-2.4,0-4.8,0-7.3c0-0.4,0-0.5-0.2-0.8
		c-0.3-0.4-0.4-0.3-0.5-0.8c-0.1-0.6,0-1.3,0-1.9c0-1.2,0-2.5,0-3.7c0-2.4,0-4.9,0-7.3c0-1.3,0-2.5,0-3.8c0-1.3-0.5-2.5-0.6-3.8
		c-0.3-2.3,0-4.7,0-7c0-2.5,0-5,0-7.5c0-0.6,0-1.3,0-1.9c-2.2,0-4.4,0-6.6,0c-1.1,0-2.2,0-3.2,0c-1.2,0-2.2-0.1-3.4,0.3
		c-2.1,0.7-4.3,0.4-6.5,0.4c-2.3,0-4.7,0-7,0c-2.4,0-4.8,0-7.2,0v0.7c-3.2,0-6.4,0-9.5,0c-1.6,0-3.1,0-4.7,0c-0.8,0-1.6,0-2.3,0
		c-0.6,0-1.8-0.2-2.3,0c-0.4,0.2-0.4,0.5-0.9,0.6c-0.4,0.1-0.8,0-1.1,0c-0.8,0-1.6,0-2.5,0c-1.5,0-3.1,0-4.6,0c-3.2,0-6.4,0-9.6,0
		c-0.9,0-1.8,0-2.7,0c-0.9,0-1.7-0.1-2.5,0.3c-1.5,0.7-3.6,0.4-5.3,0.4c0-3,0-6.1,0-9.1h-0.7c0-4.6,0-9.1,0-13.7c0-1.3,0-2.6,0-3.9
		h-0.7c0-4.8,0-9.6,0-14.4c0-1.5,0-3,0-4.4h0.7v-0.7c0.3,0,0.6,0,0.9,0c0.5,0,0.4-0.1,0.9-0.5c0.3-0.2,0.4-0.1,0.8-0.2
		c0.3-0.1,0.4-0.5,0.7-0.6c0.3-0.1,0.7,0,1,0c0.5,0,0.4-0.1,0.8-0.4c0.5-0.4,1-0.3,1.6-0.3c2.5,0,5.1,0,7.6,0c0.2,0,0.6,0.1,0.8,0
		c0.3-0.1,0.4-0.5,0.7-0.7c0.5-0.2,1.4,0,1.9,0c1.3,0,2.5,0,3.8,0c2.4,0,4.9,0,7.3,0c2.8,0,5.6,0,8.4,0v-0.7c4,0,8.1,0,12.1,0
		c2,0,4,0,6,0c0.8,0,2.2,0.2,2.8-0.1c0.6-0.4,0.4-0.5,1.2-0.5c0.6,0,1.1,0,1.7,0c2.2,0,4.5,0,6.7,0c0-0.4,0-0.9,0-1.3h-0.7
		c0-6,0-12,0-18c0-1.6,0-3.2,0-4.8l1.3-0.7v-0.7c1.8-0.6,3.5-1.2,5.2-2c0.9-0.4,1.9-0.8,2.8-1.1c0.8-0.3,1.5-0.8,2.4-0.8
		c0-0.5,0.1-1.1,0-1.6c-0.1-0.5-0.5-0.6-0.7-1.1c-0.1-0.4,0-1,0-1.4c0-0.5,0-1,0-1.6c0-2,0-4,0-6.1c3,0,6.1,0,9.1,0
		c-0.3-3.5-0.7-7-0.7-10.5c0-3.5,0-7.1,0-10.6c0-2.1,0-4.1,0-6.2h-0.7c0-3.7,0-7.4,0-11.1c0-0.8,0.1-1.8,0-2.6
		c-0.1-0.8-0.6-1.5-0.7-2.4c-0.1-1.9,0-3.8,0-5.7c0-3.4,0-6.8,0-10.3c0-0.8,0-1.7-0.1-2.5c-0.2-0.9-0.5-1.9-0.5-2.9
		c-0.1-1.8,0-3.6,0-5.4c0-4,0-8,0-12c-0.8,0-1.6,0.2-2.4,0.4c-0.7,0.2-1.4,0.2-2.2,0.2c-1.6,0-3.2,0-4.8,0c-3.2,0-6.3,0-9.5,0
		c-1.6,0-3.1,0-4.7,0c-0.9,0-1.5,0.1-2.4,0.4c-0.8,0.3-1.4,0.3-2.2,0.3c-3.2,0-6.3,0-9.5,0c-3.5,0-7.1,0-10.6,0c0-4,0-8.1,0-12.1
		c0-1,0-2,0-3c0-0.5,0-1.1,0-1.6c0-0.4,0.2-1.2,0-1.5c-0.1-0.2-0.4-0.3-0.5-0.5c-0.1-0.2-0.1-0.4-0.1-0.7c0-0.5,0-1,0-1.4
		c0-1,0-2.1,0-3.1c0-4.1,0-8.1,0-12.2c0-1-0.2-2-0.4-3c-0.2-0.9-0.2-1.8-0.2-2.7c0-2.1,0-4.2,0-6.2c0-2,0-3.9,0-5.9
		c0-1.1,0-2.2,0-3.2c0-0.5,0-0.9,0-1.4c0-0.2,0-0.5,0-0.6c-0.1-0.3-0.5-0.4-0.6-0.7c-0.1-0.4,0-1.1,0-1.5c0-0.6,0-1.1,0-1.7
		c0-1,0-1.9,0-2.9c0-2,0-3.9,0-5.9c0-2.1,0-4.2,0-6.3c0-0.9,0.3-2.2-0.3-2.9c-0.6-0.7-2.1-0.4-3-0.4c-4,0-8,0-11.9,0
		c-1,0-2.1,0-3.1,0c-0.6,0-0.9,0.2-1.5,0.5c-0.5,0.2-0.8,0.2-1.3,0.2c-2.1,0-4.1,0-6.2,0c-4.1,0-8.1,0-12.2,0c-0.9,0-1.9,0-2.8,0
		c0-2.8,0-5.6,0-8.5h-0.7c0-5.6,0-11.2,0-16.8c0-1.6,0-3.1,0-4.7h-0.7c0-4.6,0-9.2,0-13.8c0-1.3,0-2.5,0-3.8c-4.1,0-8.2,0-12.4,0
		v0.7c-0.4,0-0.9,0-1.3,0c0-1.3,0-2.5,0-3.8c0-0.2,0.1-0.6,0-0.8c-0.1-0.3-0.5-0.4-0.6-0.7c-0.2-0.4,0-1.4,0-1.9c-2,0-3.9,0-5.9,0
		v0.7c-5.8,0-11.7,0-17.5,0c-0.7,0-1.4,0-2.1,0c-0.5,0-0.6,0-0.9,0.3c-0.4,0.3-0.4,0.3-1,0.3c-1.5,0-3,0-4.5,0c-2.9,0-5.7,0-8.6,0
		c-1.7,0-3.4,0-5,0c-0.4,0-0.7,0-1-0.2c-0.3-0.2-0.8-0.7-1-1c-0.2-0.3-0.1-0.6-0.3-0.9c-0.3-0.5-0.6-0.5-1.2-0.5
		c0-0.8-0.5-1.2-0.7-2c-0.1-0.3,0-0.6-0.1-0.9c-0.1-0.5-0.3-0.9-0.5-1.4c-0.1-0.3,0-0.6-0.1-0.9c-0.1-0.3-0.3-0.7-0.5-1
		c-0.3-0.6-0.2-1.3-0.2-2c0-0.3,0.1-0.7,0-1c-0.1-0.4-0.5-0.8-0.6-1.2c-0.2-0.6,0-1.2-0.3-1.8c-0.1-0.3-0.4-0.6-0.5-1
		c-0.1-0.4,0.1-0.8,0-1.2c-0.1-0.6-0.3-1.5-0.7-2c-0.2-0.4-0.6-0.5-0.7-0.9c-0.1-0.3,0-0.8,0-1.1c0-0.8,0-1.7,0-2.5h0.7
		c0-0.7,0-1.3,0-2h0.7v-0.7l10.4-0.7c0-2.4,0-4.8,0-7.2l-16.3,0.7c0-0.2,0.1-0.5,0-0.7c-0.1-0.3-0.5-0.4-0.6-0.6
		c-0.2-0.4,0-1.3,0-1.8c0-0.5,0-1,0-1.5c0-0.3,0-0.5,0.1-0.7c0.2-0.3,0.4-0.4,0.5-0.7c0.1-0.4,0-0.4,0.3-0.8
		c0.2-0.2,0.4-0.4,0.6-0.6c0.2-0.2,0.4-0.3,0.5-0.6c0.1-0.3-0.1-0.6,0-0.9c0.1-0.3,0.2-0.3,0.4-0.6c0.3-0.4,0.1-0.3,0.3-0.8
		c0.1-0.3,0.4-0.4,0.5-0.7c0.2-0.3,0.1-0.4,0.1-0.7c0.1-0.5,0.5-0.9,0.7-1.4c0.1-0.5,0-1.2,0-1.8c0-0.7,0.1-1,0.4-1.6
		c0.3-0.6,0.2-1,0.2-1.6c0-0.6,0.3-1.1,0.5-1.6c0.2-0.5,0.2-1,0.2-1.5c0-0.5,0-1.1,0-1.6c0-0.2,0.1-0.5,0-0.7
		c-0.1-0.2-0.5-0.4-0.6-0.6c-0.1-0.2-0.1-0.9,0-1.1c0.1-0.3,0.4-0.4,0.5-0.7c0.2-0.3,0.1-0.5,0.1-0.8c0.1-0.3,0.3-0.6,0.5-0.9
		c0.5-1,0.2-2.5,0.2-3.6h-0.7v-0.7c-0.3,0-0.5,0-0.8-0.1c-0.2-0.1-0.3-0.4-0.6-0.5c-0.4-0.1-0.6,0-0.8,0.3c-0.3,0.3-0.3,0.3-0.7,0.4
		c-0.4,0.1-0.3,0.1-0.7,0.4c-0.4,0.3-0.3,0.1-0.8,0.3c-0.6,0.2-0.8,0.7-0.8,1.3c-0.4,0-0.9,0-1.3,0v-0.7c-0.5,0-0.6,0-1-0.3
		c-0.4-0.3-0.4-0.3-1-0.3v-0.7h-0.7c0-0.5,0-0.6-0.3-1c-0.3-0.4-0.3-0.4-0.3-1c-0.9,0-1.8-0.1-2.6,0.3c-0.8,0.4-1.6,0.3-2.6,0.3
		c-1.7,0-3.5,0-5.2,0c-1.7,0-3.5,0-5.2,0c-1,0-1.9,0-2.9,0c-0.9,0-1.5,0.2-2.3,0.4c-0.8,0.3-1.6,0.2-2.5,0.2c-1.1,0-2.2,0-3.4,0
		c0,7.6,0,15.3,0,22.9c0,0.6-0.1,1,0.2,1.6c0.3,0.6,0.5,0.9,0.5,1.6c0,1.1,0,2.2,0,3.3c-1.6,0-3-0.3-4.6-0.7v0.7v-0.7
		c-1.1,0-2.1,0-3.2,0c-0.7,0-1-0.1-1.7-0.5c-0.5-0.2-0.9-0.2-1.5-0.2c-0.5,0-1,0-1.5,0c-0.2,0-0.5,0.1-0.7,0
		c-0.2-0.1-0.4-0.5-0.6-0.6c-0.4-0.2-1.1,0-1.5,0c-0.6,0-1.2,0-1.7,0c0,4.6,0,9.1,0,13.7c-1,0-2,0-3,0c-0.8,0-1.9-0.2-2.7,0
		c-0.4,0.1-0.5,0.5-0.8,0.7c-0.3,0.1-1,0-1.3,0c-0.9,0-1.8,0-2.7,0c-0.9,0-1.8,0-2.7,0c-0.5,0-1.1,0-1.6,0c-0.6,0-0.6,0-1.1-0.4
		c-0.4-0.3-0.6-0.2-1-0.3c-0.6-0.1-1.1-0.4-1.7-0.6c-0.9-0.3-1.9-0.4-2.8-0.6c-0.9-0.2-1.7-0.5-2.5-0.8c-1.1-0.3-2.2-0.4-3.2-0.6v2
		l-3.3-1.3c0-1.5,0-3.1,0-4.6c0-0.4,0-0.8,0-1.2c0-0.5,0-0.6-0.3-1c-0.4-0.4-0.3-0.4-0.3-1c0-0.4,0-0.8,0-1.3h-0.7v-0.7
		c-0.4,0-0.9,0-1.3,0v-0.7c-0.8,0-1.7,0.1-2.5,0c-0.7-0.1-1.4-0.4-2.1-0.7v-0.7c-1.1,0-2.2,0-3.3,0c0,2.8,0,5.6,0,8.5
		c-0.4-0.2-0.9-0.6-1.4-0.7c-0.2,0-0.5,0-0.7-0.1c-0.3-0.1-0.6-0.4-1-0.5c-0.4-0.2-0.8-0.1-1.3-0.3c-0.6-0.3-0.9-0.5-1.6-0.5
		c0-2.6,0-5.2,0-7.8c-0.5,0-1.1,0.1-1.5-0.2c-0.3-0.2-0.3-0.4-0.6-0.5c-0.2-0.1-0.5,0-0.7,0c-1.1-0.2-2.1-0.6-3.3-0.6
		c-0.7,0-1.2,0.1-1.6-0.5c-0.2-0.4-0.1-1-0.1-1.5c0-1.1,0-2-0.2-3.1c-0.2-1.4-0.5-2.6-0.5-4h-3.3v-3.9c-1,1-2,2-3.1,3.1
		c-0.4,0.4-1,1.3-1.6,1.5c-0.7,0.2-1.8,0-2.5,0c0-8,0-16.1,0-24.1c0-6.2,0-12.4,0-18.7c0-4,0-7.9,0-11.9c0.4,0,0.9,0,1.3,0
		c0-0.5-0.2-1.4,0-1.9c0.1-0.2,0.4-0.4,0.5-0.6c0.2-0.3,0.1-0.5,0.1-0.8c0-0.3,0-0.5,0.1-0.7c0.1-0.3,0.5-0.4,0.6-0.6
		c0.2-0.5,0-1.4,0-1.9h0.7c0-0.4,0-0.9,0-1.3h0.7c0-0.3-0.1-1,0-1.3c0.1-0.2,0.5-0.3,0.6-0.6c0.1-0.2,0-0.5,0-0.7h0.7
		c0-0.4,0-0.9,0-1.3h0.7V71h0.7c0-0.4,0-0.9,0-1.3c0.9,0,1.3-0.4,1.3-1.3h0.7v-0.7h0.7v-0.7h0.7c0-0.9,0.4-1.3,1.3-1.3v-0.7h0.7
		v-0.7h0.7v-0.7H21c0,1.1,0,2.2,0,3.3c2.2,0,4.3,0,6.5,0c0,0.9,0,1.7,0,2.6c0.6,0,1.3,0.1,1.9,0c0.5-0.1,0.9-0.5,1.4-0.7
		c1.1-0.2,2.7,0,3.8,0c0-2.4,0-4.8,0-7.2c3,0,6.1,0,9.1,0c0-2.4,0-4.8,0-7.2h0.7c0,1.7,0,3.5,0,5.2l0.7-0.7c0,0.9,0,1.7,0,2.6
		c1.2,0,2.4,0,3.6,0c0.6,0,1.3,0.1,1.9,0c0.5-0.1,0.4-0.2,0.8-0.5c0.3-0.2,0.4-0.2,0.8-0.2c0-2.2,0-4.3,0-6.5c1.3,0,2.7-0.2,3.9,0.2
		c1.3,0.4,2.6,1.1,3.9,1.1v0.7c0.9,0.3,1.8,0.5,2.7,0.8c0.8,0.2,1.6,0.3,2.2,0.9c0.4,0.4,0.6,0.1,1,0.4c0.2,0.1,0.3,0.5,0.6,0.6
		c0.2,0.1,0.4,0,0.6,0c0.3,0.1,0.6,0.5,0.8,0.8c0.5,0.5,0.5,0.5,1.2,0.5v-0.7v0.7c0.7,0,1.3,0,2,0c0,1.7,0,3.5,0,5.2
		c0.4,0,0.9,0,1.3,0c0-0.7,0-1.3,0-2c1.5,0,4.6-0.2,4.6,2h-0.7c0,0.4,0,0.9,0,1.3c-2.4,0-4.6-0.1-7,0.3c-1.2,0.2-2.3,0.4-3.5,0.4
		c-0.5,0-1.4,0.2-1.9,0c-0.4-0.1-0.9-0.7-1.2-0.9c-0.7-0.5-1.3-1-2-1.6c-0.5-0.5-0.8-0.7-0.8-1.4c-0.9,0-1.7,0-2.6,0v0.7
		c1.6,0.8,3.1,1.8,4.6,2.7c0.5,0.3,1.2,1,1.9,1.2c0.7,0.2,1.8,0,2.6,0v2c1.2,0.2,2.4,0.6,3.6,0.7c0.7,0,1.4,0,2.1,0
		c0.7,0,1,0.2,1.7,0.5c0.6,0.3,1.1,0.2,1.7,0.2c0.4,0,0.5,0,0.8,0.2c0.5,0.3,0.3,0.4,0.9,0.5c0.6,0,1.2-0.1,1.8,0
		c0.5,0.1,0.4,0.1,0.8,0.4c0.4,0.3,0.4,0.3,0.9,0.3c1.5,0,2.5,1.3,3.9,1.3c0,2,0,3.9,0,5.9c2,0,3.9,0,5.9,0c0.5,2.4,1,4.7,1.7,7
		c0.3,1.1,0.6,2.3,0.9,3.4c0.4,1.2,0.9,2.4,1.2,3.7c0.1,0.5,0,1,0.1,1.5c0.1,0.6,0.4,1.3,0.6,1.9h2c0,1.1,0,2.2,0,3.3
		c0,0.6-0.1,1.2,0,1.8c0.1,0.6,0.4,1.2,0.5,1.7c0.2,0.5,0,1,0.1,1.5c0.1,0.5,0.5,0.9,0.7,1.4c0.1,0.3,0,0.7,0.1,1.1
		c0.1,0.6,0.3,1.3,0.4,1.9c0.3,1.4,0.5,2.8,0.8,4.1c-0.9,0-1.7,0-2.6,0c0,1.7,0,3.5,0,5.2c1.5,0,3.3,0.3,4.7-0.1
		c0.8-0.2,1.5-0.6,2.4-0.6c0.9,0,1.8,0,2.7,0v0.7c0.3,0,0.8,0.1,1.2,0c0.3-0.1,0.5-0.4,0.8-0.7v0.7c2.4,0,4.8,0,7.2,0
		c0-0.2-0.1-0.5,0-0.7c0.1-0.2,0.5-0.4,0.6-0.6c0.1-0.3,0-1,0-1.4c0-0.7,0.2-0.8,0.7-1.2c0.5-0.5,0.7-0.6,0.7-1.3
		c0.4-0.2,1-0.4,1.3-0.7c0.3-0.3,0.5-0.9,0.7-1.3c0.2-0.4,0.4-0.9,0.7-1.3c0.4-0.6,0.6-0.5,0.6-1.3c0.6-0.4,1.2-0.8,1.8-1.2
		c0.4-0.3,1.1-0.9,1.4-1.3c0.3-0.6-0.1-1.1,0.3-1.6c0.3-0.4,0.4-0.4,0.4-1c0-0.3,0-0.5,0-0.8c-0.2-0.8-0.6-1.1-0.6-2
		c0-0.8-0.5-1.1-0.6-1.8c-0.1-0.6,0-1.3,0-1.9c0-0.7,0-1.3,0-2h0.7c0-0.3-0.1-1,0-1.3c0.1-0.2,0.5-0.4,0.6-0.6c0.1-0.2,0-0.5,0-0.7
		c0-0.5,0-0.9,0-1.4c0-0.7-0.2-0.8-0.7-1.2c0.2,0,0.5-0.1,0.7,0c0.2,0.1,0.3,0.4,0.5,0.5c0.3,0.2,0.8,0.1,1.2,0.1
		c0.4,0,0.7,0,1.1,0.2c0.5,0.4,0.4,0.5,1.1,0.5c1.7,0,3.4,0,5.2,0v0.7c0.6,0,1.1,0,1.7,0c0.2,0,0.6-0.1,0.8,0
		c0.3,0.1,0.4,0.5,0.6,0.6c0.4,0.2,1.1,0,1.6,0c0.6,0,1.1,0,1.7,0v0.7c1.1,0,2,0.2,3.1,0.4c0.9,0.2,1.8,0.2,2.8,0.2
		c0.8,0,0.6,0.1,1.2,0.5c0.4,0.2,0.9,0.1,1.4,0.1c0.4,0,0.9-0.1,1.3,0c0.5,0.1,0.9,0.6,1.3,0.7c0.5,0.1,1,0,1.5,0
		c0.6,0,0.9,0.3,1.5,0.5c0.5,0.2,1,0.3,1.5,0.3c2.6,0.5,5.1,0.9,7.7,1.4c2,0.4,4.1,1,6.1,1c0-0.9,0-1.8,0-2.6c0-0.8,0.2-0.6,0.6-1.2
		c0.2-0.3,0.1-0.9,0.1-1.3c0-1.8,0-3.5,0-5.3h0.7c0-2.2,0-4.3,0-6.5h0.7c0-1.7,0-3.5,0-5.2h0.7c0-7.3,0-14.6,0-21.9c0-2,0-4.1,0-6.1
		c0.7,0,1.3,0,2,0c0-0.4,0-0.9,0-1.3H174c0-2.2,0-4.3,0-6.5c-0.4,0-0.9,0-1.3,0c0-2,0-3.9,0-5.9c1.3,0,2.6,0,3.9,0
		c0.7,0,1.4,0,2.1,0c0.5,0,1.4,0.2,1.8,0c0.3-0.1,0.4-0.5,0.7-0.6c0.3-0.1,0.9,0,1.2,0c0.7,0,1.3,0,2,0c1.3,0,2.6,0,3.9,0
		c1.5,0,3,0,4.6,0c0,4.4,0,8.9,0,13.3c0,4.4,0,8.7,0,13.1c0,2.5,0,5,0,7.5c0.7,0,1.3,0,2,0v-1.3c2,0,3.9,0,5.9,0V69h2l0.7,1.3
		c1.1,0,2.2,0,3.3,0c0-0.7,0-1.3,0-2c1.6,0,3.2,0,4.8,0c0.8,0,1.6,0,2.4,0c0.6,0,0.7,0,1.1,0.5c0.3,0.3,0.6,0.6,0.8,0.8V69
		c1.3,0,2.1-1.2,3.2-1.9c1-0.6,2.2-1.1,3.2-1.6c1-0.5,1.7-1.1,2.6-1.8c0.4-0.3,0.9-0.9,1.4-1.2c0.2-0.1,0.5,0.1,0.7,0
		c0.2-0.1,0.5-0.5,0.7-0.7c-0.3-0.3-0.6-0.6-0.8-0.8c-0.4-0.4-0.5-0.5-0.5-1.1h-0.7c0-0.5,0-0.6-0.3-1c-0.3-0.4-0.3-0.4-0.3-1h-0.7
		c0-0.5,0-0.6-0.3-1c-0.3-0.4-0.3-0.4-0.3-1h-0.7c0-0.5,0-0.6-0.3-1c-0.3-0.4-0.3-0.4-0.3-1h-0.7c0-0.4,0-0.9,0-1.3h-0.7v-0.7h-0.7
		c0-0.4,0-0.9,0-1.3h-0.7v-0.7h-0.7c0-0.4,0-0.9,0-1.3h-0.7v-0.7c1.1,0,2.2,0,3.3,0c0.3,0,0.5,0,0.7-0.1c0.2-0.1,0.3-0.4,0.6-0.5
		c0.5-0.2,1.3,0,1.8,0c2.2,0,4.4,0,6.6,0c0-2,0-3.9,0-5.9c1.1,0,2.2,0,3.3,0c0,1,0,2.1,0,3.1c0,0.2,0.1,0.5,0,0.7
		c-0.1,0.2-0.4,0.4-0.5,0.6c-0.2,0.4-0.1,1-0.1,1.4c1.6,0,3.2-0.1,4.8,0c0.4,0,0.8,0.2,1,0.6c0.1,0.3,0,0.8,0,1.1
		c0.1,0.4,0.5,0.5,0.7,0.9c0.1,0.3,0,1,0,1.3h0.7c0,0.4,0,0.9,0,1.3h0.7c0,0.7,0,1.3,0,2h0.7c0,0.7-0.1,1.1,0.3,1.6
		c0.4,0.5,0.3,1,0.3,1.6h0.7v0.7l0.7-0.7l0.7,3.3c0.3,0,0.5,0,0.8,0.1c0.2,0.1,0.3,0.4,0.5,0.5c0.1,0.1,0.2,0,0.4,0
		c0.4,0.1,0.4,0.2,0.8,0.5c0.3,0.2,0.4,0.2,0.8,0.2v0.7c0.5,0,0.6,0,1,0.3c0.4,0.3,0.4,0.3,1,0.3c0-0.4,0-0.9,0-1.3
		c-0.4,0-0.9,0-1.3,0v-0.7c-0.8,0-1.3-0.4-1.3-1.2c0-0.7,0-1.3,0-2c0-1.3,0-2.6,0-4c2.6,0,5.2,0,7.8,0c0,3.9,0,7.8,0,11.7h-0.7v0.7
		c0.5,0,0.6,0,1,0.3c0.4,0.3,0.4,0.3,1,0.3v0.7c0.4,0,0.9,0,1.3,0V69c0.5,0,0.6,0,1,0.3c0.4,0.3,0.4,0.3,1,0.3v0.7
		c0.4,0,0.9,0,1.3,0V71h0.7v0.7c0.4,0,0.9,0,1.3,0v0.7c0.5,0,0.6,0,1,0.3c0.3,0.3,0.6,0.4,1,0.7c0.4,0.2,0.6,0.3,0.9,0.6
		c0.4,0.4,0.5,0.4,1,0.4v0.7c7.4,0,14.7,0,22.1,0c7.6,0,15.2,0,22.8,0c3.9,0,7.8,0,11.8,0v-0.7c1.5,0,3,0,4.6,0c0-4.9,0-9.9,0-14.8
		c0-1.8,0-3.6,0-5.4c0-1.2-0.1-2.6,0-3.8c0.1-1.2,0.7-2.3,0.7-3.5c0-1.3,0-2.6,0-3.9c0-3,0-5.9,0-8.9c1.7,0,3.4,0,5.2,0
		c0.7,0,2,0.2,2.6,0c0.4-0.1,0.5-0.6,0.9-0.7c0.4-0.1,0.8,0,1.2,0c3.4,0,6.8,0,10.2,0c2,0,3.9,0,5.9,0v-0.7c0.7,0,1.6-0.2,2.2,0.3
		c0.5,0.4,0.4,0.4,1,0.4c0.4,0,0.8,0,1.2,0c1.5,0,3,0,4.5,0c3.1,0,6.2,0,9.3,0c1.7,0,3.5,0,5.2,0c0-0.5,0-0.6-0.3-1
		c-0.3-0.3-0.5-0.5-0.8-0.8c-0.6-0.6-1.2-1.2-1.8-1.8c-0.5-0.5-0.6-1.2-1.1-1.7c-0.1-0.2-0.4-0.3-0.5-0.5c-0.1-0.2,0-0.3-0.1-0.5
		c-0.1-0.4-0.3-0.6-0.7-0.9c5.4,0,10.9,0,16.3,0c0,0.4,0,0.9,0,1.3h0.7V28h0.7v0.7h-0.7h0.7V29.3z M144.7,119.2v0.7
		c1.7,0,3.5,0,5.2,0c0,1.5,0,3,0,4.6c0.7,0,1.3,0,2,0v2c-2.4,0-4.8,0-7.2,0c0-1.1,0-2.2,0-3.3c-2.2,0-4.3,0-6.5,0
		c0,3.5,0,6.9,0,10.4c2.3,0,4.7,0,7,0c0.5,0,1.1,0.1,1.7,0c0.4,0,0.4,0,0.7-0.3c0.4-0.3,0.3-0.3,0.8-0.4c1.1-0.1,2.4,0,3.5,0
		c0,4.6,0,9.1,0,13.7c2,0,3.9,0,5.9,0c0,1.1,0,2.2,0,3.3h0.7c0,3.5,0,6.9,0,10.4c0.5,0,1.2,0.1,1.7,0c0.4-0.1,0.4-0.2,0.7-0.5
		c0.3-0.2,0.4-0.2,0.8-0.2c1.1,0,2.2,0,3.4,0c2.3,0,4.6,0,6.9,0c1.1,0,2.3,0,3.4,0c0.5,0,1.1,0.1,1.5-0.1c0.3-0.2,0.4-0.4,0.7-0.5
		c0.3-0.1,0.7,0,1,0c2.2,0,4.5,0,6.7,0c2.6,0,5.2,0,7.7,0c0-0.9,0-1.7,0-2.6h0.7v-0.7c0.4,0,0.9,0,1.3,0V155c0.5,0,0.6,0,1-0.3
		c0.3-0.3,0.6-0.4,1-0.7c0.4-0.2,0.6-0.3,0.9-0.6c0.4-0.4,0.5-0.4,1-0.4v-0.7c0.8,0,1.3-0.3,2-0.7v-0.7c0.5,0,0.6,0,1-0.3
		c0.4-0.3,0.4-0.3,1-0.3v-0.7c0.5,0,0.6,0,1-0.3c0.4-0.3,0.4-0.3,1-0.3v-0.7c0.4,0,0.9,0,1.3,0v-0.7c0.5,0,0.6,0,1-0.3
		c0.4-0.3,0.4-0.3,1-0.3v-0.7c0.5,0,0.6,0,1-0.3c0.4-0.3,0.4-0.3,1-0.3v-0.7c0.2,0,0.5,0.1,0.7,0c0.2-0.1,0.4-0.5,0.6-0.6
		c0.3-0.1,1,0,1.4,0c1,0,2.1,0,3.1,0c2,0,4,0,5.9,0c0-0.5,0.1-1-0.1-1.4c-0.1-0.2-0.4-0.3-0.5-0.6c-0.1-0.2,0-0.5,0-0.8
		c0-1,0-2.1,0-3.1h0.7c0-1.9,0-3.8,0-5.7c0-0.9,0-1.8,0-2.8c0-0.5-0.1-1-0.6-1.3c-0.3-0.1-1,0-1.3,0v-0.7c-2.6,0-5.3,0-7.9,0
		c-1.4,0-2.7,0-4.1,0c-0.6,0-1.4-0.1-1.9,0.1c-0.4,0.3-0.4,0.5-0.8,0.5c-0.3,0-0.7,0-1,0c-1.5,0-3,0-4.6,0v0.7c-2.2,0-4.3,0-6.5,0
		c0-3.9,0-7.8,0-11.7c-1.2,0-2.3,0-3.5,0c-0.5,0-1.3-0.2-1.7,0c-0.3,0.1-0.4,0.5-0.7,0.7c-0.2,0.1-0.6,0-0.8,0c-2.3,0-4.7,0-7,0
		c0,2.2,0,4.3,0,6.5c-0.4,0-0.9,0-1.3,0v0.7c-0.4,0-0.9,0-1.3,0c0-1.7,0-3.5,0-5.2h-0.7c0-0.7,0-1.3,0-2c-0.9,0-1.8,0-2.6,0
		c-0.4,0-0.9,0-1.3,0c-0.8,0-0.6,0.3-1.2,0.6c-0.6,0.3-1.9,0-2.6,0c-0.9,0-1.8,0-2.7,0c0,0.4,0,0.9,0,1.3c-0.7,0-1.3,0-2,0v0.7
		c-1.7,0-3.5,0-5.2,0c0-0.7,0-1.3,0-2c-0.7,0-1.3,0-2,0c0-0.7,0-1.3,0-2h-0.7v-0.7c-1.3,0-2.6,0-3.9,0c0,0.4,0,0.9,0,1.3
		c-2.4,0-4.8,0-7.2,0C144.7,118.3,144.7,118.7,144.7,119.2z M156.4,100.9v0.7h-0.7c0,0.4,0,0.9,0,1.3c-0.7,0-1.3,0-2,0
		c0,1.1,0,2.2,0,3.3c0.4,0,0.9,0,1.3,0c-0.4,0-0.9,0-1.3,0v0.7c2.8,0,5.6,0,8.5,0v0.7h0.7c0,0.7,0,1.3,0,2h0.7h-0.7
		c0,0.4,0,0.9,0,1.3c-0.7,0-1.3,0-2,0c0,0.7,0,1.3,0,2h0.7c0,0.4,0,0.9,0,1.3c-2,0-3.9,0-5.9,0c0,0.7,0,1.3,0,2c0.4,0,0.9,0,1.3,0
		v-0.7c3.9,0,7.8,0,11.7,0c0-1.1,0-2.2,0-3.3c0-0.3,0-0.6,0-0.9c0.1-0.4,0.1-0.3,0.4-0.7c0.4-0.5,0.3-1,0.3-1.6c0-1.1,0-2.2,0-3.3
		c0-0.5-0.2-1.3,0-1.8c0.1-0.2,0.4-0.4,0.5-0.6c0.2-0.3,0.1-0.4,0.1-0.8c-0.9,0-1.7,0-2.6,0c0,0.7,0,1.3,0,2c-1.3,0-2.6,0-3.9,0
		c0-1.1,0-2.2,0-3.3C161.2,100.9,158.8,100.9,156.4,100.9z M351.7,644.6h5.2V644h0.7v-0.7h0.7V631c-2.4,0-4.8,0-7.2,0L351.7,644.6z
		 M7.3,74.9c0-1.7,0-3.5,0-5.2c2.4,0,4.8,0,7.2,0c-0.4,0.4-1.2,0.9-1.3,1.5c-0.1,0.5,0,0.4-0.4,0.9c-0.3,0.4-0.3,0.4-0.3,0.9h-0.7
		c0,0.4,0,0.9,0,1.3C10.3,74.5,8.9,74.9,7.3,74.9z M16.4,61.2v1.3c-0.7,0-0.8-0.1-1.3-0.7c0,2,0,3.9,0,5.9h0.7v0.7h-0.7
		c0,0.7-0.1,0.8-0.7,1.3c0-1.2,0-2.3,0-3.5c0-1,0.3-2.6-0.3-3.4c-0.6-0.7-0.3-2-0.3-3c0-1.3,0-2.6,0-3.9c0.9,0,1.7,0,2.6,0
		C16.4,57.7,16.4,59.5,16.4,61.2z"/>
</g>
</svg>
