<?xml version="1.0" encoding="utf-8"?>
<!-- Generator: Adobe Illustrator 22.0.1, SVG Export Plug-In . SVG Version: 6.00 Build 0)  -->
<svg version="1.1" id="Layer_1" xmlns="http://www.w3.org/2000/svg" xmlns:xlink="http://www.w3.org/1999/xlink" x="0px" y="0px"
	 viewBox="0 0 600 750" style="enable-background:new 0 0 600 750;" xml:space="preserve">
<style type="text/css">
	.st0{fill:none;stroke:#4D4D4D;stroke-width:0.6;stroke-linecap:round;stroke-linejoin:round;stroke-miterlimit:10;}
	.st1{fill:none;stroke:#FEE8A0;stroke-width:3;stroke-miterlimit:10;}
	.st2{fill:#FEE8A0;stroke:#FEE8A0;stroke-miterlimit:10;}
	.st3{fill-rule:evenodd;clip-rule:evenodd;fill:none;}
	.st4{fill-rule:evenodd;clip-rule:evenodd;fill:#6791A3;stroke:#000000;stroke-miterlimit:10;}
	.st5{fill-rule:evenodd;clip-rule:evenodd;fill:#FEE8A0;stroke:#000000;stroke-miterlimit:10;}
	.st6{fill-rule:evenodd;clip-rule:evenodd;fill:#F1F3F4;}
	.st7{fill-rule:evenodd;clip-rule:evenodd;fill:#69973F;}
	.st8{fill:none;stroke:#4D4D4D;stroke-width:3;stroke-linejoin:round;stroke-miterlimit:10;}
	.st9{fill:none;stroke:#FFFFFF;stroke-width:2;stroke-miterlimit:10;}
	.st10{fill:#FFFFFF;stroke:#FFFFFF;stroke-width:2;stroke-miterlimit:10;}
</style>
<g>
	<rect class="st3" width="600" height="750"/>
	<polyline class="st3" points="0,0 600,0 600,750 	"/>
	<polyline class="st3" points="0,0 600,0 600,750 	"/>
	<polyline class="st3" points="0,0 600,0 600,750 	"/>
	<polyline class="st3" points="0,0 600,0 600,750 	"/>
	<polyline class="st3" points="0,0 600,0 600,750 	"/>
	<polyline class="st3" points="0,0 600,0 600,750 	"/>
	<polyline class="st3" points="0,0 600,0 600,750 	"/>
	<path class="st10" d="M390.783,29.294h0.651c0,0.651,0,1.302,0,1.954h0.651h-0.651v1.302h0.651v0.651h-0.651v0.651h0.651v0.651
		h0.651v0.651h-0.651v0.651h0.651h-0.651h0.651c0,0.651,0,1.302,0,1.953h0.651c0,0.868,0,1.736,0,2.605h0.651
		c0,0.651,0,1.302,0,1.953h0.651c0,0.516-0.186,1.543,0.036,1.99c0.185,0.372,0.531,0.43,0.615,0.844c0.065,0.322,0,0.748,0,1.073
		h0.651h-0.651c0.511,0.511,0.651,0.589,0.651,1.302h0.651c0,0.434,0,0.868,0,1.302c0.901,0,1.302,0.408,1.302,1.302h0.651
		c0,0.709,0.142,0.793,0.651,1.302c0.512,0.512,0.651,0.584,0.651,1.302h0.651c0,0.901,0.408,1.302,1.302,1.302
		c0,0.434,0,0.868,0,1.302c0.615,0,0.672,0.021,1.109,0.458c0.281,0.281,0.562,0.563,0.844,0.844v-0.651
		c0,0.702-0.223,1.145-0.922,1.302c-0.703,0.158-1.608,0-2.333,0c0,0.651,0,1.302,0,1.953h0.651c0,0.324-0.086,0.842,0,1.154
		c0.091,0.328,0.396,0.544,0.651,0.8H401.2c0,0.499-0.058,1.037,0,1.532c0.052,0.44-0.005,0.344,0.256,0.678
		c0.29,0.372,0.332,0.277,0.395,0.72c0.037,0.26-0.07,0.577,0,0.828c0.078,0.282,0.279,0.348,0.458,0.607
		c0.294,0.425,0.193,0.959,0.193,1.495h0.651l-0.651,0.651c0.409,0.41,0.594,0.526,0.651,1.073c0.059,0.573-0.064,0.758,0.326,1.206
		c0.168,0.193,0.263,0.25,0.326,0.474c0.06,0.216-0.019,0.392,0.083,0.585c0.114,0.217,0.449,0.329,0.55,0.551
		c0.074,0.163,0.018,0.489,0.018,0.669h0.651c0,1.302,0,2.605,0,3.907h-0.651v0.651h0.651c0,1.736,0,3.473,0,5.209h0.651
		c0,0.434,0,0.868,0,1.302h-0.651c0,0.734-0.096,1.538,0,2.262c0.059,0.442,0.096,0.355,0.395,0.738
		c0.276,0.353,0.256,0.42,0.256,0.907h-0.651v0.651h0.651c0,0.868,0,1.736,0,2.605h-0.651c0.281,0.281,0.562,0.563,0.844,0.844
		c0.436,0.436,0.458,0.487,0.458,1.11c0.487,0,0.554-0.02,0.907,0.256c0.257,0.201,0.489,0.489,0.72,0.72
		c0.232,0.232,0.519,0.463,0.72,0.72c0.276,0.353,0.256,0.42,0.256,0.907h0.651v0.651c0.651,0,1.302,0,1.953,0v0.651l0.651-1.953
		c-0.404,0.807-1.089,1.732-1.302,2.605c-0.096,0.393,0,0.963,0,1.37c0,0.34,0.02,0.459-0.129,0.713
		c-0.123,0.209-0.438,0.332-0.522,0.556c-0.131,0.349,0,1.042,0,1.417c0,0.493,0,0.986,0,1.479c0,0.977,0,1.954,0,2.93h0.651
		c0,0.651,0,1.302,0,1.953h0.651c0,0.592-0.019,0.633,0.395,1.046c0.29,0.29,0.581,0.581,0.871,0.871
		c0.202,0.203,0.448,0.588,0.705,0.687c0.325,0.126,0.935,0,1.284,0v0.651c0.324,0,0.842,0.086,1.154,0
		c0.328-0.091,0.544-0.396,0.799-0.651c-0.511,0.511-0.651,0.589-0.651,1.302h0.651c0,3.039,0,6.078,0,9.116h0.651
		c0,0.332-0.089,0.834,0,1.154c0.091,0.328,0.396,0.544,0.651,0.8c0.21,0.21,0.558,0.451,0.651,0.719c0.107,0.306,0,0.906,0,1.235
		h0.651c0,0.709,0.142,0.793,0.651,1.302c0.512,0.512,0.651,0.584,0.651,1.302h0.651v0.651h0.651v0.651l-0.651-0.651l-0.651,0.651
		c0.349,0,1.038-0.113,1.338,0.036c0.232,0.115,0.347,0.464,0.579,0.579c0.178,0.088,0.48,0.036,0.687,0.036v0.651h0.651v0.651
		c0.344,0,0.516-0.026,0.78,0.129c0.211,0.124,0.331,0.44,0.558,0.522c0.549,0.197,1.295-0.182,1.849,0
		c0.263,0.087,0.386,0.445,0.636,0.569c0.228,0.113,0.504-0.014,0.734,0.083c0.24,0.101,0.426,0.478,0.633,0.633
		c0.216,0.161,0.518,0.268,0.758,0.388c0.967,0.483,2.162,0.281,3.235,0.281c0.318,0,0.469-0.014,0.712,0.129
		c0.276,0.163,0.36,0.435,0.657,0.522c0.486,0.143,1.297,0,1.818,0v0.651h0.651c0-1.519,0-3.039,0-4.558h0.651
		c0-0.434,0-0.868,0-1.302h0.651c0-0.434,0-0.868,0-1.302c-0.434,0-0.868,0-1.302,0c0,0.434,0,0.868,0,1.302
		c0-0.434,0-0.868,0-1.302c0.434,0,0.868,0,1.302,0c0,0.617-0.04,0.592-0.395,1.046c-0.29,0.371-0.256,0.566-0.256,1.056
		c0,0.683-0.293,0.515-0.568,1.071c-0.156,0.314-0.083,0.782-0.083,1.156c0,1.596,0,3.192,0,4.787h0.651v0.651h0.651
		c0,0.434,0,0.868,0,1.302h-0.651v0.651h-0.651v0.651c-0.434,0-0.868,0-1.302,0v0.651c-0.434,0-0.868,0-1.302,0v0.651
		c-0.901,0-1.302,0.408-1.302,1.302h-0.651v0.651h-0.651v0.651h-0.651v0.651h-0.651v0.651c-0.891,0-1.781,0-2.672,0
		c-0.335,0-0.982,0.102-1.271-0.036c-0.239-0.114-0.357-0.487-0.597-0.597c-0.163-0.075-0.485-0.018-0.669-0.018v1.302v-1.302
		h-0.651c0-0.651,0-1.302,0-1.953c0.697,0,0.577,0.09,1.109,0.458c0.33,0.229,0.566,0.193,0.992,0.193c0.83,0,1.66,0,2.49,0
		c0.604,0,0.646-0.029,1.076-0.458c0.281-0.281,0.562-0.563,0.844-0.844c0.319-0.319,0.52-0.503,0.651-0.88
		c0.095-0.273-0.008-0.317,0.129-0.551c0.114-0.194,0.363-0.363,0.522-0.522c-0.511-0.511-0.651-0.589-0.651-1.302
		c-1.085,0-2.17,0-3.255,0v0.651c-0.918,0-1.835,0-2.753,0c-0.438,0-0.924-0.079-1.283,0.129c-0.212,0.123-0.332,0.433-0.556,0.522
		c-0.197,0.079-0.462-0.059-0.653,0.036c-0.546,0.271-0.615,0.713-0.615,1.232c0,0.327-0.126,1.038,0,1.336
		c0.097,0.229,0.458,0.345,0.568,0.569c0.103,0.209,0.083,0.41,0.083,0.666c0,0.457,0,0.913,0,1.37h0.651h-0.651
		c0,0.701,0,1.401,0,2.102c0,0.679-0.181,1.656,0,2.308c0.095,0.343,0.493,0.462,0.633,0.782c0.115,0.263,0.018,0.791,0.018,1.091
		c0,0.728,0,1.455,0,2.183h0.651c0,0.499-0.058,1.037,0,1.532c0.052,0.44-0.005,0.344,0.256,0.678
		c0.29,0.372,0.332,0.277,0.395,0.72c0.037,0.26-0.07,0.577,0,0.828c0.078,0.282,0.279,0.348,0.458,0.607
		c0.294,0.425,0.193,0.959,0.193,1.495h0.651c0,0.651,0,1.302,0,1.954h0.651c0,0.349-0.113,1.037,0.036,1.338
		c0.117,0.237,0.492,0.356,0.597,0.597c0.077,0.176,0.018,0.469,0.018,0.669c0,0.165-0.063,0.501,0,0.651
		c0.105,0.248,0.499,0.372,0.615,0.615c0.147,0.308,0.036,0.984,0.036,1.338h0.651c0,0.434,0,0.868,0,1.302h0.651
		c0,0.333-0.023,0.522,0.129,0.78c0.11,0.188,0.39,0.291,0.486,0.486c0.055,0.112,0.001,0.239,0.036,0.362
		c0.119,0.418,0.194,0.391,0.458,0.784c0.209,0.311,0.193,0.426,0.193,0.844h0.651v0.651h0.651c0,0.536-0.024,0.591,0.326,0.977
		c0.343,0.379,0.326,0.445,0.326,0.977h0.651v0.651h0.651v0.651h0.651c0,0.536-0.024,0.591,0.326,0.977
		c0.343,0.379,0.326,0.445,0.326,0.977c-0.434,0-0.868,0-1.302,0c0-0.434,0-0.868,0-1.302h-0.651v-0.651h-0.651v0.651
		c-0.651,0-1.302,0-1.953,0c0-1.149-0.792-2.236-1.302-3.256l0.651-0.651l-0.651-1.302c-0.2,0-0.493,0.059-0.669-0.018
		c-0.241-0.105-0.359-0.484-0.597-0.597c-0.308-0.147-0.984-0.036-1.338-0.036v-0.651c-0.651,0-1.302,0-1.953,0l0.651-0.651
		c-0.901,0-1.302-0.408-1.302-1.302h-0.651v-0.651c-0.434,0-0.868,0-1.302,0c0.511,0.511,0.651,0.589,0.651,1.302h0.651v0.651
		c0.901,0,1.302,0.408,1.302,1.302h0.651c0,0.35,0.11,1.031-0.036,1.338c-0.258,0.54-0.84,0.525-0.609,1.275
		c0.142,0.46,0.643,0.965,0.909,1.363c0.329,0.494,0.388,0.633,0.388,1.233h0.651v0.651h0.651c0,1.085,0,2.171,0,3.256h0.651
		c0,1.08,0.559,1.862,1.302,2.605l0.651-0.651v0.651c0.434,0,0.868,0,1.302,0v0.651c0.342-0.342,1.052-0.836,1.266-1.266
		c0.299-0.602-0.241-0.965-0.615-1.338h0.651v-1.302h0.651v-0.651v0.651h0.651c0,0.868,0,1.736,0,2.605h0.651
		c0,0.763-0.241,2.104,0.129,2.734c0.113,0.193,0.44,0.315,0.522,0.522c0.081,0.204-0.059,0.488,0.036,0.687
		c0.111,0.233,0.464,0.348,0.579,0.579c0.088,0.178,0.036,0.48,0.036,0.687h0.651l-0.651,0.651h0.651c0,0.674,0,1.347,0,2.021
		c0,0.598,0.048,0.534,0.395,0.978c0.276,0.353,0.256,0.42,0.256,0.907h0.651c0.35,0.701,0.651,1.174,0.651,1.954h0.651
		c0,0.434,0,0.868,0,1.302h-0.651c0,0.434,0,0.868,0,1.302c0-0.434,0-0.868,0-1.302v0.651h-0.651v0.651h-0.651h0.651v0.651h0.651
		c0,1.325,0,2.65,0,3.975c0,0.651,0,1.302,0,1.954c0,0.598,0.048,0.534,0.395,0.978c0.276,0.353,0.256,0.42,0.256,0.907h-0.651
		h0.651c0,0.536-0.024,0.591,0.326,0.977c0.343,0.379,0.326,0.445,0.326,0.977h0.651c0,0.434,0,0.868,0,1.302h-0.651v0.651h-0.651
		c0,0.868,0,1.736,0,2.605h0.651c0,0.651,0,1.302,0,1.954h0.651v0.651h0.651v0.651l0.651-0.651l-1.302,1.302v-0.651
		c0,0.434,0,0.868,0,1.302h0.651c0,0.536-0.024,0.591,0.326,0.977c0.343,0.379,0.326,0.445,0.326,0.977
		c0.511-0.511,0.589-0.651,1.302-0.651h-0.651v0.651c-0.434,0-0.868,0-1.302,0v0.651h0.651c0,0.434,0,0.868,0,1.302h0.651v0.651
		c0.718,0,0.79-0.139,1.302-0.651c-0.281,0.281-0.562,0.563-0.844,0.844c-0.436,0.436-0.487,0.458-1.109,0.458h0.651
		c0,0.434,0,0.868,0,1.302h0.651v0.651c0.434,0,0.868,0,1.302,0c-0.536,0-0.591-0.024-0.977,0.326
		c-0.378,0.343-0.445,0.326-0.977,0.326v0.651h0.651v0.651h0.651v0.651h0.651v0.651c0.511-0.511,0.589-0.651,1.302-0.651
		c-0.511,0.511-0.589,0.651-1.302,0.651v0.651h0.651v0.651h0.651v0.651h0.651v0.651h0.651v0.651h0.651v0.651h0.651v0.651
		c0.434,0,0.868,0,1.302,0v0.651c1.085,0,2.17,0,3.255,0v-0.651c0,0.434,0,0.868,0,1.302v-0.651h0.651c0-0.651,0-1.302,0-1.954
		h-0.651v-0.651v0.651h-0.651c0.511-0.511,0.589-0.651,1.302-0.651c0,0.674,0,1.347,0,2.021c0,0.871-0.456,1.235-1.302,1.235v0.651
		c-0.527,0-1.299-0.14-1.805,0c-0.311,0.086-0.385,0.354-0.67,0.522c-0.264,0.155-0.433,0.129-0.78,0.129v0.651l-1.302,0.651
		c0,0.651,0,1.302,0,1.954h-0.651c0,1.47,0,2.94,0,4.41c0,0.316,0,0.632,0,0.948c0,0.635,0.226,0.515,0.522,1.025
		c0.297,0.512,0.129,1.463,0.129,2.083h0.651c0,0.772-0.094,1.61,0,2.375c0.098,0.799,0.651,1.332,0.651,2.183h0.651v0.651h0.651
		c0,0.536-0.024,0.591,0.326,0.977c0.343,0.379,0.326,0.445,0.326,0.977h0.651v0.651h0.651v0.651c0.651,0,1.302,0,1.953,0v0.651
		h0.651v0.651h0.651c0,0.359-0.112,1.027,0.036,1.338c0.217,0.456,0.882,0.699,1.137,1.137c0.145,0.25,0.035,0.442,0.129,0.713
		c0.066,0.189,0.262,0.299,0.395,0.463c0.35,0.434,0.199,0.792,0.582,1.233c0.248,0.285,0.216,0.262,0.326,0.555
		c0.115,0.307,0.004,0.333,0.193,0.615c0.133,0.197,0.387,0.307,0.458,0.526c0.075,0.228-0.022,0.455,0.083,0.666
		c0.11,0.222,0.478,0.339,0.569,0.569c0.077,0.194-0.069,0.48,0.018,0.669c0.11,0.241,0.479,0.359,0.597,0.597
		c0.088,0.178,0.036,0.48,0.036,0.687h0.651c0,0.332-0.084,0.777,0,1.094c0.092,0.347,0.331,0.407,0.522,0.73
		c0.154,0.261,0.014,0.508,0.129,0.78c0.095,0.226,0.481,0.481,0.651,0.651c0.338,0.338,0.87,1.12,1.302,1.302
		c0.448,0.189,1.466,0,1.953,0v-0.651h0.651c0-0.434,0-0.868,0-1.302h0.651c0-0.434,0-0.868,0-1.302h0.651
		c0-0.6-0.105-1.097,0.256-1.559c0.31-0.396,0.818-0.954,1.275-1.046c1.054-0.212,2.37,0,3.448,0c2.247,0,4.493,0,6.74,0
		c0,1.954,0,3.907,0,5.861c-3.472,0-6.945,0-10.417,0c0,0.651,0,1.302,0,1.954c2.182,0,4.363,0,6.545,0
		c0.965,0,1.957,0.082,2.909-0.068c1.196-0.189,2.353-0.583,3.568-0.583v0.651h2.604c0,0.434,0,0.868,0,1.302h-2.604v0.651
		c-4.34,0-8.681,0-13.021,0c0,0.738,0.285,1.031,0.532,1.716c0.177,0.489,0.119,1.012,0.119,1.54c0.868,0,1.736,0,2.604,0h-0.651
		v0.651h0.651v0.651c1.302,0,2.604,0,3.906,0h-0.651v0.651c1.302,0,2.604,0,3.906,0c-0.774,0-1.549,0-2.323,0
		c-0.402,0-0.858-0.06-1.258,0c-0.476,0.071-0.612,0.286-0.977,0.651v-0.651c-1.011,0-1.85,0.567-2.833,0.651
		c-0.992,0.084-2.032,0-3.026,0c0,2.388,0,4.775,0,7.163c-1.302,0-2.604,0-3.906,0c0,0.434,0,0.868,0,1.302h-0.651
		c0,0.434,0,0.868,0,1.302c-0.434,0-0.868,0-1.302,0v0.651c-0.868,0-1.736,0-2.604,0v0.651h-0.651c0,0.434,0,0.868,0,1.302h0.651
		c0,0.651,0,1.302,0,1.954h-0.651c0,2.388,0,4.775,0,7.163h0.651c0,2.822,0,5.643,0,8.465h-0.651
		c0.208,0.208,0.563,0.452,0.651,0.719c0.086,0.261,0,0.729,0,1.005c0,0.619,0,1.238,0,1.857c0,0.61-0.054,1.249,0,1.857
		c0.047,0.528,0.07,0.401,0.395,0.817c0.276,0.353,0.256,0.42,0.256,0.907c0.434,0,0.868,0,1.302,0v-0.651c0.868,0,1.736,0,2.604,0
		v0.651h0.651c0,0.651,0,1.302,0,1.953h-0.651v0.651c2.387,0,4.775,0,7.162,0v-0.651c0.868,0,1.736,0,2.604,0
		c0,1.519,0,3.039,0,4.558h-0.651c0-0.434,0-0.868,0-1.302h-0.651v0.651h-0.651v0.651h-0.651c0,0.651,0,1.302,0,1.954h0.651
		c0,0.349-0.113,1.038,0.036,1.338c0.115,0.232,0.464,0.347,0.579,0.579c0.088,0.178,0.036,0.48,0.036,0.687
		c0.434,0,0.868,0,1.302,0c0,1.302,0,2.605,0,3.907c-0.434,0-0.868,0-1.302,0c0,2.121,0,4.242,0,6.363c0,1.026,0,2.052,0,3.079
		c0,0.235-0.061,0.609,0,0.828c0.078,0.282,0.279,0.348,0.458,0.607c0.294,0.425,0.193,0.959,0.193,1.495
		c-0.178,0-0.492-0.063-0.651,0c-0.205,0.081-0.331,0.41-0.522,0.522c-0.342,0.201-0.783,0.129-1.202,0.129
		c-0.777,0-1.82,0.222-2.182-0.685c-0.251-0.627,0-1.886,0-2.571c0-0.868,0-1.736,0-2.605h0.651c0-0.434,0-0.868,0-1.302h-0.651
		c0-0.434,0-0.868,0-1.302h-0.651c0-0.434,0-0.868,0-1.302h0.651v-0.651h-0.651v-0.651h-0.651c0-1.519,0-3.039,0-4.558h0.651
		c0-0.434,0-0.868,0-1.302h0.651c0-1.302,0-2.605,0-3.907h-0.651c0-0.349,0.113-1.038-0.036-1.338
		c-0.115-0.232-0.464-0.347-0.579-0.579c-0.088-0.178-0.036-0.48-0.036-0.687c-1.085,0-2.17,0-3.255,0
		c0,0.516,0.186,1.542-0.036,1.99c-0.185,0.372-0.531,0.431-0.615,0.844c-0.065,0.322,0,0.748,0,1.073c0,0.674,0,1.347,0,2.021
		c0,0.598,0.048,0.534,0.395,0.978c0.276,0.353,0.256,0.42,0.256,0.907h0.651c0,0.651,0,1.302,0,1.954h0.651v0.651h-0.651
		c0,0.332-0.089,0.834,0,1.154c0.096,0.347,0.522,0.475,0.651,0.8c0.154,0.388-0.047,0.648-0.256,0.907
		c-0.345,0.427-0.527,0.395-1.046,0.395c0,1.519,0,3.039,0,4.558h0.651v0.651c0.646,0,0.716,0.065,1.173,0.522
		c0.236,0.236,0.67,0.519,0.78,0.814c0.242,0.647,0,1.873,0,2.571h0.651c0,0.349-0.113,1.038,0.036,1.338
		c0.115,0.232,0.464,0.347,0.579,0.579c0.088,0.178,0.036,0.48,0.036,0.687h0.651c0,0.344-0.026,0.516,0.129,0.78
		c0.133,0.227,0.442,0.344,0.522,0.59c0.158,0.485,0,1.303,0,1.818c0,1.108,0,2.216,0,3.324h-0.651
		c0.529,0.53,0.651,0.623,0.651,1.37c0,0.313-0.013,0.468,0.129,0.713c0.166,0.286,0.436,0.36,0.522,0.671
		c0.133,0.479-0.049,0.368,0.256,0.759c0.226,0.29,0.328,0.292,0.395,0.624c0.106,0.523,0,1.19,0,1.724h-0.651
		c0,0.434,0,0.868,0,1.302h-0.651c0,0.434,0,0.868,0,1.302h0.651c0,0.349-0.113,1.038,0.036,1.338
		c0.115,0.232,0.464,0.347,0.579,0.579c0.088,0.178,0.036,0.48,0.036,0.687h0.651c0,1.085,0,2.171,0,3.256h0.651v0.651
		c0.434,0,0.868,0,1.302,0c-0.434,0-0.868,0-1.302,0c0,0.78,0.301,1.253,0.651,1.954h0.651c0,0.78,0.301,1.253,0.651,1.953
		c0.526-0.175,1.543-0.292,1.953-0.651c0.483-0.423,0.651-1.357,0.651-1.954c0,0.596-0.168,1.531-0.651,1.954
		c-0.41,0.36-1.427,0.476-1.953,0.651c0,1.085,0,2.171,0,3.256h0.651c0,0.349-0.113,1.038,0.036,1.338
		c0.115,0.232,0.464,0.347,0.579,0.579c0.088,0.178,0.036,0.48,0.036,0.687h0.651v0.651h0.651c-0.434,0.434-0.868,0.868-1.302,1.302
		h0.651c0,0.349-0.113,1.038,0.036,1.338c0.279,0.563,0.733,0.615,1.266,0.615v0.651c0.434,0,0.868,0,1.302,0
		c0,0.718,0.139,0.79,0.651,1.302h-0.651c0,0.434,0,0.868,0,1.302h0.651c0,0.349-0.113,1.038,0.036,1.338
		c0.115,0.232,0.464,0.347,0.579,0.579c0.088,0.178,0.036,0.48,0.036,0.687h0.651c0,0.536-0.024,0.591,0.326,0.977
		c0.343,0.379,0.326,0.445,0.326,0.977h0.651c0,0.536-0.024,0.591,0.326,0.977c0.343,0.379,0.326,0.445,0.326,0.977h0.651v0.651
		h0.651v0.651h0.651v0.651c0.901,0,1.302,0.408,1.302,1.302h0.651c0,0.602,0,1.203,0,1.805c0,0.774-0.096,0.896-0.651,1.451h0.651
		c0,1.085,0,2.171,0,3.256h0.651c0,0.434,0,0.868,0,1.302h0.651c0,0.434,0,0.868,0,1.302h0.651c0,0.333-0.023,0.522,0.129,0.78
		c0.11,0.188,0.39,0.291,0.486,0.486c0.055,0.112,0.001,0.239,0.036,0.362c0.205,0.723,0.523,0.977,1.302,0.977v0.651h0.651v0.651
		h0.651v0.651h0.651v0.651c0.434,0,0.868,0,1.302,0c0,0.726-0.193,1.76,0,2.456c0.098,0.353,0.519,0.504,0.651,0.834
		c0.115,0.287,0,0.959,0,1.268h0.651v0.651h0.651c0,0.434,0,0.868,0,1.302h0.651c0,0.434,0,0.868,0,1.302h0.651
		c0,0.651,0,1.302,0,1.954h0.651v0.651h0.651v0.651h0.651v0.651h0.651v0.651c0.434,0,0.868,0,1.302,0v0.651h0.651
		c0,1.085,0,2.171,0,3.256h0.651c0,0.434,0,0.868,0,1.302h0.651c0,0.651,0,1.302,0,1.953h0.651c0,0.434,0,0.868,0,1.302h0.651v0.651
		h0.651v0.651h0.651v0.651h0.651v0.651h0.651v0.651c0.709,0,0.793,0.142,1.302,0.651c0.512,0.512,0.651,0.584,0.651,1.302h0.651
		v0.651c0.651,0,1.302,0,1.953,0c0,0.333,0.112,1.022-0.018,1.32c-0.105,0.241-0.484,0.359-0.597,0.597
		c-0.081,0.169-0.036,0.423-0.036,0.62c0,0.891,0,1.782,0,2.672c0,0.879,0,1.759,0,2.639c0,0.199-0.049,0.482,0.036,0.653
		c0.115,0.231,0.468,0.346,0.579,0.579c0.146,0.307,0.036,0.988,0.036,1.338h0.651h-0.651v0.651h0.651v0.651h0.651v0.651h0.651
		v0.651h0.651v0.651c0.651,0,1.302,0,1.953,0v-0.651c0.434,0,0.868,0,1.302,0v0.651h0.651c0,0.868,0,1.736,0,2.605h-0.651v0.651
		c-0.674,0-1.347,0-2.021,0c-0.598,0-0.534,0.048-0.978,0.395c-0.353,0.276-0.42,0.256-0.907,0.256v0.651h-0.651
		c0,1.085,0,2.171,0,3.256h-0.651c0,0.651,0,1.302,0,1.954h0.651c0,0.434,0,0.868,0,1.302h0.651c0,0.434,0,0.868,0,1.302h0.651
		v0.651h0.651v0.651h0.651v0.651h0.651v0.651h0.651v0.651c-0.651,0-1.302,0-1.953,0v0.651h0.651c0,0.92-0.244,2.226,0,3.107
		c0.143,0.518,0.599,0.628,0.651,1.222c0.044,0.501,0,1.028,0,1.532h0.651c0,0.349-0.113,1.038,0.036,1.338
		c0.115,0.232,0.464,0.347,0.579,0.579c0.088,0.178,0.036,0.48,0.036,0.687h0.651v0.651c0.536,0,0.591-0.024,0.977,0.326
		c0.378,0.343,0.445,0.326,0.977,0.326v0.651c0.517,0,0.605-0.011,0.977,0.326c0.434,0.394,0.482,0.129,0.977,0.326
		c0.285,0.113,0.427,0.549,0.719,0.651c0.306,0.107,0.906,0,1.234,0v0.651c0.792,0,1.583,0,2.375,0c0.752,0,1.247-0.068,1.575-0.827
		c0.367-0.848,0.478-1.913,0.702-2.808c0.185-0.742,0.371-1.483,0.556-2.225l-0.651,5.209c-0.348,0.174-0.7,0.4-1.064,0.532
		c-0.277,0.1-0.556,0.032-0.821,0.119c-0.297,0.097-0.433,0.531-0.719,0.651c-0.261,0.11-0.689-0.041-0.977,0
		c-0.479,0.068-0.427,0.275-0.848,0.522c-0.273,0.161-0.477,0.06-0.795,0.137c-0.759,0.183-1.121,0.644-1.938,0.644
		c0.511,0.511,0.651,0.589,0.651,1.302c-0.651,0-1.302,0-1.953,0v0.651h-0.651v0.651h-0.651c0,1.519,0,3.039,0,4.558h0.651
		c0,0.434,0,0.868,0,1.302h-0.651h0.651v0.651c0.868,0,1.736,0,2.604,0v-0.651c0.434,0,0.868,0,1.302,0c0-0.868,0-1.736,0-2.605
		h-0.651v-0.651l-0.651,0.651c0-0.434,0-0.868,0-1.302h-0.651c0-0.868,0-1.736,0-2.605c0.434,0,0.868,0,1.302,0v0.651h0.651h-0.651
		h0.651v0.651h0.651c0,0.487-0.02,0.554,0.256,0.907c0.201,0.257,0.489,0.489,0.72,0.72c0.232,0.232,0.519,0.463,0.72,0.72
		c0.276,0.353,0.256,0.42,0.256,0.907c0.434,0,0.868,0,1.302,0v0.651h0.651v0.651h0.651c0,0.434,0,0.868,0,1.302h0.651
		c0,0.434,0,0.868,0,1.302h0.651v0.651h0.651c0,0.536-0.024,0.591,0.326,0.977c0.343,0.379,0.326,0.445,0.326,0.977h0.651v0.651
		h0.651v0.651h0.651v0.651c0.651,0,1.302,0,1.953,0c0,0.726-0.193,1.76,0,2.456c0.098,0.353,0.519,0.504,0.651,0.834
		c0.115,0.287,0,0.959,0,1.268h0.651c0,0.434,0,0.868,0,1.302h0.651v0.651c0.434,0,0.868,0,1.302,0v0.651c0.434,0,0.868,0,1.302,0
		v-0.651h0.651v-0.651h0.651c0,1.519,0,3.039,0,4.558h-0.651v0.651h-0.651v0.651h-0.651v0.651h0.651c0,0.434,0,0.868,0,1.302
		c0.434,0,0.868,0,1.302,0v0.651h-0.651v0.651c0.642,0,0.575,0.015,1.046,0.395c0.362,0.292,0.541,0.104,0.926,0.275
		c0.337,0.15,0.709,0.694,0.964,0.964c0.348,0.369,0.319,0.436,0.319,0.97h0.651v0.651h0.651v0.651h0.651v0.651
		c0.651,0,1.302,0,1.953,0v0.651h0.651c0,0.901,0.408,1.302,1.302,1.302v0.651c0.434,0,0.868,0,1.302,0v0.651
		c0.434,0,0.868,0,1.302,0v0.651c0.434,0,0.868,0,1.302,0v0.651c0.2,0,0.493-0.059,0.669,0.018c0.241,0.105,0.359,0.484,0.597,0.597
		c0.308,0.147,0.984,0.036,1.338,0.036v0.651c0.326,0,1.006,0.125,1.302,0c0.461-0.194,0.452-0.576,0.977-0.651
		c0.404-0.058,0.76,0.074,1.106-0.129c0.607-0.357,0.402-0.522,1.173-0.522v-0.651h0.651v-0.651h0.651v-0.651
		c0.434,0,0.868,0,1.302,0h-0.651v-0.651c-1.085,0-2.17,0-3.255,0c1.085,0,2.17,0,3.255,0c0.212,0.425,0.388,0.939,0.669,1.32
		c0.396,0.538,0.66,0.633,1.284,0.633c0,0.55-0.081,1.067,0.164,1.549c0.304,0.597,0.766,1.149,1.138,1.707c0.434,0,0.868,0,1.302,0
		v0.651h0.651v0.651c-0.434,0-0.868,0-1.302,0v0.651h-0.651v0.651h-0.651v0.651h-0.651v0.651c-0.536,0-0.591-0.024-0.977,0.326
		c-0.378,0.343-0.445,0.326-0.977,0.326v0.651h0.651h-0.651h0.651h-0.651c0,0.891,0,1.782,0,2.672c0,0.78,0.3,0.564,0.615,1.199
		c0.147,0.297,0.036,0.994,0.036,1.338h0.651v0.651c1.519,0,3.038,0,4.557,0v0.651c0.434,0,0.868,0,1.302,0v0.651
		c0.434,0,0.868,0,1.302,0v0.651c0.434,0,0.868,0,1.302,0v0.651c0.434,0,0.868,0,1.302,0v0.651c0.434,0,0.868,0,1.302,0v0.651
		c0.434,0,0.868,0,1.302,0v0.651c0.434,0,0.868,0,1.302,0v0.651c0.333,0,0.522-0.023,0.78,0.129c0.188,0.11,0.291,0.39,0.486,0.486
		c0.112,0.055,0.239,0.001,0.362,0.036c0.418,0.119,0.391,0.194,0.784,0.458c0.311,0.209,0.426,0.193,0.844,0.193v0.651h0.651
		c0,2.074,0.02,4.064,0.277,6.122c0.124,0.989,0.102,2.168,0.431,3.108c0.193,0.552,0.542,0.933,0.594,1.514
		c0.048,0.532,0,1.093,0,1.628c2.604,0,5.209,0,7.813,0v-0.651v0.651c-1.5,0-3,0-4.5,0c-0.886,0-1.772,0-2.657,0
		c-0.344,0-1.063-0.102-1.342,0.036c-0.312,0.154-0.426,0.522-0.763,0.615c-0.311,0.086-0.833,0-1.154,0c-0.778,0-1.556,0-2.333,0
		c-1.471,0-2.942,0-4.413,0c-1.44,0-2.881,0-4.321,0c0,0.434,0,0.868,0,1.302c1.262,0,2.353-0.21,3.596-0.459
		c1.178-0.236,2.308-0.192,3.513-0.192c2.188,0,4.376,0,6.564,0c0,0.868,0,1.736,0,2.605h0.651c0,1.953,0,3.907,0,5.861h0.651
		c0,1.226,0,2.452,0,3.678c0,0.618,0.07,1.289,0,1.901c-0.066,0.573-0.389,1.059-0.651,1.584h0.651v0.651
		c0.899,0,1.862-0.104,2.749,0.036c1.063,0.168,2.026,0.615,3.111,0.615c0,0.273-0.034,0.512,0.083,0.734
		c0.133,0.253,0.479,0.374,0.568,0.642c0.197,0.589,0,1.57,0,2.193c0,0.999,0,1.998,0,2.998c0,2.734,0,5.468,0,8.202
		c0,1.155,0,2.31,0,3.465h-0.651v0.651h0.651l-0.651,0.651v-0.651v0.651h-0.651l0.651,0.651h-0.651c0,1.302,0,2.605,0,3.907h0.651
		c0,0.434,0,0.868,0,1.302h0.651v0.651c-0.517,0-0.605-0.011-0.977,0.326c-0.378,0.343-0.445,0.326-0.977,0.326
		c-0.476,0-0.562-0.022-0.907,0.256c-0.451,0.364-0.44,0.395-1.046,0.395v0.651h-0.651v0.651h-0.651v0.651h-0.651
		c0,0.326-0.125,1.006,0,1.302c0.076,0.181,0.345,0.295,0.458,0.458c0.206,0.297,0.092,0.165,0.193,0.518
		c0.063,0.221,0.018,0.264,0.129,0.455c0.111,0.192,0.44,0.317,0.522,0.522c0.117,0.296,0,0.984,0,1.302h0.651
		c0,0.534-0.03,0.599,0.319,0.97c0.317,0.337,0.656,0.656,0.983,0.983l1.953-1.954c-1.519,1.519-3.038,3.039-4.558,4.558
		c0.538,0.538,1.056,1.11,1.62,1.62c0.502,0.454,0.954,0.333,1.635,0.333v-0.651h0.651v-0.651v0.651h0.651v0.651h0.651v0.651h0.651
		v0.651h-0.651c0-0.718-0.139-0.79-0.651-1.302v0.651v-0.651v0.651l-0.651-0.651l-0.651,0.651l0.651,0.651l0.651-0.651v0.651v-0.651
		c-0.511,0.511-0.651,0.589-0.651,1.302c0.718,0,0.79-0.139,1.302-0.651l-0.651,0.651h0.651c0,1.904-0.145,3.835,0.229,5.704
		c0.203,1.015,0.422,1.958,0.422,2.99c0,0.986,0,1.973,0,2.959c0,3.854,0,7.707,0,11.561c0,7.691,0,15.382,0,23.073
		c0,7.018,0,14.035,0,21.052c0,8.598,0,17.196,0,25.794c0,8.078,0,16.155,0,24.233c0,0.816,0,1.633,0,2.449
		c-3.254,0-6.507,0-9.761,0c-1.66,0-3.319,0-4.979,0c-1.059,0-2.232-0.145-3.281,0c-0.712,0.098-1.224,0.638-1.969,0.651
		c-6.485,0.111-12.98,0-19.466,0c-6.891,0-13.781,0-20.672,0c-6.806,0-13.612,0-20.417,0c-3.139,0-6.278,0-9.418,0
		c-1.743,0-3.486,0-5.229,0c-0.846,0-1.691,0-2.537,0c-0.69,0-0.56,0.201-1.105,0.522c-0.343,0.202-0.783,0.129-1.202,0.129
		c-0.364,0-0.749,0.042-1.109,0c-0.556-0.065-0.655-0.233-1.073-0.651c-0.413,0.413-0.517,0.599-1.073,0.651
		c-0.473,0.045-0.971,0-1.445,0c-0.847,0-1.695,0-2.542,0c-1.721,0-3.443,0-5.164,0c-3.514,0-7.028,0-10.542,0
		c-1.976,0-3.952,0-5.927,0c0-3.473,0-6.946,0-10.419c-0.696,0-0.579-0.088-1.109-0.458c-0.394-0.275-0.711-0.152-1.214-0.193
		c-0.763-0.061-1.505-0.408-2.234-0.651v-0.651h0.651c0-0.503-0.193-1.496,0-1.953c0.115-0.273,0.543-0.412,0.651-0.688
		c0.128-0.328-0.1-0.791,0-1.13c0.096-0.327,0.463-0.445,0.615-0.751c0.095-0.19,0.036-0.5,0.036-0.724c0-0.338-0.121-0.919,0-1.229
		c0.105-0.27,0.512-0.405,0.633-0.67c0.203-0.441,0.018-1.476,0.018-1.953c0-0.523-0.02-1.043,0.04-1.56
		c0.168-1.444,0.611-2.861,0.611-4.319c-0.868,0-1.736,0-2.604,0h0.651c0-0.587,0-1.174,0-1.761c0-0.85-0.087-0.931-0.687-1.531
		c-0.908-0.908-2.074-1.345-3.219-1.917v-0.651c-1.085,0-2.17,0-3.255,0v0.651c-0.434,0-0.868,0-1.302,0v0.651
		c-0.434,0-0.868,0-1.302,0v0.651c-0.72,0-0.787,0.135-1.302,0.651c-0.527,0.527-0.651,0.567-0.651,1.302
		c-0.78,0-1.094,0.245-1.302,0.977c-0.205,0.723-0.523,0.977-1.302,0.977v0.651h-0.651v0.651h-0.651v0.651h-0.651v0.651
		c-0.445,0-0.891,0-1.336,0c-0.176,0-0.48-0.053-0.635,0.018c-0.24,0.11-0.358,0.483-0.597,0.597
		c-0.608,0.29-1.946,0.036-2.64,0.036v0.651c-0.516,0-1.542,0.186-1.989-0.036c-0.268-0.133-0.401-0.523-0.683-0.615
		c-0.294-0.096-0.856,0-1.167,0c-1.325,0-2.649,0-3.974,0v-0.651h-0.651v0.651h-0.651v-0.651v0.651c-2.604,0-5.209,0-7.813,0
		c0-0.336,0.122-0.996,0-1.302c-0.237-0.597-0.651-0.431-0.651-1.154c0-0.895,0-1.79,0-2.685c0-1.759,0-3.518,0-5.277
		c2.604,0,5.209,0,7.813,0c0-4.558,0-9.116,0-13.675c-3.613,0-7.226,0-10.839,0c-0.409,0-0.902-0.081-1.302,0
		c-0.437,0.089-0.614,0.536-1.029,0.651c-0.763,0.211-1.889,0-2.685,0c-1.8,0-3.601,0-5.401,0c-2.03,0-4.059,0-6.089,0
		c0-1.162,0-2.323,0-3.485c0-0.575,0-1.15,0-1.724c0-0.532,0.141-1.295,0-1.805c-0.086-0.311-0.354-0.385-0.522-0.671
		c-0.155-0.264-0.129-0.433-0.129-0.78c0-0.575,0-1.15,0-1.724c0-1.162,0-2.323,0-3.485c-1.736,0-3.472,0-5.209,0v0.651
		c-0.651,0-1.302,0-1.953,0c-0.292,0.876-0.651,1.68-0.651,2.605c-0.78,0-1.253-0.301-1.953-0.651l0.651-1.953
		c-6.678,0-13.357,0-20.035,0c-0.461,0-0.922,0-1.383,0c-0.345,0-1.055-0.133-1.37,0c-0.229,0.096-0.345,0.458-0.569,0.569
		c-0.212,0.105-0.401,0.083-0.666,0.083c-0.457,0-0.913,0-1.37,0c0-0.671-0.112-1.125,0.326-1.628
		c0.439-0.506,0.326-0.955,0.326-1.628c0-0.875,0-1.75,0-2.625c0-2.598,0-5.196,0-7.794c-4.775,0-9.549,0-14.324,0
		c0-2.171,0-4.341,0-6.512c-1.736,0-3.472,0-5.209,0c0,1.085,0,2.171,0,3.256h-1.302c0,1.302,0,2.605,0,3.907
		c-2.387,0-4.775,0-7.162,0v0.651h0.651c0,1.954,0,3.907,0,5.861c-1.475,0-2.95,0-4.425,0c-0.541,0-1.606-0.202-2.085,0
		c-0.285,0.12-0.425,0.549-0.719,0.651c-0.298,0.104-0.914,0-1.234,0c0-0.651,0-1.302,0-1.953h-0.651v-0.651h0.651
		c0-0.412,0-0.823,0-1.235c0-0.548,0.022-0.645-0.326-1.044c-0.335-0.386-0.326-0.477-0.326-1.011c0-0.423,0-0.846,0-1.268
		c-1.302,0-2.604,0-3.906,0c-0.29,0-0.591-0.023-0.88,0c-0.535,0.043-0.437,0.151-0.88,0.458c-0.48,0.333-1.215,0.193-1.82,0.193
		c-2.545,0-5.091,0-7.636,0c-2.619,0-5.238,0-7.857,0c-1.244,0-2.488,0-3.732,0c-0.33,0-0.758-0.076-1.076,0
		c-0.376,0.089-0.431,0.388-0.777,0.569c-0.455,0.238-1.283,0.083-1.808,0.083c-2.897,0-5.795,0-8.692,0c0-4.558,0-9.116,0-13.674
		c1.747,0,3.495,0,5.242,0c0.879,0,1.759,0,2.638,0c0.293,0,0.971,0.111,1.234,0c0.21-0.089,0.323-0.405,0.522-0.522
		c0.253-0.149,0.378-0.129,0.712-0.129c3.472,0,6.945,0,10.417,0c1.976,0,3.952,0,5.927,0c0-2.142,0-4.284,0-6.426
		c0-1.038,0-2.075,0-3.113c0-0.812,0.265-2.293-0.129-2.963c-0.116-0.197-0.434-0.313-0.522-0.522c-0.075-0.179,0-0.518,0-0.719
		c0-0.606,0-1.212,0-1.818c0-1.031,0-2.063,0-3.094c0-2.052,0-4.105,0-6.157c0-2.365,0-4.73,0-7.095h-0.651c0-3.039,0-6.078,0-9.116
		c3.906,0,7.813,0,11.719,0l0.651,3.256h1.302c0,0.846,0,1.691,0,2.537c0,0.434,0,0.868,0,1.302c0,0.555-0.024,0.642,0.326,1.044
		c0.342,0.394,0.326,0.496,0.326,1.044c0,0.423,0,0.846,0,1.268c0,0.857,0,1.714,0,2.571c4.557,0,9.115,0,13.673,0
		c0-0.651,0-1.302,0-1.954c4.558,0,9.115,0,13.673,0c0-1.063,0-2.125,0-3.188c0-0.938,0.249-2.276,0-3.175
		c-0.159-0.574-0.651-0.615-0.651-1.302c0-0.495,0-0.99,0-1.485c0-1.074,0-2.148,0-3.222c4.557,0,9.115,0,13.673,0
		c0-5.414,0-10.828,0-16.243c0-0.641,0-1.281,0-1.922c0-0.52,0.191-1.51,0-1.987c-0.11-0.274-0.536-0.413-0.651-0.685
		c-0.093-0.22,0-0.675,0-0.932c0-0.725,0-1.45,0-2.175c0-2.654,0-5.308,0-7.963c0-3.039,0-6.078,0-9.116
		c-0.733,0-1.554-0.104-2.279,0c-0.515,0.074-0.486,0.398-0.941,0.615c-0.263,0.125-0.801,0.036-1.109,0.036
		c-1.455,0-2.91,0-4.365,0c-2.985,0-5.969,0-8.954,0c-1.519,0-3.038,0-4.558,0c-0.719,0-1.587-0.177-2.142,0.256
		c-0.451,0.352-0.38,0.395-0.978,0.395c-0.38,0-0.76,0-1.141,0c-2.943,0-5.886,0-8.829,0c-3.427,0-6.854,0-10.282,0v0.651
		c-4.775,0-9.549,0-14.324,0c-1.194,0-2.387,0-3.581,0c-0.565,0-1.13,0-1.695,0c-0.476,0-0.498-0.019-0.84,0.256
		c-0.265,0.214-0.295,0.328-0.598,0.395c-1.085,0.24-2.528,0-3.649,0c-1.244,0-2.488,0-3.731,0c-2.681,0-5.361,0-8.042,0
		c0-4.916,0-9.832,0-14.748c0-0.524,0.12-1.23-0.129-1.661c-0.201-0.347-0.443-0.365-0.522-0.751c-0.063-0.309,0-0.725,0-1.039
		c0-1.205,0-2.41,0-3.615c0-2.474,0-4.947,0-7.421c0-2.422,0-4.843,0-7.264c0-0.43,0.023-0.499-0.193-0.81
		c-0.259-0.374-0.397-0.341-0.458-0.784c-0.083-0.598,0-1.253,0-1.857c0-1.226,0-2.452,0-3.678c0-2.437,0-4.874,0-7.311
		c0-1.253,0-2.506,0-3.759c0-1.315-0.492-2.549-0.639-3.848c-0.255-2.259-0.012-4.721-0.012-6.995c0-2.486,0-4.971,0-7.457
		c0-0.629,0-1.257,0-1.886c-2.193,0-4.386,0-6.578,0c-1.078,0-2.156,0-3.234,0c-1.165,0-2.247-0.104-3.353,0.265
		c-2.056,0.685-4.34,0.386-6.5,0.386c-2.325,0-4.651,0-6.976,0c-2.405,0-4.81,0-7.215,0v0.651c-3.179,0-6.358,0-9.537,0
		c-1.573,0-3.146,0-4.719,0c-0.782,0-1.564,0-2.346,0c-0.605,0-1.791-0.223-2.315,0.036c-0.442,0.219-0.43,0.542-0.941,0.615
		c-0.356,0.051-0.752,0-1.112,0c-0.823,0-1.646,0-2.469,0c-1.542,0-3.083,0-4.625,0c-3.21,0-6.42,0-9.631,0
		c-0.909,0-1.817,0-2.726,0c-0.868,0-1.678-0.111-2.462,0.281c-1.492,0.746-3.636,0.37-5.297,0.37c0-3.039,0-6.078,0-9.116h-0.651
		c0-4.558,0-9.116,0-13.675c0-1.302,0-2.605,0-3.907h-0.651c0-4.812,0-9.623,0-14.435c0-1.483,0-2.966,0-4.449h0.651v-0.651
		c0.289,0,0.591,0.023,0.88,0c0.549-0.044,0.425-0.143,0.88-0.458c0.308-0.213,0.427-0.078,0.776-0.193
		c0.288-0.095,0.423-0.516,0.701-0.633c0.258-0.109,0.668,0.01,0.95-0.018c0.47-0.047,0.371-0.077,0.765-0.395
		c0.466-0.377,1.016-0.256,1.626-0.256c2.532,0,5.064,0,7.597,0c0.229,0,0.597,0.085,0.8,0c0.272-0.115,0.411-0.542,0.685-0.651
		c0.463-0.185,1.415,0,1.919,0c1.253,0,2.505,0,3.758,0c2.448,0,4.896,0,7.344,0c2.81,0,5.62,0,8.43,0v-0.651
		c4.047,0,8.094,0,12.141,0c2.007,0,4.014,0,6.021,0c0.769,0,2.163,0.247,2.801-0.129c0.63-0.371,0.426-0.522,1.241-0.522
		c0.552,0,1.104,0,1.656,0c2.247,0,4.493,0,6.74,0c0-0.434,0-0.868,0-1.302h-0.651c0-6.003,0-12.006,0-18.009
		c0-1.594,0-3.188,0-4.781l1.302-0.651v-0.651c1.782-0.594,3.498-1.191,5.209-1.953c0.931-0.415,1.901-0.752,2.845-1.138
		c0.815-0.333,1.47-0.816,2.364-0.816c0-0.515,0.055-1.073,0-1.584c-0.059-0.549-0.495-0.614-0.651-1.089
		c-0.128-0.389,0-1.029,0-1.443c0-0.517,0-1.035,0-1.552c0-2.018,0-4.036,0-6.053c3.038,0,6.077,0,9.115,0
		c-0.27-3.509-0.651-7.015-0.651-10.536c0-3.538,0-7.075,0-10.613c0-2.067,0-4.134,0-6.201h-0.651c0-3.692,0-7.384,0-11.077
		c0-0.825,0.129-1.763,0-2.58c-0.131-0.829-0.624-1.542-0.651-2.393c-0.06-1.887,0-3.787,0-5.674c0-3.417,0-6.834,0-10.251
		c0-0.849,0.042-1.675-0.125-2.509c-0.188-0.938-0.475-1.907-0.527-2.862c-0.097-1.788,0-3.611,0-5.402c0-3.983,0-7.967,0-11.95
		c-0.841,0-1.592,0.235-2.41,0.44c-0.748,0.187-1.385,0.211-2.157,0.211c-1.592,0-3.185,0-4.777,0c-3.156,0-6.313,0-9.469,0
		c-1.574,0-3.148,0-4.723,0c-0.935,0-1.474,0.09-2.364,0.386c-0.759,0.253-1.364,0.265-2.164,0.265c-3.156,0-6.313,0-9.469,0
		c-3.549,0-7.098,0-10.646,0c0-4.048,0-8.095,0-12.143c0-0.994,0-1.988,0-2.982c0-0.525,0-1.051,0-1.576c0-0.41,0.154-1.165,0-1.532
		c-0.086-0.205-0.41-0.331-0.522-0.522c-0.146-0.247-0.129-0.389-0.129-0.713c0-0.479,0-0.959,0-1.438c0-1.04,0-2.08,0-3.12
		c0-4.058,0-8.116,0-12.174c0-1.049-0.215-1.994-0.422-3.027c-0.188-0.939-0.229-1.763-0.229-2.721c0-2.08,0-4.159,0-6.239
		c0-1.962,0-3.924,0-5.885c0-1.077,0-2.154,0-3.231c0-0.457,0-0.913,0-1.37c0-0.189,0.045-0.455-0.036-0.62
		c-0.133-0.269-0.522-0.399-0.615-0.683c-0.127-0.387,0-1.058,0-1.464c0-0.563,0-1.125,0-1.688c0-0.957,0-1.914,0-2.87
		c0-1.952,0-3.903,0-5.855c0-2.096,0-4.192,0-6.288c0-0.877,0.289-2.183-0.256-2.861c-0.575-0.716-2.135-0.395-2.999-0.395
		c-3.983,0-7.966,0-11.948,0c-1.031,0-2.063,0-3.094,0c-0.626,0-0.918,0.192-1.494,0.455c-0.461,0.211-0.812,0.196-1.324,0.196
		c-2.064,0-4.129,0-6.193,0c-4.068,0-8.136,0-12.204,0c-0.936,0-1.872,0-2.807,0c0-2.822,0-5.643,0-8.465h-0.651
		c0-5.594,0-11.188,0-16.782c0-1.569,0-3.138,0-4.707h-0.651c0-4.606,0-9.213,0-13.819c0-1.254,0-2.508,0-3.762
		c-4.123,0-8.247,0-12.37,0v0.651c-0.434,0-0.868,0-1.302,0c0-1.253,0-2.506,0-3.759c0-0.241,0.077-0.611-0.018-0.818
		c-0.119-0.258-0.524-0.39-0.633-0.651c-0.182-0.439,0-1.433,0-1.935c-1.953,0-3.906,0-5.86,0v0.651c-5.837,0-11.674,0-17.511,0
		c-0.685,0-1.37,0-2.055,0c-0.524,0-0.569-0.013-0.943,0.326c-0.381,0.345-0.442,0.326-0.977,0.326c-1.497,0-2.993,0-4.49,0
		c-2.855,0-5.71,0-8.565,0c-1.68,0-3.36,0-5.039,0c-0.421,0-0.65,0.028-0.979-0.193c-0.258-0.173-0.828-0.718-0.98-0.981
		c-0.171-0.295-0.087-0.615-0.258-0.909c-0.3-0.518-0.65-0.522-1.173-0.522c0-0.824-0.493-1.221-0.651-1.987
		c-0.06-0.288-0.008-0.569-0.081-0.86c-0.12-0.478-0.342-0.929-0.468-1.406c-0.081-0.307-0.039-0.584-0.102-0.889
		c-0.069-0.338-0.309-0.663-0.455-0.979c-0.294-0.633-0.196-1.323-0.196-2.019c0-0.31,0.061-0.695-0.008-0.992
		c-0.095-0.414-0.462-0.767-0.587-1.174c-0.187-0.608,0.01-1.202-0.252-1.807c-0.14-0.322-0.386-0.638-0.455-0.979
		c-0.079-0.383,0.06-0.814,0-1.201c-0.088-0.568-0.347-1.496-0.651-1.987c-0.23-0.371-0.564-0.455-0.651-0.88
		c-0.071-0.345,0-0.791,0-1.141c0-0.846,0-1.691,0-2.537h0.651c0-0.651,0-1.302,0-1.954h0.651v-0.651l10.417-0.651
		c0-2.388,0-4.775,0-7.163l-16.277,0.651c0-0.214,0.051-0.503-0.036-0.687c-0.122-0.256-0.511-0.388-0.615-0.649
		c-0.174-0.436,0-1.292,0-1.771c0-0.506,0-1.012,0-1.519c0-0.321-0.014-0.466,0.129-0.713c0.162-0.279,0.438-0.367,0.522-0.671
		c0.12-0.435-0.04-0.393,0.256-0.759c0.17-0.21,0.395-0.395,0.587-0.588c0.214-0.214,0.385-0.342,0.458-0.607
		c0.079-0.286-0.06-0.633,0-0.925c0.068-0.33,0.165-0.339,0.395-0.624c0.287-0.356,0.137-0.327,0.256-0.759
		c0.083-0.3,0.362-0.395,0.522-0.671c0.154-0.265,0.061-0.433,0.129-0.746c0.105-0.482,0.549-0.889,0.651-1.373
		c0.113-0.535,0-1.214,0-1.769c0-0.704,0.097-0.993,0.413-1.625c0.276-0.552,0.187-0.95,0.238-1.55
		c0.048-0.565,0.292-1.106,0.473-1.647c0.176-0.527,0.179-0.957,0.179-1.512c0-0.543,0-1.085,0-1.628
		c0-0.214,0.051-0.503-0.036-0.687c-0.119-0.249-0.516-0.377-0.615-0.633c-0.083-0.215-0.065-0.929,0-1.149
		c0.086-0.291,0.365-0.388,0.522-0.657c0.158-0.272,0.056-0.463,0.129-0.78c0.071-0.307,0.323-0.625,0.455-0.911
		c0.468-1.007,0.196-2.533,0.196-3.647h-0.651v-0.651c-0.344,0-0.516,0.026-0.78-0.129c-0.228-0.134-0.343-0.436-0.59-0.522
		c-0.415-0.145-0.57,0.045-0.84,0.256c-0.345,0.27-0.325,0.283-0.72,0.395c-0.427,0.121-0.332,0.091-0.72,0.395
		c-0.352,0.276-0.317,0.134-0.759,0.256c-0.648,0.18-0.8,0.693-0.8,1.302c-0.434,0-0.868,0-1.302,0v-0.651
		c-0.536,0-0.591,0.024-0.977-0.326c-0.378-0.343-0.445-0.326-0.977-0.326v-0.651h-0.651c0-0.536,0.024-0.591-0.326-0.977
		c-0.343-0.379-0.326-0.445-0.326-0.977c-0.942,0-1.754-0.1-2.604,0.326c-0.845,0.422-1.635,0.326-2.57,0.326
		c-1.747,0-3.495,0-5.242,0c-1.736,0-3.472,0-5.209,0c-0.965,0-1.929,0-2.894,0c-0.913,0-1.465,0.151-2.348,0.445
		c-0.811,0.27-1.61,0.206-2.459,0.206c-1.123,0-2.245,0-3.368,0c0,7.641,0,15.282,0,22.923c0,0.606-0.052,1.027,0.196,1.561
		c0.278,0.601,0.455,0.902,0.455,1.562c0,1.085,0,2.171,0,3.256c-1.57,0-3.017-0.343-4.557-0.651v0.651v-0.651
		c-1.053,0-2.106,0-3.159,0c-0.728,0-0.995-0.147-1.658-0.455c-0.497-0.231-0.916-0.196-1.464-0.196c-0.51,0-1.021,0-1.531,0
		c-0.219,0-0.5,0.053-0.687-0.036c-0.245-0.117-0.367-0.508-0.615-0.615c-0.361-0.156-1.144,0-1.53,0c-0.575,0-1.15,0-1.725,0
		c0,4.558,0,9.116,0,13.675c-1.011,0-2.021,0-3.032,0c-0.81,0-1.906-0.223-2.669,0c-0.35,0.102-0.485,0.511-0.817,0.651
		c-0.321,0.136-0.99,0-1.329,0c-0.902,0-1.804,0-2.706,0c-0.911,0-1.823,0-2.734,0c-0.547,0-1.094,0-1.642,0
		c-0.636,0-0.618-0.027-1.092-0.395c-0.376-0.293-0.579-0.203-1.039-0.3c-0.574-0.121-1.125-0.403-1.689-0.563
		c-0.924-0.262-1.898-0.397-2.84-0.586c-0.866-0.173-1.665-0.535-2.516-0.764c-1.057-0.284-2.167-0.433-3.24-0.648v1.954
		l-3.255-1.302c0-1.542,0-3.084,0-4.626c0-0.4,0-0.801,0-1.201c0-0.533,0.01-0.625-0.326-1.011
		c-0.351-0.404-0.326-0.443-0.326-1.011c0-0.423,0-0.846,0-1.268h-0.651v-0.651c-0.434,0-0.868,0-1.302,0v-0.651
		c-0.802,0-1.674,0.094-2.469,0c-0.701-0.083-1.415-0.427-2.089-0.651v-0.651c-1.085,0-2.17,0-3.255,0c0,2.822,0,5.643,0,8.465
		c-0.426-0.213-0.908-0.556-1.37-0.651c-0.236-0.048-0.466,0.014-0.697-0.057c-0.334-0.102-0.622-0.356-0.951-0.475
		c-0.44-0.16-0.84-0.113-1.28-0.315c-0.624-0.286-0.881-0.456-1.562-0.456c0-2.605,0-5.209,0-7.814
		c-0.536,0-1.071,0.101-1.495-0.193c-0.251-0.174-0.328-0.381-0.607-0.458c-0.206-0.057-0.477-0.01-0.698-0.049
		c-1.128-0.197-2.115-0.602-3.268-0.602c-0.662,0-1.23,0.143-1.616-0.522c-0.234-0.404-0.129-0.976-0.129-1.465
		c0-1.085-0.021-2.046-0.198-3.11c-0.228-1.368-0.453-2.636-0.453-4.019h-3.255v-3.907c-1.017,1.017-2.034,2.034-3.051,3.052
		c-0.448,0.448-1.035,1.321-1.622,1.507c-0.682,0.216-1.764,0-2.489,0c0-8.045,0-16.09,0-24.134c0-6.217,0-12.433,0-18.65
		c0-3.971,0-7.943,0-11.914c0.434,0,0.868,0,1.302,0c0-0.53-0.163-1.385,0-1.886c0.08-0.246,0.39-0.363,0.522-0.59
		c0.151-0.26,0.129-0.455,0.129-0.78c0-0.267-0.027-0.512,0.083-0.734c0.124-0.251,0.482-0.371,0.569-0.636
		c0.163-0.501,0-1.357,0-1.886h0.651c0-0.434,0-0.868,0-1.302h0.651c0-0.349-0.113-1.038,0.036-1.338
		c0.115-0.232,0.464-0.347,0.579-0.579c0.088-0.178,0.036-0.48,0.036-0.687h0.651c0-0.434,0-0.868,0-1.302h0.651v-0.651h0.651
		c0-0.434,0-0.868,0-1.302c0.901,0,1.302-0.408,1.302-1.302h0.651v-0.651h0.651v-0.651h0.651c0-0.901,0.408-1.302,1.302-1.302
		v-0.651h0.651v-0.651h0.651v-0.651h0.651c0,1.085,0,2.171,0,3.256c2.17,0,4.34,0,6.511,0c0,0.868,0,1.736,0,2.605
		c0.61,0,1.334,0.12,1.928,0c0.499-0.101,0.921-0.55,1.422-0.651c1.136-0.23,2.65,0,3.812,0c0-2.388,0-4.775,0-7.163
		c3.038,0,6.077,0,9.115,0c0-2.388,0-4.775,0-7.163h0.651c0,1.736,0,3.473,0,5.209l0.651-0.651c0,0.868,0,1.736,0,2.605
		c1.205,0,2.411,0,3.616,0c0.618,0,1.301,0.08,1.918,0c0.456-0.059,0.392-0.195,0.784-0.458c0.311-0.209,0.426-0.193,0.844-0.193
		c0-2.171,0-4.341,0-6.512c1.254,0,2.676-0.193,3.873,0.206c1.258,0.419,2.614,1.096,3.939,1.096v0.651
		c0.886,0.253,1.771,0.506,2.657,0.759c0.788,0.225,1.625,0.312,2.226,0.869c0.411,0.381,0.578,0.147,1.013,0.362
		c0.232,0.115,0.347,0.464,0.579,0.579c0.183,0.091,0.424-0.028,0.619,0.036c0.313,0.103,0.6,0.533,0.848,0.78
		c0.463,0.463,0.524,0.522,1.173,0.522v-0.651v0.651c0.651,0,1.302,0,1.953,0c0,1.736,0,3.473,0,5.209c0.434,0,0.868,0,1.302,0
		c0-0.651,0-1.302,0-1.953c1.525,0,4.558-0.242,4.558,1.953h-0.651c0,0.434,0,0.868,0,1.302c-2.353,0-4.646-0.094-6.967,0.293
		c-1.205,0.201-2.3,0.358-3.518,0.358c-0.536,0-1.376,0.167-1.867,0c-0.409-0.139-0.856-0.67-1.193-0.94
		c-0.655-0.524-1.337-1.026-1.97-1.576c-0.548-0.476-0.761-0.666-0.761-1.39c-0.868,0-1.736,0-2.604,0v0.651
		c1.617,0.808,3.112,1.783,4.645,2.741c0.539,0.337,1.247,0.995,1.865,1.166c0.75,0.208,1.821,0,2.604,0v1.953
		c1.187,0.237,2.415,0.616,3.625,0.651c0.698,0.02,1.401,0,2.099,0c0.728,0,1.033,0.151,1.697,0.455
		c0.568,0.261,1.096,0.196,1.727,0.196c0.413,0,0.505-0.019,0.81,0.193c0.461,0.32,0.323,0.413,0.88,0.458
		c0.582,0.047,1.18-0.06,1.761,0c0.498,0.052,0.418,0.073,0.817,0.395c0.35,0.283,0.38,0.256,0.873,0.256
		c1.458,0,2.487,1.302,3.94,1.302c0,1.953,0,3.907,0,5.86c1.953,0,3.906,0,5.86,0c0.476,2.383,1.041,4.685,1.68,7.029
		c0.307,1.127,0.586,2.268,0.923,3.386c0.372,1.232,0.929,2.434,1.228,3.685c0.121,0.508-0.007,1.027,0.079,1.539
		c0.108,0.646,0.44,1.32,0.647,1.943h1.953c0,1.091,0,2.183,0,3.274c0,0.581-0.064,1.208,0,1.787
		c0.065,0.588,0.354,1.154,0.525,1.723c0.158,0.526,0.034,1.013,0.126,1.546c0.089,0.516,0.534,0.931,0.651,1.438
		c0.078,0.338,0.021,0.741,0.089,1.098c0.125,0.647,0.259,1.293,0.388,1.94c0.275,1.375,0.55,2.75,0.825,4.125
		c-0.868,0-1.736,0-2.604,0c0,1.736,0,3.473,0,5.209c1.488,0,3.28,0.26,4.738-0.06c0.837-0.184,1.504-0.591,2.37-0.591
		c0.886,0,1.772,0,2.658,0v0.651c0.324,0,0.842,0.086,1.154,0c0.328-0.091,0.544-0.396,0.8-0.651v0.651c2.387,0,4.775,0,7.162,0
		c0-0.219-0.053-0.5,0.036-0.687c0.114-0.239,0.487-0.357,0.597-0.597c0.14-0.306,0.018-1.047,0.018-1.388
		c0-0.679,0.169-0.752,0.651-1.235c0.511-0.511,0.651-0.589,0.651-1.302c0.371-0.186,1.01-0.359,1.302-0.651
		c0.298-0.298,0.468-0.936,0.659-1.318c0.21-0.421,0.384-0.928,0.662-1.305c0.43-0.583,0.633-0.523,0.633-1.284
		c0.598-0.399,1.241-0.765,1.809-1.206c0.421-0.327,1.149-0.856,1.375-1.327c0.265-0.553-0.08-1.106,0.328-1.631
		c0.347-0.445,0.395-0.38,0.395-0.978c0-0.263,0.031-0.542-0.036-0.791c-0.214-0.802-0.615-1.12-0.615-1.978
		c0-0.759-0.472-1.133-0.643-1.842c-0.138-0.57-0.008-1.345-0.008-1.935c0-0.662,0-1.325,0-1.987h0.651
		c0-0.349-0.113-1.037,0.036-1.338c0.117-0.237,0.492-0.356,0.597-0.597c0.077-0.176,0.018-0.469,0.018-0.669
		c0-0.457,0-0.913,0-1.37c0-0.668-0.175-0.759-0.651-1.235c0.178,0,0.492-0.063,0.651,0c0.205,0.081,0.331,0.41,0.522,0.522
		c0.342,0.201,0.783,0.129,1.202,0.129c0.439,0,0.726-0.047,1.073,0.193c0.543,0.376,0.426,0.458,1.143,0.458
		c1.725,0,3.45,0,5.175,0v0.651c0.575,0,1.149,0,1.724,0c0.237,0,0.643-0.082,0.846,0c0.263,0.105,0.394,0.488,0.649,0.615
		c0.359,0.179,1.148,0.036,1.567,0.036c0.575,0,1.149,0,1.724,0v0.651c1.112,0,1.976,0.169,3.061,0.44
		c0.941,0.235,1.798,0.212,2.774,0.212c0.801,0,0.562,0.148,1.198,0.522c0.381,0.225,0.932,0.129,1.397,0.129
		c0.402,0,0.944-0.09,1.336,0c0.471,0.108,0.866,0.551,1.339,0.651c0.467,0.099,1.015-0.024,1.495,0
		c0.587,0.029,0.943,0.308,1.486,0.532c0.475,0.196,0.975,0.253,1.486,0.346c2.552,0.464,5.104,0.928,7.656,1.392
		c1.972,0.359,4.058,0.986,6.071,0.986c0-0.88,0-1.759,0-2.639c0-0.753,0.248-0.576,0.568-1.186
		c0.175-0.333,0.083-0.919,0.083-1.317c0-1.759,0-3.518,0-5.277h0.651c0-2.171,0-4.341,0-6.512h0.651c0-1.736,0-3.473,0-5.209h0.651
		c0-7.304,0-14.608,0-21.912c0-2.03,0-4.059,0-6.089c0.651,0,1.302,0,1.953,0c0-0.434,0-0.868,0-1.302h-0.651
		c0-2.171,0-4.341,0-6.512c-0.434,0-0.868,0-1.302,0c0-1.954,0-3.907,0-5.861c1.313,0,2.627,0,3.94,0c0.704,0,1.408,0,2.112,0
		c0.494,0,1.372,0.166,1.797-0.036c0.278-0.132,0.41-0.514,0.701-0.615c0.321-0.111,0.854,0,1.198,0c0.657,0,1.314,0,1.971,0
		c1.302,0,2.604,0,3.906,0c1.519,0,3.038,0,4.557,0c0,4.435,0,8.87,0,13.305c0,4.356,0,8.712,0,13.068c0,2.496,0,4.992,0,7.488
		c0.651,0,1.302,0,1.953,0v-1.302c1.953,0,3.906,0,5.86,0v1.302h1.953l0.651,1.302c1.085,0,2.17,0,3.255,0c0-0.651,0-1.302,0-1.953
		c1.596,0,3.191,0,4.787,0c0.792,0,1.583,0,2.375,0c0.608,0,0.676,0.025,1.109,0.458c0.281,0.281,0.562,0.563,0.844,0.844v-0.651
		c1.258,0,2.129-1.209,3.152-1.876c0.995-0.649,2.161-1.107,3.224-1.638c0.964-0.482,1.72-1.141,2.566-1.817
		c0.421-0.337,0.937-0.948,1.439-1.151c0.204-0.083,0.485,0.051,0.688-0.029c0.23-0.092,0.476-0.476,0.651-0.651
		c-0.281-0.281-0.562-0.563-0.844-0.844c-0.436-0.436-0.458-0.487-0.458-1.11h-0.651c0-0.536,0.024-0.591-0.326-0.977
		c-0.343-0.379-0.326-0.445-0.326-0.977h-0.651c0-0.536,0.024-0.591-0.326-0.977c-0.343-0.379-0.326-0.445-0.326-0.977h-0.651
		c0-0.536,0.024-0.591-0.326-0.977c-0.343-0.379-0.326-0.445-0.326-0.977h-0.651c0-0.434,0-0.868,0-1.302h-0.651v-0.651h-0.651
		c0-0.434,0-0.868,0-1.302h-0.651v-0.651H218.9c0-0.434,0-0.868,0-1.302h-0.651v-0.651c1.096,0,2.193,0,3.289,0
		c0.344,0,0.488,0.023,0.746-0.129c0.228-0.134,0.343-0.436,0.59-0.522c0.468-0.163,1.317,0,1.818,0c2.193,0,4.386,0,6.578,0
		c0-1.954,0-3.907,0-5.861c1.085,0,2.17,0,3.255,0c0,1.036,0,2.072,0,3.107c0,0.221,0.07,0.532,0,0.732
		c-0.086,0.246-0.388,0.362-0.522,0.59c-0.226,0.385-0.129,0.963-0.129,1.431c1.584,0,3.21-0.12,4.787,0
		c0.42,0.032,0.821,0.162,1.037,0.615c0.148,0.31-0.033,0.766,0.036,1.109c0.085,0.421,0.501,0.537,0.651,0.914
		c0.115,0.287,0,0.959,0,1.268h0.651c0,0.434,0,0.868,0,1.302h0.651c0,0.651,0,1.302,0,1.953h0.651c0,0.671-0.112,1.125,0.326,1.628
		c0.439,0.506,0.326,0.955,0.326,1.628h0.651v0.651l0.651-0.651l0.651,3.256c0.333,0,0.522-0.023,0.78,0.129
		c0.188,0.11,0.291,0.39,0.486,0.486c0.112,0.055,0.239,0.001,0.362,0.036c0.418,0.119,0.391,0.194,0.784,0.458
		c0.311,0.209,0.426,0.193,0.844,0.193v0.651c0.536,0,0.591-0.024,0.977,0.326c0.378,0.343,0.445,0.326,0.977,0.326
		c0-0.434,0-0.868,0-1.302c-0.434,0-0.868,0-1.302,0v-0.651c-0.846,0-1.302-0.364-1.302-1.235c0-0.651,0-1.302,0-1.954
		c0-1.325,0-2.65,0-3.975c2.604,0,5.209,0,7.813,0c0,3.907,0,7.814,0,11.721h-0.651v0.651c0.536,0,0.591-0.024,0.977,0.326
		c0.378,0.343,0.445,0.326,0.977,0.326v0.651c0.434,0,0.868,0,1.302,0v0.651c0.536,0,0.591-0.024,0.977,0.326
		c0.378,0.343,0.445,0.326,0.977,0.326v0.651c0.434,0,0.868,0,1.302,0v0.651h0.651v0.651c0.434,0,0.868,0,1.302,0v0.651
		c0.545,0,0.6-0.025,0.977,0.326c0.333,0.31,0.56,0.443,0.977,0.651c0.359,0.18,0.617,0.315,0.907,0.582
		c0.412,0.378,0.472,0.395,1.046,0.395v0.651c7.356,0,14.713,0,22.069,0c7.608,0,15.216,0,22.824,0c3.917,0,7.834,0,11.75,0v-0.651
		c1.519,0,3.038,0,4.558,0c0-4.95,0-9.899,0-14.849c0-1.802,0-3.603,0-5.405c0-1.245-0.139-2.581,0-3.82
		c0.136-1.209,0.651-2.27,0.651-3.504c0-1.303,0-2.605,0-3.908c0-2.962,0-5.925,0-8.887c1.725,0,3.45,0,5.175,0
		c0.682,0,1.983,0.242,2.602,0c0.378-0.147,0.499-0.566,0.917-0.651c0.37-0.076,0.831,0,1.208,0c3.409,0,6.818,0,10.228,0
		c1.971,0,3.943,0,5.914,0v-0.651c0.725,0,1.648-0.182,2.209,0.256c0.468,0.365,0.383,0.395,1.012,0.395c0.396,0,0.792,0,1.188,0
		c1.504,0,3.009,0,4.513,0c3.103,0,6.205,0,9.308,0c1.736,0,3.472,0,5.209,0c0-0.54,0.028-0.605-0.326-0.977
		c-0.25-0.263-0.515-0.515-0.772-0.772c-0.593-0.593-1.186-1.186-1.779-1.779c-0.509-0.509-0.646-1.152-1.067-1.718
		c-0.138-0.185-0.43-0.326-0.532-0.533c-0.083-0.169-0.024-0.317-0.083-0.505c-0.118-0.383-0.334-0.563-0.651-0.88
		c5.426,0,10.851,0,16.277,0c0,0.434,0,0.868,0,1.302h0.651v0.651h0.651v0.651h-0.651h0.651V29.294z M144.678,119.155v0.651
		c1.736,0,3.472,0,5.209,0c0,1.519,0,3.039,0,4.558c0.651,0,1.302,0,1.953,0v1.954c-2.387,0-4.775,0-7.162,0
		c0-1.085,0-2.171,0-3.256c-2.17,0-4.34,0-6.511,0c0,3.473,0,6.946,0,10.419c2.338,0,4.676,0,7.013,0c0.55,0,1.133,0.057,1.68,0
		c0.389-0.04,0.377-0.022,0.678-0.256c0.438-0.342,0.29-0.333,0.817-0.395c1.125-0.133,2.35,0,3.485,0c0,4.558,0,9.116,0,13.675
		c1.953,0,3.906,0,5.86,0c0,1.085,0,2.171,0,3.256h0.651c0,3.473,0,6.946,0,10.419c0.535,0,1.199,0.108,1.724,0
		c0.353-0.072,0.38-0.245,0.688-0.458c0.296-0.205,0.374-0.193,0.776-0.193c1.119,0,2.238,0,3.357,0c2.3,0,4.599,0,6.899,0
		c1.139,0,2.278,0,3.417,0c0.484,0,1.101,0.102,1.499-0.129c0.283-0.164,0.364-0.437,0.67-0.522c0.272-0.075,0.725,0,1.005,0
		c2.242,0,4.485,0,6.727,0c2.582,0,5.163,0,7.745,0c0-0.868,0-1.736,0-2.605h0.651v-0.651c0.434,0,0.868,0,1.302,0v-0.651
		c0.545,0,0.6,0.025,0.977-0.326c0.333-0.31,0.56-0.443,0.977-0.651c0.359-0.18,0.617-0.315,0.907-0.582
		c0.412-0.378,0.472-0.395,1.046-0.395v-0.651c0.78,0,1.253-0.301,1.953-0.651v-0.651c0.536,0,0.591,0.024,0.977-0.326
		c0.378-0.343,0.445-0.326,0.977-0.326v-0.651c0.536,0,0.591,0.024,0.977-0.326c0.378-0.343,0.445-0.326,0.977-0.326v-0.651
		c0.434,0,0.868,0,1.302,0v-0.651c0.536,0,0.591,0.024,0.977-0.326c0.378-0.343,0.445-0.326,0.977-0.326v-0.651
		c0.536,0,0.591,0.024,0.977-0.326c0.378-0.343,0.445-0.326,0.977-0.326v-0.651c0.219,0,0.5,0.053,0.687-0.036
		c0.239-0.114,0.357-0.487,0.597-0.597c0.316-0.145,1.032-0.018,1.388-0.018c1.04,0,2.08,0,3.12,0c1.976,0,3.952,0,5.927,0
		c0-0.471,0.095-1.044-0.129-1.431c-0.122-0.211-0.438-0.332-0.522-0.556c-0.072-0.192,0-0.547,0-0.766c0-1.036,0-2.072,0-3.107
		h0.651c0-1.904,0-3.808,0-5.712c0-0.918,0-1.835,0-2.753c0-0.522-0.057-1-0.615-1.266c-0.308-0.147-0.984-0.036-1.338-0.036v-0.651
		c-2.627,0-5.254,0-7.881,0c-1.356,0-2.712,0-4.068,0c-0.567,0-1.388-0.144-1.853,0.129c-0.434,0.256-0.354,0.452-0.848,0.522
		c-0.31,0.044-0.665,0-0.977,0c-1.519,0-3.038,0-4.557,0v0.651c-2.17,0-4.34,0-6.511,0c0-3.907,0-7.814,0-11.721
		c-1.162,0-2.323,0-3.485,0c-0.453,0-1.315-0.172-1.724,0c-0.262,0.11-0.389,0.541-0.651,0.651c-0.204,0.086-0.572,0-0.8,0
		c-2.338,0-4.676,0-7.013,0c0,2.171,0,4.341,0,6.512c-0.434,0-0.868,0-1.302,0v0.651c-0.434,0-0.868,0-1.302,0
		c0-1.736,0-3.473,0-5.209h-0.651c0-0.651,0-1.302,0-1.954c-0.879,0-1.759,0-2.638,0c-0.434,0-0.868,0-1.302,0
		c-0.799,0-0.589,0.297-1.232,0.615c-0.577,0.286-1.907,0.036-2.573,0.036c-0.891,0-1.781,0-2.672,0c0,0.434,0,0.868,0,1.302
		c-0.651,0-1.302,0-1.953,0v0.651c-1.736,0-3.472,0-5.209,0c0-0.651,0-1.302,0-1.953c-0.651,0-1.302,0-1.953,0
		c0-0.651,0-1.302,0-1.954h-0.651v-0.651c-1.302,0-2.604,0-3.906,0c0,0.434,0,0.868,0,1.302c-2.387,0-4.775,0-7.162,0
		C144.678,118.287,144.678,118.721,144.678,119.155z M156.397,100.922v0.651h-0.651c0,0.434,0,0.868,0,1.302
		c-0.651,0-1.302,0-1.953,0c0,1.085,0,2.171,0,3.256c0.434,0,0.868,0,1.302,0c-0.434,0-0.868,0-1.302,0v0.651
		c2.821,0,5.643,0,8.464,0v0.651h0.651c0,0.651,0,1.302,0,1.953h0.651h-0.651c0,0.434,0,0.868,0,1.302c-0.651,0-1.302,0-1.953,0
		c0,0.651,0,1.302,0,1.953h0.651c0,0.434,0,0.868,0,1.302c-1.953,0-3.906,0-5.86,0c0,0.651,0,1.302,0,1.954c0.434,0,0.868,0,1.302,0
		v-0.651c3.906,0,7.813,0,11.719,0c0-1.108,0-2.216,0-3.324c0-0.286-0.041-0.624,0-0.909c0.063-0.444,0.104-0.349,0.395-0.72
		c0.364-0.464,0.256-0.958,0.256-1.559c0-1.108,0-2.216,0-3.324c0-0.502-0.164-1.349,0-1.818c0.086-0.246,0.388-0.362,0.522-0.59
		c0.155-0.264,0.129-0.433,0.129-0.78c-0.868,0-1.736,0-2.604,0c0,0.651,0,1.302,0,1.954c-1.302,0-2.604,0-3.906,0
		c0-1.085,0-2.171,0-3.256C161.172,100.922,158.784,100.922,156.397,100.922z M351.719,644.648h5.209v-0.651h0.651v-0.651h0.651
		v-12.372c-2.387,0-4.775,0-7.162,0L351.719,644.648z M7.302,74.875c0-1.736,0-3.473,0-5.209c2.387,0,4.775,0,7.162,0
		c-0.389,0.389-1.162,0.944-1.302,1.451c-0.15,0.54-0.027,0.426-0.395,0.898c-0.276,0.353-0.256,0.42-0.256,0.907h-0.651
		c0,0.434,0,0.868,0,1.302C10.32,74.532,8.87,74.875,7.302,74.875z M16.417,61.201v1.302c-0.718,0-0.79-0.139-1.302-0.651
		c0,1.954,0,3.907,0,5.861h0.651v0.651h-0.651c0,0.718-0.139,0.79-0.651,1.302c0-1.161,0-2.323,0-3.484
		c0-0.996,0.345-2.632-0.326-3.353c-0.639-0.688-0.326-2.021-0.326-2.964c0-1.291,0-2.582,0-3.873c0.868,0,1.736,0,2.604,0
		C16.417,57.728,16.417,59.464,16.417,61.201z"/>
</g>
</svg>