<svg id="Layer_1" data-name="Layer 1" xmlns="http://www.w3.org/2000/svg" viewBox="0 0 600 750"><title>intro_police_locs</title><circle cx="447.97" cy="449.62" r="4.39" fill="#d13333"/><circle cx="447.97" cy="449.62" r="4.39" fill="#d13333"/><circle cx="447.97" cy="449.62" r="4.39" fill="#d13333"/><circle cx="447.97" cy="449.62" r="4.39" fill="#d13333"/><circle cx="447.97" cy="449.62" r="4.39" fill="#d13333"/><circle cx="447.97" cy="449.62" r="4.39" fill="#d13333"/><circle cx="355" cy="349.03" r="4.39" fill="#d13333"/><circle cx="355" cy="349.03" r="4.39" fill="#d13333"/><circle cx="353.15" cy="400.04" r="4.39" fill="#d13333"/><circle cx="353.15" cy="400.04" r="4.39" fill="#d13333"/><path d="M407.58,192.29a4.4,4.4,0,1,1-4.39-4.4A4.4,4.4,0,0,1,407.58,192.29Z" fill="#d13333" fill-rule="evenodd"/><path d="M407.58,192.29a4.4,4.4,0,1,1-4.39-4.4A4.4,4.4,0,0,1,407.58,192.29Z" fill="#d13333"/><circle cx="437.81" cy="389.05" r="4.39" fill="#d13333"/><circle cx="437.81" cy="389.05" r="4.39" fill="#d13333"/><path d="M374.86,115.54a4.4,4.4,0,1,1-4.39-4.39A4.4,4.4,0,0,1,374.86,115.54Z" fill="#d13333" fill-rule="evenodd"/><path d="M374.86,115.54a4.4,4.4,0,1,1-4.39-4.39A4.4,4.4,0,0,1,374.86,115.54Z" fill="#d13333"/><path d="M374.86,115.54a4.4,4.4,0,1,1-4.39-4.39A4.4,4.4,0,0,1,374.86,115.54Z" fill="#d13333" fill-rule="evenodd"/><path d="M374.86,115.54a4.4,4.4,0,1,1-4.39-4.39A4.4,4.4,0,0,1,374.86,115.54Z" fill="#d13333"/><circle cx="331.66" cy="550.83" r="4.39" fill="#d13333"/><circle cx="331.66" cy="550.83" r="4.39" fill="#d13333"/><path d="M309.53,186.65a4.4,4.4,0,1,1-4.39-4.39A4.39,4.39,0,0,1,309.53,186.65Z" fill="#d13333" fill-rule="evenodd"/><path d="M309.53,186.65a4.4,4.4,0,1,1-4.39-4.39A4.39,4.39,0,0,1,309.53,186.65Z" fill="#d13333"/><path d="M316.13,132.05a4.4,4.4,0,1,1-4.39-4.39A4.39,4.39,0,0,1,316.13,132.05Z" fill="#d13333" fill-rule="evenodd"/><path d="M316.13,132.05a4.4,4.4,0,1,1-4.39-4.39A4.39,4.39,0,0,1,316.13,132.05Z" fill="#d13333"/><path d="M316.13,132.05a4.4,4.4,0,1,1-4.39-4.39A4.39,4.39,0,0,1,316.13,132.05Z" fill="#d13333" fill-rule="evenodd"/><path d="M316.13,132.05a4.4,4.4,0,1,1-4.39-4.39A4.39,4.39,0,0,1,316.13,132.05Z" fill="#d13333"/><path d="M408.26,618.16a4.4,4.4,0,1,1-4.39-4.39A4.4,4.4,0,0,1,408.26,618.16Z" fill="#d13333" fill-rule="evenodd"/><path d="M408.26,618.16a4.4,4.4,0,1,1-4.39-4.39A4.4,4.4,0,0,1,408.26,618.16Z" fill="#d13333"/><circle cx="540.7" cy="548.91" r="4.39" fill="#d13333"/><circle cx="540.7" cy="548.91" r="4.39" fill="#d13333"/><circle cx="385.54" cy="526.8" r="4.39" fill="#d13333"/><circle cx="385.54" cy="526.8" r="4.39" fill="#d13333"/><path d="M265.8,121.7a4.4,4.4,0,1,1-4.39-4.39A4.38,4.38,0,0,1,265.8,121.7Z" fill="#d13333" fill-rule="evenodd"/><path d="M265.8,121.7a4.4,4.4,0,1,1-4.39-4.39A4.38,4.38,0,0,1,265.8,121.7Z" fill="#d13333"/><path d="M265.8,121.7a4.4,4.4,0,1,1-4.39-4.39A4.38,4.38,0,0,1,265.8,121.7Z" fill="#d13333" fill-rule="evenodd"/><path d="M265.8,121.7a4.4,4.4,0,1,1-4.39-4.39A4.38,4.38,0,0,1,265.8,121.7Z" fill="#d13333"/><circle cx="335.95" cy="283.28" r="4.39" fill="#d13333"/><circle cx="335.95" cy="283.28" r="4.39" fill="#d13333"/><path d="M266.29,218.4a4.4,4.4,0,1,1-4.39-4.4A4.39,4.39,0,0,1,266.29,218.4Z" fill="#d13333" fill-rule="evenodd"/><path d="M266.29,218.4a4.4,4.4,0,1,1-4.39-4.4A4.39,4.39,0,0,1,266.29,218.4Z" fill="#d13333"/><path d="M266.29,218.4a4.4,4.4,0,1,1-4.39-4.4A4.39,4.39,0,0,1,266.29,218.4Z" fill="#d13333" fill-rule="evenodd"/><path d="M266.29,218.4a4.4,4.4,0,1,1-4.39-4.4A4.39,4.39,0,0,1,266.29,218.4Z" fill="#d13333"/><circle cx="484.11" cy="530.3" r="4.39" fill="#d13333"/><circle cx="484.11" cy="530.3" r="4.39" fill="#d13333"/><path d="M488.5,530.33a4.4,4.4,0,1,1-4.39-4.39A4.4,4.4,0,0,1,488.5,530.33Z" fill="#d13333" fill-rule="evenodd"/><path d="M488.5,530.33a4.4,4.4,0,1,1-4.39-4.39A4.4,4.4,0,0,1,488.5,530.33Z" fill="#d13333"/><path d="M521.91,573.35a4.4,4.4,0,1,1-4.39-4.39A4.4,4.4,0,0,1,521.91,573.35Z" fill="#d13333" fill-rule="evenodd"/><path d="M521.91,573.35a4.4,4.4,0,1,1-4.39-4.39A4.4,4.4,0,0,1,521.91,573.35Z" fill="#d13333"/><circle cx="314.23" cy="538.24" r="4.39" fill="#d13333"/><circle cx="314.23" cy="538.24" r="4.39" fill="#d13333"/><circle cx="315.62" cy="537.29" r="4.39" fill="#d13333"/><circle cx="315.62" cy="537.29" r="4.39" fill="#d13333"/><circle cx="315.62" cy="537.29" r="4.39" fill="#d13333"/><circle cx="315.62" cy="537.29" r="4.39" fill="#d13333"/><circle cx="315.62" cy="537.29" r="4.39" fill="#d13333"/><circle cx="315.62" cy="537.29" r="4.39" fill="#d13333"/><circle cx="315.62" cy="537.29" r="4.39" fill="#d13333"/><circle cx="315.62" cy="537.29" r="4.39" fill="#d13333"/><circle cx="410.42" cy="505.75" r="4.39" fill="#d13333"/><circle cx="410.42" cy="505.75" r="4.39" fill="#d13333"/><path d="M548.27,565a4.4,4.4,0,1,1-4.39-4.4A4.4,4.4,0,0,1,548.27,565Z" fill="#d13333" fill-rule="evenodd"/><path d="M548.27,565a4.4,4.4,0,1,1-4.39-4.4A4.4,4.4,0,0,1,548.27,565Z" fill="#d13333"/><path d="M548.27,565a4.4,4.4,0,1,1-4.39-4.4A4.4,4.4,0,0,1,548.27,565Z" fill="#d13333" fill-rule="evenodd"/><path d="M548.27,565a4.4,4.4,0,1,1-4.39-4.4A4.4,4.4,0,0,1,548.27,565Z" fill="#d13333"/><path d="M548.27,565a4.4,4.4,0,1,1-4.39-4.4A4.4,4.4,0,0,1,548.27,565Z" fill="#d13333" fill-rule="evenodd"/><path d="M548.27,565a4.4,4.4,0,1,1-4.39-4.4A4.4,4.4,0,0,1,548.27,565Z" fill="#d13333"/><path d="M549,525.68a4.4,4.4,0,1,1-4.39-4.4A4.38,4.38,0,0,1,549,525.68Z" fill="#d13333" fill-rule="evenodd"/><path d="M549,525.68a4.4,4.4,0,1,1-4.39-4.4A4.38,4.38,0,0,1,549,525.68Z" fill="#d13333"/><path d="M549,525.68a4.4,4.4,0,1,1-4.39-4.4A4.38,4.38,0,0,1,549,525.68Z" fill="#d13333" fill-rule="evenodd"/><path d="M549,525.68a4.4,4.4,0,1,1-4.39-4.4A4.38,4.38,0,0,1,549,525.68Z" fill="#d13333"/><path d="M549,525.68a4.4,4.4,0,1,1-4.39-4.4A4.38,4.38,0,0,1,549,525.68Z" fill="#d13333" fill-rule="evenodd"/><path d="M549,525.68a4.4,4.4,0,1,1-4.39-4.4A4.38,4.38,0,0,1,549,525.68Z" fill="#d13333"/><path d="M549,525.68a4.4,4.4,0,1,1-4.39-4.4A4.38,4.38,0,0,1,549,525.68Z" fill="#d13333" fill-rule="evenodd"/><path d="M549,525.68a4.4,4.4,0,1,1-4.39-4.4A4.38,4.38,0,0,1,549,525.68Z" fill="#d13333"/><path d="M549,525.68a4.4,4.4,0,1,1-4.39-4.4A4.38,4.38,0,0,1,549,525.68Z" fill="#d13333" fill-rule="evenodd"/><path d="M549,525.68a4.4,4.4,0,1,1-4.39-4.4A4.38,4.38,0,0,1,549,525.68Z" fill="#d13333"/><path d="M549,525.68a4.4,4.4,0,1,1-4.39-4.4A4.38,4.38,0,0,1,549,525.68Z" fill="#d13333" fill-rule="evenodd"/><path d="M549,525.68a4.4,4.4,0,1,1-4.39-4.4A4.38,4.38,0,0,1,549,525.68Z" fill="#d13333"/><path d="M549,525.68a4.4,4.4,0,1,1-4.39-4.4A4.38,4.38,0,0,1,549,525.68Z" fill="#d13333" fill-rule="evenodd"/><path d="M549,525.68a4.4,4.4,0,1,1-4.39-4.4A4.38,4.38,0,0,1,549,525.68Z" fill="#d13333"/><path d="M416.21,143.56a4.4,4.4,0,1,1-4.39-4.4A4.38,4.38,0,0,1,416.21,143.56Z" fill="#d13333" fill-rule="evenodd"/><path d="M416.21,143.56a4.4,4.4,0,1,1-4.39-4.4A4.38,4.38,0,0,1,416.21,143.56Z" fill="#d13333"/><path d="M351.75,198.37a4.4,4.4,0,1,1-4.39-4.4A4.39,4.39,0,0,1,351.75,198.37Z" fill="#d13333" fill-rule="evenodd"/><path d="M351.75,198.37a4.4,4.4,0,1,1-4.39-4.4A4.39,4.39,0,0,1,351.75,198.37Z" fill="#d13333"/><circle cx="538.65" cy="627.61" r="4.39" fill="#d13333"/><circle cx="538.65" cy="627.61" r="4.39" fill="#d13333"/><path d="M454.16,432.73a4.4,4.4,0,1,1-4.39-4.39A4.39,4.39,0,0,1,454.16,432.73Z" fill="#d13333" fill-rule="evenodd"/><path d="M454.16,432.73a4.4,4.4,0,1,1-4.39-4.39A4.39,4.39,0,0,1,454.16,432.73Z" fill="#d13333"/><circle cx="449.77" cy="432.84" r="4.39" fill="#d13333"/><circle cx="449.77" cy="432.84" r="4.39" fill="#d13333"/><circle cx="446.19" cy="406.08" r="4.39" fill="#d13333"/><circle cx="446.19" cy="406.08" r="4.39" fill="#d13333"/><circle cx="446.19" cy="406.08" r="4.39" fill="#d13333"/><circle cx="446.19" cy="406.08" r="4.39" fill="#d13333"/><circle cx="446.19" cy="406.08" r="4.39" fill="#d13333"/><circle cx="446.19" cy="406.08" r="4.39" fill="#d13333"/><path d="M350.16,114.36a4.4,4.4,0,1,1-4.39-4.4A4.39,4.39,0,0,1,350.16,114.36Z" fill="#d13333" fill-rule="evenodd"/><path d="M350.16,114.36a4.4,4.4,0,1,1-4.39-4.4A4.39,4.39,0,0,1,350.16,114.36Z" fill="#d13333"/><path d="M231.44,224.39a4.4,4.4,0,1,1-4.39-4.39A4.4,4.4,0,0,1,231.44,224.39Z" fill="#d13333" fill-rule="evenodd"/><path d="M231.44,224.39a4.4,4.4,0,1,1-4.39-4.39A4.4,4.4,0,0,1,231.44,224.39Z" fill="#d13333"/><path d="M231.44,224.39a4.4,4.4,0,1,1-4.39-4.39A4.4,4.4,0,0,1,231.44,224.39Z" fill="#d13333" fill-rule="evenodd"/><path d="M231.44,224.39a4.4,4.4,0,1,1-4.39-4.39A4.4,4.4,0,0,1,231.44,224.39Z" fill="#d13333"/><circle cx="461.47" cy="446.48" r="4.39" fill="#d13333"/><circle cx="461.47" cy="446.48" r="4.39" fill="#d13333"/><circle cx="531.36" cy="600.67" r="4.39" fill="#d13333"/><circle cx="531.36" cy="600.67" r="4.39" fill="#d13333"/><circle cx="473.47" cy="575.42" r="4.39" fill="#d13333"/><circle cx="473.47" cy="575.42" r="4.39" fill="#d13333"/><circle cx="216.13" cy="452.56" r="4.39" fill="#d13333"/><circle cx="216.13" cy="452.56" r="4.39" fill="#d13333"/><circle cx="317.87" cy="249.41" r="4.39" fill="#d13333"/><circle cx="317.87" cy="249.41" r="4.39" fill="#d13333"/><circle cx="317.88" cy="249.62" r="4.39" fill="#d13333"/><circle cx="317.88" cy="249.62" r="4.39" fill="#d13333"/><path d="M501.36,431.94a4.4,4.4,0,1,1-4.39-4.39A4.39,4.39,0,0,1,501.36,431.94Z" fill="#d13333" fill-rule="evenodd"/><path d="M501.36,431.94a4.4,4.4,0,1,1-4.39-4.39A4.39,4.39,0,0,1,501.36,431.94Z" fill="#d13333"/><circle cx="361.5" cy="539.31" r="4.39" fill="#d13333"/><circle cx="361.5" cy="539.31" r="4.39" fill="#d13333"/><path d="M365.83,455.29a4.4,4.4,0,1,1-4.39-4.39A4.39,4.39,0,0,1,365.83,455.29Z" fill="#d13333" fill-rule="evenodd"/><path d="M365.83,455.29a4.4,4.4,0,1,1-4.39-4.39A4.39,4.39,0,0,1,365.83,455.29Z" fill="#d13333"/><circle cx="497.42" cy="707.83" r="4.39" fill="#d13333"/><circle cx="497.42" cy="707.83" r="4.39" fill="#d13333"/><path d="M326.65,247.58a4.4,4.4,0,1,1-4.39-4.39A4.39,4.39,0,0,1,326.65,247.58Z" fill="#d13333" fill-rule="evenodd"/><path d="M326.65,247.58a4.4,4.4,0,1,1-4.39-4.39A4.39,4.39,0,0,1,326.65,247.58Z" fill="#d13333"/><path d="M327.22,357.83a4.4,4.4,0,1,1-4.4-4.39A4.4,4.4,0,0,1,327.22,357.83Z" fill="#d13333" fill-rule="evenodd"/><path d="M327.22,357.83a4.4,4.4,0,1,1-4.4-4.39A4.4,4.4,0,0,1,327.22,357.83Z" fill="#d13333"/><path d="M327.22,357.83a4.4,4.4,0,1,1-4.4-4.39A4.4,4.4,0,0,1,327.22,357.83Z" fill="#d13333" fill-rule="evenodd"/><path d="M327.22,357.83a4.4,4.4,0,1,1-4.4-4.39A4.4,4.4,0,0,1,327.22,357.83Z" fill="#d13333"/><circle cx="354.06" cy="496.57" r="4.39" fill="#d13333"/><circle cx="354.06" cy="496.57" r="4.39" fill="#d13333"/><circle cx="354.06" cy="496.57" r="4.39" fill="#d13333"/><circle cx="354.06" cy="496.57" r="4.39" fill="#d13333"/><circle cx="354.06" cy="496.57" r="4.39" fill="#d13333"/><circle cx="354.06" cy="496.57" r="4.39" fill="#d13333"/><circle cx="251.6" cy="289.79" r="4.39" fill="#d13333"/><circle cx="251.6" cy="289.79" r="4.39" fill="#d13333"/><path d="M354.42,318.45a4.4,4.4,0,1,1-4.39-4.39A4.4,4.4,0,0,1,354.42,318.45Z" fill="#d13333" fill-rule="evenodd"/><path d="M354.42,318.45a4.4,4.4,0,1,1-4.39-4.39A4.4,4.4,0,0,1,354.42,318.45Z" fill="#d13333"/><circle cx="391.31" cy="427.97" r="4.39" fill="#d13333"/><circle cx="391.31" cy="427.97" r="4.39" fill="#d13333"/><circle cx="391.31" cy="427.97" r="4.39" fill="#d13333"/><circle cx="391.31" cy="427.97" r="4.39" fill="#d13333"/><path d="M240.12,177.67a4.4,4.4,0,1,1-4.4-4.4A4.4,4.4,0,0,1,240.12,177.67Z" fill="#d13333" fill-rule="evenodd"/><path d="M240.12,177.67a4.4,4.4,0,1,1-4.4-4.4A4.4,4.4,0,0,1,240.12,177.67Z" fill="#d13333"/><path d="M240.12,177.67a4.4,4.4,0,1,1-4.4-4.4A4.4,4.4,0,0,1,240.12,177.67Z" fill="#d13333" fill-rule="evenodd"/><path d="M240.12,177.67a4.4,4.4,0,1,1-4.4-4.4A4.4,4.4,0,0,1,240.12,177.67Z" fill="#d13333"/><path d="M240.12,177.67a4.4,4.4,0,1,1-4.4-4.4A4.4,4.4,0,0,1,240.12,177.67Z" fill="#d13333" fill-rule="evenodd"/><path d="M240.12,177.67a4.4,4.4,0,1,1-4.4-4.4A4.4,4.4,0,0,1,240.12,177.67Z" fill="#d13333"/><circle cx="323.53" cy="645.77" r="4.39" fill="#d13333"/><circle cx="323.53" cy="645.77" r="4.39" fill="#d13333"/><path d="M326.18,645.83a4.4,4.4,0,1,1-4.4-4.4A4.4,4.4,0,0,1,326.18,645.83Z" fill="#d13333" fill-rule="evenodd"/><path d="M326.18,645.83a4.4,4.4,0,1,1-4.4-4.4A4.4,4.4,0,0,1,326.18,645.83Z" fill="#d13333"/><path d="M354.22,257.26a4.4,4.4,0,1,1-4.39-4.4A4.4,4.4,0,0,1,354.22,257.26Z" fill="#d13333" fill-rule="evenodd"/><path d="M354.22,257.26a4.4,4.4,0,1,1-4.39-4.4A4.4,4.4,0,0,1,354.22,257.26Z" fill="#d13333"/><path d="M391.15,322a4.4,4.4,0,1,1-4.4-4.39A4.4,4.4,0,0,1,391.15,322Z" fill="#d13333" fill-rule="evenodd"/><path d="M391.15,322a4.4,4.4,0,1,1-4.4-4.39A4.4,4.4,0,0,1,391.15,322Z" fill="#d13333"/><path d="M465.17,667a4.4,4.4,0,1,1-4.39-4.39A4.4,4.4,0,0,1,465.17,667Z" fill="#d13333" fill-rule="evenodd"/><path d="M465.17,667a4.4,4.4,0,1,1-4.39-4.39A4.4,4.4,0,0,1,465.17,667Z" fill="#d13333"/><path d="M468.54,383.51a4.4,4.4,0,1,1-4.4-4.4A4.4,4.4,0,0,1,468.54,383.51Z" fill="#d13333" fill-rule="evenodd"/><path d="M468.54,383.51a4.4,4.4,0,1,1-4.4-4.4A4.4,4.4,0,0,1,468.54,383.51Z" fill="#d13333"/><path d="M468.54,383.51a4.4,4.4,0,1,1-4.4-4.4A4.4,4.4,0,0,1,468.54,383.51Z" fill="#d13333" fill-rule="evenodd"/><path d="M468.54,383.51a4.4,4.4,0,1,1-4.4-4.4A4.4,4.4,0,0,1,468.54,383.51Z" fill="#d13333"/><path d="M506.72,547.38a4.4,4.4,0,1,1-4.4-4.39A4.4,4.4,0,0,1,506.72,547.38Z" fill="#d13333" fill-rule="evenodd"/><path d="M506.72,547.38a4.4,4.4,0,1,1-4.4-4.39A4.4,4.4,0,0,1,506.72,547.38Z" fill="#d13333"/><path d="M506.72,547.38a4.4,4.4,0,1,1-4.4-4.39A4.4,4.4,0,0,1,506.72,547.38Z" fill="#d13333" fill-rule="evenodd"/><path d="M506.72,547.38a4.4,4.4,0,1,1-4.4-4.39A4.4,4.4,0,0,1,506.72,547.38Z" fill="#d13333"/><circle cx="404.45" cy="591.11" r="4.39" fill="#d13333"/><circle cx="404.45" cy="591.11" r="4.39" fill="#d13333"/><path d="M380.8,44.51a4.4,4.4,0,1,1-4.39-4.4A4.39,4.39,0,0,1,380.8,44.51Z" fill="#d13333" fill-rule="evenodd"/><path d="M380.8,44.51a4.4,4.4,0,1,1-4.39-4.4A4.39,4.39,0,0,1,380.8,44.51Z" fill="#d13333"/><path d="M460.67,384.67a4.4,4.4,0,1,1-4.4-4.39A4.4,4.4,0,0,1,460.67,384.67Z" fill="#d13333" fill-rule="evenodd"/><path d="M460.67,384.67a4.4,4.4,0,1,1-4.4-4.39A4.4,4.4,0,0,1,460.67,384.67Z" fill="#d13333"/><circle cx="399.16" cy="323.96" r="4.39" fill="#d13333"/><circle cx="399.16" cy="323.96" r="4.39" fill="#d13333"/><circle cx="399.61" cy="323.95" r="4.39" fill="#d13333"/><circle cx="399.61" cy="323.95" r="4.39" fill="#d13333"/><circle cx="522.63" cy="558.73" r="4.39" fill="#d13333"/><circle cx="522.63" cy="558.73" r="4.39" fill="#d13333"/><circle cx="522.63" cy="558.73" r="4.39" fill="#d13333"/><circle cx="522.63" cy="558.73" r="4.39" fill="#d13333"/><circle cx="522.63" cy="558.73" r="4.39" fill="#d13333"/><circle cx="522.63" cy="558.73" r="4.39" fill="#d13333"/><circle cx="522.63" cy="558.73" r="4.39" fill="#d13333"/><circle cx="522.63" cy="558.73" r="4.39" fill="#d13333"/><circle cx="522.63" cy="558.73" r="4.39" fill="#d13333"/><circle cx="522.63" cy="558.73" r="4.39" fill="#d13333"/><circle cx="364.36" cy="438.62" r="4.39" fill="#d13333"/><circle cx="364.36" cy="438.62" r="4.39" fill="#d13333"/><circle cx="364.36" cy="438.73" r="4.39" fill="#d13333"/><circle cx="364.36" cy="438.73" r="4.39" fill="#d13333"/><circle cx="261.28" cy="215.11" r="4.39" fill="#d13333"/><circle cx="261.28" cy="215.11" r="4.39" fill="#d13333"/><circle cx="385.97" cy="453.67" r="4.39" fill="#d13333"/><circle cx="385.97" cy="453.67" r="4.39" fill="#d13333"/><path d="M488.48,715.48a4.4,4.4,0,1,1-4.4-4.39A4.4,4.4,0,0,1,488.48,715.48Z" fill="#d13333" fill-rule="evenodd"/><path d="M488.48,715.48a4.4,4.4,0,1,1-4.4-4.39A4.4,4.4,0,0,1,488.48,715.48Z" fill="#d13333"/><path d="M488.48,715.48a4.4,4.4,0,1,1-4.4-4.39A4.4,4.4,0,0,1,488.48,715.48Z" fill="#d13333" fill-rule="evenodd"/><path d="M488.48,715.48a4.4,4.4,0,1,1-4.4-4.39A4.4,4.4,0,0,1,488.48,715.48Z" fill="#d13333"/><circle cx="406.95" cy="589.19" r="4.39" fill="#d13333"/><circle cx="406.95" cy="589.19" r="4.39" fill="#d13333"/><path d="M308.54,87.91a4.4,4.4,0,1,1-4.4-4.4A4.4,4.4,0,0,1,308.54,87.91Z" fill="#d13333" fill-rule="evenodd"/><path d="M308.54,87.91a4.4,4.4,0,1,1-4.4-4.4A4.4,4.4,0,0,1,308.54,87.91Z" fill="#d13333"/><path d="M308.54,87.91a4.4,4.4,0,1,1-4.4-4.4A4.4,4.4,0,0,1,308.54,87.91Z" fill="#d13333" fill-rule="evenodd"/><path d="M308.54,87.91a4.4,4.4,0,1,1-4.4-4.4A4.4,4.4,0,0,1,308.54,87.91Z" fill="#d13333"/><path d="M239.7,217a4.4,4.4,0,1,1-4.39-4.4A4.39,4.39,0,0,1,239.7,217Z" fill="#d13333" fill-rule="evenodd"/><path d="M239.7,217a4.4,4.4,0,1,1-4.39-4.4A4.39,4.39,0,0,1,239.7,217Z" fill="#d13333"/><circle cx="370.55" cy="484.67" r="4.39" fill="#d13333"/><circle cx="370.55" cy="484.67" r="4.39" fill="#d13333"/><circle cx="244.74" cy="315.86" r="4.39" fill="#d13333"/><circle cx="244.74" cy="315.86" r="4.39" fill="#d13333"/><circle cx="268.24" cy="307" r="4.39" fill="#d13333"/><circle cx="268.24" cy="307" r="4.39" fill="#d13333"/><path d="M365.24,251.3a4.4,4.4,0,1,1-4.39-4.39A4.39,4.39,0,0,1,365.24,251.3Z" fill="#d13333" fill-rule="evenodd"/><path d="M365.24,251.3a4.4,4.4,0,1,1-4.39-4.39A4.39,4.39,0,0,1,365.24,251.3Z" fill="#d13333"/><path d="M365.24,251.3a4.4,4.4,0,1,1-4.39-4.39A4.39,4.39,0,0,1,365.24,251.3Z" fill="#d13333" fill-rule="evenodd"/><path d="M365.24,251.3a4.4,4.4,0,1,1-4.39-4.39A4.39,4.39,0,0,1,365.24,251.3Z" fill="#d13333"/><path d="M365.24,251.3a4.4,4.4,0,1,1-4.39-4.39A4.39,4.39,0,0,1,365.24,251.3Z" fill="#d13333" fill-rule="evenodd"/><path d="M365.24,251.3a4.4,4.4,0,1,1-4.39-4.39A4.39,4.39,0,0,1,365.24,251.3Z" fill="#d13333"/><path d="M365.24,251.3a4.4,4.4,0,1,1-4.39-4.39A4.39,4.39,0,0,1,365.24,251.3Z" fill="#d13333" fill-rule="evenodd"/><path d="M365.24,251.3a4.4,4.4,0,1,1-4.39-4.39A4.39,4.39,0,0,1,365.24,251.3Z" fill="#d13333"/><path d="M348.31,82.8a4.4,4.4,0,1,1-4.4-4.39A4.4,4.4,0,0,1,348.31,82.8Z" fill="#d13333" fill-rule="evenodd"/><path d="M348.31,82.8a4.4,4.4,0,1,1-4.4-4.39A4.4,4.4,0,0,1,348.31,82.8Z" fill="#d13333"/><circle cx="532.2" cy="549.13" r="4.39" fill="#d13333"/><circle cx="532.2" cy="549.13" r="4.39" fill="#d13333"/><circle cx="338.28" cy="422.08" r="4.39" fill="#d13333"/><circle cx="338.28" cy="422.08" r="4.39" fill="#d13333"/><circle cx="401.27" cy="543.4" r="4.39" fill="#d13333"/><circle cx="401.27" cy="543.4" r="4.39" fill="#d13333"/><circle cx="401.27" cy="543.4" r="4.39" fill="#d13333"/><circle cx="401.27" cy="543.4" r="4.39" fill="#d13333"/><circle cx="401.27" cy="543.4" r="4.39" fill="#d13333"/><circle cx="401.27" cy="543.4" r="4.39" fill="#d13333"/><circle cx="401.27" cy="543.4" r="4.39" fill="#d13333"/><circle cx="401.27" cy="543.4" r="4.39" fill="#d13333"/><circle cx="401.27" cy="543.4" r="4.39" fill="#d13333"/><circle cx="401.27" cy="543.4" r="4.39" fill="#d13333"/><circle cx="401.17" cy="540" r="4.39" fill="#d13333"/><circle cx="401.17" cy="540" r="4.39" fill="#d13333"/><circle cx="482.76" cy="614.31" r="4.39" fill="#d13333"/><circle cx="482.76" cy="614.31" r="4.39" fill="#d13333"/><circle cx="477.88" cy="614.45" r="4.39" fill="#d13333"/><circle cx="477.88" cy="614.45" r="4.39" fill="#d13333"/><circle cx="482.76" cy="614.31" r="4.39" fill="#d13333"/><circle cx="482.76" cy="614.31" r="4.39" fill="#d13333"/><circle cx="477.88" cy="614.45" r="4.39" fill="#d13333"/><circle cx="477.88" cy="614.45" r="4.39" fill="#d13333"/><circle cx="482.76" cy="614.31" r="4.39" fill="#d13333"/><circle cx="482.76" cy="614.31" r="4.39" fill="#d13333"/><path d="M371,297.67a4.4,4.4,0,1,1-4.4-4.4A4.4,4.4,0,0,1,371,297.67Z" fill="#d13333" fill-rule="evenodd"/><path d="M371,297.67a4.4,4.4,0,1,1-4.4-4.4A4.4,4.4,0,0,1,371,297.67Z" fill="#d13333"/><path d="M371,297.67a4.4,4.4,0,1,1-4.4-4.4A4.4,4.4,0,0,1,371,297.67Z" fill="#d13333" fill-rule="evenodd"/><path d="M371,297.67a4.4,4.4,0,1,1-4.4-4.4A4.4,4.4,0,0,1,371,297.67Z" fill="#d13333"/><path d="M371,297.67a4.4,4.4,0,1,1-4.4-4.4A4.4,4.4,0,0,1,371,297.67Z" fill="#d13333" fill-rule="evenodd"/><path d="M371,297.67a4.4,4.4,0,1,1-4.4-4.4A4.4,4.4,0,0,1,371,297.67Z" fill="#d13333"/><path d="M371,297.67a4.4,4.4,0,1,1-4.4-4.4A4.4,4.4,0,0,1,371,297.67Z" fill="#d13333" fill-rule="evenodd"/><path d="M371,297.67a4.4,4.4,0,1,1-4.4-4.4A4.4,4.4,0,0,1,371,297.67Z" fill="#d13333"/><circle cx="469.83" cy="626.68" r="4.39" fill="#d13333"/><circle cx="469.83" cy="626.68" r="4.39" fill="#d13333"/><circle cx="313.38" cy="436.96" r="4.39" fill="#d13333"/><circle cx="313.38" cy="436.96" r="4.39" fill="#d13333"/><circle cx="313.38" cy="436.96" r="4.39" fill="#d13333"/><circle cx="313.38" cy="436.96" r="4.39" fill="#d13333"/><circle cx="313.38" cy="436.96" r="4.39" fill="#d13333"/><circle cx="313.38" cy="436.96" r="4.39" fill="#d13333"/><circle cx="313.38" cy="436.96" r="4.39" fill="#d13333"/><circle cx="313.38" cy="436.96" r="4.39" fill="#d13333"/><circle cx="313.38" cy="436.96" r="4.39" fill="#d13333"/><circle cx="313.38" cy="436.96" r="4.39" fill="#d13333"/><circle cx="454.83" cy="655.97" r="4.39" fill="#d13333"/><circle cx="454.83" cy="655.97" r="4.39" fill="#d13333"/><circle cx="454.83" cy="655.97" r="4.39" fill="#d13333"/><circle cx="454.83" cy="655.97" r="4.39" fill="#d13333"/><circle cx="383.09" cy="437.62" r="4.39" fill="#d13333"/><circle cx="383.09" cy="437.62" r="4.39" fill="#d13333"/><circle cx="383.09" cy="437.62" r="4.39" fill="#d13333"/><circle cx="383.09" cy="437.62" r="4.39" fill="#d13333"/><circle cx="334.63" cy="212.65" r="4.39" fill="#d13333"/><circle cx="334.63" cy="212.65" r="4.39" fill="#d13333"/><path d="M324.66,545.61a4.4,4.4,0,1,1-4.39-4.4A4.4,4.4,0,0,1,324.66,545.61Z" fill="#d13333" fill-rule="evenodd"/><path d="M324.66,545.61a4.4,4.4,0,1,1-4.39-4.4A4.4,4.4,0,0,1,324.66,545.61Z" fill="#d13333"/><circle cx="300.72" cy="303.12" r="4.39" fill="#d13333"/><circle cx="300.72" cy="303.12" r="4.39" fill="#d13333"/><path d="M254.76,296.76a4.4,4.4,0,1,1-4.39-4.4A4.39,4.39,0,0,1,254.76,296.76Z" fill="#d13333" fill-rule="evenodd"/><path d="M254.76,296.76a4.4,4.4,0,1,1-4.39-4.4A4.39,4.39,0,0,1,254.76,296.76Z" fill="#d13333"/><path d="M254.76,296.76a4.4,4.4,0,1,1-4.39-4.4A4.39,4.39,0,0,1,254.76,296.76Z" fill="#d13333" fill-rule="evenodd"/><path d="M254.76,296.76a4.4,4.4,0,1,1-4.39-4.4A4.39,4.39,0,0,1,254.76,296.76Z" fill="#d13333"/><circle cx="370.89" cy="293.21" r="4.39" fill="#d13333"/><circle cx="370.89" cy="293.21" r="4.39" fill="#d13333"/><circle cx="370.89" cy="293.21" r="4.39" fill="#d13333"/><circle cx="370.89" cy="293.21" r="4.39" fill="#d13333"/><path d="M149.45,119.48a4.4,4.4,0,1,1-4.39-4.39A4.39,4.39,0,0,1,149.45,119.48Z" fill="#d13333" fill-rule="evenodd"/><path d="M149.45,119.48a4.4,4.4,0,1,1-4.39-4.39A4.39,4.39,0,0,1,149.45,119.48Z" fill="#d13333"/><circle cx="313.85" cy="158.37" r="4.39" fill="#d13333"/><circle cx="313.85" cy="158.37" r="4.39" fill="#d13333"/><circle cx="470.96" cy="547.12" r="4.39" fill="#d13333"/><circle cx="470.96" cy="547.12" r="4.39" fill="#d13333"/><circle cx="470.96" cy="547.12" r="4.39" fill="#d13333"/><circle cx="470.96" cy="547.12" r="4.39" fill="#d13333"/><circle cx="470.96" cy="547.12" r="4.39" fill="#d13333"/><circle cx="470.96" cy="547.12" r="4.39" fill="#d13333"/><circle cx="222.15" cy="479.94" r="4.39" fill="#d13333"/><circle cx="222.15" cy="479.94" r="4.39" fill="#d13333"/><path d="M252.8,276.82a4.4,4.4,0,1,1-4.39-4.39A4.39,4.39,0,0,1,252.8,276.82Z" fill="#d13333" fill-rule="evenodd"/><path d="M252.8,276.82a4.4,4.4,0,1,1-4.39-4.39A4.39,4.39,0,0,1,252.8,276.82Z" fill="#d13333"/><path d="M252.8,276.82a4.4,4.4,0,1,1-4.39-4.39A4.39,4.39,0,0,1,252.8,276.82Z" fill="#d13333" fill-rule="evenodd"/><path d="M252.8,276.82a4.4,4.4,0,1,1-4.39-4.39A4.39,4.39,0,0,1,252.8,276.82Z" fill="#d13333"/><circle cx="443.43" cy="360.65" r="4.39" fill="#d13333"/><circle cx="443.43" cy="360.65" r="4.39" fill="#d13333"/><circle cx="460.02" cy="481.48" r="4.39" fill="#d13333"/><circle cx="460.02" cy="481.48" r="4.39" fill="#d13333"/><circle cx="458.77" cy="367.46" r="4.39" fill="#d13333"/><circle cx="458.77" cy="367.46" r="4.39" fill="#d13333"/><circle cx="458.77" cy="367.46" r="4.39" fill="#d13333"/><circle cx="458.77" cy="367.46" r="4.39" fill="#d13333"/><circle cx="302.9" cy="556.3" r="4.39" fill="#d13333"/><circle cx="302.9" cy="556.3" r="4.39" fill="#d13333"/><circle cx="466.99" cy="437.72" r="4.39" fill="#d13333"/><circle cx="466.99" cy="437.72" r="4.39" fill="#d13333"/><circle cx="378.55" cy="477.67" r="4.39" fill="#d13333"/><circle cx="378.55" cy="477.67" r="4.39" fill="#d13333"/><circle cx="332.64" cy="490.73" r="4.39" fill="#d13333"/><circle cx="332.64" cy="490.73" r="4.39" fill="#d13333"/><circle cx="183.14" cy="81.34" r="4.39" fill="#d13333"/><circle cx="183.14" cy="81.34" r="4.39" fill="#d13333"/><circle cx="183.14" cy="81.34" r="4.39" fill="#d13333"/><circle cx="183.14" cy="81.34" r="4.39" fill="#d13333"/><circle cx="416.21" cy="680.73" r="4.39" fill="#d13333"/><circle cx="416.21" cy="680.73" r="4.39" fill="#d13333"/><path d="M312.19,432.85a4.4,4.4,0,1,1-4.4-4.39A4.4,4.4,0,0,1,312.19,432.85Z" fill="#d13333" fill-rule="evenodd"/><path d="M312.19,432.85a4.4,4.4,0,1,1-4.4-4.39A4.4,4.4,0,0,1,312.19,432.85Z" fill="#d13333"/><circle cx="472.51" cy="411.72" r="4.39" fill="#d13333"/><circle cx="472.51" cy="411.72" r="4.39" fill="#d13333"/><circle cx="307.77" cy="368.3" r="4.39" fill="#d13333"/><circle cx="307.77" cy="368.3" r="4.39" fill="#d13333"/><circle cx="320.66" cy="301.75" r="4.39" fill="#d13333"/><circle cx="320.66" cy="301.75" r="4.39" fill="#d13333"/><circle cx="389.29" cy="648.89" r="4.39" fill="#d13333"/><circle cx="389.29" cy="648.89" r="4.39" fill="#d13333"/><path d="M359.68,479a4.4,4.4,0,1,1-4.39-4.39A4.39,4.39,0,0,1,359.68,479Z" fill="#d13333" fill-rule="evenodd"/><path d="M359.68,479a4.4,4.4,0,1,1-4.39-4.39A4.39,4.39,0,0,1,359.68,479Z" fill="#d13333"/><circle cx="331.14" cy="351.22" r="4.39" fill="#d13333"/><circle cx="331.14" cy="351.22" r="4.39" fill="#d13333"/><circle cx="331.14" cy="351.22" r="4.39" fill="#d13333"/><circle cx="331.14" cy="351.22" r="4.39" fill="#d13333"/><circle cx="331.14" cy="351.22" r="4.39" fill="#d13333"/><circle cx="331.14" cy="351.22" r="4.39" fill="#d13333"/><circle cx="359.46" cy="445.27" r="4.39" fill="#d13333"/><circle cx="359.46" cy="445.27" r="4.39" fill="#d13333"/><path d="M363.87,445.72a4.4,4.4,0,1,1-4.4-4.39A4.4,4.4,0,0,1,363.87,445.72Z" fill="#d13333" fill-rule="evenodd"/><path d="M363.87,445.72a4.4,4.4,0,1,1-4.4-4.39A4.4,4.4,0,0,1,363.87,445.72Z" fill="#d13333"/><path d="M270.93,182a4.4,4.4,0,1,1-4.39-4.39A4.39,4.39,0,0,1,270.93,182Z" fill="#d13333" fill-rule="evenodd"/><path d="M270.93,182a4.4,4.4,0,1,1-4.39-4.39A4.39,4.39,0,0,1,270.93,182Z" fill="#d13333"/><path d="M270.93,182a4.4,4.4,0,1,1-4.39-4.39A4.39,4.39,0,0,1,270.93,182Z" fill="#d13333" fill-rule="evenodd"/><path d="M270.93,182a4.4,4.4,0,1,1-4.39-4.39A4.39,4.39,0,0,1,270.93,182Z" fill="#d13333"/><path d="M270.93,182a4.4,4.4,0,1,1-4.39-4.39A4.39,4.39,0,0,1,270.93,182Z" fill="#d13333" fill-rule="evenodd"/><path d="M270.93,182a4.4,4.4,0,1,1-4.39-4.39A4.39,4.39,0,0,1,270.93,182Z" fill="#d13333"/><circle cx="407.32" cy="576.81" r="4.39" fill="#d13333"/><circle cx="407.32" cy="576.81" r="4.39" fill="#d13333"/><circle cx="389" cy="555.69" r="4.39" fill="#d13333"/><circle cx="389" cy="555.69" r="4.39" fill="#d13333"/><path d="M311.12,317.74a4.4,4.4,0,1,1-4.4-4.39A4.4,4.4,0,0,1,311.12,317.74Z" fill="#d13333" fill-rule="evenodd"/><path d="M311.12,317.74a4.4,4.4,0,1,1-4.4-4.39A4.4,4.4,0,0,1,311.12,317.74Z" fill="#d13333"/><circle cx="467.26" cy="407.99" r="4.39" fill="#d13333"/><circle cx="467.26" cy="407.99" r="4.39" fill="#d13333"/><circle cx="467.26" cy="407.99" r="4.39" fill="#d13333"/><circle cx="467.26" cy="407.99" r="4.39" fill="#d13333"/><circle cx="319.11" cy="223.15" r="4.39" fill="#d13333"/><circle cx="319.11" cy="223.15" r="4.39" fill="#d13333"/><path d="M322.62,223.91a4.4,4.4,0,1,1-4.4-4.4A4.4,4.4,0,0,1,322.62,223.91Z" fill="#d13333" fill-rule="evenodd"/><path d="M322.62,223.91a4.4,4.4,0,1,1-4.4-4.4A4.4,4.4,0,0,1,322.62,223.91Z" fill="#d13333"/><circle cx="319.11" cy="223.15" r="4.39" fill="#d13333"/><circle cx="319.11" cy="223.15" r="4.39" fill="#d13333"/><circle cx="359.84" cy="458.99" r="4.39" fill="#d13333"/><circle cx="359.84" cy="458.99" r="4.39" fill="#d13333"/><circle cx="359.84" cy="458.99" r="4.39" fill="#d13333"/><circle cx="359.84" cy="458.99" r="4.39" fill="#d13333"/><circle cx="359.84" cy="458.99" r="4.39" fill="#d13333"/><circle cx="359.84" cy="458.99" r="4.39" fill="#d13333"/><circle cx="359.84" cy="458.99" r="4.39" fill="#d13333"/><circle cx="359.84" cy="458.99" r="4.39" fill="#d13333"/><circle cx="359.84" cy="458.99" r="4.39" fill="#d13333"/><circle cx="359.84" cy="458.99" r="4.39" fill="#d13333"/><path d="M322,373.85a4.4,4.4,0,1,1-4.4-4.4A4.4,4.4,0,0,1,322,373.85Z" fill="#d13333" fill-rule="evenodd"/><path d="M322,373.85a4.4,4.4,0,1,1-4.4-4.4A4.4,4.4,0,0,1,322,373.85Z" fill="#d13333"/><circle cx="303.26" cy="302.53" r="4.39" fill="#d13333"/><circle cx="303.26" cy="302.53" r="4.39" fill="#d13333"/><circle cx="451.74" cy="582.06" r="4.39" fill="#d13333"/><circle cx="451.74" cy="582.06" r="4.39" fill="#d13333"/><path d="M303.1,297.57a4.4,4.4,0,1,1-4.4-4.39A4.4,4.4,0,0,1,303.1,297.57Z" fill="#d13333" fill-rule="evenodd"/><path d="M303.1,297.57a4.4,4.4,0,1,1-4.4-4.39A4.4,4.4,0,0,1,303.1,297.57Z" fill="#d13333"/><path d="M404.92,114.43a4.4,4.4,0,1,1-4.39-4.4A4.39,4.39,0,0,1,404.92,114.43Z" fill="#d13333" fill-rule="evenodd"/><path d="M404.92,114.43a4.4,4.4,0,1,1-4.39-4.4A4.39,4.39,0,0,1,404.92,114.43Z" fill="#d13333"/><path d="M416.75,593.05a4.4,4.4,0,1,1-4.39-4.4A4.4,4.4,0,0,1,416.75,593.05Z" fill="#d13333" fill-rule="evenodd"/><path d="M416.75,593.05a4.4,4.4,0,1,1-4.39-4.4A4.4,4.4,0,0,1,416.75,593.05Z" fill="#d13333"/><path d="M321.45,310.67a4.4,4.4,0,1,1-4.4-4.4A4.39,4.39,0,0,1,321.45,310.67Z" fill="#d13333" fill-rule="evenodd"/><path d="M321.45,310.67a4.4,4.4,0,1,1-4.4-4.4A4.39,4.39,0,0,1,321.45,310.67Z" fill="#d13333"/><circle cx="422.01" cy="556.01" r="4.39" fill="#d13333"/><circle cx="422.01" cy="556.01" r="4.39" fill="#d13333"/><circle cx="415.59" cy="508.82" r="4.39" fill="#d13333"/><circle cx="415.59" cy="508.82" r="4.39" fill="#d13333"/><path d="M387.64,171.38a4.4,4.4,0,1,1-4.4-4.39A4.4,4.4,0,0,1,387.64,171.38Z" fill="#d13333" fill-rule="evenodd"/><path d="M387.64,171.38a4.4,4.4,0,1,1-4.4-4.39A4.4,4.4,0,0,1,387.64,171.38Z" fill="#d13333"/><circle cx="332.25" cy="529.87" r="4.39" fill="#d13333"/><circle cx="332.25" cy="529.87" r="4.39" fill="#d13333"/><circle cx="332.25" cy="529.87" r="4.39" fill="#d13333"/><circle cx="332.25" cy="529.87" r="4.39" fill="#d13333"/><circle cx="309.75" cy="459.06" r="4.39" fill="#d13333"/><circle cx="309.75" cy="459.06" r="4.39" fill="#d13333"/><path d="M260.94,211.71a4.4,4.4,0,1,1-4.4-4.39A4.4,4.4,0,0,1,260.94,211.71Z" fill="#d13333" fill-rule="evenodd"/><path d="M260.94,211.71a4.4,4.4,0,1,1-4.4-4.39A4.4,4.4,0,0,1,260.94,211.71Z" fill="#d13333"/><path d="M260.94,211.71a4.4,4.4,0,1,1-4.4-4.39A4.4,4.4,0,0,1,260.94,211.71Z" fill="#d13333" fill-rule="evenodd"/><path d="M260.94,211.71a4.4,4.4,0,1,1-4.4-4.39A4.4,4.4,0,0,1,260.94,211.71Z" fill="#d13333"/><path d="M460.83,593.05a4.4,4.4,0,1,1-4.4-4.4A4.4,4.4,0,0,1,460.83,593.05Z" fill="#d13333" fill-rule="evenodd"/><path d="M460.83,593.05a4.4,4.4,0,1,1-4.4-4.4A4.4,4.4,0,0,1,460.83,593.05Z" fill="#d13333"/><path d="M460.83,593.05a4.4,4.4,0,1,1-4.4-4.4A4.4,4.4,0,0,1,460.83,593.05Z" fill="#d13333" fill-rule="evenodd"/><path d="M460.83,593.05a4.4,4.4,0,1,1-4.4-4.4A4.4,4.4,0,0,1,460.83,593.05Z" fill="#d13333"/><path d="M460.83,593.05a4.4,4.4,0,1,1-4.4-4.4A4.4,4.4,0,0,1,460.83,593.05Z" fill="#d13333" fill-rule="evenodd"/><path d="M460.83,593.05a4.4,4.4,0,1,1-4.4-4.4A4.4,4.4,0,0,1,460.83,593.05Z" fill="#d13333"/><path d="M494.77,574.61a4.4,4.4,0,1,1-4.39-4.39A4.39,4.39,0,0,1,494.77,574.61Z" fill="#d13333" fill-rule="evenodd"/><path d="M494.77,574.61a4.4,4.4,0,1,1-4.39-4.39A4.39,4.39,0,0,1,494.77,574.61Z" fill="#d13333"/><circle cx="438.61" cy="521.49" r="4.39" fill="#d13333"/><circle cx="438.61" cy="521.49" r="4.39" fill="#d13333"/><circle cx="385.27" cy="79.28" r="4.39" fill="#d13333"/><circle cx="385.27" cy="79.28" r="4.39" fill="#d13333"/><circle cx="385.27" cy="79.28" r="4.39" fill="#d13333"/><circle cx="385.27" cy="79.28" r="4.39" fill="#d13333"/><path d="M332.53,123.24a4.4,4.4,0,1,1-4.39-4.4A4.39,4.39,0,0,1,332.53,123.24Z" fill="#d13333" fill-rule="evenodd"/><path d="M332.53,123.24a4.4,4.4,0,1,1-4.39-4.4A4.39,4.39,0,0,1,332.53,123.24Z" fill="#d13333"/><circle cx="482.3" cy="527.2" r="4.39" fill="#d13333"/><circle cx="482.3" cy="527.2" r="4.39" fill="#d13333"/><circle cx="482.3" cy="527.2" r="4.39" fill="#d13333"/><circle cx="482.3" cy="527.2" r="4.39" fill="#d13333"/><path d="M235.62,100.67a4.4,4.4,0,1,1-4.4-4.39A4.4,4.4,0,0,1,235.62,100.67Z" fill="#d13333" fill-rule="evenodd"/><path d="M235.62,100.67a4.4,4.4,0,1,1-4.4-4.39A4.4,4.4,0,0,1,235.62,100.67Z" fill="#d13333"/><path d="M419.43,453.61a4.4,4.4,0,1,1-4.39-4.4A4.4,4.4,0,0,1,419.43,453.61Z" fill="#d13333" fill-rule="evenodd"/><path d="M419.43,453.61a4.4,4.4,0,1,1-4.39-4.4A4.4,4.4,0,0,1,419.43,453.61Z" fill="#d13333"/><path d="M430.38,454.18a4.4,4.4,0,1,1-4.39-4.4A4.38,4.38,0,0,1,430.38,454.18Z" fill="#d13333" fill-rule="evenodd"/><path d="M430.38,454.18a4.4,4.4,0,1,1-4.39-4.4A4.38,4.38,0,0,1,430.38,454.18Z" fill="#d13333"/><path d="M323.79,479.63a4.4,4.4,0,1,1-4.39-4.4A4.39,4.39,0,0,1,323.79,479.63Z" fill="#d13333" fill-rule="evenodd"/><path d="M323.79,479.63a4.4,4.4,0,1,1-4.39-4.4A4.39,4.39,0,0,1,323.79,479.63Z" fill="#d13333"/><path d="M323.79,479.63a4.4,4.4,0,1,1-4.39-4.4A4.39,4.39,0,0,1,323.79,479.63Z" fill="#d13333" fill-rule="evenodd"/><path d="M323.79,479.63a4.4,4.4,0,1,1-4.39-4.4A4.39,4.39,0,0,1,323.79,479.63Z" fill="#d13333"/><path d="M323.79,479.63a4.4,4.4,0,1,1-4.39-4.4A4.39,4.39,0,0,1,323.79,479.63Z" fill="#d13333" fill-rule="evenodd"/><path d="M323.79,479.63a4.4,4.4,0,1,1-4.39-4.4A4.39,4.39,0,0,1,323.79,479.63Z" fill="#d13333"/><path d="M323.79,479.63a4.4,4.4,0,1,1-4.39-4.4A4.39,4.39,0,0,1,323.79,479.63Z" fill="#d13333" fill-rule="evenodd"/><path d="M323.79,479.63a4.4,4.4,0,1,1-4.39-4.4A4.39,4.39,0,0,1,323.79,479.63Z" fill="#d13333"/><path d="M323.79,479.63a4.4,4.4,0,1,1-4.39-4.4A4.39,4.39,0,0,1,323.79,479.63Z" fill="#d13333" fill-rule="evenodd"/><path d="M323.79,479.63a4.4,4.4,0,1,1-4.39-4.4A4.39,4.39,0,0,1,323.79,479.63Z" fill="#d13333"/><circle cx="318.53" cy="479.23" r="4.39" fill="#d13333"/><circle cx="318.53" cy="479.23" r="4.39" fill="#d13333"/><path d="M323.79,479.63a4.4,4.4,0,1,1-4.39-4.4A4.39,4.39,0,0,1,323.79,479.63Z" fill="#d13333" fill-rule="evenodd"/><path d="M323.79,479.63a4.4,4.4,0,1,1-4.39-4.4A4.39,4.39,0,0,1,323.79,479.63Z" fill="#d13333"/><path d="M507.41,474.86a4.4,4.4,0,1,1-4.4-4.39A4.4,4.4,0,0,1,507.41,474.86Z" fill="#d13333" fill-rule="evenodd"/><path d="M507.41,474.86a4.4,4.4,0,1,1-4.4-4.39A4.4,4.4,0,0,1,507.41,474.86Z" fill="#d13333"/><path d="M507.41,474.86a4.4,4.4,0,1,1-4.4-4.39A4.4,4.4,0,0,1,507.41,474.86Z" fill="#d13333" fill-rule="evenodd"/><path d="M507.41,474.86a4.4,4.4,0,1,1-4.4-4.39A4.4,4.4,0,0,1,507.41,474.86Z" fill="#d13333"/><path d="M507.41,474.86a4.4,4.4,0,1,1-4.4-4.39A4.4,4.4,0,0,1,507.41,474.86Z" fill="#d13333" fill-rule="evenodd"/><path d="M507.41,474.86a4.4,4.4,0,1,1-4.4-4.39A4.4,4.4,0,0,1,507.41,474.86Z" fill="#d13333"/><path d="M507.41,474.86a4.4,4.4,0,1,1-4.4-4.39A4.4,4.4,0,0,1,507.41,474.86Z" fill="#d13333" fill-rule="evenodd"/><path d="M507.41,474.86a4.4,4.4,0,1,1-4.4-4.39A4.4,4.4,0,0,1,507.41,474.86Z" fill="#d13333"/><path d="M415.11,163.78a4.4,4.4,0,1,1-4.39-4.39A4.38,4.38,0,0,1,415.11,163.78Z" fill="#d13333" fill-rule="evenodd"/><path d="M415.11,163.78a4.4,4.4,0,1,1-4.39-4.39A4.38,4.38,0,0,1,415.11,163.78Z" fill="#d13333"/><path d="M438.05,360.49a4.4,4.4,0,1,1-4.39-4.39A4.39,4.39,0,0,1,438.05,360.49Z" fill="#d13333" fill-rule="evenodd"/><path d="M438.05,360.49a4.4,4.4,0,1,1-4.39-4.39A4.39,4.39,0,0,1,438.05,360.49Z" fill="#d13333"/><circle cx="375.81" cy="182.84" r="4.39" fill="#d13333"/><circle cx="375.81" cy="182.84" r="4.39" fill="#d13333"/><circle cx="375.81" cy="182.84" r="4.39" fill="#d13333"/><circle cx="375.81" cy="182.84" r="4.39" fill="#d13333"/><circle cx="375.81" cy="182.84" r="4.39" fill="#d13333"/><circle cx="375.81" cy="182.84" r="4.39" fill="#d13333"/><circle cx="315.94" cy="200.04" r="4.39" fill="#d13333"/><circle cx="315.94" cy="200.04" r="4.39" fill="#d13333"/><circle cx="390.96" cy="271.12" r="4.39" transform="translate(-73.99 170.25) rotate(-22.5)" fill="#d13333"/><circle cx="390.96" cy="271.12" r="4.39" transform="translate(-73.99 170.25) rotate(-22.5)" fill="#d13333"/><circle cx="424.8" cy="251.46" r="4.39" fill="#d13333"/><circle cx="424.8" cy="251.46" r="4.39" fill="#d13333"/><circle cx="454.77" cy="689.26" r="4.39" fill="#d13333"/><circle cx="454.77" cy="689.26" r="4.39" fill="#d13333"/><path d="M398.48,429.65a4.4,4.4,0,1,1-4.39-4.39A4.38,4.38,0,0,1,398.48,429.65Z" fill="#d13333" fill-rule="evenodd"/><path d="M398.48,429.65a4.4,4.4,0,1,1-4.39-4.39A4.38,4.38,0,0,1,398.48,429.65Z" fill="#d13333"/><circle cx="265.07" cy="258.01" r="4.39" fill="#d13333"/><circle cx="265.07" cy="258.01" r="4.39" fill="#d13333"/><circle cx="265.07" cy="258.01" r="4.39" fill="#d13333"/><circle cx="265.07" cy="258.01" r="4.39" fill="#d13333"/><path d="M391.91,536.6a4.4,4.4,0,1,1-4.4-4.39A4.4,4.4,0,0,1,391.91,536.6Z" fill="#d13333" fill-rule="evenodd"/><path d="M391.91,536.6a4.4,4.4,0,1,1-4.4-4.39A4.4,4.4,0,0,1,391.91,536.6Z" fill="#d13333"/><path d="M391.91,536.6a4.4,4.4,0,1,1-4.4-4.39A4.4,4.4,0,0,1,391.91,536.6Z" fill="#d13333" fill-rule="evenodd"/><path d="M391.91,536.6a4.4,4.4,0,1,1-4.4-4.39A4.4,4.4,0,0,1,391.91,536.6Z" fill="#d13333"/><path d="M391.91,536.6a4.4,4.4,0,1,1-4.4-4.39A4.4,4.4,0,0,1,391.91,536.6Z" fill="#d13333" fill-rule="evenodd"/><path d="M391.91,536.6a4.4,4.4,0,1,1-4.4-4.39A4.4,4.4,0,0,1,391.91,536.6Z" fill="#d13333"/><path d="M391.91,536.6a4.4,4.4,0,1,1-4.4-4.39A4.4,4.4,0,0,1,391.91,536.6Z" fill="#d13333" fill-rule="evenodd"/><path d="M391.91,536.6a4.4,4.4,0,1,1-4.4-4.39A4.4,4.4,0,0,1,391.91,536.6Z" fill="#d13333"/><path d="M376.66,37.21a4.4,4.4,0,1,1-4.39-4.4A4.4,4.4,0,0,1,376.66,37.21Z" fill="#d13333" fill-rule="evenodd"/><path d="M376.66,37.21a4.4,4.4,0,1,1-4.39-4.4A4.4,4.4,0,0,1,376.66,37.21Z" fill="#d13333"/><path d="M376.66,37.21a4.4,4.4,0,1,1-4.39-4.4A4.4,4.4,0,0,1,376.66,37.21Z" fill="#d13333" fill-rule="evenodd"/><path d="M376.66,37.21a4.4,4.4,0,1,1-4.39-4.4A4.4,4.4,0,0,1,376.66,37.21Z" fill="#d13333"/><circle cx="394.19" cy="343.49" r="4.39" fill="#d13333"/><circle cx="394.19" cy="343.49" r="4.39" fill="#d13333"/><path d="M414.69,617.61a4.4,4.4,0,1,1-4.4-4.4A4.4,4.4,0,0,1,414.69,617.61Z" fill="#d13333" fill-rule="evenodd"/><path d="M414.69,617.61a4.4,4.4,0,1,1-4.4-4.4A4.4,4.4,0,0,1,414.69,617.61Z" fill="#d13333"/><path d="M414.69,617.61a4.4,4.4,0,1,1-4.4-4.4A4.4,4.4,0,0,1,414.69,617.61Z" fill="#d13333" fill-rule="evenodd"/><path d="M414.69,617.61a4.4,4.4,0,1,1-4.4-4.4A4.4,4.4,0,0,1,414.69,617.61Z" fill="#d13333"/><path d="M414.69,617.61a4.4,4.4,0,1,1-4.4-4.4A4.4,4.4,0,0,1,414.69,617.61Z" fill="#d13333" fill-rule="evenodd"/><path d="M414.69,617.61a4.4,4.4,0,1,1-4.4-4.4A4.4,4.4,0,0,1,414.69,617.61Z" fill="#d13333"/><path d="M414.69,617.61a4.4,4.4,0,1,1-4.4-4.4A4.4,4.4,0,0,1,414.69,617.61Z" fill="#d13333" fill-rule="evenodd"/><path d="M414.69,617.61a4.4,4.4,0,1,1-4.4-4.4A4.4,4.4,0,0,1,414.69,617.61Z" fill="#d13333"/><circle cx="351.53" cy="407.95" r="4.39" fill="#d13333"/><circle cx="351.53" cy="407.95" r="4.39" fill="#d13333"/><circle cx="351.53" cy="407.95" r="4.39" fill="#d13333"/><circle cx="351.53" cy="407.95" r="4.39" fill="#d13333"/><circle cx="351.53" cy="407.95" r="4.39" fill="#d13333"/><circle cx="351.53" cy="407.95" r="4.39" fill="#d13333"/><path d="M296.74,204.06a4.4,4.4,0,1,1-4.4-4.39A4.4,4.4,0,0,1,296.74,204.06Z" fill="#d13333" fill-rule="evenodd"/><path d="M296.74,204.06a4.4,4.4,0,1,1-4.4-4.39A4.4,4.4,0,0,1,296.74,204.06Z" fill="#d13333"/><path d="M236.69,461.14a4.4,4.4,0,1,1-4.39-4.39A4.4,4.4,0,0,1,236.69,461.14Z" fill="#d13333" fill-rule="evenodd"/><path d="M236.69,461.14a4.4,4.4,0,1,1-4.39-4.39A4.4,4.4,0,0,1,236.69,461.14Z" fill="#d13333"/><path d="M236.69,461.14a4.4,4.4,0,1,1-4.39-4.39A4.4,4.4,0,0,1,236.69,461.14Z" fill="#d13333" fill-rule="evenodd"/><path d="M236.69,461.14a4.4,4.4,0,1,1-4.39-4.39A4.4,4.4,0,0,1,236.69,461.14Z" fill="#d13333"/><path d="M236.69,461.14a4.4,4.4,0,1,1-4.39-4.39A4.4,4.4,0,0,1,236.69,461.14Z" fill="#d13333" fill-rule="evenodd"/><path d="M236.69,461.14a4.4,4.4,0,1,1-4.39-4.39A4.4,4.4,0,0,1,236.69,461.14Z" fill="#d13333"/><path d="M236.69,461.14a4.4,4.4,0,1,1-4.39-4.39A4.4,4.4,0,0,1,236.69,461.14Z" fill="#d13333" fill-rule="evenodd"/><path d="M236.69,461.14a4.4,4.4,0,1,1-4.39-4.39A4.4,4.4,0,0,1,236.69,461.14Z" fill="#d13333"/><path d="M236.69,461.14a4.4,4.4,0,1,1-4.39-4.39A4.4,4.4,0,0,1,236.69,461.14Z" fill="#d13333" fill-rule="evenodd"/><path d="M236.69,461.14a4.4,4.4,0,1,1-4.39-4.39A4.4,4.4,0,0,1,236.69,461.14Z" fill="#d13333"/><path d="M236.69,461.14a4.4,4.4,0,1,1-4.39-4.39A4.4,4.4,0,0,1,236.69,461.14Z" fill="#d13333" fill-rule="evenodd"/><path d="M236.69,461.14a4.4,4.4,0,1,1-4.39-4.39A4.4,4.4,0,0,1,236.69,461.14Z" fill="#d13333"/><circle cx="497.04" cy="434.64" r="4.39" fill="#d13333"/><circle cx="497.04" cy="434.64" r="4.39" fill="#d13333"/><circle cx="497.04" cy="434.64" r="4.39" fill="#d13333"/><circle cx="497.04" cy="434.64" r="4.39" fill="#d13333"/><circle cx="497.04" cy="434.64" r="4.39" fill="#d13333"/><circle cx="497.04" cy="434.64" r="4.39" fill="#d13333"/><circle cx="497.04" cy="434.64" r="4.39" fill="#d13333"/><circle cx="497.04" cy="434.64" r="4.39" fill="#d13333"/><circle cx="497.04" cy="434.64" r="4.39" fill="#d13333"/><circle cx="497.04" cy="434.64" r="4.39" fill="#d13333"/><path d="M390.12,61.37a4.4,4.4,0,1,1-4.4-4.39A4.4,4.4,0,0,1,390.12,61.37Z" fill="#d13333" fill-rule="evenodd"/><path d="M390.12,61.37a4.4,4.4,0,1,1-4.4-4.39A4.4,4.4,0,0,1,390.12,61.37Z" fill="#d13333"/><path d="M390.12,61.37a4.4,4.4,0,1,1-4.4-4.39A4.4,4.4,0,0,1,390.12,61.37Z" fill="#d13333" fill-rule="evenodd"/><path d="M390.12,61.37a4.4,4.4,0,1,1-4.4-4.39A4.4,4.4,0,0,1,390.12,61.37Z" fill="#d13333"/><circle cx="452.55" cy="619.48" r="4.39" fill="#d13333"/><circle cx="452.55" cy="619.48" r="4.39" fill="#d13333"/><circle cx="452.55" cy="619.48" r="4.39" fill="#d13333"/><circle cx="452.55" cy="619.48" r="4.39" fill="#d13333"/><circle cx="480.67" cy="445.51" r="4.39" fill="#d13333"/><circle cx="480.67" cy="445.51" r="4.39" fill="#d13333"/><path d="M389.52,153.18a4.4,4.4,0,1,1-4.4-4.39A4.4,4.4,0,0,1,389.52,153.18Z" fill="#d13333" fill-rule="evenodd"/><path d="M389.52,153.18a4.4,4.4,0,1,1-4.4-4.39A4.4,4.4,0,0,1,389.52,153.18Z" fill="#d13333"/><path d="M389.52,153.18a4.4,4.4,0,1,1-4.4-4.39A4.4,4.4,0,0,1,389.52,153.18Z" fill="#d13333" fill-rule="evenodd"/><path d="M389.52,153.18a4.4,4.4,0,1,1-4.4-4.39A4.4,4.4,0,0,1,389.52,153.18Z" fill="#d13333"/><path d="M389.52,153.18a4.4,4.4,0,1,1-4.4-4.39A4.4,4.4,0,0,1,389.52,153.18Z" fill="#d13333" fill-rule="evenodd"/><path d="M389.52,153.18a4.4,4.4,0,1,1-4.4-4.39A4.4,4.4,0,0,1,389.52,153.18Z" fill="#d13333"/><path d="M358.36,168.65a4.4,4.4,0,1,1-4.39-4.39A4.4,4.4,0,0,1,358.36,168.65Z" fill="#d13333" fill-rule="evenodd"/><path d="M358.36,168.65a4.4,4.4,0,1,1-4.39-4.39A4.4,4.4,0,0,1,358.36,168.65Z" fill="#d13333"/><path d="M358.36,168.65a4.4,4.4,0,1,1-4.39-4.39A4.4,4.4,0,0,1,358.36,168.65Z" fill="#d13333" fill-rule="evenodd"/><path d="M358.36,168.65a4.4,4.4,0,1,1-4.39-4.39A4.4,4.4,0,0,1,358.36,168.65Z" fill="#d13333"/><path d="M358.36,168.65a4.4,4.4,0,1,1-4.39-4.39A4.4,4.4,0,0,1,358.36,168.65Z" fill="#d13333" fill-rule="evenodd"/><path d="M358.36,168.65a4.4,4.4,0,1,1-4.39-4.39A4.4,4.4,0,0,1,358.36,168.65Z" fill="#d13333"/><path d="M358.36,168.65a4.4,4.4,0,1,1-4.39-4.39A4.4,4.4,0,0,1,358.36,168.65Z" fill="#d13333" fill-rule="evenodd"/><path d="M358.36,168.65a4.4,4.4,0,1,1-4.39-4.39A4.4,4.4,0,0,1,358.36,168.65Z" fill="#d13333"/><path d="M358.36,168.65a4.4,4.4,0,1,1-4.39-4.39A4.4,4.4,0,0,1,358.36,168.65Z" fill="#d13333" fill-rule="evenodd"/><path d="M358.36,168.65a4.4,4.4,0,1,1-4.39-4.39A4.4,4.4,0,0,1,358.36,168.65Z" fill="#d13333"/><path d="M408.77,471.23a4.4,4.4,0,1,1-4.4-4.4A4.39,4.39,0,0,1,408.77,471.23Z" fill="#d13333" fill-rule="evenodd"/><path d="M408.77,471.23a4.4,4.4,0,1,1-4.4-4.4A4.39,4.39,0,0,1,408.77,471.23Z" fill="#d13333"/><path d="M387.14,423.65a4.4,4.4,0,1,1-4.4-4.4A4.39,4.39,0,0,1,387.14,423.65Z" fill="#d13333" fill-rule="evenodd"/><path d="M387.14,423.65a4.4,4.4,0,1,1-4.4-4.4A4.39,4.39,0,0,1,387.14,423.65Z" fill="#d13333"/><path d="M387.14,423.65a4.4,4.4,0,1,1-4.4-4.4A4.39,4.39,0,0,1,387.14,423.65Z" fill="#d13333" fill-rule="evenodd"/><path d="M387.14,423.65a4.4,4.4,0,1,1-4.4-4.4A4.39,4.39,0,0,1,387.14,423.65Z" fill="#d13333"/><circle cx="330.46" cy="327.51" r="4.39" fill="#d13333"/><circle cx="330.46" cy="327.51" r="4.39" fill="#d13333"/><circle cx="324.45" cy="325.45" r="4.39" fill="#d13333"/><circle cx="324.45" cy="325.45" r="4.39" fill="#d13333"/><circle cx="324.45" cy="325.45" r="4.39" fill="#d13333"/><circle cx="324.45" cy="325.45" r="4.39" fill="#d13333"/><circle cx="328.47" cy="317.64" r="4.39" fill="#d13333"/><circle cx="328.47" cy="317.64" r="4.39" fill="#d13333"/><path d="M449.75,541.3a4.4,4.4,0,1,1-4.39-4.39A4.4,4.4,0,0,1,449.75,541.3Z" fill="#d13333" fill-rule="evenodd"/><path d="M449.75,541.3a4.4,4.4,0,1,1-4.39-4.39A4.4,4.4,0,0,1,449.75,541.3Z" fill="#d13333"/><path d="M449.75,541.3a4.4,4.4,0,1,1-4.39-4.39A4.4,4.4,0,0,1,449.75,541.3Z" fill="#d13333" fill-rule="evenodd"/><path d="M449.75,541.3a4.4,4.4,0,1,1-4.39-4.39A4.4,4.4,0,0,1,449.75,541.3Z" fill="#d13333"/><path d="M270.83,244.17a4.4,4.4,0,1,1-4.39-4.4A4.39,4.39,0,0,1,270.83,244.17Z" fill="#d13333" fill-rule="evenodd"/><path d="M270.83,244.17a4.4,4.4,0,1,1-4.39-4.4A4.39,4.39,0,0,1,270.83,244.17Z" fill="#d13333"/><path d="M270.83,244.17a4.4,4.4,0,1,1-4.39-4.4A4.39,4.39,0,0,1,270.83,244.17Z" fill="#d13333" fill-rule="evenodd"/><path d="M270.83,244.17a4.4,4.4,0,1,1-4.39-4.4A4.39,4.39,0,0,1,270.83,244.17Z" fill="#d13333"/><path d="M422,220.59a4.4,4.4,0,1,1-4.4-4.39A4.4,4.4,0,0,1,422,220.59Z" fill="#d13333" fill-rule="evenodd"/><path d="M422,220.59a4.4,4.4,0,1,1-4.4-4.39A4.4,4.4,0,0,1,422,220.59Z" fill="#d13333"/><path d="M422,220.59a4.4,4.4,0,1,1-4.4-4.39A4.4,4.4,0,0,1,422,220.59Z" fill="#d13333" fill-rule="evenodd"/><path d="M422,220.59a4.4,4.4,0,1,1-4.4-4.39A4.4,4.4,0,0,1,422,220.59Z" fill="#d13333"/><path d="M422,220.59a4.4,4.4,0,1,1-4.4-4.39A4.4,4.4,0,0,1,422,220.59Z" fill="#d13333" fill-rule="evenodd"/><path d="M422,220.59a4.4,4.4,0,1,1-4.4-4.39A4.4,4.4,0,0,1,422,220.59Z" fill="#d13333"/><path d="M422,220.59a4.4,4.4,0,1,1-4.4-4.39A4.4,4.4,0,0,1,422,220.59Z" fill="#d13333" fill-rule="evenodd"/><path d="M422,220.59a4.4,4.4,0,1,1-4.4-4.39A4.4,4.4,0,0,1,422,220.59Z" fill="#d13333"/><path d="M422,220.59a4.4,4.4,0,1,1-4.4-4.39A4.4,4.4,0,0,1,422,220.59Z" fill="#d13333" fill-rule="evenodd"/><path d="M422,220.59a4.4,4.4,0,1,1-4.4-4.39A4.4,4.4,0,0,1,422,220.59Z" fill="#d13333"/><path d="M422,220.59a4.4,4.4,0,1,1-4.4-4.39A4.4,4.4,0,0,1,422,220.59Z" fill="#d13333" fill-rule="evenodd"/><path d="M422,220.59a4.4,4.4,0,1,1-4.4-4.39A4.4,4.4,0,0,1,422,220.59Z" fill="#d13333"/><path d="M422,220.59a4.4,4.4,0,1,1-4.4-4.39A4.4,4.4,0,0,1,422,220.59Z" fill="#d13333" fill-rule="evenodd"/><path d="M422,220.59a4.4,4.4,0,1,1-4.4-4.39A4.4,4.4,0,0,1,422,220.59Z" fill="#d13333"/><path d="M388.53,475.5a4.4,4.4,0,1,1-4.4-4.39A4.4,4.4,0,0,1,388.53,475.5Z" fill="#d13333" fill-rule="evenodd"/><path d="M388.53,475.5a4.4,4.4,0,1,1-4.4-4.39A4.4,4.4,0,0,1,388.53,475.5Z" fill="#d13333"/><path d="M388.53,475.5a4.4,4.4,0,1,1-4.4-4.39A4.4,4.4,0,0,1,388.53,475.5Z" fill="#d13333" fill-rule="evenodd"/><path d="M388.53,475.5a4.4,4.4,0,1,1-4.4-4.39A4.4,4.4,0,0,1,388.53,475.5Z" fill="#d13333"/><circle cx="296.1" cy="375.93" r="4.39" fill="#d13333"/><circle cx="296.1" cy="375.93" r="4.39" fill="#d13333"/><circle cx="296.1" cy="375.93" r="4.39" fill="#d13333"/><circle cx="296.1" cy="375.93" r="4.39" fill="#d13333"/><circle cx="296.1" cy="375.93" r="4.39" fill="#d13333"/><circle cx="296.1" cy="375.93" r="4.39" fill="#d13333"/><circle cx="296.1" cy="375.93" r="4.39" fill="#d13333"/><circle cx="296.1" cy="375.93" r="4.39" fill="#d13333"/><path d="M213.58,197.9a4.4,4.4,0,1,1-4.39-4.4A4.4,4.4,0,0,1,213.58,197.9Z" fill="#d13333" fill-rule="evenodd"/><path d="M213.58,197.9a4.4,4.4,0,1,1-4.39-4.4A4.4,4.4,0,0,1,213.58,197.9Z" fill="#d13333"/><circle cx="307.63" cy="181.29" r="4.39" fill="#d13333"/><circle cx="307.63" cy="181.29" r="4.39" fill="#d13333"/><circle cx="307.63" cy="181.29" r="4.39" fill="#d13333"/><circle cx="307.63" cy="181.29" r="4.39" fill="#d13333"/><path d="M424.08,565a4.4,4.4,0,1,1-4.39-4.4A4.4,4.4,0,0,1,424.08,565Z" fill="#d13333" fill-rule="evenodd"/><path d="M424.08,565a4.4,4.4,0,1,1-4.39-4.4A4.4,4.4,0,0,1,424.08,565Z" fill="#d13333"/><circle cx="343.85" cy="310.09" r="4.39" fill="#d13333"/><circle cx="343.85" cy="310.09" r="4.39" fill="#d13333"/><circle cx="520.03" cy="536.74" r="4.39" fill="#d13333"/><circle cx="520.03" cy="536.74" r="4.39" fill="#d13333"/><circle cx="288.29" cy="286.75" r="4.39" fill="#d13333"/><circle cx="288.29" cy="286.75" r="4.39" fill="#d13333"/><circle cx="348.17" cy="353.3" r="4.39" fill="#d13333"/><circle cx="348.17" cy="353.3" r="4.39" fill="#d13333"/><path d="M316.77,226.25a4.4,4.4,0,1,1-4.4-4.4A4.39,4.39,0,0,1,316.77,226.25Z" fill="#d13333" fill-rule="evenodd"/><path d="M316.77,226.25a4.4,4.4,0,1,1-4.4-4.4A4.39,4.39,0,0,1,316.77,226.25Z" fill="#d13333"/><path d="M316.77,226.25a4.4,4.4,0,1,1-4.4-4.4A4.39,4.39,0,0,1,316.77,226.25Z" fill="#d13333" fill-rule="evenodd"/><path d="M316.77,226.25a4.4,4.4,0,1,1-4.4-4.4A4.39,4.39,0,0,1,316.77,226.25Z" fill="#d13333"/><path d="M316.77,226.25a4.4,4.4,0,1,1-4.4-4.4A4.39,4.39,0,0,1,316.77,226.25Z" fill="#d13333" fill-rule="evenodd"/><path d="M316.77,226.25a4.4,4.4,0,1,1-4.4-4.4A4.39,4.39,0,0,1,316.77,226.25Z" fill="#d13333"/><path d="M363.08,295.08a4.4,4.4,0,1,1-4.4-4.39A4.4,4.4,0,0,1,363.08,295.08Z" fill="#d13333" fill-rule="evenodd"/><path d="M363.08,295.08a4.4,4.4,0,1,1-4.4-4.39A4.4,4.4,0,0,1,363.08,295.08Z" fill="#d13333"/><path d="M353.17,490.31a4.4,4.4,0,1,1-4.39-4.4A4.4,4.4,0,0,1,353.17,490.31Z" fill="#d13333" fill-rule="evenodd"/><path d="M353.17,490.31a4.4,4.4,0,1,1-4.39-4.4A4.4,4.4,0,0,1,353.17,490.31Z" fill="#d13333"/><path d="M353.17,490.31a4.4,4.4,0,1,1-4.39-4.4A4.4,4.4,0,0,1,353.17,490.31Z" fill="#d13333" fill-rule="evenodd"/><path d="M353.17,490.31a4.4,4.4,0,1,1-4.39-4.4A4.4,4.4,0,0,1,353.17,490.31Z" fill="#d13333"/><path d="M353.17,490.31a4.4,4.4,0,1,1-4.39-4.4A4.4,4.4,0,0,1,353.17,490.31Z" fill="#d13333" fill-rule="evenodd"/><path d="M353.17,490.31a4.4,4.4,0,1,1-4.39-4.4A4.4,4.4,0,0,1,353.17,490.31Z" fill="#d13333"/><path d="M353.17,490.31a4.4,4.4,0,1,1-4.39-4.4A4.4,4.4,0,0,1,353.17,490.31Z" fill="#d13333" fill-rule="evenodd"/><path d="M353.17,490.31a4.4,4.4,0,1,1-4.39-4.4A4.4,4.4,0,0,1,353.17,490.31Z" fill="#d13333"/><circle cx="348.12" cy="488.6" r="4.39" fill="#d13333"/><circle cx="348.12" cy="488.6" r="4.39" fill="#d13333"/><path d="M337.34,296.45a4.4,4.4,0,1,1-4.39-4.39A4.4,4.4,0,0,1,337.34,296.45Z" fill="#d13333" fill-rule="evenodd"/><path d="M337.34,296.45a4.4,4.4,0,1,1-4.39-4.39A4.4,4.4,0,0,1,337.34,296.45Z" fill="#d13333"/><path d="M337.17,296.45a4.4,4.4,0,1,1-4.39-4.39A4.39,4.39,0,0,1,337.17,296.45Z" fill="#d13333" fill-rule="evenodd"/><path d="M337.17,296.45a4.4,4.4,0,1,1-4.39-4.39A4.39,4.39,0,0,1,337.17,296.45Z" fill="#d13333"/><circle cx="300.47" cy="336.67" r="4.39" fill="#d13333"/><circle cx="300.47" cy="336.67" r="4.39" fill="#d13333"/><circle cx="300.47" cy="336.67" r="4.39" fill="#d13333"/><circle cx="300.47" cy="336.67" r="4.39" fill="#d13333"/><path d="M342.76,92.88a4.4,4.4,0,1,1-4.4-4.39A4.4,4.4,0,0,1,342.76,92.88Z" fill="#d13333" fill-rule="evenodd"/><path d="M342.76,92.88a4.4,4.4,0,1,1-4.4-4.39A4.4,4.4,0,0,1,342.76,92.88Z" fill="#d13333"/><path d="M342.76,92.88a4.4,4.4,0,1,1-4.4-4.39A4.4,4.4,0,0,1,342.76,92.88Z" fill="#d13333" fill-rule="evenodd"/><path d="M342.76,92.88a4.4,4.4,0,1,1-4.4-4.39A4.4,4.4,0,0,1,342.76,92.88Z" fill="#d13333"/><path d="M342.76,92.88a4.4,4.4,0,1,1-4.4-4.39A4.4,4.4,0,0,1,342.76,92.88Z" fill="#d13333" fill-rule="evenodd"/><path d="M342.76,92.88a4.4,4.4,0,1,1-4.4-4.39A4.4,4.4,0,0,1,342.76,92.88Z" fill="#d13333"/><circle cx="274.51" cy="305.57" r="4.39" fill="#d13333"/><circle cx="274.51" cy="305.57" r="4.39" fill="#d13333"/><circle cx="274.51" cy="305.57" r="4.39" fill="#d13333"/><circle cx="274.51" cy="305.57" r="4.39" fill="#d13333"/><circle cx="455.48" cy="390.61" r="4.39" fill="#d13333"/><circle cx="455.48" cy="390.61" r="4.39" fill="#d13333"/><circle cx="309.05" cy="229.19" r="4.39" fill="#d13333"/><circle cx="309.05" cy="229.19" r="4.39" fill="#d13333"/><circle cx="309.05" cy="229.19" r="4.39" fill="#d13333"/><circle cx="309.05" cy="229.19" r="4.39" fill="#d13333"/><circle cx="309.05" cy="229.19" r="4.39" fill="#d13333"/><circle cx="309.05" cy="229.19" r="4.39" fill="#d13333"/><circle cx="334.93" cy="364.14" r="4.39" fill="#d13333"/><circle cx="334.93" cy="364.14" r="4.39" fill="#d13333"/><circle cx="358.63" cy="501.94" r="4.39" fill="#d13333"/><circle cx="358.63" cy="501.94" r="4.39" fill="#d13333"/><path d="M282,260.68a4.4,4.4,0,1,1-4.4-4.4A4.39,4.39,0,0,1,282,260.68Z" fill="#d13333" fill-rule="evenodd"/><path d="M282,260.68a4.4,4.4,0,1,1-4.4-4.4A4.39,4.39,0,0,1,282,260.68Z" fill="#d13333"/><path d="M282,260.68a4.4,4.4,0,1,1-4.4-4.4A4.39,4.39,0,0,1,282,260.68Z" fill="#d13333" fill-rule="evenodd"/><path d="M282,260.68a4.4,4.4,0,1,1-4.4-4.4A4.39,4.39,0,0,1,282,260.68Z" fill="#d13333"/><circle cx="309.25" cy="295.66" r="4.39" fill="#d13333"/><circle cx="309.25" cy="295.66" r="4.39" fill="#d13333"/><circle cx="437.73" cy="685.1" r="4.39" fill="#d13333"/><circle cx="437.73" cy="685.1" r="4.39" fill="#d13333"/><path d="M555.41,569.92a4.4,4.4,0,1,1-4.4-4.39A4.4,4.4,0,0,1,555.41,569.92Z" fill="#d13333" fill-rule="evenodd"/><path d="M555.41,569.92a4.4,4.4,0,1,1-4.4-4.39A4.4,4.4,0,0,1,555.41,569.92Z" fill="#d13333"/><path d="M394.64,321.56a4.4,4.4,0,1,1-4.4-4.4A4.39,4.39,0,0,1,394.64,321.56Z" fill="#d13333" fill-rule="evenodd"/><path d="M394.64,321.56a4.4,4.4,0,1,1-4.4-4.4A4.39,4.39,0,0,1,394.64,321.56Z" fill="#d13333"/><circle cx="393.32" cy="643.93" r="4.39" fill="#d13333"/><circle cx="393.32" cy="643.93" r="4.39" fill="#d13333"/><circle cx="393.32" cy="643.93" r="4.39" fill="#d13333"/><circle cx="393.32" cy="643.93" r="4.39" fill="#d13333"/><circle cx="393.32" cy="643.93" r="4.39" fill="#d13333"/><circle cx="393.32" cy="643.93" r="4.39" fill="#d13333"/><circle cx="393.32" cy="643.93" r="4.39" fill="#d13333"/><circle cx="393.32" cy="643.93" r="4.39" fill="#d13333"/><path d="M340.15,276.4a4.4,4.4,0,1,1-4.39-4.39A4.39,4.39,0,0,1,340.15,276.4Z" fill="#d13333" fill-rule="evenodd"/><path d="M340.15,276.4a4.4,4.4,0,1,1-4.39-4.39A4.39,4.39,0,0,1,340.15,276.4Z" fill="#d13333"/><path d="M316.49,216.78a4.4,4.4,0,1,1-4.4-4.39A4.4,4.4,0,0,1,316.49,216.78Z" fill="#d13333" fill-rule="evenodd"/><path d="M316.49,216.78a4.4,4.4,0,1,1-4.4-4.39A4.4,4.4,0,0,1,316.49,216.78Z" fill="#d13333"/><circle cx="343.34" cy="402.07" r="4.39" fill="#d13333"/><circle cx="343.34" cy="402.07" r="4.39" fill="#d13333"/><circle cx="343.34" cy="402.07" r="4.39" fill="#d13333"/><circle cx="343.34" cy="402.07" r="4.39" fill="#d13333"/><path d="M446.47,344.29a4.4,4.4,0,1,1-4.39-4.39A4.39,4.39,0,0,1,446.47,344.29Z" fill="#d13333" fill-rule="evenodd"/><path d="M446.47,344.29a4.4,4.4,0,1,1-4.39-4.39A4.39,4.39,0,0,1,446.47,344.29Z" fill="#d13333"/><path d="M446.47,344.29a4.4,4.4,0,1,1-4.39-4.39A4.39,4.39,0,0,1,446.47,344.29Z" fill="#d13333" fill-rule="evenodd"/><path d="M446.47,344.29a4.4,4.4,0,1,1-4.39-4.39A4.39,4.39,0,0,1,446.47,344.29Z" fill="#d13333"/><circle cx="443.54" cy="343.15" r="4.39" fill="#d13333"/><circle cx="443.54" cy="343.15" r="4.39" fill="#d13333"/><path d="M446.47,344.29a4.4,4.4,0,1,1-4.39-4.39A4.39,4.39,0,0,1,446.47,344.29Z" fill="#d13333" fill-rule="evenodd"/><path d="M446.47,344.29a4.4,4.4,0,1,1-4.39-4.39A4.39,4.39,0,0,1,446.47,344.29Z" fill="#d13333"/><circle cx="396.71" cy="264.42" r="4.39" fill="#d13333"/><circle cx="396.71" cy="264.42" r="4.39" fill="#d13333"/><path d="M422.35,470.54a4.4,4.4,0,1,1-4.4-4.4A4.4,4.4,0,0,1,422.35,470.54Z" fill="#d13333" fill-rule="evenodd"/><path d="M422.35,470.54a4.4,4.4,0,1,1-4.4-4.4A4.4,4.4,0,0,1,422.35,470.54Z" fill="#d13333"/><path d="M556.61,545.9a4.4,4.4,0,1,1-4.39-4.4A4.38,4.38,0,0,1,556.61,545.9Z" fill="#d13333" fill-rule="evenodd"/><path d="M556.61,545.9a4.4,4.4,0,1,1-4.39-4.4A4.38,4.38,0,0,1,556.61,545.9Z" fill="#d13333"/><path d="M305.61,244.64a4.4,4.4,0,1,1-4.4-4.4A4.4,4.4,0,0,1,305.61,244.64Z" fill="#d13333" fill-rule="evenodd"/><path d="M305.61,244.64a4.4,4.4,0,1,1-4.4-4.4A4.4,4.4,0,0,1,305.61,244.64Z" fill="#d13333"/><circle cx="395.05" cy="255.39" r="4.39" fill="#d13333"/><circle cx="395.05" cy="255.39" r="4.39" fill="#d13333"/><circle cx="395.05" cy="255.39" r="4.39" fill="#d13333"/><circle cx="395.05" cy="255.39" r="4.39" fill="#d13333"/><path d="M299.28,234.53a4.4,4.4,0,1,1-4.4-4.4A4.4,4.4,0,0,1,299.28,234.53Z" fill="#d13333" fill-rule="evenodd"/><path d="M299.28,234.53a4.4,4.4,0,1,1-4.4-4.4A4.4,4.4,0,0,1,299.28,234.53Z" fill="#d13333"/><circle cx="340.22" cy="322.83" r="4.39" fill="#d13333"/><circle cx="340.22" cy="322.83" r="4.39" fill="#d13333"/><circle cx="340.22" cy="322.83" r="4.39" fill="#d13333"/><circle cx="340.22" cy="322.83" r="4.39" fill="#d13333"/><circle cx="340.22" cy="322.83" r="4.39" fill="#d13333"/><circle cx="340.22" cy="322.83" r="4.39" fill="#d13333"/><path d="M335.05,334a4.4,4.4,0,1,1-4.4-4.39A4.4,4.4,0,0,1,335.05,334Z" fill="#d13333" fill-rule="evenodd"/><path d="M335.05,334a4.4,4.4,0,1,1-4.4-4.39A4.4,4.4,0,0,1,335.05,334Z" fill="#d13333"/><path d="M333.73,103.5a4.4,4.4,0,1,1-4.39-4.4A4.39,4.39,0,0,1,333.73,103.5Z" fill="#d13333" fill-rule="evenodd"/><path d="M333.73,103.5a4.4,4.4,0,1,1-4.39-4.4A4.39,4.39,0,0,1,333.73,103.5Z" fill="#d13333"/><circle cx="379.52" cy="492.94" r="4.39" fill="#d13333"/><circle cx="379.52" cy="492.94" r="4.39" fill="#d13333"/><circle cx="400.75" cy="267.72" r="4.39" transform="translate(-71.95 173.74) rotate(-22.5)" fill="#d13333"/><circle cx="400.75" cy="267.72" r="4.39" transform="translate(-71.95 173.74) rotate(-22.5)" fill="#d13333"/><circle cx="421.03" cy="525.87" r="4.39" fill="#d13333"/><circle cx="421.03" cy="525.87" r="4.39" fill="#d13333"/><path d="M216.7,81.89a4.4,4.4,0,1,1-4.4-4.39A4.39,4.39,0,0,1,216.7,81.89Z" fill="#d13333" fill-rule="evenodd"/><path d="M216.7,81.89a4.4,4.4,0,1,1-4.4-4.39A4.39,4.39,0,0,1,216.7,81.89Z" fill="#d13333"/><circle cx="378.72" cy="334.74" r="4.39" fill="#d13333"/><circle cx="378.72" cy="334.74" r="4.39" fill="#d13333"/><circle cx="306.5" cy="266.95" r="4.39" transform="translate(-23.73 503.91) rotate(-76.72)" fill="#d13333"/><circle cx="306.5" cy="266.95" r="4.39" transform="translate(-23.73 503.91) rotate(-76.72)" fill="#d13333"/><circle cx="306.5" cy="266.95" r="4.39" transform="translate(-23.73 503.91) rotate(-76.72)" fill="#d13333"/><circle cx="306.5" cy="266.95" r="4.39" transform="translate(-23.73 503.91) rotate(-76.72)" fill="#d13333"/><circle cx="306.5" cy="266.95" r="4.39" transform="translate(-23.73 503.91) rotate(-76.72)" fill="#d13333"/><circle cx="306.5" cy="266.95" r="4.39" transform="translate(-23.73 503.91) rotate(-76.72)" fill="#d13333"/><circle cx="306.49" cy="266.6" r="4.39" transform="translate(-23.4 503.63) rotate(-76.72)" fill="#d13333"/><circle cx="306.49" cy="266.6" r="4.39" transform="translate(-23.4 503.63) rotate(-76.72)" fill="#d13333"/><circle cx="306.5" cy="266.95" r="4.39" transform="translate(-23.73 503.91) rotate(-76.72)" fill="#d13333"/><circle cx="306.5" cy="266.95" r="4.39" transform="translate(-23.73 503.91) rotate(-76.72)" fill="#d13333"/><circle cx="306.5" cy="266.95" r="4.39" transform="translate(-23.73 503.91) rotate(-76.72)" fill="#d13333"/><circle cx="306.5" cy="266.95" r="4.39" transform="translate(-23.73 503.91) rotate(-76.72)" fill="#d13333"/><path d="M291.41,120.64a4.4,4.4,0,1,1-4.39-4.39A4.4,4.4,0,0,1,291.41,120.64Z" fill="#d13333" fill-rule="evenodd"/><path d="M291.41,120.64a4.4,4.4,0,1,1-4.39-4.39A4.4,4.4,0,0,1,291.41,120.64Z" fill="#d13333"/><path d="M512.72,499.42a4.4,4.4,0,1,1-4.4-4.39A4.4,4.4,0,0,1,512.72,499.42Z" fill="#d13333" fill-rule="evenodd"/><path d="M512.72,499.42a4.4,4.4,0,1,1-4.4-4.39A4.4,4.4,0,0,1,512.72,499.42Z" fill="#d13333"/><circle cx="298.51" cy="467.36" r="4.39" fill="#d13333"/><circle cx="298.51" cy="467.36" r="4.39" fill="#d13333"/><circle cx="298.51" cy="467.36" r="4.39" fill="#d13333"/><circle cx="298.51" cy="467.36" r="4.39" fill="#d13333"/><path d="M324.74,146.7a4.4,4.4,0,1,1-4.39-4.4A4.39,4.39,0,0,1,324.74,146.7Z" fill="#d13333" fill-rule="evenodd"/><path d="M324.74,146.7a4.4,4.4,0,1,1-4.39-4.4A4.39,4.39,0,0,1,324.74,146.7Z" fill="#d13333"/><path d="M438.66,252.34a4.4,4.4,0,1,1-4.4-4.39A4.4,4.4,0,0,1,438.66,252.34Z" fill="#d13333" fill-rule="evenodd"/><path d="M438.66,252.34a4.4,4.4,0,1,1-4.4-4.39A4.4,4.4,0,0,1,438.66,252.34Z" fill="#d13333"/><path d="M438.66,252.34a4.4,4.4,0,1,1-4.4-4.39A4.4,4.4,0,0,1,438.66,252.34Z" fill="#d13333" fill-rule="evenodd"/><path d="M438.66,252.34a4.4,4.4,0,1,1-4.4-4.39A4.4,4.4,0,0,1,438.66,252.34Z" fill="#d13333"/><path d="M397.85,256a4.4,4.4,0,1,1-4.39-4.4A4.39,4.39,0,0,1,397.85,256Z" fill="#d13333" fill-rule="evenodd"/><path d="M397.85,256a4.4,4.4,0,1,1-4.39-4.4A4.39,4.39,0,0,1,397.85,256Z" fill="#d13333"/><circle cx="313.76" cy="333.98" r="4.39" fill="#d13333"/><circle cx="313.76" cy="333.98" r="4.39" fill="#d13333"/><path d="M406.41,337.5a4.4,4.4,0,1,1-4.39-4.4A4.4,4.4,0,0,1,406.41,337.5Z" fill="#d13333" fill-rule="evenodd"/><path d="M406.41,337.5a4.4,4.4,0,1,1-4.39-4.4A4.4,4.4,0,0,1,406.41,337.5Z" fill="#d13333"/><path d="M462.24,374.36a4.4,4.4,0,1,1-4.4-4.4A4.39,4.39,0,0,1,462.24,374.36Z" fill="#d13333" fill-rule="evenodd"/><path d="M462.24,374.36a4.4,4.4,0,1,1-4.4-4.4A4.39,4.39,0,0,1,462.24,374.36Z" fill="#d13333"/><path d="M453,389.47a4.4,4.4,0,1,1-4.4-4.39A4.4,4.4,0,0,1,453,389.47Z" fill="#d13333" fill-rule="evenodd"/><path d="M453,389.47a4.4,4.4,0,1,1-4.4-4.39A4.4,4.4,0,0,1,453,389.47Z" fill="#d13333"/><circle cx="437.8" cy="389.66" r="4.39" fill="#d13333"/><circle cx="437.8" cy="389.66" r="4.39" fill="#d13333"/><circle cx="411.44" cy="542.77" r="4.39" fill="#d13333"/><circle cx="411.44" cy="542.77" r="4.39" fill="#d13333"/><circle cx="411.44" cy="542.77" r="4.39" fill="#d13333"/><circle cx="411.44" cy="542.77" r="4.39" fill="#d13333"/><circle cx="411.44" cy="542.77" r="4.39" fill="#d13333"/><circle cx="411.44" cy="542.77" r="4.39" fill="#d13333"/><circle cx="411.44" cy="542.77" r="4.39" fill="#d13333"/><circle cx="411.44" cy="542.77" r="4.39" fill="#d13333"/><circle cx="411.44" cy="542.77" r="4.39" fill="#d13333"/><circle cx="411.44" cy="542.77" r="4.39" fill="#d13333"/><circle cx="411.44" cy="542.77" r="4.39" fill="#d13333"/><circle cx="411.44" cy="542.77" r="4.39" fill="#d13333"/><circle cx="411.44" cy="542.77" r="4.39" fill="#d13333"/><circle cx="411.44" cy="542.77" r="4.39" fill="#d13333"/><circle cx="411.44" cy="542.77" r="4.39" fill="#d13333"/><circle cx="411.44" cy="542.77" r="4.39" fill="#d13333"/><circle cx="388.93" cy="337.9" r="4.39" fill="#d13333"/><circle cx="388.93" cy="337.9" r="4.39" fill="#d13333"/><circle cx="455.89" cy="397.4" r="4.39" fill="#d13333"/><circle cx="455.89" cy="397.4" r="4.39" fill="#d13333"/><circle cx="455.89" cy="397.4" r="4.39" fill="#d13333"/><circle cx="455.89" cy="397.4" r="4.39" fill="#d13333"/><circle cx="455.89" cy="397.4" r="4.39" fill="#d13333"/><circle cx="455.89" cy="397.4" r="4.39" fill="#d13333"/><circle cx="455.89" cy="397.4" r="4.39" fill="#d13333"/><circle cx="455.89" cy="397.4" r="4.39" fill="#d13333"/><circle cx="455.89" cy="397.4" r="4.39" fill="#d13333"/><circle cx="455.89" cy="397.4" r="4.39" fill="#d13333"/><circle cx="472.27" cy="649.57" r="4.39" fill="#d13333"/><circle cx="472.27" cy="649.57" r="4.39" fill="#d13333"/><circle cx="322.35" cy="281.71" r="4.39" fill="#d13333"/><circle cx="322.35" cy="281.71" r="4.39" fill="#d13333"/><circle cx="322.35" cy="281.71" r="4.39" fill="#d13333"/><circle cx="322.35" cy="281.71" r="4.39" fill="#d13333"/><circle cx="476.08" cy="434.04" r="4.39" fill="#d13333"/><circle cx="476.08" cy="434.04" r="4.39" fill="#d13333"/><circle cx="476.08" cy="434.04" r="4.39" fill="#d13333"/><circle cx="476.08" cy="434.04" r="4.39" fill="#d13333"/><circle cx="245.86" cy="176.65" r="4.39" fill="#d13333"/><circle cx="245.86" cy="176.65" r="4.39" fill="#d13333"/><circle cx="396.66" cy="437.35" r="4.39" fill="#d13333"/><circle cx="396.66" cy="437.35" r="4.39" fill="#d13333"/><circle cx="396.66" cy="437.35" r="4.39" fill="#d13333"/><circle cx="396.66" cy="437.35" r="4.39" fill="#d13333"/><circle cx="396.66" cy="437.35" r="4.39" fill="#d13333"/><circle cx="396.66" cy="437.35" r="4.39" fill="#d13333"/><path d="M439.31,497.05a4.4,4.4,0,1,1-4.4-4.4A4.39,4.39,0,0,1,439.31,497.05Z" fill="#d13333" fill-rule="evenodd"/><path d="M439.31,497.05a4.4,4.4,0,1,1-4.4-4.4A4.39,4.39,0,0,1,439.31,497.05Z" fill="#d13333"/><circle cx="432.24" cy="498.19" r="4.39" fill="#d13333"/><circle cx="432.24" cy="498.19" r="4.39" fill="#d13333"/><circle cx="432.24" cy="498.19" r="4.39" fill="#d13333"/><circle cx="432.24" cy="498.19" r="4.39" fill="#d13333"/><path d="M439.31,497.05a4.4,4.4,0,1,1-4.4-4.4A4.39,4.39,0,0,1,439.31,497.05Z" fill="#d13333" fill-rule="evenodd"/><path d="M439.31,497.05a4.4,4.4,0,1,1-4.4-4.4A4.39,4.39,0,0,1,439.31,497.05Z" fill="#d13333"/><circle cx="432.22" cy="497.18" r="4.39" fill="#d13333"/><circle cx="432.22" cy="497.18" r="4.39" fill="#d13333"/><circle cx="432.24" cy="498.19" r="4.39" fill="#d13333"/><circle cx="432.24" cy="498.19" r="4.39" fill="#d13333"/><path d="M349.33,40.92a4.4,4.4,0,1,1-4.39-4.4A4.39,4.39,0,0,1,349.33,40.92Z" fill="#d13333" fill-rule="evenodd"/><path d="M349.33,40.92a4.4,4.4,0,1,1-4.39-4.4A4.39,4.39,0,0,1,349.33,40.92Z" fill="#d13333"/><path d="M325.57,135.24a4.4,4.4,0,1,1-4.39-4.39A4.4,4.4,0,0,1,325.57,135.24Z" fill="#d13333" fill-rule="evenodd"/><path d="M325.57,135.24a4.4,4.4,0,1,1-4.39-4.39A4.4,4.4,0,0,1,325.57,135.24Z" fill="#d13333"/><path d="M325.57,135.24a4.4,4.4,0,1,1-4.39-4.39A4.4,4.4,0,0,1,325.57,135.24Z" fill="#d13333" fill-rule="evenodd"/><path d="M325.57,135.24a4.4,4.4,0,1,1-4.39-4.39A4.4,4.4,0,0,1,325.57,135.24Z" fill="#d13333"/><path d="M325.57,135.24a4.4,4.4,0,1,1-4.39-4.39A4.4,4.4,0,0,1,325.57,135.24Z" fill="#d13333" fill-rule="evenodd"/><path d="M325.57,135.24a4.4,4.4,0,1,1-4.39-4.39A4.4,4.4,0,0,1,325.57,135.24Z" fill="#d13333"/><path d="M370.88,243.24a4.4,4.4,0,1,1-4.39-4.4A4.4,4.4,0,0,1,370.88,243.24Z" fill="#d13333" fill-rule="evenodd"/><path d="M370.88,243.24a4.4,4.4,0,1,1-4.39-4.4A4.4,4.4,0,0,1,370.88,243.24Z" fill="#d13333"/><path d="M370.88,243.24a4.4,4.4,0,1,1-4.39-4.4A4.4,4.4,0,0,1,370.88,243.24Z" fill="#d13333" fill-rule="evenodd"/><path d="M370.88,243.24a4.4,4.4,0,1,1-4.39-4.4A4.4,4.4,0,0,1,370.88,243.24Z" fill="#d13333"/><path d="M370.88,243.24a4.4,4.4,0,1,1-4.39-4.4A4.4,4.4,0,0,1,370.88,243.24Z" fill="#d13333" fill-rule="evenodd"/><path d="M370.88,243.24a4.4,4.4,0,1,1-4.39-4.4A4.4,4.4,0,0,1,370.88,243.24Z" fill="#d13333"/><circle cx="435.19" cy="252.78" r="4.39" fill="#d13333"/><circle cx="435.19" cy="252.78" r="4.39" fill="#d13333"/><circle cx="454.54" cy="684.08" r="4.39" fill="#d13333"/><circle cx="454.54" cy="684.08" r="4.39" fill="#d13333"/><circle cx="296.55" cy="178.35" r="4.39" fill="#d13333"/><circle cx="296.55" cy="178.35" r="4.39" fill="#d13333"/><circle cx="296.55" cy="178.35" r="4.39" fill="#d13333"/><circle cx="296.55" cy="178.35" r="4.39" fill="#d13333"/><circle cx="296.55" cy="178.35" r="4.39" fill="#d13333"/><circle cx="296.55" cy="178.35" r="4.39" fill="#d13333"/><circle cx="296.55" cy="178.35" r="4.39" fill="#d13333"/><circle cx="296.55" cy="178.35" r="4.39" fill="#d13333"/><circle cx="489.28" cy="595.43" r="4.39" fill="#d13333"/><circle cx="489.28" cy="595.43" r="4.39" fill="#d13333"/><path d="M296.22,169.44a4.4,4.4,0,1,1-4.4-4.39A4.4,4.4,0,0,1,296.22,169.44Z" fill="#d13333" fill-rule="evenodd"/><path d="M296.22,169.44a4.4,4.4,0,1,1-4.4-4.39A4.4,4.4,0,0,1,296.22,169.44Z" fill="#d13333"/><path d="M296.22,169.44a4.4,4.4,0,1,1-4.4-4.39A4.4,4.4,0,0,1,296.22,169.44Z" fill="#d13333" fill-rule="evenodd"/><path d="M296.22,169.44a4.4,4.4,0,1,1-4.4-4.39A4.4,4.4,0,0,1,296.22,169.44Z" fill="#d13333"/><path d="M296.22,169.44a4.4,4.4,0,1,1-4.4-4.39A4.4,4.4,0,0,1,296.22,169.44Z" fill="#d13333" fill-rule="evenodd"/><path d="M296.22,169.44a4.4,4.4,0,1,1-4.4-4.39A4.4,4.4,0,0,1,296.22,169.44Z" fill="#d13333"/><path d="M296.22,169.44a4.4,4.4,0,1,1-4.4-4.39A4.4,4.4,0,0,1,296.22,169.44Z" fill="#d13333" fill-rule="evenodd"/><path d="M296.22,169.44a4.4,4.4,0,1,1-4.4-4.39A4.4,4.4,0,0,1,296.22,169.44Z" fill="#d13333"/><path d="M394.52,89a4.4,4.4,0,1,1-4.4-4.4A4.4,4.4,0,0,1,394.52,89Z" fill="#d13333" fill-rule="evenodd"/><path d="M394.52,89a4.4,4.4,0,1,1-4.4-4.4A4.4,4.4,0,0,1,394.52,89Z" fill="#d13333"/><path d="M394.52,89a4.4,4.4,0,1,1-4.4-4.4A4.4,4.4,0,0,1,394.52,89Z" fill="#d13333" fill-rule="evenodd"/><path d="M394.52,89a4.4,4.4,0,1,1-4.4-4.4A4.4,4.4,0,0,1,394.52,89Z" fill="#d13333"/><path d="M394.52,89a4.4,4.4,0,1,1-4.4-4.4A4.4,4.4,0,0,1,394.52,89Z" fill="#d13333" fill-rule="evenodd"/><path d="M394.52,89a4.4,4.4,0,1,1-4.4-4.4A4.4,4.4,0,0,1,394.52,89Z" fill="#d13333"/><path d="M417.76,442.79a4.4,4.4,0,1,1-4.39-4.4A4.39,4.39,0,0,1,417.76,442.79Z" fill="#d13333" fill-rule="evenodd"/><path d="M417.76,442.79a4.4,4.4,0,1,1-4.39-4.4A4.39,4.39,0,0,1,417.76,442.79Z" fill="#d13333"/><path d="M362.69,430.33a4.4,4.4,0,1,1-4.4-4.39A4.4,4.4,0,0,1,362.69,430.33Z" fill="#d13333" fill-rule="evenodd"/><path d="M362.69,430.33a4.4,4.4,0,1,1-4.4-4.39A4.4,4.4,0,0,1,362.69,430.33Z" fill="#d13333"/><circle cx="403.62" cy="645.13" r="4.39" fill="#d13333"/><circle cx="403.62" cy="645.13" r="4.39" fill="#d13333"/><circle cx="337.3" cy="446.37" r="4.39" fill="#d13333"/><circle cx="337.3" cy="446.37" r="4.39" fill="#d13333"/><circle cx="337.3" cy="446.37" r="4.39" fill="#d13333"/><circle cx="337.3" cy="446.37" r="4.39" fill="#d13333"/><circle cx="435.21" cy="542.45" r="4.39" fill="#d13333"/><circle cx="435.21" cy="542.45" r="4.39" fill="#d13333"/><circle cx="435.21" cy="542.45" r="4.39" fill="#d13333"/><circle cx="435.21" cy="542.45" r="4.39" fill="#d13333"/><path d="M439.76,541.62a4.4,4.4,0,1,1-4.4-4.39A4.4,4.4,0,0,1,439.76,541.62Z" fill="#d13333" fill-rule="evenodd"/><path d="M439.76,541.62a4.4,4.4,0,1,1-4.4-4.39A4.4,4.4,0,0,1,439.76,541.62Z" fill="#d13333"/><circle cx="450.47" cy="664.18" r="4.39" fill="#d13333"/><circle cx="450.47" cy="664.18" r="4.39" fill="#d13333"/><path d="M558.55,542.69a4.4,4.4,0,1,1-4.39-4.39A4.4,4.4,0,0,1,558.55,542.69Z" fill="#d13333" fill-rule="evenodd"/><path d="M558.55,542.69a4.4,4.4,0,1,1-4.39-4.39A4.4,4.4,0,0,1,558.55,542.69Z" fill="#d13333"/><path d="M502.25,501.54a4.4,4.4,0,1,1-4.39-4.39A4.4,4.4,0,0,1,502.25,501.54Z" fill="#d13333" fill-rule="evenodd"/><path d="M502.25,501.54a4.4,4.4,0,1,1-4.39-4.39A4.4,4.4,0,0,1,502.25,501.54Z" fill="#d13333"/><path d="M502.25,501.54a4.4,4.4,0,1,1-4.39-4.39A4.4,4.4,0,0,1,502.25,501.54Z" fill="#d13333" fill-rule="evenodd"/><path d="M502.25,501.54a4.4,4.4,0,1,1-4.39-4.39A4.4,4.4,0,0,1,502.25,501.54Z" fill="#d13333"/><path d="M502.25,501.54a4.4,4.4,0,1,1-4.39-4.39A4.4,4.4,0,0,1,502.25,501.54Z" fill="#d13333" fill-rule="evenodd"/><path d="M502.25,501.54a4.4,4.4,0,1,1-4.39-4.39A4.4,4.4,0,0,1,502.25,501.54Z" fill="#d13333"/><path d="M521.29,518.12a4.4,4.4,0,1,1-4.39-4.39A4.4,4.4,0,0,1,521.29,518.12Z" fill="#d13333" fill-rule="evenodd"/><path d="M521.29,518.12a4.4,4.4,0,1,1-4.39-4.39A4.4,4.4,0,0,1,521.29,518.12Z" fill="#d13333"/><circle cx="272.74" cy="284.86" r="4.39" fill="#d13333"/><circle cx="272.74" cy="284.86" r="4.39" fill="#d13333"/><circle cx="272.74" cy="284.86" r="4.39" fill="#d13333"/><circle cx="272.74" cy="284.86" r="4.39" fill="#d13333"/><circle cx="272.74" cy="284.86" r="4.39" fill="#d13333"/><circle cx="272.74" cy="284.86" r="4.39" fill="#d13333"/><circle cx="226" cy="190.64" r="4.39" fill="#d13333"/><circle cx="226" cy="190.64" r="4.39" fill="#d13333"/><circle cx="300.74" cy="541.69" r="4.39" fill="#d13333"/><circle cx="300.74" cy="541.69" r="4.39" fill="#d13333"/><path d="M306.66,537.47a4.4,4.4,0,1,1-4.4-4.39A4.4,4.4,0,0,1,306.66,537.47Z" fill="#d13333" fill-rule="evenodd"/><path d="M306.66,537.47a4.4,4.4,0,1,1-4.4-4.39A4.4,4.4,0,0,1,306.66,537.47Z" fill="#d13333"/><path d="M306.66,537.47a4.4,4.4,0,1,1-4.4-4.39A4.4,4.4,0,0,1,306.66,537.47Z" fill="#d13333" fill-rule="evenodd"/><path d="M306.66,537.47a4.4,4.4,0,1,1-4.4-4.39A4.4,4.4,0,0,1,306.66,537.47Z" fill="#d13333"/><circle cx="325.15" cy="233.96" r="4.39" fill="#d13333"/><circle cx="325.15" cy="233.96" r="4.39" fill="#d13333"/><circle cx="374.29" cy="287.25" r="4.39" fill="#d13333"/><circle cx="374.29" cy="287.25" r="4.39" fill="#d13333"/><path d="M388.51,64.31a4.4,4.4,0,1,1-4.4-4.4A4.39,4.39,0,0,1,388.51,64.31Z" fill="#d13333" fill-rule="evenodd"/><path d="M388.51,64.31a4.4,4.4,0,1,1-4.4-4.4A4.39,4.39,0,0,1,388.51,64.31Z" fill="#d13333"/><path d="M388.51,64.31a4.4,4.4,0,1,1-4.4-4.4A4.39,4.39,0,0,1,388.51,64.31Z" fill="#d13333" fill-rule="evenodd"/><path d="M388.51,64.31a4.4,4.4,0,1,1-4.4-4.4A4.39,4.39,0,0,1,388.51,64.31Z" fill="#d13333"/><path d="M218.62,102.11a4.4,4.4,0,1,1-4.4-4.4A4.4,4.4,0,0,1,218.62,102.11Z" fill="#d13333" fill-rule="evenodd"/><path d="M218.62,102.11a4.4,4.4,0,1,1-4.4-4.4A4.4,4.4,0,0,1,218.62,102.11Z" fill="#d13333"/><path d="M218.62,102.11a4.4,4.4,0,1,1-4.4-4.4A4.4,4.4,0,0,1,218.62,102.11Z" fill="#d13333" fill-rule="evenodd"/><path d="M218.62,102.11a4.4,4.4,0,1,1-4.4-4.4A4.4,4.4,0,0,1,218.62,102.11Z" fill="#d13333"/><path d="M218.62,102.11a4.4,4.4,0,1,1-4.4-4.4A4.4,4.4,0,0,1,218.62,102.11Z" fill="#d13333" fill-rule="evenodd"/><path d="M218.62,102.11a4.4,4.4,0,1,1-4.4-4.4A4.4,4.4,0,0,1,218.62,102.11Z" fill="#d13333"/><path d="M218.62,102.11a4.4,4.4,0,1,1-4.4-4.4A4.4,4.4,0,0,1,218.62,102.11Z" fill="#d13333" fill-rule="evenodd"/><path d="M218.62,102.11a4.4,4.4,0,1,1-4.4-4.4A4.4,4.4,0,0,1,218.62,102.11Z" fill="#d13333"/><path d="M479.51,514a4.4,4.4,0,1,1-4.39-4.4A4.38,4.38,0,0,1,479.51,514Z" fill="#d13333" fill-rule="evenodd"/><path d="M479.51,514a4.4,4.4,0,1,1-4.39-4.4A4.38,4.38,0,0,1,479.51,514Z" fill="#d13333"/><circle cx="336" cy="509.38" r="4.39" fill="#d13333"/><circle cx="336" cy="509.38" r="4.39" fill="#d13333"/><path d="M567.13,565.6a4.4,4.4,0,1,1-4.39-4.4A4.39,4.39,0,0,1,567.13,565.6Z" fill="#d13333" fill-rule="evenodd"/><path d="M567.13,565.6a4.4,4.4,0,1,1-4.39-4.4A4.39,4.39,0,0,1,567.13,565.6Z" fill="#d13333"/><path d="M567.13,565.6a4.4,4.4,0,1,1-4.39-4.4A4.39,4.39,0,0,1,567.13,565.6Z" fill="#d13333" fill-rule="evenodd"/><path d="M567.13,565.6a4.4,4.4,0,1,1-4.39-4.4A4.39,4.39,0,0,1,567.13,565.6Z" fill="#d13333"/><circle cx="423.55" cy="427.82" r="4.39" fill="#d13333"/><circle cx="423.55" cy="427.82" r="4.39" fill="#d13333"/><circle cx="423.55" cy="427.82" r="4.39" fill="#d13333"/><circle cx="423.55" cy="427.82" r="4.39" fill="#d13333"/><path d="M475.39,486.77a4.4,4.4,0,1,1-4.39-4.4A4.38,4.38,0,0,1,475.39,486.77Z" fill="#d13333" fill-rule="evenodd"/><path d="M475.39,486.77a4.4,4.4,0,1,1-4.39-4.4A4.38,4.38,0,0,1,475.39,486.77Z" fill="#d13333"/><circle cx="332.74" cy="466.32" r="4.39" fill="#d13333"/><circle cx="332.74" cy="466.32" r="4.39" fill="#d13333"/><path d="M266.35,444.54a4.4,4.4,0,1,1-4.39-4.4A4.4,4.4,0,0,1,266.35,444.54Z" fill="#d13333" fill-rule="evenodd"/><path d="M266.35,444.54a4.4,4.4,0,1,1-4.39-4.4A4.4,4.4,0,0,1,266.35,444.54Z" fill="#d13333"/><path d="M491.31,482.63a4.39,4.39,0,1,1-4.39-4.4A4.38,4.38,0,0,1,491.31,482.63Z" fill="#d13333" fill-rule="evenodd"/><path d="M491.31,482.63a4.39,4.39,0,1,1-4.39-4.4A4.38,4.38,0,0,1,491.31,482.63Z" fill="#d13333"/><path d="M491.31,482.63a4.39,4.39,0,1,1-4.39-4.4A4.38,4.38,0,0,1,491.31,482.63Z" fill="#d13333" fill-rule="evenodd"/><path d="M491.31,482.63a4.39,4.39,0,1,1-4.39-4.4A4.38,4.38,0,0,1,491.31,482.63Z" fill="#d13333"/><path d="M491.46,482.3a4.4,4.4,0,1,1-4.39-4.4A4.39,4.39,0,0,1,491.46,482.3Z" fill="#d13333" fill-rule="evenodd"/><path d="M491.46,482.3a4.4,4.4,0,1,1-4.39-4.4A4.39,4.39,0,0,1,491.46,482.3Z" fill="#d13333"/><path d="M491.31,482.63a4.39,4.39,0,1,1-4.39-4.4A4.38,4.38,0,0,1,491.31,482.63Z" fill="#d13333" fill-rule="evenodd"/><path d="M491.31,482.63a4.39,4.39,0,1,1-4.39-4.4A4.38,4.38,0,0,1,491.31,482.63Z" fill="#d13333"/><circle cx="471.72" cy="389.7" r="4.39" fill="#d13333"/><circle cx="471.72" cy="389.7" r="4.39" fill="#d13333"/><path d="M367.44,38.5a4.4,4.4,0,1,1-4.4-4.39A4.4,4.4,0,0,1,367.44,38.5Z" fill="#d13333" fill-rule="evenodd"/><path d="M367.44,38.5a4.4,4.4,0,1,1-4.4-4.39A4.4,4.4,0,0,1,367.44,38.5Z" fill="#d13333"/><circle cx="407.37" cy="133.26" r="4.39" fill="#d13333"/><circle cx="407.37" cy="133.26" r="4.39" fill="#d13333"/><circle cx="407.37" cy="133.26" r="4.39" fill="#d13333"/><circle cx="407.37" cy="133.26" r="4.39" fill="#d13333"/><circle cx="435.12" cy="476.83" r="4.39" fill="#d13333"/><circle cx="435.12" cy="476.83" r="4.39" fill="#d13333"/><circle cx="435.12" cy="476.83" r="4.39" fill="#d13333"/><circle cx="435.12" cy="476.83" r="4.39" fill="#d13333"/><circle cx="393.69" cy="590.69" r="4.39" fill="#d13333"/><circle cx="393.69" cy="590.69" r="4.39" fill="#d13333"/><circle cx="307.67" cy="123.62" r="4.39" fill="#d13333"/><circle cx="307.67" cy="123.62" r="4.39" fill="#d13333"/><path d="M327.35,119.5a4.4,4.4,0,1,1-4.4-4.39A4.4,4.4,0,0,1,327.35,119.5Z" fill="#d13333" fill-rule="evenodd"/><path d="M327.35,119.5a4.4,4.4,0,1,1-4.4-4.39A4.4,4.4,0,0,1,327.35,119.5Z" fill="#d13333"/><circle cx="418.11" cy="597.63" r="4.39" fill="#d13333"/><circle cx="418.11" cy="597.63" r="4.39" fill="#d13333"/><circle cx="482.98" cy="489.99" r="4.39" fill="#d13333"/><circle cx="482.98" cy="489.99" r="4.39" fill="#d13333"/><circle cx="482.98" cy="489.99" r="4.39" fill="#d13333"/><circle cx="482.98" cy="489.99" r="4.39" fill="#d13333"/><circle cx="316.82" cy="269.89" r="4.39" fill="#d13333"/><circle cx="316.82" cy="269.89" r="4.39" fill="#d13333"/><circle cx="316.82" cy="269.89" r="4.39" fill="#d13333"/><circle cx="316.82" cy="269.89" r="4.39" fill="#d13333"/><circle cx="316.82" cy="269.89" r="4.39" fill="#d13333"/><circle cx="316.82" cy="269.89" r="4.39" fill="#d13333"/><circle cx="574.54" cy="650.08" r="4.39" fill="#d13333"/><circle cx="574.54" cy="650.08" r="4.39" fill="#d13333"/><circle cx="573.31" cy="649.55" r="4.39" fill="#d13333"/><circle cx="573.31" cy="649.55" r="4.39" fill="#d13333"/><circle cx="573.31" cy="649.55" r="4.39" fill="#d13333"/><circle cx="573.31" cy="649.55" r="4.39" fill="#d13333"/><circle cx="573.31" cy="649.55" r="4.39" fill="#d13333"/><circle cx="573.31" cy="649.55" r="4.39" fill="#d13333"/><circle cx="573.31" cy="649.55" r="4.39" fill="#d13333"/><circle cx="573.31" cy="649.55" r="4.39" fill="#d13333"/><circle cx="573.31" cy="649.55" r="4.39" fill="#d13333"/><circle cx="573.31" cy="649.55" r="4.39" fill="#d13333"/><circle cx="573.31" cy="649.55" r="4.39" fill="#d13333"/><circle cx="573.31" cy="649.55" r="4.39" fill="#d13333"/><circle cx="573.31" cy="649.55" r="4.39" fill="#d13333"/><circle cx="573.31" cy="649.55" r="4.39" fill="#d13333"/><circle cx="388.29" cy="257.39" r="4.39" fill="#d13333"/><circle cx="388.29" cy="257.39" r="4.39" fill="#d13333"/><circle cx="388.29" cy="257.39" r="4.39" fill="#d13333"/><circle cx="388.29" cy="257.39" r="4.39" fill="#d13333"/><circle cx="402.67" cy="507.65" r="4.39" fill="#d13333"/><circle cx="402.67" cy="507.65" r="4.39" fill="#d13333"/><circle cx="417.1" cy="502.16" r="4.39" fill="#d13333"/><circle cx="417.1" cy="502.16" r="4.39" fill="#d13333"/><path d="M301.66,243.68a4.4,4.4,0,1,1-4.39-4.39A4.4,4.4,0,0,1,301.66,243.68Z" fill="#d13333" fill-rule="evenodd"/><path d="M301.66,243.68a4.4,4.4,0,1,1-4.39-4.39A4.4,4.4,0,0,1,301.66,243.68Z" fill="#d13333"/><path d="M301.66,243.68a4.4,4.4,0,1,1-4.39-4.39A4.4,4.4,0,0,1,301.66,243.68Z" fill="#d13333" fill-rule="evenodd"/><path d="M301.66,243.68a4.4,4.4,0,1,1-4.39-4.39A4.4,4.4,0,0,1,301.66,243.68Z" fill="#d13333"/><path d="M301.66,243.68a4.4,4.4,0,1,1-4.39-4.39A4.4,4.4,0,0,1,301.66,243.68Z" fill="#d13333" fill-rule="evenodd"/><path d="M301.66,243.68a4.4,4.4,0,1,1-4.39-4.39A4.4,4.4,0,0,1,301.66,243.68Z" fill="#d13333"/><path d="M301.66,243.68a4.4,4.4,0,1,1-4.39-4.39A4.4,4.4,0,0,1,301.66,243.68Z" fill="#d13333" fill-rule="evenodd"/><path d="M301.66,243.68a4.4,4.4,0,1,1-4.39-4.39A4.4,4.4,0,0,1,301.66,243.68Z" fill="#d13333"/><circle cx="332.75" cy="274.62" r="4.39" fill="#d13333"/><circle cx="332.75" cy="274.62" r="4.39" fill="#d13333"/><circle cx="332.75" cy="274.62" r="4.39" fill="#d13333"/><circle cx="332.75" cy="274.62" r="4.39" fill="#d13333"/><path d="M388.48,288a4.4,4.4,0,1,1-4.4-4.39A4.4,4.4,0,0,1,388.48,288Z" fill="#d13333" fill-rule="evenodd"/><path d="M388.48,288a4.4,4.4,0,1,1-4.4-4.39A4.4,4.4,0,0,1,388.48,288Z" fill="#d13333"/><circle cx="452.78" cy="460.09" r="4.39" fill="#d13333"/><circle cx="452.78" cy="460.09" r="4.39" fill="#d13333"/><path d="M383,300.11a4.4,4.4,0,1,1-4.4-4.4A4.39,4.39,0,0,1,383,300.11Z" fill="#d13333" fill-rule="evenodd"/><path d="M383,300.11a4.4,4.4,0,1,1-4.4-4.4A4.39,4.39,0,0,1,383,300.11Z" fill="#d13333"/><path d="M383,300.11a4.4,4.4,0,1,1-4.4-4.4A4.39,4.39,0,0,1,383,300.11Z" fill="#d13333" fill-rule="evenodd"/><path d="M383,300.11a4.4,4.4,0,1,1-4.4-4.4A4.39,4.39,0,0,1,383,300.11Z" fill="#d13333"/><path d="M253.58,244.49a4.4,4.4,0,1,1-4.39-4.39A4.4,4.4,0,0,1,253.58,244.49Z" fill="#d13333" fill-rule="evenodd"/><path d="M253.58,244.49a4.4,4.4,0,1,1-4.39-4.39A4.4,4.4,0,0,1,253.58,244.49Z" fill="#d13333"/><path d="M461.22,357.64a4.4,4.4,0,1,1-4.39-4.4A4.39,4.39,0,0,1,461.22,357.64Z" fill="#d13333" fill-rule="evenodd"/><path d="M461.22,357.64a4.4,4.4,0,1,1-4.39-4.4A4.39,4.39,0,0,1,461.22,357.64Z" fill="#d13333"/></svg>