<?xml version="1.0" encoding="utf-8"?>
<!-- Generator: Adobe Illustrator 22.0.1, SVG Export Plug-In . SVG Version: 6.00 Build 0)  -->
<svg version="1.1" xmlns="http://www.w3.org/2000/svg" xmlns:xlink="http://www.w3.org/1999/xlink" x="0px" y="0px"
	 viewBox="0 0 600 750" style="enable-background:new 0 0 600 750;" xml:space="preserve">
<style type="text/css">
	
		.st0{opacity:0.65;clip-path:url(#SVGID_2_);fill-rule:evenodd;clip-rule:evenodd;fill:none;stroke:#FBFCFC;stroke-width:2;stroke-miterlimit:10;}
	.st1{clip-path:url(#SVGID_2_);fill:#1A1A1A;}
	.st2{clip-path:url(#SVGID_2_);}
	.st3{clip-path:url(#SVGID_4_);}
	.st4{clip-path:url(#SVGID_4_);fill:#333333;}
	.st5{clip-path:url(#SVGID_6_);fill:#333333;}
	.st6{clip-path:url(#SVGID_2_);fill:none;stroke:#FFFFFF;stroke-width:2;stroke-miterlimit:10;}
	.st7{fill:#005596;fill-opacity:0.6;stroke:#005596;stroke-width:2;stroke-miterlimit:10;}
	.st8{fill:#FFFFFF;}
	.st9{fill-rule:evenodd;clip-rule:evenodd;fill:none;}
	.st10{fill-rule:evenodd;clip-rule:evenodd;fill:#005596;}
	.st11{fill-rule:evenodd;clip-rule:evenodd;fill:#FCEE21;}
	.st12{fill-rule:evenodd;clip-rule:evenodd;fill:#F15A24;}
</style>
<g id="basemap">
</g>
<g id="ex_x5F_1">
</g>
<g id="ex_x5F_2">
</g>
<g id="ex_x5F_3">
</g>
<g id="police_x5F_locs">
</g>
<g id="civil_x5F_suits_x5F_locs">
</g>
<g id="citations_x5F_locs">
	<g>
		<circle class="st12" cx="409.4" cy="274.2" r="4.9"/>
		<circle class="st12" cx="386.7" cy="241.8" r="4.9"/>
		<circle class="st12" cx="353.2" cy="187.7" r="4.9"/>
		<circle class="st12" cx="352.1" cy="187.7" r="4.9"/>
		<circle class="st12" cx="384.6" cy="165" r="4.9"/>
		<circle class="st12" cx="383.5" cy="165" r="4.9"/>
		<circle class="st12" cx="340.2" cy="131.5" r="4.9"/>
		<circle class="st12" cx="306.7" cy="163.9" r="4.9"/>
		<circle class="st12" cx="305.6" cy="131.5" r="4.9"/>
		<circle class="st12" cx="339.2" cy="99" r="4.9"/>
		<circle class="st12" cx="339.2" cy="100.1" r="4.9"/>
		<circle class="st12" cx="371.6" cy="131.5" r="4.9"/>
		<circle class="st12" cx="370.5" cy="131.5" r="4.9"/>
		<circle class="st12" cx="381.3" cy="108.8" r="4.9"/>
		<circle class="st12" cx="338.1" cy="238.5" r="4.9"/>
		<circle class="st12" cx="337" cy="238.5" r="4.9"/>
		<circle class="st12" cx="315.4" cy="216.9" r="4.9"/>
		<circle class="st12" cx="347.8" cy="261.2" r="4.9"/>
		<circle class="st12" cx="293.7" cy="251.5" r="4.9"/>
		<circle class="st12" cx="326.2" cy="285" r="4.9"/>
		<circle class="st12" cx="303.5" cy="306.7" r="4.9"/>
		<circle class="st12" cx="303.5" cy="305.6" r="4.9"/>
		<circle class="st12" cx="271" cy="285" r="4.9"/>
		<circle class="st12" cx="271" cy="262.3" r="4.9"/>
		<circle class="st12" cx="249.4" cy="240.7" r="4.9"/>
		<circle class="st12" cx="249.4" cy="197.4" r="4.9"/>
		<circle class="st12" cx="249.4" cy="186.6" r="4.9"/>
		<circle class="st12" cx="227.8" cy="165" r="4.9"/>
		<circle class="st12" cx="238.6" cy="154.2" r="4.9"/>
		<circle class="st12" cx="271" cy="165" r="4.9"/>
		<circle class="st12" cx="314.3" cy="197.4" r="4.9"/>
		<circle class="st12" cx="390" cy="283.9" r="4.9"/>
		<circle class="st12" cx="390" cy="294.8" r="4.9"/>
		<circle class="st12" cx="357.5" cy="327.2" r="4.9"/>
		<circle class="st12" cx="346.7" cy="327.2" r="4.9"/>
		<circle class="st12" cx="325.1" cy="316.4" r="4.9"/>
		<circle class="st12" cx="335.9" cy="370.4" r="4.9"/>
		<circle class="st12" cx="379.2" cy="370.4" r="4.9"/>
		<circle class="st12" cx="433.2" cy="392.1" r="4.9"/>
		<circle class="st12" cx="411.6" cy="413.7" r="4.9"/>
		<circle class="st12" cx="411.6" cy="424.5" r="4.9"/>
		<circle class="st12" cx="422.4" cy="424.5" r="4.9"/>
		<circle class="st12" cx="444" cy="446.1" r="4.9"/>
		<circle class="st12" cx="411.6" cy="479.7" r="4.9"/>
		<circle class="st12" cx="379.2" cy="447.2" r="4.9"/>
		<circle class="st12" cx="368.3" cy="447.2" r="4.9"/>
		<circle class="st12" cx="357.5" cy="458" r="4.9"/>
		<circle class="st12" cx="325.1" cy="436.4" r="4.9"/>
		<circle class="st12" cx="303.5" cy="468.8" r="4.9"/>
		<circle class="st12" cx="314.3" cy="468.8" r="4.9"/>
		<circle class="st12" cx="325.1" cy="479.7" r="4.9"/>
		<circle class="st12" cx="346.7" cy="512.1" r="4.9"/>
		<circle class="st12" cx="248.3" cy="472.1" r="4.9"/>
		<circle class="st12" cx="368.3" cy="490.5" r="4.9"/>
		<circle class="st12" cx="379.2" cy="512.1" r="4.9"/>
		<circle class="st12" cx="400.8" cy="522.9" r="4.9"/>
		<circle class="st12" cx="454.8" cy="479.7" r="4.9"/>
		<circle class="st12" cx="465.7" cy="468.8" r="4.9"/>
		<circle class="st12" cx="454.8" cy="404" r="4.9"/>
		<circle class="st12" cx="465.7" cy="436.4" r="4.9"/>
		<circle class="st12" cx="487.3" cy="458" r="4.9"/>
		<circle class="st12" cx="498.1" cy="458" r="4.9"/>
		<circle class="st12" cx="465.7" cy="490.5" r="4.9"/>
		<circle class="st12" cx="444" cy="555.3" r="4.9"/>
		<circle class="st12" cx="444" cy="566.2" r="4.9"/>
		<circle class="st12" cx="454.8" cy="609.4" r="4.9"/>
		<circle class="st12" cx="487.3" cy="577" r="4.9"/>
		<circle class="st12" cx="487.3" cy="566.2" r="4.9"/>
		<circle class="st12" cx="476.5" cy="533.7" r="4.9"/>
		<circle class="st12" cx="508.9" cy="555.3" r="4.9"/>
		<circle class="st12" cx="508.9" cy="566.2" r="4.9"/>
		<circle class="st12" cx="498.1" cy="522.9" r="4.9"/>
		<circle class="st12" cx="540.3" cy="559.7" r="4.9"/>
	</g>
</g>
<g id="dont_x5F_know">
	<rect y="0" class="st9" width="600" height="750"/>
</g>
</svg>
