<?xml version="1.0" encoding="utf-8"?>
<!-- Generator: Adobe Illustrator 22.0.1, SVG Export Plug-In . SVG Version: 6.00 Build 0)  -->
<svg version="1.1" id="Layer_1" xmlns="http://www.w3.org/2000/svg" xmlns:xlink="http://www.w3.org/1999/xlink" x="0px" y="0px"
	 viewBox="0 0 600 750" style="enable-background:new 0 0 600 750;" xml:space="preserve">
<style type="text/css">
	.st0{opacity:0.65;fill-rule:evenodd;clip-rule:evenodd;fill:none;stroke:#FBFCFC;stroke-width:2;stroke-miterlimit:10;}
	.st1{fill-rule:evenodd;clip-rule:evenodd;fill:none;}
	.st2{fill:none;stroke:#4D4D4D;stroke-width:0.6;stroke-linecap:round;stroke-linejoin:round;stroke-miterlimit:10;}
	.st3{fill:none;stroke:#4D4D4D;stroke-width:2;stroke-linejoin:round;stroke-miterlimit:10;}
	.st4{fill:none;stroke:#FFFFFF;stroke-width:2;stroke-miterlimit:10;}
	.st5{fill:#FFFFFF;stroke:#FFFFFF;stroke-width:2;stroke-miterlimit:10;}
	.st6{fill:none;stroke:#FEE8A0;stroke-width:3;stroke-miterlimit:10;}
	.st7{fill:#FEE8A0;stroke:#FEE8A0;stroke-miterlimit:10;}
	.st8{fill-rule:evenodd;clip-rule:evenodd;fill:#6791A3;stroke:#000000;stroke-miterlimit:10;}
	.st9{fill-rule:evenodd;clip-rule:evenodd;fill:#FEE8A0;stroke:#000000;stroke-miterlimit:10;}
	.st10{fill-rule:evenodd;clip-rule:evenodd;fill:#F1F3F4;}
	.st11{fill-rule:evenodd;clip-rule:evenodd;fill:#69973F;}
</style>
<g>
	<rect class="st1" width="600" height="750"/>
	<g>
		<path class="st8" d="M417.075,592.314c0,3.295-2.671,5.966-5.966,5.966c-3.295,0-5.966-2.671-5.966-5.966
			c0-3.295,2.671-5.966,5.966-5.966C414.404,586.348,417.075,589.019,417.075,592.314z"/>
		<circle class="st8" cx="449.19" cy="663.388" r="5.966"/>
		
			<ellipse transform="matrix(0.1602 -0.9871 0.9871 0.1602 10.952 791.1479)" class="st8" cx="470.417" cy="389.138" rx="5.966" ry="5.966"/>
		
			<ellipse transform="matrix(0.9239 -0.3827 0.3827 0.9239 -10.461 122.6171)" class="st8" cx="302.988" cy="87.604" rx="5.966" ry="5.966"/>
		<path class="st8" d="M392.249,535.919c0,3.295-2.671,5.966-5.966,5.966c-3.295,0-5.966-2.671-5.966-5.966s2.671-5.966,5.966-5.966
			C389.578,529.953,392.249,532.624,392.249,535.919z"/>
		<path class="st8" d="M558.752,542.001c0,3.295-2.671,5.966-5.966,5.966c-3.295,0-5.966-2.671-5.966-5.966
			c0-3.295,2.671-5.966,5.966-5.966C556.081,536.035,558.752,538.706,558.752,542.001z"/>
		
			<ellipse transform="matrix(0.2298 -0.9732 0.9732 0.2298 -114.2877 762.7231)" class="st8" cx="424.728" cy="453.566" rx="5.966" ry="5.966"/>
		
			<ellipse transform="matrix(0.2298 -0.9732 0.9732 0.2298 -122.1563 751.6342)" class="st8" cx="413.787" cy="452.993" rx="5.966" ry="5.966"/>
		<circle class="st8" cx="294.955" cy="375.386" r="5.966"/>
		<circle class="st8" cx="265.311" cy="243.734" r="5.966"/>
		<circle class="st8" cx="454.198" cy="390.049" r="5.966"/>
		<circle class="st8" cx="436.539" cy="388.493" r="5.966"/>
		<path class="st8" d="M348.116,401.502c0,3.295-2.671,5.966-5.966,5.966c-3.295,0-5.966-2.671-5.966-5.966
			c0-3.295,2.671-5.966,5.966-5.966C345.445,395.536,348.116,398.207,348.116,401.502z"/>
		
			<ellipse transform="matrix(0.1602 -0.9871 0.9871 0.1602 114.9904 638.9552)" class="st8" cx="432.996" cy="251.9" rx="5.966" ry="5.966"/>
		<circle class="st8" cx="495.715" cy="434.044" r="5.966"/>
		<circle class="st8" cx="343.747" cy="40.655" r="5.966"/>
		<path class="st8" d="M412.088,132.92c0,3.295-2.671,5.966-5.966,5.966c-3.295,0-5.966-2.671-5.966-5.966
			c0-3.295,2.671-5.966,5.966-5.966C409.417,126.954,412.088,129.625,412.088,132.92z"/>
		
			<ellipse transform="matrix(0.9732 -0.2298 0.2298 0.9732 -112.9792 122.5249)" class="st8" cx="469.665" cy="546.425" rx="5.966" ry="5.966"/>
		<circle class="st8" cx="444.91" cy="405.506" r="5.966"/>
		<path class="st8" d="M240.589,177.288c0,3.295-2.671,5.966-5.966,5.966c-3.295,0-5.966-2.671-5.966-5.966
			c0-3.295,2.671-5.966,5.966-5.966C237.917,171.322,240.589,173.993,240.589,177.288z"/>
		
			<ellipse transform="matrix(0.1602 -0.9871 0.9871 0.1602 -68.0719 818.0098)" class="st8" cx="446.692" cy="449.009" rx="5.966" ry="5.966"/>
		
			<ellipse transform="matrix(0.9239 -0.3827 0.3827 0.9239 -177.3133 166.9774)" class="st8" cx="331.07" cy="529.196" rx="5.966" ry="5.966"/>
		<circle class="st8" cx="365.276" cy="242.802" r="5.966"/>
		<path class="st8" d="M493.934,594.695c0,3.295-2.671,5.966-5.966,5.966c-3.295,0-5.966-2.671-5.966-5.966
			c0-3.295,2.671-5.966,5.966-5.966C491.263,588.729,493.934,591.4,493.934,594.695z"/>
		<circle class="st8" cx="365.276" cy="242.802" r="5.966"/>
		<circle class="st8" cx="365.414" cy="297.185" r="5.966"/>
		
			<ellipse transform="matrix(0.7071 -0.7071 0.7071 0.7071 -68.5343 286.2029)" class="st8" cx="311.21" cy="225.83" rx="5.966" ry="5.966"/>
		<circle class="st8" cx="402.625" cy="617.412" r="5.966"/>
		
			<ellipse transform="matrix(0.1222 -0.9925 0.9925 0.1222 -55.055 485.9922)" class="st8" cx="247.217" cy="274.12" rx="5.966" ry="5.966"/>
		<circle class="st8" cx="329.959" cy="350.698" r="5.966"/>
		<circle class="st8" cx="539.346" cy="548.212" r="5.966"/>
		
			<ellipse transform="matrix(0.1602 -0.9871 0.9871 0.1602 -124.0917 760.266)" class="st8" cx="384.747" cy="453.059" rx="5.966" ry="5.966"/>
		<circle class="st8" cx="561.361" cy="564.887" r="5.966"/>
		
			<ellipse transform="matrix(0.1602 -0.9871 0.9871 0.1602 -132.9523 686.7135)" class="st8" cx="337.091" cy="421.49" rx="5.966" ry="5.966"/>
		<path class="st8" d="M318.185,436.358c0,3.295-2.671,5.966-5.966,5.966c-3.295,0-5.966-2.671-5.966-5.966
			c0-3.295,2.671-5.966,5.966-5.966C315.514,430.392,318.185,433.063,318.185,436.358z"/>
		
			<ellipse transform="matrix(0.0825 -0.9966 0.9966 0.0825 -77.8423 1031.5122)" class="st8" cx="521.283" cy="558.031" rx="5.966" ry="5.966"/>
		<circle class="st8" cx="415.85" cy="501.503" r="5.966"/>
		
			<ellipse transform="matrix(0.9925 -0.1222 0.1222 0.9925 -33.4731 32.7723)" class="st8" cx="250.484" cy="289.321" rx="5.966" ry="5.966"/>
		<circle class="st8" cx="255.424" cy="211.305" r="5.966"/>
		
			<ellipse transform="matrix(0.9925 -0.1222 0.1222 0.9925 -46.2886 59.9867)" class="st8" cx="465.968" cy="407.416" rx="5.966" ry="5.966"/>
		<path class="st8" d="M311.304,266.492c0,3.295-2.671,5.966-5.966,5.966s-5.966-2.671-5.966-5.966c0-3.295,2.671-5.966,5.966-5.966
			S311.304,263.197,311.304,266.492z"/>
		<path class="st8" d="M577.895,648.766c0,3.295-2.671,5.966-5.966,5.966s-5.966-2.671-5.966-5.966c0-3.295,2.671-5.966,5.966-5.966
			S577.895,645.471,577.895,648.766z"/>
		<path class="st8" d="M488.763,529.652c0,3.295-2.671,5.966-5.966,5.966c-3.295,0-5.966-2.671-5.966-5.966
			c0-3.295,2.671-5.966,5.966-5.966C486.092,523.686,488.763,526.357,488.763,529.652z"/>
		<circle class="st8" cx="453.547" cy="655.186" r="5.966"/>
		<circle class="st8" cx="450.46" cy="581.337" r="5.966"/>
		<circle class="st8" cx="255.424" cy="211.305" r="5.966"/>
		<path class="st8" d="M356.302,407.38c0,3.295-2.671,5.966-5.966,5.966c-3.295,0-5.966-2.671-5.966-5.966
			c0-3.295,2.671-5.966,5.966-5.966C353.631,401.414,356.302,404.085,356.302,407.38z"/>
		<path class="st8" d="M253.265,276.358c0,3.295-2.671,5.966-5.966,5.966c-3.295,0-5.966-2.671-5.966-5.966s2.671-5.966,5.966-5.966
			C250.594,270.391,253.265,273.063,253.265,276.358z"/>
		<path class="st8" d="M253.265,276.358c0,3.295-2.671,5.966-5.966,5.966c-3.295,0-5.966-2.671-5.966-5.966s2.671-5.966,5.966-5.966
			C250.594,270.391,253.265,273.063,253.265,276.358z"/>
		
			<ellipse transform="matrix(0.9925 -0.1222 0.1222 0.9925 -46.2886 59.9867)" class="st8" cx="465.968" cy="407.416" rx="5.966" ry="5.966"/>
		<path class="st8" d="M266.254,121.369c0,3.295-2.671,5.966-5.966,5.966c-3.295,0-5.966-2.671-5.966-5.966
			c0-3.295,2.671-5.966,5.966-5.966C263.583,115.403,266.254,118.074,266.254,121.369z"/>
		<path class="st8" d="M436.945,497.54c0,3.295-2.671,5.966-5.966,5.966c-3.295,0-5.966-2.671-5.966-5.966
			c0-3.295,2.671-5.966,5.966-5.966C434.274,491.574,436.945,494.245,436.945,497.54z"/>
		
			<ellipse transform="matrix(0.7071 -0.7071 0.7071 0.7071 56.634 294.6908)" class="st8" cx="384.04" cy="78.982" rx="5.966" ry="5.966"/>
		
			<ellipse transform="matrix(0.0825 -0.9966 0.9966 0.0825 -171.7091 865.7315)" class="st8" cx="384.317" cy="526.119" rx="5.966" ry="5.966"/>
		<circle class="st8" cx="294.955" cy="375.386" r="5.966"/>
		<circle class="st8" cx="225.954" cy="223.976" r="5.966"/>
		<path class="st8" d="M549.254,525.003c0,3.295-2.671,5.966-5.966,5.966c-3.295,0-5.966-2.671-5.966-5.966
			c0-3.295,2.671-5.966,5.966-5.966C546.583,519.037,549.254,521.708,549.254,525.003z"/>
		<circle class="st8" cx="387.061" cy="256.943" r="5.966"/>
		<circle class="st8" cx="316.709" cy="249.176" r="5.966"/>
		<circle class="st8" cx="316.433" cy="373.302" r="5.966"/>
		
			<ellipse transform="matrix(0.7071 -0.7071 0.7071 0.7071 -178.4057 423.7393)" class="st8" cx="422.296" cy="427.224" rx="5.966" ry="5.966"/>
		<circle class="st8" cx="319.095" cy="544.914" r="5.966"/>
		<circle class="st8" cx="295.395" cy="177.974" r="5.966"/>
		<path class="st8" d="M416.154,542.083c0,3.295-2.671,5.966-5.966,5.966c-3.295,0-5.966-2.671-5.966-5.966
			c0-3.295,2.671-5.966,5.966-5.966C413.482,536.117,416.154,538.788,416.154,542.083z"/>
		<circle class="st8" cx="454.602" cy="396.833" r="5.966"/>
		<path class="st8" d="M426.721,555.313c0,3.295-2.671,5.966-5.966,5.966c-3.295,0-5.966-2.671-5.966-5.966
			c0-3.295,2.671-5.966,5.966-5.966C424.05,549.347,426.721,552.018,426.721,555.313z"/>
		<path class="st8" d="M418.084,442.185c0,3.295-2.671,5.966-5.966,5.966c-3.295,0-5.966-2.671-5.966-5.966
			c0-3.295,2.671-5.966,5.966-5.966C415.413,436.218,418.084,438.889,418.084,442.185z"/>
		<circle class="st8" cx="403.209" cy="590.379" r="5.966"/>
		
			<ellipse transform="matrix(0.9239 -0.3827 0.3827 0.9239 -198.1493 230.9469)" class="st8" cx="481.451" cy="613.556" rx="5.966" ry="5.966"/>
		<circle class="st8" cx="295.395" cy="177.974" r="5.966"/>
		
			<ellipse transform="matrix(0.2298 -0.9732 0.9732 0.2298 -75.1232 853.5371)" class="st8" cx="501.684" cy="474.23" rx="5.966" ry="5.966"/>
		<circle class="st8" cx="249.255" cy="296.279" r="5.966"/>
		<circle class="st8" cx="561.361" cy="564.887" r="5.966"/>
		<path class="st8" d="M311.304,266.492c0,3.295-2.671,5.966-5.966,5.966s-5.966-2.671-5.966-5.966c0-3.295,2.671-5.966,5.966-5.966
			S311.304,263.197,311.304,266.492z"/>
		
			<ellipse transform="matrix(0.9239 -0.3827 0.3827 0.9239 -49.3073 115.3955)" class="st8" cx="265.413" cy="181.64" rx="5.966" ry="5.966"/>
		<path class="st8" d="M463.446,366.923c0,3.295-2.671,5.966-5.966,5.966c-3.295,0-5.966-2.671-5.966-5.966
			c0-3.295,2.671-5.966,5.966-5.966C460.774,360.956,463.446,363.628,463.446,366.923z"/>
		
			<ellipse transform="matrix(0.9925 -0.1222 0.1222 0.9925 -49.4029 61.2583)" class="st8" cx="474.779" cy="433.445" rx="5.966" ry="5.966"/>
		<path class="st8" d="M240.589,177.288c0,3.295-2.671,5.966-5.966,5.966c-3.295,0-5.966-2.671-5.966-5.966
			c0-3.295,2.671-5.966,5.966-5.966C237.917,171.322,240.589,173.993,240.589,177.288z"/>
		<circle class="st8" cx="377.497" cy="334.232" r="5.966"/>
		<circle class="st8" cx="336.118" cy="445.758" r="5.966"/>
		<circle class="st8" cx="347.582" cy="489.661" r="5.966"/>
		<path class="st8" d="M390.462,61.093c0,3.295-2.671,5.966-5.966,5.966c-3.295,0-5.966-2.671-5.966-5.966
			c0-3.295,2.671-5.966,5.966-5.966C387.791,55.127,390.462,57.798,390.462,61.093z"/>
		<circle class="st8" cx="352.865" cy="495.923" r="5.966"/>
		<circle class="st8" cx="337.178" cy="92.575" r="5.966"/>
		<path class="st8" d="M495.03,573.898c0,3.295-2.671,5.966-5.966,5.966c-3.295,0-5.966-2.671-5.966-5.966
			c0-3.295,2.671-5.966,5.966-5.966C492.359,567.932,495.03,570.603,495.03,573.898z"/>
		
			<ellipse transform="matrix(0.1222 -0.9925 0.9925 0.1222 -256.559 783.1404)" class="st8" cx="314.451" cy="536.61" rx="5.966" ry="5.966"/>
		<circle class="st8" cx="276.477" cy="260.23" r="5.966"/>
		<path class="st8" d="M461.111,592.314c0,3.295-2.671,5.966-5.966,5.966c-3.295,0-5.966-2.671-5.966-5.966
			c0-3.295,2.671-5.966,5.966-5.966C458.44,586.348,461.111,589.019,461.111,592.314z"/>
		
			<ellipse transform="matrix(0.2298 -0.9732 0.9732 0.2298 -237.2211 717.7024)" class="st8" cx="334.818" cy="508.722" rx="5.966" ry="5.966"/>
		<circle class="st8" cx="454.602" cy="396.833" r="5.966"/>
		
			<ellipse transform="matrix(0.0825 -0.9966 0.9966 0.0825 -53.5121 914.1328)" class="st8" cx="469.701" cy="486.128" rx="5.966" ry="5.966"/>
		<path class="st8" d="M461.111,592.314c0,3.295-2.671,5.966-5.966,5.966c-3.295,0-5.966-2.671-5.966-5.966
			c0-3.295,2.671-5.966,5.966-5.966C458.44,586.348,461.111,589.019,461.111,592.314z"/>
		<circle class="st8" cx="337.178" cy="92.575" r="5.966"/>
		
			<ellipse transform="matrix(0.7071 -0.7071 0.7071 0.7071 -178.4057 423.7393)" class="st8" cx="422.296" cy="427.224" rx="5.966" ry="5.966"/>
		<circle class="st8" cx="416.377" cy="220.177" r="5.966"/>
		<circle class="st8" cx="406.076" cy="576.089" r="5.966"/>
		<path class="st8" d="M482.538,613.705c0,3.295-2.671,5.966-5.966,5.966c-3.295,0-5.966-2.671-5.966-5.966
			c0-3.295,2.671-5.966,5.966-5.966C479.866,607.739,482.538,610.41,482.538,613.705z"/>
		
			<ellipse transform="matrix(0.2298 -0.9732 0.9732 0.2298 -254.5825 915.7654)" class="st8" cx="451.269" cy="618.722" rx="5.966" ry="5.966"/>
		<path class="st8" d="M524.654,536.057c0,3.295-2.671,5.966-5.966,5.966c-3.295,0-5.966-2.671-5.966-5.966
			c0-3.295,2.671-5.966,5.966-5.966C521.982,530.091,524.654,532.762,524.654,536.057z"/>
		<circle class="st8" cx="243.633" cy="315.366" r="5.966"/>
		
			<ellipse transform="matrix(0.7071 -0.7071 0.7071 0.7071 -237.9706 441.8165)" class="st8" cx="414.334" cy="508.164" rx="5.966" ry="5.966"/>
		<circle class="st8" cx="359.644" cy="250.861" r="5.966"/>
		<circle class="st8" cx="271.613" cy="284.386" r="5.966"/>
		
			<ellipse transform="matrix(0.9732 -0.2298 0.2298 0.9732 -67.1438 98.1003)" class="st8" cx="387.701" cy="337.386" rx="5.966" ry="5.966"/>
		<circle class="st8" cx="310.575" cy="131.711" r="5.966"/>
		<path class="st8" d="M439.823,476.196c0,3.295-2.671,5.966-5.966,5.966c-3.295,0-5.966-2.671-5.966-5.966
			c0-3.295,2.671-5.966,5.966-5.966C437.151,470.23,439.823,472.901,439.823,476.196z"/>
		<circle class="st8" cx="409.046" cy="616.854" r="5.966"/>
		<path class="st8" d="M364.607,458.374c0,3.295-2.671,5.966-5.966,5.966s-5.966-2.671-5.966-5.966c0-3.295,2.671-5.966,5.966-5.966
			S364.607,455.078,364.607,458.374z"/>
		
			<ellipse transform="matrix(0.1602 -0.9871 0.9871 0.1602 -8.5288 675.9094)" class="st8" cx="392.954" cy="342.967" rx="5.966" ry="5.966"/>
		<path class="st8" d="M463.446,366.923c0,3.295-2.671,5.966-5.966,5.966c-3.295,0-5.966-2.671-5.966-5.966
			c0-3.295,2.671-5.966,5.966-5.966C460.774,360.956,463.446,363.628,463.446,366.923z"/>
		<path class="st8" d="M416.154,542.083c0,3.295-2.671,5.966-5.966,5.966c-3.295,0-5.966-2.671-5.966-5.966
			c0-3.295,2.671-5.966,5.966-5.966C413.482,536.117,416.154,538.788,416.154,542.083z"/>
		<path class="st8" d="M314.053,295.178c0,3.295-2.671,5.966-5.966,5.966c-3.295,0-5.966-2.671-5.966-5.966
			c0-3.295,2.671-5.966,5.966-5.966C311.382,289.212,314.053,291.883,314.053,295.178z"/>
		<path class="st8" d="M254.044,244.056c0,3.295-2.671,5.966-5.966,5.966c-3.295,0-5.966-2.671-5.966-5.966
			c0-3.295,2.671-5.966,5.966-5.966C251.372,238.09,254.044,240.761,254.044,244.056z"/>
		
			<ellipse transform="matrix(0.0825 -0.9966 0.9966 0.0825 -77.8423 1031.5122)" class="st8" cx="521.283" cy="558.031" rx="5.966" ry="5.966"/>
		
			<ellipse transform="matrix(0.1222 -0.9925 0.9925 0.1222 -256.559 783.1404)" class="st8" cx="314.451" cy="536.61" rx="5.966" ry="5.966"/>
		<circle class="st8" cx="329.959" cy="350.698" r="5.966"/>
		<path class="st8" d="M336.443,550.132c0,3.295-2.671,5.966-5.966,5.966s-5.966-2.671-5.966-5.966c0-3.295,2.671-5.966,5.966-5.966
			S336.443,546.836,336.443,550.132z"/>
		<path class="st8" d="M329.239,324.95c0,3.295-2.671,5.966-5.966,5.966c-3.295,0-5.966-2.671-5.966-5.966
			c0-3.295,2.671-5.966,5.966-5.966C326.568,318.984,329.239,321.655,329.239,324.95z"/>
		<circle class="st8" cx="382.018" cy="171.011" r="5.966"/>
		<path class="st8" d="M375.22,115.215c0,3.295-2.671,5.966-5.966,5.966c-3.295,0-5.966-2.671-5.966-5.966s2.671-5.966,5.966-5.966
			C372.549,109.249,375.22,111.92,375.22,115.215z"/>
		<path class="st8" d="M311.304,266.492c0,3.295-2.671,5.966-5.966,5.966s-5.966-2.671-5.966-5.966c0-3.295,2.671-5.966,5.966-5.966
			S311.304,263.197,311.304,266.492z"/>
		<circle class="st8" cx="444.91" cy="405.506" r="5.966"/>
		
			<ellipse transform="matrix(0.9239 -0.3827 0.3827 0.9239 -49.3073 115.3955)" class="st8" cx="265.413" cy="181.64" rx="5.966" ry="5.966"/>
		<path class="st8" d="M436.945,497.54c0,3.295-2.671,5.966-5.966,5.966c-3.295,0-5.966-2.671-5.966-5.966
			c0-3.295,2.671-5.966,5.966-5.966C434.274,491.574,436.945,494.245,436.945,497.54z"/>
		
			<ellipse transform="matrix(0.0825 -0.9966 0.9966 0.0825 -23.0721 569.1256)" class="st8" cx="297.551" cy="297.093" rx="5.966" ry="5.966"/>
		<circle class="st8" cx="319.489" cy="301.266" r="5.966"/>
		<path class="st8" d="M296.641,169.071c0,3.295-2.671,5.966-5.966,5.966c-3.295,0-5.966-2.671-5.966-5.966
			c0-3.295,2.671-5.966,5.966-5.966C293.97,163.105,296.641,165.776,296.641,169.071z"/>
		<path class="st8" d="M478.134,574.707c0,3.295-2.671,5.966-5.966,5.966c-3.295,0-5.966-2.671-5.966-5.966
			c0-3.295,2.671-5.966,5.966-5.966C475.463,568.741,478.134,571.412,478.134,574.707z"/>
		<path class="st8" d="M398.05,643.159c0,3.295-2.671,5.966-5.966,5.966c-3.295,0-5.966-2.671-5.966-5.966
			c0-3.295,2.671-5.966,5.966-5.966C395.379,637.193,398.05,639.864,398.05,643.159z"/>
		
			<ellipse transform="matrix(0.0825 -0.9966 0.9966 0.0825 -77.8423 1031.5122)" class="st8" cx="521.283" cy="558.031" rx="5.966" ry="5.966"/>
		
			<ellipse transform="matrix(0.9925 -0.1222 0.1222 0.9925 -49.4029 61.2583)" class="st8" cx="474.779" cy="433.445" rx="5.966" ry="5.966"/>
		
			<ellipse transform="matrix(0.0825 -0.9966 0.9966 0.0825 86.2948 255.8226)" class="st8" cx="182.082" cy="81.045" rx="5.966" ry="5.966"/>
		<path class="st8" d="M219.111,101.791c0,3.295-2.671,5.966-5.966,5.966c-3.295,0-5.966-2.671-5.966-5.966
			c0-3.295,2.671-5.966,5.966-5.966C216.44,95.825,219.111,98.496,219.111,101.791z"/>
		<path class="st8" d="M556.816,545.206c0,3.295-2.671,5.966-5.966,5.966c-3.295,0-5.966-2.671-5.966-5.966
			c0-3.295,2.671-5.966,5.966-5.966C554.145,539.24,556.816,541.911,556.816,545.206z"/>
		
			<ellipse transform="matrix(0.1222 -0.9925 0.9925 0.1222 -25.0489 845.9101)" class="st8" cx="465.692" cy="437.116" rx="5.966" ry="5.966"/>
		<circle class="st8" cx="344.576" cy="114.033" r="5.966"/>
		
			<ellipse transform="matrix(0.1602 -0.9871 0.9871 0.1602 -170.3361 883.3151)" class="st8" cx="433.938" cy="541.761" rx="5.966" ry="5.966"/>
		<circle class="st8" cx="347.582" cy="489.661" r="5.966"/>
		<circle class="st8" cx="495.715" cy="434.044" r="5.966"/>
		<circle class="st8" cx="346.921" cy="487.961" r="5.966"/>
		
			<ellipse transform="matrix(0.0825 -0.9966 0.9966 0.0825 232.2313 417.2546)" class="st8" cx="342.723" cy="82.505" rx="5.966" ry="5.966"/>
		<path class="st8" d="M429.511,251.019c0,3.295-2.671,5.966-5.966,5.966c-3.295,0-5.966-2.671-5.966-5.966
			c0-3.295,2.671-5.966,5.966-5.966C426.84,245.053,429.511,247.724,429.511,251.019z"/>
		
			<ellipse transform="matrix(0.1602 -0.9871 0.9871 0.1602 -36.5818 846.8097)" class="st8" cx="479.362" cy="444.903" rx="5.966" ry="5.966"/>
		
			<ellipse transform="matrix(0.2298 -0.9732 0.9732 0.2298 -99.9943 588.2568)" class="st8" cx="321.65" cy="357.302" rx="5.966" ry="5.966"/>
		<circle class="st8" cx="453.547" cy="655.186" r="5.966"/>
		<path class="st8" d="M512.96,498.769c0,3.295-2.671,5.966-5.966,5.966c-3.295,0-5.966-2.671-5.966-5.966
			c0-3.295,2.671-5.966,5.966-5.966C510.289,492.803,512.96,495.474,512.96,498.769z"/>
		
			<ellipse transform="matrix(0.2298 -0.9732 0.9732 0.2298 -75.1232 853.5371)" class="st8" cx="501.684" cy="474.23" rx="5.966" ry="5.966"/>
		
			<ellipse transform="matrix(0.1602 -0.9871 0.9871 0.1602 -138.4919 727.4587)" class="st8" cx="358.267" cy="445.118" rx="5.966" ry="5.966"/>
		
			<ellipse transform="matrix(0.2298 -0.9732 0.9732 0.2298 -75.1232 853.5371)" class="st8" cx="501.684" cy="474.23" rx="5.966" ry="5.966"/>
		<circle class="st8" cx="459.758" cy="575.342" r="5.966"/>
		<path class="st8" d="M411.674,588.459c0,3.295-2.671,5.966-5.966,5.966c-3.295,0-5.966-2.671-5.966-5.966
			c0-3.295,2.671-5.966,5.966-5.966C409.002,582.493,411.674,585.164,411.674,588.459z"/>
		<path class="st8" d="M442.429,684.287c0,3.295-2.671,5.966-5.966,5.966c-3.295,0-5.966-2.671-5.966-5.966
			c0-3.295,2.671-5.966,5.966-5.966C439.757,678.321,442.429,680.992,442.429,684.287z"/>
		<path class="st8" d="M363.388,501.283c0,3.295-2.671,5.966-5.966,5.966c-3.295,0-5.966-2.671-5.966-5.966
			c0-3.295,2.671-5.966,5.966-5.966C360.717,495.317,363.388,497.988,363.388,501.283z"/>
		<path class="st8" d="M548.481,564.268c0,3.295-2.671,5.966-5.966,5.966c-3.295,0-5.966-2.671-5.966-5.966
			c0-3.295,2.671-5.966,5.966-5.966C545.81,558.301,548.481,560.972,548.481,564.268z"/>
		<circle class="st8" cx="295.395" cy="177.974" r="5.966"/>
		<path class="st8" d="M340.728,282.809c0,3.295-2.671,5.966-5.966,5.966c-3.295,0-5.966-2.671-5.966-5.966
			c0-3.295,2.671-5.966,5.966-5.966C338.057,276.842,340.728,279.514,340.728,282.809z"/>
		
			<ellipse transform="matrix(0.1602 -0.9871 0.9871 0.1602 -298.7146 1025.8022)" class="st8" cx="453.486" cy="688.45" rx="5.966" ry="5.966"/>
		<circle class="st8" cx="359.644" cy="250.861" r="5.966"/>
		
			<ellipse transform="matrix(0.0825 -0.9966 0.9966 0.0825 -83.4073 962.4525)" class="st8" cx="480.995" cy="526.524" rx="5.966" ry="5.966"/>
		<circle class="st8" cx="416.377" cy="220.177" r="5.966"/>
		<path class="st8" d="M323.325,478.592c0,3.295-2.671,5.966-5.966,5.966c-3.295,0-5.966-2.671-5.966-5.966
			c0-3.295,2.671-5.966,5.966-5.966C320.654,472.626,323.325,475.297,323.325,478.592z"/>
		<circle class="st8" cx="444.91" cy="405.506" r="5.966"/>
		
			<ellipse transform="matrix(0.1602 -0.9871 0.9871 0.1602 71.5659 612.0508)" class="st8" cx="395.473" cy="263.968" rx="5.966" ry="5.966"/>
		<path class="st8" d="M461.111,592.314c0,3.295-2.671,5.966-5.966,5.966c-3.295,0-5.966-2.671-5.966-5.966
			c0-3.295,2.671-5.966,5.966-5.966C458.44,586.348,461.111,589.019,461.111,592.314z"/>
		
			<ellipse transform="matrix(0.7071 -0.7071 0.7071 0.7071 -337.7731 473.2481)" class="st8" cx="402.374" cy="644.352" rx="5.966" ry="5.966"/>
		<path class="st8" d="M337.42,490.086c0,3.295-2.671,5.966-5.966,5.966c-3.295,0-5.966-2.671-5.966-5.966
			c0-3.295,2.671-5.966,5.966-5.966C334.749,484.12,337.42,486.791,337.42,490.086z"/>
		<path class="st8" d="M240.174,216.547c0,3.295-2.671,5.966-5.966,5.966c-3.295,0-5.966-2.671-5.966-5.966
			c0-3.295,2.671-5.966,5.966-5.966C237.503,210.581,240.174,213.252,240.174,216.547z"/>
		
			<ellipse transform="matrix(0.1602 -0.9871 0.9871 0.1602 114.9904 638.9552)" class="st8" cx="432.996" cy="251.9" rx="5.966" ry="5.966"/>
		<path class="st8" d="M359.763,348.501c0,3.295-2.671,5.966-5.966,5.966s-5.966-2.671-5.966-5.966c0-3.295,2.671-5.966,5.966-5.966
			S359.763,345.206,359.763,348.501z"/>
		
			<ellipse transform="matrix(0.2298 -0.9732 0.9732 0.2298 -254.5825 915.7654)" class="st8" cx="451.269" cy="618.722" rx="5.966" ry="5.966"/>
		
			<ellipse transform="matrix(0.7071 -0.7071 0.7071 0.7071 56.634 294.6908)" class="st8" cx="384.04" cy="78.982" rx="5.966" ry="5.966"/>
		<circle class="st8" cx="400.03" cy="542.708" r="5.966"/>
		<circle class="st8" cx="433.918" cy="252.335" r="5.966"/>
		<path class="st8" d="M219.111,101.791c0,3.295-2.671,5.966-5.966,5.966c-3.295,0-5.966-2.671-5.966-5.966
			c0-3.295,2.671-5.966,5.966-5.966C216.44,95.825,219.111,98.496,219.111,101.791z"/>
		<circle class="st8" cx="495.715" cy="434.044" r="5.966"/>
		<path class="st8" d="M363.445,294.605c0,3.295-2.671,5.966-5.966,5.966s-5.966-2.671-5.966-5.966c0-3.295,2.671-5.966,5.966-5.966
			S363.445,291.31,363.445,294.605z"/>
		<path class="st8" d="M323.909,222.737c0,3.295-2.671,5.966-5.966,5.966c-3.295,0-5.966-2.671-5.966-5.966
			c0-3.295,2.671-5.966,5.966-5.966C321.238,216.771,323.909,219.442,323.909,222.737z"/>
		<path class="st8" d="M358.734,168.283c0,3.295-2.671,5.966-5.966,5.966c-3.295,0-5.966-2.671-5.966-5.966
			c0-3.295,2.671-5.966,5.966-5.966C356.063,162.316,358.734,164.988,358.734,168.283z"/>
		<path class="st8" d="M329.239,324.95c0,3.295-2.671,5.966-5.966,5.966c-3.295,0-5.966-2.671-5.966-5.966
			c0-3.295,2.671-5.966,5.966-5.966C326.568,318.984,329.239,321.655,329.239,324.95z"/>
		<circle class="st8" cx="276.477" cy="260.23" r="5.966"/>
		
			<ellipse transform="matrix(0.2298 -0.9732 0.9732 0.2298 -99.9943 588.2568)" class="st8" cx="321.65" cy="357.302" rx="5.966" ry="5.966"/>
		<circle class="st8" cx="433.647" cy="496.399" r="5.966"/>
		<circle class="st8" cx="454.602" cy="396.833" r="5.966"/>
		<circle class="st8" cx="365.414" cy="297.185" r="5.966"/>
		<circle class="st8" cx="392.227" cy="255.591" r="5.966"/>
		<circle class="st8" cx="409.046" cy="616.854" r="5.966"/>
		<circle class="st8" cx="495.648" cy="431.346" r="5.966"/>
		<path class="st8" d="M219.111,101.791c0,3.295-2.671,5.966-5.966,5.966c-3.295,0-5.966-2.671-5.966-5.966
			c0-3.295,2.671-5.966,5.966-5.966C216.44,95.825,219.111,98.496,219.111,101.791z"/>
		<path class="st8" d="M311.304,266.492c0,3.295-2.671,5.966-5.966,5.966s-5.966-2.671-5.966-5.966c0-3.295,2.671-5.966,5.966-5.966
			S311.304,263.197,311.304,266.492z"/>
		<path class="st8" d="M416.154,542.083c0,3.295-2.671,5.966-5.966,5.966c-3.295,0-5.966-2.671-5.966-5.966
			c0-3.295,2.671-5.966,5.966-5.966C413.482,536.117,416.154,538.788,416.154,542.083z"/>
		
			<ellipse transform="matrix(0.1602 -0.9871 0.9871 0.1602 21.1841 624.1537)" class="st8" cx="377.395" cy="299.627" rx="5.966" ry="5.966"/>
		
			<ellipse transform="matrix(0.9239 -0.3827 0.3827 0.9239 -171.0732 233.3376)" class="st8" cx="500.998" cy="546.691" rx="5.966" ry="5.966"/>
		
			<ellipse transform="matrix(0.1602 -0.9871 0.9871 0.1602 -44.4289 551.8679)" class="st8" cx="302.107" cy="302.044" rx="5.966" ry="5.966"/>
		<path class="st8" d="M356.302,407.38c0,3.295-2.671,5.966-5.966,5.966c-3.295,0-5.966-2.671-5.966-5.966
			c0-3.295,2.671-5.966,5.966-5.966C353.631,401.414,356.302,404.085,356.302,407.38z"/>
		<path class="st8" d="M296.641,169.071c0,3.295-2.671,5.966-5.966,5.966c-3.295,0-5.966-2.671-5.966-5.966
			c0-3.295,2.671-5.966,5.966-5.966C293.97,163.105,296.641,165.776,296.641,169.071z"/>
		<circle class="st8" cx="359.644" cy="250.861" r="5.966"/>
		<path class="st8" d="M391.737,271.12c0,3.295-2.671,5.966-5.966,5.966c-3.295,0-5.966-2.671-5.966-5.966
			c0-3.295,2.671-5.966,5.966-5.966C389.066,265.154,391.737,267.825,391.737,271.12z"/>
		
			<ellipse transform="matrix(0.9239 -0.3827 0.3827 0.9239 -142.8965 170.9449)" class="st8" cx="358.252" cy="444.668" rx="5.966" ry="5.966"/>
		<path class="st8" d="M337.538,274.161c0,3.295-2.671,5.966-5.966,5.966s-5.966-2.671-5.966-5.966c0-3.295,2.671-5.966,5.966-5.966
			S337.538,270.866,337.538,274.161z"/>
		<path class="st8" d="M337.538,274.161c0,3.295-2.671,5.966-5.966,5.966s-5.966-2.671-5.966-5.966c0-3.295,2.671-5.966,5.966-5.966
			S337.538,270.866,337.538,274.161z"/>
		<path class="st8" d="M416.154,542.083c0,3.295-2.671,5.966-5.966,5.966c-3.295,0-5.966-2.671-5.966-5.966
			c0-3.295,2.671-5.966,5.966-5.966C413.482,536.117,416.154,538.788,416.154,542.083z"/>
		<path class="st8" d="M380.555,182.454c0,3.295-2.671,5.966-5.966,5.966c-3.295,0-5.966-2.671-5.966-5.966s2.671-5.966,5.966-5.966
			C377.884,176.488,380.555,179.159,380.555,182.454z"/>
		<path class="st8" d="M440.058,540.936c0,3.295-2.671,5.966-5.966,5.966c-3.295,0-5.966-2.671-5.966-5.966
			c0-3.295,2.671-5.966,5.966-5.966C437.387,534.97,440.058,537.641,440.058,540.936z"/>
		<path class="st8" d="M491.723,481.659c0,3.295-2.671,5.966-5.966,5.966c-3.295,0-5.966-2.671-5.966-5.966
			c0-3.295,2.671-5.966,5.966-5.966C489.051,475.692,491.723,478.364,491.723,481.659z"/>
		
			<ellipse transform="matrix(0.1222 -0.9925 0.9925 0.1222 -256.559 783.1404)" class="st8" cx="314.451" cy="536.61" rx="5.966" ry="5.966"/>
		
			<ellipse transform="matrix(0.1602 -0.9871 0.9871 0.1602 -205.5864 886.9175)" class="st8" cx="418.43" cy="564.278" rx="5.966" ry="5.966"/>
		<path class="st8" d="M364.607,458.374c0,3.295-2.671,5.966-5.966,5.966s-5.966-2.671-5.966-5.966c0-3.295,2.671-5.966,5.966-5.966
			S364.607,455.078,364.607,458.374z"/>
		
			<ellipse transform="matrix(0.0825 -0.9966 0.9966 0.0825 -289.8507 981.4)" class="st8" cx="388.064" cy="648.115" rx="5.966" ry="5.966"/>
		<circle class="st8" cx="294.955" cy="375.386" r="5.966"/>
		<circle class="st8" cx="363.151" cy="438.13" r="5.966"/>
		<circle class="st8" cx="308.584" cy="458.44" r="5.966"/>
		<path class="st8" d="M273.084,306.514c0,3.295-2.671,5.966-5.966,5.966c-3.295,0-5.966-2.671-5.966-5.966
			c0-3.295,2.671-5.966,5.966-5.966C270.413,300.547,273.084,303.218,273.084,306.514z"/>
		<path class="st8" d="M227.026,479.309c0,3.295-2.671,5.966-5.966,5.966c-3.295,0-5.966-2.671-5.966-5.966s2.671-5.966,5.966-5.966
			C224.355,473.342,227.026,476.014,227.026,479.309z"/>
		<path class="st8" d="M416.154,542.083c0,3.295-2.671,5.966-5.966,5.966c-3.295,0-5.966-2.671-5.966-5.966
			c0-3.295,2.671-5.966,5.966-5.966C413.482,536.117,416.154,538.788,416.154,542.083z"/>
		<path class="st8" d="M335.25,327.003c0,3.295-2.671,5.966-5.966,5.966c-3.295,0-5.966-2.671-5.966-5.966
			c0-3.295,2.671-5.966,5.966-5.966C332.578,321.037,335.25,323.708,335.25,327.003z"/>
		<path class="st8" d="M375.645,292.731c0,3.295-2.671,5.966-5.966,5.966c-3.295,0-5.966-2.671-5.966-5.966
			c0-3.295,2.671-5.966,5.966-5.966C372.974,286.765,375.645,289.436,375.645,292.731z"/>
		<path class="st8" d="M364.607,458.374c0,3.295-2.671,5.966-5.966,5.966s-5.966-2.671-5.966-5.966c0-3.295,2.671-5.966,5.966-5.966
			S364.607,455.078,364.607,458.374z"/>
		<circle class="st8" cx="306.515" cy="123.284" r="5.966"/>
		<path class="st8" d="M416.154,542.083c0,3.295-2.671,5.966-5.966,5.966c-3.295,0-5.966-2.671-5.966-5.966
			c0-3.295,2.671-5.966,5.966-5.966C413.482,536.117,416.154,538.788,416.154,542.083z"/>
		<path class="st8" d="M436.945,497.54c0,3.295-2.671,5.966-5.966,5.966c-3.295,0-5.966-2.671-5.966-5.966
			c0-3.295,2.671-5.966,5.966-5.966C434.274,491.574,436.945,494.245,436.945,497.54z"/>
		<circle class="st8" cx="495.715" cy="434.044" r="5.966"/>
		
			<ellipse transform="matrix(0.1602 -0.9871 0.9871 0.1602 -146.802 869.0855)" class="st8" cx="437.343" cy="520.815" rx="5.966" ry="5.966"/>
		<path class="st8" d="M398.05,643.159c0,3.295-2.671,5.966-5.966,5.966c-3.295,0-5.966-2.671-5.966-5.966
			c0-3.295,2.671-5.966,5.966-5.966C395.379,637.193,398.05,639.864,398.05,643.159z"/>
		
			<ellipse transform="matrix(0.1602 -0.9871 0.9871 0.1602 -293.8027 1021.2232)" class="st8" cx="453.25" cy="683.273" rx="5.966" ry="5.966"/>
		<circle class="st8" cx="316.704" cy="248.972" r="5.966"/>
		<path class="st8" d="M488.738,714.648c0,3.295-2.671,5.966-5.966,5.966c-3.295,0-5.966-2.671-5.966-5.966
			c0-3.295,2.671-5.966,5.966-5.966C486.067,708.682,488.738,711.353,488.738,714.648z"/>
		<circle class="st8" cx="409.046" cy="616.854" r="5.966"/>
		<circle class="st8" cx="265.311" cy="243.734" r="5.966"/>
		<circle class="st8" cx="416.377" cy="220.177" r="5.966"/>
		<circle class="st8" cx="225.954" cy="223.976" r="5.966"/>
		<circle class="st8" cx="347.582" cy="489.661" r="5.966"/>
		<path class="st8" d="M380.555,182.454c0,3.295-2.671,5.966-5.966,5.966c-3.295,0-5.966-2.671-5.966-5.966s2.671-5.966,5.966-5.966
			C377.884,176.488,380.555,179.159,380.555,182.454z"/>
		
			<ellipse transform="matrix(0.1602 -0.9871 0.9871 0.1602 -47.1468 549.851)" class="st8" cx="299.563" cy="302.633" rx="5.966" ry="5.966"/>
		
			<ellipse transform="matrix(0.0825 -0.9966 0.9966 0.0825 86.2948 255.8226)" class="st8" cx="182.082" cy="81.045" rx="5.966" ry="5.966"/>
		<circle class="st8" cx="482.797" cy="529.621" r="5.966"/>
		<path class="st8" d="M309.947,186.269c0,3.295-2.671,5.966-5.966,5.966s-5.966-2.671-5.966-5.966c0-3.295,2.671-5.966,5.966-5.966
			S309.947,182.974,309.947,186.269z"/>
		<path class="st8" d="M219.111,101.791c0,3.295-2.671,5.966-5.966,5.966c-3.295,0-5.966-2.671-5.966-5.966
			c0-3.295,2.671-5.966,5.966-5.966C216.44,95.825,219.111,98.496,219.111,101.791z"/>
		
			<ellipse transform="matrix(0.9239 -0.3827 0.3827 0.9239 -198.1493 230.9469)" class="st8" cx="481.451" cy="613.556" rx="5.966" ry="5.966"/>
		<circle class="st8" cx="299.317" cy="336.152" r="5.966"/>
		<path class="st8" d="M577.895,648.766c0,3.295-2.671,5.966-5.966,5.966s-5.966-2.671-5.966-5.966c0-3.295,2.671-5.966,5.966-5.966
			S577.895,645.471,577.895,648.766z"/>
		<circle class="st8" cx="451.494" cy="459.469" r="5.966"/>
		<circle class="st8" cx="305.328" cy="266.144" r="5.966"/>
		<path class="st8" d="M303.327,466.734c0,3.295-2.671,5.966-5.966,5.966c-3.295,0-5.966-2.671-5.966-5.966
			c0-3.295,2.671-5.966,5.966-5.966C300.656,460.768,303.327,463.439,303.327,466.734z"/>
		
			<ellipse transform="matrix(0.2298 -0.9732 0.9732 0.2298 -37.3839 571.9548)" class="st8" cx="342.656" cy="309.596" rx="5.966" ry="5.966"/>
		<path class="st8" d="M375.645,292.731c0,3.295-2.671,5.966-5.966,5.966c-3.295,0-5.966-2.671-5.966-5.966
			c0-3.295,2.671-5.966,5.966-5.966C372.974,286.765,375.645,289.436,375.645,292.731z"/>
		<circle class="st8" cx="323.974" cy="233.535" r="5.966"/>
		<circle class="st8" cx="320.61" cy="645.049" r="5.966"/>
		<circle class="st8" cx="360.233" cy="454.677" r="5.966"/>
		<circle class="st8" cx="365.276" cy="242.802" r="5.966"/>
		<circle class="st8" cx="416.7" cy="469.909" r="5.966"/>
		<circle class="st8" cx="400.03" cy="542.708" r="5.966"/>
		
			<ellipse transform="matrix(0.1602 -0.9871 0.9871 0.1602 21.1841 624.1537)" class="st8" cx="377.395" cy="299.627" rx="5.966" ry="5.966"/>
		
			<ellipse transform="matrix(0.9239 -0.3827 0.3827 0.9239 -10.461 122.6171)" class="st8" cx="302.988" cy="87.604" rx="5.966" ry="5.966"/>
		<circle class="st8" cx="573.152" cy="649.303" r="5.966"/>
		
			<ellipse transform="matrix(0.9239 -0.3827 0.3827 0.9239 -198.1493 230.9469)" class="st8" cx="481.451" cy="613.556" rx="5.966" ry="5.966"/>
		<path class="st8" d="M468.816,382.953c0,3.295-2.671,5.966-5.966,5.966c-3.295,0-5.966-2.671-5.966-5.966
			c0-3.295,2.671-5.966,5.966-5.966C466.145,376.987,468.816,379.658,468.816,382.953z"/>
		
			<ellipse transform="matrix(0.1222 -0.9925 0.9925 0.1222 -256.559 783.1404)" class="st8" cx="314.451" cy="536.61" rx="5.966" ry="5.966"/>
		
			<ellipse transform="matrix(0.9239 -0.3827 0.3827 0.9239 -93.2521 173.3071)" class="st8" cx="389.012" cy="321.059" rx="5.966" ry="5.966"/>
		<path class="st8" d="M398.05,643.159c0,3.295-2.671,5.966-5.966,5.966c-3.295,0-5.966-2.671-5.966-5.966
			c0-3.295,2.671-5.966,5.966-5.966C395.379,637.193,398.05,639.864,398.05,643.159z"/>
		<circle class="st8" cx="365.414" cy="297.185" r="5.966"/>
		<circle class="st8" cx="433.647" cy="496.399" r="5.966"/>
		<circle class="st8" cx="307.887" cy="228.763" r="5.966"/>
		<circle class="st8" cx="317.052" cy="223.49" r="5.966"/>
		<circle class="st8" cx="447.654" cy="402.07" r="5.966"/>
		<path class="st8" d="M401.393,436.747c0,3.295-2.671,5.966-5.966,5.966c-3.295,0-5.966-2.671-5.966-5.966
			c0-3.295,2.671-5.966,5.966-5.966C398.722,430.781,401.393,433.452,401.393,436.747z"/>
		
			<ellipse transform="matrix(0.9925 -0.1222 0.1222 0.9925 -54.4154 43.9994)" class="st8" cx="331.557" cy="465.695" rx="5.966" ry="5.966"/>
		<circle class="st8" cx="347.582" cy="489.661" r="5.966"/>
		
			<ellipse transform="matrix(0.2298 -0.9732 0.9732 0.2298 -40.7644 584.4048)" class="st8" cx="348.831" cy="317.956" rx="5.966" ry="5.966"/>
		<path class="st8" d="M380.555,182.454c0,3.295-2.671,5.966-5.966,5.966c-3.295,0-5.966-2.671-5.966-5.966s2.671-5.966,5.966-5.966
			C377.884,176.488,380.555,179.159,380.555,182.454z"/>
		<circle class="st8" cx="306.613" cy="367.757" r="5.966"/>
		
			<ellipse transform="matrix(0.7071 -0.7071 0.7071 0.7071 -144.2408 318.7109)" class="st8" cx="312.598" cy="333.47" rx="5.966" ry="5.966"/>
		<path class="st8" d="M358.734,168.283c0,3.295-2.671,5.966-5.966,5.966c-3.295,0-5.966-2.671-5.966-5.966
			c0-3.295,2.671-5.966,5.966-5.966C356.063,162.316,358.734,164.988,358.734,168.283z"/>
		<path class="st8" d="M398.05,643.159c0,3.295-2.671,5.966-5.966,5.966c-3.295,0-5.966-2.671-5.966-5.966
			c0-3.295,2.671-5.966,5.966-5.966C395.379,637.193,398.05,639.864,398.05,643.159z"/>
		<path class="st8" d="M214.078,197.502c0,3.295-2.671,5.966-5.966,5.966c-3.295,0-5.966-2.671-5.966-5.966
			c0-3.295,2.671-5.966,5.966-5.966C211.407,191.535,214.078,194.207,214.078,197.502z"/>
		<circle class="st8" cx="409.046" cy="616.854" r="5.966"/>
		
			<ellipse transform="matrix(0.9732 -0.2298 0.2298 0.9732 -99.6222 65.4392)" class="st8" cx="231.202" cy="460.524" rx="5.966" ry="5.966"/>
		<path class="st8" d="M364.607,458.374c0,3.295-2.671,5.966-5.966,5.966s-5.966-2.671-5.966-5.966c0-3.295,2.671-5.966,5.966-5.966
			S364.607,455.078,364.607,458.374z"/>
		<circle class="st8" cx="454.602" cy="396.833" r="5.966"/>
		<path class="st8" d="M364.607,458.374c0,3.295-2.671,5.966-5.966,5.966s-5.966-2.671-5.966-5.966c0-3.295,2.671-5.966,5.966-5.966
			S364.607,455.078,364.607,458.374z"/>
		<circle class="st8" cx="306.469" cy="180.913" r="5.966"/>
		<circle class="st8" cx="416.377" cy="220.177" r="5.966"/>
		<circle class="st8" cx="416.377" cy="220.177" r="5.966"/>
		
			<ellipse transform="matrix(0.9732 -0.2298 0.2298 0.9732 -99.6222 65.4392)" class="st8" cx="231.202" cy="460.524" rx="5.966" ry="5.966"/>
		<circle class="st8" cx="416.377" cy="220.177" r="5.966"/>
		<circle class="st8" cx="387.061" cy="256.943" r="5.966"/>
		<path class="st8" d="M302.083,243.247c0,3.295-2.671,5.966-5.966,5.966c-3.295,0-5.966-2.671-5.966-5.966
			c0-3.295,2.671-5.966,5.966-5.966C299.412,237.281,302.083,239.952,302.083,243.247z"/>
		<path class="st8" d="M468.816,382.953c0,3.295-2.671,5.966-5.966,5.966c-3.295,0-5.966-2.671-5.966-5.966
			c0-3.295,2.671-5.966,5.966-5.966C466.145,376.987,468.816,379.658,468.816,382.953z"/>
		<circle class="st8" cx="460.183" cy="445.871" r="5.966"/>
		<circle class="st8" cx="301.109" cy="536.789" r="5.966"/>
		<circle class="st8" cx="301.109" cy="536.789" r="5.966"/>
		<path class="st8" d="M549.254,525.003c0,3.295-2.671,5.966-5.966,5.966c-3.295,0-5.966-2.671-5.966-5.966
			c0-3.295,2.671-5.966,5.966-5.966C546.583,519.037,549.254,521.708,549.254,525.003z"/>
		
			<ellipse transform="matrix(0.9239 -0.3827 0.3827 0.9239 -20.8877 95.7049)" class="st8" cx="230.127" cy="100.357" rx="5.966" ry="5.966"/>
		<path class="st8" d="M482.538,613.705c0,3.295-2.671,5.966-5.966,5.966c-3.295,0-5.966-2.671-5.966-5.966
			c0-3.295,2.671-5.966,5.966-5.966C479.866,607.739,482.538,610.41,482.538,613.705z"/>
		
			<ellipse transform="matrix(0.0825 -0.9966 0.9966 0.0825 212.84 558.0103)" class="st8" cx="409.471" cy="163.414" rx="5.966" ry="5.966"/>
		<path class="st8" d="M416.154,542.083c0,3.295-2.671,5.966-5.966,5.966c-3.295,0-5.966-2.671-5.966-5.966
			c0-3.295,2.671-5.966,5.966-5.966C413.482,536.117,416.154,538.788,416.154,542.083z"/>
		<circle class="st8" cx="383.897" cy="152.826" r="5.966"/>
		
			<ellipse transform="matrix(0.9925 -0.1222 0.1222 0.9925 -82.6672 65.9134)" class="st8" cx="496.104" cy="706.999" rx="5.966" ry="5.966"/>
		<path class="st8" d="M375.22,115.215c0,3.295-2.671,5.966-5.966,5.966c-3.295,0-5.966-2.671-5.966-5.966s2.671-5.966,5.966-5.966
			C372.549,109.249,375.22,111.92,375.22,115.215z"/>
		<path class="st8" d="M391.737,271.12c0,3.295-2.671,5.966-5.966,5.966c-3.295,0-5.966-2.671-5.966-5.966
			c0-3.295,2.671-5.966,5.966-5.966C389.066,265.154,391.737,267.825,391.737,271.12z"/>
		<path class="st8" d="M360.055,478.408c0,3.295-2.671,5.966-5.966,5.966c-3.295,0-5.966-2.671-5.966-5.966s2.671-5.966,5.966-5.966
			C357.384,472.441,360.055,475.112,360.055,478.408z"/>
		<circle class="st8" cx="329.473" cy="333.5" r="5.966"/>
		<path class="st8" d="M348.116,401.502c0,3.295-2.671,5.966-5.966,5.966c-3.295,0-5.966-2.671-5.966-5.966
			c0-3.295,2.671-5.966,5.966-5.966C345.445,395.536,348.116,398.207,348.116,401.502z"/>
		<path class="st8" d="M548.481,564.268c0,3.295-2.671,5.966-5.966,5.966c-3.295,0-5.966-2.671-5.966-5.966
			c0-3.295,2.671-5.966,5.966-5.966C545.81,558.301,548.481,560.972,548.481,564.268z"/>
		<circle class="st8" cx="299.317" cy="336.152" r="5.966"/>
		
			<ellipse transform="matrix(0.9239 -0.3827 0.3827 0.9239 11.6281 146.9458)" class="st8" cx="375.188" cy="44.244" rx="5.966" ry="5.966"/>
		
			<ellipse transform="matrix(0.9732 -0.2298 0.2298 0.9732 -112.9792 122.5249)" class="st8" cx="469.665" cy="546.425" rx="5.966" ry="5.966"/>
		
			<ellipse transform="matrix(0.2298 -0.9732 0.9732 0.2298 -216.8398 804.6375)" class="st8" cx="399.932" cy="539.313" rx="5.966" ry="5.966"/>
		<path class="st8" d="M266.741,217.986c0,3.295-2.671,5.966-5.966,5.966c-3.295,0-5.966-2.671-5.966-5.966
			c0-3.295,2.671-5.966,5.966-5.966C264.07,212.02,266.741,214.691,266.741,217.986z"/>
		<circle class="st8" cx="392.452" cy="589.959" r="5.966"/>
		
			<ellipse transform="matrix(0.9239 -0.3827 0.3827 0.9239 -160.3661 220.3953)" class="st8" cx="473.817" cy="513.304" rx="5.966" ry="5.966"/>
		<circle class="st8" cx="454.602" cy="396.833" r="5.966"/>
		
			<ellipse transform="matrix(0.9239 -0.3827 0.3827 0.9239 -177.3133 166.9774)" class="st8" cx="331.07" cy="529.196" rx="5.966" ry="5.966"/>
		<path class="st8" d="M463.446,366.923c0,3.295-2.671,5.966-5.966,5.966c-3.295,0-5.966-2.671-5.966-5.966
			c0-3.295,2.671-5.966,5.966-5.966C460.774,360.956,463.446,363.628,463.446,366.923z"/>
		<circle class="st8" cx="387.061" cy="256.943" r="5.966"/>
		
			<ellipse transform="matrix(0.9239 -0.3827 0.3827 0.9239 -49.3073 115.3955)" class="st8" cx="265.413" cy="181.64" rx="5.966" ry="5.966"/>
		
			<ellipse transform="matrix(0.9239 -0.3827 0.3827 0.9239 -171.0732 233.3376)" class="st8" cx="500.998" cy="546.691" rx="5.966" ry="5.966"/>
		<circle class="st8" cx="386.196" cy="532.524" r="5.966"/>
		<path class="st8" d="M392.249,535.919c0,3.295-2.671,5.966-5.966,5.966c-3.295,0-5.966-2.671-5.966-5.966s2.671-5.966,5.966-5.966
			C389.578,529.953,392.249,532.624,392.249,535.919z"/>
		<path class="st8" d="M345.003,322.324c0,3.295-2.671,5.966-5.966,5.966c-3.295,0-5.966-2.671-5.966-5.966
			c0-3.295,2.671-5.966,5.966-5.966C342.332,316.357,345.003,319.029,345.003,322.324z"/>
		<path class="st8" d="M392.249,535.919c0,3.295-2.671,5.966-5.966,5.966c-3.295,0-5.966-2.671-5.966-5.966s2.671-5.966,5.966-5.966
			C389.578,529.953,392.249,532.624,392.249,535.919z"/>
		
			<ellipse transform="matrix(0.9925 -0.1222 0.1222 0.9925 -56.1398 42.4707)" class="st8" cx="318.23" cy="478.991" rx="5.966" ry="5.966"/>
		<circle class="st8" cx="383.897" cy="152.826" r="5.966"/>
		<path class="st8" d="M358.734,168.283c0,3.295-2.671,5.966-5.966,5.966c-3.295,0-5.966-2.671-5.966-5.966
			c0-3.295,2.671-5.966,5.966-5.966C356.063,162.316,358.734,164.988,358.734,168.283z"/>
		
			<ellipse transform="matrix(0.2298 -0.9732 0.9732 0.2298 -75.1232 853.5371)" class="st8" cx="501.684" cy="474.23" rx="5.966" ry="5.966"/>
		<path class="st8" d="M548.481,564.268c0,3.295-2.671,5.966-5.966,5.966c-3.295,0-5.966-2.671-5.966-5.966
			c0-3.295,2.671-5.966,5.966-5.966C545.81,558.301,548.481,560.972,548.481,564.268z"/>
		<circle class="st8" cx="369.336" cy="484.034" r="5.966"/>
		<circle class="st8" cx="224.91" cy="190.247" r="5.966"/>
		
			<ellipse transform="matrix(0.9925 -0.1222 0.1222 0.9925 -56.1398 42.4707)" class="st8" cx="318.23" cy="478.991" rx="5.966" ry="5.966"/>
		<path class="st8" d="M323.909,222.737c0,3.295-2.671,5.966-5.966,5.966c-3.295,0-5.966-2.671-5.966-5.966
			c0-3.295,2.671-5.966,5.966-5.966C321.238,216.771,323.909,219.442,323.909,222.737z"/>
		
			<ellipse transform="matrix(0.0825 -0.9966 0.9966 0.0825 -77.8423 1031.5122)" class="st8" cx="521.283" cy="558.031" rx="5.966" ry="5.966"/>
		<path class="st8" d="M363.056,429.738c0,3.295-2.671,5.966-5.966,5.966c-3.295,0-5.966-2.671-5.966-5.966
			c0-3.295,2.671-5.966,5.966-5.966C360.384,423.772,363.056,426.443,363.056,429.738z"/>
		<path class="st8" d="M276.197,265.452c0,3.295-2.671,5.966-5.966,5.966c-3.295,0-5.966-2.671-5.966-5.966
			c0-3.295,2.671-5.966,5.966-5.966C273.526,259.486,276.197,262.157,276.197,265.452z"/>
		<path class="st8" d="M356.302,407.38c0,3.295-2.671,5.966-5.966,5.966c-3.295,0-5.966-2.671-5.966-5.966
			c0-3.295,2.671-5.966,5.966-5.966C353.631,401.414,356.302,404.085,356.302,407.38z"/>
		<path class="st8" d="M577.895,648.766c0,3.295-2.671,5.966-5.966,5.966s-5.966-2.671-5.966-5.966c0-3.295,2.671-5.966,5.966-5.966
			S577.895,645.471,577.895,648.766z"/>
		<circle class="st8" cx="305.563" cy="317.245" r="5.966"/>
		<circle class="st8" cx="244.755" cy="176.275" r="5.966"/>
		<circle class="st8" cx="401.944" cy="191.895" r="5.966"/>
		<circle class="st8" cx="310.575" cy="131.711" r="5.966"/>
		<path class="st8" d="M543.259,626.847c0,3.295-2.671,5.966-5.966,5.966c-3.295,0-5.966-2.671-5.966-5.966
			c0-3.295,2.671-5.966,5.966-5.966C540.588,620.881,543.259,623.552,543.259,626.847z"/>
		<path class="st8" d="M450.047,540.614c0,3.295-2.671,5.966-5.966,5.966c-3.295,0-5.966-2.671-5.966-5.966
			c0-3.295,2.671-5.966,5.966-5.966C447.376,534.648,450.047,537.319,450.047,540.614z"/>
		<circle class="st8" cx="365.276" cy="242.802" r="5.966"/>
		
			<ellipse transform="matrix(0.9732 -0.2298 0.2298 0.9732 -67.1901 110.4717)" class="st8" cx="440.804" cy="343.771" rx="5.966" ry="5.966"/>
		<path class="st8" d="M488.738,714.648c0,3.295-2.671,5.966-5.966,5.966c-3.295,0-5.966-2.671-5.966-5.966
			c0-3.295,2.671-5.966,5.966-5.966C486.067,708.682,488.738,711.353,488.738,714.648z"/>
		<path class="st8" d="M491.574,481.991c0,3.295-2.671,5.966-5.966,5.966c-3.295,0-5.966-2.671-5.966-5.966
			c0-3.295,2.671-5.966,5.966-5.966C488.903,476.025,491.574,478.696,491.574,481.991z"/>
		<path class="st8" d="M318.185,436.358c0,3.295-2.671,5.966-5.966,5.966c-3.295,0-5.966-2.671-5.966-5.966
			c0-3.295,2.671-5.966,5.966-5.966C315.514,430.392,318.185,433.063,318.185,436.358z"/>
		<path class="st8" d="M318.185,436.358c0,3.295-2.671,5.966-5.966,5.966c-3.295,0-5.966-2.671-5.966-5.966
			c0-3.295,2.671-5.966,5.966-5.966C315.514,430.392,318.185,433.063,318.185,436.358z"/>
		<circle class="st8" cx="371.051" cy="36.948" r="5.966"/>
		<path class="st8" d="M439.823,476.196c0,3.295-2.671,5.966-5.966,5.966c-3.295,0-5.966-2.671-5.966-5.966
			c0-3.295,2.671-5.966,5.966-5.966C437.151,470.23,439.823,472.901,439.823,476.196z"/>
		
			<ellipse transform="matrix(0.7071 -0.7071 0.7071 0.7071 -68.5343 286.2029)" class="st8" cx="311.21" cy="225.83" rx="5.966" ry="5.966"/>
		<circle class="st8" cx="400.03" cy="542.708" r="5.966"/>
		<circle class="st8" cx="299.588" cy="541.003" r="5.966"/>
		
			<ellipse transform="matrix(0.9925 -0.1222 0.1222 0.9925 -56.1398 42.4707)" class="st8" cx="318.23" cy="478.991" rx="5.966" ry="5.966"/>
		<path class="st8" d="M577.895,648.766c0,3.295-2.671,5.966-5.966,5.966s-5.966-2.671-5.966-5.966c0-3.295,2.671-5.966,5.966-5.966
			S577.895,645.471,577.895,648.766z"/>
		<circle class="st8" cx="468.533" cy="625.921" r="5.966"/>
		<path class="st8" d="M491.574,481.991c0,3.295-2.671,5.966-5.966,5.966c-3.295,0-5.966-2.671-5.966-5.966
			c0-3.295,2.671-5.966,5.966-5.966C488.903,476.025,491.574,478.696,491.574,481.991z"/>
		
			<ellipse transform="matrix(0.2298 -0.9732 0.9732 0.2298 -56.5643 562.8228)" class="st8" cx="327.297" cy="317.147" rx="5.966" ry="5.966"/>
		
			<ellipse transform="matrix(0.1602 -0.9871 0.9871 0.1602 -128.1931 842.3804)" class="st8" cx="430.953" cy="496.527" rx="5.966" ry="5.966"/>
		
			<ellipse transform="matrix(0.9732 -0.2298 0.2298 0.9732 -99.6222 65.4392)" class="st8" cx="231.202" cy="460.524" rx="5.966" ry="5.966"/>
		<path class="st8" d="M549.254,525.003c0,3.295-2.671,5.966-5.966,5.966c-3.295,0-5.966-2.671-5.966-5.966
			c0-3.295,2.671-5.966,5.966-5.966C546.583,519.037,549.254,521.708,549.254,525.003z"/>
		<path class="st8" d="M388.875,474.87c0,3.295-2.671,5.966-5.966,5.966c-3.295,0-5.966-2.671-5.966-5.966
			c0-3.295,2.671-5.966,5.966-5.966C386.204,468.904,388.875,471.575,388.875,474.87z"/>
		<circle class="st8" cx="481.676" cy="489.349" r="5.966"/>
		<path class="st8" d="M240.589,177.288c0,3.295-2.671,5.966-5.966,5.966c-3.295,0-5.966-2.671-5.966-5.966
			c0-3.295,2.671-5.966,5.966-5.966C237.917,171.322,240.589,173.993,240.589,177.288z"/>
		<path class="st8" d="M448.235,342.634c0,3.295-2.671,5.966-5.966,5.966c-3.295,0-5.966-2.671-5.966-5.966
			c0-3.295,2.671-5.966,5.966-5.966C445.563,336.668,448.235,339.339,448.235,342.634z"/>
		
			<ellipse transform="matrix(0.1602 -0.9871 0.9871 0.1602 96.8505 277.0205)" class="st8" cx="211.225" cy="81.593" rx="5.966" ry="5.966"/>
		
			<ellipse transform="matrix(0.9732 -0.2298 0.2298 0.9732 -67.1901 110.4717)" class="st8" cx="440.804" cy="343.771" rx="5.966" ry="5.966"/>
		
			<ellipse transform="matrix(0.1602 -0.9871 0.9871 0.1602 135.5876 429.1664)" class="st8" cx="320.006" cy="134.901" rx="5.966" ry="5.966"/>
		<path class="st8" d="M521.525,517.457c0,3.295-2.671,5.966-5.966,5.966s-5.966-2.671-5.966-5.966c0-3.295,2.671-5.966,5.966-5.966
			S521.525,514.162,521.525,517.457z"/>
		<circle class="st8" cx="516.179" cy="572.638" r="5.966"/>
		
			<ellipse transform="matrix(0.9732 -0.2298 0.2298 0.9732 -67.1901 110.4717)" class="st8" cx="440.804" cy="343.771" rx="5.966" ry="5.966"/>
		
			<ellipse transform="matrix(0.2298 -0.9732 0.9732 0.2298 3.3223 718.4137)" class="st8" cx="455.539" cy="357.108" rx="5.966" ry="5.966"/>
		<circle class="st8" cx="398.371" cy="323.445" r="5.966"/>
		
			<ellipse transform="matrix(0.1602 -0.9871 0.9871 0.1602 25.7016 524.4959)" class="st8" cx="321.086" cy="247.144" rx="5.966" ry="5.966"/>
		<circle class="st8" cx="410.571" cy="143.211" r="5.966"/>
		<circle class="st8" cx="294.955" cy="375.386" r="5.966"/>
		<circle class="st8" cx="361.835" cy="38.243" r="5.966"/>
		<circle class="st8" cx="336.118" cy="445.758" r="5.966"/>
		
			<ellipse transform="matrix(0.9239 -0.3827 0.3827 0.9239 -4.3313 155.5729)" class="st8" cx="388.894" cy="88.674" rx="5.966" ry="5.966"/>
		<path class="st8" d="M345.003,322.324c0,3.295-2.671,5.966-5.966,5.966c-3.295,0-5.966-2.671-5.966-5.966
			c0-3.295,2.671-5.966,5.966-5.966C342.332,316.357,345.003,319.029,345.003,322.324z"/>
		<path class="st8" d="M491.574,481.991c0,3.295-2.671,5.966-5.966,5.966c-3.295,0-5.966-2.671-5.966-5.966
			c0-3.295,2.671-5.966,5.966-5.966C488.903,476.025,491.574,478.696,491.574,481.991z"/>
		<path class="st8" d="M537.873,518.772c0,3.295-2.671,5.966-5.966,5.966c-3.295,0-5.966-2.671-5.966-5.966s2.671-5.966,5.966-5.966
			C535.202,512.806,537.873,515.477,537.873,518.772z"/>
		<circle class="st8" cx="400.03" cy="542.708" r="5.966"/>
		
			<ellipse transform="matrix(0.7071 -0.7071 0.7071 0.7071 -98.0682 302.1135)" class="st8" cx="315.649" cy="269.436" rx="5.966" ry="5.966"/>
		
			<ellipse transform="matrix(0.2298 -0.9732 0.9732 0.2298 -342.1196 927.5629)" class="st8" cx="414.954" cy="679.925" rx="5.966" ry="5.966"/>
		<path class="st8" d="M438.358,359.96c0,3.295-2.671,5.966-5.966,5.966c-3.295,0-5.966-2.671-5.966-5.966
			c0-3.295,2.671-5.966,5.966-5.966C435.687,353.993,438.358,356.665,438.358,359.96z"/>
		<path class="st8" d="M315.108,359.77c0,3.295-2.671,5.966-5.966,5.966c-3.295,0-5.966-2.671-5.966-5.966
			c0-3.295,2.671-5.966,5.966-5.966C312.437,353.804,315.108,356.475,315.108,359.77z"/>
		<circle class="st8" cx="263.944" cy="257.568" r="5.966"/>
		<circle class="st8" cx="495.715" cy="434.044" r="5.966"/>
		
			<ellipse transform="matrix(0.0825 -0.9966 0.9966 0.0825 -83.4073 962.4525)" class="st8" cx="480.995" cy="526.524" rx="5.966" ry="5.966"/>
		<circle class="st8" cx="377.328" cy="477.035" r="5.966"/>
		<circle class="st8" cx="416.377" cy="220.177" r="5.966"/>
		
			<ellipse transform="matrix(0.0825 -0.9966 0.9966 0.0825 232.2313 417.2546)" class="st8" cx="342.723" cy="82.505" rx="5.966" ry="5.966"/>
		
			<ellipse transform="matrix(0.7071 -0.7071 0.7071 0.7071 -114.3841 366.7588)" class="st8" cx="385.525" cy="321.453" rx="5.966" ry="5.966"/>
		<circle class="st8" cx="337.178" cy="92.575" r="5.966"/>
		<path class="st8" d="M297.163,203.661c0,3.295-2.671,5.966-5.966,5.966c-3.295,0-5.966-2.671-5.966-5.966
			c0-3.295,2.671-5.966,5.966-5.966C294.492,197.695,297.163,200.366,297.163,203.661z"/>
		<circle class="st8" cx="416.853" cy="596.891" r="5.966"/>
		
			<ellipse transform="matrix(0.2298 -0.9732 0.9732 0.2298 -76.0762 609.4163)" class="st8" cx="346.978" cy="352.771" rx="5.966" ry="5.966"/>
		<circle class="st8" cx="263.944" cy="257.568" r="5.966"/>
		<circle class="st8" cx="321.179" cy="281.247" r="5.966"/>
		
			<ellipse transform="matrix(0.1602 -0.9871 0.9871 0.1602 135.5876 429.1664)" class="st8" cx="320.006" cy="134.901" rx="5.966" ry="5.966"/>
		<circle class="st8" cx="399.287" cy="114.104" r="5.966"/>
		<circle class="st8" cx="303.5" cy="442.313" r="5.966"/>
		<circle class="st8" cx="321.778" cy="119.173" r="5.966"/>
		<path class="st8" d="M395.7,270.664c0,3.295-2.671,5.966-5.966,5.966c-3.295,0-5.966-2.671-5.966-5.966
			c0-3.295,2.671-5.966,5.966-5.966C393.029,264.698,395.7,267.369,395.7,270.664z"/>
		
			<ellipse transform="matrix(0.7071 -0.7071 0.7071 0.7071 -68.5343 286.2029)" class="st8" cx="311.21" cy="225.83" rx="5.966" ry="5.966"/>
		
			<ellipse transform="matrix(0.1602 -0.9871 0.9871 0.1602 -170.3361 883.3151)" class="st8" cx="433.938" cy="541.761" rx="5.966" ry="5.966"/>
		
			<ellipse transform="matrix(0.1602 -0.9871 0.9871 0.1602 135.5876 429.1664)" class="st8" cx="320.006" cy="134.901" rx="5.966" ry="5.966"/>
		<path class="st8" d="M364.607,458.374c0,3.295-2.671,5.966-5.966,5.966s-5.966-2.671-5.966-5.966c0-3.295,2.671-5.966,5.966-5.966
			S364.607,455.078,364.607,458.374z"/>
		<path class="st8" d="M398.823,429.057c0,3.295-2.671,5.966-5.966,5.966c-3.295,0-5.966-2.671-5.966-5.966
			c0-3.295,2.671-5.966,5.966-5.966C396.152,423.091,398.823,425.762,398.823,429.057z"/>
		
			<ellipse transform="matrix(0.9732 -0.2298 0.2298 0.9732 -99.6222 65.4392)" class="st8" cx="231.202" cy="460.524" rx="5.966" ry="5.966"/>
		<path class="st8" d="M577.895,648.766c0,3.295-2.671,5.966-5.966,5.966s-5.966-2.671-5.966-5.966c0-3.295,2.671-5.966,5.966-5.966
			S577.895,645.471,577.895,648.766z"/>
		<path class="st8" d="M279.341,305.08c0,3.295-2.671,5.966-5.966,5.966c-3.295,0-5.966-2.671-5.966-5.966s2.671-5.966,5.966-5.966
			C276.67,299.114,279.341,301.785,279.341,305.08z"/>
		<circle class="st8" cx="409.168" cy="505.092" r="5.966"/>
		<circle class="st8" cx="359.644" cy="250.861" r="5.966"/>
		<circle class="st8" cx="458.734" cy="480.839" r="5.966"/>
		
			<ellipse transform="matrix(0.9732 -0.2298 0.2298 0.9732 -112.9792 122.5249)" class="st8" cx="469.665" cy="546.425" rx="5.966" ry="5.966"/>
		
			<ellipse transform="matrix(0.7071 -0.7071 0.7071 0.7071 -61.2594 296.2913)" class="st8" cx="327.025" cy="222.092" rx="5.966" ry="5.966"/>
		<circle class="st8" cx="393.819" cy="254.941" r="5.966"/>
		<path class="st8" d="M279.341,305.08c0,3.295-2.671,5.966-5.966,5.966c-3.295,0-5.966-2.671-5.966-5.966s2.671-5.966,5.966-5.966
			C276.67,299.114,279.341,301.785,279.341,305.08z"/>
		<path class="st8" d="M318.185,436.358c0,3.295-2.671,5.966-5.966,5.966c-3.295,0-5.966-2.671-5.966-5.966
			c0-3.295,2.671-5.966,5.966-5.966C315.514,430.392,318.185,433.063,318.185,436.358z"/>
		
			<ellipse transform="matrix(0.2298 -0.9732 0.9732 0.2298 8.2535 583.9818)" class="st8" cx="373.073" cy="286.777" rx="5.966" ry="5.966"/>
		<circle class="st8" cx="346.164" cy="197.973" r="5.966"/>
		<circle class="st8" cx="352.865" cy="495.923" r="5.966"/>
		<path class="st8" d="M306.025,244.2c0,3.295-2.671,5.966-5.966,5.966c-3.295,0-5.966-2.671-5.966-5.966
			c0-3.295,2.671-5.966,5.966-5.966C303.354,238.234,306.025,240.905,306.025,244.2z"/>
		<circle class="st8" cx="333.446" cy="212.247" r="5.966"/>
		<path class="st8" d="M502.5,500.889c0,3.295-2.671,5.966-5.966,5.966c-3.295,0-5.966-2.671-5.966-5.966
			c0-3.295,2.671-5.966,5.966-5.966C499.829,494.923,502.5,497.594,502.5,500.889z"/>
		
			<ellipse transform="matrix(0.0825 -0.9966 0.9966 0.0825 64.7302 645.3669)" class="st8" cx="382.858" cy="287.529" rx="5.966" ry="5.966"/>
		<circle class="st8" cx="381.864" cy="437.019" r="5.966"/>
		
			<ellipse transform="matrix(0.7071 -0.7071 0.7071 0.7071 -361.6661 416.8556)" class="st8" cx="322.356" cy="644.997" rx="5.966" ry="5.966"/>
		<path class="st8" d="M453.318,388.912c0,3.295-2.671,5.966-5.966,5.966c-3.295,0-5.966-2.671-5.966-5.966
			c0-3.295,2.671-5.966,5.966-5.966C450.647,382.946,453.318,385.617,453.318,388.912z"/>
		<circle class="st8" cx="393.819" cy="254.941" r="5.966"/>
		<circle class="st8" cx="301.749" cy="555.594" r="5.966"/>
		<circle class="st8" cx="365.414" cy="297.185" r="5.966"/>
		
			<ellipse transform="matrix(0.9925 -0.1222 0.1222 0.9925 -56.1398 42.4707)" class="st8" cx="318.23" cy="478.991" rx="5.966" ry="5.966"/>
		
			<ellipse transform="matrix(0.1602 -0.9871 0.9871 0.1602 -219.1434 630.2888)" class="st8" cx="260.836" cy="443.93" rx="5.966" ry="5.966"/>
		<path class="st8" d="M450.047,540.614c0,3.295-2.671,5.966-5.966,5.966c-3.295,0-5.966-2.671-5.966-5.966
			c0-3.295,2.671-5.966,5.966-5.966C447.376,534.648,450.047,537.319,450.047,540.614z"/>
		<path class="st8" d="M412.088,132.92c0,3.295-2.671,5.966-5.966,5.966c-3.295,0-5.966-2.671-5.966-5.966
			c0-3.295,2.671-5.966,5.966-5.966C409.417,126.954,412.088,129.625,412.088,132.92z"/>
		<circle class="st8" cx="200.063" cy="171.841" r="5.966"/>
		<circle class="st8" cx="329.959" cy="350.698" r="5.966"/>
		<path class="st8" d="M318.185,436.358c0,3.295-2.671,5.966-5.966,5.966c-3.295,0-5.966-2.671-5.966-5.966
			c0-3.295,2.671-5.966,5.966-5.966C315.514,430.392,318.185,433.063,318.185,436.358z"/>
		<path class="st8" d="M416.154,542.083c0,3.295-2.671,5.966-5.966,5.966c-3.295,0-5.966-2.671-5.966-5.966
			c0-3.295,2.671-5.966,5.966-5.966C413.482,536.117,416.154,538.788,416.154,542.083z"/>
		<path class="st8" d="M339.709,363.605c0,3.295-2.671,5.966-5.966,5.966c-3.295,0-5.966-2.671-5.966-5.966
			c0-3.295,2.671-5.966,5.966-5.966C337.038,357.639,339.709,360.31,339.709,363.605z"/>
		
			<ellipse transform="matrix(0.9239 -0.3827 0.3827 0.9239 -4.3313 155.5729)" class="st8" cx="388.894" cy="88.674" rx="5.966" ry="5.966"/>
		<path class="st8" d="M392.249,535.919c0,3.295-2.671,5.966-5.966,5.966c-3.295,0-5.966-2.671-5.966-5.966s2.671-5.966,5.966-5.966
			C389.578,529.953,392.249,532.624,392.249,535.919z"/>
		<circle class="st8" cx="334.572" cy="275.938" r="5.966"/>
		<circle class="st8" cx="331.598" cy="295.972" r="5.966"/>
		<path class="st8" d="M396.043,427.378c0,3.295-2.671,5.966-5.966,5.966c-3.295,0-5.966-2.671-5.966-5.966
			c0-3.295,2.671-5.966,5.966-5.966C393.372,421.412,396.043,424.083,396.043,427.378z"/>
		<circle class="st8" cx="331.766" cy="295.972" r="5.966"/>
		
			<ellipse transform="matrix(0.9239 -0.3827 0.3827 0.9239 -131.2332 204.5235)" class="st8" cx="448.489" cy="432.139" rx="5.966" ry="5.966"/>
		<circle class="st8" cx="397.92" cy="323.46" r="5.966"/>
		
			<ellipse transform="matrix(0.1602 -0.9871 0.9871 0.1602 135.5876 429.1664)" class="st8" cx="320.006" cy="134.901" rx="5.966" ry="5.966"/>
		
			<ellipse transform="matrix(0.9239 -0.3827 0.3827 0.9239 -159.5956 182.2427)" class="st8" cx="378.301" cy="492.293" rx="5.966" ry="5.966"/>
		<path class="st8" d="M311.304,266.492c0,3.295-2.671,5.966-5.966,5.966s-5.966-2.671-5.966-5.966c0-3.295,2.671-5.966,5.966-5.966
			S311.304,263.197,311.304,266.492z"/>
		<path class="st8" d="M502.5,500.889c0,3.295-2.671,5.966-5.966,5.966c-3.295,0-5.966-2.671-5.966-5.966
			c0-3.295,2.671-5.966,5.966-5.966C499.829,494.923,502.5,497.594,502.5,500.889z"/>
		<circle class="st8" cx="481.676" cy="489.349" r="5.966"/>
		
			<ellipse transform="matrix(0.9239 -0.3827 0.3827 0.9239 -34.6335 64.1903)" class="st8" cx="144.037" cy="119.152" rx="5.966" ry="5.966"/>
		<path class="st8" d="M388.854,64.027c0,3.295-2.671,5.966-5.966,5.966c-3.295,0-5.966-2.671-5.966-5.966
			c0-3.295,2.671-5.966,5.966-5.966C386.183,58.061,388.854,60.732,388.854,64.027z"/>
		
			<ellipse transform="matrix(0.2298 -0.9732 0.9732 0.2298 -37.1902 775.2836)" class="st8" cx="471.211" cy="411.138" rx="5.966" ry="5.966"/>
		<path class="st8" d="M390.462,61.093c0,3.295-2.671,5.966-5.966,5.966c-3.295,0-5.966-2.671-5.966-5.966
			c0-3.295,2.671-5.966,5.966-5.966C387.791,55.127,390.462,57.798,390.462,61.093z"/>
		
			<ellipse transform="matrix(0.0825 -0.9966 0.9966 0.0825 -81.1166 937.7747)" class="st8" cx="468.738" cy="512.941" rx="5.966" ry="5.966"/>
		<circle class="st8" cx="352.865" cy="495.923" r="5.966"/>
		
			<ellipse transform="matrix(0.0825 -0.9966 0.9966 0.0825 -111.5907 1078.647)" class="st8" cx="530.007" cy="599.927" rx="5.966" ry="5.966"/>
		<circle class="st8" cx="271.613" cy="284.386" r="5.966"/>
		<circle class="st8" cx="249.255" cy="296.279" r="5.966"/>
		<path class="st8" d="M436.945,497.54c0,3.295-2.671,5.966-5.966,5.966c-3.295,0-5.966-2.671-5.966-5.966
			c0-3.295,2.671-5.966,5.966-5.966C434.274,491.574,436.945,494.245,436.945,497.54z"/>
		
			<ellipse transform="matrix(0.1222 -0.9925 0.9925 0.1222 85.4364 631.1286)" class="st8" cx="399.512" cy="267.265" rx="5.966" ry="5.966"/>
		<path class="st8" d="M266.741,217.986c0,3.295-2.671,5.966-5.966,5.966c-3.295,0-5.966-2.671-5.966-5.966
			c0-3.295,2.671-5.966,5.966-5.966C264.07,212.02,266.741,214.691,266.741,217.986z"/>
		
			<ellipse transform="matrix(0.1602 -0.9871 0.9871 0.1602 -68.0719 818.0098)" class="st8" cx="446.692" cy="449.009" rx="5.966" ry="5.966"/>
		
			<ellipse transform="matrix(0.1602 -0.9871 0.9871 0.1602 -68.0719 818.0098)" class="st8" cx="446.692" cy="449.009" rx="5.966" ry="5.966"/>
		<circle class="st8" cx="313.064" cy="537.557" r="5.966"/>
		<path class="st8" d="M302.083,243.247c0,3.295-2.671,5.966-5.966,5.966c-3.295,0-5.966-2.671-5.966-5.966
			c0-3.295,2.671-5.966,5.966-5.966C299.412,237.281,302.083,239.952,302.083,243.247z"/>
		
			<ellipse transform="matrix(0.2298 -0.9732 0.9732 0.2298 -274.2169 557.4086)" class="st8" cx="215.049" cy="451.948" rx="5.966" ry="5.966"/>
		<circle class="st8" cx="307.887" cy="228.763" r="5.966"/>
		
			<ellipse transform="matrix(0.7071 -0.7071 0.7071 0.7071 -240.9183 432.3448)" class="st8" cx="401.427" cy="506.987" rx="5.966" ry="5.966"/>
		
			<ellipse transform="matrix(0.0825 -0.9966 0.9966 0.0825 -77.8423 1031.5122)" class="st8" cx="521.283" cy="558.031" rx="5.966" ry="5.966"/>
		<path class="st8" d="M388.854,64.027c0,3.295-2.671,5.966-5.966,5.966c-3.295,0-5.966-2.671-5.966-5.966
			c0-3.295,2.671-5.966,5.966-5.966C386.183,58.061,388.854,60.732,388.854,64.027z"/>
		<path class="st8" d="M296.641,169.071c0,3.295-2.671,5.966-5.966,5.966c-3.295,0-5.966-2.671-5.966-5.966
			c0-3.295,2.671-5.966,5.966-5.966C293.97,163.105,296.641,165.776,296.641,169.071z"/>
		<circle class="st8" cx="400.03" cy="542.708" r="5.966"/>
		
			<ellipse transform="matrix(0.7071 -0.7071 0.7071 0.7071 -98.0682 302.1135)" class="st8" cx="315.649" cy="269.436" rx="5.966" ry="5.966"/>
		<path class="st8" d="M549.254,525.003c0,3.295-2.671,5.966-5.966,5.966c-3.295,0-5.966-2.671-5.966-5.966
			c0-3.295,2.671-5.966,5.966-5.966C546.583,519.037,549.254,521.708,549.254,525.003z"/>
		<path class="st8" d="M366.266,538.622c0,3.295-2.671,5.966-5.966,5.966c-3.295,0-5.966-2.671-5.966-5.966
			c0-3.295,2.671-5.966,5.966-5.966C363.594,532.656,366.266,535.327,366.266,538.622z"/>
		
			<ellipse transform="matrix(0.9239 -0.3827 0.3827 0.9239 -59.1344 135.4574)" class="st8" cx="310.929" cy="216.373" rx="5.966" ry="5.966"/>
		<circle class="st8" cx="383.897" cy="152.826" r="5.966"/>
		
			<ellipse transform="matrix(0.7071 -0.7071 0.7071 0.7071 -98.0682 302.1135)" class="st8" cx="315.649" cy="269.436" rx="5.966" ry="5.966"/>
		
			<ellipse transform="matrix(0.1222 -0.9925 0.9925 0.1222 -256.559 783.1404)" class="st8" cx="314.451" cy="536.61" rx="5.966" ry="5.966"/>
		<circle class="st8" cx="294.955" cy="375.386" r="5.966"/>
		
			<ellipse transform="matrix(0.9239 -0.3827 0.3827 0.9239 -131.2727 204.5321)" class="st8" cx="448.489" cy="432.242" rx="5.966" ry="5.966"/>
		<path class="st8" d="M357.915,399.475c0,3.295-2.671,5.966-5.966,5.966c-3.295,0-5.966-2.671-5.966-5.966
			c0-3.295,2.671-5.966,5.966-5.966C355.244,393.508,357.915,396.18,357.915,399.475z"/>
		<circle class="st8" cx="321.179" cy="281.247" r="5.966"/>
		
			<ellipse transform="matrix(0.9239 -0.3827 0.3827 0.9239 -4.3313 155.5729)" class="st8" cx="388.894" cy="88.674" rx="5.966" ry="5.966"/>
		<circle class="st8" cx="306.469" cy="180.913" r="5.966"/>
		
			<ellipse transform="matrix(0.1602 -0.9871 0.9871 0.1602 -134.1886 995.5851)" class="st8" cx="517.991" cy="576.652" rx="5.966" ry="5.966"/>
		<path class="st8" d="M354.598,256.81c0,3.295-2.671,5.966-5.966,5.966c-3.295,0-5.966-2.671-5.966-5.966
			c0-3.295,2.671-5.966,5.966-5.966C351.926,250.844,354.598,253.515,354.598,256.81z"/>
		<path class="st8" d="M302.083,243.247c0,3.295-2.671,5.966-5.966,5.966c-3.295,0-5.966-2.671-5.966-5.966
			c0-3.295,2.671-5.966,5.966-5.966C299.412,237.281,302.083,239.952,302.083,243.247z"/>
		
			<ellipse transform="matrix(0.9925 -0.1222 0.1222 0.9925 -56.1398 42.4707)" class="st8" cx="318.23" cy="478.991" rx="5.966" ry="5.966"/>
		<circle class="st8" cx="306.633" cy="432.257" r="5.966"/>
		<circle class="st8" cx="459.486" cy="666.188" r="5.966"/>
		
			<ellipse transform="matrix(0.7071 -0.7071 0.7071 0.7071 -120.8972 382.0918)" class="st8" cx="400.777" cy="336.982" rx="5.966" ry="5.966"/>
		<path class="st8" d="M462.519,373.814c0,3.295-2.671,5.966-5.966,5.966c-3.295,0-5.966-2.671-5.966-5.966
			c0-3.295,2.671-5.966,5.966-5.966C459.848,367.848,462.519,370.519,462.519,373.814z"/>
		<path class="st8" d="M536.818,548.437c0,3.295-2.671,5.966-5.966,5.966c-3.295,0-5.966-2.671-5.966-5.966
			c0-3.295,2.671-5.966,5.966-5.966C534.147,542.471,536.818,545.142,536.818,548.437z"/>
		<circle class="st8" cx="287.147" cy="286.28" r="5.966"/>
		
			<ellipse transform="matrix(0.9239 -0.3827 0.3827 0.9239 -146.2534 226.9444)" class="st8" cx="497.337" cy="481.106" rx="5.966" ry="5.966"/>
		
			<ellipse transform="matrix(0.7071 -0.7071 0.7071 0.7071 23.1531 262.2638)" class="st8" cx="328.157" cy="103.184" rx="5.966" ry="5.966"/>
		<path class="st8" d="M358.734,168.283c0,3.295-2.671,5.966-5.966,5.966c-3.295,0-5.966-2.671-5.966-5.966
			c0-3.295,2.671-5.966,5.966-5.966C356.063,162.316,358.734,164.988,358.734,168.283z"/>
		<path class="st8" d="M302.083,243.247c0,3.295-2.671,5.966-5.966,5.966c-3.295,0-5.966-2.671-5.966-5.966
			c0-3.295,2.671-5.966,5.966-5.966C299.412,237.281,302.083,239.952,302.083,243.247z"/>
		
			<ellipse transform="matrix(0.9239 -0.3827 0.3827 0.9239 -10.461 122.6171)" class="st8" cx="302.988" cy="87.604" rx="5.966" ry="5.966"/>
		<path class="st8" d="M577.895,648.766c0,3.295-2.671,5.966-5.966,5.966s-5.966-2.671-5.966-5.966c0-3.295,2.671-5.966,5.966-5.966
			S577.895,645.471,577.895,648.766z"/>
		<path class="st8" d="M388.875,474.87c0,3.295-2.671,5.966-5.966,5.966c-3.295,0-5.966-2.671-5.966-5.966
			c0-3.295,2.671-5.966,5.966-5.966C386.204,468.904,388.875,471.575,388.875,474.87z"/>
		<path class="st8" d="M549.254,525.003c0,3.295-2.671,5.966-5.966,5.966c-3.295,0-5.966-2.671-5.966-5.966
			c0-3.295,2.671-5.966,5.966-5.966C546.583,519.037,549.254,521.708,549.254,525.003z"/>
		<path class="st8" d="M409.098,470.6c0,3.295-2.671,5.966-5.966,5.966c-3.295,0-5.966-2.671-5.966-5.966
			c0-3.295,2.671-5.966,5.966-5.966C406.427,464.633,409.098,467.305,409.098,470.6z"/>
		
			<ellipse transform="matrix(0.2298 -0.9732 0.9732 0.2298 -146.5887 690.8212)" class="st8" cx="363.151" cy="438.022" rx="5.966" ry="5.966"/>
		<path class="st8" d="M318.656,158.007c0,3.295-2.671,5.966-5.966,5.966c-3.295,0-5.966-2.671-5.966-5.966
			c0-3.295,2.671-5.966,5.966-5.966C315.985,152.041,318.656,154.712,318.656,158.007z"/>
		<path class="st8" d="M502.5,500.889c0,3.295-2.671,5.966-5.966,5.966c-3.295,0-5.966-2.671-5.966-5.966
			c0-3.295,2.671-5.966,5.966-5.966C499.829,494.923,502.5,497.594,502.5,500.889z"/>
	</g>
</g>
</svg>
