<?xml version="1.0" encoding="utf-8"?>
<!-- Generator: Adobe Illustrator 22.0.1, SVG Export Plug-In . SVG Version: 6.00 Build 0)  -->
<svg version="1.1" xmlns="http://www.w3.org/2000/svg" xmlns:xlink="http://www.w3.org/1999/xlink" x="0px" y="0px"
	 viewBox="0 0 600 750" style="enable-background:new 0 0 600 750;" xml:space="preserve">
<style type="text/css">
	
		.st0{opacity:0.65;clip-path:url(#SVGID_2_);fill-rule:evenodd;clip-rule:evenodd;fill:none;stroke:#FBFCFC;stroke-width:2;stroke-miterlimit:10;}
	.st1{clip-path:url(#SVGID_2_);fill:#1A1A1A;}
	.st2{clip-path:url(#SVGID_2_);}
	.st3{clip-path:url(#SVGID_4_);}
	.st4{clip-path:url(#SVGID_4_);fill:#333333;}
	.st5{clip-path:url(#SVGID_6_);fill:#333333;}
	.st6{clip-path:url(#SVGID_2_);fill:none;stroke:#FFFFFF;stroke-width:2;stroke-miterlimit:10;}
	.st7{fill:#005596;fill-opacity:0.6;stroke:#005596;stroke-width:2;stroke-miterlimit:10;}
	.st8{fill:#FFFFFF;}
	.st9{fill-rule:evenodd;clip-rule:evenodd;fill:none;}
	.st10{fill-rule:evenodd;clip-rule:evenodd;fill:#005596;}
	.st11{fill-rule:evenodd;clip-rule:evenodd;fill:#FCEE21;}
	.st12{fill-rule:evenodd;clip-rule:evenodd;fill:#F15A24;}
</style>
<g id="basemap">
</g>
<g id="ex_x5F_1">
</g>
<g id="ex_x5F_2">
</g>
<g id="ex_x5F_3">
</g>
<g id="police_x5F_locs">
</g>
<g id="civil_x5F_suits_x5F_locs">
	<g>
		<circle class="st11" cx="409.4" cy="254.7" r="4.9"/>
		<circle class="st11" cx="386.7" cy="222.3" r="4.9"/>
		<circle class="st11" cx="353.2" cy="168.2" r="4.9"/>
		<circle class="st11" cx="352.1" cy="168.2" r="4.9"/>
		<circle class="st11" cx="384.6" cy="145.5" r="4.9"/>
		<circle class="st11" cx="383.5" cy="145.5" r="4.9"/>
		<circle class="st11" cx="340.2" cy="112" r="4.9"/>
		<circle class="st11" cx="306.7" cy="144.4" r="4.9"/>
		<circle class="st11" cx="305.6" cy="112" r="4.9"/>
		<circle class="st11" cx="339.2" cy="79.6" r="4.9"/>
		<circle class="st11" cx="339.2" cy="80.6" r="4.9"/>
		<circle class="st11" cx="371.6" cy="112" r="4.9"/>
		<circle class="st11" cx="370.5" cy="112" r="4.9"/>
		<circle class="st11" cx="381.3" cy="89.3" r="4.9"/>
		<circle class="st11" cx="338.1" cy="219.1" r="4.9"/>
		<circle class="st11" cx="337" cy="219.1" r="4.9"/>
		<circle class="st11" cx="315.4" cy="197.4" r="4.9"/>
		<circle class="st11" cx="347.8" cy="241.8" r="4.9"/>
		<circle class="st11" cx="293.7" cy="232" r="4.9"/>
		<circle class="st11" cx="326.2" cy="265.5" r="4.9"/>
		<circle class="st11" cx="303.5" cy="287.2" r="4.9"/>
		<circle class="st11" cx="303.5" cy="286.1" r="4.9"/>
		<circle class="st11" cx="271" cy="265.5" r="4.9"/>
		<circle class="st11" cx="271" cy="242.8" r="4.9"/>
		<circle class="st11" cx="249.4" cy="221.2" r="4.9"/>
		<circle class="st11" cx="249.4" cy="178" r="4.9"/>
		<circle class="st11" cx="249.4" cy="167.2" r="4.9"/>
		<circle class="st11" cx="227.8" cy="145.5" r="4.9"/>
		<circle class="st11" cx="238.6" cy="134.7" r="4.9"/>
		<circle class="st11" cx="271" cy="145.5" r="4.9"/>
		<circle class="st11" cx="314.3" cy="178" r="4.9"/>
		<circle class="st11" cx="390" cy="264.5" r="4.9"/>
		<circle class="st11" cx="390" cy="275.3" r="4.9"/>
		<circle class="st11" cx="357.5" cy="307.7" r="4.9"/>
		<circle class="st11" cx="346.7" cy="307.7" r="4.9"/>
		<circle class="st11" cx="325.1" cy="296.9" r="4.9"/>
		<circle class="st11" cx="335.9" cy="351" r="4.9"/>
		<circle class="st11" cx="379.2" cy="351" r="4.9"/>
		<circle class="st11" cx="433.2" cy="372.6" r="4.9"/>
		<circle class="st11" cx="411.6" cy="394.2" r="4.9"/>
		<circle class="st11" cx="411.6" cy="405" r="4.9"/>
		<circle class="st11" cx="422.4" cy="405" r="4.9"/>
		<circle class="st11" cx="444" cy="426.7" r="4.9"/>
		<circle class="st11" cx="411.6" cy="460.2" r="4.9"/>
		<circle class="st11" cx="379.2" cy="427.7" r="4.9"/>
		<circle class="st11" cx="368.3" cy="427.7" r="4.9"/>
		<circle class="st11" cx="357.5" cy="438.6" r="4.9"/>
		<circle class="st11" cx="325.1" cy="416.9" r="4.9"/>
		<circle class="st11" cx="303.5" cy="449.4" r="4.9"/>
		<circle class="st11" cx="314.3" cy="449.4" r="4.9"/>
		<circle class="st11" cx="325.1" cy="460.2" r="4.9"/>
		<circle class="st11" cx="346.7" cy="492.6" r="4.9"/>
		<circle class="st11" cx="248.3" cy="452.6" r="4.9"/>
		<circle class="st11" cx="368.3" cy="471" r="4.9"/>
		<circle class="st11" cx="379.2" cy="492.6" r="4.9"/>
		<circle class="st11" cx="400.8" cy="503.4" r="4.9"/>
		<circle class="st11" cx="454.8" cy="460.2" r="4.9"/>
		<circle class="st11" cx="465.7" cy="449.4" r="4.9"/>
		<circle class="st11" cx="454.8" cy="384.5" r="4.9"/>
		<circle class="st11" cx="465.7" cy="416.9" r="4.9"/>
		<circle class="st11" cx="487.3" cy="438.6" r="4.9"/>
		<circle class="st11" cx="498.1" cy="438.6" r="4.9"/>
		<circle class="st11" cx="465.7" cy="471" r="4.9"/>
		<circle class="st11" cx="444" cy="535.9" r="4.9"/>
		<circle class="st11" cx="444" cy="546.7" r="4.9"/>
		<circle class="st11" cx="454.8" cy="589.9" r="4.9"/>
		<circle class="st11" cx="487.3" cy="557.5" r="4.9"/>
		<circle class="st11" cx="487.3" cy="546.7" r="4.9"/>
		<circle class="st11" cx="476.5" cy="514.2" r="4.9"/>
		<circle class="st11" cx="508.9" cy="535.9" r="4.9"/>
		<circle class="st11" cx="508.9" cy="546.7" r="4.9"/>
		<circle class="st11" cx="498.1" cy="503.4" r="4.9"/>
		<circle class="st11" cx="540.3" cy="540.2" r="4.9"/>
	</g>
</g>
<g id="citations_x5F_locs">
</g>
<g id="dont_x5F_know">
	<rect y="0" class="st9" width="600" height="750"/>
</g>
</svg>
