<?xml version="1.0" encoding="utf-8"?>
<!-- Generator: Adobe Illustrator 22.0.1, SVG Export Plug-In . SVG Version: 6.00 Build 0)  -->
<svg version="1.1" xmlns="http://www.w3.org/2000/svg" xmlns:xlink="http://www.w3.org/1999/xlink" x="0px" y="0px"
	 viewBox="0 0 600 750" style="enable-background:new 0 0 600 750;" xml:space="preserve">
<style type="text/css">
	.st0{fill-rule:evenodd;clip-rule:evenodd;fill:none;}
	.st1{opacity:0.65;fill-rule:evenodd;clip-rule:evenodd;fill:#FBFCFC;}
	.st2{opacity:0.65;fill-rule:evenodd;clip-rule:evenodd;fill:none;stroke:#FBFCFC;stroke-width:2;stroke-miterlimit:10;}
	.st3{fill-rule:evenodd;clip-rule:evenodd;fill:none;stroke:#FBFCFC;stroke-width:4;stroke-miterlimit:10;}
	.st4{fill-rule:evenodd;clip-rule:evenodd;fill:#005596;}
	.st5{fill-rule:evenodd;clip-rule:evenodd;fill:#FCEE21;}
	.st6{fill-rule:evenodd;clip-rule:evenodd;fill:#F15A24;}
</style>
<g id="base">
	<g>
		<g>
			<rect class="st0" width="600" height="750"/>
			<path class="st1" d="M353.3,651.5L353.3,651.5l5.2-0.1l0-0.7l0-0.1l0.6,0l0-0.1l1,0l-0.4-12.7l-0.2,0l-6.7,0.1L353.3,651.5z
				 M154,97l0,0.2l-0.5,0l0,0l0,0.1l0,0.3l0,0.3l0,0.3l0,0.1l0,0.1l0,0.1l0,0.1l0,0.2l0,0l-0.9,0l-0.3,0l-0.9,0l0,0.3l0,0.3l0,0.3
				l0,0.3l0,0.3l0,0.3l0,0.3l0,0.4l0,0.3l0.1,0l0.3,0l0.1,0l0.3,0l0.2,0l0,0.3l0,0.1l0,0.2l-0.2,0l-0.9,0l0,0.3l0,0.3l0.9,0l0.3,0
				l0.9,0l0.5,0l0.3,0l0.3,0l0.2,0l0,0l0.2,0l0.2,0h0l0.2,0l0.3,0l0,0l0.2,0l0.1,0l0.1,0l0,0l0.1,0l0,0l0.3,0l0,0l0.1,0l0.2,0l0.2,0
				l0,0l0.1,0l0.3,0l0.1,0l0,0l0.3,0l0,0l0.1,0l0.2,0l0.3,0l0,0l0.4,0l0,0l0.5,0l0.3,0l0.5,0l0,0.5l0.2,0l0,0.3l0,0.4l0,0.3l0,0.3
				l0,0.3l0,0.3l0.7,0l0.1,0v0l0,0.2l0,0.1l-0.1,0l-0.7,0l0,0.4l0,0.1l0.1,0l0,0.1l0,0.6l-0.3,0l-0.1,0l-0.4,0l-0.3,0l-0.4,0l0,0.6
				l-0.4,0l0,0.1l0,0l0,0l0,0.1l0,0.6l0,0.6l0,0.1l0,0l0,0l0.4,0l0.2,0l0.1,0l0,0.1l0,0.6l0,0l-0.3,0l-0.1,0l-0.2,0l-0.1,0l-0.2,0
				l-0.1,0l-0.1,0l-0.1,0l-0.1,0l0,0l-0.1,0l-0.1,0l-0.1,0l-0.2,0l0,0l0,0l-0.1,0l-0.2,0l0,0l0,0l0,0l-0.2,0l-0.1,0l-0.3,0l-0.3,0
				l-0.3,0l0,0l-0.3,0l0,0l0,0l-0.2,0l-0.1,0l-0.1,0l-0.1,0l-0.1,0l-0.2,0l-0.1,0l-0.1,0l-0.1,0l-0.2,0l0,0l0,0l-0.2,0l0,0l-0.2,0
				l-0.1,0l0,0.6v0.2v0.3v0.3l0,0.4l0.3,0l0.3,0l0.3,0l0.3,0l0.3,0l0.3,0l0.3,0l0.3,0l0.3,0l0.3,0l0,0l0.3,0l0,0l0.3,0l0,0l0.3,0
				l0,0l0.3,0l0,0l0.3,0l0,0l0.3,0l0,0l0.3,0l0,0l0.3,0l0,0l0.3,0l0,0l0.3,0l0,0l0.3,0l0,0l0.3,0l0,0l0.3,0l0,0l0.3,0l0,0l0.3,0l0,0
				l0.3,0l0,0l0.3,0l0,0l0.3,0l0,0l0.3,0l0,0l0.3,0l0.5,0l0.3,0l0,0l0.3,0l0.1,0l0.3,0l0.1,0l0.2,0l0.1,0l0.2,0l0.2,0l0.2,0l0.2,0
				l0.1,0l0.2,0l0.5,0l0.2,0l0-0.3l0.1-0.6l0-0.2l0-0.3l0-0.3l0-0.2l0-0.2l0-0.2l0-0.3l0-0.3l0-0.1l0-0.1l0-0.3l0-0.2l0-0.1l0,0
				l0-0.2l0-0.2l0-0.2l0-0.2l0-0.3l0-0.2l0-0.3l0-0.2l0-0.2l0-0.2l0-0.3l0-0.2l0-0.2l0-0.3l0-0.2l0-0.2l0-0.3l0-0.2l0-0.3l0-0.3
				l0-0.4l0-0.3l0-0.4l0-0.4l0-0.3l0-0.3l0-0.3l0-0.4l0-0.2l0-0.3l0-0.3l0-0.3l0-0.3l0-0.4l0-0.2l0-0.1l-1.3,0l-0.9,0l-0.3,0l0,0.1
				l0,0.6l0,0.2l0,0.2l0,0.2l0,0.2l0,0.2l0,0.2l0,0.2l0,0l-0.4,0l-0.4,0l-0.2,0l-0.2,0l-0.4,0l-0.4,0l0,0l-0.3,0l-0.6,0l-0.4,0
				l-0.7,0l0-0.3l0-0.3l0-0.4l0-0.1l0-0.2l0-0.3l0-0.2l0-0.2l0-0.2l0,0l0-0.3l0-0.3l0-0.2l0-0.3l0-0.2l0-0.1l0-0.2l-0.1,0.1l0,0l0,0
				l0,0l0,0l-0.1,0l-0.1,0l-0.1,0l-0.1,0l-0.2,0l-0.1,0l-0.4,0l-0.2,0l-0.2,0l-0.2,0l-0.3,0l-0.1,0l-0.4,0l-0.3,0l-0.5,0l-0.3,0
				l-0.2,0l-0.1,0l-0.1,0l-0.2,0l-0.2,0l-0.6,0l-0.3,0l-0.1,0l-0.2,0l-0.2,0l-0.2,0l-0.1,0l-0.1,0l-0.1,0l-0.1,0l-0.1,0l0,0l-0.1,0
				l-0.1,0l0,0l-0.1,0L154,97L154,97L154,97z M142.2,115.5l0,0.3l0.3,0l0.3,0l0.2,0l0.5,0l0.4,0l0.6,0l0.5,0l0.3,0l0.6,0l0.5,0
				l0.3,0l0.4,0l0.3,0l0,0l0,0.2v0.3v0.3v0.3v0.3v0.1v0.2v0.3v0.3v0v0.3v0.3v0.2v0.1l0,0.3v0.3v0.3v0.3v0.3v0.1v0.2v0.3v0.1l1.6,0
				l0.3,0l0,2.2l-0.1,0l-0.3,0l-0.2,0l-0.2,0l-0.1,0l-0.2,0l-0.2,0l-0.2,0l-0.2,0l-0.2,0l-0.1,0l-0.2,0l-0.2,0l-0.3,0l-0.2,0l-0.2,0
				l-0.1,0l-0.2,0l-0.2,0l-0.1,0l-0.3,0l-0.2,0l0,0l-0.2,0l-0.4,0l-0.3,0l-0.2,0l-0.2,0l-0.2,0l-0.3,0l-0.3,0l-0.2,0l-0.3,0l0,0
				l0-0.2l0-0.3l0-0.2v0l0-0.2l0-0.2v0l0-0.2l0-0.2l0,0l0-0.2l0-0.1l0-0.1l0-0.2l0-0.2l0-0.1l0-0.3l0-0.2l0-0.2l0-0.2l-0.2,0l-0.2,0
				l-0.2,0l0,0l-0.2,0l-0.2,0l-0.2,0l-0.2,0l-0.1,0l-0.2,0l-0.2,0l-0.2,0l-0.1,0l-0.1,0l-0.2,0l-0.2,0l-0.2,0l-0.1,0l-0.1,0l-0.2,0
				l-0.2,0l0,0l-0.2,0l0,0l-0.2,0l-0.1,0l-0.1,0l-0.2,0l0,0l-0.2,0l0,0l-0.2,0l-0.1,0l-0.3,0l-0.3,0l0,0l-0.6,0l-0.1,0l-0.2,0l0,0
				l0,0.6l0,1.3v1.3l0,1.3l0,1.3l0,1.3l0,1.2l0,1.2l0,1l0.1,0l0.6,0l0.4,0l0.4,0l0.4,0l0.5,0l0.5,0l0.4,0l0.3,0l0.3,0l0.2,0l0.3,0
				l0.1,0l0.1,0l0.2,0l0.2,0l0.3,0l0.4,0l0.1,0l0.4,0l0.3,0l0.4,0l0.1,0l0.3,0l0.2,0l0.2,0l0.3,0l0.4,0l0.2,0l0.2,0l0.4,0l0.1,0
				l0.4,0l0.4,0l0.1,0l0.5,0l0.4,0l0.3,0l0.3,0l0.4,0l0.5,0l0.5,0l0.3,0l0.3,0l0.6,0l0.1,0l0,2.7l0,0.5l0,3.2l0,0l0,0.1l0,0.1l0,0.2
				l0,0.3l0,0.3l0,0.2l0,0.4l0,0.2l0,0.2l0,0.2l0,0.3l0,0.1l0,0.4l0,0.2l0,0.3l0,0.1l0,0.2l0,0.2l0,0.2l0,0.1l0,0.2l0,0.3l0,0.3
				l0,0.2l0,0.2v0l0,0.2l0,0.1l0,0.2l0,0.1l0,0.1l0,0.2l0,0.2l0,0.8l0.3,0l0.1,0l0.6,0l0.3,0l0.3,0l0.2,0l0.4,0l0.3,0l0.1,0l0.2,0
				l0.2,0l0.1,0l0.2,0l0.5,0l1.3,0l0.4,0l0.1,0.3l0,0.2l0,0.2l0,0.2l0,0l0,0l0,0.1l0,0.2l0,0.2l0,0.2l0,0.2l0,0.2l0,0.2l0,0.2
				l0.1,0.3l0.1,0.3l0,0.2l0,0.2l0,0.1l0,0.2l0,0.1l0,0.1l0,0.1l0,0.1l0,0.1l0,0.1l0,0.1l0,0.2l0,0.1l0,0.1l0,0.1l0,0l0,0.1l0,0.1
				l0,0.1l0,0.1l0,0.1l0,0.1l0,0.2l0,0.1l0,0.2l0,0l0,0.2l0,0.2l0,0.1l0,0.1l0,0.1l0,0.1l0,0.1l0,0.1l0,0.1l0,0.1l0,0.1l0,0.1l0,0.1
				l0,0.2l0,0.1l0,0.1l0,0.1l0,0.2l0,0.2l0,0.2l0,0.2l0,0.2l0,0.2l0,0.2l0,0.2l0,0.2l0,0.3l0,0.2l0,0.1l0,0.1l0,0.4l0,0.6l0,0.3
				l0,0.3l0,0.3l0,0.3l0,0.3l0,0.1l0,0.3l0,0.3l0,0.1l0,0.3l0.3,0l0.2,0l0.3,0l0.3,0l0.3,0l0.3,0l0.3,0l0.4,0l0.3,0l0.3,0l0.4,0
				l0.3,0l0.3,0l0.3,0l0.3,0l0.2,0l0.3,0l0.3,0l0.3,0l0.5,0l0.2,0l0.3,0l0.4,0l0.4,0l0.5,0l0.5,0l0.4,0l0.5,0l0,0l0.5,0l0.4,0l0,0
				l0.5,0l0.6,0l0.6,0l0.5,0l0.4,0l0.3,0l0.3,0l0.2,0l0.2,0l0.4,0l0.3,0l0.3,0l0.2,0l0.2,0l0.2,0l0.2,0l0.3,0l0.4,0l0.4,0l0.3,0
				l0.4,0l0.3,0l0.4,0l0.3,0l0.3,0l0.4,0l0.2,0l0.3,0l0.3,0l0.2,0l0.3,0l0.3,0l0.2,0l0.5,0l0.3,0l0.6,0l0.3,0l0.1,0l0.3,0l0.1,0
				l0.5,0l0.4,0l0.3,0l0.2,0l0.2,0l0.4,0l0.4,0l0.3,0l0.4,0l0.6,0l0.3,0l0.4,0l0.3,0l0.2,0l0.3,0l0.2,0l0.3,0l0.3,0l0.2,0l0.3,0
				l0.1,0l0.4,0l0.4,0l0.2,0l0.8,0l0.8,0l0.4,0l0.3,0l0.3,0l0.3,0l0.5,0l0.5,0l0.4,0l0-0.3l0-0.1l0-0.2l0-0.4l0-0.4l0-0.3l0-0.5
				l0.4-0.3l0.3-0.2l0.2-0.1l0.2-0.1l0.5-0.3l0.4-0.2l0.4-0.3l0.5-0.3l0.3-0.2l1.8-1.2l0.2-0.1l0.4-0.2l0.4-0.2l0.3-0.2l0.8-0.5
				l0.8-0.6l0.4-0.2l0.2-0.1l0.5-0.3l0.4-0.3l0.3-0.2l0.3-0.2l0.2-0.1l0.2-0.1l0.1-0.1l0.3-0.2l0.1-0.1l0.4-0.3l0.4-0.3l0.1-0.1
				l0.2-0.2l0.2-0.1l0.3-0.2l0.2-0.2l0.3-0.2l0.4-0.3l0.3-0.2l0,0l0.3-0.2l0.5-0.3l0.3-0.2l0.2-0.1l0.3-0.2l0.2-0.2l0.3-0.2l0.3-0.2
				l0.6-0.4l0.2-0.1l0.3-0.2l0.1-0.1l0.2-0.1l0.1-0.1l0.1,0l0.2-0.1l0.2-0.1l0.2-0.1l0.2,0l0.7,0l0.3,0l0.3,0l0.4,0l0.4,0l0.4,0
				l0.4,0l0.3,0l0.2,0l0.3,0l0.3,0l0.4,0l0.4,0l0.3,0l0.3,0l0.3,0l0.3,0l0.3,0l0.2,0l0.3,0l0.2,0l0.2,0l0.2,0l0.3,0l0.2,0l0.3,0
				l0.1,0l0.2,0l0.2,0l0.2,0l0.3,0l0.1,0l0.3,0l0.1,0l0.2,0l0.3,0l0.2,0l0-0.2l0-0.5l0-0.1l0-0.1l0-0.5l0-0.4l0-0.4l0-0.3l0-0.5
				l0-0.3l0-0.2l0-0.2l0-0.4l0-0.3l0-0.4l0-0.4l0-0.1l0-0.1l0-0.2l0-0.1l0-0.1l0-0.1l-0.1-0.1l0.3-0.2l0,0l0,0l0,0l0,0l0-0.1l0-0.1
				l0-0.2l0-0.2l0-0.2l0-0.3v0l0-0.3l0,0l0-0.3l0-0.3l0-0.2l0-0.2l0-0.1l0-0.2l0-0.3v-0.1l0-0.2l0-0.3l0-0.2v-0.1l0-0.3l0-0.3l0-0.3
				l0-0.2l0-0.4l0-0.2l0-0.3l0-0.2l0-0.2l0-0.1l0-0.2l0-0.1l0-0.1l0-0.1l0-0.3l0-0.1l0-0.3l0-0.3l0-0.3l0-0.2l0-0.2l0-0.3l0-0.2
				l0-0.2l0-0.1l0-0.1l-0.2,0l-0.3,0l-0.3,0l-0.3,0l-0.3,0l-0.4,0l0-0.3l0-0.3l0-0.2l0,0l0-0.1l-0.2,0l-0.6,0l-0.1,0l-0.6,0l-0.3,0
				l-0.6,0l-0.1,0l-0.6,0l-0.3,0l-0.6,0l-0.1,0l-0.6,0l-0.3,0l-0.6,0l-0.1,0l-0.6,0l-0.3,0l-0.6,0l-0.1,0l-0.6,0l-0.3,0l-0.6,0
				l-0.1,0l-0.6,0l-0.3,0l-0.6,0l-0.1,0l-0.6,0l-0.3,0l-0.6,0l-0.1,0v0l-0.6,0l-0.3,0l-0.6,0l-0.1,0l-0.6,0l-0.3,0l-0.6,0l-0.1,0
				l-0.6,0l-0.3,0l-0.6,0l-0.1,0l-0.6,0l-0.3,0l-0.6,0l-0.1,0l-0.5,0l-0.2,0l-0.2,0l0,0.1l0,0.2l0,0.2l0,0l0,0.1l0,0.2l-0.2,0
				l-0.2,0l-0.4,0l-0.5,0l-0.3,0l-0.1,0l-0.1,0l-0.3,0l-0.5,0l-0.4,0l-0.2,0l-0.4,0l-0.4,0l-0.4,0l-0.4,0l-0.2,0l-0.2,0l-0.4,0
				l-0.2,0l-0.1,0l-0.3,0l-0.4,0l0-0.7l0-0.5l0-0.4l0-0.2l0-0.4l0-0.3l0-0.3l0-0.3l0-0.4l0-0.2l0-0.3l0-0.2l0-0.2l0-0.3l0-0.3l0-0.3
				l0-0.1v0l0-0.2l0-0.3l0-0.3l0-0.3l0-0.2l0-0.2l0-0.3l0-0.2l0-0.2l0-0.2l0-0.3l0-0.4l0-0.3l0-0.2l0-0.4l0-0.3l0-0.3l0-0.3l0-0.3
				l0-0.6l0-0.4l0-0.4l-0.3,0l-0.3,0l-0.3,0l-0.5,0l-0.3,0l-0.4,0l-0.3,0l-0.3,0l-0.5,0l-0.3,0l-0.4,0l-0.4,0l-0.3,0l-0.4,0l-0.3,0
				l-0.3,0l-0.3,0l-0.4,0l-0.4,0l-0.4,0l-0.3,0l-0.1,0l-0.3,0l-0.1,0l-0.2,0l-0.4,0l-0.3,0l-0.3,0l-0.3,0l-0.3,0l0,0l-0.2,0l-0.3,0
				l-0.3,0l-0.3,0l-0.3,0l-0.4,0l-0.3,0l-0.1,0l-0.3,0l-0.1,0l-0.3,0l-1,0l-0.3,0l0,0.4l0,0.2l0,0.1l0,0.1l0,0l0,0.3v0.3v0.3v0.2
				l0,0.3l0,0.4l0,0.2l0,0.4l0,0.2l0,0.3l0,0.4l0,0.3l0,0.3l0,0.3l0,0.2l0,0.2l0,0.3l0,0.1l0,0.1l0,0.1l0,0.2l0,0.2l0,0.2l0,0.2
				l-0.2,0l-0.2,0l-0.1,0l-0.1,0l0,0l-0.2,0l0,0l-0.2,0l0,0l-0.1,0l-0.1,0l-0.2,0l0,0l0,0l-0.2,0l-0.2,0l0,0l-0.2,0l-0.2,0l-0.1,0
				l-0.1,0l-0.2,0l-0.2,0l0-0.3l0-0.1v-0.1l0-0.2l0-0.2v-0.1l0-0.1l0-0.2v0l0-0.2l0-0.2v0l0-0.2v-0.1l0-0.1l0-0.2v0l0-0.2l0-0.2v0
				l0-0.2v-0.1l0-0.1l0-0.2v0l0-0.3v0l0-0.3v0l0-0.2l0-0.1l0-0.1l0-0.2l-0.5,0l-0.1,0l0-0.5l0-0.2l0-0.2l0-0.2l0-0.3l0-0.1l0-0.1
				l0-0.4l-0.4,0l-0.6,0l-0.4,0l-0.6,0l-0.5,0l-0.5,0l-0.5,0l-0.3,0l-0.3,0l-0.7,0l-0.4,0l-0.4,0l-0.3,0l-0.5,0l-0.3,0l0,0l-0.3,0
				l-0.6,0l-0.2,0l-0.2,0l-0.1,0l-0.2,0l-0.4,0l-0.5,0l-0.2,0l-0.4,0l-0.4,0l-0.4,0l0,0.4l0,0.2l0,0.1l0,0.3l0,0.3l0,0.3l0,0.1
				l-0.1,0l-0.3,0l-0.4,0l-0.2,0l-0.2,0l-0.2,0l-0.2,0l-0.2,0l-0.2,0l-0.1,0l-0.3,0l-0.1,0l-0.3,0l-0.1,0l-0.4,0l0,0l-0.4,0l0,0
				l-0.4,0l-0.1,0l-0.3,0l-0.1,0l-0.3,0l-0.1,0l-0.2,0l-0.2,0l-0.2,0l-0.2,0l-0.2,0l-0.4,0l0,0l-0.4,0l-0.4,0l0-0.3v-0.1l0-0.3
				l0-0.4v0l0-0.4l0-0.2l0,0l-0.2,0l-0.4,0l-0.2,0l-0.2,0l-0.3,0l-0.2,0l-0.3,0l-0.5,0l0-0.2l0-0.4l0-0.4l0-0.3l0-0.1l0-0.4l-0.1,0
				l-0.2,0l0,0v-0.3v-0.6l-0.3,0l-0.2,0l0,0l-0.2,0l-0.2,0l0,0l-0.2,0l-0.2,0l-0.1,0l-0.2,0l-0.2,0l-0.1,0l-0.2,0l-0.1,0l-0.1,0
				l-0.2,0l-0.1,0l-0.1,0l-0.1,0l-0.1,0l-0.1,0l-0.1,0l-0.2,0l-0.3,0l-0.3,0l0,0l0,0.2l0,0.2v0.3l0,0.3l-0.3,0l-0.3,0l-0.3,0l-0.3,0
				l-0.3,0l-0.3,0l-0.3,0l-0.3,0l-0.3,0l-0.3,0l-0.3,0l-0.3,0l-0.3,0l-0.3,0l-0.3,0l-0.3,0l-0.2,0l0,0l-0.3,0l-0.3,0l-0.3,0l-0.1,0
				l-0.2,0l-0.3,0l-0.3,0l-0.2,0l-0.1,0l-0.3,0l-0.3,0l-0.3,0l-0.2,0v0.3l0,0.3l0,0.6L142.2,115.5z M393.5,23.7L393.5,23.7l0.3-0.1
				l0.2,1.1l0,0l0,0.1l0.1,0.4l0.1,0.1l0,0.1l0,0l-0.2,0.1l0.1,0.3l0,0l-0.2,0l0.2,1l0,0l0,0l-0.1,0l0,0.1l0,0.1l0,0.1l0,0l0.2,0
				l0.1,0l0,0l0,0.2l0,0l-0.3,0l0,0l0,0l0,0.1l0,0.2l0,0l-0.1,0l0,0l0,0l0,0l0,0l0,0l0,0.2l0.1,0.2l0.1,0.1l0.1,0.2l0.1,0.2l0.1,0.1
				l0.1,0.1l0,0l0,0l0,0l0.1,0l0.1,0.1l0.1,0.3l0,0.1l0,0l0,0l0,0.1l0,0.1l-0.1,0l0,0l0,0.3l-0.1,0l0.1,0.3l0,0l0,0l0,0l0,0l0,0l0,0
				l0,0.1l0,0l0,0.1l0.1,0l0,0l0,0l0,0l0,0l0,0l0,0.8l-0.1,0l0,0l0,0.2l0,0.1l0.1,0l0.1,0l0,0l0,0.1l0,0.1l0,0.2l0,0.1l0,0l0,0
				l0.1,0.2l0,0l0,0l0,0l0,0l0,0.1l0,0l0,0l0,0l0.1,0.2l0,0.3l0,0.1l0,0l0,0l0,0l0,0.1l0,0.1l0,0l0.1,0.1l0.1,0.1l0.1,0.1l0,0.2
				l0,0.1l0,0.1l0.1,0.1l0,0.1l0,0.3l0,0.1l0.1,0.2l0.1,0.1l0.1,0.1l0.1,0.2l0.1,0.2l0.1,0.2l0.1,0l0.1,0l0,0.1l0,0.2l0,0l0,0.1
				l0,0.1l0,0.1l0,0.1l0,0.1l0,0.1l0,0.1l0,0.1l0.1,0.1l0,0.2l0,0.2l0,0.2l0,0.1l0,0l0.1,0.1l0.1,0.1l0.1,0.3l0.1,0.3l0,0.2l0,0.1
				l-0.1,0l0,0l0,0.1l0,0.1l0.1,0.1l0.1,0.2l0.1,0.1l0.1,0.1l0.1,0.1l0.1,0.1l0,0.1l0,0l0.1,0l0,0l0,0.1l0,0.2l0.1,0.2l0.1,0.2
				l0.1,0.2l0.1,0.1l0,0l0,0l-0.2,0.1l0.1,0.2l0,0l0.1,0.1l0.1,0.1l0.2,0.3l0.2,0.3l0.2,0.2l0.1,0.1l0.1,0.1l0.1,0.2l0.2,0.2l0,0
				l0,0l0,0l-0.2,0.1l0.2,0.3l0.1,0.1l0.3,0.3l0.1,0.1l0.2,0.2l0.1,0.1l0.5,0.5l0.2,0.2l0.1,0.2l0.1,0.1l0.2,0.2l0,0.1l0,0.1l-0.1,0
				l0,0l0,0l0.1,0l0.1,0l0.1,0.1l0.1,0.1l0.1,0.1l0.1,0.1l0.4,0.4l0.1,0.1l0.3,0.4l0.3,0.3l0.1,0.1l0.1,0.1l0.2,0.3l0.2,0.2l0.3,0.3
				l0.2,0.3l0.3,0.3l0.2,0.3l0.1,0.3l0.1,0.2l0.3,0.3l0.5,0.4l0.2,0.1l0.4,0.3l0.3,0.3l0.2,0.1l0.1,0.1l0,0l0.4-0.4l0,0l-0.4,0.4
				l-0.7,0.7l-2.2,0.1l0,0.1l0,0.8l0,0.4l0.1,0.5l0,0.2l0.1,0.4l0.3,0.7l0.1,0.2l0,0l0,0l0,0l0,0.1l0.1,0.2l0.1,0.2l0.1,0.1l0,0l0,0
				l0.1,0l0-0.1h0l0,0.2l-0.2,0l-0.7,0l0,0.5l0,0.1l0,0.2l0,0.1l0.1,0.1l0.1,0.2l0.1,0.3L404,58l0,0.1l0,0.1l0.1,0.2l0,0.1l0.1,0.4
				l0,0.1l0,0.1l0,0.1l0,0.1l0.3,0.4l0.1,0.3l0,0.1l0,0l0,0l0.1,0l0.2,0.5l0.2,0.5l0.1,0.3l0.1,0.3l0.1,0.2l0,0.3l-0.1,0.2l0,0.1
				l0,0.3l0.2,0.6l0.2,0.7l0,0.1l0.1,0.2l0.1,0.3l0,0.2l0,0.1l0.3,0.5l0.2,0.3l0.1,0.1l0.1,0l0.2,0.3l0.2,0.4l0.1,0.1l0.1,0.2
				l0.1,0.2l0.1,0.1l0.1,0.2l0.1,0.2l0,0.2l0,0.3l0,0.2l0,0.1l0,0.2l0,0.2l0,0.2l0,0.2l0,0.1l0.1,0.4l0,0.3l0,0.1l0,0.2l0,0.2l0,0.2
				l0,0.2l0,0.2l0,0.3l0,0.1l0,0l0,0l0-0.1l0-0.1l-0.1,0l-0.1,0l-0.1,0l-0.1,0l-0.1,0l0,0l0,0.1l0,0l0,0.1l0,0.2l0,0.2l0.1,0.3
				l0.1,0.1l0.1,0.1l0,0.1l0,0.1l0,0.1l0,0.2l0,0.1l0,0.1l-0.1,0.1l0,0.1l0,0.1l0,0.2l0,0.1l0,0.1l0,0.1l0,0.1l0,0.1l0.3,0l0,0.5
				l0,0l0,0l0,0.1l0,0.2l0,0.3l0,0.2l-0.1,0l-0.1,0l0,0l-0.1,0.2l0,0.1l0,0l0,0l0,0l0.1,0l0,0l0,0l0,0.1l0,0.1l0,0.1l0,0l0,0l-0.1,0
				l0,0.1l0,0.1l0,0.1l0.1,0.1l0.1,0.2l0.1,0.2l0,0.1l0,0l0.2,0l0,0.1l-0.1,0.8l0,0.2l0,0.1l0,0l0,0.1l-0.1,0.9l0,1.6l-0.1,0l0,0.1
				l0.1,0l0.1,0l0.1,0l0,0.3l0,0.3l0,0.2l0,0.3l0,0.1l0,0.1l0,0l0,0l0,0l0,0l0,0l0,0l0,0l0,0l0,0l0,0l0,0.1l0,0l0,0.1l0,0l0,0l0,0
				l0,0l0,0l0,0.1l0,0l0,0.1l0,0.1l0,0.1l0,0.1l0,0.1l0,0.1l0,0l0,0l0,0l0,0l0,0.1l0,0l0,0.1l0,0.3l0,0.2l0,0.2l0,0.4l0,0.3l0,0.1
				l0,0.1l0,0l0,0l0,0l0,0l0,0l0,0l0,0l0,0l0,0.2l0.2,0.3l0.3,0.5l0.4,0.5l0.2,0.3l0.1,0.1l0.1,0.1l0.1,0.1l0.1,0.1l0.1,0.1l0.1,0.1
				l0.1,0.1l0.5,0.5l0.6,0.5l0.5,0.5l0.1,0.2l0.1,0.1l0.1,0.1l0.1,0.1l0.1,0.1l0.1,0.1l0.1,0.1l0.1,0.1l0.1,0.1l0.1,0.1l0.1,0.1
				l0.2,0.2l0.1,0.1l0.1,0.1l0.1,0l0.1,0.1l0.1,0.1l0.1,0l0.1,0l0.1,0l0.2,0l0.1,0l0.1,0l0.1,0l0,0l0.1,0l0,0l0.2,0.1l0.7-1.9l0,0
				l0,0l0,0l-1.1,2.9l-0.1,0.4l-0.1,0.3l-0.1,0.3l-0.1,0.3l-0.1,0.3l0,0l-0.1,0.3l-0.1,0.3l-0.1,0.3l0,0.3l0,0.3l0,0.3l0,0.3l0,0.3
				l0,0.3v0.1l0,0.3l0,1l0,1l0,0l0,0.3l0,0.3l0,0.3l0,0.2l0,0.2l0,0.2l0,0.1l0.1,0.1l0.1,0.1l0.4,0.9l-0.1,0l-0.1,0l-0.1,0.1l0,0.1
				l0,0.1l0,0.1l0,0.1l0,0.1l0,0l0.3,0.1l0.1,0.1l0.1,0.1l0,0l0,0.1l0,0.1l0.3,0.4l0.2,0.2l0.2,0.2l0.2,0.2l0.2,0.2l0.1,0.1l0.6,0.5
				l0.2,0.3l0.1,0.1l0,0.1l0,0.1l0,0.1l0,0.1l0,0l0,0.2l0.3,0l1.2,0.1l0.1,0l0.1,0l0.1,0l0.1,0l0.1,0l0.1,0l0.1,0l0.1,0l0.1,0.1
				l0.1,0.1l0.1,0.1l0.1,0.1l0.1,0.1l0,0l0.8-0.7l0,0.1L419,107l0.1,0.1l0.1,0.1l0.1,0.1l0.1,0.1l0,0.1l0,0.1l0,0.1l0,0l0,0.1l0,0.1
				l0,0.1l0,0.1l0,0.1l0,0l0.1,1.9l0,1.5l0,1.3l0.1,1.8l0,0.2l0,0.2l0,0.2l0,0.2l0.1,0.2l0.1,0.2l0.1,0.2l0.1,0.2l0.1,0.4l0.2,0.4
				l0.2,0.4l0.2,0.4l0.2,0.4l0.2,0.4l0.4,0.9l0.1,0.2l0.2,0.3l0.3,0.5l0.1,0.1l0.3,0.4l0.2,0.4l0.4,0.5l0.4,0.6l0.2,0.2l0.1,0.1
				l0.2,0.3l0.2,0.2l0.5,0.5l0.2,0.3l-0.2,0.2l-0.4-0.4l-0.4,0.4l0.2,0.2l0.2,0.2l0.1,0l0,0l0,0l0,0l0,0l0,0l0.3-0.2l-0.1-0.1
				l0.2-0.2l0.8,0.9l0.4,0.4l0.2,0.2l0.6,0.5l0.3,0.2l0.3,0.3l0.3,0.2l0.5,0.2l0.9,0.3l0.7,0.2l0.7,0.3l0.7,0.3l0.8,0.4l1.4,0.5
				l0.8,0.2l1.1,0.2l0.8,0.1l0.6,0l0.8,0.1l0.8,0.1l0.6,0.2l0.3,0.1l0.4,0.2l0.2,0.1l0-1.1l0-0.3l0-0.3l0-0.3l0-0.3l0-0.2l0-0.1
				l0-0.3l0.1-0.3l0.1-0.3l0.1-0.3l0-0.1l0-0.1l0.1-0.3l0.1-0.3l0.1-0.3l0.1-0.3l0.1-0.3l0.1-0.3l0.1-0.3l0.1-0.1l0.1-0.1l0-0.1
				l0-0.1l0-0.1l0-0.1l0-0.1l0-0.1l0-0.1l0-0.1l0,0l-0.1-0.1l-0.1,0l-0.1,0l-0.1,0l-0.1,0l-0.1,0l-0.1,0l-0.1,0l-0.1,0l-0.1,0
				l-0.1,0l-0.1,0l-0.1,0l0,0l0,0l-0.1,0l0,0.1l0,0.1l0,0.1l0,0l0,0.1l0,0.1l0,0.1l0,0.1l0,0.1l0,0.1l0,0.1l0,0.1l0,0.1l0,0.1
				l0.1,0.1l-0.1,0.1l-0.1-0.1l0-0.1l0-0.1l0,0l0-0.1l0-0.1l0-0.1l0-0.1l0-0.1l0-0.1l0-0.1l0-0.1l0-0.1l0-0.1l0,0l0-0.1l0.1-0.1l0,0
				l0.1-0.1l0.1,0l0.1,0l0.1,0l0.1,0l0.1,0l0.1,0l0.1,0l0.1,0l0.1,0l0.1,0l0.1,0l0.1,0l0.1,0l0,0l0.1,0.1l0.1,0.1l0,0.1l0,0.1l0,0.1
				l0,0.1l0,0.1l0,0.1l0,0.1l0,0.1l0,0l0,0.1l0,0.1l0,0l-0.4,0.7l-0.1,0.3l-0.1,0.3l-0.1,0.3l-0.1,0.3l-0.1,0.3l-0.1,0.3l-0.1,0.3
				l0,0l-0.1,0.6l0,0.3l0,0.3l0,0.3l0,0.3l0,0.3l0,0.3l0,0.3l0,0l0,0.7l0,0.3l0,0.3l0,0.3l0.1,0.3l0,0.2l0,0l0,0l0.1,0.3l0.1,0.4
				l0,0l0.1,0.1l0.1,0.1l0.1,0.1l0.1,0.1l0.1,0.1l0.1,0.1l0.1,0.1l0.1,0.1l0.1,0.1l0,0.1l0,0.1l0,0.2l0,0.2l0,0.2l0,0.2l0,0.2
				l-0.1,0.1l-0.1,0.1l-0.1,0.2l-0.1,0.1l-0.1,0.1l-0.1,0.1l-0.1,0.1l-0.1,0.1l-0.1,0.1l-0.1,0.1l-0.1,0l-0.1,0l-0.1,0l-0.1,0
				l-0.2,0.1l-0.2,0.1l-0.2,0.1l-0.2,0.1l-0.2,0.1l-0.2,0.1l-0.2,0.1l-0.2,0.1l-0.1,0l-0.1,0.1l-0.1,0l-0.1,0.1l-0.1,0.1l-0.2,0.1
				l-0.1,0.1l-0.1,0.1l-0.2,0.1l-0.1,0.1l-0.1,0.1l-0.1,0.1l-0.2,0.2l-0.2,0.2l-0.1,0.1l-0.1,0.2l-0.2,0.2l-0.1,0.1l-0.1,0.2
				l-0.1,0.2l-0.1,0.2l-0.1,0.2l-0.1,0.1l-0.1,0.1l-0.2,0.2l-0.1,0.2l-0.1,0.1l-0.1,0.2l-0.2,0.2l-0.2,0.2l-0.1,0.1l-0.1,0.1
				l-0.2,0.2l-0.2,0.1l-0.2,0.1l-0.2,0.1l-0.2,0.1l-0.2,0.1l-0.2,0l-0.2,0.1l-0.3,0.1l-0.2,0l-0.2,0l-0.2,0l-0.2,0l-0.3,0l-0.2,0
				l-0.3,0l-0.3,0l-0.3,0l-0.3-0.1l-0.3-0.1l-0.4-0.1l-0.3-0.1l-0.3-0.1l-0.1,0l-0.1,0l0,0l-0.3,0.9l0,0l-0.1,0l0.3-0.9l-0.1-0.1
				l-0.2-0.1l-0.1,0l-0.1-0.1l-0.1-0.1l-0.1-0.1l-0.1-0.1l-0.1-0.2l-0.1-0.2l-0.1-0.1l0-0.1l0-0.1l0-0.1l0-0.1l0.1-0.2l0.1-0.2
				l0.1-0.1l0.1-0.1l0.1-0.1l0.1-0.1l0.1,0l0.1,0l0.1,0l0.1,0l0.1,0l0.1,0l0.1,0l0.1,0.1l0.6,0.5l0.4,0.2l0.2,0.1l0.1,0l0.1,0
				l0.2,0.1l0.1,0l0.2,0l0.1,0l0.1,0l0.1,0l0.1,0l0.1,0h0l0.1,0l0.1,0l0.3,0l0.4-0.1l0.3-0.1l0.5-0.2l0.4-0.2l0.4-0.2l0.5-0.4
				l0.5-0.5l0.3-0.4l0.4-0.6l0.2-0.3l0.1-0.1l0.1-0.2l0-0.2l0-0.3l-0.1-0.2l0-0.1l-0.1-0.2l-0.2-0.2l-0.1-0.1l-0.3-0.1l-0.3-0.1
				l-0.3,0l-0.4,0l-0.4,0l-0.5,0.1l-0.3,0.1l-0.5,0.1l-0.1,0l-0.1,0l0,0.1l-0.7,0.1l0-0.1l-0.9,0.2l-0.8,0.1l-0.7,0.1l-0.8,0.1
				l-0.5,0.1l-0.2,0l0,0l0,0l-0.1,0l-0.1,0l-0.2,0.1l-0.2,0.1l-0.1,0.1l-0.2,0.1l-0.1,0.1l-0.2,0.2l-0.1,0.1l-0.1,0.1l-0.1,0.1
				l-0.1,0.1l0,0.1l0,0.2l0,0.1l0,0.2l0,0.2l0,0.2l0,0.1l0,0.1l0.1,0.1l0.1,0.2l0.2,0.4l0.3,0.4l0.1,0.1l0.1,0.2l0.1,0.3l0,0.2
				l0,0.3l0,0.3l0,0.6l0,0.2l0,0l0.6,0l0.1,0l0.1,0l0,0.1l-0.3,0l-0.6,0l0,0.1l0,0.4l0,0.6l0,0.5l0,0.3l0,0.2l0,0.2l0.1,0.3l0.1,0.3
				l0.1,0.3l0.1,0.5l0,0.5l0,0.3l0.1,0.8l0,0.2l0,0.2l0.1,0.3l0,0.3l0,0.3l0,0.3l0.1,0.3l0,0.1l0,0.3l0.1,0.3l0.1,0.3l0.1,0.3l0,0.2
				l0.1,0.3l0.1,0.3l0.1,0.4l0.1,0.3l0,0.1l0,0.1l0.1,0.2l0,0.1l0.1,0.2l0,0.2l0,0.1l0,0.1l0,0.1l0.1,0l0,0.2l0,0.2l0,0.2l0.1,0.2
				l0,0.1l0.1,0.2l0,0.2l0,0.2l0.1,0.3l0.1,0.2l0,0.1l0,0.1l0,0.2l0.1,0.2l0,0.2l0.1,0.2l0.1,0.2l0.1,0.2l0.1,0.2l0.1,0.2l0.1,0.2
				l0.1,0.2l0.1,0.2l0,0.2l0.1,0.2l0.1,0.2l0.1,0.2l0.1,0.2l0.1,0.2l0.1,0.2l0.1,0.2l0.1,0.2l0.1,0.2l0.1,0.2l0.1,0.3l0.1,0.2
				l0.1,0.2l0.1,0.3l0.1,0.2l0.1,0.3l0.1,0.3l0.1,0.3l0.1,0.2l0.1,0.2l0.1,0.2l0.2,0.4l0.1,0.3l0.1,0.2l0.1,0.2l0.1,0.2l0.1,0.3
				l0.1,0.3l0.1,0.3l0.1,0.2l0.1,0.3l0.1,0.2l0.1,0.2l0.2,0.3l0.1,0.2l0.2,0.2l0.2,0.3l0.1,0.2l0.2,0.3l0.2,0.3l0.1,0.2l0.1,0.2
				l0.2,0.3l0.1,0.2l0.1,0.1l0.2,0.3l0.1,0.1l0.1,0.2l0.2,0.2l0.1,0.2l0.1,0.2l0.1,0.2l0.1,0.2l0.1,0.1l0.1,0.2l0.1,0.2l0.1,0.2
				l0.1,0.2l0.1,0.1l0.1,0.2l0.1,0.2l0.1,0.2l0.2,0.2l0.2,0.2l0.2,0.2l0.2,0.2l0.2,0.2l0.1,0.2l0.2,0.2l0.3,0.3l0.2,0.2l0.2,0.2
				l0.2,0.2l0.2,0.2l0.2,0.2l0.1,0.1l0.1,0.1l0.1,0.1l0,0.1l0,0.1l0,0.1l-0.1,0.1l-0.1,0.1l-0.1,0.1l-0.2,0.1l-0.1,0l-0.1,0l-0.1,0
				l-0.1-0.1l-0.1-0.1l-0.1-0.1l-0.1-0.1l-0.1-0.6l0-0.1l-0.1-0.3l-0.3-0.4l-0.1,0l-0.1,0l-0.1,0l-0.1,0l-0.1,0l-0.1,0l-0.1,0l0,0
				l-0.1,0l-0.1,0l-0.1,0l-0.1,0l-0.1,0.1l-0.1,0.1l-0.1,0.1l-0.1,0.1l-0.1,0l-0.1,0l-0.1,0l-0.1,0l-0.1,0l-0.1,0l0,0l-0.1,0l-0.1,0
				l-0.1,0l-0.1,0l-0.1,0l-0.1,0l-0.1,0l0,0l-0.1-0.1l-0.1-0.1l-0.1-0.1l-0.1-0.1l-0.1-0.1l0-0.1l-0.6-1.6l-0.6-1.5l0.2-0.3
				l-0.7-1.3l-0.1-0.1l-0.1,0l-1-0.4l-0.9-0.3l0-0.1l-0.3-0.1l-0.4,0l-0.1,0l-0.2,0l-0.2,0l-0.3,0l-0.1,0l-0.1,0l-0.1,0l-0.1,0
				l-0.1,0l0,0l-0.1-0.1L429,166l-0.3-0.2l0.2-0.4l-0.1-0.1l0,0l-0.1,0.1l0,0l0,0l-0.2-0.2l-0.1-0.2l-0.4-0.7l-0.1-0.1l-0.1-0.1
				l-0.1-0.1l-0.1-0.1l-0.1-0.1l-0.1-0.1l-0.2-0.1l0,0l-0.1-0.1l-0.2-0.1l-0.2-0.1l-0.2-0.1l0,0l-0.1,0l-0.1,0l-0.1,0l-0.1,0l-0.1,0
				l0,0l0,0l0,0l0,0l0,0l0,0l0,0l0,0l0,0l0,0l0.1,0.2l0.1,0.2l0.2,0.3l0.4,0.5l0.4,0.5l0,0l0.4,0.5l0.6,0.6l0.2,0.2l0.3,0.3l0.2,0.2
				l0.1,0l0,0.1l0,0.1l0,0.1l0,0.1l0,0.1l0,0l0,0.1l0,0.1l0,0.1l-0.2,0.5l0,0l0,0.1l0,0.1l0,0.1l0,0l0,0l0,0l0,0l0,0l-0.1,0.1
				l-0.2,0l0,0l0,0.1l0,0.1l0,0.1l0,0.1l0,0.1l0,0.1l0,0.1l0,0.1l0,0.1l0,0.1l0,0.1l0,0.1l1.1,2.1l0.4,0.1l0.1,0.1l0.1,0.1l0.1,0.1
				l0.1,0.1l0.1,0.1l0.1,0.1l0.1,0.1l0.1,0.1l0,0l0,0l0.1,0.2l0.1,0.2l0.1,0.2l0,0l0.1,0.2l0.1,0.2l0,0.2l0.1,0.7l0,0.7l0,0.4l0,0.3
				l0,0l0,0.1l0.1,0.1l0.1,0.1l0.1,0.1l0,0.1l0,0.1l0.1,0.1l0.1,0.1l0.1,0.1l0.7,1.1l0,0l0.6,0.9l0.1,0l0,0l0.1-0.8l0.3,0.1
				l-0.1,0.9l0,0l0.2,0l0.2,0l0.1,0l0,0l0.2,0l0.2,0l0.2,0l0.2,0l0.1,0.3l0.4-0.2l0,0l0.1-0.1l0.1-0.1l0.1-0.1l0.1-0.1l0.1-0.1
				l0.1-0.1l0.1-0.1l0.3-1l0,0l-0.6,0l0-0.3l0,0l0,0l0,0l0,0.2l0.5,0l0,0l0,0l0-0.5l0-0.8l0.1-0.2l0.2-0.1l0.1,0l0-0.5h0.2l0,0.2
				h0.1l0.1,0l0.1,0l0.1,0.1l0.1,0.1l0.1,0.1l0.1,0.1l0,0.1l0,0.1l0,0.1l0,0.3l0,0.5l0,0.2l0,0.2l0,0.2l0,0.2l0.1,0.3l0.1,0.2
				l0.1,0.2l0.1,0.3l0.1,0.3l0.1,0.3l0,0.2l0,0.2l0.1,0.3l0.1,0.3l0.1,0.3l0.1,0.3l0.1,0.3l0.1,0.3l0.1,0.2l0.1,0.3l0.1,0.2l0.2,0.2
				l0.2,0.2l0.1,0.2l0.2,0.2l0.1,0.2l0.1,0.2l0.1,0.3l-0.2,0.1l0,0.1l0,0l0.1,0.2l0,0.2l0,0.2l0,0.1l0,0.1l0,0.2l0,0.2l0,0.2l0,0.1
				l0,0.2l0,0.2l0,0.2l0,0.2l0,0.1l0,0.1l0.1,0.2l0,0.1l0,0.1l0.1,0.1l0,0.1l0,0l0,0.1l0.1,0.1l0,0.1l0,0.1l0.1,0.1l0.1,0.2l0.1,0.1
				l0,0.1l0,0.1l0,0.1l0,0.1l0.1,0.2l0.1,0.1l0,0l0.7,1.1l0.2,0.3l0.1,0.2l0,0.1l0.1,0.1l0.1,0.1l0.1,0.1l0.1,0.2l0,0.1l0,0.2l0,0.2
				l0,0.1l0,0.1l0,0.1l0,0.1l-0.1,0.1l0,0l0,0l0,0.1l-0.1,0.1l0,0.7l0,0l0,0.2l0,0.1l0,0l0,0l0,0l0,0l-0.1-0.1l0-0.2l0,0l0-0.6
				l0.1,0l0-0.1l0,0l-0.1,0l-0.2,0.1l-0.7,0l0,0.3l0,0.1l0,0.1l0,0.1l0,0.1l0,0l0,0l0,0l0,0l-0.1,0l-0.3,0l0,0.3l0.3,0l0.1,0l0.2,0
				l0,0l0,0l0.1,0l0,0l0,0l0,0l0,0l0.1-0.1l0.1-0.2l0.1,0l0,0l0,0l0,0l0,0l0,0l0,0l0,0l0,0l0,0l0,0l-0.1,0.2l-0.1,0.1l0.1,0l0,0
				l0.1,0l0,0l0,0l0,0l0,0l0.1,0l0,0l0.1,0.1l0.1,0.2l0.1,0.2l0.1,0.2l0,0.2l0,0.2l0,0.2l-0.1,0.2l-0.1,0.2l-0.1,0.2l-0.1,0.2l0,0.2
				l0,0.2l-0.1,0.2l0,0.2l0,0.2l0,0.3l0,0.3v0.3l0,0.3l0,0.2l0,0.3l0,0.3l0,0.3l0.1,0.3l0.1,0.3l0.1,0.4l0.1,0.3l0,0.1l0.1,0.2
				l0.1,0.2l0.1,0.2l0.1,0.3l-0.3,0.2l0,0.1l0,0.1l0,0.1l0,0.1l0.1,0.1l0.1,0.2l0.1,0.1l0.1,0.1l0.1,0.1l0.1,0.2l0,0l0,0l0,0l0,0
				l0,0l0.1,0.1l0.1,0.1l0.1,0.1l0,0.1l0.1,0.1l0,0l0,0.1l0,0.1l0.1,0.1l0,0.1l0,0.1l0,0l0,0.1l0,0l0,0l0,0.1l0,0.1l0,0.1l0,0.1
				l0,0.1l0,0.1l0,0.1l0,0l0,0.1l0,0l0,0l0,0.1l0,0.1l0,0.1l0,0l0,0l0,0l0,0l0,0.1l0,0l0,0l0,0l0,0l0,0l-0.1,0l-0.1,0l-0.1-0.1l0,0
				l0,0.1l0,0l-0.1,0.1l-0.1,0.1l-0.1,0.1l0,0l0,0.1l-0.1,0.1l0,0l0,0l0,0l0,0.1l0,0.2l0,0.3l0,0.3l0,0.2l0,0.3l0,0.2l0,0.2l0,0.2
				l0,0.2l0,0.3l0,0.2l0,0.2l0,0.1l0,0.1l0,0l0,0l0,0.1l0,0l0.1,0.2l0.1,0.4l0.1,0.2l0,0.1l0,0.1l0.1,0.1l0.1,0.1l0.1,0.1l0.2,0.2
				l0.1,0.1l0.1,0.1l0.1,0.1l0.1,0.1l0.1,0.1l0,0l0.1,0.1l0.1,0.1l0.1,0.1l0,0l0,0l0.9-0.7l0.1,0.1l-1.3,1.1l-0.1-0.1l-0.3,0.2l0,0
				l0,0.1l0,0.1l0,0l0,0.1l0.1,0.1l0.1,0.1l0,0l0,0.1l0,0.1l0.2,0.3l0.1,0.2l0.1,0.1l0.1,0.2l0,0.1l0,0.1l0.1,0.2l0.1,0.1l0.1,0.1
				l0.1,0.2l0,0.1l0,0.1l0,0.1l0,0l0.5-0.3l0.5-0.3l0.1,0l0,0l0,0l0,0l0,0l0,0l0,0l0,0l-0.3,0.2l-0.5,0.3l-0.7,0.5l0-0.1l-0.2,0.1
				l0,0.1l0,0.1l0.1,0.2l0,0.1l0.1,0.2l0.1,0.2l0,0l0.1,0.2l0.1,0.1l0.1,0.2l0,0l0.1,0.1l0.1,0.1l0.1,0.1l0.1,0l0,0l0,0l0,0l0.1,0.1
				l0.1,0.1l0.1,0.2l0,0l0,0.1l0,0.1l0,0.1l0.5-0.3l0.3-0.2l0,0.1l0,0l-0.4,0.3l-0.7,0.4l-0.4,0.3l0-0.1l0,0l0,0l0,0l0,0.1l0,0.1
				l0.1,0.1l0.1,0.1l0.1,0.2l0,0.1l0.1,0.1l0.1,0.1l0,0l0.1,0.2l0.1,0.2l0.2,0.2l0.2,0.2l0.1,0.1l0.1,0.1l0.1,0.1l0.1,0.2l0,0.1
				l0,0.1l0,0l0,0l0.3-0.3l0.4-0.3l0,0.1l-0.2,0.2l0,0l-0.4,0.3l-0.5,0.4l-0.4,0.3l-0.1-0.1l0,0l0,0l0,0l0,0.1l0,0.1l0,0.1l0.2,0.2
				l0.1,0.1l0.1,0.2l0,0.1l0.1,0.1l0.2,0.2l0.2,0.2l0.1,0.1l0,0l0.1,0.1l0.1,0.1l0.1,0.1l0.1,0.1l0.1,0.1l0.1,0.1l0,0.1l0,0l0,0
				l0.6-0.6l0.2-0.1l0.1-0.1l0,0l0,0l-0.6,0.6l-0.5,0.4l0,0.1l0.1,0.1l0.1,0.1l0.1,0.2l0.1,0.1l0.1,0.2l0,0l0.2,0.2l0.1,0.1l0.1,0
				l0.1,0l0.1,0l0.1,0l0,0l0.1,0l0.1,0l0.1,0l0,0l0.1,0l0,0l0.1,0.1l0,0l0,0l0,0.1l0,0.1l0.1,0.1l0.1,0.1l0.1,0.1l0,0l0,0l0,0
				l0.3,0.4l0.2,0.2l0.1,0.1l0.1,0.1l0.1,0.1l0.1,0.1l0.1,0l0.1,0l0.1,0.1l0,0l0,0l0,0l0,0l0.1,0.1l0.1,0.1l0.1,0.1l0.1,0.1l0.1,0.1
				l0.1,0.1l0.1,0.1l0,0v0l0.1,0.1l0.1,0.1l0.1,0.1l0.2,0.1l0.2,0.1l0.2,0.1l0.2,0.1l0.1,0.1l0.1,0.1l0,0l0.1,0l0,0l0.1,0.1l0.1,0.1
				l0.1,0l0.1,0.1l0,0l0,0l0.4,0.1l0.3,0.1l0.2,0l0.3,0l0.2,0l0,0l0.1,0l0.1,0l0.2,0l0.2,0l0.1,0l0.1,0l0.1,0l0.1,0l0.1,0l0.1,0
				l0.1,0l0.1,0l0.1,0l0.1-0.1l0.1-0.1l0.1-0.1l0.1-0.1l0.1-0.1l0.1,0l0.1,0l0.1,0l0,0l0.1,0.1l0,0.1l0,0l0,0.1l0,0.1l0,0.1l0,0l0,0
				l0,0.1l0,0.1l0,0l0,0.1l0,0.1l0,0l0.1-0.1l0.1-0.1l0,0l0,0l0.1-0.1l0.1-0.1l0.1-0.1l0-0.1l0-0.1l0-0.1l0,0l0-0.1l0-0.1l0-0.1
				l0-0.4l0-0.2l0-0.2l0,0l0-0.1l0-0.1l0-0.1l0-0.1l0,0l0-0.1l0,0l0-0.1l-0.1,0l-0.1,0l-0.1,0l-0.1,0l-0.1,0l-0.1,0l0,0l0,0l0,0
				l-0.1,0l-0.1,0l-0.1,0l-0.1,0l-0.1,0.1l0-0.1l0,0l0.1,0l0.1,0l0.1,0l0.1,0l0.1,0l0.1,0l0.1,0l0.1,0l0.1,0l0,0l0.1,0l0.1,0l0.1,0
				l0.1,0.1l0.1,0.1l0,0l0,0l0,0.1l0,0.1l0,0.1l0,0.1l0,0.1l0,0.4l0,0.3l0,0l0,0.1l0,0.1l0,0.1l0,0.1l0,0l0,0.1l0,0l0,0.1l0,0.1
				l-0.1,0.1l-0.1,0.1l-0.1,0.1l0,0l-0.1,0.1l-0.1,0.1l-0.1,0.1l-0.1,0.1l-0.1,0.1l-0.1,0.1l-0.1,0.1l-0.1,0.1l-0.1,0.1l-0.1,0l0,0
				l0,0l-0.1,0.1l-0.2,0l-0.2,0l-0.2,0l-0.2,0l-0.2,0l-0.2,0l-0.1,0l-0.2,0l-0.2,0l-0.1,0l-0.1,0l-0.1,0l-0.2,0.1l-0.1,0.1l-0.1,0.1
				l-0.1,0.1l-0.1,0.1l-0.1,0.1l-0.1,0.1l0,0l-0.1,0.1l-0.1,0.1l-0.1,0.1l-0.5,0.5l-0.1,0.1l-0.7,0.7l-0.6,0.6l0,0l0,0.3l0,0.4
				l0,0.4l0,0.1l0,0.1l0,0.1l0,0.1l0,0.1l-0.1,0.1l-0.1,0.1l-0.1,0.1l0,0l0,0.1l0,0.1l0,0.1l0,0.1l0,0.2l0,0.2l0,0.2l0,0.2l0,0.2
				l0,0.2l0,0.2l0,0.6l0,0.5l0,0.3l0,0.4l0,0.4l0,0.3l0,0.2l0.1,0.4l0,0.2l0,0.2l0.1,0.3l0,0.1l0,0.2l0,0l0.2,0.5l0.1,0.5l0.1,0.4
				l0.1,0.5l0.1,0.2l0.2,0.6l0.1,0.5l0,0.2l0,0.1l0.2,0.8l0,0.1l0.2,0.6l0.3,1.2l0.1,0.4l0,0l-0.1,0l-0.1,0l0.1,0.1l0.1,0.1l0.1,0.1
				l0.1,0l0,0l0.1,0l0,0l0,0l0.1,0l0,0l0,0l0,0l0,0l0,0l0.1,0.1l0.1,0.1l0,0l0,0l0.1,0.1l0.1,0.1l0,0l0,0l0,0l0,0l0.1,0.1l0.1,0.1
				l0.1,0.1l0.1,0.1l0,0.1l0,0l0,0l0,0l0,0.1l0.1,0.2l0.1,0.2l0.3,0.4l0.1,0.1l0.3,0.5l0.1,0.2l0,0.1l0,0.1l0,0.1l0,0.1l0,0.1l0,0.1
				l0,0.1l0,0.1l0,0l0,0l0,0l0,0l0,0l0,0l0,0l0,0l0,0l0,0l0.2,0.1l0.2,0.1l0.2,0.1l0.2,0.1l0.2,0l0.2,0l0,0l0.7,0.2l0.1,0l0.1,0
				l0.2,0.1l0.1,0l0.6,0.2l0.1,0l0.1,0l0.1,0l0,0l0.2,0.1l0,0l0.1,0.1l0.1,0.1l0.1,0.1l0,0l0,0l0.1,0.1l0.1,0.1l0.1,0.1l0.1,0.2
				l0,0.1l0,0.1l0.1,0.2l0.1,0.2l0.2,0.4l0,0l0.4,0.7l0.1,0.1l0.3,0.6l0.1,0.2l0.3,0.6l0.1,0.1l0.3,0.6l0.1,0.2l0.2,0.4l0,0l0.4,0.8
				l0,0l0.4,0.7l0.1,0.3l0.3,0.5l0.1,0.3l0.3,0.5l0,0.1l0,0.1l0.2,0.3l0.2,0.4l0.3,0.6l0.1,0.2l0.4,0.8l0,0l0.4,0.8l0.2,0.4l0.2,0.4
				l0.1,0.2l0.1,0.1l0.3,0.4l0.3,0.5l0.1,0.2l0,0.1l0.5,0.8l0.5,0.8l0,0l0,0l0.2-0.1l0.2-0.1l0.3-0.1l0.4-0.2l0.3-0.1l0.1,0l0.1,0
				l0,0l0,0l0.1,0l0.1,0l0.4,0.1l0.2,0l0.2-0.4l0,0l0-0.1l0,0l0.1-0.2l0.1-0.2l0.1-0.3l0.1-0.1l0.1-0.2l0.2-0.4l0,0l0-0.1l0.1-0.2
				l0.1-0.1l0-0.1l0.1-0.2l0,0l0.1-0.1l0-0.1l0.1-0.2l0-0.1l0.1-0.3l0-0.1l0.1-0.1l0.2-0.3l0.1-0.2l0.1-0.2l0-0.1l0-0.1l0,0l0-0.1
				l0.1-0.1l0-0.1l0.1-0.1l0,0l0.1-0.2l0.1-0.2l0,0l0.1,0l0,0l0.1,0l0.5,0l0.4,0l0.5,0l0.4,0l0.4,0l0.3,0l0.1,0l0.1,0l0.1,0l0.1,0
				l0,0l0,0l0,0l0,0l0,0l0,0l0,0l0,0l0,0l0,0l0,0l0,0l0,0l0,0l0,0l0,0l0,0l0,0l0,0l0,0l0,0l0,0l0,0l0,0l0,0l0,0l0,0l0,0l0,0l0,0l0,0
				l0,0l0,0l0,0l0,0l0,0l0,0l0,0l0,0l0,0l0,0l0,0l0,0l0,0l0,0l0,0l0,0l0,0l0,0l0,0l0,0l0,0l0,0l0,0l0,0l0,0l0,0l0,0l0,0l0,0l0,0l0,0
				l0,0l0,0l0,0l0,0l0,0l0,0l0,0l0,0l0,0l0,0l0,0l0,0l0,0l0,0l0,0l0,0l0,0l0,0l0,0l0,0l0,0l0,0l0,0l0.1,0l0.1,0l0-0.1l1,0l0,0.1
				l0.2,0l0,0l0,0l0,0l0,0l0,0l0,0l0,0l0,0l0,0l0,0l0,0l0,0l0,0l0,0l0,0l0,0l0,0l0,0l0,0l0,0l0,0l0,0l0,0l0,0l0,0l0,0l0,0l0,0l0,0
				l0,0l0,0l0,0l0,0l0,0l0,0l0,0l0,0l0,0l0,0l0,0l0,0l0,0l0,0l0,0l0.1,0l0.1,0l0.1,0l0.1,0l0,0l0.1,0l0.1,0l0.2,0l0.3,0l0.1,0l0.1,0
				l0.2,0l0.2,0l0.2,0l0.4,0l0.6,0l0.6,0l0.3,0l0.1,0l0.1,0.1l0,0.1l0,0.1l0,0.1l0,0.3l0,0.1l0,0.4l0,0.2l0,0.2l0,0.5l0,0.2l0,0.4
				l0,0.3l0,0.1l0,0.3l0,0.2v0v0.2l0,0.4l0,0.4l0,0.8l0,0.4l-0.1,0.1l-1.9,0.1l-0.4,0l-0.4,0l-1.3,0l-6.6,0.2l0,0.1l0,0.8l0,0.8
				l0,0.1l6.5-0.2l1.1,0l2-0.1l3-0.1l0,0l0-0.1l0.1,0l0,0l0,0l0,0l0,0l0,0l0,0l0,0l0,0l0,0l0,0l0,0.1l0,0.3l2.9-0.1l0,0.6l0,0.8
				l0,0.3l-2.9,0.1l0,0.6l0,0l0,0l0,0l0,0l0,0l0,0l0,0l0,0l0,0l0,0l-0.1,0l0-0.1l-1.2,0l-1.5,0l-1.6,0.1l-0.9,0l-0.6,0l-0.4,0
				l-3.2,0.1l-2.9,0.1l0,0.4l0,1.2l0,0.8l0,0.7l2.6,0l0,0l0,0l0,0l0,0l0,0l0,0l0,0.1l0,0l0,0l0,0l0,0l0,0l-0.1,0l0,0l0,0l0,1.1
				l0.1,0l0.1,0.1l2.3-0.1l0.3,0l0.3,0l0,0l0,0l0-0.1l0.3,0l0,0l0,0l0.1,0.1l0.6,0l0,0l0,0l0,0l0,0l0,0l0,0l0,0l0,0l0,0l0,0l0,0l0,0
				l-0.2,0l-0.3,0l-0.1,0.2l0.1,0.2l1,0l0.9,0l1.2,0l0.5,0l0,0l0,0l0,0l0,0l0,0l0,0l0,0l0,0l0,0l0,0l0,0l0,0l-0.6,0l-1.3,0l-1.3,0
				l-0.5,0l-0.1,0.1l-0.1,0l-0.2,0l0-0.1l-0.6,0l-0.2,0l-2.2,0.1l-0.1,0.1l-0.4,0l0-0.1l-0.8,0.1l-0.1,0l-2,0.3l0,0.1l0,0.1l0,0.1
				l0,0l0,0l0,0l0,0l0,0l0,0.1l0,0l0,0.2l0,0.5l0,0.3l0,0l0,0l0,0l0,0l0,0l0,0l0,0l0,0l0,0l0,0.4l0,0.4l0,0.4l0,0.7l0,0.1l0,0.8
				l0,0.2l0,0.6l0,0l0,0.1l0,0.1l0,0l0,0l0,0.1l0,0.1l0,0.1l0,0.2l0,0.1l0,0l0,0l0,0l0,0.1l0,0.1l0,0.1l0,0l0,0.3l0,0l0,0.1v0l0,0.1
				l0,0l0,0.3l0,0l0,0.3l-2.3,0l-1.6,0v0l0,0.4l0,0.1l0,0.1l0,0.1l0,0.1l0,0l0,0.1l0,0.1l0,0.1l0,0.1l0,0.1l0,0.1l0,0.1l-0.1,0.1
				l0,0l0,0.1l0,0l-0.1,0.1l-0.1,0.1l-0.1,0.1l-0.1,0.1l-0.1,0.1l-0.1,0.1l-0.1,0.1l-0.1,0.1l-0.1,0.1l0,0l-0.1,0l-0.1,0.1l-0.1,0.1
				l-0.1,0.1l-0.1,0l-0.1,0l-0.2,0.1l-0.2,0.1l-0.2,0.1l-0.2,0l0,0l-0.1,0l-0.1,0l-0.3,0l-0.2,0l-0.3,0l-0.4,0l-0.1,0l-0.1,0l-0.1,0
				l-0.1,0l-0.1,0l-0.1,0l-0.1,0.1l-0.1,0.1l-0.1,0.1l-0.1,0.1l-0.1,0.1l-0.1,0.1l-0.1,0.1l0,0l0,0l-0.1,0.1l0,0.1l0,0.1l0,0.1
				l0,0.1l0,0.1l0,0.1l0,0.5l1.1,0l0,0.3l0,0.8l0,0l0,0.6l-0.8,0l-0.1,0l-0.1,0l0,0l0,0.2l0,0.8l0,0.5l0.1,0l0,0.3l0,0.8l0,0.8
				l0,0.6l0,0.2l0,0.6l0,0.2l0,0.3l0,0l0,0l0,0l0,0.5l0,0.3l0,0.5l0,0.3l0,0.3l0,0.3l0,0.2l0,0.5l0,0.1l0,0.6l0,0.2l0,0.5l0,0.3
				l0,0.4l0,0.4l0,0.2l0,0.5l0,0.1l0,0.7l0,0l0,0.5l0,0.1l0,0l0,0.2l0,0.2l0,0.6l0,0.8l0,0.8l0,0.4l0,0.3l0,0.1l0,0.5l-0.1,0l0,0.3
				l0,0l0,0l0,0l0,0l0,0.2l0,0.1l0,0l0,0l0,0l0,0.3l0,0.8l0,0.4l0,0.4l0,0.8l0,0.7l0,0.1l0,0.8l0,0.8l0,0l0.1,0.1l0.1,0.1l0.1,0.1
				l0.1,0.1l0.1,0.1l0.1,0.1l0.1,0.1l0,0l0.1,0.1l0,0l0.1,0.1l0.1,0.1l0.1,0.1l0.1,0.1l0.9,0l0.1-0.1l0,0l0.1-0.1l0.1-0.1l0.1,0
				l0.1,0l0.1,0l0.1,0l0.2,0l0.2,0l0.2,0l0.2,0l0.2,0l0,0l0.1,0l0.1,0l0.1,0l0.1,0l0.1,0.1l0.1,0.1l0.1,0.1l0.1,0.1l0.1,0.1l0,0
				l0.1,0.1l0,0l0,0l0.1,0.1l0.1,0.1l0,0l0,0.1l0,0.1l0,0.1l0,0.1l0,0l0,0.1l0,0.1l0,0.1l0,0.1l0,0.1l0,0.1l0,0.1l0,0l0,0.1l0,0.1
				l0,0.1l0,0.1l0,0l-0.1,0.1l-0.1,0.1l-0.1,0.1l0,0.1l0,0.3l2.9-0.1l0,0l0,0l0,0l0,0h0l1.4,0l2.1-0.1l0.5,0l0-0.1l0,0l0.1-0.1
				l0.1-0.1l0.1-0.1l0.1-0.1l0.1-0.1l0,0l0.1-0.1l0.1-0.1l0.1,0l0.1,0l0.1,0l0.1,0l0.1,0l0.1,0l0.1,0l0.1,0l0.1,0l0.1,0l0.1,0l0.1,0
				l0.1,0.1l0.1,0.1l0,0l0.1,0.1l0.1,0.1l0.1,0.1l0.1,0.1l0.1,0.1l0.1,0.1l0.1,0.1l0.1,0.1l0,0.1l0,0.1l0,0.1l0,0.1l0,0.1l0,0.1
				l0,0.1l0,0.1l0,0.1l0,0.1l0,0.1l0,0.1l0,0.1l-0.1,0.1l-0.1,0.1l-0.1,0.1l-0.1,0.1l-0.1,0.1l-0.1,0.1l-0.1,0l0,1.5l0,0.1l0,0.1
				l-0.4,0l0-0.1l0-0.1l0-0.1l0-0.1l0,0l0,0l0,0l-0.1-0.1l0,0l0,0l0,0l0,0l0,0l0,0l0,0l0,0l0,0l-0.1,0l-0.1,0l-0.1,0l-0.1,0
				l-0.1,0.1l-0.1,0.1l-0.1,0.1l0,0l-0.1,0.1l-0.1,0.1l-0.1,0.1l0,0.1l0,0.1l-0.1,0.1l-0.1,0.1l0,0.1l-0.1,0.2l0,0.2l0,0.1l0,0.1
				l0,0l0,0.2l0,0.2l0,0.2l0,0.2l0,0l0,0.2l0,0.2l0,0.2l0,0.1l0.1,0.2l0.1,0.5l0.1,0.3l0.1,0.3l0.1,0.4l0,0.1l0.1,0.5l0,0.1l0,0.1
				l0,0.1l0,0l0.1,0.1l0.1,0l0,0l0.1,0l0,0.1l0,0.1l0,0l0,0l0,0l0,0l0,0l0,0l0,0l0,0l0,0l0,0l0.1,0l0.1,0l0.2,0.3l0.5,0l0,0l0.1,0
				l0,0l0,0l0,0l0,0.1l0,0.8l0,0.6l0,0.2l0,0.8l0,0.5l0,0.3l0,0.2l0,0.3l-0.6,0l-0.6,0l-0.3,0.2l0,0.1l0,0.8l0,0.8l0,0l0,0.8
				l0.1,0.8l0,0.2l0,0.6l0,0.8l0,0.1l0,0.4l0,0.3l0,0.8l0,0.3l0,0.4l0.1,0.8l0,0.2l0,0.1l0,0.5l0,0.8l0,0.2l0,0.5l0,0.8l0,0.2l0,0.4
				l0,0.2l0,0.6l0.1,0l0,0.1l0,0l-0.5,0.1l-0.9,0.1l-0.5,0.1l-0.8,0.1l-0.4,0l-0.1,0l-0.1,0l-0.1,0l-0.1,0l-0.1,0l-0.1,0l-0.1,0
				l-0.1,0l-0.1-0.1l0,0l-0.1,0l-0.1-0.1l-0.1-0.1l0,0l0,0l-0.1-0.1l0-0.1l0,0l-0.1-0.1l-0.1-0.1l0-0.1l0-0.1l0,0l0-0.1l0-0.1l0,0
				l0-0.1l0-0.1l0-0.1l0-0.1l0,0l0-0.1l0.1-0.6l0-0.2l0.1-0.8l0-0.3l0.1-0.5l0.1-0.8l0-0.2l0.1-0.6l0.1-0.4l0-0.1l0-0.1l0-0.1l0,0
				l0,0l0-0.1l0,0l0-0.1l0-0.1l0-0.1l0-0.1l0-0.1l0-0.1l0-0.1l0-0.1l0-0.1l0,0l0-0.1l0,0l0-0.1l-0.1-0.1l-0.1-0.1l-0.1-0.1l-0.1-0.1
				l-0.1-0.1l0-0.1l0-0.1l-0.1-0.1l-0.1-0.1l0-0.1l0-0.1l0-0.1l0,0l0,0l0-0.4l0-0.1l0-0.1l0-0.1l0-0.1l0,0l0-0.1l0,0l0-0.2l0-0.1
				l0-0.1l0-0.1l0-0.1l0-0.1l0,0l0-0.1l0-0.1l0-0.1l0-0.1l-0.1-0.1l-0.1-0.1l0,0l-0.1-0.1l-0.1-0.1l0,0l-0.1-0.1l-0.1,0l-0.1,0l0,0
				l0,0l0-0.1l0-0.1l0-0.1l0,0l0-0.1l0-0.1l0-0.1l0-0.1l0,0l0-0.1l0-0.1l0-0.1l0-0.1l0-0.1v-0.1l0-0.1l0,0l0-0.1l0-0.1l-0.1-0.2l0,0
				l0,0l0,0l0,0l0,0l0,0l0,0l-0.1,0l0-0.1l0,0l0-0.7l0.1,0l0.1,0l0.1,0l0,0l0,0l0,0l0,0l0,0l0-0.1l0,0l0,0l0-0.1l0,0l0.1,0l0-0.5
				l0-0.5l0.1,0l0.1-0.2l0.2-0.3l0.1-0.2l0.1-0.2l0-0.1l0-0.1l0.1-0.2l0-0.1l0.1-0.4l0.1-0.3l0,0l0.1-0.5l0,0l0,0l0-0.2l0-0.3l0-0.3
				l0-0.1l0-0.1l0,0l0-0.1l0,0l0-0.2l0,0l0-0.1l0.1,0l0-0.2l0,0l0-0.1l0-0.1l0-0.2l0-0.2l0-0.2l0-0.2l0-0.2l0-0.2l0-0.1l-0.1-0.2
				l0-0.1l0,0l-0.1-0.3l0,0l-0.1-0.3l0-0.1l-0.1-0.2l-0.1-0.3l-0.1-0.2l-0.1-0.1l-0.1-0.2l-0.1,0l0,0l0-0.1l0-0.6l0-0.3l-1.6,0
				l-1.6,0l0,0.3l0,0.8l-0.1,0l-0.1,0.2l-0.1,0.2l-0.1,0.4l-0.1,0.2l-0.1,0.2l-0.1,0.4l0,0.1l0,0l-0.1,0.2l-0.1,0.2l0,0.2l0,0.1
				l0,0.1l-0.1,0.8l0,0l0,0.2l0,0.2l0,0.2l0,0.2l0,0l0,0.1l0,0.1l0,0.1l0,0.1l0,0.1l0,0l0,0.2l0,0l0.1,0.2l0.1,0.2l0.1,0.2l0,0.1
				l0,0.1l0.1,0.1l0.1,0.2l0.1,0.2l0,0l0.1,0.2l0.1,0.2l0.1,0.2l0.1,0.1l0.1,0.1l0.1,0.1l0.1,0l0,0.5l0,0.5l0,0l0.1,0l0,0.1l0,0l0,0
				l0,0l0.1,0.1l0,0l0,0l0,0l0,0l0.1,0l0.1,0l0.1,0l0,0l0,0.3l-0.3,0l0,0.2l0.3,0l0,0l0.1,0l0,0.1l0,0v0l0,0l0,0.2l-0.2,0l-0.1,0.1
				l0,0.2l0,0.1l0,0.1l0,0l0,0.1l0,0l0,0.2l0,0.1l0,0.1l0,0.1l0.1,0.2l0,0.1l0,0.1l0,0.1l0,0.1l0,0.4l0,0.2l0,0.5l0,0.1l0,0.1
				l-0.1,0.1l-0.2,0l-0.2,0l-0.1,0.1l-0.1,0.1l-0.1,0.1l-0.1,0.1l0,0.1l0,0l0,0.1l0,0.1l-0.1,0.2l-0.1,0.2l0,0.1l0,0.1l0,0.2l0,0.2
				l0,0l0,0.2l0,0.2l0,0.1l0,0.1l0,0.1l0,0.1l0,0.1l0,0l0,0.2l0.1,0.2l0.1,0.2l0.1,0.1l0,0.1l0,0.1l0,0.1l0,0.1l0,0.1l0.1,0.1
				l0.1,0.1l0,0l0.1,0.1l0.1,0.1l0.1,0.1l0.1,0.1l0,0l0.1,0.1l0.1,0.1l0,0l0.1,0.1l0.1,0.1l0,0l0.6,0.5l0.3,0.3l0.1,0.1l0.1,0.1
				l0.1,0.1l0.1,0.1l0.1,0.1l0,0l0.1,0.1l0.1,0.1l0,0.1l0,0.1l0,0.1l0,0.1l0,0l0,0.1l0,0.1l0,0.2l0,0.2l0,0.2l0,0l0,0l0,0.2l0,0.2
				l0,0.2l0,0l0,0.2l0.1,0.2l0,0l0,0.1l0,0.2l0,0.1l0,0.2l0.1,0.2l0.1,0.2l0.1,0.2l0,0.1l0.1,0.2l0.1,0.1l0.2,0.3l0,0.1l0.1,0.2
				l0.2,0.3l0.2,0.3l0,0l0.1,0.2l0.3,0.6l0.3,0.4l0.1,0.1l0.1,0.1l0,0.1l0,0.1l0.1,0.1l0,0.1l0,0.1l0,0.1l0,0.1l0,0l0,0.1l0,0.2
				l0,0.2l0,0.2l0,0.2l0,0.1l0,0.1l0,0l-0.1,0.7l-0.1,0.4l-0.1,0.4l0,0l-0.1,0.6l0,0.1l0,0.1l0,0.3l0,0.2l0,0.2l0,0.2l0,0.1l0,0
				l0.1,0.7l0,0.5l0,0.1l0,0.1l0,0.1l0,0.1l0.1,0.1l0.1,0.1l0,0.1l0.4,0.6l0.5,0.8l0.2,0.3l0.1,0.1l0,0.1l0,0l0,0.1l0,0.1l0,0.1
				l0,0.1l0,0.1l0,0.1l0,0.1l0,0.1l0,0.1l0,0.1l0,0.1l0,0.1l0,0.1l0,0l-0.1,0.2l-0.1,0.2l-0.1,0.2l-0.1,0.1l-0.3,0.5l-0.1,0.1l0,0.1
				l0,0.1l0,0.1l0,0.1l0,0.1l0,0.1l0,0.1l0,0.4l0.1,0.1l0.1,0.2l0.1,0.1l0.1,0.2l0,0.2l0,0.1l0,0.2l0.1,0.2l0.1,0.4l0.1,0.1l0.1,0.2
				l0.1,0.3l0.2,0.2l0.1,0.2l0.2,0.3l0.1,0.3l0.2,0.3l0.1,0.1v0.2l0,0.4l0,0.3v0.3v0.3v0.2l0,0.2l0.1,0.3l0.1,0.2l0.2,0.3l0.1,0.2
				l0.1,0.2l0.1,0.1l0.8-0.2l0.4,0.2l0,0.1l-0.4-0.2l-0.7,0.2l0.1,0.1l0,0.1l0,0l0,0l0,0l0,0l0.1,0.2l0.1,0.3l0.2,0.9l0.2,0.3
				l0.1,0.1l0.1,0.1l0.1,0l0.1,0.1l0.1,0.1l0.1,0.1l0.1,0.1l0.1,0.1l0.1,0.1l0.1,0.1l0,0l0,0l0,0l0.4,0.9l0,0l2-0.6l0.6-1.2v-0.5
				l0.1,0l0,0.5l-0.7,1.3l-2.1,0.6l0,0.1l0,0.2l0,0.3l0,0.3l0,0.3l0,0.3l0,0.4l0,0.4l0,0.3l0.1,0.4l0.1,0.4l0.1,0.4l0,0.2l0.1,0.2
				l0.1,0.3l0.2,0.4l0.2,0.3l0.3,0.5l0.3,0.4l0.4,0.5l0.3,0.3l0.1,0.1l0,0.3l-0.3,0.4l-0.4,0.3l0.1,0.3l0.1,0.4l0.1,0.5l0.2,0.4
				l0.2,0.3l0.1,0.2l0.2,0.2l0.1,0.1l0.2,0.1l0.2,0.1l0.2,0.1l0.2,0h0.2l0.2,0l0.2,0.1l0.2,0.1l0.1,0.1l0.2,0.2l0.1,0.2l0.2,0.2
				l0.1,0.3v0.2l0,0.3l0,0.4v0.2l0,0.3l0,0.3l0,0.3l0.1,0.2l0.1,0.4l0.1,0.3l0.2,0.3l0.2,0.3l0.2,0.3l0.2,0.3l0.3,0.3l0.1,0.2
				l0.2,0.4l0.1,0.2l0.3,0.5l0.3,0.6l0.3,0.4l0.2,0.3l0.5,0.9l0.2,0.2l0.1,0.3l0.1,0.2l0.2,0.2l0.3,0.3l0.3,0.3l0.3,0.2l0.3,0.2
				l0.2,0.2l0.2,0.2l0.2,0.2l0.2,0.2l0.2,0.2l0.3,0.3l0.2,0.2l0.1,0.2l0.1,0.2l0.2,0.3l0.1,0.2l0.1,0.3l0,0.2l0,0.3v0.3l0,0.3l0,0.3
				l-0.1,0.2l-0.1,0.3l-0.1,0.4l0,0.3l0,0.4l0,0.3l0,0.3l0.1,0.4l0,0.2l0.1,0.3l0.1,0.2l0.1,0.4l0,0.2l0,0.1l0,0.1l0,0.1l0,0.1l0,0
				l0,0.1l0,0.1l0,0l0,0l0,0l0,0l0,0l0,0l0,0l0,0l0,0l0,0l0,0l0,0l0,0.1l0,0l0,0l0.1,0l0,0l0,0l0,0.1l0,0l0,0l0,0l0.1,0l0,0v0l0,0
				l0,0l0,0l0.1,0.1l0,0l0,0l0,0.1l0,0.1l0.1,0.1l0,0.1l0,0.1l0,0.1l0,0l0,0l0,0l0,0.1l0.1,0.2l0,0.1l0,0l0,0l0.1,0.1l0.1,0.1
				l0.1,0.1l0.1,0.1l0.1,0.1l0.1,0.1l0.1,0.1l0.1,0.1l0.1,0.1l0.1,0.1l0,0l0.2,0.1l0.1,0.1l0.1,0.1l0.1,0.1l0.1,0.3l0,0.1l0.1,0.1
				l0.1,0.1l0.1,0.1l0,0.1l0,0.1l0,0.1l0.1,0.1l0,0.1l0,0.1l0,0l0,0l0,0l0,0l0,0l0,0.1l0,0.1l0.1,0.2l0.1,0.1l0.5,0.7l0.3,0.1
				l0.2,0.1l0.1,0l0.1,0.1l0.1,0.1l0.1,0.1l0.1,0.1l0.2,0.2l0.1,0.1l0.1,0.1l0.1,0.1l0.2,0.1l0.2,0.1l0.1,0.1l0.1,0.1l0.1,0.1
				l0.1,0.1l0.1,0.1l0.1,0.1l0.1,0.1l0.1,0.1l0.2,0.1l0.1,0.1l0.1,0.1l0.1,0.1l0.1,0.1l0.1,0.1l0.1,0.1l0.1,0.1l0.1,0.2l0.1,0.1
				l0.1,0.1l0.1,0.1l0.1,0.2l0.1,0.2l0.1,0.2l0,0.2l0,0.3v0.4l0,0.3l0,0.3l0,0.2l0,0.4l0,0.1l0,0.1l0,0.1l0,0.1l0,0l0,0l0,0.1l0,0.1
				l0,0l0.1,0.1l0.1,0.1l0.1,0.1l0,0.1l0.1,0.1l0.1,0l0,0l0,0l0,0l0,0l0,0l0.1,0l0.1,0l0,0.1l0,0l0,0.1l0,0.1l0,0.1l0,0.1l0,0
				l0.1,0.2l0,0.1l0,0.1l0,0.1l0,0.1l0,0.1l0.1,0l0,0.1l0,0.1l0.1,0.1l0.1,0.1l0.1,0.1l0.1,0.1l0,0.1l0,0l0.1,0.1l0.1,0.1l0.1,0.1
				l0,0.1l0,0.1l0,0.1l0.1,0l0.1,0l0.1,0.1l0,0.1l0,0.1l0,0.1l0,0.1l0,0.1l0,0.1h-0.1l-0.1,0l0,0l0,0l0,0.1l0,0l0,0l0,0.1l0.1,0.1
				l0.1,0.1l0,0.1l0,0.1l0,0v0.1l0,0.1l0.1,0.1l0,0.1l0,0.1l0,0.1l0.1,0.1l0,0.1l0,0.1l0.1,0l0.1,0.1l0,0.1l0,0l0,0l0.1,0.1l0.1,0.1
				l0.1,0.1l0.1,0.1l0.1,0.1l0.1,0.1l0,0.1l0,0.1l0.1,0.1l0,0l0.1,0.1l0.1,0l0.1,0.1l0.1,0.1l0,0l0,0l0,0l0,0l0.1,0.1l0.1,0.1
				l0.1,0.1l0.1,0.1l0.1,0.1l0.1,0.1l0.1,0.1l0.1,0.1l0,0.1l0,0.1l0,0.1l0.1,0.1l0.1,0.1l0.1,0.1l0.1,0.1l0.1,0.1l0.1,0l0,0l0.1,0
				l0.1,0l0.1,0l0.1,0l0.1,0l0.1,0l0.1,0h0.1l0.1,0l0,0l0.1,0l0.1,0l0,0l0.1,0h0.1l0,0l0.1,0.1l0.1,0l0.1,0l0,0l0,0l0,0l0,0.1l0,0.1
				l0,0.1l0,0l0,0.1l0,0l0,0l0,0l0,0l0,0l0,0l0,0.1l0,0l0,0l0,0l0,0l0,0l0,0l0,0l0,0l0,0l0,0l0.1,0.1l0,0v0l0,0.1l0,0l0,0l0,0l0,0
				l0,0l0,0.1l0,0.1l0,0l0,0l0,0l0,0l0,0l0,0l0,0.1l0,0.1l0,0l0,0.1l0,0.1l0,0.1l0,0.1l0,0.1l0,0.1l0,0.1l0,0.1l0,0.1l0,0.1l0,0.1
				l0,0.1l0,0.1l0,0.1l0,0.1l0,0.1l0,0.1l0,0.1l0,0l0,0l0,0.1l0.1,0.1l0.1,0.1l0,0.1l0,0.1l0,0.1l0,0.1l0,0l0.1,0.1l0,0.1l0.1,0.1
				l0,0.1l0,0.1l0,0.1l0.1,0.1l0,0.1l0,0.1l0,0.1l0,0.1l0,0l0,0l0,0l0,0l0.1,0l0,0l0,0l0.1,0l0,0.1l0,0.1l0,0.1l0,0.1l0.1,0l0,0
				l0,0.1l0.1,0.1l0,0.1l0,0.1l0,0.1l0,0l0,0l0,0l0,0l0,0.1l0,0l0,0.1l0,0.1l0,0l0.1,0.2l0.1,0.1l0.1,0.2l0,0.1l0,0l0.1,0.2l0.1,0.2
				l0.1,0.2l0,0.1l0,0l0,0l0,0l0,0.1l0.1,0.1l0.1,0l0,0l0.1,0.1l0.1,0.1l0,0.1l0,0.1l0.1,0.2l0.1,0.1l0.1,0.1l0.1,0.1l0.1,0.2
				l0.2,0.3l0.1,0.1l0.1,0.1l0.1,0.1l0.1,0.1l0.1,0.1l0.1,0.1l0.1,0.1l0,0l0.1,0.1l0.1,0.1l0,0l0,0l0.1,0.1l0.1,0.1l0.2,0.1l0.2,0.2
				l0.1,0.1l0.2,0.2l0,0.1l0.2,0.1l0.1,0.1l0.1,0.1l0.1,0.1l0.2,0.1l0.1,0.1l0.1,0.1l0.1,0.1l0,0l0.1,0l0,0.1l0,0l0,0l0.1,0.1
				l0.2,0.2l0.2,0.2l0.1,0.1l0,0l0.2,0.2l0.3,0.3l0.4,0.4l0.2,0.2l0.1,0.1l0.1,0.1l0.1,0.2l0.1,0.2l0.1,0.1l0.1,0.1l0.1,0l0.1,0
				l0.2,0h0l0.1,0l0.1,0h0.1h0l0.2,0.1l0.2,0.1l0.2,0.1l0.1,0.1l0.1,0.1l0.1,0.1l0.1,0.2l0,0.1l0,0.1l0,0.1l0,0.1l0,0.1l0,0.1l0,0
				l0,0l-0.1,0.2l-0.4,0.8l0.2,0.1l-0.1,0.2l0,0.3l-0.1,0.4l0,0.2l0,0.2l0,0.3l0,0.5l0,0.3l0,0.9l0,0.3l0,0.3l0,0.4l0,0.4l0.1,0.9
				l0.1,0.5l0.1,0.5l0.1,0.4l0.2,0.5l0.2,0.5l0.1,0.2l-0.2,0.1l0,0l0.1,0.2l0.3,0.3l0.1,0.1l0,0l0.1,0.1l0.1,0.1l0,0.1l0.2,0.2
				l0.2,0.2l0.1,0.1l0.1,0.1l0.1,0.1l0.1,0.1l0.1,0.1l0.1,0.1l0.1,0.1l0,0l0.1,0.1l0.1,0.1l0.1,0.1l0.1,0.1l0.1,0.1l0.1,0.1l0.1,0.1
				l0.1,0.1l0.1,0l0.1,0l0.2,0.1l0.2,0l0.2,0l0.2,0l0.1,0l0.1,0l0.2-0.1l0.2-0.1l0.2-0.1l0.1,0l0.1,0l0.1,0l0,0l0.1,0l0.1,0l0.2,0h0
				l0.3,0l0.2,0.1l0.1,0l0.1,0l0.2,0.1l0.1,0l0.1,0l0.1,0l0,0l0,0l0.1,0.1l0.1,0.1l0.1,0.1l0.1,0.1l0.1,0.1l0.1,0.2l0,0.1l0,0.1l0,0
				l0,0.2v0.1l0,0.2l0,0.1l-0.1,0.3l0,0.1l0,0.1l0,0.2l0,0.1l0,0.1l0,0.1l0,0.1l-0.1,0.1l-0.1,0l-0.2,0.1l0,0l-0.1,0l0,0l0,0l-0.1,0
				l-0.2,0.2l-0.1,0.1l-0.1,0.1l-0.1,0l-0.1,0l-0.1,0l0,0l-0.1,0l-0.1,0l-0.1,0l-0.1,0l-0.1,0l0,0l-0.1,0l-0.1,0l-0.1,0l-0.1,0
				l-0.2,0l-0.4,0.1l-0.3,0.1l-0.3,0.1l-0.1,0.1l-0.3,0.1l-0.3,0.2l-0.2,0.2l-0.2,0.2l-0.3,0.3l-0.1,0.1l0,0l-0.1,0.2l-0.1,0.1l0,0
				l0,0l0,0.2l0,0.1l0,0.1l-0.1,0.1l0,0.1l-0.1,0.1l0,0.1l0,0.1l0,0.2l0,0.1v0.2l0,0.2l0,0.2l0,0.1v0.2v0.1l0,0.2l0,0.2l0,0.2l0,0.2
				l0,0.1l-0.1,0.2l-0.1,0.1l-0.1,0.1l-0.1,0.1l0,0.1l0,0.1l0,0.1l0,0.1l0,0.1l0.1,0.1l0.1,0.1l0.1,0.2l0.1,0.1l0,0.1l0.1,0.1l0,0.1
				l0,0.1l0,0.1l0.2,0.3l0.1,0.1l0,0l0.1,0.2l0.1,0.2l0.1,0.2l0,0.1l0,0l0.1,0.1l0.1,0.1l0.1,0.1l0,0l0.1,0.2l0.1,0.2l0.1,0.2
				l0.1,0.2l0.1,0.2l0.1,0.2l0.1,0.1l0,0.1l0.1,0.1l0.1,0.1l0.1,0.1l0,0l0.2,0.2l0.2,0.2l0.2,0.2l0.2,0.2l0.2,0.2l0.1,0.1l0.2,0.1
				l0.1,0.1l0.2,0.2l0.2,0.1l0.2,0.2l0.2,0.2l0.1,0.1l0.1,0.1l0.1,0.1l0.1,0.1l0.1,0l0,0.1l-0.5,0.1l0,0.1l-0.2,0l-0.4,0l0,0l0,0
				l0,0l0,0l-0.1,0l0,0l0,0l0,0l-0.5,0l0,0.1l-0.1,0l0,0l0,0.2l0.1,0l0,0l0,0.1l0.1,0l0.1,0l0.3,0l0,0l0,0l0.1,0h0.1l0,0l0,0l0,0
				v0.1l0,0.1l-0.1,0l-0.1,0l0,0l0,0.1l0,0.2l0,0.2l0,0.2l0,0.2l0,0.2l0,0.3l0,0.3l0,0.2l0,0.3l0,0.2l0.1,0.3l0,0.3l0.1,0.3l0.1,0.3
				l0.1,0.3l0.1,0.3l0.1,0.3l0.1,0.3l0.2,0.6l0.1,0.3l0.1,0.3l0.1,0.3l0.1,0.3l0,0.1l0.1,0.2l0.1,0.3l0.1,0.2l0.1,0.3l0.2,0.5
				l0.1,0.2l0,0.1l0.1,0.1l0.1,0.1l0.1,0.1l0.1,0.1l0.2,0.1l0.2,0.1l0.1,0.1l0.2,0.1l0.1,0.1l0.1,0.1l0.1,0.1l0.2,0.1l0.1,0.1
				l0.2,0.1l0.2,0.1l0.2,0.1l0.2,0.1l0.2,0.1l0.1,0.1l0.1,0.1l0.1,0l0.1,0.1l0.2,0.1l0.2,0.1l0.2,0.1l0,0l0.1,0.1l0.1,0.1l0.1,0
				l0.3,0.2l0.4,0.2l0.3,0.2l0.1,0.1l0.1,0l0.2,0.1l0.2,0.1l0.2,0.1l0.3,0.1l0.2,0.1l0.2,0.1l0.2,0.1l0.2,0.1l0.2,0.1l0.2,0.1
				l0.2,0.1l0.2,0.1l0.2,0l0.2,0l0.2,0l0.2,0l0.1,0l0.2,0l0.1,0l0.2,0l0.8-0.3l0.2-0.1l0.9-0.3l1-5.7l0.2,0l-1,5.8l-1.2,0.4
				l-0.5,0.2l-0.4,0.1l-0.1,0l-0.2,0.1l-0.2,0.1l-0.2,0.1l-0.2,0.1l-0.2,0.1l0,0l-0.2,0.1l-0.1,0l-0.1,0l-0.2,0.1l-0.3,0.1l-0.5,0.2
				l-0.6,0.3l-0.9,0.4l-0.6,0.3l0.2,0.7l0,0.1l0,0.1l0,0l-0.1,0l-0.5,0.2l-0.5,0.1l-0.4,0.1l-0.2,0.1l-0.3,0.2l-0.2,0.1l-0.2,0.2
				l-0.1,0.2l-0.1,0.2l-0.3,0.5l0,0l0,0l0,0.1l0,0.1l0,0l0,0l0,0l0,0.1l0,0.1l0,0.1l0,0.1l0,0.1l0,0.1l0,0.2l0,0.2l0,0.2l0,0.2
				l0,0.2l0,0.2l0,0.1l0,0.1l0,0.2l0,0.2l0,0.2l0.1,0.3l0.1,0.3l0.1,0.2l0.1,0.2l0.1,0.2l0.1,0.2l0.1,0.2l0.1,0.2l0.1,0.1l0.1,0.1
				l0.1,0.1l0,0.1l0,0.1l-0.1,0.1l-0.1,0l0,0l-0.1,0l-0.2,0l-0.1,0l0.1,0.3l0.2,0l0.2,0l0.1,0l0.1,0.1l0.1,0.1l0.2,0.1l0.1,0l0.1,0
				l0.1,0l0,0l0.1,0l0.2,0l0.2,0l0.1,0l0.1,0h0.1l0,0l0,0l0.1,0l0.1,0l0,0.1l0,0.1l0.1,0l0,0l0-0.2l0-0.1l0.1-0.1l0.2,0l0.2,0l0.2,0
				l0.1,0l0.1,0l0.2-0.1l0.2-0.1l0.1,0l0.1,0l0.2-0.1l0.1,0l0.1-0.1l0.1-0.1l0.1-0.2l0.1-0.2l0.1-0.2l0-0.2l0-0.2l0-0.2l0-0.2l0-0.1
				l-0.1-0.1l-0.1-0.2l-0.1-0.2l-0.1-0.2l-0.1-0.2l-0.1-0.2l-0.1-0.1l-0.1-0.1l0-0.1l0,0l-0.1,0l-0.1-0.2l-0.2,0.2l0,0l-0.3-0.5v0
				l0.1-0.1l0,0l-0.3-0.3l-0.1-0.1l-0.1-0.1l-0.2-0.2l-0.1-0.2l0-0.1l0.1-0.2l-0.1-0.4l0-0.2l0-0.2l0-0.2l0-0.1l0-0.1l0-0.2l0.1-0.1
				l0.1-0.1l0.1-0.1l0.2,0l0.1,0l0.1-0.1l0.1-0.1l0.1,0l0.1,0l0.2,0l0.1,0.1l0.2,0.1l0.1,0.1l0.1,0.1l0,0.1l0,0.1l0,0.1l0,0.1
				l0.1,0.1l0.1,0.2l0.1,0.2l0.1,0.2l0.1,0l0.1,0l0.2,0.1l0.1,0.2l0.1,0.2l0.2,0.2l0.2,0.2l0.3,0.3l0.2,0.2l0.2,0.2l0,0l0.2,0.2
				l0.2,0.2l0.1,0.1l0.1,0.2l0.1,0.2l0.2,0.2l0.1,0.1l0.1,0.1l0.1,0l0,0l0.2,0l0.1,0.1l0.2,0.1l0.1,0.1l0.2,0.1l0.1,0.1l0.3,0.3l0,0
				l0.1,0.1l0.1,0.1l0.1,0.1l0.1,0.1l0.1,0.1l0.1,0.1l0.1,0.1l0.1,0.1l0.1,0.1l0.1,0.1l0.1,0.2l0,0l0.1,0.2l0.1,0.1l0.1,0.2l0.1,0.2
				l0.1,0.2l0.1,0.2l0.1,0.1l0.1,0.2l0.1,0.3l0,0.1l0,0.1l0,0.1l0.1,0.1l0,0l0,0l0,0l0.1,0.1l0,0.1l0,0.1l0.1,0.1l0,0.1l0.1,0.1
				l0,0.1l0,0.1l0,0.1l0,0.1l0,0.1l0,0l0,0l0.1,0.1l0,0l0,0.1l0,0.1l0,0.1l0,0.1l0,0.1l0,0l0,0l0,0l0,0l0,0l0,0l0.1,0l0.1,0l0.1,0
				l0.1,0.1l0,0.1l0,0l0,0l0,0l0,0l0,0l0,0l0,0l0,0l0,0l0,0l0,0l0,0l0,0l0,0l0,0l0,0l0,0l0,0l0,0l0,0l0,0l0,0l0,0.1l0.1,0.1l0.1,0.1
				l0.1,0.1l0.1,0.1l0.1,0.1l0.1,0.1l0.1,0.1l0.2,0.1l0.2,0.1l0.1,0.1l0.1,0.1l0.1,0.1l0.1,0.1l0.1,0.1l0.1,0.1l0.1,0l0.1,0.1
				l0.1,0.1l0.1,0.1l0.2,0.1l0.2,0.1l0.1,0.1l0.2,0.1l0.1,0.1l0.1,0l0.2,0l0.2,0l0.2,0l0.1,0.1l0,0.2l0,0.2l0,0.1l0.1,0.1l0,0.2
				l0,0.2l0,0.2l0,0.2l0,0.2l0.1,0.2l0,0.1l-0.1,0.1l0,0.1l0,0.2l0,0.2l0,0.1l0,0.1l0,0.2l0,0.2l0,0.2l0.1,0.2l0.1,0.2l0.1,0.1
				l0.1,0.2l0.1,0.1l0.1,0.1l0.1,0.2l0.1,0.2l0.1,0.2l0.1,0.1l0.1,0.2l0.1,0.1l0.1,0.1l0,0.1l0,0.1l0.1,0.2l0,0.1l0,0.1l0,0.1
				l0.1,0.1l0.1,0.1l0.2,0.1l0.2,0.1l0.1,0.1l0.2,0.1l0.2,0.1l0.2,0.1l0.2,0.1l0.2,0.1l0.2,0.1l0.2,0.1l0.2,0.1l0.2,0l0,0l0.2,0
				l0.2,0l0.2,0l0.1-0.1l0.1-0.1l0.1-0.1l0.1-0.2l0.1-0.1l0.1-0.2l0.1-0.2l0.1-0.2l0.1-0.1l0.1-0.1l0.1-0.1l0.1,0l0,0.1l0,0.2l0,0.2
				l0.1,0.2l0.1,0.2l0,0.2l0,0.2l0,0.2l0,0.2l0,0.2l0,0.2l-0.1,0.1l0,0.1l0,0.1l0,0.1l0.1,0.1l0.1,0.1l0,0.2l0,0.2l0,0.2l0,0.2
				l0,0.2l0,0.2l0,0.2l0,0.2l0,0.1l0,0.1l-0.1,0.1l-0.1,0l0,0.1v0.1l0,0.1l-0.1,0.1l-0.1,0l-0.1,0l-0.1,0l-0.2,0l-0.2,0.1l-0.1,0.1
				l-0.1,0.1l-0.1,0.1l-0.1,0.1l-0.1,0.2l-0.1,0.2l0,0.2l0,0.2l0,0.1l0,0.1l0,0.1l0,0.2l0,0.1l0.1,0.2l0.1,0.2l0.1,0.1l0.1,0.1
				l0.1-0.1l0.1,0.2l0.2,0.2l-0.1,0.1l0.1,0.1l0.1,0.1l0.1,0l0,0l0,0h0l0,0l0,0l0-0.1l0,0l0,0l0.1,0l0,0l0,0l0,0l0,0.1l0,0.1
				l0.1,0.1l0,0l0,0l0,0l0,0l0,0l0,0l0,0l0,0l0,0v0l0,0l0,0l0.1,0.1l0,0l0,0l0,0l0,0l-0.2,0.1l-0.1,0.1l0.1,0.1l0.1,0.1l0.1,0.1
				l0.1,0.1l0.1,0.1l0.1,0l0.1,0.1l0.1,0l0.1,0l0.1,0l0.2,0.3l0,0l0.2,0.2l0.2-0.1l0,0l0.1-0.1l0.1-0.1l0.3-0.2l0.2,0.3l1.1,1.4
				l-0.2,0.1l0.1,0.1l0,0.1l0,0.2l0.1,0.1l0.1,0.1l0,0l0,0l0.1,0.1l0,0l0,0l0.1,0l0.1,0.1l0.1,0.1l0.1,0.1l0.1,0.1l0.1,0l0,0
				l0.1,0.1l0.1,0l0,0.1l0.1,0.1l0,0.1l0.1,0.1l0.1,0.1l0.1,0.1l0.1,0.1l0.1,0.1l0.1,0l0.1,0l0.1,0l0,0l0.1,0.1l0,0.1l0,0.1l0,0
				l0.1,0.1l0.1,0.1l0.1,0.1l0,0l0.1,0l0.1,0.1l0.1,0.1l0.1,0.1l0.1,0.1l0.1,0l0.1,0l0.1,0l0,0l0.1,0l0,0l0.1,0l0.1-0.1l0.3-0.2
				l0.1-0.1l0.1,0l0.1,0.1l0,0.2l0.1,0.3l0.2,0.4l0.1,0.2l0.1,0.2l0.1,0.1l0.1,0l0,0l0.1,0.1l0,0.1l0,0.1l0.1,0.1l0.1,0.1l0.1,0
				l0.1,0l0.1,0l0,0l0,0l0.2,0.1l0.1,0l0.1,0.1l0.1,0.1l0.1,0.1l0.1,0l0.1,0.1l0.1,0l0.1,0l0.3,0.2l0.1,0.1l0.1,0l0.1,0l0.1,0.1
				l0.2,0.1l0.1,0.1l0,0l0.1,0.1l0.2,0.1l0.2,0.1l0.3,0.1l0.2,0.1l0.1,0.1l0,0l0.1,0.1l0.1,0.1l0,0l0.1,0l0.1,0.1l0.1,0.1l0.1,0.1
				l0.1,0.1l0.1,0.1l0.2,0.1l0.1,0l0.1,0l0.1,0.1l0.1,0.1l0.2,0.1l0.1,0l0.1,0.1l0.1,0.1l0.1,0l0.2,0.1l0,0l0.6,0.3l0.5,0.2l0.1,0.1
				l0.1,0l0,0l0.1,0l0.1,0l0.1,0l0.1,0l0.1,0l0.1,0l0.1,0l0,0l0.1,0l0.2,0l0.3,0l0.1,0l0.1,0l0,0l0.1,0l0.1,0l0.1,0l0.1,0l0.1,0l0,0
				l0.1,0l0,0l0.1,0l0.1,0l0.1,0h0l0.1,0l0.1,0l0.1,0l0.1,0l0.1,0l0.1,0l0.2,0l0.1,0l0.1,0l0.1,0l0,0l0,0l0,0l0.1,0l0.1,0l0,0
				l0.1-0.1l0.3-0.2l0.4-0.2l0.5-0.3l0.3-0.2l0.1-0.1l0.1-0.1l0.1-0.1l0-0.1l0,0l0,0l0.1,0l0,0l0.1-0.1l0.3-0.3l0.2-0.2l0.2-0.2
				l0.1-0.1l0.1-0.1l0.1-0.1l0.1,0l0.1,0l0,0l0.1,0l0,0l0,0l0,0l0,0l0,0l0,0l0,0l0,0.1l0,0l0,0l0,0l0,0l0,0l0,0l0,0l0,0l0,0l0,0l0,0
				l0,0l0,0l0,0l-0.3-0.4l-0.3-0.4l0,0l0,0l0,0l0,0l0,0l0,0l0,0l0,0l-1.1,0l-1.7,0l0,0l0,0l0,0l0,0l0,0l0,0l0,0l0,0l0.1,0l0.4,0
				l0.1,0l0.1,0l0.1,0l0.1,0l0.1,0l0.1,0l0.1,0l0,0l0,0l0,0l0.1,0l0.2,0l0.1,0l0.1,0l0.1,0l0.1,0l0.1,0l0,0l0,0l0.4,0l0.7,0l0,0l0,0
				l0,0l0,0l0,0l0,0l0,0l0,0l0,0l0.9,1.1l0.1,0.1l0.5,0.6l0,0l0,0l0,0l0,0l0,0l0,0l0.1,0.1l0.2,0.2l0.5,0.7l0,0l0,0l0,0l0,0l0,0l0,0
				l0,0l0,0l0,0l-0.1,0.1l-0.1,0.2l0.1,0.1l1.3,1.6l0.1,0l0.1,0l0.1,0l0.1,0l0,0l0,0l0.1,0l0,0l0,0l0.1,0.1l0,0l0,0.1l0.1,0.1
				l0.1,0.1l0.2,0.3l0.1,0.1l0.1,0.1l0.1,0.1l0,0l0,0l0,0l0,0l0,0l0,0l-0.1,0.1l-0.1,0.1l-0.1,0.1l-0.1,0.1l-0.1,0.1l0,0l0,0l0,0
				l0,0l0,0l0,0l0,0l0,0l-0.1,0.1l0,0l0,0l0,0l0,0l0,0l0,0l-0.1,0.1l0,0l0,0l0,0l0,0l-0.1,0.1l-0.1,0.1l-0.2,0.2l-0.2,0.1l-0.1,0.1
				l0,0l0,0l0,0l-0.1,0.1l-0.1,0.1l-0.1,0.1l-0.1,0.1l-0.1,0.1l0,0l0,0l-0.1,0l-0.1,0l-0.2,0.1l-0.2,0.1l0,0l0,0l-0.1,0.1l-0.1,0.1
				l-0.2,0.1l-0.1,0.1l-0.1,0.1l0,0l-0.1,0l-0.1,0l0,0l0,0l-0.1,0l0,0l0,0l0,0l0,0l0,0l0,0l0,0l0,0l0,0l-0.1,0.1l-0.2,0.1l-0.1,0.1
				l-0.1,0.1l-0.1,0.1l-0.1,0.1l0,0l0,0l0,0l0,0l0,0l0,0l0,0l0,0l0,0l0,0l0,0l0,0l0,0l0,0l0,0l0,0l0,0l0,0l0,0l0,0l0,0l0,0l0,0l0,0
				l0,0l-0.1,0.1l0,0.1l0,0.1l0,0.1l0,0l0,0.1l0,0l0,0l0,0l0,0l0,0l0,0l0,0.1l0,0l0,0l0,0l0,0l0,0l0,0l0,0.1l0,0l0,0l0,0l0,0.1l0,0
				l0,0l0,0l0,0l0,0l0,0l0,0l0,0l-0.1,0.4l0.1,0.3l0.1,0.5l0.1,0.2l0.1,0.3l0.1,0.3l0.1,0.2l0.1,0.3l0.1,0.2l0.1,0.3l0.1,0.3
				l0.1,0.1l0.1,0.2l0.1,0.1l0,0.1l0,0.1l0,0l0,0l0,0l0.1,0l0,0.1l0,0l0,0l0.1,0.1l0.1,0.1l0.1,0l0.1,0l0,0l0,0l0.1,0l0,0l0,0l0,0
				l0.1,0l0.1,0l0,0l0.1,0l0.1,0l0.2,0l0,0l0.1,0l0.1,0l0,0l0.1,0l0.1,0l0.1,0l0.1,0l0.1,0l0.1,0l0.4,0l0.2,0l0.1,0l0.1,0l0.1,0
				l0.1,0l0.1,0l0,0l0.1,0l0.1,0l0.1,0l0.1,0l0.1,0l0.1,0l0.1,0l0.1,0l0.1,0l0,0l0,0l0.1,0l0.1,0l0,0l0.1,0.1l0.1,0l0.1,0l0,0l0.1,0
				l0.1,0l0.1,0l0.1,0l0.1,0l0.1,0l0.1,0l0,0l0.1,0l0.1,0l0.1,0l0.1,0.1l0,0l0.1,0l0.1,0l0,0l0.1,0l0.1,0l0.1,0l0.1,0l0,0l0.1,0
				l0.1,0l0,0l0,0l0.1,0l0.1,0l0.1,0l0.1,0.1l0.1,0l0.2,0.1l0,0l0.3,0.2l0,0l0.1,0.1l0.1,0.1l0.1,0.1l0.1,0.1l0.1,0.1l0.1,0l0.1,0
				l0.1,0l0.1,0l0.1,0l0.1,0l0,0l0.2,0.1l0,0l0.1,0l0,0l0,0l0,0l0.1,0l0.1,0l0,0l0.1,0l0.1,0l0,0l0,0l0,0l0.1,0l0.1,0l0,0l0,0l0,0
				l0,0l0,0l0,0l0,0l0,0l0,0l0.1,0.1l0.1,0l0,0l0,0l0,0l0,0l0,0l0,0l0,0l0,0l0,0l0.1,0l0,0l0.1,0l0.1,0l0.1,0l0.1,0l0.1,0l0.1,0
				l0.1,0l0,0l0,0l0,0l0,0l0.1,0l0.1,0l0,0l0,0l0,0l0.1,0l0.1,0.1l0,0l0,0l0,0l0,0l0.1,0l0.1,0l0.1,0l0.1,0.1l0,0l0,0l0,0l0,0l0,0
				l0,0l0,0l0,0l0.1,0l0,0l0,0l0.1,0l0.1,0l0.1,0l0,0l0,0l0,0l0,0l0,0l0,0l0,0l0,0l0,0l0,0l0,0l0.1,0l0.1,0l0.1,0l0.1,0l0,0l0,0
				l0.1,0l0,0l0.1,0l0.1,0.1l0,0l0.1,0l0.1,0l0,0l0.1,0.1l0.1,0l0.2,0l0.5,0.2l0.2,0.1l0.3,0.2l0.1,0l0.2,0.1l0.2,0.1l0,0l0,0
				l0.2,0.1l0.1,0.1l0.3,0.2l0.4,0.2l0.5,0.2l0.3,0.2l0.4,0.2l0.3,0.2l0.2,0.1l0.2,0.1l0.2,0.2l0.1,0.1l0,0.1l0,0.1l0,0.2l0.1,0.4
				l0.1,0.4l0,0.3l0.1,0.4l0,0.4l0,0.2l0,0.2l0,0.1l0,0.3l0.1,0.5l0,0.2l0.6,5.3l0.2,1.3l0,0.1l0,0.1l0,0.1l0,0l0,0l0,0l0,0l0,0l0,0
				l0,0l0,0l0,0l0,0l0,0l0,0l0,0l0,0l0,0l0,0l0,0l0,0l0,0l0,0l0,0l0,0l0,0l0,0l0,0l0,0l0,0l0,0l0,0l0,0l0,0l0,0l0,0l0,0l0,0.2l0,0.1
				l0,0.1l0,0.1l0,0.1l0,0l0.1,0.1l0,0l0,0l0,0l0,0l0.1,0l0.1,0l0.1,0l0,0l0.1,0l0,0l0,0l0.1,0l0.1,0l7.1-0.2l0,0l0,0v0.2l-7.7,0.2
				l-0.3,0.2l0,0l0,0l0,0l0,0l0,0l-0.2,0.1l-0.2,0.1l-0.1,0.1l-0.1,0l0,0l-0.9,0l-0.6,0l-2.7,0.1l-0.3,0l-4.3,0.1l-4.3,0.1l0,0.5
				l0,0l0,0.4l1.3,0l0,0l3.1-0.1l3.6-0.1l0.8,0l3.2-0.1l2.2,0l0.1,0.5l0,0l0.1,0.6l0,0.1l0,0l0,0.1l0,0l0,0l0,0l0,0l0,0l0,0l0,0l0,0
				l0,0l0,0l0,0.3l0,0.1l0,0.1l0,0l0,0l0,0l0,0l0,0.1l0,0.1l0,0l0,0.1l0,0.1l0,0l0,0l0,0.3l0,0.2l0,0.2l0,0.2l0,0.1l0.1,0.7l0,0.2
				l0,0.1l0,0.1l0,0.1l0,0.1l0,0.1l0,0.1l0,0.1l0,0.1l0,0l0,0.1l0,0l0,0l0,0.1l0,0.1l0,0.1l0,0.1l0,0l0,0.1l0,0.1l0,0l0,0.1l0,0.1
				l0,0.1l0,0.1l0,0l0,0.1l0,0.1l0,0.1l0,0.1l0,0.1l0,0.2l0,0.1l0,0.1l0,0.2l0,0.2l0,0.3l0,0.5l0,0.2l0,0.1l0,0.1l0,0.1l0,0l0,0
				l0,0.1l0,0.1l0,0l0,0.1l0,0.1l0,0.1l0,0.1l0,0.1l0,0.1l0,0.1l0,0.1l0,0.1l0,0l0.1,0.4l0.1,0.5l0,0.1l0,0.1l0,0l0,0l0,0.1l0,0l0,0
				l0,0.1l0,0.1l0,0.1l0,0.1l0,0.1l0,0.1l0,0.1l0,0.1l0,0.1l0,0.1l0,0.1l0,0.1l0,0.1l0,0.1l0,0l0,0.1l0,0.1l0,0.1l0,0.1l0,0.1l0,0.1
				l0,0.1l0,0.1l0,0.1l0,0.1l0,0l0,0.1l0,0l0,0.1l0,0l0,0l0,0l0,0l0,0l0,0l0,0l0,0l0,0l0,0l0,0l0,0l-0.4,1.3l-0.3,1.2l0,0.1l0.1,0
				l0.1,0l0,0l0.1,0l0.1,0l0,0l0,0.1l0,0l0,0.1l0,0l0,0l0,0l0,0l0,0l0,0l0,0l0.2,0.1l2.3,0.4l3,0.5l0.1,0l0.1,0l0.1,0l0.1,0.1
				l0.1,0.1l0.1,0.1l0.2,0.2l0.1,0.2l0,0.8l0.1,2.5l0.1,2.3l0.2,8.7l0,0.2l0,0.2l0,0.2l0,0.2l0.1,0l0,1.4l0,1.1l0,0l0,0.2l0,0l0,0
				l-0.1,0l-0.1,0l0,0l0,0l0,0l0,0l0,0l-0.1,0.1l-0.1,0.1l-0.1,0.1l-0.1,0.1l-0.1,0.1l0.4,0.5l0,0l0,0l-0.1,0.1l-0.4-0.4l-0.1,0.2
				l-0.1,0.2l0,0.1l-0.1,0.2l-0.1,0.2l0.5,0.1l-0.1,0.2l-0.5-0.1l0,0l0,0.1l0,0.1l0,0.1l0,0.1l0,0.1l0,0.2l0,0.4l0,0.5l0,0.6l0,0
				l0,0.2l0,0.2l0,0.2l0,0.2l0,0.2l0,0.1l0.1,0.2l0.1,0.2l0.1,0.2l0.1,0.2l0.1,0.2l0.1,0.2l0.1,0.2l0.2,0.2l0.1,0.2l0.1,0l0.1,0l0,0
				l0.1,0l0.1,0l0.1,0l0,0.3l0,0l0,0l0,0l0,0.7l-0.4,0l0,0l-0.2,0l-0.3,0l-0.3,0l-0.3,0l-0.4,0.1l0,0l-0.9,0.4l-0.1-0.3l-0.1,0.1
				l0.1,0.3l-0.4,0.2l0,0.1l0,0.1l0,0l0,0l0,0h0l0,0l0,0l0,0l0,0l0,0l0,0l0,0l0,0l0,0l0,0l0,0l0,0l0,0l0,0l0,0l0,0l-0.4,0.2l0,0
				l-0.2,0.1l-0.2,0.1l-0.2,0.1l-0.2,0.1l-0.1,0l-0.1,0.1l-0.1,0.1l-0.1,0.1l-0.1,0.1l0,0l-0.1,0.1l-0.1,0.1l-0.1,0.2l-0.2,0.3
				l0,0.1l-0.1,0.1l0,0l0,0l0,0.1l0,0.1l0,0.1l0,0l0,0l0,0.1l0,0.1l0,0.1l0,0.1l0,0.1l0,0.1l0,0.1l0,0.2l0,0.2l0,0.1l0,0.1l0.1,0.1
				l0.1,0.1l0,0l0.1,0.2l0.1,0.2l0,0l0.1,0.1l0.1,0.1l0.1,0.1l0.1,0.1l0,0.1l0,0.1l0,0.1l0.1,0.2l0.1,0.2l0.1,0.2l0,0.1l0.1,0.2
				l0.1,0.2l0.1,0.2l0.1,0.2l0.1,0.2l0.1,0.2l1.3,1.4l1.8-1.9l0.1,0.1l-1.8,1.9l-2.8,2.9l1.7,1.5l0,0l0.1,0.1l0.1,0.1l0.1,0.1
				l0.2,0.1l0.2,0l0.1,0l0.1,0l0.1,0l0,0l0.1,0l0.1,0l0.1,0l0.5-0.6l-0.2-0.2l0,0l0-0.1l0-0.1l0,0l0,0l0.1,0l0.1,0l0.1,0l0.1,0l0,0
				l0.1,0l0,0l0,0l0,0l0,0l0,0v0l0,0l0,0l0,0l0,0l0,0l0,0.1l0,0l0,0l0,0l0,0l0,0l0,0l0,0l0,0l0,0l0,0l0,0l0,0l0,0l0,0l0,0l0,0l0,0
				l0,0l0,0l0.1,0l0.2,0.1l0,0l0,0l0,0l0,0l0,0l0,0l0.1,0.1l0.1,0.2l0.4,0.4l0,0l0,0l0,0l0,0l0,0l0.4,0.2l0,0l0,0l0,0l0,0l0,0l0,0
				l0,0l0,0l0,0l0,0l0,0l0,0l0,0l0,0l0,0l0,0l0,0l0,0l0,0l-0.1,0l0,0l0,0l0,0l0,0l0,0l0,0l0,0l0,0l0,0l0,0l0,0l0,0l0,0l0,0l0,0l0,0
				l-0.2-0.1l0,0l-0.2-0.1l0,0l0-0.1l-0.3-0.6l-0.1,0.1l-0.1-0.1l-0.1,0.1l-0.3-0.3l-0.1-0.1l-0.1,0l-0.9,0.8l0.6,0.7l0.7-0.6
				l-0.1-0.1l0,0l0.1,0.1l0,0l0,0l0,0l0.1,0.1l0.1,0.1l0,0l-0.1-0.1l-0.6,0.5l0.2,0.2l0,0l0.2,0.2l0,0l0,0l0,0l0,0l0.7-0.6l0,0
				l0.1,0.1l-0.1,0.1l-0.2,0.2l0,0l0,0.1l0,0.1l0,0.1l0,0l0,0l0,0l0,0l0,0l0,0l0,0l0,0l0,0l0,0l0.5,0.3l0,1l0,0.1l0,0.2l0,0.4l0,0
				l0,0.5l0,0.5l0,0.5l0,1l0,2.9l0,0.8l0,0.8l0,0.1l0,1.5l0,0.9l0,0.9l0,0.1l0,0.3l0,0.2l0,0.6l0,0.5l0,0.5l0,0.2l0,0.4l0,0.3l0,0.3
				l0,0.4l0,0.4l0,0.3l0,0.5l0,0.4l0,0.2l0,0.2l0,3.6l0,3.5l0,0.3l0,0.2l0,0.3l0,0.2l0,0.4l0,0.2l0,1l0,0.3l0,0.7l0,0.6l0,0.7l0,0.5
				l0,0.6l0,0.1l0.1,0.9l0,6.9l0,6.9l0,3.9l0,3l0,1l0,2.5l0,0.4l0,1.3l0,1.9l0,1.5l0,1.9l0,2.8l0,0.6l0,27.8l0,13.8l0,5.7l0,0.3
				l0,7.8v0l-3.8,0l-1,0l-2,0l-0.4,0l-1,0l-5.9,0.1l-4.2,0l-1.5,0l-1,0l-0.5,0l-0.8,0l-0.6,0l-0.8,0l-0.2,0l-0.5,0l-0.5,0l-10.5,0.1
				l-3.1,0l-1.4,0l-8.2,0l-0.8,0l0,0l-3,0l-1.4,0l-0.7,0l-0.3,0l-0.7,0l-0.1,0l-0.7,0l-0.3,0l-0.7,0l-0.1,0l-0.7,0l-0.3,0l-0.7,0
				l-0.1,0l-0.7,0l-0.3,0l-0.7,0l-0.1,0l-0.7,0l-0.3,0l-0.7,0l-0.1,0l-0.7,0l-0.3,0l-0.7,0l-0.1,0l-0.7,0l-0.3,0l-0.7,0l-0.1,0
				l-0.7,0l-0.3,0l-0.7,0l-0.1,0l-0.7,0l-0.3,0l-0.7,0l-0.1,0l-0.7,0l-1.6,0h0h0l-3.4,0l-1.6,0h-0.3l-10.1,0.1h0l-5.4,0.1l-4.8,0.1
				l-0.5,0l-1,0l-0.8,0h0l-0.4,0l-0.2,0l-0.6,0l-0.1,0l-0.6,0l-0.6,0l-0.7,0l-0.6,0l-0.7,0l-0.3,0l-0.1,0l-0.6,0l-0.3,0l-0.1,0
				l-0.2,0l-0.2,0l-0.1,0l-0.6,0h0l-0.8,0l-0.3,0l-0.1,0l-0.4,0l-1.2,0l-1.1,0l-0.7,0l-0.3,0l-1.3,0l-1.1,0l-0.7,0l-0.2,0l-1,0
				l-1.1,0l-0.6,0l-0.5,0l-0.2,0l-0.7,0l-0.1,0l-0.9,0l-0.5,0l-0.3,0l-0.1,0l-0.3,0l-0.5,0l-0.5,0l-0.3,0l-0.3,0l-0.1,0l-0.2,0
				l-0.5,0l-0.5,0l-0.6,0l-0.2,0l-0.7,0l-0.5,0l-0.6,0l-0.1,0l-0.3,0l-0.3,0l-0.2,0l-0.6,0l-0.5,0l-0.5,0l-0.7,0l-0.7,0l-0.6,0
				l-0.4,0l-0.2,0l-0.5,0l-0.1-4.1l0-0.6l0-1.1l0-0.6l0-0.3l0-1l0-0.7l0-0.8l0-0.5l0-1.3l-0.2,0l-1-0.2l-1.5-0.4l-1.6-0.5l0,0
				l-0.2-0.1l0,0l0.3-0.6l0.1-0.2l0.1-0.3l0.2-0.5l0.1-0.2l0.1-0.2l0.2-0.5l0.3-0.9l0.3-0.9l0.3-0.9l0.2-0.9l0.2-0.9l0.2-0.9
				l0.2-0.9l0.2-0.9l0.2-1.4l0.7-4.3l0-0.2l-1.1,0l-0.3,0l-0.3,0l-1.2,0h0l0-0.1l0.1-0.4l0.1-0.4l0-0.4l0.1-0.6l-0.2-1.4l-0.3-0.4
				l-0.2-0.3l-0.6-0.4l-2.5-1.4l0-0.5l-0.2,0l-1,0l-0.2,0l-0.3,0l0,0l-0.2,0.1l0,0l0,0l0,0l0,0l0,0h-0.1h0l0,0l0,0l0,0l-0.2,0.1
				l-0.1,0h-0.1l0,0l-0.1,0l-0.1,0l0,0l-0.1,0l0,0l-0.1,0l-0.1,0l0,0l0,0l0,0l0,0h0l-0.1,0h0l0,0h0l0,0l0,0l0,0l0,0l-0.1,0l-0.1,0
				l0,0l-0.1,0l0,0l0,0l-0.1,0l-0.1,0.1l-0.3,0.1l-0.1,0.1l0,0l-0.2,0.1l0,0l0,0l0,0l0,0l0,0l-0.1,0l-0.2,0.1l0,0l-0.1,0l0,0l0,0
				l0,0l0,0l-0.2,0.1h0l0,0l-0.1,0.1l-0.1,0.1l-0.1,0l-0.1,0.1l-0.1,0l0,0l-0.1,0.1l-0.1,0.1l-0.1,0.2l-0.1,0.1l-0.1,0.1l-0.1,0.1
				l-0.3,0.2l-0.1,0l0,0.1l0,0l-0.9,0.8l-0.2,0.2l-0.2,0.2l-0.2,0.2l-0.1,0.1l0,0.1l-0.1,0.1l-0.7,0.9l0,0l-0.1,0.1l0,0l0,0.1l0,0
				l0,0l-0.1,0.1l0,0l0,0l0,0.1l0,0.1l-0.4,0.5l-0.5,0.4l0,0l-0.1,0.1l-0.2,0.1l-0.3,0.3l-0.2,0.2l-0.2,0.2l-0.2,0.2l-0.2,0.2
				l-0.1,0.1l-0.1,0.1l-0.1,0.1l0,0.2l0,0.1l0,0.1l0,0.1l0,0.1l-0.1,0.1l-0.2,0.1l-0.1,0l-0.3,0l-0.2-0.3l-0.2,0.1l0,0l0,0l0,0l0,0
				l-0.1,0l0,0l0,0l0,0l0,0l0,0l0,0l0,0l0,0l0,0l0,0l0,0l0,0l0,0l-0.1,0l-0.1,0l0,0l0,0l0,0l0,0l-0.1,0l-0.1,0l0,0l0,0l0,0l-0.1,0
				l-0.1,0l-0.1,0l0.1,0.1l0,0l-0.1,0l-0.1,0l-0.1,0l-0.1,0l0,0l0,0l-0.1,0l0,0l0,0l0,0.2l-0.3,0.1l-0.3,0.1l-0.3,0l-0.3,0l-0.3,0
				l-0.3,0l-0.3,0l-0.3,0l-0.3,0l-0.3,0l-0.3,0l-0.1,0l-0.2,0l-0.3,0l-0.3,0l-0.3,0l-0.3,0l-0.3,0l-0.3,0l-0.3,0l0,0l-0.2,0l-0.1,0
				l-0.2,0l-0.2,0l-0.3,0l-0.3-0.1l-0.3,0l-0.3,0l-0.3,0l-0.3-0.1l-0.3,0l-0.3,0l-0.3,0l-0.3,0l-0.3,0l-0.3,0l-0.3,0l-0.3,0l-0.3,0
				l-0.3,0l-0.3,0l-0.3,0l-0.3,0l-0.3,0l-0.3,0l-0.3,0l-0.1,0l-0.3,0l-0.3,0l0-0.1l0-0.2l0-0.1l0-0.1l0-0.1l-0.5,0l0,0.1l0,0.1
				l0,0.2l0,0.1l0,0.1l0,0l-3.2,0.1l-0.3,0.1l-0.3,0l-0.3,0l-0.3,0l-0.3,0l-0.3,0l-0.3,0l-0.3,0l-0.3,0l-0.3,0l-0.3,0l-0.3,0
				l-0.3,0.1l-0.3,0l-0.3,0l-0.3,0l-0.3,0l-0.2,0.1l0,0l0-0.4l0-0.7l0-1.1l0-0.3l0-0.2l0-0.1l0-0.4l0-0.3l0-0.3l0-0.2l0-0.2l0-0.2
				l0-0.2l0-0.2l0-0.1l0,0l0-0.6l0-0.1l0-0.4l0-0.6l0-0.1l-0.1-3.4l0-0.3h0.1h0l0.4,0l0,0l0.3,0l0.5,0l0.3,0l0.3,0l0.3,0l0.1,0
				l0.3,0l0.5,0l0.3,0l0.3,0l0.3,0l0,0l0.1,0l0.2,0l0.5,0l0.3,0l0.5,0l0.1,0l0.3,0l0.3,0l0.3,0l0.4,0l0.3,0l0.2,0l0.2,0l0.5,0l0.1,0
				l-0.1-3.5l-0.1-3.5l-0.1-3.5l-0.1-3.5l-0.1,0l-0.3,0l-0.3,0l-0.2,0l-0.2,0l-0.4,0l-0.3,0l-0.3,0l-0.3,0l-0.3,0l-0.1,0l-0.4,0
				l-0.2,0l-0.2,0l-0.3,0l-0.1,0l-0.4,0l0,0l-0.6,0l-0.3,0l-0.3,0l-0.5,0l0,0l-0.6,0l-0.2,0l-0.1,0l-0.3,0l-0.6,0l-0.1,0l-0.4,0
				l-0.4,0l-0.3,0l-0.6,0l0,0l-0.5,0l-0.3,0l-0.5,0l-0.4,0l0,0l0,0l-0.5,0l-0.3,0l-0.4,0l-0.5,0l-0.1,0l-0.5,0l-0.3,0l-0.3,0l-0.6,0
				l0,0l-0.5,0l-0.3,0l-0.2,0l-0.7,0l-0.1,0l-0.3,0l-0.1,0l-0.5,0l-0.3,0l-0.4,0l-0.1,0l-0.2,0l-0.1,0l-0.2,0l-0.3,0l-0.3,0l-0.6,0
				l0,0l-0.4,0l-0.5,0l-0.4,0l-0.5,0l-0.3,0l0,0l-0.2,0l-0.3,0l-0.4,0l-0.1,0l-0.3,0l-0.3,0l-0.3,0l-0.2,0l-0.1,0l-0.1,0l-0.1,0
				l-0.3,0l-0.4,0l-2.5,0l0-0.4l0-0.4l0-0.5l0-0.5l0-0.4l0-0.4l0-0.8l0-0.4l0-0.5l0-0.5l0-0.5l0-0.4l0-0.4l0-0.5l0-0.3l0-0.5l0-0.4
				l0-0.4l0-0.4l0-0.4l0-0.3l0-0.3l0,0l0-0.1l0-0.1l0-0.6l0-1.3l0-0.6l0-0.6l0-0.5l0-0.3l0-0.2l-0.3,0l-0.3,0l-0.5,0l-0.3,0l-0.1,0
				l-0.1,0l-0.1,0l-0.6,0l-0.5,0l-0.6,0l-0.4,0l-0.4,0l-0.4,0l-0.6,0l-0.4,0l-0.4,0l-0.7,0l-0.3,0l-0.3,0l-0.5,0l0,0l0,0.2l-0.5,2
				l-0.2,0.7l-0.2,0l-1.4-0.4l0,0l0,0l0.5-2l0-0.2l0-0.2l-0.1,0l-0.4,0l-0.3,0l-0.1,0l-0.5,0l-0.8,0l-0.5,0l-0.5,0l-0.5,0l-0.4,0
				l0,0l-0.3,0l-0.1,0l-0.2,0l-0.1,0l-0.3,0l-0.1,0l-0.3,0l-0.4,0l-0.3,0l-0.3,0l-0.1,0l-0.4,0l-0.4,0l-0.2,0l-0.3,0l-0.4,0l-0.1,0
				l-0.2,0l-0.4,0l-0.3,0l-0.4,0l-0.4,0l-0.4,0l-0.4,0l-0.4,0l-0.5,0l-0.4,0l-0.4,0l-0.5,0l-0.4,0l-0.5,0l-0.5,0l-0.3,0l-0.2,0
				l-0.4,0l-0.1,0l-0.2,0l-0.6,0l-0.3,0l-0.5,0l-0.7,0l-0.4,0l-0.2,0l-0.4,0l-0.3,0l-0.1,0l-0.4,0l-0.3,0l-0.7,0l-0.2,0l-0.4,0
				l-0.4,0l-0.9,0l-0.9,0l-0.5,0l-0.4,0l0,0l0,0l-0.3,0l0,0l-0.5,0l-0.5,0l-0.4,0l0.1-0.2l0-0.1l0.2-0.6l0.1-0.3l0.1-0.3l0.1-0.4
				l0.1-0.4l0.1-0.4l0,0l0.1-0.5l0-0.5l0-0.5l0-0.5l-0.3-8.4l0-0.6l0-0.2l-0.1,0l0,0l-0.5,0l-0.4,0l-0.5,0l-0.3,0l-0.3,0l-0.4,0
				l-0.3,0l-0.5,0l-0.3,0l-0.5,0l-0.4,0l-0.1,0l-0.4,0l-0.4,0l-0.5,0l0,0l-0.3,0l-0.6,0l-0.7,0l-0.6,0l-0.6,0l-0.7,0l-1.2,0l-0.6,0
				l-0.7,0l-0.5,0l-0.4,0l-0.7,0l-0.6,0l0-0.9l0-0.8l0-0.8l-0.1-1.3l-0.1-3.1l0-0.2l-0.4,0l0,0l0,0l-0.1,0l-0.1,0l0,0l-0.3,0l-0.1,0
				l-0.1,0l0,0l-0.2,0l-0.4,0l-0.5,0l-0.3,0l0,0l-0.5,0l-0.4,0l-0.3,0l-0.5,0l-0.1,0l-0.2,0l-0.2,0l-0.3,0l-0.2,0l0,0.4l0,0.3l0,0.3
				l0,0.4l0,0.1l0,0.3l0,0.4l0,0.4l0,0.1l0,0.4l0,0.3l0,0v0l-1.7,0l0,0l0,0.4l0,0l0,0.4l0,0.2l0,0.4l0,0.4l0,0.4l0,0.5l0,0.3l0,0.5
				l-1,0l-0.6,0l-0.7,0l-0.7,0l-0.5,0l-0.4,0l-0.6,0l-0.5,0l-0.7,0l-0.5,0l-0.2,0l-0.5,0l0,0.5l0,0.3l0,0l0,0.3l0,0.2l0,0.4l0,0.4
				l0,0.4l0,0.1l0,0.3l0,0.3l0,0.1l0,0.2l0,0.2l0,0.4l0,0.3l0,0.1l0,0.2l0,0.3l0,0.3l0,0.3l0,0.2l0,0.3l0,0.1l0,0.3l0,0.5l-0.8,0
				l-0.4,0l-0.5,0l-0.5,0l-0.4,0l-0.3,0l-0.4,0l-0.1,0l-0.1,0l0,0l-1.5,0l-0.1,0l-0.3,0l-0.3,0l-0.3,0l-0.3,0l-0.1,0l-0.2,0l-0.1,0
				l0,0L333,673l-0.5,0l-0.4,0l-0.4,0l-0.3,0l-0.2,0l0-0.2l0-0.6l0-0.1l0-0.6l-0.1,0l-0.1,0l0-0.2l0-0.2l0-0.7l0-0.1l0.2,0l0,0
				l0-0.5l0-0.2l0-0.3l0-0.7l0-0.1l0-0.7l0-0.3l0-0.7l0-0.1l0-0.7l0-0.2l-0.1,0l-0.5,0l-0.3,0l-0.3,0l-0.2,0l-0.3,0l-0.7,0l-0.4,0
				l-0.5,0l-0.4,0l-0.5,0l-0.3,0l-0.7,0l-0.5,0l-0.5,0l-0.7,0l-0.3,0l-0.6,0l-0.5,0l-0.2,0l-0.3,0l-0.3,0l-0.6,0l-0.1,0l-0.5,0
				l-0.5,0l-0.5,0l-1.1,0l-0.6,0l-0.4,0l-0.7,0l-0.4,0l-0.5,0l-0.5,0l-0.3,0l-0.2,0l-0.3,0l-0.4,0l-0.9,0l-0.4,0l-0.7,0l-0.7,0
				l-0.4,0l-2.2,0l-0.8,0l-0.5,0l-0.9,0l-0.1,0l-0.1,0l-1.1,0l-0.6,0l-0.8,0l-1.1,0l-0.7,0l-0.6,0l-3.4,0.1l-3.4,0.1l-0.8,0l-0.5,0
				l-0.4,0l-0.4,0l-0.5,0l-0.4,0l-0.9,0l-0.4-10.3l0,0l-0.1-1.8l-0.1-1.7l4.1-0.3l0.3,0l0.4,0l0.5,0l0.5,0l0.1,0l0.4,0l0.2,0l0.4,0
				l0.2,0l0.5,0l0.4,0l0.6,0l0.4,0l0.5,0l0.3,0l0.5,0l0.3,0l0.3,0l0.3,0l0.3,0l0.1,0l0.4,0l0.3,0l0.3,0l0.3,0l0.3,0l0.5,0l0.4,0
				l0.4,0l0.5,0l0.5,0l0.5,0l0.5,0l0.4,0l0.4,0l0.4,0l0.3,0l0.3,0l0.2,0l0.4,0l0,0l0.3,0l0.3,0l0.4,0l0.4,0l0.3,0l0.2,0l0.2,0l0.3,0
				l0.3,0l0.4,0l0.5,0l0.5,0l0.6,0l0.5,0l0.6,0l0.4,0l0.6,0l0.5,0l0.5,0l0.3,0l0.3,0l0.2,0l0.3,0.1l0-0.7l0-0.2l0-0.3l0-0.6l0-0.6
				l0-0.1l0-0.5l0-0.5l0-0.3l0-0.8l0-0.8l0-1.1l0-0.5l0-0.2l0-0.6l0-0.6l0-0.4l0-0.3l0-0.4l0-0.2l0-0.1l0-0.4l0-0.6l0-0.3l0-0.3
				l0-0.6l0-0.6l0-0.5l0-0.6l0-0.4l0-0.6l0-0.3l0-0.5l0-0.4l0-0.6l0-0.3l0-0.5l0-0.3l0-0.6l0-0.4l0-0.5l0-0.3l0-0.5l0-0.4l0,0l0-0.4
				l0-0.4l0-0.4l0-0.4l0-0.6l0-0.2l0,0l0-0.2l0-0.1l0-0.7l0-0.4l0-0.5l0-0.1l0-0.4l0-0.4l0-0.6l0-0.4l0-0.4l0-0.6l0-0.4l0-0.2l0-0.1
				l0-0.1l0-0.2l0-0.2l0-0.4l0-0.4l0-0.5l0-0.5l0-0.5l0-0.5l0-0.3l0-0.3l0-0.3l0-0.3l0-0.4l0-0.2l0-0.4l0-0.3l0-0.3l0-0.3l0-0.5
				l0-0.4l0-0.4l0-0.1l0-0.1l0-0.4l0-0.4l0-0.4l0-0.6l0-0.3l0-0.3l0-0.4l0-0.2l0-0.3l0-0.4l0-0.4l0-0.3l0-0.3l0-0.3l0-0.4l0-0.5l0,0
				l0.5,0l0.3,0l0.1,0l0.2,0l0.3,0l0.3,0l0.5,0l0.2,0l0.3,0l0.2,0l0.3,0l0.4,0l0.4,0l0.1,0l0.3,0l0.1,0l0.1,0l0.3,0l0.2,0l0.2,0
				l0.3,0l0.1,0l0.1,0l0.1,0l0.3,0l0,0l0.3,0l0.3,0l0.3,0l0.4,0l0.3,0l0.2,0l0.2,0l0.3,0l0.4,0l0.4,0l0.3,0l0.2,0l0.1,0l0.1,0l0.1,0
				l0.2,0l0.3,0l0.4,0l0.3,0l0.2,0l0.2,0l0.2,0l0.4,0l0,0.2l0,0.4l0.1,2.8l0,0l1.5,0l0.2,0l0,0.4l0,0.5l0,0.6l0,0.4l0,0.4l0,0.4
				l0,0.4l0,0l0,0.1l0,0.3l0,0.4l0,0.3l0,0.2l0,0.3l0,0.4l0,0.3l0,0.4l0,0.3l0,0.5l0,0.3l0,0.4l0,0.3l0,0.4l0,0.4l0,0.3l0,0.4l0,0.4
				l0,0.1l0,0.2l0,0.4l0,0.1l1.3,0l0.3,0l1.1,0l0.7,0l0.3,0l0.9,0l0.7,0l0.1,0l0.8,0l0.7,0l0.1,0l0.3,0l0.3,0l0.6,0l0.6,0l0,0l0.7,0
				l0.5,0l0.5,0l0,0l0.5,0l0.5,0l0.7,0l0.1,0l0.6,0l0.3,0l0.3,0l0.6,0l0-0.1l0-0.7l0-0.5l0-0.3l0.2-0.1l3.1-0.1l0.3,0l0.1,0l0.2,0
				l0.2,0l0.2,0l0.4,0l0.2,0l0.7,0l0.2,0l0.2,0l0.2,0l0.4,0l0.5,0l0.6,0l0.5,0l0.6,0l0.4,0l0.4,0l0.5,0l0.2,0l0.4,0l0.4,0l0.5,0
				l0.3,0l0.3,0l0.4,0l0.4,0l0,0l0,0l0.3,0l0.4,0l0-0.4l0-0.3l0-0.3l0-0.6l0-0.1l0-0.4l0-0.2l0-0.4l0-0.4l0-0.2l0-0.3l0-0.3l0-0.4
				l0-0.5l0-0.2l0-0.4l0-0.1l0-0.2l0-0.4l0-0.2l0-0.4l0-0.3l0-0.1l0-0.4l0-0.4l0-0.3l0-0.4l0-0.4l0-0.3l0-0.4l0-0.3l0-0.4l0-0.4
				l0-0.4l0,0l0-0.3l0-0.4l0-0.3l0.5,0l0.2,0l0.2,0l0.1,0l0.2,0l0.3,0l0.3,0l0.3,0l0.4,0l0.3,0l0.2,0l0.2,0l0.4,0l0.4,0l0.4,0l0.3,0
				l0.4,0l0.3,0l0.4,0l0.4,0l0.4,0l0.5,0l0.2,0l0.3,0l0.3,0l0.4,0l0.5,0l0.1,0l0.2,0l0.3,0l0.2,0l0.3,0l0.2,0l0.3,0l0.4,0l0.2,0
				l0.2,0l0.1,0l0.1,0l0.4,0l0.4,0l0.3,0l0.3,0l0.3,0l0,0l0.3,0l0.3,0l0.4,0l0-0.5l0-0.4l0-0.5l0-0.5l0-0.6l0-0.6l0-0.4l0-0.6l0-0.5
				l0-0.6l0-0.4l0,0l0-0.7l0-0.6l0-0.5l0-0.2l0-0.2l0-0.7l0-0.7l0-0.2l0-0.2l0-0.7l0-0.8l0-0.7l0-0.7l0-0.7l0-0.6l0-0.1l0-0.1l0-0.6
				l0-0.6l0-0.4l0-0.8l0-0.5l0-0.5l0-0.5l0-0.5l0-0.3l0-0.3l0-0.3l0-0.9l0-0.4l0-0.5l0-0.9l0-0.1l0-0.9l0-1l0-0.1l0-0.6l0-1.4l0-0.8
				l0-0.1l0-0.6l0-0.5l0-0.4l0-0.6l0-0.7l0-0.7l0-0.5l0-0.5l0-0.5l0-0.9l0-0.8l0-0.8l0-0.4l0-0.4l0-0.6l0-0.4l0-0.8l0-0.6l0-0.7
				l0-0.8l0-0.6l0-0.8l0-0.8l0-0.1l0,0l-0.7,0l-0.6,0l-0.6,0l-0.4,0l-0.4,0l-0.6,0l-0.5,0l-0.2,0l-0.5,0l-0.4,0l-0.4,0l-0.3,0
				l-0.3,0l-0.3,0l-0.3,0l-0.4,0l-0.3,0l-0.8,0l0,0l-0.5,0l-0.5,0l-0.8,0l-0.2,0l-0.5,0l-0.6,0l-0.8,0l-1,0l-0.8,0l-0.1,0l-0.6,0
				l-0.3,0l-0.4,0l-0.5,0l-0.6,0l-0.7,0l-0.2,0l-0.4,0l-0.7,0l-0.8,0l-0.8,0l-0.7,0l-0.2,0l-0.6,0l-0.6,0l-0.7,0l-0.6,0l-0.1,0
				l-0.7,0l-1,0l-0.4,0l-0.2,0l-0.4,0l-0.5,0l-0.3,0l-0.3,0l-0.6,0l-0.1,0l-0.9,0l-1,0l-1.5,0l-0.2,0l-2.1,0.1l-1.2,0l-0.2,0l-0.9,0
				l-1.1,0l-1,0l-0.3,0l-1,0l-1.7,0.1l-0.7,0l-0.4,0l-0.1,0l-1.1,0l-1.7,0.1l-0.2,0l-0.8,0l-0.5,0l-0.8,0l-1.4,0l-0.5,0l-1.7,0.1
				l-1.2,0l0,0l-1,0l-1,0l-0.8,0l-0.1,0l-0.1,0l-0.5,0l-1.3,0l-0.4,0l-1.3,0l-0.4,0l-1.3,0l-0.5,0l-1.3,0l-0.5,0l-1.3,0.1l-0.5,0
				l-0.6,0l-1.1,0l-0.1,0l-1,0l-0.7,0l-0.1,0l-1.6,0l0,0l-1.7,0l0,0l-1.7,0l0,0l-1.7,0.1l-0.3,0l-0.7,0l-0.7,0l-0.4,0l-1.3,0l-0.5,0
				l-1,0l-0.2,0l0,0l-0.1,0l-0.1,0l-0.1,0l-0.5,0l-0.7,0l-0.2,0l-0.8,0l-1.3,0.1l0-0.7l0-0.1l0-0.5l0.1-0.6l0-0.5l0-0.4l0-0.6l0-0.5
				l0-0.5l0-0.7l0-0.5l0-0.1l0,0l0-0.7l0-0.6l0-0.4l0-0.4l0-0.4l0-0.4l0-0.5l0-0.8l0-0.4l0-0.5l0-0.7l0-0.8l0-0.6l0-0.7l0-0.5l0-0.6
				l0-0.4l0-0.5l0-0.6l0-0.8l0-0.2l0-0.7l0-0.8l0-0.1l0,0l0-0.6l0-0.4l0-0.4l0-0.7l0-0.4l0-0.7l0-0.6l0-0.8l0-1l0-0.2l0-0.6l0-0.8
				l0-0.6l0-0.7l-0.1-0.8l-0.1-0.7l0-0.6l0-0.9l0-0.8l0-0.6l0-0.5l0-0.5l0-0.4l0-0.2l0-0.9l0-0.4l0-0.4l0-0.3l0,0l0-0.4l0-0.4l0-0.3
				l0-0.5l0-0.3l0-0.1l0-0.7l0-0.6l0,0l0-0.4l0-0.7l0-1l0-1.1l0-0.3l0-1l0-0.3l0-0.2l0-0.1l0-0.3l0-0.7l0-0.5l0-0.8l0-0.4l0-0.1
				l0-0.3l-0.1-1.3l0-0.3l0-0.4l0-0.4l0-0.5l0-0.1l0-0.7l0-0.8l-0.1-1.2l0-0.7l0-0.6l0-0.7l0-0.6l0-0.6l0-1l0,0l0-0.3l-0.1-3.2
				l-0.1-3.2l-0.1-3.3l0-1.9l0-0.5l0-0.9l0-0.8l0-0.5l0-0.1l0,0l0-0.5l0-0.4l0-0.5l0-0.5l0-0.3l0-0.7l0-0.5l0-0.6l0-0.5l0-0.5l0-0.6
				v0l-0.7,0l-0.1,0l-0.1,0l-0.3,0l-0.4,0l-0.2,0l-0.5,0l-0.1,0l0,0l-0.2,0l-0.4,0l-0.2,0l-0.2,0l-0.3,0l-0.3,0l0,0l-0.2,0l-0.4,0
				l-0.2,0l-0.3,0l-0.4,0l-0.2,0l-0.1,0l-0.3,0l-0.3,0l-0.2,0l-2.6,0.1l-2.5,0.1l-2.3,0.1l-3.1,0.1l-0.8,0l-0.9,0l-1.7,0.1l-1.7,0.1
				l-1.8,0.1l-3.5,0.1l-0.3,0l-0.3,0l-0.2,0l0,0l-0.1,0l-0.1,0l-0.3,0l-0.4,0l0,0l-1.7,0.1l-3,0.1l-0.5,0l-3.5,0.1l-2.7,0.1l-0.4,0
				l-0.5,0l-0.2,0l-0.2,0l-0.3,0l-0.2,0l-0.7,0l-0.7,0l-0.6,0l-0.4,0l-0.1,0l-0.1,0l-0.3,0l-0.4,0l-0.7,0l-0.5,0l-0.3,0l-0.5,0
				l-0.7,0l0,0l0,0l-0.6,0l-0.3,0l-0.7,0l-0.6,0l-0.6,0l-0.2,0l-0.5,0l0,0l0,0l-0.4,0l-0.4,0l-0.8,0l-0.8,0l-0.7,0l-0.3,0l-1.1,0
				l-0.5,0l-0.3,0l-0.5,0l-1,0l-0.5,0l-1.8,0.1l-0.2,0l-0.7,0l-0.3,0l-0.1,0l-0.3,0l-1,0l-1.8,0l-0.1,0l-0.2,0l-2,0.1l-0.9,0l-0.5,0
				l-0.7,0l-1.2,0l-0.5,0l-0.5,0l-0.7,0l-0.2,0l-0.2,0l-0.7,0l-0.4,0l-1.9,0.1l0,0l-0.1,0l-1,0l-1.2,0l-1.2,0l-1,0l-1.1,0l-1.5,0
				l0,0l0-0.5l0-0.2l0-0.1l0-0.1l0-0.1l0-0.3l0-0.2l0-0.3l0-0.2l0-0.2l0-0.2l0-0.2l0-0.3l0-0.3l0-0.1V493l0-0.1l0-0.2l0-0.3l0-0.5
				l0-0.3l0-0.2l0-0.2l-0.1-0.4l0-0.4l0,0l0-0.3l0-0.7l0-0.3l0-0.3l0-0.4l0-0.2l0-0.4l0-0.2l0-0.1l0-0.4l0-0.3l0-0.7l0-0.3l0-0.4
				l0-0.6l0-0.7l0-0.4l0-0.6l0-0.8l0-0.5l0-0.7l0-0.6l0-0.5l0-0.5l0-0.4l0-0.4l0-0.5l0-0.6l0-0.6l0-0.2l0-0.3l0-0.5l0-0.4l0-0.4
				l0-0.2l0-0.4l0-0.3l0-0.4l0-0.4l0-0.3l0-0.3l0-0.3l0-0.4l0-0.5l0-0.2l0-0.2l0-0.3l0-0.4l0-0.4l0-0.2l0,0l0-0.2l0-0.2l0-0.2l0-0.4
				l0-0.3l0-0.5l0-0.3l0-0.5l0-0.6l0-0.5l0-0.5l0-0.4l0-0.7l0-0.4l0-0.6l0-0.6l0-0.6l0-0.4l0-0.3l0-0.6l0-0.5l0-0.4l0-0.4l0-0.1
				l0-0.2l0-0.4l0-0.3l0-0.4l0-0.3l0-0.4l0-0.2l0-0.3l0-0.4l0-0.3l0-0.3l0-0.3l0-1.8l0-3.8l0-0.4l0.1-0.1l0.2-0.1l0.2-0.1l0.3-0.1
				l0.2-0.1l0.4-0.2l0.2-0.1l0.2-0.1l0.2-0.1l0.2-0.1l0.2-0.1l0.2-0.1l0.2-0.1l0.2-0.1l0.3-0.1l0.3-0.1l0.4-0.2l0.3-0.1l0.9-0.4
				l1-0.4l0,0l0.5,0l0.3,0l0.1,0l0.1,0l0.3,0l0.2,0l0.2,0l0.2,0l0.2,0l0.2,0l0.2,0l0.2,0l0.1,0l0.2,0l0.2,0l0.1,0l0.1,0l0.2,0l0.1,0
				l0.1,0l0.2,0l0.2,0l0.2,0l0.2,0l0.2,0l0.2,0l0.1,0l0.2,0l0.1,0l0.1,0l0.1,0l0.2,0l0.2,0l0.2,0l0.3,0l0.2,0l0.2,0l0.2,0l0.2,0
				l0.2,0l0,0l0.2,0l0.2,0l0.2,0l0.2,0l0.1,0l0.3,0l0.2,0l0.1,0l0.4,0l1.2-0.1l0,0l0.4,0l0.3,0l0.3,0l0.2,0l0,0l0.2,0l0.3,0l0.4,0
				l0.3,0l0.4,0l0.2,0l0.1,0l0.3,0l0.2,0l0.3,0l0.2,0l0.3,0l0.2,0l0.2,0l0.1,0l0.2,0l0.2,0l0.3,0l0.3,0l0.2,0l0.3,0l0,0l0.2,0l0.2,0
				l0.4,0l0.3,0l0.3,0l0.2,0l0.1,0l0.2,0l0.3,0l0.1,0l0.3,0l0.2,0l0.3,0l0.2,0l0.2,0h0l0.2,0l0.3,0l0.4,0l0.3,0l0.2,0l0.3,0l0,0
				l0.2,0l0.2,0l0.4,0l0.4,0l0.1,0l0.2,0l0.2,0l0.1,0l0.3,0l0.5,0l0.3,0l0.2,0l0.3,0l0.1,0l0.2,0l0.2,0l0.2,0l0.2,0l0.3,0l0.3,0
				l0.2,0l0,0l0.3,0l0.2,0l0.1,0l0.3,0l0.4,0l0.2,0l0.3,0l0,0l0.3,0l0.3,0l0.3,0l0.4,0l0.2,0l0.3,0l0,0l0.2,0l0.3,0l0.2,0l0.2,0
				l0.3,0l0.2,0l0.3,0l0.2,0l0.2,0l0.3,0l0.2,0l0.3,0l0.2,0l0.3,0l0,0l0.3,0l0.3,0l0.3,0l0.3,0l0.4,0l0.2,0l0,0l0.3,0l0.2,0l0,0
				l0.3,0l0.2,0l0.4,0l0.2,0l0.1,0l0.2,0l0.3,0l0.4,0l0.3,0l0.3,0l0.3,0l0.1,0l0.2,0l0.3,0l0.3,0l0.4,0l0.3,0l0.2,0l0,0l0.3,0l0.5,0
				l0.4,0l0.4,0l0.1,0l0.3,0l0.6,0l0.3,0l0.2,0l0.3,0l0.1,0l0.3,0l0.2,0l0.1,0l0.1,0l0.2,0l0.2,0l0.3,0l0.2,0l0.5,0l0.2,0l0.2,0
				l0.3,0l0.3,0l0.1,0l0.3,0l0.5,0l0.4,0l0.2,0l0.3,0l0,0l0.5,0l0.3,0l0.5,0l0.3,0l0.1,0l0.5,0l0.3,0l0.4,0l0.3,0l0.1,0l0.1,0l0.4,0
				l0.4,0l0.6,0l0.3,0h0l0.5,0l0.4,0l0.5,0l0.4,0l0,0l0.4,0l0.4,0l0.5,0l0.2,0l0.1,0l0.5,0l0.4,0l0.5,0l0.3,0l0.1,0l0.4,0l0.5,0
				l0.7,0l0.2,0l0.1,0l0.5,0l0.1,0l0.2,0l0-0.2l0-0.3l0-0.3l0-0.1l0-0.2l0-0.4l0-0.3l0-0.4l0-0.3l0-0.1l0-0.3l0-0.1l0-0.1l0-0.2
				l0-0.1l0-0.2l0-0.2l0-0.4l0-0.3l0-0.3l0-0.4l0-0.2l0-0.3l0-0.3l0-0.3l0-0.2l0-0.3l0-0.2l0-0.2l0-0.3l0-0.3l0-0.2l0-0.2l0-0.2
				l0-0.3l0-0.2l0-0.2l0-0.3l0-0.3l0-0.4l0-0.2l0-0.2v0l0-0.3l0,0l-0.1-3.1l0,0l-0.1-3.5l-0.1-3.5l-0.1-3.5l0-0.6l1.5-0.6l0.3-0.1
				l1.7-0.7l1.7-0.7l1.4-0.6l0.2-0.1l0.1-0.1l3.3-1.4l1.2-0.5l0.3-0.1l0.1,0l0-0.6l0-1.3l0-0.9l0-0.3l0-0.4l0-0.1l0-1.8l0-1.4l0-1
				l0,0l0-0.1l0-0.2l0-0.2l0-0.2l0-0.1l0,0l0-0.2l0,0l0-2.4l0-0.1l0-0.2l0,0l1.5,0l0.6,0l2.7-0.1l0.3,0l0.2,0l3-0.1l0.2,0l0.2,0
				l0.1,0l0.2,0l0-0.2l-0.2-8.6l0-0.2l0-0.3l-0.1-4.5l-0.1-2.7l0-0.6l-0.1-3l0-0.5l-0.1-3l-0.1-3.2l0-0.8l-0.2,0l0,0l0-0.1l-0.1-3.3
				l0,0l-0.1,0l-0.1-3.5l-0.2-6.8l0-0.2l0-0.2l-0.1-1.8l0-0.5l0-0.5l0-0.4l0-0.5l-0.2-6.8l0,0l-0.1-2.9l0-0.4l0-0.4l0-0.6l0-0.1
				l0-0.6l0-0.3l0-0.6l0-0.1l0-0.6l0-0.3l0-0.7l0-0.1l0-0.7l0-0.3l0-0.7l0-0.1l0-0.7l0-0.2l0-0.2l-0.1-3.1l0-0.3l-0.1-2.4l0-0.1
				l0-0.7l0-0.2l0-0.2l0-0.7l0,0l0,0l0-0.7l0-0.3l0-0.7l0-0.1l0-0.7l0-0.2l0-0.1l-0.1-3.2l0-0.2l0-0.2l0-0.7l0-0.1l0-0.7l0-0.3
				l0-0.7l0-0.1l0-0.7l0-0.2l0-0.2l0-0.6l0-0.1l0-0.7l0-0.3l0-0.6l0-0.1l0-0.6l0-0.3v0l0,0l-0.1,0l-0.1,0l-0.2,0l-0.2,0l-2.5,0.1
				l-0.3,0l-0.5,0l-0.8,0l-2.3,0l-0.5,0l-0.9,0l-0.3,0l-0.5,0l-0.9,0l-0.4,0l-0.4,0l-1,0l-0.3,0l-0.3,0l-0.9,0l-0.5,0l-0.5,0l-0.9,0
				l-0.4,0l-0.3,0l-0.9,0l-0.5,0l-0.3,0l0,0l-0.2,0l-0.8,0l-0.4,0l-0.5,0l-0.6,0l-0.4,0l-0.3,0l-0.3,0l-0.4,0l-1,0l-2.3,0.1l-0.1,0
				l-2.2,0.1l-0.6,0l-0.5,0l-0.9,0l-1.7,0l-0.2,0l-0.2,0l-1.1,0l-2,0.1l-0.4,0l-0.1,0l-0.3,0l-1,0l-0.3,0l-0.2,0l-0.3,0l-1,0l-0.3,0
				l-1.5,0l-0.3,0l-0.5,0l-1,0l-0.3,0l-0.4,0l-1,0l-0.3,0l-0.4,0l0,0l-1.1,0l-0.3,0l-0.4,0l-0.9,0l-0.4,0l-0.3,0l-1,0l-0.4,0l0-0.5
				l0-0.4l0-0.2l0-0.8l0-0.6l0-0.7l0-0.4l0-0.4l0-0.7l0-0.3l0-0.3l0-0.4l0-0.3l0-0.4l0-0.2l0-0.4l0-0.3l0-0.3l0-0.3l0-0.4l0-0.2
				l0-0.2l0-0.4l0-0.4l0-0.2l0-0.1l0-0.1l0-0.2l0,0l0-0.4l0-0.3l0-0.3l0-0.2l0-0.1l0-0.4l0-0.4l0-0.5l0-0.3l0-0.1l0-0.4l0-0.4l0-0.4
				l0-0.5l0-0.6l0-0.4l0-0.2l0-0.4l0-0.3l0-0.5l0-0.4l0-0.4l0-0.3l0-0.5l0-0.6l0-0.2l0-0.2l0-0.5l0-0.3l0-0.3l0-0.3l0-0.5l0-0.2
				l0-0.6l0-0.2l0-0.4l0-0.4l0-0.4l0-0.5l0-0.5l0-0.5l0-0.2l0-0.3l0-0.6l0,0l0-0.3l0-0.3l0-0.6l0-0.5l0-0.4l0-0.1l0-0.5l0-0.6l0-0.5
				l0-0.2l0-0.1l0-0.2l0-0.6l-0.1-3.7l-0.1-2.9l-0.1-2.9l0-0.5l0-0.1l0-1.1l0-0.1l-0.1-1.8l-0.1-2l0-0.4l0-1.4l-0.1-1.7l-0.1-1.8
				l-0.1-1.9l0-0.7l0-1l0-1.5l0-0.2l0-0.3l0-0.5l0-0.1l0-0.6l0-0.3l0-0.6l0-0.2l0-0.4l0-0.4l0-0.6l0-0.3l0-0.5l0-0.4l0-0.4l0-0.5
				l0-0.2l0-0.9l0-0.8l0-0.4l0-0.3l0-0.5l0-0.7l0-0.7l0-0.7l0-0.7l0-0.3l0-0.5l0-0.2l-0.1-2.8l-0.1-3.5l-0.1-3.5l-0.1-2.7l0-0.6
				l0-0.1l-1.2,0l-0.3,0l0,0l-0.3,0l-0.5,0l-0.5,0l-0.5,0l0,0l-0.3,0l-0.3,0l-0.6,0l-0.3,0l-0.4,0l-0.2,0l-0.4,0l-0.2,0l-0.3,0
				l-0.4,0l-0.2,0l-0.4,0l-0.5,0l-0.2,0l-0.6,0l-0.3,0l-0.3,0l-0.4,0l-0.3,0l-0.3,0l-0.3,0l-0.4,0l-0.2,0l-0.2,0l-0.3,0l-0.4,0
				l-0.2,0l-0.3,0l-0.3,0l-0.3,0l-0.4,0l-0.2,0l-0.3,0l-0.3,0l-0.3,0l-0.4,0l-0.4,0l0,0l-0.5,0l-0.2,0l-0.4,0l-0.4,0l-0.5,0l-0.4,0
				l-0.4,0l-0.2,0l-0.1,0l-1.6,0l-0.4,0l-1.3,0l-0.4,0l-1.3,0l-0.4,0l-1.3,0l-0.4,0l-1.4,0l-0.4,0l-1.3,0l-0.8,0l-0.9,0l-0.4,0
				l-0.1,0l-0.2,0l-0.1,0l-0.1,0h0l-0.2,0l-0.2,0l-0.1,0l-0.3,0l-0.3,0l-0.1,0l-0.2,0l-0.3,0l-0.1,0l-0.1,0l-0.2,0l-0.4,0l-0.2,0
				l-0.2,0l-0.2,0l-0.2,0l-0.2,0l-0.3,0l-0.2,0l-0.2,0l-0.2,0l-0.5,0l-0.2,0l-0.3,0l-0.3,0l0,0l-0.1,0l-0.4,0l-0.2,0l-0.2,0l-0.2,0
				l0,0l-2,0.1l-2.6,0.1l0-0.9l0,0l0-0.1l0-0.3l0-0.1l0-0.2l0-0.3l0-0.2l0-0.3l0-0.2l0-0.2l0-0.1l0,0l0-0.3l0-0.3l0-0.9l0-0.2l0-0.2
				l0-0.3l0-0.2l0-0.4l0-0.3l0-0.3l0-0.3l0-0.3l0-0.3l0-0.2l0-0.2l0-0.1l0-0.4l0-0.3l0-0.3l0-0.5l0-0.3l0-0.4l0-0.3l0-0.3l0-0.2
				l0-0.2l0-0.4l0-0.3l0-0.3l0-0.5l0-0.3l0-0.4l0,0l0-0.3l0-0.5l0-0.1l0-0.2l0-0.2l0-0.3l0-0.1l0-0.4l0-0.3l0-0.3l0-0.4l0-0.4l0-0.4
				l0-0.2l0-0.3l0-0.3l0-0.4l0-0.4l0-0.3l0-0.3l0-0.5l0-0.4l0-0.4l0-0.3l0-0.2l0-0.4l0-0.3l0-0.3l0-0.4l0-0.3l0-0.1l0-0.2l0-0.3
				l0-0.4l0-0.3l0-0.2l0-0.3l0-0.4l0-0.2l0-0.5l0-0.2l0-0.2l0-0.4l0-0.2l0-0.5l0,0l0-0.4l0,0l0-0.1l0-0.2l0-0.2l0-0.1l0-0.3l0-0.5
				l0-0.3l0-0.4l0-0.2l0-0.3l0-0.3l0-0.2l0-0.2l0-0.2l0-0.4l0-0.4l0-0.2l0-0.2l0-0.3l0-0.1l0-0.3l0-0.2l0-0.4l0-0.2l0-0.2l0-0.2
				l0-0.2l0-0.2l0-0.3l0-0.3l0-0.2l0-0.2l0-0.2l0-0.2l0-0.3l0-0.7l0-0.3l0-0.2l0-0.2l0-0.2l0-0.1l0-0.4l0-0.4l0-0.1l0-0.3l0-0.3
				l0-0.2l0-0.2l0-0.2l0-0.2l0,0l0-0.1l0-0.3l0-0.2l0-0.1l0-0.1l0-0.8l0-0.3l0-0.4l0-0.9l-0.1-1.6l0-0.3l0-0.3l0-0.3l0-0.8l0-0.4
				l0-0.5l0-0.6l0-0.2l0-0.3l-0.3,0l-0.4,0l-0.1,0l-0.9,0l-0.5,0l-0.4,0l-0.1,0l-0.8,0l-0.5,0l-0.4,0l-0.1,0l-0.4,0l-0.4,0l-0.5,0
				l-0.3,0l-0.2,0l-0.7,0l-0.7,0l-0.2,0l-0.2,0l-0.6,0l-0.7,0l-0.1,0l-0.4,0l-0.4,0l-0.3,0l-0.3,0l-0.2,0l-0.9,0l-0.3,0l-0.3,0
				l-0.2,0l0,0l-0.2,0l-0.2,0l0,0l-0.5,0l0-0.4l0-0.2l0-0.6l0-0.3l0-0.4l0-0.3l0-0.2l0-0.3l0-0.3l0-0.5l0-0.6l0-0.4l0-0.3l0-0.1
				l0-1.3l0-0.2l0-0.3l0-0.4l-0.2,0l-0.4,0l-0.3,0l-0.3,0l-0.3,0l-0.3,0l-0.2,0l-0.1,0l-0.1,0l-0.2,0l-0.2,0l-0.2,0l-0.4,0l-0.3,0
				l-0.3,0l-0.2,0l-0.2,0l-0.2,0l-0.2,0l-0.4,0l-0.2,0l-0.3,0l-0.2,0l-0.2,0l-0.1,0l-0.3,0l-0.3,0l-0.3,0l-0.3,0l-0.2,0l-0.2,0
				l-0.3,0l-0.4,0l-0.4,0l-0.3,0l-0.2,0l-0.2,0l-0.3,0l-0.4,0l-0.3,0l-0.1,0l-0.2,0l-0.1,0l-0.3,0l-0.3,0l-0.2,0l-0.3,0l-0.3,0
				l-0.2,0l0,0l-0.2,0l-0.3,0l-0.2,0l-0.3,0l-0.5,0l-0.4,0l-0.2,0l-0.2,0l-0.2,0l-0.3,0l-0.4,0l-0.3,0l-0.2,0l-0.3,0l-0.1,0l-0.5,0
				l-0.3,0l-0.2,0l-0.2,0l-0.2,0l-0.3,0l-0.3,0l-0.5,0l-0.3,0l-0.2,0l-0.2,0l-0.2,0l-0.2,0l-0.3,0l-0.3,0l-0.2,0l-0.2,0l-0.2,0
				l-0.2,0l-0.3,0l-0.3,0l-0.2,0l-0.2,0l-0.2,0l-0.1,0l0,0l-0.1,0l-0.4,0l-0.3,0l-0.3,0l-0.2,0l-0.2,0l-0.4,0l-0.2,0l-0.1,0l-0.3,0
				l-0.3,0l-0.9,0h0l-0.6,0l-0.3,0l-0.5,0l-0.4,0l-0.3,0l-0.4,0l-0.4,0l-0.5,0l-0.5,0l-0.6,0l-0.5,0l-0.6,0l-0.5,0l-0.5,0l-0.4,0
				l-0.5,0l-0.5,0l-0.5,0l-0.5,0l-0.5,0l-0.6,0l-0.5,0l-0.6,0l-0.3,0l-0.1,0l-0.2,0l-0.4,0l-0.5,0l-0.7,0l-0.4,0l-0.2,0l-0.3,0
				l-0.2,0l-0.3,0l-0.3,0l-0.4,0l-0.2,0l-0.5,0l-2.3,0.1l-1.5,0.1l-0.2-0.3l-0.6-0.6l-0.7-0.6l-0.5-0.5l-0.6-0.7l-0.3-0.5l-0.2-0.4
				l-0.4-1.2l-0.2-1.2l-0.4-1.6l-0.3-1.1l-0.3-0.8l-0.1-0.4l-0.1-0.2l0-0.2l0-0.2v-0.2l0-0.1l0-0.1l0-0.2l0-0.1l0-0.1l0-0.2
				l-0.1-0.2l-0.1-0.3l-0.1-0.2l-0.1-0.1l0-0.2l-0.2-0.9l-0.2-1.3l-0.3-1.5l-0.2-0.8l-0.2-0.6l-0.8-1.7l-0.3-0.7l-0.2-0.5l0-0.3
				l0-0.5l0-0.3l0-0.6l0.1-1l0.2-0.6l0.1-0.2l0.1-0.4l0.2-0.4l0.1-0.4l0.2-0.4l0.1-0.2l0.1-0.2l0.1-0.3l0.1-0.5l0.1-0.3l10.6-0.4
				l0-0.3l0-1.4l0-6l-16.3,0.6l-0.2-0.3l-0.1-0.2l-0.1-0.3l-0.1-0.3l-0.1-0.3l0-0.1l0-0.3l-0.1-0.2l0-0.2l-0.1-0.3l0-0.3l0-0.3
				l0-0.3l0-0.3l0.1-0.2l0.1-0.1l0.4-0.6l0.4-0.8l0.3-0.6l0.3-0.6l0.2-0.4l0.2-0.7l0.2-0.5l0.3-0.7l0.2-0.5l0.1-0.2l0.3-0.7l0.2-0.6
				l0.2-0.7l0.7-1.6l0.2-0.8l0-0.1l0.1-0.8l0-0.7l0.1-1.5l0.1-0.5l0.2-0.8l0.5-1.6l0.1-0.4l0.1-0.4l0.1-1.1l0-0.5l-0.1-0.6l-0.2-0.8
				l-0.1-0.8l0-0.7l0.2-0.8l0.2-0.6l0.2-0.5l0.4-1.2l0.1-0.5l0.1-0.4l0-0.4v-0.3l0-0.3l0-0.2l-0.1-0.4l-0.3-0.5l-0.2-0.3l-0.5-0.6
				l-0.3-0.2l-0.3-0.1l-0.3-0.1l-0.3-0.1l-0.3,0l-0.2,0.1l-0.5,0.2l-0.1,0l-0.5,0.2l-0.6,0.3l-0.5,0.3l-0.8,0.7l-0.2,0.2l-0.2,0.1
				l-0.2,0.1l-0.2,0l-0.2,0l-0.3-0.1l-0.3-0.1l-0.3-0.1l-0.2-0.1l-0.2-0.1l-0.3-0.2l-0.5-0.3l-0.3-0.2l-0.3-0.3l-0.2-0.2l-0.2-0.2
				l-0.3-0.4L114,118l-0.4-0.5l-0.1-0.3l-0.1-0.3l0-0.1l-0.5,0l-0.7,0l-0.5,0l-1.3,0l-0.3,0l-0.8,0l-0.8,0l-0.9,0l-0.6,0l-0.5,0
				l-0.3,0l-0.2,0l-0.3,0l-0.5,0l-0.4,0l-0.1,0l-0.1,0l-0.6,0l-0.2,0l-0.1,0l-0.1,0l-0.1,0l-0.1,0l-1.5,0.1l-1,0l-0.4,0l-0.2,0
				l-0.5,0l-0.5,0l-0.5,0l-0.5,0l-0.2,0l-0.2,0l-0.2,0l-0.3,0l-4,0.2l-2,0.1l-1.1,0l-3.8,0.1l0,2.8l0,0.6l0,3.5l0,1.6l0,5.2l0,0.2
				l0,0.2l0.1,8.3l0,0.1l0,0l0,1.9l0,0.2l0,1.6l0,0.1l0,1.5l0,2l-1.2,0.2l-3.1-0.5l0,0.1l-0.3,0l0,0l-0.6-0.1l-0.2,0l-0.1,0l-0.2,0
				l-0.1,0l-0.4-0.1l-0.4-0.1l-0.2,0l0,0.1l-1.7-0.3l-1.4-0.2l-0.3-0.1l-1-0.2l-0.9-0.2l-0.5-0.1l-0.8-0.1l-0.3,0l-3.4,0.1l0,0.2
				l0,6.7l0,4.8l0,2.1l0,0l-3.3,0.1l-0.1,0l-2.4,0.1l-0.4,0l-3.8,0.1l-0.1,0l-1.3,0l-0.9,0l-0.3,0l-2.3,0.1l-0.2,0l-0.2,0l-1.1-0.3
				l-0.6-0.2l-2.1-0.6l-2.9-0.8l-2.3-0.6l-3.1-0.8l-0.1,0l0,1.8l-3.2-1l-0.3-0.1l0,0l0,0l-0.1-4.4l0-0.7l-0.1-0.7l-0.1-0.7l-0.1-0.7
				l-0.1-0.7l-0.1-0.7l-0.1-0.5l-0.2-0.1l-0.1-0.1l-0.5-0.3l-0.3-0.2l-0.2-0.1l-0.4-0.2l-0.2-0.1l-0.3-0.1l-0.3-0.1l-0.3-0.1l-0.2,0
				l-0.3-0.1l-0.9-0.2l-2.1-0.5l-0.4-0.1l0-0.3l-0.5-0.1l-0.8-0.1l-0.5-0.1l-0.9-0.1l-0.3-0.1l0,0.3l0,3.3l0.1,5.1l-1.6-0.5
				l-0.3-0.1l-1.1-0.4l-0.6-0.2l-0.6-0.2l-1.4-0.4l-0.3-0.1v-1.6l0-2.3l0-1.8l0-1.5l0,0l0-0.5l0-0.3l-0.7-0.2l-0.6-0.1l-0.7-0.1
				L19,144l-2.3-0.5l-1-0.2l-1.1-0.2l-0.8-0.2l0,0l-0.1-3.4l-0.1-4.5l0-1.3l-3.6,0l0-3.9L7,132.5l-1.9,2.2H2.9l-0.1-27.3l0-2.5
				l0-0.5l0-0.9l0-0.7l0-0.7l0-0.2l0-0.7l0-0.8l0-0.9l0-0.7l0-0.5l0-0.7l0-0.7l0-0.8l0-1.1l0-0.3l0-0.1l0-0.1l0-0.5l0-0.8l0-0.3
				l0-0.9l0-0.7l0-1l0-0.1l0-0.4l0-0.5l0-0.8l0-0.7l0-0.9l0-0.8l0-0.8l0-0.6l0-0.7l0-0.5l0-1l0-0.6l0-0.5l0-0.3l0-1l0-0.8l0-0.4
				L3.4,79l0.5,0l0-0.2l0-0.1L4,78.2l0.1-0.6L4.2,77l0.1-0.6l0.1-0.6l0.1-0.6l0.2-0.6L5,74.1l0.2-0.6l0.2-0.6l0.2-0.6L5.7,72
				l0.1-0.3l0.1-0.2L6,71.1l0.3-0.6l0.3-0.6l0.3-0.6l0.2-0.4l0.1-0.2l0.1-0.2l0.2-0.3l0.2-0.3l0.1-0.2L8,67.4l0.2-0.3l0.2-0.3
				l0.2-0.3l0.2-0.2l0.1-0.1l0,0L9,65.9l0.1-0.1l0.4-0.6l0.2-0.3l0.5-0.6l0.2-0.3l0.3-0.4l0,0l0.2-0.2l0.3-0.3l0.1-0.1l0.2-0.2
				l0.6-0.6l0.3-0.3l0.4-0.4l0.5-0.5l0.3-0.3l0.3-0.3l0.1-0.1l0.1-0.1l0.6-0.6l0.2-0.2l0.3-0.3l0.2-0.2l0,0l0.2-0.2l0,0.2l0,0.3
				l0,0.3l0,0.3l0,0.3l0,0.3l0,0.3l0,0.3l0,0.3l0,0.3l0,0.3l0,0.3l0,0.3l0,0.2l0.1,0l0,0l0.2,0l0.2,0l0.2,0l0.2,0l0.2,0l0.2,0l0.2,0
				l0.2,0l0.2,0l0.1,0l0.1,0l0.2,0l0.2,0l0.1,0l0.2,0l0.2,0l0,0l0.2,0l0.2,0h0l0.2,0l0.2,0l0.1,0l0.2,0l0.2,0l0.1,0l0.1,0l0.2,0
				l0.2,0l0.2,0l0.2,0l0,0l0.2,0l0.2,0l0.2,0l0.2,0l0,0.5l0,1l0,0.9l1.4,0l0.1,0l1.2,0l2.4-0.1l1.6,0l0.1,0l0.1,0l0-0.1l0.1,0l0-0.5
				l0,0l0-0.1l0,0l-0.1-3.8l0-0.4l0-2.3l0-0.1l1.4,0l1.3,0l4.7-0.1l0.5,0l0.3,0l1.3,0l0.1,0l0-0.3l0-5.6l0-0.5l0-0.3l0-0.2l0,0
				l0.4,0l0.1,0l0.1,0v0.2v0.1l0,4.4l0.4,0l0,0.3l0,1.9l1.7,0l0.7,0l0,0l3.2-0.2l0.5,0l0.6,0l0,0l0.9,0l0-0.6l0-6.1l0-0.1l0-0.2
				l1.8-0.1l0.9,0l0.5,0.2l2,0.7l2.3,0.8l0.1,0l0,0.3l4.6,1.6l0.6,0.2l0.6,0.3l0.6,0.3l0.5,0.3l0.5,0.3l0.3,0.2l0.4,0.3l1,0.6l0,0.3
				l0.1,0l0.2,0l0-0.4l0.3,0.2l0.3,0.2l0,0l1.4-0.1l0,0.5l0,5.2l0.4,0l0.7,0l0-0.1l0-0.8l0-0.2l0.3,0l0.2,0l0-0.1l0-0.1l0-1h0l0.3,0
				l0.2,0l0.5,0l0.5,0l0.4,0l0.9,0.5l0.8,0.4l0.8,0.4l0.2,0.1l-0.1,0.1l-0.2,0.4l-0.1,0.2l0,0l0,0l-0.2,0v0.5v0.4v0.1l0,0l-5.6,0.3
				l0,0.1l0,0.1l-3.6,0.2l-0.7,0l-0.2,0l-0.5,0l-0.7,0L60,62.8l-3.9-2.8l-0.6-0.4l0-0.8l-1.3,0.1l-1.1,0.1l0,0.8l1.3,0.3l5.1,3.7
				l0.5,0l2.5-0.1l0,1.9L66,66l0.8,0.2l0.2,0l0.3,0.1l0.9,0.2l0.7,0.1l0.1,0l1.5,0.3l1.5,0.3l0.1-0.1l0.4,0.1l0.4,0.1l0.5,0.1
				l0.6,0.1l1.2,0.3l0.3,0.1l0.9,0.2l0.6,0.2l0.8,0.2l0,0l1.4,0.4l1.1,0.3l0.1,0l0,0.3l0,0l0.6,0.2l0,0.2l0,0.1l0,5.4l0,0.3l0.1,0
				l0,0l0,0l0.3,0l2-0.1l2.8-0.1l0.3,0l0.4,0l0.1,0.2l0.8,3l0.1,0.4l2,7.4l1,3.8l0.3,1.1l0.6,2.3l0,0l1.5-0.1l0,0.8l0,1.1l0,1.6
				l0,1.3l0,0.5l0.6,2.1l0.3,1.1l0.5,1.8l0,0.2l-0.1,0l-0.1,0l1.9,6.8l0,0l-0.4,0l-0.2,0l-0.7,0l-1.8,0.1v0l0,1.7l0,1.7l0,0.7l0,1
				l3.6-0.1l0.5,0l0,0l0,0.2l0.4,0l0.2,0l-0.1-0.2l0,0l2.4-0.1l1.9-0.1l1.5,0l0,0.2l0,0.3l0.1,0l0.5,0l0.5,0l0,0l0-0.3l0.5,0l0,0.2
				l0,0.3l0.9,0l0.2,0l0.9,0l0.2,0l0.7,0l0.2,0l0.9,0l0.8,0l0.2,0l0,0l2.1-0.1l0.2,0l0.5,0l0,0l0-0.2l0-0.6l0.1-0.5l0.1-0.4l0.1-0.7
				l0.1-0.3l0.2-0.4l0.4-0.8l0.3-0.4l0.1-0.2l0.4-0.4l1-0.9l0.8-1.1l0.7-1.2l0-0.1l0.5-0.8l0.3-0.3l1.7-2l1-1.1l0.3-0.7l0.2-0.6
				l0.1-0.6l0.1-0.6V100l-0.3-1.2l-0.3-1.2l0-0.1l-0.5-1.3l-0.1-0.3v0l0-0.2l0-0.4l0-0.3l0.1-0.4l0,0l0.1-0.3l0.1-0.3l0-0.1l0-0.3
				l0.1-0.8l0.1-0.3l0.2-0.5l0.1-0.4l0.1-0.4l0.1-0.5l0-0.2l0.2-0.7l0.2-0.4l0-0.2l0-0.2l0-0.5l-0.1-0.6l-0.1-0.3l-0.1-0.5l-0.1-0.2
				l0,0h0l0.5,0.2l0.6,0.2l0.3,0.1l0.3,0.1l0.2,0l0.5,0.1l0.4,0.1l0.4,0l0.6,0l0.7,0l0.4,0l0.1,0l0.1,0l0.1,0l0.1,0l0.2,0l0.2,0
				l0.1,0l0.2,0l0.2,0l0.1,0l0.1,0l0.4,0l0.1,0l0.1,0l0.1,0l0.2,0l0.2,0l0.2,0l0.3,0l0.2,0l0.3,0l0.3,0l0.2,0l0.4,0.1l0.3,0.1l0.2,0
				l0.2,0l0.3,0l0.3,0.1l0.2,0l0.2,0l0.8,0.2l0.2,0l0.6,0.1l0.6,0.1l0.6,0.1l0.5,0.1l0.5,0.1l0.4,0.1l0.5,0.1l0.2,0l0.3,0.1l0.1,0
				l0.1,0l0.2,0l0.2,0l0.1,0l0.2,0l0.2,0l0.3,0.1l0.1,0l0.2,0l0.1,0l2.1,0.4l2.4,0.5l0.6,0.1l0.3,0l0.6,0.1l0.2,0l0.4,0.1l0.3,0.1
				l0.3,0.1l0.3,0.1l0.2,0l0.3,0.1l0.3,0l1.3,0.2l1.7,0.3l0.8,0.1l1.2,0.2l14.6,2.7l0.3,0l0.3,0l0.1-0.6l0-0.1l0-0.2l0-0.2l0-0.4
				l0-0.3l0-0.1l0-0.3l0-0.3l0-0.1l0-0.3l0-0.3l0-0.1l0-0.1l0-0.1l0-0.2l0-0.3l0-0.3l0-0.1l0-0.4l0-0.3l0,0l0-0.4l0-0.2l0-0.2l0-0.4
				l0-0.3l0.1-0.6l0.1-0.8l0-0.3l0-0.1l0.1-0.7l0-0.3l0-0.3l0-0.4l0-0.4l0-0.3l0-0.3l0-0.3l0-0.3l0-0.3l0-0.3l0-0.5l0-0.3l0-0.3
				l0-0.2l0-0.3l0-0.1l0-0.1l0,0l0.1-0.5l0-0.5l0.1-0.8l0-0.4l0-0.4l0-0.4l0.1-0.5l0.1-0.7l0.1-0.8l0.1-1.1l0.1-0.5l0.1-0.4l0.1-0.4
				l0.1-0.4l0.1-0.5l0-0.2l0.2-1.1l0-0.1l0-0.8l0-0.4l0-0.4l0-0.9l0-0.2l0-0.1l0-0.4l0-0.1l0-0.3v-0.1v-0.2l0-0.2l0-0.7l0-0.3l0-0.3
				l0-0.3v0l0-0.3l0-0.3l0-0.3l0-0.3l0-0.1l0-0.1l0,0l0-0.2l0-0.2l0-0.1l0-0.1l0-0.2l0-0.1l0-0.1l0-0.1l0-0.1l0-0.3l0-0.3l0-0.2
				l0-0.1l0-0.1l0-0.2l0-0.1l0-0.1l0-0.1l0-0.2l0-0.1l0-0.2l0-0.1l0-0.2l0-0.1l0-0.2l0-0.1l0-0.1l0-0.1l0-0.3V60v-0.1l0-0.2l0-0.1
				l0-0.2l0-0.2l0-0.1l0-0.3l0-0.1l0-0.1l0-0.2l0-0.1l0-0.1l0-0.1l0-0.4l0-0.7l0-0.4l0-0.1l0-0.2l0-0.4l0-0.4l0,0l0,0l0-0.1l0-1.6
				l0-0.1l0-0.2l0-0.4l0-0.2l0-0.1l0-0.3l0-0.2l0-0.2l0-0.2l0-0.1l0-0.5l0-1.7v0l0-0.1l0-0.2l0-0.2l0-0.2l0-0.2l0-0.3l0-0.2l0-0.2
				l0-0.3l0,0l0-0.1l0-0.1l0-0.3l0-0.2l0-0.2l0-0.2l0-0.2l0-0.2l0-0.2l0,0l0-0.1l0-0.3l0-0.2l0-0.2l0-0.2l0-0.3v-0.2v-0.1v-0.6
				l0.3,0l0.2,0l0.1,0l0.1,0l0.1,0l0.2,0l0.2,0l0.2,0l0.2,0l0.1,0l0.4,0l0-0.2l0-0.2l0,0l0-0.5l0-0.1l0-0.1l0,0l-0.5,0l0,0l0-0.1v0
				v-0.3v-0.2v-0.1V42l0-0.3v-0.2v0v-0.1v-0.1v-0.1l0-0.3v-0.2v-0.3l0-0.3l0-0.3v-0.1v-0.1v0l0-0.3l0-0.3v-0.1l0-0.3v-0.1l0-0.3
				v-0.3v0V38v-0.1v0v-0.3l0-0.3l0-0.2l0-0.2v-0.2v0v-0.1v-0.3l0-0.1v-0.1l0-0.1l0,0l-0.1,0l-0.1,0l-0.2,0l-0.2,0l-0.1,0l0,0l-0.3,0
				l-0.4,0l0,0l-0.3,0v0l0-0.1v0l0-0.2v-0.1l0-0.1l0-0.2v0v-0.1l0-0.1l0-0.1l0,0v0l0-0.1l0-0.1v-0.1l0,0l0-0.1v0l0-0.1v0l0-0.1v0
				v-0.1v-0.1l0-0.1l0,0v0l0-0.2v0l0,0l0-0.1l0-0.1v0l0-0.2v-0.1v0l0-0.1l0-0.2l0-0.2l0-0.2l0-0.2l0-0.1l0-0.1l0-0.2v0l0-0.2l0-0.2
				v0l0-0.2l0-0.1l0-0.2l0-0.1l0-0.2l0-0.1l0-0.3l0-0.2h0l0.6,0l0.3,0l0.2,0l2.1-0.1l0.2,0l0.1,0l0.2,0l1.3,0l0.2,0l0.2,0l1.3,0
				l0.2,0l0.2,0l1.2,0l0.1,0l0.3,0l0.2,0l1.3,0l0.2,0l0.2,0l1.3,0l0.2,0l0.2,0l1.3,0l0.2,0l0.2,0l1.3,0l0.2,0l0.2,0l1.2,0l0.3,0
				l0.2,0l1.3,0l0.3,0l0.3,0l0.4,0l0.4,0l0.4,0l0.3,0l0,0.3l0,0.5l0,0.6l0,0.7l0,0.6l0,0.1l0,0.3l0,0.2l0,0.2l0,0.1l0,0.9l0,1.9
				l0,0.3l0,0.2v0l0,1.7l0,1.2l0,0.3l0,0.2l0,0.3l0,1.3l0,0.3l0,0.3l0,0.1l0,1l0,0.4l0,0.3l0,0.4l0,0.6l0,0.3l0,0.4l0,0.3l0,0.3
				l0,0.2l0,0.2v0l0,0.6l0,0.4l0,0.3l0,0.4l0,0.2l0,0.2l0,0.4l0,0.1l0,0.2l0,0.3l0,0.4l0,0.4l0,0.4l0,0.1l0,0.1l0,0.3l0,0.4l0,0.2
				l0,0.4l0,0.2l0,0.1l0,0.4v0.4l0,0.5l0,0.2l0,0.2l0,0.3l0,0.6l0,0l0,0.3l0,0.3l0,0.2l0,0.2l0,0.4l0,0.4l0,0.3l0,0.4l0,0.3l0,0.4
				l0,0.5l0,0.3l0,0.4l0,0.3l0,0.5l0,0.3l0,0.3l0,0.2l0,0.3l0,0.3l0,0.5l0,0.3l0,0.7l0,0.5l0,0l0.2,0l1.1,0l0.6,0l0.1-0.1l0-0.9
				l0-0.2l0.4,0l0.5,0l0,0l0,0l0.1,0l0.1,0l0.1,0l0.1,0l0.2,0l0.1,0l0.1,0l0.1,0l0.2,0l0.1,0l0.2,0l0.2,0l0.3,0l0.4,0l0.2,0l0,0
				l0.2,0l0.3,0l0.1,0l0.2,0l0.3,0l0.2,0l0.2,0l0.2,0l0.1,0l0.2,0l0.2,0l0.3,0l0.2,0l0,1.3l2,0l0.3,1.6l0,0.1l0.3,0l0.2,0l0.2,0
				l0.3,0l0.1,0l0.1,0l0.2,0l0.3,0l0.3,0l0.2,0l0.2,0l0.1,0l0.1,0l0.3,0l0.4,0l0-0.1v0l0-0.1l0-0.1l0-0.1l0-0.6l0-0.7l0-0.1l0.5,0
				l0.3,0l0.2,0l0.4,0l0.3,0l0.2,0l0.4,0l0.4,0l0.3,0l0.3,0l0.2,0l0.3,0l0.2,0l0.2,0l0.3,0l0.3,0l0.2,0l0.4,0l0.3,0l0.1,0l0.3,0
				l0.3,0l0.2,0l0.2,0l0.4,0l0.1,0l0.3,0h0l0.2,0l0.1,0l0.6,0l0.2,0.3l0.1,0.2l0.1,0.2l0.1,0.2l0,0l0.1,0.2l0,0.1l0,0l0.1-0.1
				l0.4-0.2l0.2-0.1l3-2l3.7-2.4l3.7-2.4l0.4-0.3l0.4-0.2l0.1,0l0.2-0.1l-0.1-0.1l-0.1-0.1l-0.1-0.1l-0.1-0.1l-0.2-0.2l-0.1-0.1
				l-0.1-0.1l-0.1-0.1l-0.1-0.1l-0.1-0.1l-0.1-0.1l-0.1-0.2l-0.1-0.1l0-0.1l0,0l0,0l-0.1-0.1l-0.1-0.1l0-0.1l-0.2-0.2l-0.1-0.2
				l-0.1-0.1l-0.1-0.1l-0.1-0.2l-0.4-0.6l-0.1-0.2l-0.1-0.2l-0.1-0.2l-0.1-0.2l-0.1-0.1l-0.2-0.3l-0.1-0.2l-0.1-0.2l-0.1-0.2
				l-0.2-0.3l-0.2-0.3l-0.1-0.1l-0.2-0.2l-0.1-0.2l-0.1-0.2l-0.1-0.2l-0.1-0.2l-0.1-0.2l-0.2-0.3l-0.2-0.3l-0.2-0.3l-0.1-0.2
				l-0.1-0.1l-0.1-0.1l-0.1-0.1l-0.1-0.2l-0.2-0.3l-0.2-0.3l-0.1-0.1l-0.1-0.2l-0.1-0.1l0-0.1l0-0.1l-0.1-0.1l0-0.1l0-0.1l-0.1-0.1
				l-0.2-0.3l0-0.1l0,0l-0.2-0.3L219,46l-0.1-0.1l-0.1-0.2l-0.1-0.1l-0.1-0.2l-0.1-0.2l-0.1-0.2l-0.1-0.2l-0.1-0.1l-0.1-0.2
				l-0.1-0.2l-0.1-0.2l-0.1-0.2l-0.1-0.1l-0.1-0.2l-0.1-0.1l-0.5-0.8l1.1,0l0.2,0l0,0l0.5,0l0.3,0l0.7,0l0.3,0l0,0l0.2,0l0.2,0
				l0.3,0l0.5,0l0.3,0l0.3,0l0.3,0l0.4,0l0.6,0l0.7,0l0.2,0l0.2,0l0.2,0l0.5,0l0.4,0l0.2,0l0.3,0l0.5,0l0.4,0l0.4,0l0.2,0l0.2,0
				l0.2,0l0.7,0l0.4,0l0.5,0h0l0.4,0l0.6,0l0-0.2l0-0.1l0-0.7l0-0.2l0-0.2l0-0.2l0-0.2l0-0.2l0-0.2l0-0.2l0-0.2l0-0.2l0-0.2l0-0.2
				l0-0.2l0,0l0-0.2l0-0.2l0-0.2l0-0.2l0-0.2l0-0.2l0,0l0-0.2l0-0.2l0-0.5l0-0.6l0.1,0l0.2,0l0.2,0l0.2,0l0.2,0l0.2,0l0.2,0l0.2,0
				l0.2,0l0.2,0l0.4,0l0.5,0l0,0.1l0,0.6l0,0.3l0,0.2l0,0.2l0,0.2l0,0.2l0,0.2l0,0.2l0,0.2l0,0.2l0,0.2l0,0l0,0.2l0,0.2l0,0.2l0,0.2
				l0,0.3l0,0.4l0,1l0,0.6l0,0.2l0.7,0l0,0l0.4,0h0l3,0l1.1,0l0.2,0.5l0.2,0.4l0.1,0.2l0.1,0.3l0.1,0.2l0,0.1l0.1,0.3l0.1,0.2
				l0.1,0.1l0.1,0.2l0.1,0.2l0.1,0.2l0.1,0.3l0,0.1l0.1,0.3l0.1,0.3l0.1,0.1l0.1,0.3l0.1,0.3l0.1,0.3l0,0.1l0,0.1l0.1,0.2l0,0.1
				l0.1,0.1l0.1,0.2l0,0.1l0.1,0.3l0.1,0.3l0.1,0.2l0.1,0.2l0.1,0.2l0.1,0.1l0.1,0.2l0,0.1l0.1,0.2l0.1,0.2l0.1,0.2l0.1,0.3l0,0.1
				l0.1,0.2l0.1,0.2l0.1,0.2l0.1,0.2l0.1,0.2l0.1,0.2l0,0.1l0.1,0.3l0.1,0.3l0.1,0.2l0.1,0.2l0.1,0.2l0,0l0.1-0.1l0.4-0.3l1.1,2.8
				l0,0l0,0.1l0.4,0.2l0.2,0.1l0.3,0.2l0.2,0.1l0.1,0.1l0.1,0.1l0.1,0l0.1,0.1l0.1,0.1l0.1,0.1l0.1,0.1l0,0l0,0l0,0l0,0l0,0l0,0
				l0.1,0l0,0l0.2,0.1l0.2,0.1l0.1,0.1l0.2,0.1l0.2,0.1l0.1,0.1l0.1,0.1l0.1,0.1L248,58l0.1,0.1l0.1,0.1l0.1,0.1l0.1,0.1l0.8,0.5
				l0.2,0.1l0,0l0.1-0.2l0.1-0.2l0.1-0.1l0.1-0.1l0.1-0.2l0,0l-0.1-0.1l-0.2-0.1l-0.1,0l-0.1-0.1l-0.1-0.1l-0.1,0l-0.1-0.1l0,0
				l-0.2-0.1l0,0l-0.2-0.1l0,0l-0.1-0.1l-0.1,0l-0.1-0.1l-0.1-0.1l-0.1,0l-0.1-0.1l0,0l-0.2-0.1l-0.2-0.1l-0.2-0.1l-0.1,0l-0.1,0
				l-0.1-0.1l-0.3-0.2l0-0.4l0-0.4l0-0.3l0-0.2l0-0.1l0-0.2l0-0.1l0-0.2l0-0.1l0-0.2l0-0.1l0-0.2l0-0.1l0,0l0-0.2l0-0.1l0-0.2l0-0.1
				l0-0.2l0-0.1l0-0.2l0-0.1l0-0.2l0,0l0-0.1l0-0.2l0-0.1l0-0.2l0-0.1l0-0.2l0-0.1l0,0l0-0.2l0-0.1l0-0.2l0-0.1l0-0.2l0-0.1l0-0.2
				l0-0.1l0-0.2l0-0.1l0-0.2l0-0.1l0-0.5l0-0.3l0.4,0l0,0l0.1,0l0.1,0l0.3,0l0.3,0l0.2,0h0l0.2,0l0,0l0,0l0.1,0l0.1,0l0.1,0l0.1,0
				l0.1,0l0.1,0l0.1,0l0.2,0l0.1,0l0.2,0l0,0l0.2,0h0l0.2,0l0,0l0.2,0l0.1,0l0.1,0l0.1,0l0.1,0l0.1,0l0.1,0l0.2,0l0,0l0.2,0h0l0.2,0
				l0,0l0.2,0l0.1,0l0.2,0l0.1,0l0.1,0l0.1,0l0.1,0l0.1,0l0.1,0l0.2,0l0,0l0.2,0l0.2,0l0.3,0l0.1,0l0.1,0l0.3,0l0.8,0l0.2,0l0,0.2
				l0,0.9l0,0.8l0,0.4l0,0.3l0,0.3l0,0.2l0,0.3l0,0.3l0,0.3l0,0.4l0,0.4l0,0.3l0,0.3l0,0.3l0,0.2l0,0l0,0.2l0,0.1l0,0.1l0,0.1l0,0.4
				l0,0.3l0,0.2l0,0.1l0,0.2l0,0.2l0,0.1l0,0.1l0,0.1l0,0.4l0,0.3l0,0.1l0,0.1l0,0.1l0,0.2l0,0.1l0,0.1l0,0.2l0,0.2l0,0.1l0,0.1
				l0,0.3l0,0l0,0.3l0,0.1l-0.1,0.2l0,0.1l0,0.2l-0.1,0.2l0,0.2l0,0.1l0,0.1l-0.1,0.3l0.4,0.2l0.4,0.2l0.5,0.3l0.2,0.1l0.2,0.1
				l0.2,0.1l0.2,0.1l0.2,0.1l0.2,0.1l0.2,0.1l0.2,0.1l0,0l0.2,0.1l0.2,0.1l0.1,0.1l0.1,0.1l0.1,0.1l0.1,0.1l0.2,0.1l0.2,0.1l0.2,0.1
				l0.1,0.1l0.1,0.1l0.1,0l0.1,0l0.1,0.1l0.2,0.1l0.1,0.1l0.1,0.1l0.1,0l0.1,0l0.1,0.1l0.2,0.1l0.2,0.1l0.1,0.1l0.1,0.1l0.1,0.1l0,0
				l0.1,0.1l0.1,0.1l0.1,0.1l0.1,0l0.1,0l0.2,0.1l0.2,0.1l0.2,0.1l0.1,0.1l0.1,0.1l0.2,0.1l0.1,0.1l0.1,0.1l0.1,0.1l0.1,0l0.2,0.1
				l0.2,0.1l0.2,0.1l0.2,0.1l0.2,0.1l0.1,0.1l0.2,0.1l0.1,0.1l0.1,0l0.2,0.1l1.5,0.9l0.1,0.1l0.6,0.4l0.6,0.4l0.1,0.1l0.1,0.1
				l0.2,0.1l0.3,0.2l0.2,0.1h0l0.1,0l0.6,0l0.4,0l5.7,0l0.6,0h0.1l0.6,0l0.3,0l0.3,0l0.3,0l0.3,0l0.6,0l0.3,0l0.3,0h0.3l0.1,0l0.9,0
				l1.6,0l0.2,0l1.5,0l0.3,0l0.7,0l0.7,0l0.3,0l0.7,0l0.7,0l0.3,0l0.7,0l0.5,0l0.3,0l0.2,0l0.1,0l0.2,0l0.2,0l0.2,0l0.2,0l0.2,0
				l0.2,0l0.2,0l0.1,0l0.3,0l0.1,0l0.2,0l0.2,0l0.2,0l0.2,0l0.2,0l0.2,0l9.2-0.1l0.7,0l0.6,0l0.3,0l0.6,0l0.3,0l0.1,0l0.1,0l0.6,0
				l0.1,0l12.6-0.2l0.9,0l0.5,0l0.7,0l0.5,0l1,0l0.7,0l1.2,0l0.4,0l0.1,0l0.5,0l0.4,0l0.4,0l0.5,0l0.4,0l0.3,0l0.3,0l0.3,0l0.5,0
				l0.2,0l1.2,0l0.2,0l1.2,0l0.2,0l0.3,0l0-0.2l0-0.5l0-2.8l0-3.7l0-6.4l0-0.5l0.1-10.9l0.2-2.1l0,0l0-0.2l0-0.3l0-1.5l0-1.4l0-0.9
				l0-0.7l0-0.4l0-0.5l0-1.3l0-0.6l0-1l0-0.5l0-0.2l0-0.3l0-1.7l0-0.6l0-0.5l0-1.2l0-0.1l0-0.2l0.5,0l0.2,0l0.5,0l0.4,0l0.4,0l0.4,0
				l0.3,0l0.6,0l0.2,0l0.3,0l0.6,0l0.6,0l0.6,0l0.1,0l0.2,0l0.4,0l0.3,0l0.2,0l1,0l0.6,0l0.7,0l0.5,0l0.3,0l0.3,0l0.9,0l0.8,0l0.4,0
				l0.1,0l0.5,0l0.3,0l0.3,0l0.4,0l0.4,0l0.8,0l1.2,0l0.2,0l0.2,0l0.7,0l0.2,0l0.2,0l0.7,0l0.1,0l0.2,0l0.8,0l0.2,0l0.2,0l1.8-0.1
				l0.2,0l0.2,0l0.6,0l0.1,0l0.1,0l0.8,0l0.9,0l0.7,0l0.3,0l0.5,0l0.1,0l0.3,0l0.3,0l1.2,0l0.2,0l0.2,0l0.3,0l0.3,0l0.7,0l0.2,0
				l0.2,0l1.3,0l0.2,0l0,0l0,0l0.3,0l0.6,0l0.7,0l0.8,0l0.3,0l0.4,0l0.7,0l1.1,0l0.3,0l0.1,0l0.1,0l0.2,0l1.1,0l0.4,0l0.2,0l1.2,0
				l0.3,0l0.3,0l0.7,0l0.5,0l0.2,0h0.1h0.2l0.2,0l0.8,0l0.3,0l0.2,0l0.5,0l0.2,0l0.2,0h0.1l0.2,0l0.1,0l0.1,0l0.1,0h0h0.1h0h0.1
				l0.3,0l0.2,0l0.2,0l0.3,0l0.6,0l0.4,0l0.7,0l0.7,0l0.6,0l0.3,0l0.1,0l0.2,0l0,0l0.5,0l0.1,0l0,0l-0.6-0.7l-0.2-0.2l-1.2-1.3
				l-1.5-1.7l-0.9-1l-0.6-1l0,0l-0.2-0.3l-0.4-0.8l0,0l2.1,0l6.9,0l4.8,0l2.4,0l0.5,0l0.2,0l0,0l0,0l0,0l0,0l0,0.1l0,0l0,0.1l0,0.1
				l0,0.1l0,0l0,0l0,0.1l0,0.1l0,0.1l0.1,0.1l0,0.1l0.1,0.1l0.1,0.1l0.1,0.1l0.1,0l0.1,0l0.1,0l0.1,0.1l0,0.1l0.1,0.2l0,0.1l0,0
				l0,0.1l0,0.1l0,0.1l0,0.1l0,0.1l0,0l0,0l0,0l0.1,0.2l0.1,0.1l0.1,0.1l0.1,0.1l0.2,0.1L393.5,23.7L393.5,23.7z"/>
		</g>
	</g>
</g>
<g id="Layer_2">
</g>
</svg>
